<?xml version="1.0" encoding="utf-8"?>
<!-- Generator: Adobe Illustrator 16.0.0, SVG Export Plug-In . SVG Version: 6.00 Build 0)  -->
<!DOCTYPE svg PUBLIC "-//W3C//DTD SVG 1.1//EN" "http://www.w3.org/Graphics/SVG/1.1/DTD/svg11.dtd">
<svg version="1.1" id="圖層_1" xmlns="http://www.w3.org/2000/svg" xmlns:xlink="http://www.w3.org/1999/xlink" x="0px" y="0px"
	 width="437.517px" height="500px" viewBox="0 0 437.517 500" enable-background="new 0 0 437.517 500" xml:space="preserve">
<g>
	<path fill="#212121" d="M0,0h59.67c14.448,0,28.178,1.618,41.183,4.845c13.005,3.231,24.353,8.458,34.042,15.682
		c9.69,7.228,17.38,16.619,23.078,28.178c5.694,11.563,8.542,25.587,8.542,42.075c0,14.623-2.765,27.5-8.288,38.632
		c-5.526,11.136-12.965,20.488-22.313,28.05c-9.351,7.566-20.145,13.304-32.385,17.212c-12.24,3.913-25.078,5.865-38.505,5.865H0V0z
		 M39.78,143.82h20.655c9.18,0,17.723-0.932,25.627-2.805c7.905-1.869,14.746-4.973,20.528-9.308
		c5.777-4.335,10.327-10.029,13.642-17.085c3.315-7.052,4.973-15.683,4.973-25.882c0-8.837-1.657-16.531-4.973-23.078
		c-3.315-6.542-7.777-11.941-13.387-16.192c-5.61-4.248-12.2-7.435-19.763-9.563c-7.566-2.124-15.515-3.188-23.842-3.188H39.78
		V143.82z"/>
</g>
<g>
	<path fill="#212121" d="M0,319.46h54.06l76.755,125.46h0.51V319.46h39.78V500h-52.02L40.29,371.48h-0.51V500H0V319.46z"/>
</g>
<g>
	<path fill="#212121" d="M364.076,402.86l40.883-36.72c2.081-1.882,4.163-4.015,6.244-6.393c2.081-2.379,3.122-5.152,3.122-8.325
		c0-3.568-1.289-6.367-3.865-8.4c-2.578-2.029-5.601-3.047-9.068-3.047c-4.163,0-7.41,1.289-9.738,3.865
		c-2.329,2.578-3.642,5.749-3.939,9.515l-22.3-1.636c0.298-5.449,1.436-10.184,3.42-14.197c1.981-4.014,4.608-7.359,7.879-10.035
		s7.11-4.683,11.521-6.021c4.409-1.338,9.191-2.007,14.347-2.007c4.757,0,9.217,0.669,13.379,2.007
		c4.163,1.338,7.78,3.321,10.853,5.946c3.071,2.627,5.476,5.924,7.211,9.886c1.732,3.966,2.602,8.574,2.602,13.826
		c0,3.371-0.349,6.418-1.041,9.143c-0.694,2.728-1.66,5.204-2.898,7.434c-1.241,2.23-2.702,4.288-4.386,6.17
		c-1.687,1.884-3.52,3.717-5.501,5.5l-31.963,27.503h46.681v19.624h-73.44V402.86z"/>
</g>
<g>
	<path fill="#212121" d="M326.082,0h32.895l78.54,180.54h-44.88l-15.555-38.25h-70.125l-15.045,38.25h-43.86L326.082,0z
		 M341.382,52.53l-21.93,56.1h44.114L341.382,52.53z"/>
</g>
</svg>
