<?xml version="1.0" encoding="utf-8"?>
<!-- Generator: Adobe Illustrator 16.0.0, SVG Export Plug-In . SVG Version: 6.00 Build 0)  -->
<!DOCTYPE svg PUBLIC "-//W3C//DTD SVG 1.1//EN" "http://www.w3.org/Graphics/SVG/1.1/DTD/svg11.dtd">
<svg version="1.1" xmlns="http://www.w3.org/2000/svg" xmlns:xlink="http://www.w3.org/1999/xlink" x="0px" y="0px" width="800px"
	 height="300px" viewBox="0 0 800 300" enable-background="new 0 0 800 300" xml:space="preserve">
<g id="圖層_2" display="none">
	<rect display="inline" fill="#DCDDDD" width="800" height="300"/>
</g>
<g id="圖層_1">
	<g>
		<g>
			<g>
				<g>
					<path fill="#333333" d="M127.653,90.808c-6.12,24.479-19.919,42.238-35.278,52.077c-1.32-1.92-4.92-5.279-6.96-6.72
						c13.2-7.8,24.959-21.599,30.959-39.118H87.814v-8.52h32.399l1.56-0.36L127.653,90.808z M191.851,79.768
						c-9.36,8.76-21.6,19.079-31.559,26.039c8.88,13.199,20.759,23.399,35.639,29.039c-1.92,1.8-4.8,5.279-6.12,7.8
						c-20.159-8.76-34.559-24.959-44.038-46.198v42.478c0,5.4-1.32,8.16-5.16,9.6c-3.84,1.44-10.199,1.561-20.159,1.561
						c-0.36-2.4-1.8-6.36-3.24-8.88c7.32,0.36,14.399,0.36,16.319,0.24c2.16-0.12,2.88-0.72,2.88-2.64V74.008h-32.999v-8.64h42.358
						v8.88c2.64,8.88,6,17.279,10.319,24.959c9.479-7.2,20.759-17.399,27.719-25.199L191.851,79.768z M158.252,64.769
						c-9.72-5.521-29.039-12.72-43.918-16.439l4.32-7.32c14.64,3.48,34.079,9.96,44.158,15.479L158.252,64.769z"/>
				</g>
				<g>
					<path fill="#323333" d="M83.136,194.154h2.304l6.408,11.089l1.873,3.625h0.12c-0.12-1.776-0.288-3.745-0.288-5.568v-9.146
						h2.112v17.594h-2.28l-6.408-11.113l-1.896-3.624h-0.096c0.096,1.776,0.264,3.648,0.264,5.496v9.241h-2.112V194.154z"/>
					<path fill="#323333" d="M99.287,205.243c0-4.344,2.856-6.864,6.048-6.864c3.192,0,6.049,2.521,6.049,6.864
						c0,4.32-2.856,6.817-6.049,6.817C102.144,212.061,99.287,209.563,99.287,205.243z M109.128,205.243c0-3-1.536-5.04-3.792-5.04
						c-2.256,0-3.768,2.04-3.768,5.04c0,3.001,1.512,4.993,3.768,4.993C107.592,210.236,109.128,208.244,109.128,205.243z"/>
					<path fill="#323333" d="M114.743,207.716v-7.225h-1.944v-1.656l2.04-0.12l0.264-3.648h1.824v3.648h3.528v1.776h-3.528v7.272
						c0,1.608,0.504,2.521,2.016,2.521c0.456,0,1.056-0.168,1.488-0.336l0.432,1.632c-0.744,0.24-1.608,0.48-2.4,0.48
						C115.679,212.061,114.743,210.332,114.743,207.716z"/>
					<path fill="#323333" d="M122.063,205.243c0-4.344,2.856-6.864,6.048-6.864c3.192,0,6.049,2.521,6.049,6.864
						c0,4.32-2.856,6.817-6.049,6.817C124.919,212.061,122.063,209.563,122.063,205.243z M131.904,205.243
						c0-3-1.536-5.04-3.792-5.04c-2.256,0-3.768,2.04-3.768,5.04c0,3.001,1.512,4.993,3.768,4.993
						C130.368,210.236,131.904,208.244,131.904,205.243z"/>
					<path fill="#323333" d="M141.886,209.444l1.32-1.513c1.272,1.32,3.048,2.185,4.873,2.185c2.304,0,3.696-1.152,3.696-2.881
						c0-1.8-1.272-2.376-2.928-3.12l-2.544-1.104c-1.632-0.696-3.576-1.944-3.576-4.513c0-2.712,2.352-4.681,5.544-4.681
						c2.088,0,3.937,0.889,5.185,2.185l-1.176,1.416c-1.08-1.008-2.376-1.656-4.008-1.656c-1.992,0-3.289,1.008-3.289,2.592
						c0,1.704,1.536,2.353,2.904,2.929l2.521,1.08c2.04,0.888,3.624,2.088,3.624,4.704c0,2.784-2.304,4.993-5.977,4.993
						C145.559,212.061,143.422,211.052,141.886,209.444z"/>
					<path fill="#323333" d="M156.478,208.363c0-2.832,2.472-4.248,8.017-4.872c0-1.68-0.552-3.288-2.688-3.288
						c-1.512,0-2.88,0.696-3.913,1.392l-0.864-1.512c1.2-0.768,3.048-1.704,5.136-1.704c3.168,0,4.512,2.136,4.512,5.353v8.017h-1.8
						l-0.192-1.561h-0.072c-1.248,1.032-2.712,1.873-4.32,1.873C158.11,212.061,156.478,210.716,156.478,208.363z M164.495,208.58
						v-3.648c-4.392,0.528-5.88,1.608-5.88,3.288c0,1.488,1.008,2.088,2.304,2.088C162.19,210.308,163.223,209.708,164.495,208.58z"
						/>
					<path fill="#323333" d="M170.83,198.715h1.8l0.192,1.872h0.072c1.248-1.224,2.592-2.208,4.368-2.208
						c2.736,0,3.984,1.776,3.984,5.112v8.257h-2.184v-7.969c0-2.448-0.744-3.48-2.472-3.48c-1.344,0-2.256,0.672-3.576,1.992v9.457
						h-2.185V198.715z"/>
					<path fill="#323333" d="M184.03,210.26l1.08-1.44c1.128,0.912,2.304,1.536,3.864,1.536c1.728,0,2.568-0.911,2.568-2.04
						c0-1.319-1.536-1.92-2.977-2.472c-1.824-0.672-3.888-1.561-3.888-3.769c0-2.064,1.656-3.696,4.488-3.696
						c1.608,0,3.024,0.672,4.057,1.464l-1.056,1.416c-0.912-0.672-1.824-1.151-3-1.151c-1.632,0-2.376,0.863-2.376,1.872
						c0,1.248,1.416,1.704,2.88,2.256c1.896,0.72,3.984,1.488,3.984,3.96c0,2.112-1.68,3.865-4.752,3.865
						C187.054,212.061,185.278,211.292,184.03,210.26z"/>
					<path fill="#323333" d="M201.286,202.963c0-5.688,3.336-9.145,7.801-9.145c2.136,0,3.816,1.057,4.824,2.185l-1.2,1.439
						c-0.912-0.983-2.088-1.68-3.6-1.68c-3.336,0-5.544,2.736-5.544,7.129c0,4.44,2.112,7.225,5.473,7.225
						c1.68,0,2.952-0.744,4.08-1.969l1.224,1.393c-1.392,1.608-3.12,2.521-5.4,2.521
						C204.574,212.061,201.286,208.676,201.286,202.963z"/>
					<path fill="#323333" d="M215.781,209.275l1.584-1.128c0.792,1.393,1.776,1.969,3.048,1.969c1.896,0,2.832-1.08,2.832-3.744
						v-12.218h2.208v12.434c0,3.024-1.392,5.473-4.824,5.473C218.397,212.061,216.813,211.1,215.781,209.275z"/>
					<path fill="#323333" d="M230.206,194.154h2.232v8.833h0.072l7.344-8.833h2.497l-5.497,6.697l6.36,10.896h-2.496l-5.256-9.169
						l-3.024,3.601v5.568h-2.232V194.154z"/>
					<path fill="#323333" d="M254.758,196.026h-5.329v-1.872h12.889v1.872h-5.329v15.722h-2.232V196.026z"/>
					<path fill="#323333" d="M263.805,202.963c0-5.688,3.336-9.145,7.801-9.145c2.136,0,3.816,1.057,4.824,2.185l-1.2,1.439
						c-0.912-0.983-2.088-1.68-3.6-1.68c-3.336,0-5.544,2.736-5.544,7.129c0,4.44,2.112,7.225,5.473,7.225
						c1.68,0,2.952-0.744,4.08-1.969l1.224,1.393c-1.392,1.608-3.12,2.521-5.4,2.521
						C267.093,212.061,263.805,208.676,263.805,202.963z"/>
					<path fill="#323333" d="M295.174,211.748l-4.272-7.465h-3.168v7.465h-2.232v-17.594h5.521c3.576,0,6.145,1.272,6.145,4.944
						c0,2.736-1.584,4.369-3.984,4.944l4.512,7.705H295.174z M287.733,202.483h2.952c2.76,0,4.272-1.104,4.272-3.385
						c0-2.328-1.512-3.144-4.272-3.144h-2.952V202.483z"/>
					<path fill="#323333" d="M299.301,205.243c0-4.224,2.856-6.864,5.88-6.864c3.313,0,5.185,2.4,5.185,6.12
						c0,0.48-0.048,0.937-0.096,1.248h-8.785c0.144,2.785,1.848,4.561,4.32,4.561c1.272,0,2.304-0.384,3.265-1.032l0.792,1.44
						c-1.152,0.744-2.544,1.345-4.32,1.345C302.085,212.061,299.301,209.54,299.301,205.243z M308.446,204.188
						c0-2.641-1.2-4.057-3.241-4.057c-1.848,0-3.48,1.488-3.744,4.057H308.446z"/>
					<path fill="#323333" d="M312.31,214.244c0-1.104,0.72-2.16,1.944-2.952v-0.096c-0.696-0.408-1.2-1.104-1.2-2.137
						c0-1.08,0.792-1.944,1.464-2.424v-0.096c-0.864-0.696-1.704-1.944-1.704-3.505c0-2.856,2.256-4.656,4.896-4.656
						c0.72,0,1.368,0.168,1.824,0.336h4.536v1.681h-2.664c0.624,0.6,1.056,1.56,1.056,2.688c0,2.784-2.112,4.537-4.752,4.537
						c-0.648,0-1.368-0.168-1.944-0.456c-0.48,0.407-0.84,0.84-0.84,1.56c0,0.84,0.528,1.416,2.28,1.416h2.544
						c3.024,0,4.537,0.96,4.537,3.097c0,2.424-2.544,4.513-6.577,4.513C314.518,217.749,312.31,216.5,312.31,214.244z
						 M322.174,213.572c0-1.2-0.936-1.608-2.664-1.608h-2.256c-0.48,0-1.104-0.072-1.68-0.216c-0.936,0.672-1.344,1.44-1.344,2.208
						c0,1.393,1.417,2.305,3.792,2.305C320.518,216.261,322.174,214.94,322.174,213.572z M320.47,203.035
						c0-1.896-1.224-3.048-2.76-3.048s-2.784,1.128-2.784,3.048c0,1.896,1.272,3.097,2.784,3.097
						C319.198,206.132,320.47,204.932,320.47,203.035z"/>
					<path fill="#323333" d="M326.661,206.972v-8.257h2.185v7.993c0,2.424,0.72,3.456,2.448,3.456c1.344,0,2.28-0.648,3.528-2.208
						v-9.241h2.185v13.033h-1.824l-0.168-2.04h-0.072c-1.224,1.416-2.52,2.353-4.32,2.353
						C327.885,212.061,326.661,210.284,326.661,206.972z"/>
					<path fill="#323333" d="M341.396,209.156v-16.514h2.185V209.3c0,0.672,0.288,0.937,0.624,0.937c0.12,0,0.216,0,0.456-0.049
						l0.312,1.681c-0.312,0.12-0.696,0.192-1.272,0.192C342.069,212.061,341.396,211.004,341.396,209.156z"/>
					<path fill="#323333" d="M347.42,208.363c0-2.832,2.472-4.248,8.017-4.872c0-1.68-0.552-3.288-2.688-3.288
						c-1.512,0-2.88,0.696-3.913,1.392l-0.864-1.512c1.2-0.768,3.048-1.704,5.136-1.704c3.168,0,4.512,2.136,4.512,5.353v8.017h-1.8
						l-0.192-1.561h-0.072c-1.248,1.032-2.712,1.873-4.32,1.873C349.053,212.061,347.42,210.716,347.42,208.363z M355.437,208.58
						v-3.648c-4.392,0.528-5.88,1.608-5.88,3.288c0,1.488,1.008,2.088,2.304,2.088C353.133,210.308,354.165,209.708,355.437,208.58z
						"/>
					<path fill="#323333" d="M361.772,198.715h1.8l0.192,2.376h0.072c0.912-1.656,2.232-2.712,3.696-2.712
						c0.576,0,0.984,0.072,1.392,0.288l-0.408,1.92c-0.432-0.168-0.744-0.216-1.272-0.216c-1.08,0-2.424,0.768-3.288,3v8.377h-2.185
						V198.715z"/>
				</g>
			</g>
			<g>
				<path fill="#FFFFFF" d="M93.457,241.234c-0.12,0.889-0.264,1.776-0.384,2.545h8.905v13.225c0,1.057-0.264,1.536-1.032,1.801
					c-0.768,0.288-2.136,0.288-4.057,0.288c-0.12-0.48-0.408-1.152-0.648-1.608c1.512,0.072,2.976,0.072,3.384,0.048
					c0.432-0.024,0.552-0.145,0.552-0.528v-11.568H85.32v13.633h-1.752v-15.289h7.801c0.12-0.744,0.216-1.633,0.312-2.545h-9.409
					v-1.68h9.577c0.072-0.864,0.144-1.704,0.168-2.424l1.92,0.216c-0.072,0.695-0.168,1.464-0.264,2.208h9.577v1.68H93.457z
					 M93.529,254.388v4.225h-1.704v-4.225h-5.16v-1.488h5.16v-2.424h-4.656v-1.464h2.52c-0.216-0.792-0.768-1.992-1.32-2.833
					l1.416-0.359c0.576,0.84,1.176,2.016,1.392,2.784l-1.296,0.408h4.296c0.504-1.009,1.056-2.353,1.368-3.288l1.608,0.359
					c-0.456,1.008-0.936,2.04-1.392,2.929h2.712v1.464h-4.944v2.424h5.353v1.488H93.529z"/>
				<path fill="#FFFFFF" d="M115.873,248.987c-1.608,2.593-3.432,5.089-5.232,7.057l11.857-0.84c-1.008-1.44-2.16-2.929-3.24-4.177
					l1.56-0.72c2.16,2.353,4.488,5.521,5.592,7.608l-1.704,0.937c-0.312-0.624-0.696-1.32-1.176-2.089
					c-12.985,1.032-14.305,1.129-15.241,1.488c-0.096-0.384-0.36-1.296-0.6-1.752c0.504-0.12,1.056-0.696,1.752-1.536
					c0.672-0.696,2.664-3.265,4.2-5.977h-7.561v-1.776h9.721v-4.536h-7.849v-1.752h7.849v-3.769h1.848v3.769h8.065v1.752h-8.065
					v4.536h9.841v1.776H115.873z"/>
				<path fill="#FFFFFF" d="M136.944,251.58c-0.048-0.337-0.144-0.793-0.264-1.272c-5.088,0.768-5.809,0.936-6.289,1.176
					c-0.096-0.359-0.36-1.224-0.576-1.656c0.528-0.12,1.08-0.72,1.776-1.584c0.36-0.432,1.104-1.439,1.968-2.712
					c-2.472,0.288-2.976,0.384-3.312,0.552c-0.096-0.359-0.36-1.128-0.552-1.584c0.408-0.096,0.816-0.576,1.32-1.32
					c0.504-0.696,2.184-3.456,3.168-6.048l1.584,0.647c-1.056,2.28-2.353,4.585-3.648,6.385l2.472-0.192
					c0.6-1.008,1.224-2.112,1.728-3.192l1.536,0.912c-1.536,2.736-3.408,5.521-5.328,7.729l3.768-0.505
					c-0.264-0.792-0.528-1.607-0.816-2.352l1.368-0.36c0.648,1.561,1.32,3.673,1.56,4.921L136.944,251.58z M132.336,252.779
					c-0.24,2.064-0.696,4.369-1.224,5.881c-0.312-0.168-1.056-0.408-1.416-0.552c0.552-1.488,0.912-3.624,1.152-5.593
					L132.336,252.779z M134.665,252.468c0.312,1.584,0.6,3.648,0.672,5.04l-1.44,0.24c-0.048-1.344-0.312-3.433-0.6-5.04
					L134.665,252.468z M136.896,251.844c0.48,1.272,1.032,2.928,1.224,4.008l-1.32,0.456c-0.216-1.104-0.72-2.784-1.176-4.056
					L136.896,251.844z M151.538,256.884v1.633h-13.657v-1.633h6.096v-4.561h-4.776v-1.607h11.377v1.607h-4.848v4.561H151.538z
					 M141.289,249.899c-0.504-1.248-1.632-3.096-2.856-4.729c0.96-1.464,1.968-3.288,2.521-4.416l1.56,0.408
					c-0.648,1.224-1.56,2.76-2.353,3.96c1.056,1.393,2.112,3.072,2.641,4.152L141.289,249.899z M151.322,239.986h-12.649v-1.632
					h12.649V239.986z M146.642,241.187c-0.672,1.2-1.584,2.736-2.4,3.912c1.056,1.368,2.16,3.024,2.712,4.081l-1.464,0.672
					c-0.528-1.248-1.704-3.097-3-4.704c0.96-1.44,2.04-3.24,2.592-4.369L146.642,241.187z M149.738,249.899
					c-0.6-1.248-1.872-3.12-3.24-4.729c1.008-1.464,2.136-3.288,2.688-4.416l1.584,0.432c-0.696,1.225-1.68,2.736-2.472,3.937
					c1.128,1.344,2.304,3,2.88,4.08L149.738,249.899z"/>
				<path fill="#FFFFFF" d="M175.058,255.54v1.8h-20.666v-1.8H175.058z M173.762,239.482v1.776H155.76v-1.776H173.762z
					 M171.89,247.259v1.801h-14.593v-1.801H171.89z"/>
				<path fill="#FFFFFF" d="M198.698,238.259v20.882h-1.752v-1.104H180.48v1.104h-1.704v-20.882H198.698z M196.946,256.428v-16.537
					H180.48v16.537H196.946z M188.809,252.779c-2.497,0.48-5.041,0.984-7.009,1.345l-0.24-1.345
					c1.824-0.287,4.489-0.768,7.177-1.248L188.809,252.779z M194.761,245.795c-0.6,2.257-1.512,4.225-2.664,5.881
					c0.504,1.272,1.152,2.088,1.944,2.208c0.336,0.096,0.576-0.936,0.744-2.472c0.288,0.287,0.816,0.647,1.152,0.792
					c-0.312,2.616-1.128,3.576-2.376,3.096c-1.056-0.216-1.848-1.056-2.497-2.328c-0.936,1.08-1.992,1.992-3.168,2.761
					c-0.216-0.288-0.744-0.864-1.056-1.129c1.416-0.815,2.616-1.872,3.624-3.144c-0.648-1.896-1.032-4.369-1.32-7.081H181.8v-1.344
					h7.225c-0.072-0.84-0.144-1.681-0.192-2.545h1.536c0.048,0.864,0.096,1.705,0.144,2.545h5.232v1.344h-5.113
					c0.192,2.064,0.48,3.984,0.888,5.521c0.768-1.296,1.368-2.784,1.776-4.416L194.761,245.795z M187.945,245.892v4.656h-5.305
					v-4.656H187.945z M186.649,247.02h-2.76v2.4h2.76V247.02z M194.281,242.771c-0.528-0.527-1.632-1.271-2.568-1.68l0.84-0.888
					c0.936,0.432,2.04,1.08,2.592,1.632L194.281,242.771z"/>
				<path fill="#FFFFFF" d="M231.217,251.868c2.185,2.256,5.593,4.32,8.665,5.352c-0.432,0.36-0.984,1.032-1.248,1.536
					c-3.121-1.248-6.625-3.624-8.929-6.216v6.528h-1.8v-6.457c-2.28,2.568-5.688,4.849-8.737,6.097
					c-0.288-0.456-0.816-1.128-1.248-1.488c3.024-1.056,6.36-3.12,8.497-5.352h-5.809v-8.737h7.297v-2.017h-9.385v-1.68h9.385
					v-2.256h1.8v2.256h9.625v1.68h-9.625v2.017h7.705v8.737H231.217z M222.336,246.827h5.568v-2.28h-5.568V246.827z
					 M222.336,250.476h5.568v-2.328h-5.568V250.476z M229.705,244.547v2.28h5.904v-2.28H229.705z M235.609,248.147h-5.904v2.328
					h5.904V248.147z"/>
				<path fill="#FFFFFF" d="M253.705,247.932c2.136,3.6,6.145,6.984,10.225,8.521c-0.456,0.384-1.032,1.104-1.32,1.584
					c-3.313-1.464-6.577-4.152-8.905-7.272v8.305h-1.824v-8.232c-2.376,3.048-5.593,5.64-8.785,7.128
					c-0.264-0.432-0.84-1.128-1.249-1.488c3.865-1.584,7.825-4.896,10.033-8.376v-5.856h-9.193v-1.753h9.193v-3.312h1.824v3.312
					h9.529v1.753h-9.529V247.932z M248.592,243.106c-0.24,1.009-0.576,1.944-0.936,2.833c1.008,0.888,2.112,1.944,2.712,2.64
					l-1.224,1.225c-0.48-0.601-1.368-1.488-2.232-2.328c-0.816,1.512-1.848,2.784-3.024,3.768c-0.312-0.312-1.008-0.888-1.417-1.151
					c2.185-1.633,3.672-4.2,4.369-7.297L248.592,243.106z M259.85,243.083c-0.192,1.008-0.48,1.944-0.816,2.832
					c1.512,1.176,3.36,2.712,4.32,3.696l-1.272,1.225c-0.816-0.912-2.328-2.257-3.744-3.433c-0.6,1.104-1.296,2.064-2.112,2.832
					c-0.336-0.264-1.056-0.768-1.488-0.96c1.729-1.488,2.88-3.816,3.408-6.48L259.85,243.083z"/>
				<path fill="#FFFFFF" d="M271.776,248.627c-0.456,2.112-1.152,4.44-1.968,6.193c0.456,0.264,1.032,0.72,1.92,1.248
					c1.704,1.032,3.864,1.2,6.72,1.2c3.072,0,6.961-0.24,9.649-0.505c-0.24,0.48-0.504,1.32-0.552,1.849
					c-1.776,0.12-6.337,0.264-9.169,0.264c-3.144,0-5.256-0.264-7.033-1.319c-0.96-0.576-1.848-1.393-2.376-1.393
					c-0.552,0-1.344,1.512-2.064,3.024l-1.224-1.608c0.864-1.2,1.68-2.185,2.4-2.664c0.744-1.368,1.344-3.265,1.728-4.992h-3.144
					c0.672-1.416,1.416-3.457,2.064-5.353h-2.664v-1.608h4.92c-0.6,1.729-1.344,3.744-1.992,5.4h1.656l0.312-0.072L271.776,248.627z
					 M268.536,241.69c-0.288-1.031-0.816-2.688-1.224-3.936l1.584-0.456c0.408,1.248,0.96,2.808,1.248,3.864L268.536,241.69z
					 M274.681,255.732h-1.584v-10.369h1.848v-7.345h9.841v7.345h1.848v8.593c0,0.84-0.144,1.248-0.744,1.512
					c-0.576,0.265-1.488,0.265-2.928,0.265c-0.072-0.433-0.288-1.032-0.48-1.44c1.008,0.023,1.896,0.023,2.136,0.023
					c0.288-0.023,0.384-0.119,0.384-0.359v-7.177h-10.321V255.732z M276.529,245.363h2.256v-4.009h4.368v-1.944h-6.625V245.363z
					 M282.914,253.403h-4.825v0.937h-1.392v-6h6.217V253.403z M281.521,249.611h-3.432v2.544h3.432V249.611z M283.153,245.363
					v-2.761h-2.976v2.761H283.153z"/>
				<path fill="#FFFFFF" d="M311.498,256.021v1.752h-21.194v-1.752h5.833c0.48-2.185,0.984-4.993,1.464-7.85h-4.464v-1.752h4.752
					c0.288-1.776,0.552-3.552,0.768-5.16h-6.841v-1.752h17.954v1.752h-9.217c-0.24,1.608-0.504,3.408-0.792,5.16h6.048l0.312-0.096
					l1.368,0.144c-0.168,2.641-0.504,6.433-0.864,9.554H311.498z M299.497,248.171c-0.456,2.856-0.96,5.665-1.416,7.85h6.697
					c0.264-2.568,0.552-5.641,0.744-7.85H299.497z"/>
				<path fill="#FFFFFF" d="M317.808,247.499c-0.84-0.768-2.52-1.775-3.912-2.376l0.96-1.272c1.392,0.528,3.12,1.488,3.96,2.209
					L317.808,247.499z M314.352,257.868c0.96-1.824,2.328-4.944,3.312-7.608l1.416,0.936c-0.888,2.496-2.112,5.425-3.144,7.609
					L314.352,257.868z M318.648,241.259c-0.768-0.816-2.4-1.92-3.745-2.568l0.984-1.248c1.368,0.6,3,1.608,3.816,2.424
					L318.648,241.259z M321.457,255.876v1.896h-1.584v-9.649h2.76v-4.32h-3.577v-1.656h3.577v-4.368h1.632v4.368h3.192v1.656h-3.192
					v4.32h2.544v7.753H321.457z M321.457,249.684v4.608h3.768v-4.608H321.457z M335.09,256.932c0,0.889-0.216,1.345-0.816,1.633
					c-0.6,0.264-1.536,0.312-3.168,0.288c-0.072-0.408-0.312-1.08-0.528-1.513c1.128,0.024,2.136,0.024,2.424,0.024
					c0.336-0.024,0.456-0.12,0.456-0.456v-6.696c-0.888,0.768-1.776,1.536-2.616,2.28l-0.72-1.44
					c0.84-0.576,2.064-1.464,3.336-2.425v-2.16l-0.864,0.673c-0.552-0.816-1.632-2.112-2.568-3.024l0.984-0.696
					c0.864,0.84,1.872,1.92,2.448,2.688v-6.433h-3.432v8.064c0,3.648-0.384,8.377-3.145,11.401c-0.264-0.288-0.936-0.792-1.32-0.96
					c2.616-2.856,2.88-7.033,2.88-10.441v-9.673h6.649V256.932z"/>
			</g>
		</g>
		<g>
			<g>
				<path fill="#FFFFFF" d="M458.123,241.57c-0.096,0.648-0.215,1.225-0.336,1.801h8.809v13.033c0,1.392-0.336,2.04-1.319,2.448
					c-0.96,0.384-2.376,0.408-4.296,0.408c-0.121-0.721-0.553-1.753-0.912-2.425c1.151,0.072,2.664,0.072,3.023,0.048
					c0.432,0,0.553-0.12,0.553-0.504v-10.393h-4.585l2.4,0.479c-0.336,0.889-0.672,1.753-1.009,2.521h1.753v2.208h-4.057v1.561
					h4.585v2.304h-4.585v3.553h-2.688v-3.553h-4.439v-2.304h4.439v-1.561h-3.936v-2.208h1.848c-0.216-0.72-0.576-1.68-0.936-2.424
					l2.256-0.553c0.432,0.816,0.889,1.896,1.08,2.616l-1.271,0.36h3.504c0.359-0.936,0.72-2.112,0.912-3h-8.857v13.273h-2.88v-15.89
					h7.776c0.096-0.576,0.192-1.152,0.264-1.801h-8.952v-2.664h9.241c0.048-0.72,0.096-1.392,0.119-2.016l3.169,0.288
					c-0.072,0.552-0.168,1.151-0.24,1.728h8.929v2.664H458.123z"/>
				<path fill="#FFFFFF" d="M480.396,249.371c-1.32,2.112-2.904,4.152-4.464,5.881l9.721-0.576c-0.84-1.224-1.729-2.424-2.568-3.456
					l2.641-1.152c2.088,2.4,4.271,5.545,5.328,7.729l-2.785,1.44c-0.264-0.6-0.6-1.272-1.008-1.992
					c-12.097,0.96-13.777,1.032-14.977,1.488c-0.168-0.576-0.648-2.017-0.984-2.809c0.624-0.144,1.128-0.624,1.848-1.439
					c0.576-0.601,2.281-2.761,3.625-5.113h-6.744v-2.88h9.336v-3.408h-7.513v-2.88h7.513v-3.313h3.024v3.313h7.729v2.88h-7.729
					v3.408h9.457v2.88H480.396z"/>
				<path fill="#FFFFFF" d="M500.915,251.796c-0.048-0.288-0.12-0.648-0.192-1.032c-4.8,0.72-5.664,0.888-6.191,1.152
					c-0.145-0.504-0.576-1.776-0.889-2.496c0.6-0.145,1.128-0.673,1.872-1.561c0.288-0.336,0.841-1.032,1.513-1.992
					c-1.801,0.216-2.328,0.36-2.688,0.528c-0.144-0.504-0.552-1.704-0.841-2.353c0.48-0.144,0.889-0.6,1.369-1.32
					c0.504-0.696,2.016-3.36,2.855-5.904l2.473,1.032c-0.864,1.968-2.016,4.032-3.217,5.736l1.584-0.12
					c0.576-1.008,1.152-2.064,1.609-3.12l2.352,1.44c-1.344,2.472-3.096,5.04-4.896,7.152l2.52-0.313
					c-0.168-0.647-0.383-1.296-0.575-1.872l2.04-0.647c0.6,1.584,1.248,3.672,1.488,4.944L500.915,251.796z M496.906,253.044
					c-0.168,2.232-0.6,4.608-1.104,6.145c-0.504-0.288-1.633-0.624-2.232-0.816c0.576-1.44,0.864-3.672,1.008-5.688L496.906,253.044
					z M499.355,252.636c0.287,1.608,0.576,3.601,0.647,4.944l-2.185,0.433c-0.023-1.32-0.264-3.409-0.504-4.969L499.355,252.636z
					 M501.731,251.892c0.432,1.176,0.888,2.664,1.104,3.648l-2.017,0.72c-0.168-1.008-0.624-2.544-1.032-3.744L501.731,251.892z
					 M516.061,256.164v2.616h-13.729v-2.616h5.424v-3.313h-4.32v-2.544h11.641v2.544h-4.439v3.313H516.061z M507.42,241.427
					c-0.721,1.248-1.536,2.592-2.305,3.721c1.008,1.319,1.969,2.808,2.473,3.84l-2.28,0.889c-0.528-1.249-1.584-3.024-2.833-4.681
					c0.984-1.44,1.969-3.192,2.521-4.345L507.42,241.427z M515.797,240.467h-12.938v-2.544h12.938V240.467z M509.389,249.779
					c-0.529-1.224-1.656-3-2.904-4.632c0.959-1.393,1.992-3.121,2.543-4.249l2.4,0.553c-0.72,1.224-1.56,2.567-2.304,3.672
					c0.983,1.272,2.017,2.736,2.521,3.721L509.389,249.779z M513.612,249.876c-0.576-1.249-1.8-3.049-3.169-4.681
					c1.009-1.416,2.064-3.192,2.641-4.345l2.449,0.576c-0.744,1.272-1.609,2.592-2.4,3.721c1.08,1.271,2.184,2.736,2.736,3.744
					L513.612,249.876z"/>
				<path fill="#FFFFFF" d="M539.196,254.964v2.904H518.41v-2.904H539.196z M537.973,239.219v2.88h-18.193v-2.88H537.973z
					 M535.98,246.875v2.904h-14.569v-2.904H535.98z"/>
				<path fill="#FFFFFF" d="M563.004,237.994v21.458h-2.832v-1.008h-14.857v1.008h-2.712v-21.458H563.004z M560.172,255.9v-15.338
					h-2.783c0.719,0.408,1.512,0.937,1.896,1.345l-0.912,1.008h1.104v2.016h-4.297c0.12,1.32,0.288,2.545,0.48,3.625
					c0.455-0.912,0.816-1.896,1.08-2.952l2.208,0.432c-0.576,2.064-1.44,3.912-2.544,5.473c0.312,0.768,0.672,1.248,1.056,1.344
					c0.288,0.072,0.456-0.864,0.552-2.232c0.457,0.456,1.32,1.08,1.801,1.345c-0.36,2.928-1.584,3.84-3.168,3.145
					c-0.744-0.24-1.32-0.816-1.824-1.656c-0.793,0.815-1.656,1.536-2.593,2.136c-0.312-0.456-1.08-1.368-1.56-1.776
					c0.264-0.144,0.527-0.312,0.768-0.456c-1.872,0.265-3.672,0.528-5.209,0.744l-0.312-2.063c1.752-0.168,4.248-0.48,6.769-0.793
					l0.048,1.104c0.433-0.36,0.815-0.744,1.177-1.176c-0.504-1.729-0.816-3.889-1.033-6.241h-6.672v-2.016h6.48
					c-0.048-0.672-0.072-1.345-0.12-2.017h2.376c0.024,0.672,0.049,1.345,0.096,2.017h2.545c-0.504-0.433-1.2-0.912-1.801-1.248
					l1.057-1.104h-11.521V255.9H560.172z M552.203,250.619h-5.4v-4.632h5.4V250.619z M550.283,247.499h-1.656v1.584h1.656V247.499z"
					/>
				<path fill="#FFFFFF" d="M596.844,252.155c2.039,1.873,4.968,3.553,7.775,4.465c-0.672,0.6-1.584,1.729-2.039,2.496
					c-2.832-1.176-5.761-3.216-7.969-5.568v5.736h-2.953v-5.616c-2.136,2.28-4.92,4.2-7.729,5.376
					c-0.455-0.695-1.344-1.8-1.968-2.399c2.736-0.937,5.544-2.616,7.536-4.489h-4.824v-9.217h6.984v-1.368h-9v-2.664h9v-1.968h2.953
					v1.968h9.264v2.664h-9.264v1.368h7.32v9.217H596.844z M587.434,246.539h4.225v-1.488h-4.225V246.539z M587.434,250.02h4.225
					v-1.488h-4.225V250.02z M594.611,245.051v1.488h4.439v-1.488H594.611z M599.051,248.531h-4.439v1.488h4.439V248.531z"/>
				<path fill="#FFFFFF" d="M625.908,251.1c-0.697-0.769-1.945-1.849-3.169-2.856c-0.528,0.864-1.104,1.633-1.752,2.257
					c-0.312-0.288-0.864-0.673-1.417-1.032c2.137,2.688,5.449,5.088,8.905,6.384c-0.672,0.601-1.632,1.801-2.112,2.593
					c-2.928-1.344-5.616-3.456-7.776-6.024v6.889h-2.976v-6.697c-2.16,2.521-4.873,4.608-7.754,5.929
					c-0.479-0.72-1.367-1.872-2.039-2.472c3.96-1.513,7.704-4.537,9.793-7.801v-5.568h-8.713v-2.784h8.713v-2.977h2.976v2.977h9.097
					v2.784h-9.097v5.376c0.12,0.192,0.24,0.36,0.36,0.552c1.512-1.392,2.496-3.479,3-5.784l2.76,0.504
					c-0.216,0.889-0.479,1.752-0.815,2.568c1.416,1.08,3.097,2.4,4.009,3.24L625.908,251.1z M613.522,243.371
					c-0.239,0.912-0.528,1.776-0.864,2.616c0.889,0.768,1.848,1.608,2.4,2.208l-1.944,1.944c-0.384-0.48-1.008-1.104-1.655-1.752
					c-0.816,1.344-1.777,2.52-2.857,3.408c-0.455-0.528-1.56-1.465-2.184-1.896c2.16-1.536,3.624-4.104,4.32-7.057L613.522,243.371z
					"/>
				<path fill="#FFFFFF" d="M636.778,248.123c-0.433,2.185-1.056,4.44-1.872,6.241c0.385,0.239,0.84,0.576,1.465,0.96
					c1.655,0.983,3.912,1.128,6.72,1.128c2.736,0,7.057-0.24,9.722-0.624c-0.337,0.768-0.816,2.16-0.841,2.928
					c-1.968,0.12-6.216,0.288-9.024,0.288c-3.192,0-5.209-0.264-6.938-1.271c-1.008-0.553-1.871-1.345-2.352-1.345
					c-0.553,0-1.416,1.633-2.016,3.001l-1.896-2.713c0.84-1.008,1.704-1.8,2.52-2.304c0.553-1.177,1.033-2.688,1.393-4.152h-3.024
					c0.552-1.416,1.177-3.337,1.728-5.209h-2.16v-2.544h5.617c-0.504,1.68-1.08,3.601-1.656,5.28h0.984l0.432-0.096L636.778,248.123
					z M632.746,241.811c-0.264-1.08-0.912-2.808-1.32-4.128l2.521-0.769c0.456,1.297,1.08,2.904,1.416,3.984L632.746,241.811z
					 M639.803,255.396h-2.473v-10.44h1.776v-7.345h10.345v7.345h1.752v8.017c0,1.128-0.191,1.729-0.936,2.112
					c-0.695,0.36-1.68,0.384-2.977,0.384c-0.072-0.624-0.336-1.439-0.623-2.064h-3.602v0.744h-2.039V248.1h6.264v5.16
					c0.457,0,0.84,0,0.984,0c0.264,0,0.336-0.072,0.336-0.312v-5.833h-8.809V255.396z M641.578,244.955h1.345v-3.769h3.96v-1.464
					h-5.305V244.955z M645.227,249.924h-2.16v1.68h2.16V249.924z M646.883,242.963h-1.896v1.992h1.896V242.963z"/>
				<path fill="#FFFFFF" d="M675.996,255.372v2.832h-21.41v-2.832h5.545c0.408-1.944,0.84-4.2,1.248-6.553h-4.08v-2.809h4.512
					c0.216-1.368,0.408-2.76,0.576-4.08h-6.433v-2.832h18.481v2.832h-8.881c-0.191,1.32-0.408,2.712-0.624,4.08h4.44l0.504-0.096
					l2.28,0.168c-0.144,2.809-0.456,6.192-0.792,9.289H675.996z M664.498,248.819c-0.407,2.376-0.815,4.633-1.199,6.553h5.016
					c0.24-2.185,0.457-4.585,0.601-6.553H664.498z"/>
				<path fill="#FFFFFF" d="M681.73,247.884c-0.769-0.744-2.4-1.729-3.721-2.305l1.512-2.04c1.32,0.504,3.001,1.368,3.841,2.088
					L681.73,247.884z M678.322,257.628c0.936-1.872,2.208-4.896,3.119-7.704l2.305,1.488c-0.816,2.567-1.824,5.352-2.832,7.681
					L678.322,257.628z M682.643,241.667c-0.793-0.769-2.424-1.849-3.744-2.473l1.584-2.016c1.296,0.552,2.977,1.488,3.792,2.231
					L682.643,241.667z M699.828,256.332c0,1.176-0.24,1.849-0.984,2.256c-0.696,0.433-1.704,0.505-3.168,0.48
					c-0.096-0.648-0.48-1.729-0.84-2.353c0.863,0.048,1.728,0.048,2.039,0.024c0.313-0.024,0.408-0.12,0.408-0.433v-5.568
					c-0.576,0.624-1.176,1.2-1.729,1.801l-0.672-1.513c-0.264,3.024-1.031,6.241-2.928,8.425c-0.456-0.456-1.512-1.176-2.112-1.464
					c0.504-0.601,0.912-1.225,1.248-1.92h-4.536v1.632h-2.448v-9.889h2.399v-3.648h-3.096v-2.593h3.096v-3.888h2.593v3.888h2.736
					v2.593h-2.736v3.648h2.28v7.608c1.057-2.568,1.176-5.568,1.176-8.089v-9.625h7.273V256.332z M688.906,250.26h-2.352v3.36h2.352
					V250.26z M695.051,247.331c0,0.84-0.023,1.729-0.071,2.664c0.672-0.456,1.44-1.056,2.304-1.728v-1.872l-0.744,0.576
					c-0.336-0.505-0.888-1.248-1.488-1.921V247.331z M695.051,240.251v3.312l0.648-0.456c0.504,0.528,1.104,1.129,1.584,1.705
					v-4.561H695.051z"/>
			</g>
			<g>
				<g>
					<path fill="#333333" d="M492.633,91.047c-5.76,24.839-18.24,43.438-32.879,53.278c-2.4-3-8.039-8.52-11.52-10.68
						c11.279-6.72,20.76-18.479,26.279-32.639h-23.279V87.567h29.279l2.52-0.6L492.633,91.047z M557.67,82.888
						c-9.119,8.159-20.039,17.159-29.158,23.279c8.398,11.52,19.318,20.398,33.357,25.918c-3.359,2.761-7.799,8.641-9.959,12.48
						c-17.399-7.8-29.759-20.64-38.758-37.079v27.479c0,7.799-1.561,11.639-6.721,14.039c-4.92,2.279-12.239,2.399-22.318,2.399
						c-0.6-4.079-2.881-10.439-4.801-14.279c6,0.36,13.439,0.36,15.6,0.24s2.881-0.72,2.881-2.64V77.487h-30V63.809h44.52
						c-10.2-4.561-24.119-9.24-35.159-12.12l7.079-11.64c13.92,3,33.959,9.36,44.158,14.64l-7.68,13.319
						c-2.039-1.2-4.68-2.52-7.559-3.84v9.96c2.279,7.56,5.159,14.64,8.52,21.119c8.159-6.479,17.158-14.88,22.918-22.079
						L557.67,82.888z"/>
				</g>
				<g>
					<path fill="#323333" d="M447.059,193.986h3.625l5.16,9.457l1.775,3.84h0.121c-0.193-1.848-0.457-4.2-0.457-6.216v-7.081h3.361
						v17.762h-3.602l-5.136-9.505l-1.8-3.816h-0.121c0.168,1.92,0.433,4.152,0.433,6.192v7.129h-3.36V193.986z"/>
					<path fill="#323333" d="M463.906,205.052c0-4.488,3.096-7.081,6.457-7.081c3.359,0,6.456,2.593,6.456,7.081
						c0,4.44-3.097,7.032-6.456,7.032C467.002,212.084,463.906,209.492,463.906,205.052z M473.219,205.052
						c0-2.545-1.031-4.2-2.855-4.2s-2.857,1.655-2.857,4.2c0,2.52,1.033,4.152,2.857,4.152S473.219,207.571,473.219,205.052z"/>
					<path fill="#323333" d="M479.603,207.044v-5.953h-1.896v-2.616l2.064-0.168l0.407-3.6h2.953v3.6h3.313v2.784h-3.313v5.953
						c0,1.536,0.624,2.256,1.824,2.256c0.432,0,0.96-0.144,1.32-0.288l0.576,2.568c-0.721,0.24-1.656,0.504-2.833,0.504
						C480.826,212.084,479.603,210.068,479.603,207.044z"/>
					<path fill="#323333" d="M487.883,205.052c0-4.488,3.096-7.081,6.456-7.081s6.456,2.593,6.456,7.081
						c0,4.44-3.096,7.032-6.456,7.032S487.883,209.492,487.883,205.052z M497.195,205.052c0-2.545-1.032-4.2-2.856-4.2
						s-2.856,1.655-2.856,4.2c0,2.52,1.032,4.152,2.856,4.152S497.195,207.571,497.195,205.052z"/>
					<path fill="#323333" d="M508.307,209.492l2.039-2.448c1.272,1.176,2.953,1.968,4.513,1.968c1.849,0,2.833-0.792,2.833-2.04
						c0-1.32-1.08-1.729-2.665-2.4l-2.376-1.008c-1.801-0.744-3.601-2.185-3.601-4.776c0-2.904,2.544-5.137,6.145-5.137
						c2.064,0,4.128,0.816,5.569,2.28l-1.801,2.232c-1.128-0.937-2.305-1.464-3.769-1.464c-1.56,0-2.567,0.695-2.567,1.872
						c0,1.271,1.271,1.728,2.783,2.328l2.328,0.983c2.16,0.889,3.576,2.257,3.576,4.825c0,2.904-2.424,5.376-6.527,5.376
						C512.41,212.084,510.034,211.148,508.307,209.492z"/>
					<path fill="#323333" d="M523.498,208.1c0-2.88,2.328-4.393,7.729-4.969c-0.049-1.319-0.625-2.328-2.281-2.328
						c-1.248,0-2.447,0.553-3.695,1.272l-1.272-2.328c1.584-0.984,3.505-1.776,5.616-1.776c3.408,0,5.16,2.04,5.16,5.929v7.849
						h-2.879l-0.265-1.44h-0.072c-1.176,1.009-2.521,1.776-4.056,1.776C525.082,212.084,523.498,210.38,523.498,208.1z
						 M531.227,208.004v-2.713c-3.265,0.433-4.369,1.32-4.369,2.521c0,1.057,0.744,1.513,1.776,1.513
						C529.643,209.324,530.387,208.844,531.227,208.004z"/>
					<path fill="#323333" d="M538.354,198.307h2.881l0.24,1.776h0.096c1.176-1.152,2.544-2.112,4.368-2.112
						c2.904,0,4.152,2.017,4.152,5.4v8.377h-3.528v-7.944c0-2.064-0.576-2.809-1.896-2.809c-1.104,0-1.8,0.528-2.809,1.512v9.241
						h-3.504V198.307z"/>
					<path fill="#323333" d="M552.465,210.188l1.609-2.208c1.199,0.937,2.352,1.465,3.6,1.465c1.344,0,1.944-0.576,1.944-1.417
						c0-1.008-1.392-1.464-2.809-2.016c-1.704-0.648-3.673-1.681-3.673-3.912c0-2.425,1.969-4.129,4.993-4.129
						c1.968,0,3.456,0.816,4.585,1.656l-1.585,2.136c-0.96-0.672-1.896-1.151-2.903-1.151c-1.201,0-1.777,0.527-1.777,1.296
						c0,0.984,1.32,1.344,2.736,1.872c1.776,0.672,3.744,1.561,3.744,4.057c0,2.352-1.848,4.248-5.352,4.248
						C555.777,212.084,553.785,211.292,552.465,210.188z"/>
					<path fill="#323333" d="M570.465,202.939c0-5.856,3.768-9.289,8.256-9.289c2.257,0,4.057,1.08,5.209,2.28l-1.872,2.256
						c-0.888-0.863-1.921-1.487-3.265-1.487c-2.688,0-4.704,2.304-4.704,6.12c0,3.864,1.824,6.192,4.632,6.192
						c1.513,0,2.713-0.72,3.673-1.752l1.872,2.208c-1.464,1.704-3.36,2.616-5.664,2.616
						C574.113,212.084,570.465,208.868,570.465,202.939z"/>
					<path fill="#323333" d="M585.177,208.964l2.448-1.8c0.696,1.296,1.633,1.848,2.641,1.848c1.561,0,2.376-0.84,2.376-3.288
						v-11.737h3.552v12.025c0,3.336-1.68,6.072-5.496,6.072C588.105,212.084,586.377,211.028,585.177,208.964z"/>
					<path fill="#323333" d="M600.465,193.986h3.553v7.705h0.072l5.88-7.705h3.913l-5.426,6.984l6.385,10.777h-3.912l-4.584-7.969
						l-2.328,2.977v4.992h-3.553V193.986z"/>
					<path fill="#323333" d="M625.904,196.938h-4.992v-2.952h13.585v2.952h-5.04v14.81h-3.553V196.938z"/>
					<path fill="#323333" d="M635.744,202.939c0-5.856,3.769-9.289,8.257-9.289c2.257,0,4.057,1.08,5.208,2.28l-1.871,2.256
						c-0.889-0.863-1.921-1.487-3.265-1.487c-2.688,0-4.704,2.304-4.704,6.12c0,3.864,1.824,6.192,4.632,6.192
						c1.513,0,2.712-0.72,3.673-1.752l1.871,2.208c-1.463,1.704-3.359,2.616-5.664,2.616
						C639.393,212.084,635.744,208.868,635.744,202.939z"/>
					<path fill="#323333" d="M657.848,193.986h5.881c3.648,0,6.433,1.057,6.433,4.368c0,1.633-0.912,3.313-2.424,3.841v0.12
						c1.92,0.456,3.336,1.8,3.336,4.2c0,3.576-2.976,5.232-6.889,5.232h-6.337V193.986z M663.465,201.211
						c2.256,0,3.24-0.912,3.24-2.328c0-1.56-1.057-2.184-3.192-2.184H661.4v4.512H663.465z M663.873,209.012
						c2.424,0,3.744-0.864,3.744-2.712c0-1.729-1.297-2.448-3.744-2.448H661.4v5.16H663.873z"/>
					<path fill="#323333" d="M673.064,205.052c0-4.488,3.096-7.081,6.457-7.081c3.359,0,6.456,2.593,6.456,7.081
						c0,4.44-3.097,7.032-6.456,7.032C676.16,212.084,673.064,209.492,673.064,205.052z M682.377,205.052
						c0-2.545-1.031-4.2-2.855-4.2s-2.857,1.655-2.857,4.2c0,2.52,1.033,4.152,2.857,4.152S682.377,207.571,682.377,205.052z"/>
					<path fill="#323333" d="M688.928,207.979v-15.385h3.504v15.553c0,0.792,0.385,1.057,0.721,1.057c0.145,0,0.24,0,0.48-0.048
						l0.432,2.616c-0.408,0.168-1.008,0.312-1.824,0.312C689.792,212.084,688.928,210.476,688.928,207.979z"/>
					<path fill="#323333" d="M695.719,205.052c0-4.393,2.736-7.081,5.641-7.081c1.513,0,2.449,0.576,3.408,1.464l-0.144-2.111
						v-4.729h3.528v19.153h-2.855l-0.289-1.393h-0.072c-0.983,0.961-2.328,1.729-3.72,1.729
						C697.879,212.084,695.719,209.444,695.719,205.052z M704.624,207.788v-5.905c-0.815-0.744-1.655-1.008-2.496-1.008
						c-1.513,0-2.784,1.44-2.784,4.129c0,2.784,1.008,4.176,2.784,4.176C703.064,209.18,703.855,208.796,704.624,207.788z"/>
				</g>
			</g>
		</g>
	</g>
</g>
</svg>
