<?xml version="1.0" encoding="utf-8"?>
<!-- Generator: Adobe Illustrator 16.0.0, SVG Export Plug-In . SVG Version: 6.00 Build 0)  -->
<!DOCTYPE svg PUBLIC "-//W3C//DTD SVG 1.1//EN" "http://www.w3.org/Graphics/SVG/1.1/DTD/svg11.dtd">
<svg version="1.1" id="圖層_1" xmlns="http://www.w3.org/2000/svg" xmlns:xlink="http://www.w3.org/1999/xlink" x="0px" y="0px"
	 width="1050px" height="571px" viewBox="30 0 1050 571" enable-background="new 30 0 1050 571" xml:space="preserve">
<path pointer-events="none" fill="none" stroke="#666666" stroke-width="1.2" stroke-miterlimit="10" d="M562.4,67.4v42h-451v42"/>
<path pointer-events="none" fill="none" stroke="#666666" stroke-width="1.2" stroke-miterlimit="10" d="M562.4,67.4v42h-274v42"/>
<path pointer-events="none" fill="none" stroke="#666666" stroke-width="1.2" stroke-miterlimit="10" d="M562.4,67.4v42h-97v42"/>
<path pointer-events="none" fill="none" stroke="#666666" stroke-width="1.2" stroke-miterlimit="10" d="M562.4,67.4v42H818v42"/>
<path pointer-events="none" fill="#FFFFFF" stroke="#666666" stroke-width="1.2" d="M451.4,7.4h222c4.971,0,9,4.03,9,9v42
	c0,4.971-4.029,9-9,9h-222c-4.971,0-9-4.029-9-9v-42C442.4,11.43,446.43,7.4,451.4,7.4z"/>
<g transform="translate(496.5,20.5)scale(1.2)">
	<g enable-background="new    ">
		<path fill="#666666" d="M-1.932,10.256h1.867v9.577h-2l-3.909-6.829H-6v6.829h-1.868v-9.577h2.108l3.801,6.67h0.027V10.256z"/>
		<path fill="#666666" d="M8.108,19.833H6.321v-1.001H6.294c-0.427,0.76-1.174,1.187-2.161,1.187c-1.401,0-2.414-0.8-2.414-2.614
			v-4.669h1.867v4.402c0,1.094,0.64,1.307,1.214,1.307c0.614,0,1.44-0.347,1.44-1.614v-4.095h1.868V19.833z"/>
		<path fill="#666666" d="M17.041,11.95h-5.082v2.014h4.669v1.694h-4.669v2.481h5.309v1.694h-7.27v-9.577h7.043V11.95z"/>
		<path fill="#666666" d="M20.732,19.833h-2.001v-9.577h2.001V19.833z"/>
		<path fill="#666666" d="M24.599,19.833h-2v-9.577h4.375c1.854,0,2.974,1.187,2.974,3.068c0,0.867-0.48,3.055-3.055,3.055h-2.294
			V19.833z M26.453,14.725c1.493,0,1.493-1.067,1.493-1.494c0-0.933-0.52-1.32-1.76-1.32h-1.588v2.815H26.453z"/>
		<path fill="#666666" d="M37.199,18.099h4.762v1.734h-6.763v-9.577h2V18.099z"/>
		<path fill="#666666" d="M45.186,19.833h-2.001v-9.577h2.001V19.833z"/>
		<path fill="#666666" d="M52.894,10.256h1.867v9.577h-2l-3.909-6.829h-0.026v6.829h-1.868v-9.577h2.108l3.801,6.67h0.027V10.256z"
			/>
		<path fill="#666666" d="M63.721,11.95h-5.082v2.014h4.669v1.694h-4.669v2.481h5.309v1.694h-7.27v-9.577h7.043V11.95z"/>
		<path fill="#666666" d="M75.387,13.391c-0.16-0.574-0.467-1.654-2.122-1.654c-0.96,0-2.374,0.64-2.374,3.348
			c0,1.721,0.68,3.268,2.374,3.268c1.108,0,1.882-0.627,2.122-1.801h2c-0.4,2.081-1.76,3.535-4.162,3.535
			c-2.547,0-4.375-1.721-4.375-5.029c0-3.348,1.934-5.055,4.402-5.055c2.868,0,4.028,1.974,4.135,3.388H75.387z"/>
		<path fill="#666666" d="M85.173,19.833h-1.867v-4.308c0-0.52-0.027-1.401-1.214-1.401c-0.827,0-1.467,0.56-1.467,1.641v4.068
			h-1.868v-9.577h1.868v3.401h0.027c0.24-0.587,1.04-1.107,2.054-1.107c1.388,0,2.467,0.814,2.467,2.374V19.833z"/>
		<path fill="#666666" d="M92.653,18.446c0,0.84,0.186,1.027,0.413,1.107v0.28h-2.014c-0.107-0.334-0.133-0.44-0.173-0.84
			c-0.427,0.44-1.027,1.027-2.294,1.027c-1.068,0-2.161-0.6-2.161-2.067c0-1.387,0.881-2.094,2.068-2.268l1.68-0.253
			c0.294-0.04,0.653-0.16,0.653-0.56c0-0.787-0.747-0.827-1.227-0.827c-0.933,0-1.094,0.574-1.147,0.987H86.65
			c0.213-2.174,1.72-2.481,3.175-2.481c1,0,2.828,0.307,2.828,2.054V18.446z M90.825,16.379c-0.186,0.146-0.493,0.267-1.267,0.387
			c-0.693,0.12-1.267,0.294-1.267,1.067c0,0.653,0.507,0.854,0.867,0.854c0.828,0,1.667-0.533,1.667-1.401V16.379z"/>
		<path fill="#666666" d="M96.412,12.737h1.16v1.334h-1.16v3.855c0,0.413,0.013,0.574,0.773,0.574c0.12,0,0.254-0.013,0.387-0.027
			v1.414c-0.294,0.013-0.587,0.027-0.881,0.027h-0.24c-1.614,0-1.908-0.614-1.908-1.534v-4.309h-0.96v-1.334h0.96v-1.921h1.868
			V12.737z"/>
		<path fill="#666666" d="M100.572,13.657h0.026c0.294-0.453,0.854-1.107,2.054-1.107c1.561,0,2.948,1.201,2.948,3.655
			c0,1.947-0.881,3.815-2.988,3.815c-0.773,0-1.601-0.28-2.054-1.08h-0.027v0.894h-1.827v-9.577h1.868V13.657z M102.092,14.164
			c-1.28,0-1.601,1.147-1.601,2.281c0,1.053,0.467,2.041,1.654,2.041c1.2,0,1.534-1.307,1.534-2.148
			C103.68,15.218,103.28,14.164,102.092,14.164z"/>
		<path fill="#666666" d="M110.119,20.02c-1.908,0-3.629-1.174-3.629-3.735s1.721-3.735,3.629-3.735
			c1.907,0,3.628,1.174,3.628,3.735S112.026,20.02,110.119,20.02z M110.119,14.124c-1.441,0-1.707,1.254-1.707,2.161
			s0.266,2.161,1.707,2.161c1.44,0,1.707-1.254,1.707-2.161S111.559,14.124,110.119,14.124z"/>
		<path fill="#666666" d="M117.145,12.737h1.16v1.334h-1.16v3.855c0,0.413,0.013,0.574,0.773,0.574c0.12,0,0.254-0.013,0.387-0.027
			v1.414c-0.294,0.013-0.587,0.027-0.881,0.027h-0.24c-1.614,0-1.908-0.614-1.908-1.534v-4.309h-0.96v-1.334h0.96v-1.921h1.868
			V12.737z"/>
	</g>
</g>
<path pointer-events="none" fill="#FFFFFF" stroke="#666666" stroke-width="1.2" d="M47.5,151.4h127.8c4.474,0,8.1,3.626,8.1,8.1
	v37.8c0,4.474-3.626,8.1-8.1,8.1H47.5c-4.474,0-8.1-3.626-8.1-8.1v-37.8C39.4,155.026,43.026,151.4,47.5,151.4z"/>
<g transform="translate(39.5,163.5)scale(1.2)">
	<g enable-background="new    ">
		<path fill="#666666" d="M31.913,12.572l-1.84,0.52v3.442c0,0.64-0.147,0.974-0.534,1.16c-0.413,0.213-0.987,0.24-1.921,0.24
			c-0.04-0.32-0.214-0.841-0.374-1.174c0.587,0.027,1.16,0.027,1.32,0.013c0.187,0,0.253-0.067,0.253-0.253v-3.068l-1.641,0.454
			l-0.347-1.227c0.56-0.133,1.24-0.307,1.987-0.507V9.584h-1.867V8.41h1.867V5.822h1.254V8.41h1.694v1.174h-1.694v2.267l1.694-0.453
			L31.913,12.572z M39.076,8.117h-2.268v8.217c0,0.787-0.187,1.187-0.72,1.401c-0.533,0.227-1.387,0.253-2.628,0.253
			c-0.067-0.374-0.307-0.987-0.494-1.361c0.894,0.053,1.868,0.04,2.161,0.04c0.253-0.013,0.347-0.093,0.347-0.333V8.117h-3.588
			V6.876h7.19V8.117z"/>
		<path fill="#666666" d="M46.647,11.812v6.229H45.34v-6.229h-4.989v-1.227H45.3V5.822h1.307v1.734h4.335v1.187h-4.335v1.841h5.629
			v1.227H46.647z M50.982,16.013c-0.96-0.533-2.948-1.401-4.335-1.974l0.64-0.961c1.347,0.507,3.361,1.321,4.388,1.814
			L50.982,16.013z"/>
		<path fill="#666666" d="M59.805,6.356h1.067l-3.708,13.045h-1.067L59.805,6.356z"/>
		<path fill="#666666" d="M67.378,13.105v3.455c0,0.614-0.12,0.947-0.467,1.134c-0.36,0.2-0.894,0.24-1.734,0.24
			c-0.027-0.293-0.173-0.827-0.334-1.147c0.534,0.013,1.027,0.013,1.174,0.013c0.16,0,0.227-0.053,0.227-0.24v-3.094l-1.401,0.427
			l-0.28-1.2c0.467-0.12,1.054-0.28,1.681-0.454V9.557h-1.547V8.41h1.547V5.836h1.134V8.41h1.414v1.147h-1.414v2.348l1.281-0.374
			l0.173,1.12L67.378,13.105z M73.341,16.72c0.36,0.053,0.72,0.067,1.107,0.067s2.121,0,2.614-0.013
			c-0.147,0.267-0.307,0.787-0.347,1.094h-2.295c-1.854,0-3.241-0.334-4.108-2.094c-0.36,0.934-0.854,1.694-1.508,2.281
			c-0.187-0.2-0.653-0.587-0.933-0.747c1.16-0.92,1.734-2.414,1.947-4.295l1.12,0.133c-0.066,0.494-0.146,0.96-0.253,1.401
			c0.347,0.96,0.854,1.534,1.494,1.841v-3.895h-3.201v-1.014h7.696v1.014h-3.335v1.387h2.668v0.987h-2.668V16.72z M75.982,10.664
			h-6.376V6.236h6.376V10.664z M74.795,7.143H70.74v0.88h4.055V7.143z M74.795,8.864H70.74v0.881h4.055V8.864z"/>
		<path fill="#666666" d="M82.139,8.743h1.307v9.071h-0.974V17.12h-3.041v0.881h-0.934V8.743h1.334V7.356h-1.641v-1.04h5.602v1.04
			h-1.654V8.743z M82.472,16.133v-3.134h-0.027h-0.52c-0.52,0-0.694-0.16-0.694-0.854V9.784h-0.52v1.067
			c0,0.787-0.173,1.814-0.92,2.521c-0.067-0.08-0.227-0.227-0.36-0.334v3.094H82.472z M79.431,9.784v3.028
			c0.547-0.614,0.64-1.361,0.64-1.974V9.784H79.431z M79.791,14.066h2.334v0.894h-2.334V14.066z M80.672,8.743h0.6V7.356h-0.6V8.743
			z M82.472,9.784h-0.6v2.348c0,0.173,0.013,0.2,0.133,0.2h0.32c0.08,0,0.12,0,0.147-0.013V9.784z M90.262,16.72v1.027h-6.389V16.72
			h2.654V15.4h-2.041v-0.974h2.041v-1.107H85.06c-0.2,0.414-0.44,0.8-0.694,1.094c-0.187-0.173-0.653-0.44-0.907-0.587
			c0.587-0.667,1.027-1.654,1.281-2.654l1.054,0.24c-0.08,0.32-0.187,0.614-0.294,0.92h1.027v-1.054h1.147v1.054h2.267v0.987h-2.267
			v1.107h2.054V15.4h-2.054v1.321H90.262z M89.648,11.025h-5.322V6.329h5.322V11.025z M88.528,7.29h-3.135v0.934h3.135V7.29z
			 M88.528,9.104h-3.135v0.96h3.135V9.104z"/>
	</g>
</g>
<path pointer-events="none" fill="#FFFFFF" stroke="#666666" stroke-width="1.2" d="M224.5,151.4h127.8c4.474,0,8.1,3.626,8.1,8.1
	v37.8c0,4.474-3.626,8.1-8.1,8.1H224.5c-4.474,0-8.1-3.626-8.1-8.1v-37.8C216.4,155.026,220.026,151.4,224.5,151.4z"/>
<g transform="translate(231.5,163.5)scale(1.2)">
	<g>
		<g enable-background="new    ">
			<path fill="#666666" d="M17.173,12.091c-0.24,1.187-0.614,2.441-1.08,3.442c0.253,0.133,0.533,0.36,0.96,0.627
				c0.934,0.56,2.148,0.64,3.722,0.64c1.614,0,3.868-0.12,5.336-0.307c-0.133,0.334-0.334,0.947-0.36,1.281
				c-1.027,0.067-3.481,0.147-5.029,0.147c-1.761,0-2.908-0.147-3.868-0.707c-0.533-0.306-1.027-0.774-1.307-0.774
				c-0.307,0-0.76,0.867-1.121,1.681l-0.84-1.147c0.454-0.6,0.92-1.12,1.347-1.387c0.347-0.72,0.667-1.681,0.867-2.587h-1.707
				c0.333-0.787,0.72-1.868,1.053-2.908h-1.347v-1.12h2.881c-0.293,0.947-0.667,2.027-0.987,2.961h0.734l0.187-0.053L17.173,12.091z
				 M15.186,8.41c-0.147-0.587-0.48-1.534-0.694-2.241l1.094-0.32c0.24,0.694,0.56,1.587,0.734,2.161L15.186,8.41z M19.174,15.96
				h-1.16V9.117h3.415c-0.693-0.333-1.507-0.693-2.188-0.947l0.8-0.667c0.52,0.173,1.134,0.413,1.721,0.68
				c0.507-0.267,1.027-0.587,1.454-0.907h-5.149V6.302h6.309l0.24-0.066l0.747,0.6c-0.68,0.653-1.601,1.307-2.548,1.814
				c0.36,0.16,0.667,0.32,0.92,0.467h1.641v5.696c0,0.56-0.107,0.84-0.48,1C24.51,15.987,23.949,16,23.109,16
				c-0.04-0.307-0.187-0.72-0.334-1c0.547,0.026,1.067,0.013,1.214,0.013c0.16,0,0.214-0.054,0.214-0.214v-0.947h-1.988v2.054h-1.12
				v-2.054h-1.921V15.96z M19.174,10.051v0.96h1.921v-0.96H19.174z M21.095,12.919v-1.001h-1.921v1.001H21.095z M24.203,10.051
				h-1.988v0.96h1.988V10.051z M24.203,12.919v-1.001h-1.988v1.001H24.203z"/>
			<path fill="#666666" d="M30.894,12.265c-0.04,0.253-0.067,0.507-0.12,0.76c0.667,0.653,2.201,2.388,2.587,2.828l-0.854,1.067
				c-0.44-0.667-1.334-1.814-2.041-2.628c-0.44,1.374-1.227,2.708-2.641,3.735c-0.173-0.267-0.627-0.76-0.88-0.947
				c1.881-1.334,2.494-3.148,2.694-4.815h-2.534v-1.174h2.614v-0.4V8.704h-0.814c-0.28,0.734-0.627,1.401-0.987,1.934
				c-0.227-0.213-0.721-0.547-1.014-0.72c0.76-0.974,1.281-2.534,1.587-4.095l1.187,0.227c-0.107,0.507-0.227,1.014-0.36,1.494
				h3.641v1.16h-1.988v2.001c0,0.12,0,0.253,0,0.387h2.361v1.174H30.894z M38.603,6.956V17.52h-1.254v-0.854h-2.428v1.001h-1.201
				V6.956H38.603z M37.349,15.506V8.13h-2.428v7.376H37.349z"/>
			<path fill="#666666" d="M46.693,6.356h1.067l-3.708,13.045h-1.067L46.693,6.356z"/>
			<path fill="#666666" d="M56.507,6.596c-0.947,2.174-2.454,4.362-3.922,5.709c-0.213-0.253-0.774-0.774-1.094-1.027
				c1.454-1.2,2.841-3.148,3.655-5.109L56.507,6.596z M60.255,12.825c1.067,1.441,2.321,3.308,2.948,4.509l-1.254,0.68
				c-0.187-0.387-0.413-0.813-0.707-1.294c-6.683,0.493-7.483,0.547-8.07,0.774c-0.053-0.28-0.307-0.974-0.494-1.334
				c0.4-0.107,0.76-0.507,1.281-1.121c0.547-0.587,2.241-2.908,3.308-5.135l1.44,0.587c-1.094,1.947-2.428,3.881-3.761,5.415
				l5.589-0.334c-0.494-0.774-1.014-1.547-1.481-2.214L60.255,12.825z M60.508,6.143c0.614,2.001,1.894,3.948,3.481,4.935
				c-0.293,0.28-0.734,0.84-0.96,1.227c-1.507-1.134-2.734-3.001-3.468-4.895H57.24V6.143H60.508z"/>
			<path fill="#666666" d="M76.87,10.611v1.16H65.225v-1.16h5.469V8.77h-3.094c-0.387,0.64-0.787,1.2-1.187,1.654
				c-0.267-0.173-0.827-0.507-1.134-0.667c0.96-0.907,1.801-2.401,2.281-3.855l1.24,0.293c-0.173,0.48-0.374,0.974-0.587,1.441
				h2.481V5.822h1.307v1.814h3.948V8.77h-3.948v1.841H76.87z M66.812,12.932h8.617v5.175h-1.294v-0.68h-6.069v0.707h-1.254V12.932z
				 M68.066,14.079v2.201h6.069v-2.201H68.066z"/>
		</g>
	</g>
</g>
<path pointer-events="none" fill="#FFFFFF" stroke="#666666" stroke-width="1.2" d="M401.5,151.4h127.8
	c4.474,0,8.101,3.626,8.101,8.1v37.8c0,4.474-3.627,8.1-8.101,8.1H401.5c-4.474,0-8.1-3.626-8.1-8.1v-37.8
	C393.4,155.026,397.026,151.4,401.5,151.4z"/>
<g transform="translate(423.5,163.5)scale(1.2)">
	<g>
		<g enable-background="new    ">
			<path fill="#666666" d="M4.731,13.105v3.455c0,0.614-0.12,0.947-0.467,1.134c-0.36,0.2-0.894,0.24-1.734,0.24
				c-0.026-0.293-0.173-0.827-0.333-1.147C2.73,16.8,3.224,16.8,3.371,16.8c0.16,0,0.227-0.053,0.227-0.24v-3.094l-1.401,0.427
				l-0.28-1.2c0.466-0.12,1.053-0.28,1.681-0.454V9.557H2.05V8.41h1.548V5.836h1.134V8.41h1.414v1.147H4.731v2.348l1.28-0.374
				l0.173,1.12L4.731,13.105z M10.694,16.72c0.36,0.053,0.72,0.067,1.107,0.067s2.121,0,2.615-0.013
				c-0.147,0.267-0.307,0.787-0.347,1.094h-2.294c-1.854,0-3.241-0.334-4.108-2.094c-0.361,0.934-0.854,1.694-1.507,2.281
				c-0.187-0.2-0.653-0.587-0.934-0.747c1.16-0.92,1.734-2.414,1.947-4.295l1.121,0.133c-0.067,0.494-0.146,0.96-0.253,1.401
				c0.347,0.96,0.854,1.534,1.494,1.841v-3.895H6.332v-1.014h7.696v1.014h-3.334v1.387h2.668v0.987h-2.668V16.72z M13.335,10.664
				H6.959V6.236h6.376V10.664z M12.148,7.143H8.092v0.88h4.055V7.143z M12.148,8.864H8.092v0.881h4.055V8.864z"/>
			<path fill="#666666" d="M19.492,8.743h1.307v9.071h-0.974V17.12h-3.041v0.881H15.85V8.743h1.334V7.356h-1.641v-1.04h5.602v1.04
				h-1.654V8.743z M19.825,16.133v-3.134h-0.026h-0.521c-0.52,0-0.693-0.16-0.693-0.854V9.784h-0.52v1.067
				c0,0.787-0.173,1.814-0.92,2.521c-0.067-0.08-0.227-0.227-0.361-0.334v3.094H19.825z M16.784,9.784v3.028
				c0.547-0.614,0.64-1.361,0.64-1.974V9.784H16.784z M17.144,14.066h2.334v0.894h-2.334V14.066z M18.025,8.743h0.6V7.356h-0.6
				V8.743z M19.825,9.784h-0.6v2.348c0,0.173,0.013,0.2,0.133,0.2h0.32c0.081,0,0.12,0,0.146-0.013V9.784z M27.616,16.72v1.027
				h-6.39V16.72h2.655V15.4h-2.041v-0.974h2.041v-1.107h-1.467c-0.2,0.414-0.44,0.8-0.693,1.094
				c-0.187-0.173-0.653-0.44-0.907-0.587c0.588-0.667,1.027-1.654,1.281-2.654l1.054,0.24c-0.081,0.32-0.187,0.614-0.294,0.92h1.027
				v-1.054h1.147v1.054h2.267v0.987h-2.267v1.107h2.054V15.4h-2.054v1.321H27.616z M27.002,11.025H21.68V6.329h5.322V11.025z
				 M25.881,7.29h-3.135v0.934h3.135V7.29z M25.881,9.104h-3.135v0.96h3.135V9.104z"/>
			<path fill="#666666" d="M35.024,6.356h1.068l-3.708,13.045h-1.067L35.024,6.356z"/>
			<path fill="#666666" d="M47.373,10.691c-0.547,0.414-1.121,0.814-1.707,1.174h4.909v0.974h-5.416
				c-0.16,0.4-0.334,0.787-0.507,1.174h5.402c0,0-0.04,0.347-0.08,0.533c-0.267,1.788-0.574,2.641-1.014,3.041
				c-0.347,0.28-0.693,0.36-1.28,0.387c-0.467,0.027-1.361,0.013-2.321-0.04c-0.027-0.334-0.2-0.814-0.413-1.147
				c0.933,0.093,2,0.107,2.388,0.107c0.307,0,0.48-0.013,0.653-0.12c0.253-0.187,0.466-0.72,0.653-1.748h-5.802
				c0.32-0.587,0.707-1.374,1.027-2.121c-1.107,0.6-2.254,1.147-3.402,1.587c-0.093-0.267-0.36-0.84-0.533-1.107
				c1.908-0.68,3.828-1.587,5.535-2.694h-5.122V9.637h4.429V8.317h-3.281V7.29h3.281v-1.48h1.227v1.48h2.787v0.787
				c0.561-0.533,1.081-1.107,1.547-1.694l0.961,0.574c-0.761,0.947-1.628,1.841-2.602,2.681h3.162v1.053H47.373z M46.973,9.637
				c0.56-0.427,1.081-0.854,1.561-1.321h-2.534v1.321H46.973z"/>
			<path fill="#666666" d="M59.639,17.014c-2.201,0.253-4.509,0.48-6.15,0.64l-0.093-1.08c0.747-0.04,1.694-0.12,2.761-0.2V15.64
				H53.89v-0.907h2.268v-0.627h-2.521v-0.907h2.521v-0.64H53.77V9.878h2.388V9.29h-1.694V7.703H53.33V6.756h1.134V5.809h1.081v0.947
				h2.307V5.809h1.134v0.947h1.041v0.947h-1.041V9.29h-1.72v0.587h2.308v2.681h-2.308v0.64h2.415v0.907h-2.415v0.627h2.148v0.907
				h-2.148v0.654l2.375-0.187V17.014z M54.744,11.691h1.494v-0.947h-1.494V11.691z M55.544,8.45h2.307V7.703h-2.307V8.45z
				 M58.559,10.745h-1.361v0.947h1.361V10.745z M65.134,8.677c0,0-0.013,0.4-0.013,0.574c-0.133,5.522-0.24,7.403-0.653,7.976
				c-0.254,0.374-0.534,0.494-0.947,0.56c-0.374,0.053-0.987,0.04-1.587,0.013c-0.027-0.32-0.16-0.814-0.347-1.134
				c0.614,0.054,1.147,0.054,1.387,0.054c0.213,0,0.347-0.04,0.467-0.214c0.293-0.374,0.426-2.081,0.533-6.696H62.56
				c-0.12,3.575-0.56,6.429-2.227,8.31c-0.2-0.28-0.601-0.654-0.907-0.841c1.548-1.654,1.934-4.215,2.028-7.469h-1.348V8.677h1.374
				c0.014-0.894,0.014-1.854,0.014-2.867h1.121c0,1,0,1.96-0.027,2.867H65.134z"/>
		</g>
	</g>
</g>
<path pointer-events="none" fill="none" stroke="#666666" stroke-width="1.2" stroke-miterlimit="10" d="M818,205.4V251H636v44.4"/>
<path pointer-events="none" fill="none" stroke="#666666" stroke-width="1.2" stroke-miterlimit="10" d="M818,205.4v90"/>
<path pointer-events="none" fill="none" stroke="#666666" stroke-width="1.2" stroke-miterlimit="10" d="M818,205.4V251h182v44.4"/>
<path pointer-events="none" fill="#FFFFFF" stroke="#666666" stroke-width="1.2" d="M754.1,151.4h127.8
	c4.474,0,8.101,3.626,8.101,8.1v37.8c0,4.474-3.627,8.1-8.101,8.1H754.1c-4.474,0-8.1-3.626-8.1-8.1v-37.8
	C746,155.026,749.626,151.4,754.1,151.4z"/>
<g transform="translate(827.5,163.5)scale(1.2)">
	<g>
		<g enable-background="new    ">
			<path fill="#666666" d="M-12.653,13.298c-0.143,0.684-0.443,1.32-0.996,1.884c1.536,0.6,3.553,0.732,6.099,0.756
				c-0.205,0.264-0.409,0.732-0.469,1.104c-2.689-0.096-4.873-0.3-6.554-1.129c-0.78,0.492-1.872,0.9-3.337,1.213
				c-0.132-0.252-0.431-0.732-0.684-0.984c1.309-0.228,2.256-0.528,2.977-0.876c-0.54-0.409-0.996-0.924-1.393-1.549l0.973-0.384
				c0.371,0.54,0.815,0.972,1.344,1.32c0.456-0.408,0.708-0.864,0.851-1.356h-3.457v-4.73h3.638V7.704h-4.694V6.696H-7.97v1.008
				h-4.526v0.864h3.77v4.73H-12.653z M-16.242,10.501h2.581V9.481h-2.581V10.501z M-13.685,12.386
				c0.024-0.192,0.024-0.384,0.024-0.588v-0.432h-2.581v1.021H-13.685z M-9.831,11.366h-2.666v0.444c0,0.204,0,0.384-0.023,0.576
				h2.689V11.366z M-12.497,9.481v1.021h2.666V9.481H-12.497z"/>
			<path fill="#666666" d="M4.162,11.785c-1.668,3.565-5.666,4.897-10.036,5.366c-0.072-0.324-0.264-0.816-0.444-1.08
				c1.958-0.168,3.818-0.516,5.415-1.152c-0.397-0.42-0.973-0.912-1.501-1.332c-0.529,0.276-1.105,0.54-1.729,0.792
				c-0.145-0.276-0.457-0.672-0.697-0.864c2.425-0.828,4.105-2.076,4.993-3.253l1.224,0.276c-0.239,0.3-0.48,0.576-0.755,0.852
				h2.568l0.192-0.048L4.162,11.785z M2.48,7.5c-1.523,2.701-4.969,4.237-8.198,4.886c-0.107-0.276-0.335-0.745-0.527-0.985
				c1.284-0.216,2.593-0.588,3.792-1.104C-2.824,9.889-3.364,9.421-3.88,9.049c-0.397,0.216-0.817,0.444-1.261,0.649
				c-0.168-0.264-0.505-0.624-0.755-0.804c1.908-0.768,3.348-1.849,4.116-2.821l1.213,0.276c-0.216,0.264-0.469,0.516-0.744,0.768
				h2.868l0.192-0.06L2.48,7.5z M-2.464,8.101c-0.181,0.144-0.373,0.276-0.565,0.396c0.576,0.408,1.177,0.9,1.572,1.296
				c0.864-0.468,1.632-1.045,2.209-1.693H-2.464z M-0.519,12.386c-0.288,0.228-0.614,0.444-0.938,0.66
				c0.565,0.42,1.201,0.948,1.61,1.368c0.947-0.528,1.764-1.189,2.34-2.028H-0.519z"/>
		</g>
	</g>
</g>
<g>
	<path pointer-events="none" fill="#FFFFFF" stroke="#666666" stroke-width="1.2" d="M47.5,225.1h127.8c4.474,0,8.1,3.626,8.1,8.1
		V271c0,4.474-3.626,8.101-8.1,8.101H47.5c-4.474,0-8.1-3.627-8.1-8.101v-37.8C39.4,228.727,43.026,225.1,47.5,225.1z"/>
	<g transform="translate(59.5,259.5)scale(1.2)">
		<g enable-background="new    ">
			<path fill="#666666" d="M41.182-2.423v1.254H29.244v-1.254h4.869v-10.164h1.334v3.962h4.815v1.24h-4.815v4.962H41.182z"/>
			<path fill="#666666" d="M46.539-2.583c-1.387,0.347-2.854,0.707-4.001,0.974l-0.227-1.16c0.467-0.093,1.014-0.213,1.614-0.333
				v-3.388h-1.267v-1.107h1.267v-3.148h-1.427v-1.134h4.095v1.134h-1.534v3.148h1.214v1.107h-1.214v3.121l1.347-0.32L46.539-2.583z
				 M49.407-7.078c0,2.681-0.32,5.002-2.854,6.549c-0.16-0.253-0.52-0.694-0.774-0.867c2.134-1.307,2.508-3.175,2.534-5.376
				L47.74-6.505c-0.267-0.774-0.881-1.988-1.414-2.895l0.92-0.347c0.374,0.587,0.76,1.294,1.067,1.921v-4.948h1.094V-7.078z
				 M54.622-2.13v1.147h-5.535V-2.13h2.414v-3.881h-1.547v-1.121h1.547v-3.641h-1.747v-1.134h4.615v1.134h-1.694v3.641h1.507v1.121
				h-1.507v3.881H54.622z"/>
		</g>
	</g>
</g>
<g>
	<path pointer-events="none" fill="#FFFFFF" stroke="#666666" stroke-width="1.2" d="M47.5,294.033h127.8
		c4.474,0,8.1,3.627,8.1,8.101v37.8c0,4.474-3.626,8.1-8.1,8.1H47.5c-4.474,0-8.1-3.626-8.1-8.1v-37.8
		C39.4,297.66,43.026,294.033,47.5,294.033z"/>
	<g transform="translate(59.5,332.5)scale(1.2)">
		<g enable-background="new    ">
			<path fill="#666666" d="M35.593-14.102v2.254l0.227-0.267c1.521,0.733,3.615,1.921,4.642,2.721l-0.907,1.134
				c-0.854-0.72-2.521-1.761-3.962-2.561v6.709h-1.32v-9.99h-4.949v-1.268h11.778v1.268H35.593z"/>
			<path fill="#666666" d="M46.539-6.139c-1.387,0.347-2.854,0.706-4.001,0.973l-0.227-1.16c0.467-0.094,1.014-0.213,1.614-0.334
				v-3.388h-1.267v-1.107h1.267v-3.148h-1.427v-1.134h4.095v1.134h-1.534v3.148h1.214v1.107h-1.214v3.122l1.347-0.321L46.539-6.139z
				 M49.407-10.634c0,2.681-0.32,5.002-2.854,6.549c-0.16-0.254-0.52-0.693-0.774-0.868c2.134-1.307,2.508-3.175,2.534-5.375
				L47.74-10.06c-0.267-0.774-0.881-1.987-1.414-2.895l0.92-0.347c0.374,0.587,0.76,1.294,1.067,1.921v-4.949h1.094V-10.634z
				 M54.622-5.685v1.147h-5.535v-1.147h2.414v-3.882h-1.547v-1.12h1.547v-3.642h-1.747v-1.134h4.615v1.134h-1.694v3.642h1.507v1.12
				h-1.507v3.882H54.622z"/>
		</g>
	</g>
</g>
<g>
	<path pointer-events="none" fill="#FFFFFF" stroke="#666666" stroke-width="1.2" d="M47.5,362.967h127.8
		c4.474,0,8.1,3.627,8.1,8.101v37.8c0,4.474-3.626,8.1-8.1,8.1H47.5c-4.474,0-8.1-3.626-8.1-8.1v-37.8
		C39.4,366.594,43.026,362.967,47.5,362.967z"/>
	<g transform="translate(59.5,404.5)scale(1.2)">
		<g enable-background="new    ">
			<path fill="#666666" d="M31.405-17.097c-0.427,0.72-0.907,1.374-1.361,1.854c-0.24-0.2-0.734-0.52-1.027-0.68
				c0.827-0.733,1.547-1.894,1.961-3.041l1.16,0.307c-0.08,0.213-0.16,0.4-0.253,0.614h3.228v0.947h-2.241
				c0.254,0.387,0.494,0.92,0.6,1.267l-1.001,0.507c-0.093-0.374-0.36-0.947-0.587-1.388l0.827-0.387H31.405z M33.953-6.96
				c-0.427-0.32-1.134-0.773-1.774-1.134c-0.68,0.64-1.521,1.147-2.388,1.494c-0.146-0.24-0.52-0.68-0.76-0.881
				c1.347-0.453,2.574-1.213,3.121-2.24l1.107,0.253c-0.107,0.213-0.24,0.427-0.387,0.614c0.653,0.32,1.374,0.747,1.801,1.054
				L33.953-6.96z M36.127-15.964c-0.107,0.094-0.214,0.186-0.307,0.28c1.214,0.774,3.548,1.454,5.495,1.747
				c-0.253,0.254-0.587,0.72-0.747,1.027c-1.04-0.213-2.174-0.574-3.228-1.013v0.773h-4.495v-0.733
				c-0.96,0.426-1.987,0.787-2.988,1.054c-0.133-0.294-0.427-0.72-0.693-0.987c2.188-0.494,4.668-1.427,5.976-2.668L36.127-15.964z
				 M30.738-12.603h4.188v2.815h-4.188V-12.603z M31.752-10.628h2.108v-1.134h-2.108V-10.628z M37.141-14.003
				c-0.774-0.334-1.467-0.72-2.041-1.134c-0.6,0.413-1.281,0.8-2.001,1.134H37.141z M38.354-9.521
				c-0.093,0.241-0.187,0.481-0.32,0.68c1.081,0.374,2.308,0.881,3.068,1.254l-0.76,0.881c-0.693-0.387-1.881-0.894-2.934-1.281
				C36.834-7.387,36.1-6.947,35.3-6.6c-0.16-0.213-0.547-0.614-0.774-0.814c1.294-0.44,2.334-1.187,2.721-2.281L38.354-9.521z
				 M36.847-17.071c-0.267,0.347-0.547,0.667-0.84,0.92c-0.214-0.2-0.721-0.547-1.014-0.68c0.694-0.547,1.294-1.334,1.627-2.147
				l1.174,0.293c-0.093,0.227-0.2,0.44-0.32,0.667h3.762v0.946h-2.334c0.387,0.427,0.814,1.014,0.987,1.427l-1.001,0.534
				c-0.187-0.44-0.627-1.094-1.027-1.574l0.8-0.387H36.847z M35.593-12.603h4.255v2.815h-4.255V-12.603z M36.62-10.628h2.148v-1.134
				H36.62V-10.628z"/>
			<path fill="#666666" d="M46.846-9.094c0.881-0.146,1.774-0.307,2.668-0.467l0.067,1.081c-2.348,0.453-4.856,0.92-6.616,1.254
				l-0.267-1.174c0.8-0.107,1.854-0.28,2.975-0.48v-2.054h-2.521v-1.081h2.521v-1.32h1.174v1.32h2.521v1.081h-2.521V-9.094z
				 M42.817-18.058h6.843v1.081h-3.561c-0.387,0.774-0.867,1.561-1.361,2.214l2.948-0.227c-0.294-0.426-0.587-0.854-0.881-1.213
				l0.894-0.52c0.721,0.867,1.561,2.067,1.947,2.841l-0.96,0.614c-0.107-0.214-0.227-0.48-0.387-0.734
				c-3.935,0.334-4.442,0.4-4.802,0.547c-0.08-0.253-0.253-0.827-0.4-1.134c0.213-0.054,0.413-0.28,0.64-0.601
				c0.16-0.226,0.614-0.946,0.987-1.787h-1.908V-18.058z M51.448-9.708h-1.16v-8.003h1.16V-9.708z M54.075-18.698v10.324
				c0,0.707-0.16,1.067-0.587,1.254c-0.453,0.2-1.174,0.226-2.174,0.226c-0.053-0.32-0.254-0.88-0.44-1.2
				c0.747,0.027,1.481,0.027,1.694,0.014c0.227,0,0.293-0.067,0.293-0.294v-10.324H54.075z"/>
		</g>
	</g>
</g>
<g>
	<path pointer-events="none" fill="#FFFFFF" stroke="#666666" stroke-width="1.2" d="M47.5,431.9h127.8c4.474,0,8.1,3.626,8.1,8.1
		v37.8c0,4.474-3.626,8.101-8.1,8.101H47.5c-4.474,0-8.1-3.627-8.1-8.101V440C39.4,435.526,43.026,431.9,47.5,431.9z"/>
	<g transform="translate(59.5,477.5)scale(1.2)">
		<g enable-background="new    ">
			<path fill="#666666" d="M31.405-20.153c-0.427,0.72-0.907,1.374-1.361,1.854c-0.24-0.2-0.734-0.52-1.027-0.68
				c0.827-0.733,1.547-1.894,1.961-3.041l1.16,0.307c-0.08,0.213-0.16,0.4-0.253,0.614h3.228v0.947h-2.241
				c0.254,0.387,0.494,0.92,0.6,1.267l-1.001,0.507c-0.093-0.374-0.36-0.947-0.587-1.388l0.827-0.387H31.405z M33.953-10.016
				c-0.427-0.32-1.134-0.773-1.774-1.134c-0.68,0.64-1.521,1.147-2.388,1.494c-0.146-0.24-0.52-0.68-0.76-0.881
				c1.347-0.453,2.574-1.213,3.121-2.24l1.107,0.253c-0.107,0.213-0.24,0.427-0.387,0.614c0.653,0.32,1.374,0.747,1.801,1.054
				L33.953-10.016z M36.127-19.019c-0.107,0.094-0.214,0.186-0.307,0.28c1.214,0.774,3.548,1.454,5.495,1.747
				c-0.253,0.254-0.587,0.72-0.747,1.027c-1.04-0.213-2.174-0.574-3.228-1.013v0.773h-4.495v-0.733
				c-0.96,0.426-1.987,0.787-2.988,1.054c-0.133-0.294-0.427-0.72-0.693-0.987c2.188-0.494,4.668-1.427,5.976-2.668L36.127-19.019z
				 M30.738-15.658h4.188v2.815h-4.188V-15.658z M31.752-13.684h2.108v-1.134h-2.108V-13.684z M37.141-17.059
				c-0.774-0.334-1.467-0.72-2.041-1.134c-0.6,0.413-1.281,0.8-2.001,1.134H37.141z M38.354-12.577
				c-0.093,0.241-0.187,0.481-0.32,0.68c1.081,0.374,2.308,0.881,3.068,1.254l-0.76,0.881c-0.693-0.387-1.881-0.894-2.934-1.281
				c-0.574,0.601-1.307,1.041-2.108,1.388c-0.16-0.213-0.547-0.614-0.774-0.814c1.294-0.44,2.334-1.187,2.721-2.281L38.354-12.577z
				 M36.847-20.127c-0.267,0.347-0.547,0.667-0.84,0.92c-0.214-0.2-0.721-0.547-1.014-0.68c0.694-0.547,1.294-1.334,1.627-2.147
				l1.174,0.293c-0.093,0.227-0.2,0.44-0.32,0.667h3.762v0.946h-2.334c0.387,0.427,0.814,1.014,0.987,1.427l-1.001,0.534
				c-0.187-0.44-0.627-1.094-1.027-1.574l0.8-0.387H36.847z M35.593-15.658h4.255v2.815h-4.255V-15.658z M36.62-13.684h2.148v-1.134
				H36.62V-13.684z"/>
			<path fill="#666666" d="M46.219-15.698c-0.307,1.254-0.76,2.561-1.294,3.575c0.213,0.133,0.467,0.32,0.8,0.533
				c0.92,0.561,2.134,0.64,3.681,0.64c1.628,0,3.868-0.12,5.349-0.307c-0.147,0.347-0.36,0.947-0.374,1.281
				c-1.027,0.067-3.442,0.146-5.015,0.146c-1.747,0-2.881-0.146-3.855-0.707c-0.533-0.307-1.014-0.773-1.294-0.773
				c-0.294,0-0.76,0.867-1.107,1.681l-0.841-1.16c0.547-0.72,1.107-1.294,1.587-1.507c0.361-0.694,0.707-1.615,0.934-2.508h-1.814
				c0.333-0.773,0.734-1.827,1.094-2.854h-1.601v-1.121h3.108c-0.307,0.92-0.707,1.987-1.054,2.895h0.947l0.187-0.054L46.219-15.698
				z M44.005-19.273c-0.16-0.573-0.494-1.48-0.707-2.174l1.134-0.307c0.24,0.667,0.56,1.534,0.734,2.094L44.005-19.273z
				 M50.594-13.711c-0.013,0.321,0.013,0.801,0.053,1.054c-2.868,0.693-3.321,0.841-3.628,1.027c-0.08-0.28-0.307-0.747-0.481-0.973
				c0.214-0.12,0.481-0.347,0.481-0.881v-7.91h0.787v-0.013h5.509v5.015l0.067-0.067l0.947,0.76
				c-0.64,0.453-1.374,0.947-2.041,1.321c0.734,0.64,1.387,1.267,1.827,1.787l-0.92,0.72c-0.774-1-2.467-2.534-3.868-3.561
				l0.84-0.627c0.427,0.32,0.881,0.667,1.347,1.027c0.587-0.387,1.267-0.894,1.734-1.308h-5.002v3.135L50.594-13.711z
				 M52.115-20.353h-3.868v1h3.868V-20.353z M52.115-17.393v-1.027h-3.868v1.027H52.115z"/>
		</g>
	</g>
</g>
<g>
	<path pointer-events="none" fill="#FFFFFF" stroke="#666666" stroke-width="1.2" d="M224.5,225.1h127.8c4.474,0,8.1,3.626,8.1,8.1
		V271c0,4.474-3.626,8.101-8.1,8.101H224.5c-4.474,0-8.1-3.627-8.1-8.101v-37.8C216.4,228.727,220.026,225.1,224.5,225.1z"/>
	<g transform="translate(237.5,259.5)scale(1.2)">
		<g>
			<g enable-background="new    ">
				<path fill="#666666" d="M19.672-1.836c0,0.574-0.12,0.881-0.507,1.054c-0.4,0.2-1.001,0.213-1.841,0.213
					c-0.08-0.307-0.253-0.787-0.413-1.067c0.587,0.026,1.174,0.026,1.334,0.013c0.187-0.013,0.24-0.067,0.24-0.24V-3.37H15.75
					c-0.147,1.04-0.427,2.081-1.001,2.868c-0.2-0.2-0.68-0.573-0.947-0.707c0.867-1.214,0.96-2.921,0.96-4.229v-3.108h4.908V-1.836z
					 M25.781-10.747v1.134H13.896v-1.134h3.055c-0.227-0.48-0.694-1.147-1.107-1.641l1.16-0.4c0.494,0.533,1.054,1.281,1.281,1.787
					l-0.68,0.253h3.842c0.44-0.627,0.907-1.454,1.174-2.081l1.347,0.414c-0.36,0.573-0.734,1.16-1.107,1.667H25.781z M18.485-4.317
					v-1.134h-2.601v0.027c0,0.334-0.013,0.72-0.04,1.107H18.485z M15.883-7.545v1.147h2.601v-1.147H15.883z M22.233-2.997h-1.147
					v-5.429h1.147V-2.997z M23.74-8.799h1.227v6.829c0,0.654-0.146,0.987-0.6,1.174c-0.44,0.2-1.134,0.24-2.134,0.227
					c-0.053-0.333-0.267-0.867-0.44-1.174c0.747,0.026,1.467,0.026,1.667,0.013c0.214-0.013,0.28-0.066,0.28-0.253V-8.799z"/>
				<path fill="#666666" d="M31.138-9.386c-0.307,0.56-0.68,1.121-1.08,1.667v7.19H28.79v-5.669c-0.4,0.427-0.827,0.813-1.227,1.147
					c-0.107-0.28-0.413-0.96-0.627-1.254c1.134-0.854,2.361-2.188,3.108-3.521L31.138-9.386z M30.924-12.281
					c-0.787,1.174-2.014,2.441-3.175,3.241c-0.133-0.293-0.453-0.787-0.64-1.027c0.987-0.667,2.081-1.761,2.628-2.668L30.924-12.281
					z M39.248-2.116v1.187h-8.403v-1.187h3.628v-3.094h-2.788v-1.187h2.788v-2.694h-3.241v-1.174h3.588
					c-0.174-0.573-0.614-1.48-1.027-2.161l1.134-0.4c0.427,0.667,0.907,1.547,1.107,2.121l-1.174,0.44h4.042v1.174h-3.135v2.694
					h2.721v1.187h-2.721v3.094H39.248z"/>
				<path fill="#666666" d="M43.844-6.492c-0.24,1.187-0.614,2.441-1.08,3.442c0.253,0.133,0.533,0.36,0.96,0.627
					c0.934,0.56,2.148,0.64,3.722,0.64c1.614,0,3.868-0.12,5.336-0.307c-0.133,0.334-0.334,0.947-0.36,1.281
					c-1.027,0.067-3.481,0.147-5.029,0.147c-1.761,0-2.908-0.147-3.868-0.707c-0.533-0.306-1.027-0.774-1.307-0.774
					c-0.307,0-0.76,0.867-1.121,1.681l-0.84-1.147c0.454-0.6,0.92-1.12,1.347-1.387c0.347-0.72,0.667-1.681,0.867-2.587h-1.707
					c0.333-0.787,0.72-1.868,1.053-2.908h-1.347v-1.12h2.881c-0.293,0.947-0.667,2.027-0.987,2.961h0.734l0.187-0.053L43.844-6.492z
					 M41.857-10.173c-0.147-0.587-0.48-1.534-0.694-2.241l1.094-0.32c0.24,0.694,0.56,1.587,0.734,2.161L41.857-10.173z
					 M45.845-2.623h-1.16v-6.843h3.415c-0.693-0.333-1.507-0.693-2.188-0.947l0.8-0.667c0.52,0.173,1.134,0.413,1.721,0.68
					c0.507-0.267,1.027-0.587,1.454-0.907h-5.149v-0.974h6.309l0.24-0.066l0.747,0.6c-0.68,0.653-1.601,1.307-2.548,1.814
					c0.36,0.16,0.667,0.32,0.92,0.467h1.641v5.696c0,0.56-0.107,0.84-0.48,1C51.18-2.596,50.62-2.583,49.78-2.583
					c-0.04-0.307-0.187-0.72-0.334-1c0.547,0.026,1.067,0.013,1.214,0.013c0.16,0,0.214-0.054,0.214-0.214v-0.947h-1.988v2.054
					h-1.12v-2.054h-1.921V-2.623z M45.845-8.532v0.96h1.921v-0.96H45.845z M47.766-5.664v-1.001h-1.921v1.001H47.766z M50.874-8.532
					h-1.988v0.96h1.988V-8.532z M50.874-5.664v-1.001h-1.988v1.001H50.874z"/>
				<path fill="#666666" d="M57.564-6.318c-0.04,0.253-0.067,0.507-0.12,0.76c0.667,0.653,2.201,2.388,2.587,2.828l-0.854,1.067
					c-0.44-0.667-1.334-1.814-2.041-2.628c-0.44,1.374-1.227,2.708-2.641,3.735c-0.173-0.267-0.627-0.76-0.88-0.947
					c1.881-1.334,2.494-3.148,2.694-4.815h-2.534v-1.174h2.614v-0.4V-9.88h-0.814c-0.28,0.734-0.627,1.401-0.987,1.934
					c-0.227-0.213-0.721-0.547-1.014-0.72c0.76-0.974,1.281-2.534,1.587-4.095l1.187,0.227c-0.107,0.507-0.227,1.014-0.36,1.494
					h3.641v1.16h-1.988v2.001c0,0.12,0,0.253,0,0.387h2.361v1.174H57.564z M65.274-11.627v10.564H64.02v-0.854h-2.428v1.001h-1.201
					v-10.711H65.274z M64.02-3.077v-7.376h-2.428v7.376H64.02z"/>
			</g>
		</g>
	</g>
</g>
<g>
	<path pointer-events="none" fill="#FFFFFF" stroke="#666666" stroke-width="1.2" d="M224.5,294.033h127.8
		c4.474,0,8.1,3.626,8.1,8.1v37.8c0,4.474-3.626,8.101-8.1,8.101H224.5c-4.474,0-8.1-3.627-8.1-8.101v-37.8
		C216.4,297.659,220.026,294.033,224.5,294.033z"/>
	<g transform="translate(237.5,334.5)scale(1.2)">
		<g>
			<g enable-background="new    ">
				<path fill="#666666" d="M19.672-6.892c0,0.573-0.12,0.88-0.507,1.053c-0.4,0.2-1.001,0.214-1.841,0.214
					c-0.08-0.307-0.253-0.787-0.413-1.068c0.587,0.027,1.174,0.027,1.334,0.014c0.187-0.014,0.24-0.067,0.24-0.24v-1.507H15.75
					c-0.147,1.04-0.427,2.081-1.001,2.868c-0.2-0.2-0.68-0.574-0.947-0.707c0.867-1.214,0.96-2.922,0.96-4.229v-3.108h4.908V-6.892z
					 M25.781-15.802v1.134H13.896v-1.134h3.055c-0.227-0.48-0.694-1.147-1.107-1.641l1.16-0.4c0.494,0.534,1.054,1.28,1.281,1.787
					l-0.68,0.254h3.842c0.44-0.627,0.907-1.454,1.174-2.081l1.347,0.413c-0.36,0.574-0.734,1.16-1.107,1.667H25.781z M18.485-9.373
					v-1.134h-2.601v0.027c0,0.333-0.013,0.72-0.04,1.107H18.485z M15.883-12.602v1.147h2.601v-1.147H15.883z M22.233-8.053h-1.147
					v-5.429h1.147V-8.053z M23.74-13.855h1.227v6.829c0,0.653-0.146,0.987-0.6,1.174c-0.44,0.2-1.134,0.24-2.134,0.227
					c-0.053-0.334-0.267-0.868-0.44-1.174c0.747,0.027,1.467,0.027,1.667,0.014c0.214-0.014,0.28-0.067,0.28-0.254V-13.855z"/>
				<path fill="#666666" d="M31.138-14.443c-0.307,0.561-0.68,1.121-1.08,1.667v7.19H28.79v-5.669
					c-0.4,0.426-0.827,0.814-1.227,1.147c-0.107-0.28-0.413-0.96-0.627-1.253c1.134-0.854,2.361-2.188,3.108-3.521L31.138-14.443z
					 M30.924-17.336c-0.787,1.174-2.014,2.441-3.175,3.241c-0.133-0.294-0.453-0.787-0.64-1.027
					c0.987-0.667,2.081-1.761,2.628-2.668L30.924-17.336z M39.248-7.173v1.187h-8.403v-1.187h3.628v-3.094h-2.788v-1.187h2.788
					v-2.694h-3.241v-1.174h3.588c-0.174-0.574-0.614-1.481-1.027-2.161l1.134-0.4c0.427,0.667,0.907,1.547,1.107,2.121l-1.174,0.44
					h4.042v1.174h-3.135v2.694h2.721v1.187h-2.721v3.094H39.248z"/>
				<path fill="#666666" d="M45.311-17.043c-0.947,2.174-2.454,4.362-3.922,5.709c-0.213-0.253-0.774-0.773-1.094-1.027
					c1.454-1.2,2.841-3.148,3.655-5.108L45.311-17.043z M49.06-10.814c1.067,1.44,2.321,3.308,2.948,4.508l-1.254,0.68
					c-0.187-0.387-0.413-0.814-0.707-1.294c-6.683,0.493-7.483,0.547-8.07,0.773c-0.053-0.28-0.307-0.973-0.494-1.334
					c0.4-0.107,0.76-0.506,1.281-1.12c0.547-0.588,2.241-2.909,3.308-5.136l1.44,0.587c-1.094,1.947-2.428,3.882-3.761,5.416
					l5.589-0.334c-0.494-0.773-1.014-1.547-1.481-2.214L49.06-10.814z M49.313-17.497c0.614,2.001,1.894,3.949,3.481,4.936
					c-0.293,0.28-0.734,0.84-0.96,1.226c-1.507-1.134-2.734-3-3.468-4.895h-2.321v-1.267H49.313z"/>
				<path fill="#666666" d="M65.674-13.028v1.16H54.029v-1.16h5.469v-1.841h-3.094c-0.387,0.64-0.787,1.2-1.187,1.654
					c-0.267-0.173-0.827-0.506-1.134-0.667c0.96-0.907,1.801-2.401,2.281-3.855l1.24,0.294c-0.173,0.48-0.374,0.973-0.587,1.44
					h2.481v-1.814h1.307v1.814h3.948v1.134h-3.948v1.841H65.674z M55.617-10.707h8.617v5.175H62.94v-0.68H56.87v0.707h-1.254
					V-10.707z M56.87-9.561v2.201h6.069v-2.201H56.87z"/>
			</g>
		</g>
	</g>
</g>
<g>
	<path pointer-events="none" fill="#FFFFFF" stroke="#666666" stroke-width="1.2" d="M401.5,225.1h127.8
		c4.474,0,8.101,3.626,8.101,8.1V271c0,4.474-3.627,8.101-8.101,8.101H401.5c-4.474,0-8.1-3.627-8.1-8.101v-37.8
		C393.4,228.727,397.026,225.1,401.5,225.1z"/>
	<g transform="translate(429.5,259.5)scale(1.2)">
		<g>
			<g enable-background="new    ">
				<path fill="#666666" d="M8.004-1.836c0,0.574-0.12,0.881-0.507,1.054c-0.4,0.2-1.001,0.213-1.841,0.213
					c-0.08-0.307-0.254-0.787-0.413-1.067C5.829-1.61,6.416-1.61,6.576-1.623c0.186-0.013,0.24-0.067,0.24-0.24V-3.37H4.082
					C3.935-2.33,3.655-1.289,3.081-0.503c-0.199-0.2-0.68-0.573-0.946-0.707c0.867-1.214,0.96-2.921,0.96-4.229v-3.108h4.909V-1.836
					z M14.113-10.747v1.134H2.227v-1.134h3.055c-0.227-0.48-0.693-1.147-1.107-1.641l1.16-0.4C5.829-12.254,6.389-11.507,6.616-11
					l-0.68,0.253h3.842c0.439-0.627,0.907-1.454,1.174-2.081l1.347,0.414c-0.36,0.573-0.733,1.16-1.107,1.667H14.113z M6.816-4.317
					v-1.134H4.215v0.027c0,0.334-0.014,0.72-0.04,1.107H6.816z M4.215-7.545v1.147h2.601v-1.147H4.215z M10.565-2.997H9.417v-5.429
					h1.147V-2.997z M12.072-8.799h1.227v6.829c0,0.654-0.147,0.987-0.601,1.174c-0.44,0.2-1.134,0.24-2.134,0.227
					c-0.054-0.333-0.267-0.867-0.44-1.174c0.747,0.026,1.467,0.026,1.667,0.013c0.213-0.013,0.28-0.066,0.28-0.253V-8.799z"/>
				<path fill="#666666" d="M19.469-9.386c-0.307,0.56-0.68,1.121-1.081,1.667v7.19h-1.267v-5.669
					c-0.4,0.427-0.827,0.813-1.227,1.147c-0.107-0.28-0.413-0.96-0.627-1.254c1.134-0.854,2.361-2.188,3.108-3.521L19.469-9.386z
					 M19.256-12.281c-0.787,1.174-2.014,2.441-3.175,3.241c-0.133-0.293-0.454-0.787-0.64-1.027
					c0.987-0.667,2.081-1.761,2.628-2.668L19.256-12.281z M27.579-2.116v1.187h-8.403v-1.187h3.629v-3.094h-2.788v-1.187h2.788
					v-2.694h-3.241v-1.174h3.588c-0.173-0.573-0.614-1.48-1.027-2.161l1.134-0.4c0.426,0.667,0.907,1.547,1.107,2.121l-1.174,0.44
					h4.041v1.174h-3.135v2.694h2.721v1.187h-2.721v3.094H27.579z"/>
				<path fill="#666666" d="M36.177-7.892c-0.547,0.414-1.121,0.814-1.707,1.174h4.909v0.974h-5.416
					c-0.16,0.4-0.334,0.787-0.507,1.174h5.402c0,0-0.04,0.347-0.08,0.533c-0.267,1.788-0.574,2.641-1.014,3.041
					c-0.347,0.28-0.693,0.36-1.28,0.387c-0.467,0.027-1.361,0.013-2.321-0.04c-0.027-0.334-0.2-0.814-0.413-1.147
					c0.933,0.093,2,0.107,2.388,0.107c0.307,0,0.48-0.013,0.653-0.12c0.253-0.187,0.466-0.72,0.653-1.748h-5.802
					c0.32-0.587,0.707-1.374,1.027-2.121c-1.107,0.6-2.254,1.147-3.402,1.587c-0.093-0.267-0.36-0.84-0.533-1.107
					c1.908-0.68,3.828-1.587,5.535-2.694h-5.122v-1.053h4.429v-1.321h-3.282v-1.027h3.282v-1.48h1.227v1.48h2.787v0.787
					c0.561-0.533,1.081-1.107,1.547-1.694l0.961,0.574c-0.761,0.947-1.628,1.841-2.602,2.681h3.162v1.053H36.177z M35.777-8.946
					c0.56-0.427,1.081-0.854,1.561-1.321h-2.534v1.321H35.777z"/>
				<path fill="#666666" d="M48.444-1.569c-2.201,0.253-4.509,0.48-6.15,0.64l-0.093-1.08c0.747-0.04,1.694-0.12,2.761-0.2v-0.734
					h-2.268v-0.907h2.268v-0.627h-2.521v-0.907h2.521v-0.64h-2.388v-2.681h2.388v-0.587h-1.694v-1.587h-1.134v-0.947h1.134v-0.947
					h1.081v0.947h2.307v-0.947h1.134v0.947h1.041v0.947H47.79v1.587h-1.72v0.587h2.308v2.681h-2.308v0.64h2.415v0.907h-2.415v0.627
					h2.148v0.907h-2.148v0.654l2.375-0.187V-1.569z M43.548-6.892h1.494v-0.947h-1.494V-6.892z M44.349-10.133h2.307v-0.747h-2.307
					V-10.133z M47.363-7.839h-1.361v0.947h1.361V-7.839z M53.939-9.906c0,0-0.013,0.4-0.013,0.574
					c-0.133,5.522-0.24,7.403-0.653,7.976c-0.253,0.374-0.534,0.494-0.947,0.56c-0.374,0.053-0.987,0.04-1.587,0.013
					c-0.027-0.32-0.16-0.814-0.347-1.134c0.614,0.054,1.147,0.054,1.387,0.054c0.213,0,0.347-0.04,0.467-0.214
					c0.293-0.374,0.426-2.081,0.533-6.696h-1.414c-0.12,3.575-0.56,6.429-2.227,8.31c-0.2-0.28-0.601-0.654-0.907-0.841
					c1.548-1.654,1.934-4.215,2.028-7.469H48.91v-1.134h1.374c0.014-0.894,0.014-1.854,0.014-2.867h1.121c0,1,0,1.96-0.027,2.867
					H53.939z"/>
			</g>
		</g>
	</g>
</g>
<g>
	<path pointer-events="none" fill="#FFFFFF" stroke="#666666" stroke-width="1.2" d="M401.5,294.033h127.8
		c4.474,0,8.101,3.626,8.101,8.1v37.8c0,4.474-3.627,8.101-8.101,8.101H401.5c-4.474,0-8.1-3.627-8.1-8.101v-37.8
		C393.4,297.659,397.026,294.033,401.5,294.033z"/>
	<g transform="translate(429.5,334.5)scale(1.2)">
		<g>
			<g enable-background="new    ">
				<path fill="#666666" d="M8.004-6.892c0,0.573-0.12,0.88-0.507,1.053c-0.4,0.2-1.001,0.214-1.841,0.214
					c-0.08-0.307-0.254-0.787-0.413-1.068c0.587,0.027,1.174,0.027,1.334,0.014c0.186-0.014,0.24-0.067,0.24-0.24v-1.507H4.082
					c-0.147,1.04-0.427,2.081-1.001,2.868c-0.199-0.2-0.68-0.574-0.946-0.707c0.867-1.214,0.96-2.922,0.96-4.229v-3.108h4.909
					V-6.892z M14.113-15.802v1.134H2.227v-1.134h3.055c-0.227-0.48-0.693-1.147-1.107-1.641l1.16-0.4
					c0.494,0.534,1.054,1.28,1.281,1.787l-0.68,0.254h3.842c0.439-0.627,0.907-1.454,1.174-2.081l1.347,0.413
					c-0.36,0.574-0.733,1.16-1.107,1.667H14.113z M6.816-9.373v-1.134H4.215v0.027c0,0.333-0.014,0.72-0.04,1.107H6.816z
					 M4.215-12.602v1.147h2.601v-1.147H4.215z M10.565-8.053H9.417v-5.429h1.147V-8.053z M12.072-13.855h1.227v6.829
					c0,0.653-0.147,0.987-0.601,1.174c-0.44,0.2-1.134,0.24-2.134,0.227c-0.054-0.334-0.267-0.868-0.44-1.174
					c0.747,0.027,1.467,0.027,1.667,0.014c0.213-0.014,0.28-0.067,0.28-0.254V-13.855z"/>
				<path fill="#666666" d="M19.469-14.443c-0.307,0.561-0.68,1.121-1.081,1.667v7.19h-1.267v-5.669
					c-0.4,0.426-0.827,0.814-1.227,1.147c-0.107-0.28-0.413-0.96-0.627-1.253c1.134-0.854,2.361-2.188,3.108-3.521L19.469-14.443z
					 M19.256-17.336c-0.787,1.174-2.014,2.441-3.175,3.241c-0.133-0.294-0.454-0.787-0.64-1.027
					c0.987-0.667,2.081-1.761,2.628-2.668L19.256-17.336z M27.579-7.173v1.187h-8.403v-1.187h3.629v-3.094h-2.788v-1.187h2.788
					v-2.694h-3.241v-1.174h3.588c-0.173-0.574-0.614-1.481-1.027-2.161l1.134-0.4c0.426,0.667,0.907,1.547,1.107,2.121l-1.174,0.44
					h4.041v1.174h-3.135v2.694h2.721v1.187h-2.721v3.094H27.579z"/>
				<path fill="#666666" d="M31.402-10.534v3.455c0,0.614-0.12,0.947-0.467,1.134c-0.36,0.2-0.894,0.24-1.734,0.24
					c-0.026-0.293-0.173-0.827-0.333-1.147c0.533,0.013,1.027,0.013,1.174,0.013c0.16,0,0.227-0.053,0.227-0.24v-3.095l-1.401,0.427
					l-0.281-1.2c0.467-0.12,1.054-0.28,1.681-0.453v-2.681h-1.548v-1.147h1.548v-2.574h1.134v2.574h1.414v1.147h-1.414v2.348
					l1.28-0.374l0.174,1.121L31.402-10.534z M37.365-6.919c0.36,0.053,0.72,0.067,1.107,0.067c0.387,0,2.121,0,2.615-0.014
					c-0.147,0.267-0.307,0.787-0.347,1.094h-2.294c-1.854,0-3.241-0.333-4.108-2.094c-0.361,0.933-0.854,1.694-1.507,2.281
					c-0.187-0.2-0.653-0.587-0.934-0.747c1.16-0.92,1.734-2.415,1.947-4.295l1.121,0.133C34.897-10,34.817-9.534,34.71-9.093
					c0.347,0.96,0.854,1.534,1.494,1.841v-3.895h-3.201v-1.014h7.696v1.014h-3.334v1.388h2.668v0.987h-2.668V-6.919z M40.006-12.975
					h-6.376v-4.428h6.376V-12.975z M38.818-16.497h-4.055v0.881h4.055V-16.497z M38.818-14.775h-4.055v0.881h4.055V-14.775z"/>
				<path fill="#666666" d="M46.163-14.896h1.307v9.071h-0.974v-0.693h-3.041v0.88h-0.933v-9.257h1.334v-1.387h-1.641v-1.041h5.602
					v1.041h-1.654V-14.896z M46.496-7.506v-3.135H46.47h-0.521c-0.52,0-0.693-0.16-0.693-0.854v-2.361h-0.52v1.067
					c0,0.787-0.173,1.814-0.92,2.521c-0.067-0.081-0.227-0.227-0.361-0.334v3.095H46.496z M43.455-13.855v3.027
					c0.547-0.614,0.64-1.36,0.64-1.973v-1.054H43.455z M43.815-9.574h2.334v0.894h-2.334V-9.574z M44.696-14.896h0.6v-1.387h-0.6
					V-14.896z M46.496-13.855h-0.6v2.347c0,0.173,0.013,0.2,0.133,0.2h0.32c0.081,0,0.12,0,0.146-0.013V-13.855z M54.286-6.919
					v1.027h-6.389v-1.027h2.654V-8.24H48.51v-0.973h2.041v-1.108h-1.467c-0.2,0.413-0.44,0.801-0.693,1.094
					c-0.187-0.173-0.653-0.44-0.907-0.587c0.588-0.667,1.027-1.654,1.281-2.655l1.054,0.24c-0.081,0.321-0.187,0.614-0.294,0.92
					h1.027v-1.054h1.147v1.054h2.267v0.987h-2.267v1.108h2.054v0.973h-2.054v1.321H54.286z M53.673-12.615H48.35v-4.695h5.322
					V-12.615z M52.552-16.349h-3.135v0.933h3.135V-16.349z M52.552-14.535h-3.135v0.96h3.135V-14.535z"/>
			</g>
		</g>
	</g>
</g>
<path pointer-events="none" fill="#FFFFFF" stroke="#666666" stroke-width="1.2" d="M572.099,295.4h127.8
	c4.474,0,8.101,3.626,8.101,8.1v37.8c0,4.474-3.627,8.101-8.101,8.101h-127.8c-4.474,0-8.1-3.627-8.1-8.101v-37.8
	C564,299.026,567.626,295.4,572.099,295.4z"/>
<g transform="translate(621.5,307.5)scale(1.2)">
	<g>
		<g enable-background="new    ">
			<path fill="#666666" d="M-2.468,7.77v2.974h-1.227V8.837h-8.737v1.908h-1.187V7.77h1.974c-0.213-0.413-0.574-0.987-0.907-1.401
				l1.121-0.44c0.413,0.44,0.841,1.067,1.054,1.494l-0.787,0.347h2.481V5.809h1.28V7.77h2.388l-0.8-0.307
				c0.347-0.427,0.814-1.094,1.04-1.548l1.321,0.427c-0.413,0.52-0.854,1.054-1.227,1.427H-2.468z M-3.228,16.253
				c0,0.601-0.133,0.933-0.588,1.121c-0.466,0.173-1.147,0.186-2.148,0.186c-0.067-0.333-0.253-0.813-0.413-1.134
				c0.707,0.027,1.414,0.027,1.601,0.027c0.213-0.013,0.267-0.054,0.267-0.213v-1.601h-2.774v3.415h-1.281v-3.415h-2.948v2.814
				h-1.254v-3.935h4.202v-0.973h-2.987V9.637h7.016v2.909h-2.747v0.973h4.055V16.253z M-10.365,11.638h4.561v-1.094h-4.561V11.638z"
				/>
			<path fill="#666666" d="M10.438,16.493c0,0.72-0.173,1.094-0.653,1.281C9.291,17.974,8.517,18,7.29,17.987
				c-0.053-0.334-0.253-0.881-0.413-1.2c0.854,0.04,1.734,0.027,1.987,0.027c0.24,0,0.334-0.081,0.334-0.334v-2.388H5.969v3.815
				h-1.24v-3.815H1.661c-0.213,1.467-0.693,2.961-1.667,4.041c-0.186-0.24-0.693-0.667-0.973-0.814
				c1.453-1.614,1.587-3.975,1.587-5.855V6.716h9.831V16.493z M4.729,12.918v-1.973H1.834v0.533c0,0.454-0.013,0.947-0.053,1.44
				H4.729z M1.834,7.904v1.881h2.895V7.904H1.834z M9.198,7.904H5.969v1.881h3.228V7.904z M9.198,12.918v-1.973H5.969v1.973H9.198z"
				/>
			<path fill="#666666" d="M17.835,14.253c-1.787,0.52-3.695,1.053-5.108,1.453l-0.307-1.294c0.56-0.107,1.267-0.28,2.027-0.48V8.49
				h-1.854V7.316h4.895V8.49h-1.814v5.122l2.001-0.534L17.835,14.253z M24.399,9.33c-0.2,5.416-0.347,7.35-0.854,7.964
				c-0.307,0.4-0.614,0.533-1.081,0.587c-0.44,0.053-1.187,0.053-1.921,0.013c-0.027-0.347-0.173-0.881-0.4-1.213
				c0.76,0.053,1.467,0.067,1.774,0.067c0.24,0,0.387-0.041,0.534-0.214c0.36-0.4,0.547-2.148,0.706-6.602h-2.281
				c-0.213,3.534-0.986,6.443-3.962,8.15c-0.173-0.334-0.573-0.774-0.88-1.001c2.721-1.467,3.415-4.001,3.601-7.149h-2V8.743h2.054
				c0.027-0.881,0.027-1.774,0.027-2.721h1.253c0,0.933-0.013,1.84-0.04,2.721h3.468V9.33z"/>
			<path fill="#666666" d="M31.475,16.814c0,0.56-0.12,0.84-0.493,1.013C30.596,17.987,30.008,18,29.181,18
				c-0.053-0.28-0.226-0.72-0.387-0.987c0.56,0.027,1.107,0.027,1.28,0.014c0.173,0,0.227-0.054,0.227-0.213V15.04
				c-0.8,0.52-1.587,1.013-2.281,1.44L27.674,15.6c-0.146,0.894-0.413,1.801-0.947,2.494c-0.16-0.24-0.627-0.693-0.867-0.854
				c0.747-1.014,0.814-2.441,0.814-3.575v-3.134h4.801V16.814z M30.662,6.783c0.614,0.933,1.347,2.188,1.667,2.974l-1.067,0.453
				c-0.08-0.24-0.213-0.547-0.387-0.867c-3.495,0.32-4.001,0.4-4.348,0.533c-0.067-0.253-0.254-0.827-0.387-1.134
				c0.213-0.053,0.44-0.253,0.707-0.533c0.253-0.281,1.107-1.334,1.641-2.388l1.267,0.374c-0.52,0.827-1.16,1.654-1.774,2.334
				l2.388-0.173c-0.24-0.413-0.48-0.841-0.707-1.2L30.662,6.783z M27.821,13.679c0,0.52-0.026,1.094-0.107,1.681
				c0.694-0.307,1.628-0.787,2.588-1.267v-0.494l-0.587,0.588c-0.427-0.387-1.267-1.001-1.895-1.427l0.64-0.587
				c0.601,0.374,1.388,0.92,1.841,1.28v-1.881h-2.481V13.679z M34.29,11.571c-1.361,0-1.721-0.467-1.721-1.747V5.836h1.227v1.72
				h3.442v1.068h-3.442v1.227c0,0.48,0.094,0.653,0.521,0.653h2.24c0.334,0,0.868-0.027,1.147-0.081
				c0.027,0.321,0.067,0.787,0.12,1.054c-0.253,0.081-0.76,0.094-1.24,0.094H34.29z M36.384,16.867c0.494,0,0.601-0.24,0.653-1.587
				c0.254,0.199,0.747,0.4,1.094,0.453c-0.146,1.747-0.48,2.214-1.641,2.214H34.33c-1.401,0-1.761-0.361-1.761-1.601v-4.348h1.227
				v1.466h3.562v1.108h-3.562v1.76c0,0.454,0.107,0.534,0.694,0.534H36.384z"/>
		</g>
	</g>
</g>
<path pointer-events="none" fill="#FFFFFF" stroke="#666666" stroke-width="1.2" d="M754.099,295.4h127.8
	c4.474,0,8.101,3.626,8.101,8.1v37.8c0,4.474-3.627,8.101-8.101,8.101h-127.8c-4.474,0-8.1-3.627-8.1-8.101v-37.8
	C746,299.026,749.626,295.4,754.099,295.4z"/>
<g transform="translate(813.5,307.5)scale(1.2)">
	<g>
		<g enable-background="new    ">
			<path fill="#666666" d="M-15.534,13.813c-0.16,0.76-0.493,1.467-1.107,2.094c1.707,0.667,3.948,0.814,6.776,0.841
				c-0.227,0.293-0.453,0.813-0.52,1.227c-2.988-0.107-5.416-0.334-7.283-1.254c-0.868,0.547-2.081,1-3.708,1.347
				c-0.146-0.28-0.48-0.814-0.76-1.094c1.453-0.253,2.507-0.587,3.308-0.973c-0.601-0.454-1.108-1.027-1.548-1.721l1.081-0.426
				c0.413,0.6,0.907,1.08,1.494,1.467c0.507-0.453,0.787-0.96,0.946-1.507h-3.841V8.557h4.041v-0.96h-5.215V6.476h11.537v1.121
				h-5.028v0.96h4.189v5.256H-15.534z M-19.522,10.705h2.868V9.57h-2.868V10.705z M-16.681,12.799
				c0.026-0.213,0.026-0.427,0.026-0.653v-0.48h-2.868v1.134H-16.681z M-12.399,11.665h-2.961v0.493c0,0.227,0,0.427-0.027,0.64
				h2.988V11.665z M-15.361,9.57v1.134h2.961V9.57H-15.361z"/>
			<path fill="#666666" d="M3.149,12.131c-1.855,3.962-6.296,5.443-11.152,5.963c-0.08-0.361-0.293-0.907-0.493-1.2
				c2.174-0.187,4.242-0.574,6.016-1.281c-0.44-0.466-1.081-1.013-1.667-1.48c-0.587,0.307-1.227,0.601-1.921,0.881
				c-0.16-0.307-0.507-0.747-0.774-0.96c2.694-0.92,4.562-2.308,5.549-3.615l1.361,0.307c-0.267,0.334-0.534,0.64-0.841,0.947h2.855
				l0.213-0.054L3.149,12.131z M1.281,7.37c-1.694,3.001-5.522,4.709-9.111,5.429c-0.12-0.307-0.374-0.827-0.587-1.094
				c1.427-0.24,2.881-0.653,4.215-1.227c-0.414-0.453-1.014-0.974-1.588-1.388c-0.44,0.24-0.907,0.494-1.401,0.72
				c-0.186-0.293-0.56-0.693-0.841-0.894c2.122-0.854,3.722-2.054,4.575-3.135l1.348,0.307c-0.24,0.294-0.52,0.574-0.827,0.854
				h3.188l0.213-0.066L1.281,7.37z M-4.215,8.037c-0.2,0.16-0.413,0.306-0.627,0.439c0.64,0.454,1.307,1.001,1.747,1.441
				c0.96-0.521,1.814-1.16,2.454-1.881H-4.215z M-2.054,12.799c-0.32,0.253-0.68,0.493-1.04,0.733
				c0.627,0.467,1.334,1.054,1.787,1.521c1.054-0.587,1.961-1.321,2.601-2.254H-2.054z"/>
			<path fill="#666666" d="M9.265,16.654c0,0.6-0.107,0.973-0.48,1.174c-0.374,0.213-0.92,0.24-1.814,0.227
				c-0.027-0.307-0.173-0.881-0.334-1.187c0.547,0.027,1.081,0.013,1.254,0.013c0.16-0.013,0.227-0.066,0.227-0.253v-3.001H6.317
				c-0.12,1.574-0.374,3.228-0.96,4.456c-0.213-0.187-0.72-0.467-1.014-0.574c0.881-1.841,0.947-4.508,0.947-6.456V6.289h3.975
				V16.654z M8.118,12.452v-1.961H6.411v0.561c0,0.426,0,0.907-0.027,1.401H8.118z M6.411,7.437V9.33h1.707V7.437H6.411z
				 M16.442,11.064c-0.321,1.788-0.92,3.254-1.721,4.442c0.614,0.667,1.321,1.227,2.121,1.601c-0.28,0.227-0.614,0.653-0.8,0.96
				c-0.76-0.413-1.44-0.973-2.028-1.641c-0.56,0.64-1.174,1.16-1.867,1.574c-0.16-0.28-0.467-0.68-0.72-0.894v0.947h-1.174V6.316
				h5.802v2.561c0,0.574-0.12,0.894-0.587,1.054c-0.467,0.173-1.174,0.173-2.161,0.173c-0.054-0.32-0.24-0.76-0.387-1.054
				c0.734,0.027,1.481,0.027,1.667,0.014c0.214,0,0.28-0.041,0.28-0.2V7.476h-3.441v3.375h4.095l0.199-0.04L16.442,11.064z
				 M11.427,17.08c0.693-0.36,1.334-0.907,1.894-1.574c-0.707-1.013-1.254-2.214-1.654-3.521h-0.24V17.08z M12.72,11.985
				c0.307,0.933,0.733,1.801,1.267,2.575c0.466-0.761,0.854-1.615,1.121-2.575H12.72z"/>
			<path fill="#666666" d="M28.935,8.21c-0.361,0.84-0.867,1.547-1.48,2.134c0.787,0.453,1.707,0.787,2.694,1
				c-0.254,0.24-0.614,0.72-0.774,1.041c-1.067-0.28-2.041-0.707-2.895-1.281c-0.814,0.534-1.774,0.934-2.814,1.254
				c-0.067-0.146-0.2-0.347-0.347-0.547c-0.227,0.787-0.481,1.574-0.734,2.148l-0.854-0.427c0.213-0.52,0.413-1.267,0.587-2h-1.027
				v5.122c0,0.6-0.094,0.933-0.493,1.147c-0.387,0.174-0.934,0.2-1.761,0.2c-0.04-0.333-0.2-0.84-0.36-1.174
				c0.533,0.027,1.067,0.027,1.227,0.013c0.16-0.013,0.213-0.04,0.213-0.2v-3.614c-0.494,1.147-1.121,2.227-1.801,2.894
				c-0.12-0.36-0.413-0.867-0.627-1.187c0.8-0.707,1.56-1.974,2.04-3.201h-1.854v-1.081h3.402c-0.734-0.533-1.895-1.16-2.855-1.574
				l0.774-0.8c0.374,0.146,0.8,0.333,1.2,0.533c0.413-0.32,0.814-0.72,1.147-1.121h-3.508V6.436h4.388l0.2-0.041l0.801,0.494
				c-0.494,0.787-1.294,1.614-2.081,2.227c0.426,0.24,0.787,0.494,1.067,0.707l-0.574,0.627h0.827l0.187-0.067l0.747,0.267
				c-0.04,0.173-0.081,0.347-0.12,0.534c0.76-0.214,1.44-0.494,2.041-0.841c-0.453-0.426-0.854-0.894-1.187-1.401
				c-0.267,0.294-0.533,0.547-0.8,0.774c-0.24-0.2-0.72-0.547-1.027-0.707c1.054-0.76,2-1.96,2.534-3.215l1.16,0.32
				c-0.16,0.361-0.347,0.707-0.547,1.054h4.202V8.21H28.935z M29.615,13.212c0,0-0.014,0.32-0.04,0.494
				c-0.227,2.387-0.467,3.415-0.841,3.814c-0.267,0.267-0.534,0.347-0.894,0.4c-0.334,0.027-0.881,0.027-1.48,0
				c-0.027-0.347-0.16-0.827-0.334-1.147c0.52,0.054,1.014,0.067,1.24,0.067c0.2,0,0.307-0.026,0.427-0.146
				c0.226-0.2,0.413-0.881,0.587-2.441h-1.934c-0.453,1.641-1.387,2.974-3.494,3.801c-0.146-0.294-0.48-0.747-0.734-0.96
				c1.734-0.627,2.548-1.628,2.961-2.841h-1.868v-1.041h2.135c0.067-0.413,0.12-0.827,0.16-1.267h1.227
				c-0.041,0.44-0.094,0.854-0.16,1.267H29.615z M25.107,8.21c0.347,0.547,0.8,1.027,1.347,1.467
				c0.467-0.414,0.841-0.907,1.121-1.467H25.107z"/>
		</g>
	</g>
</g>
<path pointer-events="none" fill="#FFFFFF" stroke="#666666" stroke-width="1.2" d="M936.099,295.4h127.8
	c4.474,0,8.101,3.626,8.101,8.1v37.8c0,4.474-3.627,8.101-8.101,8.101h-127.8c-4.474,0-8.1-3.627-8.1-8.101v-37.8
	C928,299.026,931.626,295.4,936.099,295.4z"/>
<g transform="translate(1005.5,307.5)scale(1.2)">
	<g>
		<g enable-background="new    ">
			<path fill="#666666" d="M-24.603,12.572c0.239,0.467,0.519,1.094,0.653,1.44l-0.519,0.2h0.173v1.227
				c0,1.014-0.239,1.961-1.908,2.548c-0.106-0.213-0.386-0.561-0.56-0.707c0.788-0.24,1.188-0.574,1.388-0.933h-1.655v-1.921h0.801
				v1.187h1.053c0-0.067,0-0.133,0-0.199v-1.201h0.547c-0.039-0.12-0.093-0.24-0.132-0.374c-1.961,0.2-2.295,0.267-2.482,0.347
				c-0.039-0.16-0.146-0.547-0.239-0.761c0.2-0.013,0.439-0.146,0.706-0.347c0.133-0.094,0.387-0.307,0.706-0.614
				c-0.773,0.067-0.986,0.107-1.12,0.16c-0.041-0.173-0.146-0.574-0.254-0.774c0.133-0.027,0.28-0.107,0.428-0.24
				c0.132-0.12,0.586-0.6,0.894-1.107h-2.069v7.563h-1.174V6.343h4.95v4.162h-1.388l0.495,0.253c-0.308,0.4-0.641,0.801-0.988,1.121
				l0.868-0.04c0.186-0.213,0.373-0.427,0.547-0.653l0.653,0.453c-0.586,0.627-1.227,1.214-1.88,1.707l1.107-0.094
				c-0.08-0.173-0.16-0.347-0.226-0.493L-24.603,12.572z M-28.192,7.223V8.05h2.616V7.223H-28.192z M-28.192,9.637h2.616V8.85
				h-2.616V9.637z M-18.32,16.574c0,0.64-0.107,1-0.493,1.2c-0.4,0.213-0.975,0.24-1.828,0.24c-0.041-0.334-0.2-0.894-0.36-1.214
				c0.532,0.014,1.094,0.014,1.253,0.014c0.187-0.014,0.239-0.067,0.239-0.254v-6.056h-2.747l0.508,0.267
				c-0.295,0.4-0.641,0.787-0.96,1.107l0.84-0.04c0.2-0.213,0.4-0.427,0.573-0.667l0.654,0.454c-0.588,0.627-1.24,1.24-1.882,1.733
				l1.094-0.093c-0.08-0.173-0.16-0.347-0.239-0.48l0.614-0.214c0.267,0.454,0.56,1.081,0.693,1.454l-0.64,0.253
				c-0.041-0.12-0.107-0.267-0.174-0.44c-1.961,0.214-2.295,0.281-2.493,0.374c-0.028-0.16-0.133-0.56-0.228-0.747
				c0.2-0.04,0.426-0.16,0.708-0.387c0.119-0.094,0.386-0.307,0.693-0.614c-0.788,0.067-1.001,0.107-1.121,0.173
				c-0.052-0.173-0.16-0.56-0.252-0.773c0.146-0.027,0.28-0.107,0.426-0.24c0.133-0.107,0.601-0.601,0.894-1.121h-0.827V6.343h5.055
				V16.574z M-21.589,16.733v-0.387h-1.068v1.52h-0.894v-3.655h0.894v1.401h1.068v-1.187h0.84v2.307H-21.589z M-22.202,7.223V8.05
				h2.694V7.223H-22.202z M-19.509,9.637V8.85h-2.694v0.787H-19.509z"/>
			<path fill="#666666" d="M-11.47,10.758c0,0,0,0.361-0.013,0.507c-0.12,4.108-0.254,5.562-0.601,6.029
				c-0.241,0.32-0.467,0.426-0.814,0.48c-0.293,0.053-0.773,0.053-1.268,0.04c-0.013-0.334-0.146-0.814-0.306-1.121
				c0.426,0.027,0.773,0.04,0.973,0.04c0.174,0,0.28-0.04,0.387-0.186c0.213-0.294,0.321-1.467,0.439-4.669h-1.494
				c-0.16,2.574-0.56,4.696-1.72,6.136c-0.2-0.294-0.601-0.72-0.907-0.92c1.361-1.681,1.466-4.522,1.507-8.017h-1.201V7.93h2.521
				c-0.186-0.493-0.586-1.213-0.986-1.747l1.107-0.44c0.426,0.561,0.894,1.321,1.081,1.828l-0.907,0.36h2.614v1.147h-3.014
				c-0.013,0.574-0.028,1.147-0.041,1.681H-11.47z M-7.121,6.076C-7.202,6.343-7.282,6.623-7.388,6.89
				c0.68,1.347,1.921,2.774,3.135,3.455c-0.308,0.24-0.695,0.693-0.908,1c-1.027-0.706-2.041-1.921-2.76-3.241
				c-0.693,1.375-1.641,2.508-2.801,3.349c-0.187-0.334-0.547-0.734-0.868-1.001c1.548-0.96,2.734-2.668,3.322-4.709L-7.121,6.076z
				 M-9.456,14.493c1.214,0.614,2.882,1.587,3.696,2.28l-0.828,1.068c-0.773-0.72-2.414-1.748-3.667-2.415L-9.456,14.493z
				 M-7.136,13.599c-0.48-0.533-1.479-1.334-2.28-1.894l0.814-0.787c0.773,0.507,1.813,1.254,2.321,1.76L-7.136,13.599z"/>
			<path fill="#666666" d="M8.159,11.825c-0.601,1.108-1.361,2.122-2.254,3.028c0.441,1.24,0.96,1.987,1.507,1.987
				c0.321,0,0.48-0.653,0.547-2.307c0.28,0.293,0.708,0.587,1.04,0.693c-0.213,2.267-0.627,2.881-1.707,2.881
				c-1.012,0-1.8-0.88-2.388-2.307c-0.827,0.707-1.707,1.307-2.64,1.801c-0.2-0.307-0.534-0.721-0.854-1.001
				c1.094-0.507,2.135-1.213,3.081-2.04c-0.319-1.081-0.547-2.362-0.706-3.735H0.837v1.868l2.228-0.44l0.093,1.107
				c-0.76,0.173-1.548,0.361-2.321,0.521v2.654c0,0.734-0.174,1.094-0.64,1.294c-0.467,0.2-1.214,0.24-2.282,0.24
				c-0.067-0.347-0.28-0.92-0.467-1.253c0.814,0.026,1.589,0.026,1.815,0.013c0.239-0.013,0.321-0.08,0.321-0.294v-2.374
				c-0.947,0.2-1.815,0.387-2.575,0.547l-0.347-1.241c0.786-0.133,1.813-0.32,2.922-0.533v-2.108h-2.695V9.651h2.695V7.81
				c-0.788,0.133-1.576,0.24-2.295,0.334c-0.067-0.281-0.226-0.761-0.387-1.027c1.854-0.281,3.975-0.707,5.269-1.16l0.868,1.04
				c-0.653,0.213-1.414,0.4-2.201,0.56v2.095h2.827c-0.106-1.2-0.16-2.454-0.173-3.722h1.281c-0.015,1.28,0.039,2.547,0.146,3.722
				h3.787v1.174H5.052c0.133,1,0.28,1.895,0.48,2.708c0.599-0.68,1.12-1.414,1.52-2.174L8.159,11.825z M7.466,9.064
				C7.091,8.437,6.226,7.476,5.478,6.81l0.934-0.64c0.745,0.64,1.641,1.547,2.054,2.174L7.466,9.064z"/>
			<path fill="#666666" d="M13.623,6.182c-0.293,0.881-0.64,1.774-1.04,2.628v9.23h-1.175v-7.069
				c-0.347,0.547-0.693,1.041-1.066,1.467c-0.107-0.307-0.426-1-0.614-1.307c1.107-1.294,2.134-3.268,2.747-5.269L13.623,6.182z
				 M17.331,11.452h-2.493v6.563H13.69V6.543h3.641V11.452z M14.837,7.503v1.014h1.533V7.503H14.837z M16.37,10.505V9.424h-1.533
				v1.081H16.37z M21.826,16.533c0,0.72-0.16,1.081-0.64,1.281c-0.495,0.186-1.294,0.213-2.534,0.213
				c-0.054-0.334-0.254-0.867-0.415-1.2c0.895,0.04,1.815,0.04,2.082,0.027c0.239-0.014,0.334-0.094,0.334-0.334v-5.068h-2.629
				V6.543h3.802V16.533z M19.038,7.503v1.014h1.615V7.503H19.038z M20.653,10.505V9.424h-1.615v1.081H20.653z"/>
		</g>
	</g>
</g>
<g>
	<path pointer-events="none" fill="#FFFFFF" stroke="#666666" stroke-width="1.2" d="M572.099,371.5h127.8
		c4.474,0,8.101,3.626,8.101,8.1v37.8c0,4.474-3.627,8.101-8.101,8.101h-127.8c-4.474,0-8.1-3.627-8.1-8.101v-37.8
		C564,375.126,567.626,371.5,572.099,371.5z"/>
	<g transform="translate(635.5,388.5)scale(1.2)">
		<g>
			<g enable-background="new    ">
				<path fill="#666666" d="M-9.191,4.914h-4.603V3.927h4.603V4.914z M-9.566,6.621h-3.908v-0.96h3.908V6.621z M-13.46,7.461h3.91
					v0.96h-3.91V7.461z M-9.579,13.223h-2.801v0.56h-1.053V9.302h3.854V13.223z M-12.38,10.289v1.934h1.735v-1.934H-12.38z
					 M-11.659,3.887c-0.107-0.481-0.4-1.241-0.641-1.815l1.042-0.307c0.265,0.547,0.573,1.281,0.706,1.748L-11.659,3.887z
					 M-2.336,12.77c0,0.547-0.12,0.84-0.506,1c-0.374,0.173-0.973,0.186-1.802,0.173c-0.052-0.294-0.2-0.72-0.347-1
					c0.562,0.027,1.108,0.027,1.268,0.013c0.173,0,0.226-0.053,0.226-0.2v-0.88h-3.908c-0.133,0.813-0.426,1.614-0.96,2.227
					c-0.174-0.227-0.627-0.667-0.868-0.801c0.788-0.96,0.868-2.267,0.868-3.308V7.594h6.029V12.77z M-1.628,5.981v0.933h-7.443
					V5.981h3.04V5.234h-2.547V4.353h2.547v-0.68h-2.868V2.766h2.868V1.739h1.201v1.027h3.053v0.907h-3.053v0.68h2.801v0.881h-2.801
					v0.747H-1.628z M-3.496,11.036v-0.827h-3.748c0,0.253-0.013,0.547-0.039,0.827H-3.496z M-7.245,8.542v0.814h3.748V8.542H-7.245z
					"/>
				<path fill="#666666" d="M2.781,2.059C2.555,2.966,2.274,3.86,1.942,4.727v9.23H0.753V7.235C0.514,7.648,0.26,8.008-0.007,8.341
					C-0.112,8.048-0.42,7.368-0.633,7.048c1.014-1.28,1.787-3.268,2.254-5.256L2.781,2.059z M4.248,11.33v2.601H3.102V2.286h3.695
					v4.308H4.248v1.24H6.53v1.027H4.248v1.427h2.441v1.041H4.248z M4.248,3.313v2.254h1.468V3.313H4.248z M11.252,7.621
					c-0.308,1.614-0.84,2.895-1.574,3.895c0.586,0.653,1.294,1.187,2.134,1.507c-0.254,0.227-0.573,0.653-0.747,0.947
					c-0.827-0.387-1.507-0.933-2.108-1.614c-0.719,0.72-1.574,1.253-2.56,1.654c-0.133-0.28-0.413-0.693-0.641-0.92
					c0.975-0.347,1.855-0.881,2.549-1.641c-0.508-0.814-0.908-1.787-1.201-2.828l0.654-0.16H6.93V7.448h3.415l0.2-0.04L11.252,7.621
					z M11.051,6.567H7.277V5.513h2.627V3.34H7.277V2.286h3.774V6.567z M8.05,8.462c0.226,0.76,0.547,1.493,0.934,2.134
					c0.413-0.614,0.732-1.321,0.96-2.134H8.05z"/>
			</g>
		</g>
	</g>
</g>
<g>
	<path pointer-events="none" fill="#FFFFFF" stroke="#666666" stroke-width="1.2" d="M572.099,439.899h127.8
		c4.474,0,8.101,3.627,8.101,8.101v37.8c0,4.474-3.627,8.1-8.101,8.1h-127.8c-4.474,0-8.1-3.626-8.1-8.1V448
		C564,443.526,567.626,439.899,572.099,439.899z"/>
	<g transform="translate(635.5,459.5)scale(1.2)">
		<g>
			<g enable-background="new    ">
				<path fill="#666666" d="M-7.764,1.613c0,0-0.013,0.44-0.013,0.614c-0.241,5.696-0.441,7.697-0.921,8.324
					c-0.28,0.387-0.547,0.52-0.947,0.587c-0.36,0.054-0.907,0.054-1.481,0.027c-0.013-0.361-0.16-0.907-0.36-1.267
					c0.521,0.04,0.988,0.053,1.227,0.053c0.2,0,0.321-0.053,0.467-0.24c0.334-0.4,0.56-2.161,0.747-6.882h-1.628
					c-0.16,3.334-0.64,6.549-2.267,8.617c-0.226-0.307-0.654-0.68-0.988-0.881c1.494-1.814,1.908-4.722,2.028-7.736h-1.707V1.613
					h1.748c0.013-0.787,0.013-1.587,0.013-2.348h1.253c0,0.761-0.013,1.561-0.026,2.348H-7.764z M-2.202,0.813v10.324h-1.281v-0.854
					H-5.71v0.96h-1.227V0.813H-2.202z M-3.483,9.096V2.013H-5.71v7.083H-3.483z"/>
				<path fill="#666666" d="M3.582,9.416C2.194,9.763,0.727,10.123-0.42,10.39l-0.226-1.16c0.467-0.094,1.014-0.213,1.613-0.334
					V5.508H-0.3V4.401h1.266V1.253h-1.427V0.119h4.095v1.134H2.101v3.148h1.214v1.107H2.101V8.63l1.348-0.321L3.582,9.416z
					 M6.45,4.921c0,2.681-0.321,5.002-2.855,6.549c-0.161-0.254-0.521-0.693-0.775-0.868c2.135-1.307,2.508-3.175,2.536-5.375
					L4.782,5.495C4.515,4.721,3.901,3.507,3.367,2.6l0.921-0.347c0.373,0.587,0.76,1.294,1.068,1.921v-4.949H6.45V4.921z
					 M11.665,9.87v1.147H6.129V9.87h2.414V5.988H6.997v-1.12h1.546V1.226H6.797V0.093h4.614v1.134H9.717v3.642h1.509v1.12H9.717
					V9.87H11.665z"/>
			</g>
		</g>
	</g>
</g>
<g>
	<path pointer-events="none" fill="#FFFFFF" stroke="#666666" stroke-width="1.2" d="M572.099,508.3h127.8
		c4.474,0,8.101,3.626,8.101,8.1v37.8c0,4.474-3.627,8.101-8.101,8.101h-127.8c-4.474,0-8.1-3.627-8.1-8.101v-37.8
		C564,511.926,567.626,508.3,572.099,508.3z"/>
	<g transform="translate(635.5,531.5)scale(1.2)">
		<g>
			<g enable-background="new    ">
				<path fill="#666666" d="M-9.751,6.916c-1.388,0.347-2.855,0.706-4.002,0.973l-0.226-1.16c0.467-0.094,1.014-0.213,1.613-0.334
					V3.008h-1.266V1.901h1.266v-3.148h-1.427v-1.134h4.095v1.134h-1.533v3.148h1.214v1.107h-1.214V6.13l1.348-0.321L-9.751,6.916z
					 M-6.883,2.421c0,2.681-0.321,5.002-2.855,6.549c-0.161-0.254-0.521-0.693-0.775-0.868c2.135-1.307,2.508-3.175,2.536-5.375
					l-0.575,0.267C-8.818,2.221-9.432,1.007-9.966,0.1l0.921-0.347c0.373,0.587,0.76,1.294,1.068,1.921v-4.949h1.094V2.421z
					 M-1.668,7.37v1.147h-5.535V7.37h2.414V3.488h-1.546v-1.12h1.546v-3.642h-1.746v-1.134h4.614v1.134h-1.694v3.642h1.509v1.12
					h-1.509V7.37H-1.668z"/>
				<path fill="#666666" d="M11.077,4.022c-0.76,0.601-1.68,1.227-2.48,1.72c0.868,0.787,1.921,1.401,3.188,1.761
					c-0.267,0.267-0.627,0.747-0.801,1.081C8.25,7.664,6.489,5.702,5.462,2.941c-0.534,0.574-1.2,1.121-1.908,1.615v2.641
					L6.61,6.316C6.636,6.65,6.743,7.143,6.823,7.41C3.102,8.557,2.568,8.73,2.222,8.971C2.127,8.65,1.888,8.103,1.688,7.85
					c0.239-0.12,0.573-0.4,0.573-0.947V5.369C1.567,5.756,0.874,6.076,0.194,6.33C0.006,6.036-0.353,5.583-0.633,5.329
					c1.587-0.493,3.322-1.427,4.535-2.454h-4.108V1.807h5.135v-1H1.007v-1.001h3.921v-0.933H0.34v-1.067h4.588v-1.067h1.24v1.067
					h4.749v1.067H6.169v0.933h4.202v1.001H6.169v1h5.176v1.067H6.663c0.319,0.774,0.719,1.481,1.227,2.108
					c0.76-0.507,1.628-1.174,2.16-1.72L11.077,4.022z"/>
			</g>
		</g>
	</g>
</g>
<g>
	<path pointer-events="none" fill="#FFFFFF" stroke="#666666" stroke-width="1.2" d="M754.099,371.5h127.8
		c4.474,0,8.101,3.626,8.101,8.1v37.8c0,4.474-3.627,8.101-8.101,8.101h-127.8c-4.474,0-8.1-3.627-8.1-8.101v-37.8
		C746,375.126,749.626,371.5,754.099,371.5z"/>
	<g transform="translate(820.5,388.5)scale(1.2)">
		<g>
			<g enable-background="new    ">
				<path fill="#666666" d="M-20.596,10.476c-0.133,1.16-0.361,2.387-0.614,3.215c-0.213-0.12-0.667-0.281-0.907-0.347
					c0.294-0.787,0.481-1.96,0.574-3.041L-20.596,10.476z M-17.995,6.847c0.347,0.814,0.734,1.881,0.894,2.508l-0.894,0.36
					c-0.027-0.173-0.08-0.374-0.146-0.6c-2.815,0.44-3.215,0.547-3.494,0.693c-0.041-0.227-0.214-0.76-0.334-1.04
					c0.28-0.081,0.574-0.4,0.96-0.907c0.186-0.213,0.56-0.72,0.987-1.374c-1.241,0.146-1.507,0.213-1.694,0.293
					c-0.067-0.213-0.213-0.733-0.347-1.013c0.227-0.067,0.453-0.334,0.707-0.72c0.267-0.4,1.121-1.882,1.627-3.308l1.014,0.426
					c-0.534,1.187-1.213,2.441-1.894,3.429l1.2-0.094c0.334-0.601,0.68-1.241,0.96-1.854l0.933,0.587
					c-0.8,1.507-1.801,3.041-2.814,4.268l1.908-0.267c-0.12-0.361-0.254-0.747-0.387-1.081L-17.995,6.847z M-19.289,10.235
					c0.173,0.894,0.321,2.028,0.361,2.788l-0.894,0.227c-0.027-0.76-0.16-1.921-0.307-2.815L-19.289,10.235z M-17.914,9.888
					c0.306,0.814,0.627,1.841,0.773,2.521l-0.84,0.307c-0.12-0.693-0.44-1.747-0.721-2.561L-17.914,9.888z M-10.125,12.664
					c0,0.6-0.12,0.907-0.467,1.094c-0.361,0.186-0.933,0.213-1.747,0.199c-0.04-0.28-0.187-0.773-0.334-1.067
					c0.52,0.027,1.054,0.027,1.214,0.027c0.173-0.013,0.226-0.067,0.226-0.253V3.42h-4.682v10.564h-1.094V2.339h6.883V12.664z
					 M-12.433,10.583c0.213,0,0.587-0.014,0.774-0.067c0.013,0.267,0.04,0.627,0.08,0.88c-0.186,0.054-0.52,0.067-0.841,0.067h-1.44
					c-0.973,0-1.2-0.374-1.2-1.32V9.062h-0.44V8.088h1.601c-0.107-0.307-0.28-0.707-0.44-1.027l0.693-0.227h-1.96v-0.96h2.348
					c0.186-0.601,0.426-1.494,0.533-2.108l0.881,0.24c-0.186,0.614-0.413,1.321-0.6,1.868h0.92v0.96h-1.934
					c0.2,0.347,0.4,0.787,0.507,1.054l-0.494,0.2h1.801v0.973h-2.415v1.094c0,0.307,0.054,0.427,0.294,0.427H-12.433z
					 M-14.513,3.739c0.294,0.574,0.561,1.334,0.64,1.828l-0.774,0.267c-0.067-0.494-0.32-1.281-0.6-1.855L-14.513,3.739z"/>
				<path fill="#666666" d="M-3.421,12.183c-1.16,0.68-2.948,1.387-4.361,1.773c-0.2-0.266-0.574-0.693-0.854-0.946
					c1.401-0.374,3.201-1.081,4.121-1.654L-3.421,12.183z M-3.554,4.54c0.08-0.321,0.16-0.68,0.213-1.027h-4.815V2.379H2.888v1.134
					h-4.801C-2.021,3.873-2.14,4.22-2.247,4.54h4.162v6.79h-8.857V4.54H-3.554z M0.567,5.513h-6.216v1h6.216V5.513z M0.567,7.421
					h-6.216v1.014h6.216V7.421z M0.567,9.342h-6.216v1.027h6.216V9.342z M-0.873,11.423c1.534,0.507,3.241,1.2,4.268,1.707
					l-1.2,0.841c-0.907-0.507-2.467-1.214-3.962-1.734L-0.873,11.423z"/>
				<path fill="#666666" d="M8.152,2.099h1.121v4.682H6.538v0.347c0,0.334,0,0.667-0.014,1.014h2.681v5.815H8.085V9.249H6.484
					c-0.094,1.733-0.36,3.494-1.04,4.815c-0.2-0.24-0.601-0.588-0.868-0.747C5.338,11.61,5.43,9.115,5.43,7.127V1.806h1.108v3.881
					h1.614V2.099z M16.515,5.914c-0.321,2.121-0.947,3.841-1.828,5.216c0.627,0.76,1.388,1.374,2.281,1.787
					c-0.28,0.227-0.653,0.693-0.854,1.014c-0.84-0.44-1.547-1.054-2.161-1.788c-0.653,0.774-1.388,1.388-2.227,1.868
					c-0.173-0.32-0.507-0.787-0.774-1.014c0.854-0.426,1.628-1.08,2.281-1.908c-0.707-1.187-1.241-2.627-1.601-4.242v0.4
					c0,2.174-0.146,4.922-1.227,6.803c-0.227-0.213-0.68-0.533-0.987-0.68c0.947-1.72,1.054-4.255,1.054-6.135V2.499h5.922V3.62
					h-4.762v2.094h3.895l0.213-0.04L16.515,5.914z M12.7,6.847c0.294,1.174,0.693,2.254,1.24,3.201
					c0.534-0.933,0.947-2.001,1.214-3.201H12.7z"/>
			</g>
		</g>
	</g>
</g>
<g>
	<path pointer-events="none" fill="#FFFFFF" stroke="#666666" stroke-width="1.2" d="M754.099,440.563h127.8
		c4.474,0,8.101,3.627,8.101,8.101v37.8c0,4.474-3.627,8.1-8.101,8.1h-127.8c-4.474,0-8.1-3.626-8.1-8.1v-37.8
		C746,444.19,749.626,440.563,754.099,440.563z"/>
	<g transform="translate(813.5,459.5)scale(1.2)">
		<g>
			<g enable-background="new    ">
				<path fill="#666666" d="M-18.495,7.929c-0.026-0.2-0.067-0.427-0.12-0.68c-2.534,0.387-2.961,0.48-3.228,0.614
					c-0.067-0.24-0.253-0.827-0.387-1.147c0.294-0.08,0.601-0.387,1.014-0.88c0.173-0.2,0.547-0.68,0.96-1.294
					c-1.187,0.146-1.481,0.226-1.681,0.307c-0.067-0.24-0.24-0.801-0.374-1.094c0.24-0.054,0.453-0.334,0.72-0.72
					c0.267-0.387,1.121-1.882,1.601-3.295l1.147,0.467c-0.533,1.174-1.2,2.388-1.881,3.361l1.16-0.094
					c0.361-0.56,0.707-1.174,0.974-1.787l1.067,0.667c-0.787,1.44-1.828,2.921-2.868,4.121l1.574-0.186
					c-0.107-0.427-0.227-0.854-0.361-1.214l0.92-0.24c0.321,0.907,0.64,2.095,0.734,2.801L-18.495,7.929z M-20.709,8.529
					c-0.12,1.187-0.361,2.467-0.64,3.307c-0.213-0.12-0.68-0.266-0.934-0.333c0.307-0.828,0.494-2.028,0.601-3.149L-20.709,8.529z
					 M-19.442,8.342c0.16,0.894,0.293,2.041,0.32,2.814l-0.947,0.187c-0.013-0.774-0.133-1.947-0.267-2.841L-19.442,8.342z
					 M-18.242,7.996c0.253,0.64,0.507,1.453,0.614,2l-0.868,0.294c-0.093-0.56-0.333-1.401-0.573-2.041L-18.242,7.996z
					 M-14.374,7.115c-0.44,2.027-1.52,3.494-2.881,4.281c-0.16-0.253-0.494-0.653-0.707-0.867c0.92-0.493,1.747-1.453,2.201-2.614
					h-1.467V6.902h1.948l0.186-0.04L-14.374,7.115z M-10.185,7.021c-0.601,0.521-1.254,1.081-1.814,1.508
					c0.547,0.84,1.253,1.547,2.067,1.973c-0.267,0.214-0.627,0.667-0.814,0.974c-0.907-0.587-1.667-1.521-2.24-2.655v1.908
					c0,0.587-0.12,0.92-0.507,1.107c-0.387,0.187-0.987,0.2-1.828,0.2c-0.04-0.334-0.2-0.827-0.347-1.134
					c0.561,0.027,1.121,0.027,1.281,0.013c0.173-0.013,0.213-0.053,0.213-0.199V5.915h-2.588V1.179h1.974
					c0.173-0.453,0.334-1,0.426-1.414l1.401,0.28c-0.187,0.387-0.374,0.787-0.574,1.134h2.935v4.736h-2.388v0.467
					c0.146,0.466,0.307,0.907,0.52,1.32c0.493-0.453,1.014-1.013,1.361-1.44L-10.185,7.021z M-15.601,3.087h3.788V2.139h-3.788
					V3.087z M-15.601,4.941h3.788V3.98h-3.788V4.941z"/>
				<path fill="#666666" d="M3.201,10.129v1.254H-8.736v-1.254h4.868V-0.034h1.334v3.962h4.815v1.24h-4.815v4.962H3.201z"/>
				<path fill="#666666" d="M14.32,3.581c-0.627,0.973-1.507,1.814-2.534,2.52c1.454,0.601,3.148,1.001,4.963,1.214
					c-0.267,0.294-0.627,0.841-0.801,1.187c-0.56-0.081-1.107-0.187-1.641-0.321v3.802h-1.28v-0.4H8.131v0.426H6.918V8.263
					c-0.64,0.186-1.294,0.333-1.934,0.453C4.877,8.396,4.61,7.902,4.397,7.622c1.707-0.28,3.481-0.774,5.002-1.494
					c-0.547-0.387-1.054-0.814-1.507-1.28c-0.547,0.4-1.174,0.773-1.881,1.107c-0.16-0.28-0.547-0.72-0.814-0.92
					C7.025,4.287,8.292,3.18,8.958,2.18l1.321,0.253c-0.16,0.24-0.347,0.453-0.534,0.68h3.522l0.199-0.054L14.32,3.581z
					 M6.157,3.594H4.944V0.939h5.122c-0.173-0.334-0.361-0.68-0.52-0.987l1.227-0.293c0.226,0.374,0.52,0.867,0.72,1.28h4.682v2.655
					h-1.254V2.06H6.157V3.594z M13.32,7.929c-1-0.294-1.908-0.653-2.761-1.094c-0.8,0.426-1.654,0.787-2.561,1.094H13.32z
					 M13.027,10.557V8.956H8.131v1.601H13.027z M8.772,4.141c0.48,0.507,1.094,0.96,1.814,1.374c0.72-0.44,1.348-0.907,1.841-1.44
					H8.852L8.772,4.141z"/>
				<path fill="#666666" d="M22.598,10.623c0,0.6-0.107,0.973-0.48,1.174c-0.374,0.213-0.92,0.24-1.814,0.227
					c-0.027-0.307-0.173-0.881-0.334-1.187c0.547,0.027,1.081,0.013,1.254,0.013c0.16-0.013,0.227-0.066,0.227-0.253V7.595h-1.801
					c-0.12,1.574-0.374,3.228-0.96,4.456c-0.213-0.187-0.72-0.467-1.014-0.574c0.881-1.841,0.947-4.508,0.947-6.456V0.259h3.975
					V10.623z M21.452,6.422V4.46h-1.707v0.561c0,0.426,0,0.907-0.027,1.401H21.452z M19.744,1.406V3.3h1.707V1.406H19.744z
					 M29.775,5.034c-0.321,1.788-0.92,3.254-1.721,4.442c0.614,0.667,1.321,1.227,2.121,1.601c-0.28,0.227-0.614,0.653-0.8,0.96
					c-0.76-0.413-1.44-0.973-2.028-1.641c-0.56,0.64-1.174,1.16-1.867,1.574c-0.16-0.28-0.467-0.68-0.72-0.894v0.947h-1.174V0.286
					h5.802v2.561c0,0.574-0.12,0.894-0.587,1.054c-0.467,0.173-1.174,0.173-2.161,0.173c-0.054-0.32-0.24-0.76-0.387-1.054
					c0.734,0.027,1.481,0.027,1.667,0.014c0.214,0,0.28-0.041,0.28-0.2V1.446H24.76v3.375h4.095l0.199-0.04L29.775,5.034z
					 M24.76,11.05c0.693-0.36,1.334-0.907,1.894-1.574C25.946,8.463,25.399,7.262,25,5.955h-0.24V11.05z M26.054,5.955
					c0.307,0.933,0.733,1.801,1.267,2.575c0.466-0.761,0.854-1.615,1.121-2.575H26.054z"/>
			</g>
		</g>
	</g>
</g>
<g>
	<path pointer-events="none" fill="#FFFFFF" stroke="#666666" stroke-width="1.2" d="M754.099,508.3h127.8
		c4.474,0,8.101,3.626,8.101,8.1v37.8c0,4.474-3.627,8.101-8.101,8.101h-127.8c-4.474,0-8.1-3.627-8.1-8.101v-37.8
		C746,511.926,749.626,508.3,754.099,508.3z"/>
	<g transform="translate(790.5,522.5)scale(1.2)">
		<g>
			<g enable-background="new    ">
				<path fill="#666666" d="M5.027-1.081C4.762,0.48,4.149,1.707,2.508,2.441c-0.12-0.227-0.361-0.56-0.588-0.774v6.523
					c0,0.534-0.107,0.881-0.467,1.068C1.081,9.43,0.547,9.443-0.321,9.443c-0.054-0.28-0.226-0.774-0.387-1.04
					c0.641,0.013,1.201,0.013,1.361,0.013c0.174-0.013,0.241-0.067,0.241-0.24V6.002h-2.961c-0.12,1.241-0.4,2.521-1.029,3.481
					c-0.186-0.16-0.64-0.44-0.879-0.547c0.894-1.401,0.986-3.361,0.986-4.855V1.96l-0.12,0.146c-0.2-0.186-0.653-0.574-0.907-0.733
					c0.92-1.001,1.628-2.548,2.013-4.162l1.134,0.253c-0.093,0.321-0.187,0.64-0.293,0.96h1.4l0.174-0.053l0.719,0.453
					c-0.213,0.561-0.506,1.2-0.799,1.761H1.92v0.96c1.266-0.561,1.748-1.494,1.961-2.628H2.226v-1.027h5.802
					c0,0,0,0.293-0.013,0.426C7.923,0.48,7.803,1.374,7.523,1.694c-0.187,0.24-0.413,0.334-0.76,0.374
					c-0.28,0.04-0.814,0.04-1.348,0.013c-0.026-0.32-0.133-0.746-0.28-1.027c0.467,0.054,0.894,0.054,1.081,0.054
					c0.173,0.013,0.28-0.013,0.36-0.12c0.146-0.16,0.241-0.706,0.308-2.067H5.027z M-1.535-0.614c-0.173,0.413-0.36,0.827-0.56,1.2
					h1.361C-0.56,0.24-0.388-0.2-0.241-0.614H-1.535z M-1.987,4.094c0,0.307,0,0.627-0.015,0.961h1.029V3.708h-1.014V4.094z
					 M-1.987,2.787h1.014V1.52h-1.014V2.787z M-0.108,2.787h1.001V1.52h-1.001V2.787z M0.893,5.055V3.708h-1.001v1.348H0.893z
					 M8.39,7.056H5.962v2.348H4.788V7.056H2.147v-1.08h2.642V4.534H3.481c-0.187,0.454-0.4,0.854-0.627,1.187
					C2.64,5.562,2.174,5.335,1.92,5.229c0.547-0.747,0.934-1.828,1.147-2.935l1.027,0.213c-0.067,0.32-0.146,0.64-0.241,0.96h0.934
					v-1.28h1.174v1.28h2.174v1.067H5.962v1.441H8.39V7.056z"/>
				<path fill="#666666" d="M13.839-1.828c-0.386,1.107-0.853,2.428-1.281,3.455c0.908,1.067,1.121,2.028,1.121,2.828
					c0,0.774-0.174,1.334-0.547,1.628c-0.2,0.133-0.441,0.213-0.734,0.266c-0.239,0.027-0.586,0.027-0.907,0.014
					c-0.013-0.294-0.094-0.774-0.267-1.081c0.267,0.04,0.506,0.04,0.706,0.027c0.161-0.013,0.295-0.04,0.387-0.133
					c0.2-0.12,0.267-0.453,0.267-0.854c0-0.68-0.2-1.574-1.094-2.574c0.334-0.854,0.68-1.988,0.934-2.868h-1.414V9.443H9.931V-2.241
					h2.922l0.173-0.04L13.839-1.828z M16.201,5.762c-0.508,1.068-1.268,2.201-1.948,2.922C14.04,8.51,13.6,8.176,13.333,8.016
					c0.68-0.653,1.361-1.641,1.774-2.561L16.201,5.762z M18.428,4.868v3.254c0,0.614-0.119,0.934-0.547,1.121
					c-0.399,0.187-1.04,0.213-1.947,0.213c-0.067-0.32-0.267-0.813-0.413-1.134c0.667,0.027,1.266,0.027,1.466,0.027
					c0.187-0.013,0.254-0.067,0.254-0.24V4.868h-3.335V3.735h3.335V2.334h-2.201V1.427c-0.254,0.16-0.508,0.334-0.76,0.48
					C14.093,1.614,13.76,1.24,13.454,1c1.641-0.827,3.281-2.308,4.147-3.882l1.055,0.4c-0.094,0.173-0.2,0.347-0.308,0.52
					c1.174,1.361,2.401,2.174,3.548,2.788C21.603,1.053,21.243,1.48,21.069,1.8c-0.254-0.16-0.506-0.32-0.76-0.493v1.027h-1.882
					v1.401h3.135v1.134H18.428z M20.242,1.253c-0.827-0.587-1.641-1.32-2.521-2.348C17.015-0.214,16.188,0.6,15.28,1.253H20.242z
					 M19.962,5.348c0.706,0.814,1.481,1.934,1.854,2.668L20.83,8.59c-0.348-0.76-1.134-1.934-1.815-2.761L19.962,5.348z"/>
				<path fill="#666666" d="M24.092,5.949c-0.133,1.147-0.347,2.388-0.614,3.201c-0.173-0.107-0.586-0.24-0.801-0.307
					c0.295-0.787,0.467-1.973,0.575-3.041L24.092,5.949z M26.12,5.242c-0.028-0.186-0.067-0.4-0.12-0.64
					c-2.254,0.44-2.627,0.574-2.868,0.707c-0.054-0.227-0.213-0.76-0.334-1.04c0.254-0.067,0.521-0.4,0.868-0.894
					c0.173-0.213,0.519-0.72,0.894-1.374c-1.068,0.133-1.348,0.213-1.52,0.294c-0.054-0.227-0.213-0.761-0.334-1.041
					c0.213-0.053,0.413-0.334,0.64-0.72c0.241-0.4,0.973-1.894,1.361-3.308l1.027,0.427c-0.439,1.174-1.027,2.428-1.628,3.428
					l1.014-0.094c0.293-0.56,0.588-1.174,0.814-1.76l0.973,0.52c-0.693,1.467-1.6,2.961-2.521,4.189l1.401-0.24
					c-0.107-0.374-0.213-0.761-0.334-1.094l0.801-0.24c0.293,0.854,0.601,1.947,0.706,2.601L26.12,5.242z M25.159,5.762
					c0.16,0.894,0.319,2.041,0.36,2.788l-0.84,0.213c-0.028-0.76-0.161-1.934-0.295-2.814L25.159,5.762z M26.307,5.455
					c0.265,0.747,0.586,1.747,0.719,2.375l-0.814,0.28c-0.106-0.64-0.4-1.641-0.68-2.415L26.307,5.455z M29.801,2.934
					c0,0.614-0.015,1.214-0.067,1.801h1.427v1.094h-1.561c-0.213,1.374-0.68,2.615-1.681,3.642C27.707,9.23,27.267,8.87,27,8.71
					c0.814-0.828,1.266-1.815,1.479-2.882h-1.333V4.735h1.494c0.067-0.574,0.08-1.187,0.08-1.801h-1.268V1.881h1.268V0.306
					c-0.467,0.081-0.947,0.133-1.374,0.187c-0.041-0.267-0.174-0.68-0.295-0.96c0.534-0.08,1.121-0.173,1.668-0.307v-1.934h1.081
					v1.641c0.267-0.08,0.48-0.146,0.693-0.24l0.601,1.014c-0.374,0.146-0.827,0.28-1.294,0.387v1.788h1.094v1.053H29.801z
					 M34.87-1.588c-0.267,1.147-0.64,2.521-1.027,3.935c0.76,1.294,1.081,2.241,1.081,3.068c0,0.854-0.174,1.547-0.547,1.895
					c-0.161,0.133-0.387,0.226-0.641,0.266c-0.226,0.027-0.534,0.027-0.799,0.014c-0.015-0.294-0.107-0.76-0.282-1.067
					c0.241,0.04,0.495,0.04,0.641,0.026c0.146,0,0.267-0.04,0.36-0.107c0.174-0.16,0.241-0.6,0.241-1.067
					c0-0.76-0.308-1.574-1.042-2.881c0.308-1.227,0.547-2.402,0.747-3.429h-1.133V9.47h-1.001V-1.961h2.48l0.148-0.053L34.87-1.588z
					"/>
				<path fill="#666666" d="M42.855,7.896c0.586,0.107,1.227,0.133,1.908,0.133c0.586,0,2.814,0,3.574-0.014
					c-0.2,0.294-0.4,0.881-0.454,1.254h-3.187c-2.629,0-4.536-0.44-5.75-2.561c-0.439,1.134-1.066,2.081-1.893,2.801
					c-0.187-0.227-0.708-0.653-0.988-0.841c1.453-1.094,2.134-2.961,2.401-5.308l1.255,0.133c-0.08,0.587-0.174,1.16-0.308,1.681
					c0.48,1.254,1.227,1.96,2.161,2.375V2.467h-3.081V1.293h7.51v1.174h-3.148v1.934h3.813v1.16h-3.813V7.896z M37.879,1.733h-1.214
					v-3.054h5.029c-0.133-0.387-0.347-0.841-0.534-1.214l1.227-0.36c0.28,0.493,0.586,1.121,0.747,1.574h4.668v3.054h-1.268v-1.881
					h-8.656V1.733z"/>
				<path fill="#666666" d="M-23.075,14.6h1.587l3.255,5.762l1.027,2.081h0.067c-0.08-1.013-0.2-2.201-0.2-3.268V14.6h1.468v9.817
					h-1.589l-3.254-5.789l-1.027-2.054h-0.067c0.08,1.014,0.2,2.148,0.2,3.215v4.629h-1.468V14.6z"/>
				<path fill="#666666" d="M-13.514,21.695V17.08h1.533v4.429c0,1.267,0.361,1.76,1.227,1.76c0.68,0,1.147-0.32,1.761-1.094V17.08
					h1.535v7.336h-1.255l-0.12-1.107h-0.039c-0.667,0.773-1.387,1.28-2.401,1.28C-12.834,24.59-13.514,23.563-13.514,21.695z"/>
				<path fill="#666666" d="M-5.021,14.6h5.802v1.293h-4.255v2.734h3.602v1.308h-3.602v3.175h4.401v1.307h-5.949V14.6z"/>
				<path fill="#666666" d="M2.978,14.6h1.548v9.817H2.978V14.6z"/>
				<path fill="#666666" d="M7.099,14.6h2.974c2.188,0,3.748,0.746,3.748,2.961c0,2.148-1.561,3.135-3.695,3.135H8.646v3.722H7.099
					V14.6z M9.98,19.455c1.574,0,2.321-0.601,2.321-1.895s-0.814-1.72-2.375-1.72H8.646v3.615H9.98z"/>
				<path fill="#666666" d="M18.725,14.6h1.546v8.51h4.149v1.307h-5.695V14.6z"/>
				<path fill="#666666" d="M26.152,14.6h1.546v9.817h-1.546V14.6z"/>
				<path fill="#666666" d="M30.272,14.6h1.587l3.255,5.762l1.027,2.081h0.067c-0.081-1.013-0.2-2.201-0.2-3.268V14.6h1.466v9.817
					h-1.587l-3.255-5.789l-1.027-2.054h-0.067c0.08,1.014,0.2,2.148,0.2,3.215v4.629h-1.466V14.6z"/>
				<path fill="#666666" d="M40.058,14.6h5.802v1.293h-4.256v2.734h3.602v1.308h-3.602v3.175h4.403v1.307h-5.949V14.6z"/>
				<path fill="#666666" d="M51.058,14.6h3.04c2.015,0,3.468,0.64,3.468,2.414c0,0.934-0.521,1.828-1.4,2.121v0.067
					c1.12,0.24,1.934,1.001,1.934,2.335c0,1.947-1.587,2.881-3.761,2.881h-3.281V14.6z M53.926,18.694
					c1.494,0,2.121-0.56,2.121-1.48c0-1.027-0.693-1.414-2.082-1.414h-1.361v2.894H53.926z M54.165,23.202
					c1.535,0,2.415-0.547,2.415-1.747c0-1.107-0.854-1.587-2.415-1.587h-1.561v3.334H54.165z"/>
				<path fill="#666666" d="M59.297,20.762c0-2.454,1.641-3.868,3.455-3.868c1.813,0,3.454,1.414,3.454,3.868
					c0,2.428-1.641,3.828-3.454,3.828C60.937,24.59,59.297,23.189,59.297,20.762z M64.632,20.762c0-1.561-0.719-2.601-1.88-2.601
					c-1.147,0-1.868,1.04-1.868,2.601c0,1.547,0.721,2.574,1.868,2.574C63.913,23.336,64.632,22.309,64.632,20.762z"/>
				<path fill="#666666" d="M67.938,22.016v-3.708H66.87V17.16l1.134-0.08l0.173-2.027h1.294v2.027h1.908v1.227h-1.908v3.722
					c0,0.881,0.308,1.334,1.068,1.334c0.254,0,0.573-0.08,0.786-0.173l0.28,1.134c-0.413,0.133-0.907,0.267-1.44,0.267
					C68.511,24.59,67.938,23.563,67.938,22.016z"/>
			</g>
		</g>
	</g>
</g>
<g>
	<path pointer-events="none" fill="#FFFFFF" stroke="#666666" stroke-width="1.2" d="M936.099,371.5h127.8
		c4.474,0,8.101,3.626,8.101,8.1v37.8c0,4.474-3.627,8.101-8.101,8.101h-127.8c-4.474,0-8.1-3.627-8.1-8.101v-37.8
		C928,375.126,931.626,371.5,936.099,371.5z"/>
	<g transform="translate(996.5,388.5)scale(1.2)">
		<g>
			<g enable-background="new    ">
				<path fill="#666666" d="M-28.568,3.099h1.587l3.255,5.763l1.027,2.081h0.067c-0.081-1.014-0.2-2.201-0.2-3.268V3.099h1.466
					v9.818h-1.587l-3.255-5.789l-1.027-2.054h-0.067c0.08,1.014,0.2,2.148,0.2,3.215v4.629h-1.466V3.099z"/>
				<path fill="#666666" d="M-19.009,10.195V5.58h1.535v4.429c0,1.267,0.36,1.76,1.227,1.76c0.68,0,1.147-0.32,1.761-1.094V5.58
					h1.533v7.336h-1.253l-0.12-1.107h-0.041c-0.666,0.773-1.387,1.28-2.401,1.28C-18.329,13.09-19.009,12.063-19.009,10.195z"/>
				<path fill="#666666" d="M-10.514,3.099h5.802v1.294h-4.256v2.734h3.602v1.308h-3.602v3.175h4.403v1.307h-5.949V3.099z"/>
				<path fill="#666666" d="M-2.515,3.099h1.546v9.818h-1.546V3.099z"/>
				<path fill="#666666" d="M1.605,3.099h2.974c2.188,0,3.748,0.747,3.748,2.961c0,2.148-1.561,3.135-3.695,3.135H3.151v3.722H1.605
					V3.099z M4.486,7.955c1.574,0,2.321-0.601,2.321-1.895S5.993,4.34,4.432,4.34H3.151v3.615H4.486z"/>
				<path fill="#666666" d="M24.274,2.926v2.441h-1.307V4.086h-8.804v1.281h-1.24V2.926h5.256c-0.093-0.333-0.226-0.693-0.387-0.986
					l1.268-0.281c0.2,0.374,0.413,0.881,0.534,1.267H24.274z M15.845,9.688h7.202v4.189H21.78v-0.493h-5.936v0.56h-1.268v-8.87
					h8.005v3.535h-6.737V9.688z M15.845,6.154v1.388h5.495V6.154H15.845z M15.845,10.783v1.507h5.936v-1.507H15.845z"/>
				<path fill="#666666" d="M27.283,10.476c-0.133,1.16-0.36,2.387-0.614,3.215c-0.213-0.12-0.667-0.281-0.907-0.347
					c0.293-0.787,0.48-1.96,0.573-3.041L27.283,10.476z M29.884,6.847c0.347,0.814,0.734,1.881,0.894,2.508l-0.894,0.36
					c-0.026-0.173-0.08-0.374-0.146-0.6c-2.814,0.44-3.215,0.547-3.494,0.693c-0.041-0.227-0.213-0.76-0.334-1.04
					c0.28-0.081,0.575-0.4,0.96-0.907c0.187-0.213,0.56-0.72,0.988-1.374c-1.242,0.146-1.507,0.213-1.694,0.293
					c-0.067-0.213-0.213-0.733-0.347-1.013c0.226-0.067,0.452-0.334,0.706-0.72c0.267-0.4,1.121-1.882,1.628-3.308l1.014,0.426
					c-0.534,1.187-1.214,2.441-1.895,3.429L28.472,5.5c0.334-0.601,0.68-1.241,0.96-1.854l0.933,0.587
					c-0.799,1.507-1.8,3.041-2.814,4.268l1.908-0.267c-0.12-0.361-0.254-0.747-0.387-1.081L29.884,6.847z M28.59,10.235
					c0.174,0.894,0.321,2.028,0.361,2.788l-0.894,0.227c-0.028-0.76-0.161-1.921-0.308-2.815L28.59,10.235z M29.966,9.888
					c0.306,0.814,0.627,1.841,0.773,2.521l-0.84,0.307c-0.12-0.693-0.441-1.747-0.721-2.561L29.966,9.888z M37.755,12.664
					c0,0.6-0.12,0.907-0.467,1.094c-0.361,0.186-0.934,0.213-1.748,0.199c-0.039-0.28-0.187-0.773-0.334-1.067
					c0.521,0.027,1.055,0.027,1.214,0.027c0.174-0.013,0.226-0.067,0.226-0.253V3.42h-4.681v10.564h-1.094V2.339h6.883V12.664z
					 M35.447,10.583c0.213,0,0.586-0.014,0.773-0.067c0.013,0.267,0.041,0.627,0.08,0.88c-0.186,0.054-0.519,0.067-0.84,0.067h-1.44
					c-0.973,0-1.201-0.374-1.201-1.32V9.062h-0.439V8.088h1.6c-0.106-0.307-0.28-0.707-0.439-1.027l0.693-0.227h-1.961v-0.96h2.349
					c0.186-0.601,0.426-1.494,0.532-2.108l0.881,0.24c-0.186,0.614-0.413,1.321-0.599,1.868h0.92v0.96H34.42
					c0.2,0.347,0.4,0.787,0.506,1.054l-0.493,0.2h1.8v0.973H33.82v1.094c0,0.307,0.054,0.427,0.293,0.427H35.447z M33.366,3.739
					c0.295,0.574,0.562,1.334,0.641,1.828l-0.775,0.267c-0.067-0.494-0.319-1.281-0.599-1.855L33.366,3.739z"/>
			</g>
		</g>
	</g>
</g>
<g>
	<path pointer-events="none" fill="#FFFFFF" stroke="#666666" stroke-width="1.2" d="M936.099,439.899h127.8
		c4.474,0,8.101,3.627,8.101,8.101v37.8c0,4.474-3.627,8.1-8.101,8.1h-127.8c-4.474,0-8.1-3.626-8.1-8.1V448
		C928,443.526,931.626,439.899,936.099,439.899z"/>
	<g transform="translate(982.5,459.5)scale(1.2)">
		<g>
			<g enable-background="new    ">
				<path fill="#666666" d="M-28.902,0.599h1.587l3.255,5.763l1.027,2.081h0.067c-0.081-1.014-0.2-2.201-0.2-3.268V0.599h1.467
					v9.818h-1.588l-3.254-5.789l-1.027-2.054h-0.067c0.08,1.014,0.2,2.148,0.2,3.215v4.629h-1.467V0.599z"/>
				<path fill="#666666" d="M-19.342,7.695V3.08h1.534v4.429c0,1.267,0.361,1.76,1.227,1.76c0.68,0,1.147-0.32,1.761-1.094V3.08
					h1.534v7.336h-1.254l-0.12-1.107h-0.04c-0.667,0.773-1.387,1.28-2.401,1.28C-18.661,10.59-19.342,9.563-19.342,7.695z"/>
				<path fill="#666666" d="M-10.848,0.599h5.802v1.294h-4.255v2.734h3.602v1.308h-3.602V9.11h4.402v1.307h-5.949V0.599z"/>
				<path fill="#666666" d="M-2.848,0.599h1.547v9.818h-1.547V0.599z"/>
				<path fill="#666666" d="M1.271,0.599h2.974c2.188,0,3.748,0.747,3.748,2.961c0,2.148-1.561,3.135-3.695,3.135H2.818v3.722H1.271
					V0.599z M4.152,5.455c1.574,0,2.321-0.601,2.321-1.895S5.659,1.84,4.099,1.84H2.818v3.615H4.152z"/>
				<path fill="#666666" d="M23.782,6.228c-0.374,1.241-1.001,2.254-1.788,3.068c0.707,0.494,1.521,0.868,2.454,1.081
					c-0.267,0.226-0.574,0.693-0.747,0.987c-0.96-0.28-1.827-0.734-2.561-1.294c-0.76,0.587-1.614,1.027-2.521,1.361
					c-0.133-0.294-0.4-0.72-0.653-0.96v1h-1.16v-1.227c-1.601,0.173-3.188,0.36-4.402,0.507l-0.107-1.094
					C12.657,9.63,13.07,9.59,13.511,9.55V5.268h-1.094v-1h11.685v1h-6.136v5.162c0.828-0.24,1.628-0.64,2.321-1.16
					c-0.587-0.64-1.067-1.401-1.414-2.24l0.32-0.094h-0.773V5.962h4.402l0.199-0.041L23.782,6.228z M15.178,3.734h-1.187v-4.081
					h8.604v4.081h-1.24V0.546h-6.176V3.734z M14.617,5.268v0.747h2.188V5.268H14.617z M14.617,7.655h2.188V6.908h-2.188V7.655z
					 M14.617,9.443c0.694-0.066,1.44-0.146,2.188-0.24v-0.64h-2.188V9.443z M20.753,1.187V1.96h-5.068V1.187H20.753z M15.685,2.6
					h5.081v0.774h-5.081V2.6z M19.966,6.935c0.294,0.587,0.667,1.147,1.147,1.628c0.48-0.467,0.88-1.027,1.174-1.628H19.966z"/>
				<path fill="#666666" d="M27.684,7.735c-0.333,0.934-0.867,2.001-1.347,2.681c-0.2-0.16-0.601-0.453-0.854-0.587
					c0.493-0.627,0.947-1.534,1.227-2.388L27.684,7.735z M29.405,6.868v4.522h-1.2V6.868h-2.561V5.815h2.561V4.601h-2.642V3.56
					h1.454c-0.054-0.453-0.24-1.147-0.467-1.667l1.014-0.253c0.213,0.52,0.426,1.2,0.493,1.641L27.07,3.56h2.108
					c0.24-0.56,0.52-1.374,0.653-1.934l1.147,0.24c-0.227,0.587-0.453,1.2-0.68,1.694h1.561v1.041h-2.454v1.213h2.267v1.054H29.405z
					 M31.645,1.613h-5.868V0.586h2.441c-0.146-0.374-0.32-0.8-0.48-1.134l1.227-0.32c0.227,0.453,0.493,1.013,0.667,1.453h2.013
					V1.613z M30.699,7.336c0.44,0.627,0.894,1.467,1.107,2l-0.867,0.521c-0.213-0.561-0.667-1.427-1.067-2.068L30.699,7.336z
					 M37.715,4.801h-1.361v6.602h-1.213V4.801H33.58v0.32c0,1.921-0.173,4.588-1.361,6.283c-0.186-0.227-0.693-0.601-0.946-0.734
					c1.053-1.547,1.147-3.801,1.147-5.549V0.506c1.48-0.254,3.122-0.667,4.082-1.081l0.973,0.907
					C36.381,0.759,34.94,1.08,33.58,1.32v2.334h4.135V4.801z"/>
				<path fill="#666666" d="M41.217,5.361c-0.547-0.374-1.654-1.014-2.454-1.44l0.68-0.907c0.761,0.361,1.895,0.947,2.468,1.321
					L41.217,5.361z M42.632,7.082c-0.694,1.388-1.588,2.974-2.361,4.229l-1.068-0.827c0.72-1.014,1.748-2.708,2.521-4.229
					L42.632,7.082z M41.898,1.84c-0.533-0.413-1.614-1.081-2.388-1.547l0.72-0.881c0.761,0.426,1.855,1.054,2.415,1.44L41.898,1.84z
					 M50.328,10.043c0,0.627-0.133,0.987-0.574,1.174c-0.426,0.2-1.107,0.2-2.121,0.2c-0.053-0.32-0.226-0.84-0.387-1.16
					c0.68,0.027,1.401,0.027,1.601,0.027c0.2-0.013,0.267-0.08,0.267-0.267V7.816c-1.481,0.387-3.015,0.773-4.189,1.054
					l-0.387-1.041c1.16-0.226,2.881-0.627,4.575-1.027V4.094h-4.683v2.721c0,1.48-0.12,3.455-0.867,4.735
					c-0.2-0.213-0.707-0.574-0.973-0.707c0.64-1.147,0.693-2.747,0.693-4.041V2.974h2.921v-3.748h1.254v3.748h2.868V10.043z
					 M44.206,2.6c-0.187-0.667-0.72-1.72-1.267-2.481l1.054-0.466c0.547,0.733,1.12,1.734,1.334,2.401L44.206,2.6z M45.246,4.801
					c1.094,0.226,2.494,0.693,3.241,1.08l-0.533,0.868c-0.721-0.4-2.108-0.92-3.215-1.174L45.246,4.801z M50.795,0.026
					c-0.44,0.894-0.974,1.854-1.414,2.494l-1.08-0.427c0.44-0.68,1.013-1.734,1.307-2.521L50.795,0.026z"/>
				<path fill="#666666" d="M52.19,10.296c0.494-0.733,1-1.867,1.307-2.721l1.081,0.453c-0.32,0.867-0.774,2.041-1.254,2.814
					L52.19,10.296z M57.873,6.816h-3.722v-6.39h3.081c0.16-0.413,0.347-0.96,0.426-1.347l1.481,0.227
					c-0.187,0.4-0.413,0.787-0.587,1.12h3.801v6.39h-4.068c0.614,0.573,1.28,1.347,1.601,1.881L58.859,9.31
					c-0.293-0.588-1.027-1.467-1.694-2.081L57.873,6.816z M59.913,10.11c0.667,0,0.787-0.186,0.854-1.494
					c0.281,0.2,0.801,0.387,1.147,0.454c-0.173,1.76-0.547,2.174-1.921,2.174h-2.801c-1.681,0-2.108-0.347-2.108-1.547V7.669h1.24v2
					c0,0.374,0.147,0.44,0.96,0.44H59.913z M55.351,2.266h5.763V1.4h-5.763V2.266z M55.351,4.041h5.763V3.174h-5.763V4.041z
					 M55.351,5.841h5.763V4.961h-5.763V5.841z M62.728,7.349c0.6,0.827,1.253,1.947,1.48,2.708l-1.174,0.521
					c-0.2-0.761-0.814-1.908-1.401-2.775L62.728,7.349z"/>
			</g>
		</g>
	</g>
</g>
<g>
	<path pointer-events="none" fill="#FFFFFF" stroke="#666666" stroke-width="1.2" d="M936.099,508.3h127.8
		c4.474,0,8.101,3.626,8.101,8.1v37.8c0,4.474-3.627,8.101-8.101,8.101h-127.8c-4.474,0-8.1-3.627-8.1-8.101v-37.8
		C928,511.926,931.626,508.3,936.099,508.3z"/>
	<g transform="translate(1001.5,531.5)scale(1.2)">
		<g>
			<g enable-background="new    ">
				<path fill="#666666" d="M-29.465-1.901h5.815v1.294h-4.269v3.001h3.628v1.294h-3.628v4.229h-1.546V-1.901z"/>
				<path fill="#666666" d="M-23,5.969c0-1.574,1.335-2.388,4.39-2.721c-0.013-0.854-0.321-1.601-1.401-1.601
					c-0.773,0-1.494,0.347-2.121,0.747l-0.573-1.04c0.76-0.48,1.787-0.96,2.961-0.96c1.828,0,2.668,1.16,2.668,3.108v4.415h-1.253
					l-0.133-0.841h-0.041C-19.17,7.65-19.958,8.09-20.838,8.09C-22.105,8.09-23,7.263-23,5.969z M-18.61,6.023V4.222
					c-2.174,0.267-2.909,0.814-2.909,1.641c0,0.72,0.493,1.014,1.147,1.014C-19.732,6.877-19.211,6.57-18.61,6.023z"/>
				<path fill="#666666" d="M-15.425,4.262c0-2.454,1.693-3.868,3.628-3.868c0.933,0,1.613,0.374,2.147,0.84l-0.76,1.001
					c-0.4-0.361-0.814-0.574-1.32-0.574c-1.227,0-2.108,1.04-2.108,2.601c0,1.547,0.84,2.574,2.067,2.574
					c0.614,0,1.16-0.293,1.602-0.667l0.627,1.014c-0.667,0.6-1.535,0.907-2.375,0.907C-13.905,8.09-15.425,6.689-15.425,4.262z"/>
				<path fill="#666666" d="M-8.877,4.262c0-2.388,1.626-3.868,3.348-3.868c1.947,0,2.987,1.401,2.987,3.481
					c0,0.293-0.026,0.6-0.067,0.773H-7.37C-7.251,6.049-6.371,6.89-5.103,6.89c0.653,0,1.214-0.2,1.746-0.547l0.534,0.973
					c-0.68,0.454-1.52,0.774-2.48,0.774C-7.29,8.09-8.877,6.676-8.877,4.262z M-3.863,3.595c0-1.267-0.573-2-1.641-2
					c-0.92,0-1.733,0.707-1.882,2H-3.863z"/>
				<path fill="#666666" d="M0.563,7.157H0.522l-0.146,0.76h-1.201V-2.714h1.522V0.1L0.656,1.354c0.627-0.547,1.414-0.96,2.188-0.96
					c1.854,0,2.909,1.48,2.909,3.735c0,2.521-1.509,3.962-3.162,3.962C1.922,8.09,1.19,7.756,0.563,7.157z M4.163,4.155
					c0-1.534-0.493-2.481-1.72-2.481c-0.573,0-1.134,0.294-1.746,0.894v3.588c0.56,0.494,1.146,0.667,1.6,0.667
					C3.364,6.823,4.163,5.876,4.163,4.155z"/>
				<path fill="#666666" d="M7.042,4.262c0-2.454,1.641-3.868,3.454-3.868c1.815,0,3.455,1.414,3.455,3.868
					c0,2.428-1.641,3.828-3.455,3.828C8.683,8.09,7.042,6.689,7.042,4.262z M12.378,4.262c0-1.561-0.721-2.601-1.882-2.601
					c-1.147,0-1.867,1.04-1.867,2.601c0,1.547,0.719,2.574,1.867,2.574C11.657,6.836,12.378,5.809,12.378,4.262z"/>
				<path fill="#666666" d="M15.229,4.262c0-2.454,1.641-3.868,3.454-3.868c1.815,0,3.455,1.414,3.455,3.868
					c0,2.428-1.641,3.828-3.455,3.828C16.87,8.09,15.229,6.689,15.229,4.262z M20.565,4.262c0-1.561-0.721-2.601-1.882-2.601
					c-1.147,0-1.867,1.04-1.867,2.601c0,1.547,0.719,2.574,1.867,2.574C19.844,6.836,20.565,5.809,20.565,4.262z"/>
				<path fill="#666666" d="M23.935-2.714h1.494v6.855h0.041l2.881-3.561h1.694L27.55,3.555l2.775,4.362h-1.668L26.67,4.596
					l-1.24,1.427v1.894h-1.494V-2.714z"/>
			</g>
		</g>
	</g>
</g>
</svg>
