<?xml version="1.0" encoding="utf-8"?>
<!-- Generator: Adobe Illustrator 16.0.0, SVG Export Plug-In . SVG Version: 6.00 Build 0)  -->
<!DOCTYPE svg PUBLIC "-//W3C//DTD SVG 1.1//EN" "http://www.w3.org/Graphics/SVG/1.1/DTD/svg11.dtd">
<svg version="1.1" xmlns="http://www.w3.org/2000/svg" xmlns:xlink="http://www.w3.org/1999/xlink" x="0px" y="0px" width="800px"
	 height="300px" viewBox="0 0 800 300" enable-background="new 0 0 800 300" xml:space="preserve">
<g id="圖層_2" display="none">
	<rect display="inline" fill="#DCDDDD" width="800" height="300"/>
</g>
<g id="圖層_1">
	<g>
		<g>
			<g>
				<path fill="#333333" d="M137.747,96.578h-35.742l-8.027,22.266H82.375l32.578-85.313h9.844l32.637,85.313h-11.543
					L137.747,96.578z M105.403,87.32h29.004l-14.531-39.902L105.403,87.32z"/>
				<path fill="#333333" d="M206.36,118.844c-0.391-0.781-0.703-1.767-0.938-2.959c-0.234-1.191-0.43-2.432-0.586-3.721
					c-1.016,1.055-2.159,2.061-3.428,3.018c-1.27,0.958-2.657,1.797-4.16,2.52c-1.504,0.724-3.135,1.289-4.893,1.699
					s-3.614,0.615-5.566,0.615c-3.243,0-6.182-0.489-8.818-1.465s-4.883-2.305-6.738-3.984c-1.856-1.679-3.292-3.662-4.307-5.947
					c-1.016-2.285-1.523-4.736-1.523-7.354c0-3.398,0.664-6.396,1.992-8.994c1.328-2.598,3.232-4.775,5.713-6.533
					c2.48-1.758,5.479-3.085,8.994-3.984c3.516-0.898,7.441-1.348,11.777-1.348h10.781v-4.98c0-3.788-1.133-6.806-3.398-9.053
					c-2.266-2.246-5.606-3.369-10.02-3.369c-2.032,0-3.887,0.273-5.566,0.82c-1.68,0.548-3.116,1.28-4.307,2.197
					c-1.192,0.918-2.12,1.983-2.783,3.193c-0.665,1.211-0.996,2.481-0.996,3.809h-10.898c0-2.265,0.595-4.512,1.787-6.738
					c1.191-2.227,2.88-4.228,5.068-6.006c2.187-1.777,4.834-3.223,7.939-4.336s6.572-1.67,10.4-1.67
					c3.437,0,6.611,0.439,9.521,1.318c2.91,0.879,5.4,2.207,7.471,3.984c2.07,1.778,3.691,3.994,4.863,6.65
					c1.172,2.657,1.758,5.763,1.758,9.316v29.473c0,2.148,0.185,4.404,0.557,6.768c0.371,2.364,0.927,4.404,1.67,6.123v0.938H206.36
					z M188.372,110.582c1.953,0,3.789-0.272,5.508-0.82c1.718-0.547,3.281-1.26,4.688-2.139s2.626-1.884,3.662-3.018
					c1.035-1.133,1.846-2.305,2.432-3.516V88.082h-9.023c-6.211,0-10.997,0.967-14.355,2.9c-3.36,1.934-5.039,4.854-5.039,8.76
					c0,1.523,0.253,2.95,0.762,4.277c0.507,1.328,1.279,2.471,2.314,3.428c1.035,0.958,2.304,1.72,3.809,2.285
					C184.631,110.299,186.379,110.582,188.372,110.582z"/>
			</g>
			<g>
				<path fill="#323333" d="M88.974,182.484h-4.008v6.902h-2.262v-17.063h5.648c1.922,0,3.4,0.438,4.436,1.313
					s1.553,2.148,1.553,3.82c0,1.063-0.287,1.988-0.861,2.777s-1.373,1.379-2.396,1.77l4.008,7.242v0.141h-2.414L88.974,182.484z
					 M84.966,180.644h3.457c0.609,0,1.143-0.084,1.6-0.252s0.838-0.395,1.143-0.68s0.533-0.621,0.686-1.008s0.229-0.803,0.229-1.248
					c0-0.492-0.072-0.939-0.217-1.342s-0.369-0.748-0.674-1.037s-0.691-0.512-1.16-0.668s-1.027-0.234-1.676-0.234h-3.387V180.644z"
					/>
				<path fill="#323333" d="M96.579,182.929c0-0.922,0.135-1.775,0.404-2.561s0.652-1.467,1.148-2.045s1.1-1.031,1.811-1.359
					s1.508-0.492,2.391-0.492c0.898,0,1.705,0.164,2.42,0.492s1.322,0.781,1.822,1.359s0.883,1.26,1.148,2.045
					s0.398,1.639,0.398,2.561v0.258c0,0.922-0.133,1.775-0.398,2.561s-0.648,1.465-1.148,2.039s-1.105,1.023-1.816,1.348
					s-1.512,0.486-2.402,0.486s-1.691-0.162-2.402-0.486s-1.316-0.773-1.816-1.348s-0.885-1.254-1.154-2.039
					s-0.404-1.639-0.404-2.561V182.929z M98.759,183.187c0,0.633,0.074,1.23,0.223,1.793s0.373,1.057,0.674,1.482
					s0.676,0.764,1.125,1.014s0.975,0.375,1.576,0.375c0.594,0,1.117-0.125,1.57-0.375s0.828-0.588,1.125-1.014
					s0.521-0.92,0.674-1.482s0.229-1.16,0.229-1.793v-0.258c0-0.625-0.076-1.221-0.229-1.787s-0.379-1.063-0.68-1.488
					s-0.678-0.766-1.131-1.02s-0.98-0.381-1.582-0.381c-0.594,0-1.113,0.127-1.559,0.381s-0.818,0.594-1.119,1.02
					s-0.525,0.922-0.674,1.488s-0.223,1.162-0.223,1.787V183.187z"/>
				<path fill="#323333" d="M121.575,183.187c0,0.93-0.109,1.787-0.328,2.572s-0.539,1.465-0.961,2.039s-0.938,1.021-1.547,1.342
					s-1.305,0.48-2.086,0.48c-0.836,0-1.559-0.146-2.168-0.439s-1.125-0.713-1.547-1.26l-0.105,1.465h-1.992v-18h2.168v6.715
					c0.422-0.523,0.93-0.926,1.523-1.207s1.293-0.422,2.098-0.422c0.797,0,1.502,0.156,2.115,0.469s1.129,0.752,1.547,1.318
					s0.736,1.246,0.955,2.039s0.328,1.674,0.328,2.643V183.187z M119.407,182.941c0-0.633-0.059-1.229-0.176-1.787
					s-0.307-1.049-0.568-1.471s-0.604-0.756-1.025-1.002s-0.938-0.369-1.547-0.369c-0.398,0-0.758,0.051-1.078,0.152
					s-0.607,0.242-0.861,0.422s-0.475,0.391-0.662,0.633s-0.348,0.504-0.48,0.785v5.484c0.141,0.281,0.307,0.543,0.498,0.785
					s0.414,0.453,0.668,0.633s0.541,0.32,0.861,0.422s0.68,0.152,1.078,0.152c0.586,0,1.086-0.121,1.5-0.363s0.754-0.57,1.02-0.984
					s0.461-0.9,0.586-1.459s0.188-1.154,0.188-1.787V182.941z"/>
				<path fill="#323333" d="M123.731,182.929c0-0.922,0.135-1.775,0.404-2.561s0.652-1.467,1.148-2.045s1.1-1.031,1.811-1.359
					s1.508-0.492,2.391-0.492c0.898,0,1.705,0.164,2.42,0.492s1.322,0.781,1.822,1.359s0.883,1.26,1.148,2.045
					s0.398,1.639,0.398,2.561v0.258c0,0.922-0.133,1.775-0.398,2.561s-0.648,1.465-1.148,2.039s-1.105,1.023-1.816,1.348
					s-1.512,0.486-2.402,0.486s-1.691-0.162-2.402-0.486s-1.316-0.773-1.816-1.348s-0.885-1.254-1.154-2.039
					s-0.404-1.639-0.404-2.561V182.929z M125.911,183.187c0,0.633,0.074,1.23,0.223,1.793s0.373,1.057,0.674,1.482
					s0.676,0.764,1.125,1.014s0.975,0.375,1.576,0.375c0.594,0,1.117-0.125,1.57-0.375s0.828-0.588,1.125-1.014
					s0.521-0.92,0.674-1.482s0.229-1.16,0.229-1.793v-0.258c0-0.625-0.076-1.221-0.229-1.787s-0.379-1.063-0.68-1.488
					s-0.678-0.766-1.131-1.02s-0.98-0.381-1.582-0.381c-0.594,0-1.113,0.127-1.559,0.381s-0.818,0.594-1.119,1.02
					s-0.525,0.922-0.674,1.488s-0.223,1.162-0.223,1.787V183.187z"/>
				<path fill="#323333" d="M140.935,173.636v3.07h2.367v1.676h-2.367v7.863c0,0.328,0.039,0.592,0.117,0.791
					s0.182,0.354,0.311,0.463s0.277,0.182,0.445,0.217s0.342,0.053,0.521,0.053s0.369-0.018,0.568-0.053s0.354-0.064,0.463-0.088
					v1.758c-0.172,0.047-0.395,0.098-0.668,0.152s-0.605,0.082-0.996,0.082c-0.398,0-0.775-0.057-1.131-0.17
					s-0.666-0.303-0.932-0.568s-0.477-0.615-0.633-1.049s-0.234-0.967-0.234-1.6v-7.852h-2.309v-1.676h2.309v-3.07H140.935z"/>
				<path fill="#323333" d="M145.024,182.929c0-0.922,0.135-1.775,0.404-2.561s0.652-1.467,1.148-2.045s1.1-1.031,1.811-1.359
					s1.508-0.492,2.391-0.492c0.898,0,1.705,0.164,2.42,0.492s1.322,0.781,1.822,1.359s0.883,1.26,1.148,2.045
					s0.398,1.639,0.398,2.561v0.258c0,0.922-0.133,1.775-0.398,2.561s-0.648,1.465-1.148,2.039s-1.105,1.023-1.816,1.348
					s-1.512,0.486-2.402,0.486s-1.691-0.162-2.402-0.486s-1.316-0.773-1.816-1.348s-0.885-1.254-1.154-2.039
					s-0.404-1.639-0.404-2.561V182.929z M147.204,183.187c0,0.633,0.074,1.23,0.223,1.793s0.373,1.057,0.674,1.482
					s0.676,0.764,1.125,1.014s0.975,0.375,1.576,0.375c0.594,0,1.117-0.125,1.57-0.375s0.828-0.588,1.125-1.014
					s0.521-0.92,0.674-1.482s0.229-1.16,0.229-1.793v-0.258c0-0.625-0.076-1.221-0.229-1.787s-0.379-1.063-0.68-1.488
					s-0.678-0.766-1.131-1.02s-0.98-0.381-1.582-0.381c-0.594,0-1.113,0.127-1.559,0.381s-0.818,0.594-1.119,1.02
					s-0.525,0.922-0.674,1.488s-0.223,1.162-0.223,1.787V183.187z"/>
				<path fill="#323333" d="M171.825,182.484h-4.008v6.902h-2.262v-17.063h5.648c1.922,0,3.4,0.438,4.436,1.313
					s1.553,2.148,1.553,3.82c0,1.063-0.287,1.988-0.861,2.777s-1.373,1.379-2.396,1.77l4.008,7.242v0.141h-2.414L171.825,182.484z
					 M167.817,180.644h3.457c0.609,0,1.143-0.084,1.6-0.252s0.838-0.395,1.143-0.68s0.533-0.621,0.686-1.008
					s0.229-0.803,0.229-1.248c0-0.492-0.072-0.939-0.217-1.342s-0.369-0.748-0.674-1.037s-0.691-0.512-1.16-0.668
					s-1.027-0.234-1.676-0.234h-3.387V180.644z"/>
				<path fill="#323333" d="M185.267,189.621c-0.883,0-1.682-0.152-2.396-0.457s-1.326-0.729-1.834-1.271s-0.898-1.189-1.172-1.939
					s-0.41-1.57-0.41-2.461V183c0-1.031,0.154-1.953,0.463-2.766s0.721-1.496,1.236-2.051s1.105-0.979,1.77-1.271
					s1.355-0.439,2.074-0.439c0.906,0,1.688,0.158,2.344,0.475s1.197,0.752,1.623,1.307s0.74,1.211,0.943,1.969
					s0.305,1.582,0.305,2.473v0.973h-8.59c0.016,0.586,0.111,1.133,0.287,1.641s0.426,0.949,0.75,1.324s0.715,0.672,1.172,0.891
					s0.975,0.328,1.553,0.328c0.766,0,1.414-0.156,1.945-0.469s0.996-0.727,1.395-1.242l1.324,1.031
					c-0.203,0.313-0.449,0.615-0.738,0.908s-0.627,0.555-1.014,0.785s-0.83,0.414-1.33,0.551S185.899,189.621,185.267,189.621z
					 M184.997,178.253c-0.438,0-0.84,0.08-1.207,0.24s-0.695,0.393-0.984,0.697s-0.529,0.684-0.721,1.137s-0.322,0.973-0.393,1.559
					h6.352v-0.164c-0.023-0.422-0.092-0.84-0.205-1.254s-0.289-0.785-0.527-1.113s-0.545-0.594-0.92-0.797
					S185.552,178.253,184.997,178.253z"/>
				<path fill="#323333" d="M192.204,182.941c0-0.969,0.115-1.85,0.346-2.643s0.563-1.473,0.996-2.039s0.959-1.006,1.576-1.318
					s1.313-0.469,2.086-0.469c0.805,0,1.504,0.141,2.098,0.422s1.102,0.688,1.523,1.219l0.105-1.406h1.98v12.41
					c0,0.836-0.131,1.58-0.393,2.232s-0.631,1.203-1.107,1.652s-1.043,0.791-1.699,1.025s-1.383,0.352-2.18,0.352
					c-0.328,0-0.705-0.037-1.131-0.111s-0.855-0.195-1.289-0.363s-0.85-0.393-1.248-0.674s-0.738-0.629-1.02-1.043l1.125-1.301
					c0.266,0.328,0.539,0.602,0.82,0.82s0.564,0.395,0.85,0.527s0.574,0.229,0.867,0.287s0.584,0.088,0.873,0.088
					c0.508,0,0.969-0.072,1.383-0.217s0.768-0.361,1.061-0.65s0.518-0.643,0.674-1.061s0.234-0.904,0.234-1.459v-1.102
					c-0.422,0.484-0.924,0.855-1.506,1.113s-1.264,0.387-2.045,0.387c-0.758,0-1.443-0.16-2.057-0.48s-1.137-0.768-1.57-1.342
					s-0.768-1.254-1.002-2.039s-0.352-1.643-0.352-2.572V182.941z M194.384,183.187c0,0.633,0.064,1.229,0.193,1.787
					s0.328,1.045,0.598,1.459s0.615,0.742,1.037,0.984s0.926,0.363,1.512,0.363c0.383,0,0.729-0.047,1.037-0.141
					s0.586-0.223,0.832-0.387s0.463-0.359,0.65-0.586s0.352-0.477,0.492-0.75v-5.789c-0.141-0.258-0.305-0.498-0.492-0.721
					s-0.404-0.416-0.65-0.58s-0.521-0.291-0.826-0.381s-0.645-0.135-1.02-0.135c-0.594,0-1.102,0.123-1.523,0.369
					s-0.77,0.58-1.043,1.002s-0.475,0.912-0.604,1.471s-0.193,1.154-0.193,1.787V183.187z"/>
				<path fill="#323333" d="M214.013,188.132c-0.398,0.469-0.902,0.834-1.512,1.096s-1.344,0.393-2.203,0.393
					c-0.625,0-1.191-0.088-1.699-0.264s-0.945-0.453-1.313-0.832s-0.65-0.867-0.85-1.465s-0.299-1.318-0.299-2.162v-8.191h2.168
					v8.215c0,0.57,0.066,1.041,0.199,1.412s0.309,0.664,0.527,0.879s0.469,0.363,0.75,0.445s0.57,0.123,0.867,0.123
					c0.883,0,1.592-0.168,2.127-0.504s0.928-0.785,1.178-1.348v-9.223h2.168v12.68h-2.063L214.013,188.132z"/>
				<path fill="#323333" d="M221.771,189.386h-2.168v-18h2.168V189.386z"/>
				<path fill="#323333" d="M233.067,189.386c-0.078-0.156-0.141-0.354-0.188-0.592s-0.086-0.486-0.117-0.744
					c-0.203,0.211-0.432,0.412-0.686,0.604s-0.531,0.359-0.832,0.504s-0.627,0.258-0.979,0.34s-0.723,0.123-1.113,0.123
					c-0.648,0-1.236-0.098-1.764-0.293s-0.977-0.461-1.348-0.797s-0.658-0.732-0.861-1.189s-0.305-0.947-0.305-1.471
					c0-0.68,0.133-1.279,0.398-1.799s0.646-0.955,1.143-1.307s1.096-0.617,1.799-0.797s1.488-0.27,2.355-0.27h2.156v-0.996
					c0-0.758-0.227-1.361-0.68-1.811s-1.121-0.674-2.004-0.674c-0.406,0-0.777,0.055-1.113,0.164s-0.623,0.256-0.861,0.439
					s-0.424,0.396-0.557,0.639s-0.199,0.496-0.199,0.762h-2.18c0-0.453,0.119-0.902,0.357-1.348s0.576-0.846,1.014-1.201
					s0.967-0.645,1.588-0.867s1.314-0.334,2.08-0.334c0.688,0,1.322,0.088,1.904,0.264s1.08,0.441,1.494,0.797
					s0.738,0.799,0.973,1.33s0.352,1.152,0.352,1.863v5.895c0,0.43,0.037,0.881,0.111,1.354s0.186,0.881,0.334,1.225v0.188H233.067z
					 M229.47,187.734c0.391,0,0.758-0.055,1.102-0.164s0.656-0.252,0.938-0.428s0.525-0.377,0.732-0.604s0.369-0.461,0.486-0.703
					v-2.602h-1.805c-1.242,0-2.199,0.193-2.871,0.58s-1.008,0.971-1.008,1.752c0,0.305,0.051,0.59,0.152,0.855
					s0.256,0.494,0.463,0.686s0.461,0.344,0.762,0.457S229.071,187.734,229.47,187.734z"/>
				<path fill="#323333" d="M244.423,178.652c-0.188-0.031-0.361-0.053-0.521-0.064s-0.342-0.018-0.545-0.018
					c-0.75,0-1.361,0.164-1.834,0.492s-0.826,0.77-1.061,1.324v9h-2.168v-12.68h2.109l0.035,1.465
					c0.328-0.523,0.738-0.938,1.23-1.242s1.09-0.457,1.793-0.457c0.156,0,0.336,0.018,0.539,0.053s0.344,0.072,0.422,0.111V178.652z
					"/>
			</g>
		</g>
		<g>
			<path fill="#FFFFFF" d="M94.505,219.671h-5.484v15.211h-2.238v-15.211H81.31v-1.852h13.195V219.671z"/>
			<path fill="#FFFFFF" d="M98.865,223.738c0.453-0.555,0.996-0.988,1.629-1.301s1.34-0.469,2.121-0.469
				c0.617,0,1.176,0.084,1.676,0.252s0.926,0.438,1.277,0.809s0.623,0.848,0.814,1.43s0.287,1.287,0.287,2.115v8.309h-2.168v-8.332
				c0-0.492-0.055-0.912-0.164-1.26s-0.271-0.631-0.486-0.85s-0.48-0.379-0.797-0.48s-0.682-0.152-1.096-0.152
				c-0.703,0-1.32,0.188-1.852,0.563s-0.945,0.867-1.242,1.477v9.035h-2.168v-18h2.168V223.738z"/>
			<path fill="#FFFFFF" d="M115.177,235.117c-0.883,0-1.682-0.152-2.396-0.457s-1.326-0.729-1.834-1.271s-0.898-1.189-1.172-1.939
				s-0.41-1.57-0.41-2.461v-0.492c0-1.031,0.154-1.953,0.463-2.766s0.721-1.496,1.236-2.051s1.105-0.979,1.77-1.271
				s1.355-0.439,2.074-0.439c0.906,0,1.688,0.158,2.344,0.475s1.197,0.752,1.623,1.307s0.74,1.211,0.943,1.969
				s0.305,1.582,0.305,2.473v0.973h-8.59c0.016,0.586,0.111,1.133,0.287,1.641s0.426,0.949,0.75,1.324s0.715,0.672,1.172,0.891
				s0.975,0.328,1.553,0.328c0.766,0,1.414-0.156,1.945-0.469s0.996-0.727,1.395-1.242l1.324,1.031
				c-0.203,0.313-0.449,0.615-0.738,0.908s-0.627,0.555-1.014,0.785s-0.83,0.414-1.33,0.551S115.81,235.117,115.177,235.117z
				 M114.908,223.75c-0.438,0-0.84,0.08-1.207,0.24s-0.695,0.393-0.984,0.697s-0.529,0.684-0.721,1.137s-0.322,0.973-0.393,1.559
				h6.352v-0.164c-0.023-0.422-0.092-0.84-0.205-1.254s-0.289-0.785-0.527-1.113s-0.545-0.594-0.92-0.797
				S115.462,223.75,114.908,223.75z"/>
			<path fill="#FFFFFF" d="M128.044,228.437c0-0.969,0.113-1.85,0.34-2.643s0.557-1.473,0.99-2.039s0.963-1.006,1.588-1.318
				s1.336-0.469,2.133-0.469c0.773,0,1.453,0.129,2.039,0.387s1.09,0.633,1.512,1.125l0.094-1.277h1.992v17.555h-2.168v-6.047
				c-0.422,0.453-0.922,0.801-1.5,1.043s-1.242,0.363-1.992,0.363c-0.789,0-1.494-0.16-2.115-0.48s-1.146-0.768-1.576-1.342
				s-0.76-1.254-0.99-2.039s-0.346-1.643-0.346-2.572V228.437z M130.212,228.683c0,0.633,0.066,1.232,0.199,1.799
				s0.34,1.061,0.621,1.482s0.635,0.758,1.061,1.008s0.932,0.375,1.518,0.375c0.719,0,1.316-0.16,1.793-0.48s0.863-0.73,1.16-1.23
				v-6.211c-0.148-0.242-0.318-0.465-0.51-0.668s-0.408-0.379-0.65-0.527s-0.51-0.266-0.803-0.352s-0.615-0.129-0.967-0.129
				c-0.594,0-1.105,0.127-1.535,0.381s-0.785,0.594-1.066,1.02s-0.488,0.922-0.621,1.488s-0.199,1.166-0.199,1.799V228.683z"/>
			<path fill="#FFFFFF" d="M150.041,233.628c-0.398,0.469-0.902,0.834-1.512,1.096s-1.344,0.393-2.203,0.393
				c-0.625,0-1.191-0.088-1.699-0.264s-0.945-0.453-1.313-0.832s-0.65-0.867-0.85-1.465s-0.299-1.318-0.299-2.162v-8.191h2.168
				v8.215c0,0.57,0.066,1.041,0.199,1.412s0.309,0.664,0.527,0.879s0.469,0.363,0.75,0.445s0.57,0.123,0.867,0.123
				c0.883,0,1.592-0.168,2.127-0.504s0.928-0.785,1.178-1.348v-9.223h2.168v12.68h-2.063L150.041,233.628z"/>
			<path fill="#FFFFFF" d="M155.455,218.839c0-0.352,0.107-0.648,0.322-0.891s0.533-0.363,0.955-0.363s0.742,0.121,0.961,0.363
				s0.328,0.539,0.328,0.891s-0.109,0.645-0.328,0.879s-0.539,0.352-0.961,0.352s-0.74-0.117-0.955-0.352
				S155.455,219.191,155.455,218.839z M157.798,234.882h-2.168v-12.68h2.168V234.882z"/>
			<path fill="#FFFFFF" d="M166.353,233.347c0.383,0,0.75-0.063,1.102-0.188s0.662-0.297,0.932-0.516s0.488-0.479,0.656-0.779
				s0.268-0.627,0.299-0.979h2.051c-0.031,0.563-0.186,1.1-0.463,1.611s-0.643,0.961-1.096,1.348s-0.979,0.695-1.576,0.926
				s-1.232,0.346-1.904,0.346c-0.953,0-1.783-0.17-2.49-0.51s-1.295-0.799-1.764-1.377s-0.818-1.25-1.049-2.016
				s-0.346-1.574-0.346-2.426v-0.492c0-0.852,0.115-1.66,0.346-2.426s0.58-1.438,1.049-2.016s1.055-1.037,1.758-1.377
				s1.531-0.51,2.484-0.51c0.742,0,1.416,0.117,2.021,0.352s1.129,0.557,1.57,0.967s0.787,0.896,1.037,1.459
				s0.391,1.168,0.422,1.816h-2.051c-0.031-0.391-0.123-0.756-0.275-1.096s-0.357-0.637-0.615-0.891s-0.564-0.455-0.92-0.604
				s-0.752-0.223-1.189-0.223c-0.672,0-1.229,0.133-1.67,0.398s-0.797,0.615-1.066,1.049s-0.459,0.922-0.568,1.465
				s-0.164,1.088-0.164,1.635v0.492c0,0.563,0.055,1.115,0.164,1.658s0.297,1.029,0.563,1.459s0.621,0.777,1.066,1.043
				S165.673,233.347,166.353,233.347z"/>
			<path fill="#FFFFFF" d="M177.369,229.011l-1.359,1.418v4.453h-2.168v-18h2.168v10.887l1.16-1.395l3.949-4.172h2.637l-4.934,5.297
				l5.508,7.383h-2.543L177.369,229.011z"/>
			<path fill="#FFFFFF" d="M202.669,228.683c0,0.93-0.109,1.787-0.328,2.572s-0.539,1.465-0.961,2.039s-0.938,1.021-1.547,1.342
				s-1.305,0.48-2.086,0.48c-0.836,0-1.559-0.146-2.168-0.439s-1.125-0.713-1.547-1.26l-0.105,1.465h-1.992v-18h2.168v6.715
				c0.422-0.523,0.93-0.926,1.523-1.207s1.293-0.422,2.098-0.422c0.797,0,1.502,0.156,2.115,0.469s1.129,0.752,1.547,1.318
				s0.736,1.246,0.955,2.039s0.328,1.674,0.328,2.643V228.683z M200.501,228.437c0-0.633-0.059-1.229-0.176-1.787
				s-0.307-1.049-0.568-1.471s-0.604-0.756-1.025-1.002s-0.938-0.369-1.547-0.369c-0.398,0-0.758,0.051-1.078,0.152
				s-0.607,0.242-0.861,0.422s-0.475,0.391-0.662,0.633s-0.348,0.504-0.48,0.785v5.484c0.141,0.281,0.307,0.543,0.498,0.785
				s0.414,0.453,0.668,0.633s0.541,0.32,0.861,0.422s0.68,0.152,1.078,0.152c0.586,0,1.086-0.121,1.5-0.363s0.754-0.57,1.02-0.984
				s0.461-0.9,0.586-1.459s0.188-1.154,0.188-1.787V228.437z"/>
			<path fill="#FFFFFF" d="M211.529,224.148c-0.188-0.031-0.361-0.053-0.521-0.064s-0.342-0.018-0.545-0.018
				c-0.75,0-1.361,0.164-1.834,0.492s-0.826,0.77-1.061,1.324v9H205.4v-12.68h2.109l0.035,1.465c0.328-0.523,0.738-0.938,1.23-1.242
				s1.09-0.457,1.793-0.457c0.156,0,0.336,0.018,0.539,0.053s0.344,0.072,0.422,0.111V224.148z"/>
			<path fill="#FFFFFF" d="M212.712,228.425c0-0.922,0.135-1.775,0.404-2.561s0.652-1.467,1.148-2.045s1.1-1.031,1.811-1.359
				s1.508-0.492,2.391-0.492c0.898,0,1.705,0.164,2.42,0.492s1.322,0.781,1.822,1.359s0.883,1.26,1.148,2.045
				s0.398,1.639,0.398,2.561v0.258c0,0.922-0.133,1.775-0.398,2.561s-0.648,1.465-1.148,2.039s-1.105,1.023-1.816,1.348
				s-1.512,0.486-2.402,0.486s-1.691-0.162-2.402-0.486s-1.316-0.773-1.816-1.348s-0.885-1.254-1.154-2.039
				s-0.404-1.639-0.404-2.561V228.425z M214.892,228.683c0,0.633,0.074,1.23,0.223,1.793s0.373,1.057,0.674,1.482
				s0.676,0.764,1.125,1.014s0.975,0.375,1.576,0.375c0.594,0,1.117-0.125,1.57-0.375s0.828-0.588,1.125-1.014
				s0.521-0.92,0.674-1.482s0.229-1.16,0.229-1.793v-0.258c0-0.625-0.076-1.221-0.229-1.787s-0.379-1.063-0.68-1.488
				s-0.678-0.766-1.131-1.02s-0.98-0.381-1.582-0.381c-0.594,0-1.113,0.127-1.559,0.381s-0.818,0.594-1.119,1.02
				s-0.525,0.922-0.674,1.488s-0.223,1.162-0.223,1.787V228.683z"/>
			<path fill="#FFFFFF" d="M238.201,231.894l2.438-9.691h2.168l-3.691,12.68h-1.758l-3.082-9.609l-3,9.609h-1.758l-3.68-12.68h2.156
				l2.496,9.492l2.953-9.492h1.746L238.201,231.894z"/>
			<path fill="#FFFFFF" d="M247.06,222.203l0.07,1.594c0.453-0.57,1-1.018,1.641-1.342s1.359-0.486,2.156-0.486
				c0.617,0,1.176,0.084,1.676,0.252s0.926,0.438,1.277,0.809s0.623,0.848,0.814,1.43s0.287,1.287,0.287,2.115v8.309h-2.168v-8.332
				c0-0.492-0.055-0.912-0.164-1.26s-0.271-0.631-0.486-0.85s-0.48-0.379-0.797-0.48s-0.682-0.152-1.096-0.152
				c-0.703,0-1.32,0.188-1.852,0.563s-0.945,0.867-1.242,1.477v9.035h-2.168v-12.68H247.06z"/>
			<path fill="#FFFFFF" d="M265.259,234.882v-11.004h-2.004v-1.676h2.004v-1.336c0-0.68,0.096-1.283,0.287-1.811
				s0.467-0.971,0.826-1.33s0.797-0.631,1.313-0.814s1.098-0.275,1.746-0.275c0.5,0,0.996,0.066,1.488,0.199l-0.117,1.758
				c-0.164-0.031-0.35-0.057-0.557-0.076s-0.412-0.029-0.615-0.029c-0.703,0-1.246,0.205-1.629,0.615s-0.574,0.998-0.574,1.764
				v1.336h2.707v1.676h-2.707v11.004H265.259z"/>
			<path fill="#FFFFFF" d="M271.951,228.425c0-0.922,0.135-1.775,0.404-2.561s0.652-1.467,1.148-2.045s1.1-1.031,1.811-1.359
				s1.508-0.492,2.391-0.492c0.898,0,1.705,0.164,2.42,0.492s1.322,0.781,1.822,1.359s0.883,1.26,1.148,2.045
				s0.398,1.639,0.398,2.561v0.258c0,0.922-0.133,1.775-0.398,2.561s-0.648,1.465-1.148,2.039s-1.105,1.023-1.816,1.348
				s-1.512,0.486-2.402,0.486s-1.691-0.162-2.402-0.486s-1.316-0.773-1.816-1.348s-0.885-1.254-1.154-2.039
				s-0.404-1.639-0.404-2.561V228.425z M274.13,228.683c0,0.633,0.074,1.23,0.223,1.793s0.373,1.057,0.674,1.482
				s0.676,0.764,1.125,1.014s0.975,0.375,1.576,0.375c0.594,0,1.117-0.125,1.57-0.375s0.828-0.588,1.125-1.014
				s0.521-0.92,0.674-1.482s0.229-1.16,0.229-1.793v-0.258c0-0.625-0.076-1.221-0.229-1.787s-0.379-1.063-0.68-1.488
				s-0.678-0.766-1.131-1.02s-0.98-0.381-1.582-0.381c-0.594,0-1.113,0.127-1.559,0.381s-0.818,0.594-1.119,1.02
				s-0.525,0.922-0.674,1.488s-0.223,1.162-0.223,1.787V228.683z"/>
			<path fill="#FFFFFF" d="M290.22,226.832l2.813-4.629h2.531l-4.148,6.27l4.277,6.41h-2.508l-2.93-4.746l-2.93,4.746h-2.52
				l4.277-6.41l-4.148-6.27h2.508L290.22,226.832z"/>
			<path fill="#FFFFFF" d="M84.615,252.203v14.191c0,1.172-0.273,2.066-0.82,2.684s-1.379,0.926-2.496,0.926
				c-0.203,0-0.43-0.02-0.68-0.059s-0.465-0.09-0.645-0.152v-1.734c0.156,0.039,0.326,0.064,0.51,0.076s0.342,0.018,0.475,0.018
				c0.484,0,0.854-0.131,1.107-0.393s0.381-0.717,0.381-1.365v-14.191H84.615z M82.224,248.839c0-0.344,0.107-0.639,0.322-0.885
				s0.529-0.369,0.943-0.369c0.422,0,0.742,0.121,0.961,0.363s0.328,0.539,0.328,0.891s-0.109,0.645-0.328,0.879
				s-0.539,0.352-0.961,0.352s-0.738-0.117-0.949-0.352S82.224,249.191,82.224,248.839z"/>
			<path fill="#FFFFFF" d="M95.935,263.628c-0.398,0.469-0.902,0.834-1.512,1.096s-1.344,0.393-2.203,0.393
				c-0.625,0-1.191-0.088-1.699-0.264s-0.945-0.453-1.313-0.832s-0.65-0.867-0.85-1.465s-0.299-1.318-0.299-2.162v-8.191h2.168
				v8.215c0,0.57,0.066,1.041,0.199,1.412s0.309,0.664,0.527,0.879s0.469,0.363,0.75,0.445s0.57,0.123,0.867,0.123
				c0.883,0,1.592-0.168,2.127-0.504s0.928-0.785,1.178-1.348v-9.223h2.168v12.68h-2.063L95.935,263.628z"/>
			<path fill="#FFFFFF" d="M103.376,252.203l0.059,1.406c0.438-0.516,0.967-0.918,1.588-1.207s1.346-0.434,2.174-0.434
				c0.82,0,1.545,0.162,2.174,0.486s1.111,0.842,1.447,1.553c0.422-0.609,0.971-1.102,1.646-1.477s1.475-0.563,2.396-0.563
				c0.68,0,1.281,0.088,1.805,0.264s0.967,0.451,1.33,0.826s0.639,0.852,0.826,1.43s0.281,1.266,0.281,2.063v8.332h-2.168v-8.344
				c0-0.531-0.064-0.973-0.193-1.324s-0.311-0.633-0.545-0.844s-0.52-0.357-0.855-0.439s-0.707-0.123-1.113-0.123
				c-0.445,0-0.84,0.07-1.184,0.211s-0.639,0.33-0.885,0.568s-0.441,0.52-0.586,0.844s-0.236,0.67-0.275,1.037v8.414h-2.18v-8.332
				c0-0.492-0.064-0.912-0.193-1.26s-0.311-0.631-0.545-0.85s-0.518-0.379-0.85-0.48s-0.705-0.152-1.119-0.152
				c-0.773,0-1.395,0.168-1.863,0.504s-0.82,0.773-1.055,1.313v9.258h-2.168v-12.68H103.376z"/>
			<path fill="#FFFFFF" d="M133.083,258.683c0,0.93-0.109,1.787-0.328,2.572s-0.537,1.465-0.955,2.039s-0.932,1.021-1.541,1.342
				s-1.305,0.48-2.086,0.48c-0.797,0-1.494-0.125-2.092-0.375s-1.111-0.613-1.541-1.09v6.105h-2.168v-17.555h1.98l0.105,1.406
				c0.43-0.531,0.949-0.938,1.559-1.219s1.316-0.422,2.121-0.422c0.797,0,1.502,0.156,2.115,0.469s1.131,0.752,1.553,1.318
				s0.74,1.246,0.955,2.039s0.322,1.674,0.322,2.643V258.683z M130.916,258.437c0-0.633-0.066-1.229-0.199-1.787
				s-0.34-1.049-0.621-1.471s-0.637-0.756-1.066-1.002s-0.941-0.369-1.535-0.369c-0.367,0-0.701,0.043-1.002,0.129
				s-0.572,0.207-0.814,0.363s-0.457,0.342-0.645,0.557s-0.352,0.447-0.492,0.697v6.059c0.141,0.25,0.305,0.482,0.492,0.697
				s0.402,0.398,0.645,0.551s0.516,0.271,0.82,0.357s0.645,0.129,1.02,0.129c0.586,0,1.092-0.125,1.518-0.375
				s0.779-0.586,1.061-1.008s0.488-0.916,0.621-1.482s0.199-1.166,0.199-1.799V258.437z"/>
			<path fill="#FFFFFF" d="M143.22,261.519c0-0.234-0.035-0.455-0.105-0.662s-0.209-0.402-0.416-0.586s-0.502-0.354-0.885-0.51
				s-0.887-0.301-1.512-0.434c-0.703-0.148-1.336-0.324-1.898-0.527s-1.041-0.447-1.436-0.732s-0.697-0.623-0.908-1.014
				s-0.316-0.848-0.316-1.371c0-0.5,0.111-0.975,0.334-1.424s0.537-0.844,0.943-1.184s0.898-0.609,1.477-0.809
				s1.223-0.299,1.934-0.299c0.758,0,1.436,0.104,2.033,0.311s1.105,0.49,1.523,0.85s0.736,0.779,0.955,1.26
				s0.328,0.994,0.328,1.541h-2.18c0-0.258-0.059-0.518-0.176-0.779s-0.289-0.496-0.516-0.703s-0.504-0.375-0.832-0.504
				s-0.707-0.193-1.137-0.193c-0.453,0-0.838,0.053-1.154,0.158s-0.576,0.246-0.779,0.422s-0.352,0.375-0.445,0.598
				s-0.141,0.451-0.141,0.686s0.039,0.445,0.117,0.633s0.227,0.357,0.445,0.51s0.518,0.293,0.896,0.422s0.869,0.26,1.471,0.393
				c0.773,0.18,1.445,0.383,2.016,0.609s1.043,0.49,1.418,0.791s0.654,0.646,0.838,1.037s0.275,0.844,0.275,1.359
				c0,0.555-0.115,1.063-0.346,1.523s-0.561,0.855-0.99,1.184s-0.945,0.584-1.547,0.768s-1.27,0.275-2.004,0.275
				c-0.844,0-1.588-0.117-2.232-0.352s-1.186-0.545-1.623-0.932s-0.77-0.828-0.996-1.324s-0.34-1.006-0.34-1.529h2.168
				c0.023,0.445,0.131,0.818,0.322,1.119s0.432,0.545,0.721,0.732s0.605,0.32,0.949,0.398s0.688,0.117,1.031,0.117
				c0.445,0,0.836-0.047,1.172-0.141s0.619-0.223,0.85-0.387s0.404-0.357,0.521-0.58S143.22,261.777,143.22,261.519z"/>
			<path fill="#FFFFFF" d="M153.58,258.425c0-0.922,0.135-1.775,0.404-2.561s0.652-1.467,1.148-2.045s1.1-1.031,1.811-1.359
				s1.508-0.492,2.391-0.492c0.898,0,1.705,0.164,2.42,0.492s1.322,0.781,1.822,1.359s0.883,1.26,1.148,2.045
				s0.398,1.639,0.398,2.561v0.258c0,0.922-0.133,1.775-0.398,2.561s-0.648,1.465-1.148,2.039s-1.105,1.023-1.816,1.348
				s-1.512,0.486-2.402,0.486s-1.691-0.162-2.402-0.486s-1.316-0.773-1.816-1.348s-0.885-1.254-1.154-2.039
				s-0.404-1.639-0.404-2.561V258.425z M155.759,258.683c0,0.633,0.074,1.23,0.223,1.793s0.373,1.057,0.674,1.482
				s0.676,0.764,1.125,1.014s0.975,0.375,1.576,0.375c0.594,0,1.117-0.125,1.57-0.375s0.828-0.588,1.125-1.014
				s0.521-0.92,0.674-1.482s0.229-1.16,0.229-1.793v-0.258c0-0.625-0.076-1.221-0.229-1.787s-0.379-1.063-0.68-1.488
				s-0.678-0.766-1.131-1.02s-0.98-0.381-1.582-0.381c-0.594,0-1.113,0.127-1.559,0.381s-0.818,0.594-1.119,1.02
				s-0.525,0.922-0.674,1.488s-0.223,1.162-0.223,1.787V258.683z"/>
			<path fill="#FFFFFF" d="M171.849,261.941l3.141-9.738h2.215l-4.547,12.68h-1.652l-4.594-12.68h2.215L171.849,261.941z"/>
			<path fill="#FFFFFF" d="M184.4,265.117c-0.883,0-1.682-0.152-2.396-0.457s-1.326-0.729-1.834-1.271s-0.898-1.189-1.172-1.939
				s-0.41-1.57-0.41-2.461v-0.492c0-1.031,0.154-1.953,0.463-2.766s0.721-1.496,1.236-2.051s1.105-0.979,1.77-1.271
				s1.355-0.439,2.074-0.439c0.906,0,1.688,0.158,2.344,0.475s1.197,0.752,1.623,1.307s0.74,1.211,0.943,1.969
				s0.305,1.582,0.305,2.473v0.973h-8.59c0.016,0.586,0.111,1.133,0.287,1.641s0.426,0.949,0.75,1.324s0.715,0.672,1.172,0.891
				s0.975,0.328,1.553,0.328c0.766,0,1.414-0.156,1.945-0.469s0.996-0.727,1.395-1.242l1.324,1.031
				c-0.203,0.313-0.449,0.615-0.738,0.908s-0.627,0.555-1.014,0.785s-0.83,0.414-1.33,0.551S185.033,265.117,184.4,265.117z
				 M184.13,253.75c-0.438,0-0.84,0.08-1.207,0.24s-0.695,0.393-0.984,0.697s-0.529,0.684-0.721,1.137s-0.322,0.973-0.393,1.559
				h6.352v-0.164c-0.023-0.422-0.092-0.84-0.205-1.254s-0.289-0.785-0.527-1.113s-0.545-0.594-0.92-0.797
				S184.685,253.75,184.13,253.75z"/>
			<path fill="#FFFFFF" d="M197.982,254.148c-0.188-0.031-0.361-0.053-0.521-0.064s-0.342-0.018-0.545-0.018
				c-0.75,0-1.361,0.164-1.834,0.492s-0.826,0.77-1.061,1.324v9h-2.168v-12.68h2.109l0.035,1.465
				c0.328-0.523,0.738-0.938,1.23-1.242s1.09-0.457,1.793-0.457c0.156,0,0.336,0.018,0.539,0.053s0.344,0.072,0.422,0.111V254.148z"
				/>
			<path fill="#FFFFFF" d="M208.857,249.132v3.07h2.367v1.676h-2.367v7.863c0,0.328,0.039,0.592,0.117,0.791
				s0.182,0.354,0.311,0.463s0.277,0.182,0.445,0.217s0.342,0.053,0.521,0.053s0.369-0.018,0.568-0.053s0.354-0.064,0.463-0.088
				v1.758c-0.172,0.047-0.395,0.098-0.668,0.152s-0.605,0.082-0.996,0.082c-0.398,0-0.775-0.057-1.131-0.17
				s-0.666-0.303-0.932-0.568s-0.477-0.615-0.633-1.049s-0.234-0.967-0.234-1.6v-7.852h-2.309v-1.676h2.309v-3.07H208.857z"/>
			<path fill="#FFFFFF" d="M215.923,253.738c0.453-0.555,0.996-0.988,1.629-1.301s1.34-0.469,2.121-0.469
				c0.617,0,1.176,0.084,1.676,0.252s0.926,0.438,1.277,0.809s0.623,0.848,0.814,1.43s0.287,1.287,0.287,2.115v8.309h-2.168v-8.332
				c0-0.492-0.055-0.912-0.164-1.26s-0.271-0.631-0.486-0.85s-0.48-0.379-0.797-0.48s-0.682-0.152-1.096-0.152
				c-0.703,0-1.32,0.188-1.852,0.563s-0.945,0.867-1.242,1.477v9.035h-2.168v-18h2.168V253.738z"/>
			<path fill="#FFFFFF" d="M232.236,265.117c-0.883,0-1.682-0.152-2.396-0.457s-1.326-0.729-1.834-1.271s-0.898-1.189-1.172-1.939
				s-0.41-1.57-0.41-2.461v-0.492c0-1.031,0.154-1.953,0.463-2.766s0.721-1.496,1.236-2.051s1.105-0.979,1.77-1.271
				s1.355-0.439,2.074-0.439c0.906,0,1.688,0.158,2.344,0.475s1.197,0.752,1.623,1.307s0.74,1.211,0.943,1.969
				s0.305,1.582,0.305,2.473v0.973h-8.59c0.016,0.586,0.111,1.133,0.287,1.641s0.426,0.949,0.75,1.324s0.715,0.672,1.172,0.891
				s0.975,0.328,1.553,0.328c0.766,0,1.414-0.156,1.945-0.469s0.996-0.727,1.395-1.242l1.324,1.031
				c-0.203,0.313-0.449,0.615-0.738,0.908s-0.627,0.555-1.014,0.785s-0.83,0.414-1.33,0.551S232.869,265.117,232.236,265.117z
				 M231.966,253.75c-0.438,0-0.84,0.08-1.207,0.24s-0.695,0.393-0.984,0.697s-0.529,0.684-0.721,1.137s-0.322,0.973-0.393,1.559
				h6.352v-0.164c-0.023-0.422-0.092-0.84-0.205-1.254s-0.289-0.785-0.527-1.113s-0.545-0.594-0.92-0.797
				S232.521,253.75,231.966,253.75z"/>
			<path fill="#FFFFFF" d="M247.986,264.882h-2.168v-18h2.168V264.882z"/>
			<path fill="#FFFFFF" d="M259.283,264.882c-0.078-0.156-0.141-0.354-0.188-0.592s-0.086-0.486-0.117-0.744
				c-0.203,0.211-0.432,0.412-0.686,0.604s-0.531,0.359-0.832,0.504s-0.627,0.258-0.979,0.34s-0.723,0.123-1.113,0.123
				c-0.648,0-1.236-0.098-1.764-0.293s-0.977-0.461-1.348-0.797s-0.658-0.732-0.861-1.189s-0.305-0.947-0.305-1.471
				c0-0.68,0.133-1.279,0.398-1.799s0.646-0.955,1.143-1.307s1.096-0.617,1.799-0.797s1.488-0.27,2.355-0.27h2.156v-0.996
				c0-0.758-0.227-1.361-0.68-1.811s-1.121-0.674-2.004-0.674c-0.406,0-0.777,0.055-1.113,0.164s-0.623,0.256-0.861,0.439
				s-0.424,0.396-0.557,0.639s-0.199,0.496-0.199,0.762h-2.18c0-0.453,0.119-0.902,0.357-1.348s0.576-0.846,1.014-1.201
				s0.967-0.645,1.588-0.867s1.314-0.334,2.08-0.334c0.688,0,1.322,0.088,1.904,0.264s1.08,0.441,1.494,0.797
				s0.738,0.799,0.973,1.33s0.352,1.152,0.352,1.863v5.895c0,0.43,0.037,0.881,0.111,1.354s0.186,0.881,0.334,1.225v0.188H259.283z
				 M255.685,263.23c0.391,0,0.758-0.055,1.102-0.164s0.656-0.252,0.938-0.428s0.525-0.377,0.732-0.604s0.369-0.461,0.486-0.703
				v-2.602h-1.805c-1.242,0-2.199,0.193-2.871,0.58s-1.008,0.971-1.008,1.752c0,0.305,0.051,0.59,0.152,0.855
				s0.256,0.494,0.463,0.686s0.461,0.344,0.762,0.457S255.287,263.23,255.685,263.23z"/>
			<path fill="#FFFFFF" d="M266.548,263.113h7.418v1.77H263.9v-1.594l6.996-9.293h-6.891v-1.793h9.609v1.535L266.548,263.113z"/>
			<path fill="#FFFFFF" d="M280.552,261.707l2.953-9.504h2.32l-5.098,14.637c-0.117,0.313-0.27,0.652-0.457,1.02
				s-0.432,0.709-0.732,1.025s-0.662,0.582-1.084,0.797s-0.918,0.322-1.488,0.322c-0.086,0-0.188-0.008-0.305-0.023
				s-0.234-0.033-0.352-0.053s-0.227-0.039-0.328-0.059s-0.18-0.037-0.234-0.053v-1.758c0.031,0.008,0.074,0.014,0.129,0.018
				s0.111,0.008,0.17,0.012s0.113,0.008,0.164,0.012s0.092,0.006,0.123,0.006c0.367,0,0.691-0.035,0.973-0.105
				s0.531-0.186,0.75-0.346s0.408-0.373,0.568-0.639s0.307-0.594,0.439-0.984l0.48-1.289l-4.523-12.539h2.367L280.552,261.707z"/>
			<path fill="#FFFFFF" d="M293.173,258.437c0-0.969,0.119-1.85,0.357-2.643s0.576-1.473,1.014-2.039s0.963-1.006,1.576-1.318
				s1.299-0.469,2.057-0.469c0.773,0,1.449,0.131,2.027,0.393s1.078,0.639,1.5,1.131v-6.609h2.168v18h-1.992l-0.105-1.359
				c-0.422,0.516-0.93,0.91-1.523,1.184s-1.293,0.41-2.098,0.41c-0.742,0-1.42-0.16-2.033-0.48s-1.139-0.768-1.576-1.342
				s-0.775-1.254-1.014-2.039s-0.357-1.643-0.357-2.572V258.437z M295.341,258.683c0,0.633,0.064,1.229,0.193,1.787
				s0.33,1.045,0.604,1.459s0.621,0.742,1.043,0.984s0.926,0.363,1.512,0.363c0.383,0,0.727-0.045,1.031-0.135
				s0.58-0.217,0.826-0.381s0.465-0.359,0.656-0.586s0.357-0.477,0.498-0.75v-5.824c-0.141-0.258-0.305-0.496-0.492-0.715
				s-0.404-0.408-0.65-0.568s-0.521-0.285-0.826-0.375s-0.645-0.135-1.02-0.135c-0.594,0-1.104,0.123-1.529,0.369
				s-0.775,0.58-1.049,1.002s-0.475,0.912-0.604,1.471s-0.193,1.154-0.193,1.787V258.683z"/>
			<path fill="#FFFFFF" d="M306.662,258.425c0-0.922,0.135-1.775,0.404-2.561s0.652-1.467,1.148-2.045s1.1-1.031,1.811-1.359
				s1.508-0.492,2.391-0.492c0.898,0,1.705,0.164,2.42,0.492s1.322,0.781,1.822,1.359s0.883,1.26,1.148,2.045
				s0.398,1.639,0.398,2.561v0.258c0,0.922-0.133,1.775-0.398,2.561s-0.648,1.465-1.148,2.039s-1.105,1.023-1.816,1.348
				s-1.512,0.486-2.402,0.486s-1.691-0.162-2.402-0.486s-1.316-0.773-1.816-1.348s-0.885-1.254-1.154-2.039
				s-0.404-1.639-0.404-2.561V258.425z M308.841,258.683c0,0.633,0.074,1.23,0.223,1.793s0.373,1.057,0.674,1.482
				s0.676,0.764,1.125,1.014s0.975,0.375,1.576,0.375c0.594,0,1.117-0.125,1.57-0.375s0.828-0.588,1.125-1.014
				s0.521-0.92,0.674-1.482s0.229-1.16,0.229-1.793v-0.258c0-0.625-0.076-1.221-0.229-1.787s-0.379-1.063-0.68-1.488
				s-0.678-0.766-1.131-1.02s-0.98-0.381-1.582-0.381c-0.594,0-1.113,0.127-1.559,0.381s-0.818,0.594-1.119,1.02
				s-0.525,0.922-0.674,1.488s-0.223,1.162-0.223,1.787V258.683z"/>
			<path fill="#FFFFFF" d="M320.408,258.437c0-0.969,0.115-1.85,0.346-2.643s0.563-1.473,0.996-2.039s0.959-1.006,1.576-1.318
				s1.313-0.469,2.086-0.469c0.805,0,1.504,0.141,2.098,0.422s1.102,0.688,1.523,1.219l0.105-1.406h1.98v12.41
				c0,0.836-0.131,1.58-0.393,2.232s-0.631,1.203-1.107,1.652s-1.043,0.791-1.699,1.025s-1.383,0.352-2.18,0.352
				c-0.328,0-0.705-0.037-1.131-0.111s-0.855-0.195-1.289-0.363s-0.85-0.393-1.248-0.674s-0.738-0.629-1.02-1.043l1.125-1.301
				c0.266,0.328,0.539,0.602,0.82,0.82s0.564,0.395,0.85,0.527s0.574,0.229,0.867,0.287s0.584,0.088,0.873,0.088
				c0.508,0,0.969-0.072,1.383-0.217s0.768-0.361,1.061-0.65s0.518-0.643,0.674-1.061s0.234-0.904,0.234-1.459v-1.102
				c-0.422,0.484-0.924,0.855-1.506,1.113s-1.264,0.387-2.045,0.387c-0.758,0-1.443-0.16-2.057-0.48s-1.137-0.768-1.57-1.342
				s-0.768-1.254-1.002-2.039s-0.352-1.643-0.352-2.572V258.437z M322.587,258.683c0,0.633,0.064,1.229,0.193,1.787
				s0.328,1.045,0.598,1.459s0.615,0.742,1.037,0.984s0.926,0.363,1.512,0.363c0.383,0,0.729-0.047,1.037-0.141
				s0.586-0.223,0.832-0.387s0.463-0.359,0.65-0.586s0.352-0.477,0.492-0.75v-5.789c-0.141-0.258-0.305-0.498-0.492-0.721
				s-0.404-0.416-0.65-0.58s-0.521-0.291-0.826-0.381s-0.645-0.135-1.02-0.135c-0.594,0-1.102,0.123-1.523,0.369
				s-0.77,0.58-1.043,1.002s-0.475,0.912-0.604,1.471s-0.193,1.154-0.193,1.787V258.683z"/>
			<path fill="#FFFFFF" d="M334.435,263.746c0-0.375,0.111-0.688,0.334-0.938s0.557-0.375,1.002-0.375s0.783,0.125,1.014,0.375
				s0.346,0.563,0.346,0.938c0,0.359-0.115,0.66-0.346,0.902s-0.568,0.363-1.014,0.363s-0.779-0.121-1.002-0.363
				S334.435,264.105,334.435,263.746z"/>
		</g>
	</g>
	<g>
		<g>
			<path fill="#FFFFFF" d="M459.242,220.667h-5.227v14.215H450.5v-14.215h-5.156v-2.848h13.898V220.667z"/>
			<path fill="#FFFFFF" d="M464.328,223.585c0.422-0.508,0.916-0.904,1.482-1.189s1.201-0.428,1.904-0.428
				c0.625,0,1.195,0.088,1.711,0.264s0.957,0.461,1.324,0.855s0.65,0.904,0.85,1.529s0.299,1.383,0.299,2.273v7.992h-3.387v-8.016
				c0-0.406-0.045-0.746-0.135-1.02s-0.221-0.494-0.393-0.662s-0.385-0.287-0.639-0.357s-0.541-0.105-0.861-0.105
				c-0.531,0-0.973,0.104-1.324,0.311s-0.629,0.486-0.832,0.838v9.012h-3.387v-18h3.387V223.585z"/>
			<path fill="#FFFFFF" d="M480.289,235.117c-0.984,0-1.865-0.16-2.643-0.48s-1.438-0.758-1.98-1.313s-0.957-1.205-1.242-1.951
				s-0.428-1.545-0.428-2.396v-0.457c0-0.961,0.139-1.842,0.416-2.643s0.672-1.49,1.184-2.068s1.133-1.029,1.863-1.354
				s1.549-0.486,2.455-0.486c0.914,0,1.719,0.15,2.414,0.451s1.279,0.723,1.752,1.266s0.828,1.197,1.066,1.963
				s0.357,1.617,0.357,2.555v1.441h-8.074c0.055,0.414,0.166,0.789,0.334,1.125s0.383,0.623,0.645,0.861s0.568,0.424,0.92,0.557
				s0.746,0.199,1.184,0.199c0.617,0,1.188-0.115,1.711-0.346s0.973-0.588,1.348-1.072l1.664,1.863
				c-0.203,0.289-0.457,0.57-0.762,0.844s-0.664,0.518-1.078,0.732s-0.881,0.387-1.4,0.516S480.906,235.117,480.289,235.117z
				 M479.902,224.71c-0.367,0-0.689,0.064-0.967,0.193s-0.516,0.309-0.715,0.539s-0.361,0.506-0.486,0.826s-0.215,0.676-0.27,1.066
				h4.711v-0.27c-0.008-0.336-0.057-0.648-0.146-0.938s-0.227-0.539-0.41-0.75s-0.418-0.375-0.703-0.492
				S480.293,224.71,479.902,224.71z"/>
			<path fill="#FFFFFF" d="M492.875,228.425c0-0.961,0.109-1.838,0.328-2.631s0.539-1.473,0.961-2.039s0.941-1.006,1.559-1.318
				s1.328-0.469,2.133-0.469c0.719,0,1.344,0.137,1.875,0.41s0.988,0.656,1.371,1.148l0.223-1.324h2.977v17.555h-3.398v-5.965
				c-0.375,0.422-0.814,0.748-1.318,0.979s-1.088,0.346-1.752,0.346c-0.797,0-1.502-0.162-2.115-0.486s-1.131-0.773-1.553-1.348
				s-0.742-1.256-0.961-2.045s-0.328-1.645-0.328-2.566V228.425z M496.262,228.671c0,0.516,0.043,0.998,0.129,1.447
				s0.227,0.842,0.422,1.178s0.447,0.602,0.756,0.797s0.686,0.293,1.131,0.293c0.555,0,1.01-0.109,1.365-0.328
				s0.635-0.523,0.838-0.914v-5.238c-0.203-0.383-0.482-0.678-0.838-0.885s-0.803-0.311-1.342-0.311
				c-0.445,0-0.822,0.096-1.131,0.287s-0.563,0.453-0.762,0.785s-0.344,0.725-0.434,1.178s-0.135,0.941-0.135,1.465V228.671z"/>
			<path fill="#FFFFFF" d="M514.555,233.593c-0.398,0.484-0.883,0.859-1.453,1.125s-1.242,0.398-2.016,0.398
				c-0.625,0-1.195-0.088-1.711-0.264s-0.959-0.453-1.33-0.832s-0.658-0.867-0.861-1.465s-0.305-1.314-0.305-2.15v-8.203h3.387
				v8.227c0,0.352,0.045,0.652,0.135,0.902s0.215,0.451,0.375,0.604s0.35,0.264,0.568,0.334s0.461,0.105,0.727,0.105
				c0.609,0,1.105-0.105,1.488-0.316s0.676-0.504,0.879-0.879v-8.977h3.398v12.68h-3.188L514.555,233.593z"/>
			<path fill="#FFFFFF" d="M520.367,218.921c0-0.508,0.17-0.926,0.51-1.254s0.803-0.492,1.389-0.492
				c0.289,0,0.551,0.043,0.785,0.129s0.434,0.207,0.598,0.363s0.291,0.342,0.381,0.557s0.135,0.447,0.135,0.697
				c0,0.258-0.045,0.494-0.135,0.709s-0.217,0.4-0.381,0.557s-0.363,0.277-0.598,0.363s-0.496,0.129-0.785,0.129
				s-0.551-0.043-0.785-0.129s-0.434-0.207-0.598-0.363s-0.291-0.342-0.381-0.557S520.367,219.179,520.367,218.921z
				 M523.965,234.882h-3.398v-12.68h3.398V234.882z"/>
			<path fill="#FFFFFF" d="M532.027,232.386c0.313,0,0.598-0.045,0.855-0.135s0.48-0.217,0.668-0.381s0.334-0.361,0.439-0.592
				s0.162-0.49,0.17-0.779h3.176c-0.008,0.672-0.148,1.291-0.422,1.857s-0.645,1.055-1.113,1.465s-1.021,0.729-1.658,0.955
				s-1.322,0.34-2.057,0.34c-0.984,0-1.844-0.166-2.578-0.498s-1.344-0.785-1.828-1.359s-0.848-1.25-1.09-2.027
				s-0.363-1.615-0.363-2.514v-0.328c0-0.898,0.121-1.738,0.363-2.52s0.605-1.461,1.09-2.039s1.092-1.033,1.822-1.365
				s1.584-0.498,2.561-0.498c0.781,0,1.494,0.115,2.139,0.346s1.197,0.561,1.658,0.99s0.82,0.951,1.078,1.564
				s0.391,1.299,0.398,2.057h-3.176c-0.008-0.305-0.061-0.592-0.158-0.861s-0.236-0.504-0.416-0.703s-0.402-0.357-0.668-0.475
				s-0.57-0.176-0.914-0.176c-0.492,0-0.895,0.102-1.207,0.305s-0.557,0.475-0.732,0.814s-0.295,0.732-0.357,1.178
				s-0.094,0.906-0.094,1.383v0.328c0,0.484,0.031,0.949,0.094,1.395s0.182,0.836,0.357,1.172s0.42,0.604,0.732,0.803
				S531.52,232.386,532.027,232.386z"/>
			<path fill="#FFFFFF" d="M543.875,229.796l-1.219,1.219v3.867h-3.387v-18h3.387v9.973l0.656-0.844l3.246-3.809h4.066l-4.582,5.285
				l4.98,7.395h-3.891L543.875,229.796z"/>
			<path fill="#FFFFFF" d="M569.492,228.66c0,0.953-0.102,1.824-0.305,2.613s-0.51,1.469-0.92,2.039s-0.924,1.014-1.541,1.33
				s-1.34,0.475-2.168,0.475c-0.734,0-1.369-0.139-1.904-0.416s-0.998-0.666-1.389-1.166l-0.152,1.348h-3.047v-18h3.387v6.457
				c0.375-0.438,0.814-0.775,1.318-1.014s1.092-0.357,1.764-0.357c0.828,0,1.553,0.16,2.174,0.48s1.139,0.766,1.553,1.336
				s0.723,1.25,0.926,2.039s0.305,1.652,0.305,2.59V228.66z M566.105,228.414c0-0.5-0.035-0.975-0.105-1.424
				s-0.197-0.842-0.381-1.178s-0.432-0.602-0.744-0.797s-0.711-0.293-1.195-0.293c-0.57,0-1.035,0.115-1.395,0.346
				s-0.637,0.557-0.832,0.979v5.004c0.195,0.422,0.473,0.75,0.832,0.984s0.832,0.352,1.418,0.352c0.477,0,0.869-0.094,1.178-0.281
				s0.555-0.445,0.738-0.773s0.311-0.721,0.381-1.178s0.105-0.955,0.105-1.494V228.414z"/>
			<path fill="#FFFFFF" d="M578.703,225.378c-0.172-0.023-0.373-0.045-0.604-0.064s-0.436-0.029-0.615-0.029
				c-0.664,0-1.201,0.111-1.611,0.334s-0.713,0.545-0.908,0.967v8.297h-3.387v-12.68h3.199l0.094,1.512
				c0.32-0.547,0.715-0.975,1.184-1.283s1.016-0.463,1.641-0.463c0.18,0,0.369,0.016,0.568,0.047s0.361,0.066,0.486,0.105
				L578.703,225.378z"/>
			<path fill="#FFFFFF" d="M579.383,228.425c0-0.922,0.133-1.777,0.398-2.566s0.652-1.471,1.16-2.045s1.135-1.025,1.881-1.354
				s1.596-0.492,2.549-0.492c0.961,0,1.816,0.164,2.566,0.492s1.381,0.779,1.893,1.354s0.9,1.256,1.166,2.045
				s0.398,1.645,0.398,2.566v0.246c0,0.93-0.133,1.787-0.398,2.572s-0.654,1.465-1.166,2.039s-1.139,1.023-1.881,1.348
				s-1.594,0.486-2.555,0.486s-1.814-0.162-2.561-0.486s-1.375-0.773-1.887-1.348s-0.9-1.254-1.166-2.039s-0.398-1.643-0.398-2.572
				V228.425z M582.77,228.671c0,0.516,0.047,1,0.141,1.453s0.244,0.846,0.451,1.178s0.477,0.596,0.809,0.791s0.74,0.293,1.225,0.293
				c0.469,0,0.869-0.098,1.201-0.293s0.604-0.459,0.814-0.791s0.363-0.725,0.457-1.178s0.141-0.938,0.141-1.453v-0.246
				c0-0.5-0.047-0.975-0.141-1.424s-0.246-0.844-0.457-1.184s-0.484-0.609-0.82-0.809s-0.742-0.299-1.219-0.299
				c-0.469,0-0.869,0.1-1.201,0.299s-0.602,0.469-0.809,0.809s-0.357,0.734-0.451,1.184s-0.141,0.924-0.141,1.424V228.671z"/>
			<path fill="#FFFFFF" d="M604.508,230.277l1.664-8.074h3.27l-3.234,12.68h-2.836l-2.402-7.98l-2.402,7.98h-2.824l-3.234-12.68
				h3.27l1.652,8.063l2.32-8.063h2.449L604.508,230.277z"/>
			<path fill="#FFFFFF" d="M614.234,222.203l0.105,1.465c0.438-0.547,0.965-0.967,1.582-1.26s1.305-0.439,2.063-0.439
				c0.602,0,1.148,0.084,1.641,0.252s0.914,0.443,1.266,0.826s0.623,0.883,0.814,1.5s0.287,1.375,0.287,2.273v8.063h-3.387v-8.086
				c0-0.406-0.045-0.742-0.135-1.008s-0.221-0.477-0.393-0.633s-0.383-0.268-0.633-0.334s-0.539-0.1-0.867-0.1
				c-0.5,0-0.928,0.109-1.283,0.328s-0.643,0.516-0.861,0.891v8.941h-3.387v-12.68H614.234z"/>
			<path fill="#FFFFFF" d="M631.461,234.882v-10.195h-1.887v-2.484h1.887v-1.102c0-0.719,0.107-1.355,0.322-1.91
				s0.523-1.021,0.926-1.4s0.891-0.666,1.465-0.861s1.221-0.293,1.939-0.293c0.305,0,0.6,0.023,0.885,0.07s0.564,0.102,0.838,0.164
				l-0.035,2.625c-0.281-0.07-0.625-0.105-1.031-0.105c-0.609,0-1.08,0.146-1.412,0.439s-0.498,0.717-0.498,1.271v1.102h2.52v2.484
				h-2.52v10.195H631.461z"/>
			<path fill="#FFFFFF" d="M638.609,228.425c0-0.922,0.133-1.777,0.398-2.566s0.652-1.471,1.16-2.045s1.135-1.025,1.881-1.354
				s1.596-0.492,2.549-0.492c0.961,0,1.816,0.164,2.566,0.492s1.381,0.779,1.893,1.354s0.9,1.256,1.166,2.045
				s0.398,1.645,0.398,2.566v0.246c0,0.93-0.133,1.787-0.398,2.572s-0.654,1.465-1.166,2.039s-1.139,1.023-1.881,1.348
				s-1.594,0.486-2.555,0.486s-1.814-0.162-2.561-0.486s-1.375-0.773-1.887-1.348s-0.9-1.254-1.166-2.039s-0.398-1.643-0.398-2.572
				V228.425z M641.996,228.671c0,0.516,0.047,1,0.141,1.453s0.244,0.846,0.451,1.178s0.477,0.596,0.809,0.791
				s0.74,0.293,1.225,0.293c0.469,0,0.869-0.098,1.201-0.293s0.604-0.459,0.814-0.791s0.363-0.725,0.457-1.178
				s0.141-0.938,0.141-1.453v-0.246c0-0.5-0.047-0.975-0.141-1.424s-0.246-0.844-0.457-1.184s-0.484-0.609-0.82-0.809
				s-0.742-0.299-1.219-0.299c-0.469,0-0.869,0.1-1.201,0.299s-0.602,0.469-0.809,0.809s-0.357,0.734-0.451,1.184
				s-0.141,0.924-0.141,1.424V228.671z"/>
			<path fill="#FFFFFF" d="M657.289,225.988l2.133-3.785h3.621l-3.609,6.211l3.762,6.469h-3.633l-2.262-3.984l-2.25,3.984h-3.645
				l3.762-6.469l-3.598-6.211h3.633L657.289,225.988z"/>
			<path fill="#FFFFFF" d="M449.762,252.203v13.383c0,0.711-0.098,1.342-0.293,1.893s-0.477,1.014-0.844,1.389
				s-0.818,0.658-1.354,0.85s-1.146,0.287-1.834,0.287c-0.281,0-0.561-0.016-0.838-0.047s-0.557-0.082-0.838-0.152v-2.684
				c0.18,0.031,0.357,0.057,0.533,0.076s0.354,0.029,0.533,0.029c0.492,0,0.871-0.131,1.137-0.393s0.398-0.678,0.398-1.248v-13.383
				H449.762z M446.094,248.921c0-0.508,0.17-0.926,0.51-1.254s0.803-0.492,1.389-0.492s1.049,0.164,1.389,0.492
				s0.51,0.746,0.51,1.254c0,0.258-0.045,0.494-0.135,0.709s-0.217,0.4-0.381,0.557s-0.363,0.277-0.598,0.363
				s-0.496,0.129-0.785,0.129s-0.551-0.043-0.785-0.129s-0.434-0.207-0.598-0.363s-0.291-0.342-0.381-0.557
				S446.094,249.179,446.094,248.921z"/>
			<path fill="#FFFFFF" d="M460.004,263.593c-0.398,0.484-0.883,0.859-1.453,1.125s-1.242,0.398-2.016,0.398
				c-0.625,0-1.195-0.088-1.711-0.264s-0.959-0.453-1.33-0.832s-0.658-0.867-0.861-1.465s-0.305-1.314-0.305-2.15v-8.203h3.387
				v8.227c0,0.352,0.045,0.652,0.135,0.902s0.215,0.451,0.375,0.604s0.35,0.264,0.568,0.334s0.461,0.105,0.727,0.105
				c0.609,0,1.105-0.105,1.488-0.316s0.676-0.504,0.879-0.879v-8.977h3.398v12.68h-3.188L460.004,263.593z"/>
			<path fill="#FFFFFF" d="M469.016,252.203l0.105,1.418c0.422-0.516,0.936-0.92,1.541-1.213s1.307-0.439,2.104-0.439
				c0.758,0,1.428,0.152,2.01,0.457s1.033,0.797,1.354,1.477c0.414-0.602,0.936-1.074,1.564-1.418s1.377-0.516,2.244-0.516
				c0.617,0,1.178,0.086,1.682,0.258s0.934,0.449,1.289,0.832s0.629,0.881,0.82,1.494s0.287,1.365,0.287,2.256v8.074h-3.398v-8.074
				c0-0.422-0.045-0.77-0.135-1.043s-0.217-0.486-0.381-0.639s-0.363-0.258-0.598-0.316s-0.5-0.088-0.797-0.088
				c-0.523,0-0.961,0.131-1.313,0.393s-0.617,0.615-0.797,1.061c0,0.039,0.002,0.082,0.006,0.129s0.006,0.09,0.006,0.129v8.449
				h-3.387v-8.051c0-0.422-0.043-0.77-0.129-1.043s-0.211-0.488-0.375-0.645s-0.365-0.266-0.604-0.328s-0.506-0.094-0.803-0.094
				c-0.5,0-0.922,0.105-1.266,0.316s-0.617,0.504-0.82,0.879v8.965h-3.387v-12.68H469.016z"/>
			<path fill="#FFFFFF" d="M498.031,258.66c0,0.922-0.107,1.777-0.322,2.566s-0.529,1.471-0.943,2.045s-0.928,1.025-1.541,1.354
				s-1.318,0.492-2.115,0.492c-0.672,0-1.264-0.117-1.775-0.352s-0.955-0.563-1.33-0.984v5.977h-3.387v-17.555h3.141l0.117,1.242
				c0.391-0.469,0.846-0.832,1.365-1.09s1.135-0.387,1.846-0.387c0.805,0,1.516,0.154,2.133,0.463s1.133,0.746,1.547,1.313
				s0.729,1.246,0.943,2.039s0.322,1.67,0.322,2.631V258.66z M494.645,258.414c0-0.523-0.045-1.01-0.135-1.459
				s-0.232-0.84-0.428-1.172s-0.447-0.592-0.756-0.779s-0.686-0.281-1.131-0.281c-0.555,0-1.01,0.104-1.365,0.311
				s-0.631,0.51-0.826,0.908v5.191c0.195,0.391,0.471,0.697,0.826,0.92s0.818,0.334,1.389,0.334c0.445,0,0.822-0.098,1.131-0.293
				s0.559-0.463,0.75-0.803s0.33-0.736,0.416-1.189s0.129-0.934,0.129-1.441V258.414z"/>
			<path fill="#FFFFFF" d="M506.996,261.378c0-0.18-0.035-0.344-0.105-0.492s-0.203-0.287-0.398-0.416s-0.461-0.252-0.797-0.369
				s-0.77-0.23-1.301-0.34c-0.648-0.141-1.248-0.316-1.799-0.527s-1.027-0.473-1.43-0.785s-0.717-0.676-0.943-1.09
				s-0.34-0.895-0.34-1.441c0-0.531,0.115-1.035,0.346-1.512s0.563-0.896,0.996-1.26s0.965-0.65,1.594-0.861
				s1.338-0.316,2.127-0.316c0.82,0,1.559,0.102,2.215,0.305s1.213,0.486,1.67,0.85s0.809,0.795,1.055,1.295
				s0.369,1.047,0.369,1.641h-3.387c0-0.484-0.156-0.885-0.469-1.201s-0.801-0.475-1.465-0.475c-0.57,0-1.012,0.129-1.324,0.387
				s-0.469,0.586-0.469,0.984c0,0.188,0.041,0.354,0.123,0.498s0.215,0.277,0.398,0.398s0.426,0.232,0.727,0.334
				s0.67,0.195,1.107,0.281c0.688,0.133,1.324,0.297,1.91,0.492s1.092,0.447,1.518,0.756s0.76,0.684,1.002,1.125
				s0.363,0.975,0.363,1.6c0,0.563-0.125,1.08-0.375,1.553s-0.607,0.881-1.072,1.225s-1.025,0.613-1.682,0.809
				s-1.391,0.293-2.203,0.293c-0.891,0-1.676-0.125-2.355-0.375s-1.252-0.578-1.717-0.984s-0.814-0.863-1.049-1.371
				s-0.352-1.02-0.352-1.535h3.211c0.016,0.328,0.088,0.611,0.217,0.85s0.299,0.432,0.51,0.58s0.455,0.258,0.732,0.328
				s0.568,0.105,0.873,0.105c0.648,0,1.139-0.123,1.471-0.369S506.996,261.777,506.996,261.378z"/>
			<path fill="#FFFFFF" d="M517.918,258.425c0-0.922,0.133-1.777,0.398-2.566s0.652-1.471,1.16-2.045s1.135-1.025,1.881-1.354
				s1.596-0.492,2.549-0.492c0.961,0,1.816,0.164,2.566,0.492s1.381,0.779,1.893,1.354s0.9,1.256,1.166,2.045
				s0.398,1.645,0.398,2.566v0.246c0,0.93-0.133,1.787-0.398,2.572s-0.654,1.465-1.166,2.039s-1.139,1.023-1.881,1.348
				s-1.594,0.486-2.555,0.486s-1.814-0.162-2.561-0.486s-1.375-0.773-1.887-1.348s-0.9-1.254-1.166-2.039s-0.398-1.643-0.398-2.572
				V258.425z M521.305,258.671c0,0.516,0.047,1,0.141,1.453s0.244,0.846,0.451,1.178s0.477,0.596,0.809,0.791
				s0.74,0.293,1.225,0.293c0.469,0,0.869-0.098,1.201-0.293s0.604-0.459,0.814-0.791s0.363-0.725,0.457-1.178
				s0.141-0.938,0.141-1.453v-0.246c0-0.5-0.047-0.975-0.141-1.424s-0.246-0.844-0.457-1.184s-0.484-0.609-0.82-0.809
				s-0.742-0.299-1.219-0.299c-0.469,0-0.869,0.1-1.201,0.299s-0.602,0.469-0.809,0.809s-0.357,0.734-0.451,1.184
				s-0.141,0.924-0.141,1.424V258.671z"/>
			<path fill="#FFFFFF" d="M536.586,260.746l2.355-8.543h3.539l-4.277,12.68h-3.234l-4.277-12.68h3.539L536.586,260.746z"/>
			<path fill="#FFFFFF" d="M549.652,265.117c-0.984,0-1.865-0.16-2.643-0.48s-1.438-0.758-1.98-1.313s-0.957-1.205-1.242-1.951
				s-0.428-1.545-0.428-2.396v-0.457c0-0.961,0.139-1.842,0.416-2.643s0.672-1.49,1.184-2.068s1.133-1.029,1.863-1.354
				s1.549-0.486,2.455-0.486c0.914,0,1.719,0.15,2.414,0.451s1.279,0.723,1.752,1.266s0.828,1.197,1.066,1.963
				s0.357,1.617,0.357,2.555v1.441h-8.074c0.055,0.414,0.166,0.789,0.334,1.125s0.383,0.623,0.645,0.861s0.568,0.424,0.92,0.557
				s0.746,0.199,1.184,0.199c0.617,0,1.188-0.115,1.711-0.346s0.973-0.588,1.348-1.072l1.664,1.863
				c-0.203,0.289-0.457,0.57-0.762,0.844s-0.664,0.518-1.078,0.732s-0.881,0.387-1.4,0.516S550.27,265.117,549.652,265.117z
				 M549.266,254.71c-0.367,0-0.689,0.064-0.967,0.193s-0.516,0.309-0.715,0.539s-0.361,0.506-0.486,0.826s-0.215,0.676-0.27,1.066
				h4.711v-0.27c-0.008-0.336-0.057-0.648-0.146-0.938s-0.227-0.539-0.41-0.75s-0.418-0.375-0.703-0.492
				S549.656,254.71,549.266,254.71z"/>
			<path fill="#FFFFFF" d="M563.914,255.378c-0.172-0.023-0.373-0.045-0.604-0.064s-0.436-0.029-0.615-0.029
				c-0.664,0-1.201,0.111-1.611,0.334s-0.713,0.545-0.908,0.967v8.297h-3.387v-12.68h3.199l0.094,1.512
				c0.32-0.547,0.715-0.975,1.184-1.283s1.016-0.463,1.641-0.463c0.18,0,0.369,0.016,0.568,0.047s0.361,0.066,0.486,0.105
				L563.914,255.378z"/>
			<path fill="#FFFFFF" d="M575.574,249.085v3.117h2.168v2.484h-2.168v6.328c0,0.266,0.027,0.484,0.082,0.656
				s0.137,0.307,0.246,0.404s0.244,0.164,0.404,0.199s0.35,0.053,0.568,0.053c0.203,0,0.389-0.008,0.557-0.023
				s0.314-0.035,0.439-0.059v2.566c-0.281,0.086-0.588,0.158-0.92,0.217s-0.709,0.088-1.131,0.088c-0.555,0-1.055-0.068-1.5-0.205
				s-0.826-0.354-1.143-0.65s-0.561-0.684-0.732-1.16s-0.258-1.051-0.258-1.723v-6.691h-1.852v-2.484h1.852v-3.117H575.574z"/>
			<path fill="#FFFFFF" d="M582.934,253.585c0.422-0.508,0.916-0.904,1.482-1.189s1.201-0.428,1.904-0.428
				c0.625,0,1.195,0.088,1.711,0.264s0.957,0.461,1.324,0.855s0.65,0.904,0.85,1.529s0.299,1.383,0.299,2.273v7.992h-3.387v-8.016
				c0-0.406-0.045-0.746-0.135-1.02s-0.221-0.494-0.393-0.662s-0.385-0.287-0.639-0.357s-0.541-0.105-0.861-0.105
				c-0.531,0-0.973,0.104-1.324,0.311s-0.629,0.486-0.832,0.838v9.012h-3.387v-18h3.387V253.585z"/>
			<path fill="#FFFFFF" d="M598.895,265.117c-0.984,0-1.865-0.16-2.643-0.48s-1.438-0.758-1.98-1.313s-0.957-1.205-1.242-1.951
				s-0.428-1.545-0.428-2.396v-0.457c0-0.961,0.139-1.842,0.416-2.643s0.672-1.49,1.184-2.068s1.133-1.029,1.863-1.354
				s1.549-0.486,2.455-0.486c0.914,0,1.719,0.15,2.414,0.451s1.279,0.723,1.752,1.266s0.828,1.197,1.066,1.963
				s0.357,1.617,0.357,2.555v1.441h-8.074c0.055,0.414,0.166,0.789,0.334,1.125s0.383,0.623,0.645,0.861s0.568,0.424,0.92,0.557
				s0.746,0.199,1.184,0.199c0.617,0,1.188-0.115,1.711-0.346s0.973-0.588,1.348-1.072l1.664,1.863
				c-0.203,0.289-0.457,0.57-0.762,0.844s-0.664,0.518-1.078,0.732s-0.881,0.387-1.4,0.516S599.512,265.117,598.895,265.117z
				 M598.508,254.71c-0.367,0-0.689,0.064-0.967,0.193s-0.516,0.309-0.715,0.539s-0.361,0.506-0.486,0.826s-0.215,0.676-0.27,1.066
				h4.711v-0.27c-0.008-0.336-0.057-0.648-0.146-0.938s-0.227-0.539-0.41-0.75s-0.418-0.375-0.703-0.492
				S598.898,254.71,598.508,254.71z"/>
			<path fill="#FFFFFF" d="M615.582,264.882h-3.398v-18h3.398V264.882z"/>
			<path fill="#FFFFFF" d="M625.719,264.882c-0.156-0.305-0.27-0.684-0.34-1.137c-0.344,0.383-0.775,0.707-1.295,0.973
				s-1.154,0.398-1.904,0.398c-0.609,0-1.178-0.094-1.705-0.281s-0.984-0.449-1.371-0.785s-0.689-0.736-0.908-1.201
				s-0.328-0.975-0.328-1.529c0-0.664,0.123-1.254,0.369-1.77s0.615-0.953,1.107-1.313s1.104-0.633,1.834-0.82
				s1.58-0.281,2.549-0.281h1.512v-0.727c0-0.586-0.15-1.055-0.451-1.406s-0.775-0.527-1.424-0.527c-0.57,0-1.018,0.137-1.342,0.41
				s-0.486,0.648-0.486,1.125h-3.387c0-0.547,0.127-1.066,0.381-1.559s0.615-0.922,1.084-1.289s1.035-0.658,1.699-0.873
				s1.406-0.322,2.227-0.322c0.734,0,1.414,0.094,2.039,0.281s1.164,0.467,1.617,0.838s0.807,0.836,1.061,1.395
				s0.381,1.209,0.381,1.951v5.367c0,0.359,0.012,0.682,0.035,0.967s0.055,0.543,0.094,0.773s0.09,0.438,0.152,0.621
				s0.137,0.357,0.223,0.521v0.199H625.719z M622.918,262.527c0.289,0,0.557-0.035,0.803-0.105s0.467-0.162,0.662-0.275
				s0.365-0.244,0.51-0.393s0.26-0.301,0.346-0.457v-2.18h-1.395c-0.445,0-0.832,0.049-1.16,0.146s-0.598,0.234-0.809,0.41
				s-0.367,0.383-0.469,0.621s-0.152,0.498-0.152,0.779c0,0.422,0.148,0.77,0.445,1.043S622.402,262.527,622.918,262.527z"/>
			<path fill="#FFFFFF" d="M635.129,262.152h6.199v2.73h-10.523v-2.063l5.965-7.875h-5.789v-2.742h10.16v2.004L635.129,262.152z"/>
			<path fill="#FFFFFF" d="M648.184,260.089l2.344-7.887h3.633l-5.074,14.578c-0.117,0.32-0.268,0.668-0.451,1.043
				s-0.432,0.725-0.744,1.049s-0.699,0.594-1.16,0.809s-1.027,0.322-1.699,0.322c-0.156,0-0.297-0.006-0.422-0.018
				s-0.246-0.025-0.363-0.041s-0.232-0.037-0.346-0.064s-0.236-0.061-0.369-0.1v-2.566c0.086,0,0.174,0.002,0.264,0.006
				s0.174,0.006,0.252,0.006c0.336,0,0.623-0.025,0.861-0.076s0.443-0.133,0.615-0.246s0.316-0.256,0.434-0.428
				s0.219-0.375,0.305-0.609l0.363-0.949l-4.441-12.715h3.645L648.184,260.089z"/>
			<path fill="#FFFFFF" d="M660.945,258.449c0-0.961,0.111-1.84,0.334-2.637s0.545-1.48,0.967-2.051s0.941-1.012,1.559-1.324
				s1.32-0.469,2.109-0.469c0.648,0,1.225,0.121,1.729,0.363s0.947,0.582,1.33,1.02v-6.469h3.398v18h-3.059l-0.164-1.348
				c-0.398,0.5-0.863,0.889-1.395,1.166s-1.152,0.416-1.863,0.416c-0.781,0-1.479-0.162-2.092-0.486s-1.131-0.771-1.553-1.342
				s-0.744-1.248-0.967-2.033s-0.334-1.639-0.334-2.561V258.449z M664.332,258.695c0,0.516,0.043,0.996,0.129,1.441
				s0.225,0.834,0.416,1.166s0.441,0.594,0.75,0.785s0.686,0.287,1.131,0.287c0.547,0,1.002-0.117,1.365-0.352
				s0.646-0.559,0.85-0.973v-5.004c-0.203-0.422-0.486-0.748-0.85-0.979s-0.811-0.346-1.342-0.346c-0.445,0-0.824,0.096-1.137,0.287
				s-0.564,0.455-0.756,0.791s-0.332,0.73-0.422,1.184s-0.135,0.941-0.135,1.465V258.695z"/>
			<path fill="#FFFFFF" d="M674.469,258.425c0-0.922,0.133-1.777,0.398-2.566s0.652-1.471,1.16-2.045s1.135-1.025,1.881-1.354
				s1.596-0.492,2.549-0.492c0.961,0,1.816,0.164,2.566,0.492s1.381,0.779,1.893,1.354s0.9,1.256,1.166,2.045
				s0.398,1.645,0.398,2.566v0.246c0,0.93-0.133,1.787-0.398,2.572s-0.654,1.465-1.166,2.039s-1.139,1.023-1.881,1.348
				s-1.594,0.486-2.555,0.486s-1.814-0.162-2.561-0.486s-1.375-0.773-1.887-1.348s-0.9-1.254-1.166-2.039s-0.398-1.643-0.398-2.572
				V258.425z M677.855,258.671c0,0.516,0.047,1,0.141,1.453s0.244,0.846,0.451,1.178s0.477,0.596,0.809,0.791
				s0.74,0.293,1.225,0.293c0.469,0,0.869-0.098,1.201-0.293s0.604-0.459,0.814-0.791s0.363-0.725,0.457-1.178
				s0.141-0.938,0.141-1.453v-0.246c0-0.5-0.047-0.975-0.141-1.424s-0.246-0.844-0.457-1.184s-0.484-0.609-0.82-0.809
				s-0.742-0.299-1.219-0.299c-0.469,0-0.869,0.1-1.201,0.299s-0.602,0.469-0.809,0.809s-0.357,0.734-0.451,1.184
				s-0.141,0.924-0.141,1.424V258.671z"/>
			<path fill="#FFFFFF" d="M688.074,258.449c0-0.961,0.119-1.84,0.357-2.637s0.578-1.48,1.02-2.051s0.979-1.012,1.611-1.324
				s1.348-0.469,2.145-0.469c0.742,0,1.377,0.125,1.904,0.375s0.975,0.602,1.342,1.055l0.141-1.195h3.07v12.246
				c0,0.867-0.148,1.637-0.445,2.309s-0.713,1.24-1.248,1.705s-1.176,0.816-1.922,1.055s-1.572,0.357-2.479,0.357
				c-0.391,0-0.805-0.039-1.242-0.117s-0.869-0.199-1.295-0.363s-0.83-0.371-1.213-0.621s-0.707-0.547-0.973-0.891l1.5-2.063
				c0.398,0.445,0.854,0.793,1.365,1.043s1.08,0.375,1.705,0.375c0.898,0,1.598-0.24,2.098-0.721s0.75-1.162,0.75-2.045v-0.68
				c-0.375,0.422-0.816,0.748-1.324,0.979s-1.094,0.346-1.758,0.346c-0.789,0-1.498-0.162-2.127-0.486s-1.164-0.771-1.605-1.342
				s-0.781-1.248-1.02-2.033s-0.357-1.639-0.357-2.561V258.449z M691.461,258.695c0,0.516,0.051,0.996,0.152,1.441
				s0.26,0.834,0.475,1.166s0.484,0.594,0.809,0.785s0.709,0.287,1.154,0.287c0.539,0,0.99-0.102,1.354-0.305
				s0.65-0.488,0.861-0.855v-5.332c-0.219-0.375-0.506-0.662-0.861-0.861s-0.799-0.299-1.33-0.299c-0.445,0-0.83,0.096-1.154,0.287
				s-0.596,0.455-0.814,0.791s-0.381,0.73-0.486,1.184s-0.158,0.941-0.158,1.465V258.695z"/>
			<path fill="#FFFFFF" d="M702.441,263.218c0-0.258,0.045-0.498,0.135-0.721s0.219-0.414,0.387-0.574s0.369-0.287,0.604-0.381
				s0.496-0.141,0.785-0.141s0.553,0.047,0.791,0.141s0.441,0.221,0.609,0.381s0.297,0.352,0.387,0.574s0.135,0.463,0.135,0.721
				s-0.045,0.496-0.135,0.715s-0.219,0.408-0.387,0.568s-0.371,0.285-0.609,0.375s-0.502,0.135-0.791,0.135
				s-0.551-0.045-0.785-0.135s-0.436-0.215-0.604-0.375s-0.297-0.35-0.387-0.568S702.441,263.476,702.441,263.218z"/>
		</g>
		<g>
			<g>
				<path fill="#333333" d="M500.656,101.266h-30.82l-5.859,17.578h-18.691l31.758-85.313h16.289l31.934,85.313h-18.691
					L500.656,101.266z M474.582,87.027h21.328l-10.723-31.934L474.582,87.027z"/>
				<path fill="#333333" d="M568.859,118.844c-0.782-1.523-1.348-3.418-1.699-5.684c-1.72,1.914-3.878,3.536-6.475,4.863
					c-2.599,1.327-5.771,1.992-9.521,1.992c-3.047,0-5.889-0.469-8.525-1.406s-4.922-2.246-6.855-3.926
					c-1.934-1.679-3.448-3.682-4.541-6.006c-1.095-2.323-1.641-4.872-1.641-7.646c0-3.319,0.615-6.27,1.846-8.848
					s3.076-4.766,5.537-6.563c2.461-1.796,5.517-3.164,9.17-4.102c3.651-0.938,7.899-1.406,12.744-1.406h7.559V76.48
					c0-2.93-0.753-5.273-2.256-7.031c-1.505-1.758-3.878-2.637-7.119-2.637c-2.853,0-5.089,0.684-6.709,2.051
					c-1.622,1.368-2.432,3.243-2.432,5.625h-16.934c0-2.733,0.634-5.332,1.904-7.793c1.269-2.461,3.076-4.608,5.42-6.445
					c2.344-1.836,5.175-3.29,8.496-4.365c3.319-1.074,7.031-1.611,11.133-1.611c3.671,0,7.069,0.469,10.195,1.406
					c3.124,0.938,5.819,2.335,8.086,4.189c2.265,1.855,4.032,4.181,5.303,6.973c1.269,2.793,1.904,6.045,1.904,9.756v26.836
					c0,1.797,0.059,3.408,0.176,4.834c0.117,1.427,0.272,2.716,0.469,3.867c0.194,1.152,0.448,2.188,0.762,3.105
					c0.312,0.918,0.683,1.787,1.113,2.607v0.996H568.859z M554.855,107.066c1.444,0,2.783-0.176,4.014-0.527
					s2.333-0.811,3.311-1.377c0.976-0.565,1.825-1.221,2.549-1.963c0.722-0.741,1.298-1.503,1.729-2.285V90.016h-6.973
					c-2.227,0-4.16,0.244-5.801,0.732c-1.641,0.489-2.988,1.172-4.043,2.051s-1.837,1.914-2.344,3.105
					c-0.509,1.192-0.762,2.49-0.762,3.896c0,2.109,0.741,3.848,2.227,5.215C550.245,106.384,552.277,107.066,554.855,107.066z"/>
			</g>
			<g>
				<path fill="#323333" d="M453.113,182.484h-4.008v6.902h-2.262v-17.063h5.648c1.922,0,3.4,0.438,4.436,1.313
					s1.553,2.148,1.553,3.82c0,1.063-0.287,1.988-0.861,2.777s-1.373,1.379-2.396,1.77l4.008,7.242v0.141h-2.414L453.113,182.484z
					 M449.105,180.644h3.457c0.609,0,1.143-0.084,1.6-0.252s0.838-0.395,1.143-0.68s0.533-0.621,0.686-1.008
					s0.229-0.803,0.229-1.248c0-0.492-0.072-0.939-0.217-1.342s-0.369-0.748-0.674-1.037s-0.691-0.512-1.16-0.668
					s-1.027-0.234-1.676-0.234h-3.387V180.644z"/>
				<path fill="#323333" d="M460.719,182.929c0-0.922,0.135-1.775,0.404-2.561s0.652-1.467,1.148-2.045s1.1-1.031,1.811-1.359
					s1.508-0.492,2.391-0.492c0.898,0,1.705,0.164,2.42,0.492s1.322,0.781,1.822,1.359s0.883,1.26,1.148,2.045
					s0.398,1.639,0.398,2.561v0.258c0,0.922-0.133,1.775-0.398,2.561s-0.648,1.465-1.148,2.039s-1.105,1.023-1.816,1.348
					s-1.512,0.486-2.402,0.486s-1.691-0.162-2.402-0.486s-1.316-0.773-1.816-1.348s-0.885-1.254-1.154-2.039
					s-0.404-1.639-0.404-2.561V182.929z M462.898,183.187c0,0.633,0.074,1.23,0.223,1.793s0.373,1.057,0.674,1.482
					s0.676,0.764,1.125,1.014s0.975,0.375,1.576,0.375c0.594,0,1.117-0.125,1.57-0.375s0.828-0.588,1.125-1.014
					s0.521-0.92,0.674-1.482s0.229-1.16,0.229-1.793v-0.258c0-0.625-0.076-1.221-0.229-1.787s-0.379-1.063-0.68-1.488
					s-0.678-0.766-1.131-1.02s-0.98-0.381-1.582-0.381c-0.594,0-1.113,0.127-1.559,0.381s-0.818,0.594-1.119,1.02
					s-0.525,0.922-0.674,1.488s-0.223,1.162-0.223,1.787V183.187z"/>
				<path fill="#323333" d="M485.715,183.187c0,0.93-0.109,1.787-0.328,2.572s-0.539,1.465-0.961,2.039s-0.938,1.021-1.547,1.342
					s-1.305,0.48-2.086,0.48c-0.836,0-1.559-0.146-2.168-0.439s-1.125-0.713-1.547-1.26l-0.105,1.465h-1.992v-18h2.168v6.715
					c0.422-0.523,0.93-0.926,1.523-1.207s1.293-0.422,2.098-0.422c0.797,0,1.502,0.156,2.115,0.469s1.129,0.752,1.547,1.318
					s0.736,1.246,0.955,2.039s0.328,1.674,0.328,2.643V183.187z M483.547,182.941c0-0.633-0.059-1.229-0.176-1.787
					s-0.307-1.049-0.568-1.471s-0.604-0.756-1.025-1.002s-0.938-0.369-1.547-0.369c-0.398,0-0.758,0.051-1.078,0.152
					s-0.607,0.242-0.861,0.422s-0.475,0.391-0.662,0.633s-0.348,0.504-0.48,0.785v5.484c0.141,0.281,0.307,0.543,0.498,0.785
					s0.414,0.453,0.668,0.633s0.541,0.32,0.861,0.422s0.68,0.152,1.078,0.152c0.586,0,1.086-0.121,1.5-0.363s0.754-0.57,1.02-0.984
					s0.461-0.9,0.586-1.459s0.188-1.154,0.188-1.787V182.941z"/>
				<path fill="#323333" d="M487.871,182.929c0-0.922,0.135-1.775,0.404-2.561s0.652-1.467,1.148-2.045s1.1-1.031,1.811-1.359
					s1.508-0.492,2.391-0.492c0.898,0,1.705,0.164,2.42,0.492s1.322,0.781,1.822,1.359s0.883,1.26,1.148,2.045
					s0.398,1.639,0.398,2.561v0.258c0,0.922-0.133,1.775-0.398,2.561s-0.648,1.465-1.148,2.039s-1.105,1.023-1.816,1.348
					s-1.512,0.486-2.402,0.486s-1.691-0.162-2.402-0.486s-1.316-0.773-1.816-1.348s-0.885-1.254-1.154-2.039
					s-0.404-1.639-0.404-2.561V182.929z M490.051,183.187c0,0.633,0.074,1.23,0.223,1.793s0.373,1.057,0.674,1.482
					s0.676,0.764,1.125,1.014s0.975,0.375,1.576,0.375c0.594,0,1.117-0.125,1.57-0.375s0.828-0.588,1.125-1.014
					s0.521-0.92,0.674-1.482s0.229-1.16,0.229-1.793v-0.258c0-0.625-0.076-1.221-0.229-1.787s-0.379-1.063-0.68-1.488
					s-0.678-0.766-1.131-1.02s-0.98-0.381-1.582-0.381c-0.594,0-1.113,0.127-1.559,0.381s-0.818,0.594-1.119,1.02
					s-0.525,0.922-0.674,1.488s-0.223,1.162-0.223,1.787V183.187z"/>
				<path fill="#323333" d="M505.074,173.636v3.07h2.367v1.676h-2.367v7.863c0,0.328,0.039,0.592,0.117,0.791
					s0.182,0.354,0.311,0.463s0.277,0.182,0.445,0.217s0.342,0.053,0.521,0.053s0.369-0.018,0.568-0.053s0.354-0.064,0.463-0.088
					v1.758c-0.172,0.047-0.395,0.098-0.668,0.152s-0.605,0.082-0.996,0.082c-0.398,0-0.775-0.057-1.131-0.17
					s-0.666-0.303-0.932-0.568s-0.477-0.615-0.633-1.049s-0.234-0.967-0.234-1.6v-7.852h-2.309v-1.676h2.309v-3.07H505.074z"/>
				<path fill="#323333" d="M509.164,182.929c0-0.922,0.135-1.775,0.404-2.561s0.652-1.467,1.148-2.045s1.1-1.031,1.811-1.359
					s1.508-0.492,2.391-0.492c0.898,0,1.705,0.164,2.42,0.492s1.322,0.781,1.822,1.359s0.883,1.26,1.148,2.045
					s0.398,1.639,0.398,2.561v0.258c0,0.922-0.133,1.775-0.398,2.561s-0.648,1.465-1.148,2.039s-1.105,1.023-1.816,1.348
					s-1.512,0.486-2.402,0.486s-1.691-0.162-2.402-0.486s-1.316-0.773-1.816-1.348s-0.885-1.254-1.154-2.039
					s-0.404-1.639-0.404-2.561V182.929z M511.344,183.187c0,0.633,0.074,1.23,0.223,1.793s0.373,1.057,0.674,1.482
					s0.676,0.764,1.125,1.014s0.975,0.375,1.576,0.375c0.594,0,1.117-0.125,1.57-0.375s0.828-0.588,1.125-1.014
					s0.521-0.92,0.674-1.482s0.229-1.16,0.229-1.793v-0.258c0-0.625-0.076-1.221-0.229-1.787s-0.379-1.063-0.68-1.488
					s-0.678-0.766-1.131-1.02s-0.98-0.381-1.582-0.381c-0.594,0-1.113,0.127-1.559,0.381s-0.818,0.594-1.119,1.02
					s-0.525,0.922-0.674,1.488s-0.223,1.162-0.223,1.787V183.187z"/>
				<path fill="#323333" d="M529.707,189.386v-17.063h5.578c0.875,0,1.656,0.088,2.344,0.264s1.271,0.449,1.752,0.82
					s0.848,0.842,1.102,1.412s0.381,1.254,0.381,2.051s-0.227,1.502-0.68,2.115s-1.07,1.088-1.852,1.424
					c0.477,0.133,0.9,0.328,1.271,0.586s0.684,0.563,0.938,0.914s0.447,0.746,0.58,1.184s0.199,0.895,0.199,1.371
					c0,0.797-0.135,1.502-0.404,2.115s-0.65,1.129-1.143,1.547s-1.086,0.732-1.781,0.943s-1.469,0.316-2.32,0.316H529.707z
					 M531.957,179.601h3.398c0.484,0,0.926-0.063,1.324-0.188s0.74-0.305,1.025-0.539s0.506-0.521,0.662-0.861
					s0.234-0.725,0.234-1.154c0-0.938-0.273-1.619-0.82-2.045s-1.379-0.639-2.496-0.639h-3.328V179.601z M531.957,181.406v6.141
					h3.715c0.539,0,1.018-0.072,1.436-0.217s0.771-0.348,1.061-0.609s0.51-0.582,0.662-0.961s0.229-0.803,0.229-1.271
					s-0.063-0.895-0.188-1.277s-0.322-0.707-0.592-0.973s-0.611-0.471-1.025-0.615s-0.906-0.217-1.477-0.217H531.957z"/>
				<path fill="#323333" d="M543.734,182.929c0-0.922,0.135-1.775,0.404-2.561s0.652-1.467,1.148-2.045s1.1-1.031,1.811-1.359
					s1.508-0.492,2.391-0.492c0.898,0,1.705,0.164,2.42,0.492s1.322,0.781,1.822,1.359s0.883,1.26,1.148,2.045
					s0.398,1.639,0.398,2.561v0.258c0,0.922-0.133,1.775-0.398,2.561s-0.648,1.465-1.148,2.039s-1.105,1.023-1.816,1.348
					s-1.512,0.486-2.402,0.486s-1.691-0.162-2.402-0.486s-1.316-0.773-1.816-1.348s-0.885-1.254-1.154-2.039
					s-0.404-1.639-0.404-2.561V182.929z M545.914,183.187c0,0.633,0.074,1.23,0.223,1.793s0.373,1.057,0.674,1.482
					s0.676,0.764,1.125,1.014s0.975,0.375,1.576,0.375c0.594,0,1.117-0.125,1.57-0.375s0.828-0.588,1.125-1.014
					s0.521-0.92,0.674-1.482s0.229-1.16,0.229-1.793v-0.258c0-0.625-0.076-1.221-0.229-1.787s-0.379-1.063-0.68-1.488
					s-0.678-0.766-1.131-1.02s-0.98-0.381-1.582-0.381c-0.594,0-1.113,0.127-1.559,0.381s-0.818,0.594-1.119,1.02
					s-0.525,0.922-0.674,1.488s-0.223,1.162-0.223,1.787V183.187z"/>
				<path fill="#323333" d="M560.352,189.386h-2.168v-18h2.168V189.386z"/>
				<path fill="#323333" d="M563.293,182.941c0-0.969,0.119-1.85,0.357-2.643s0.576-1.473,1.014-2.039s0.963-1.006,1.576-1.318
					s1.299-0.469,2.057-0.469c0.773,0,1.449,0.131,2.027,0.393s1.078,0.639,1.5,1.131v-6.609h2.168v18H572l-0.105-1.359
					c-0.422,0.516-0.93,0.91-1.523,1.184s-1.293,0.41-2.098,0.41c-0.742,0-1.42-0.16-2.033-0.48s-1.139-0.768-1.576-1.342
					s-0.775-1.254-1.014-2.039s-0.357-1.643-0.357-2.572V182.941z M565.461,183.187c0,0.633,0.064,1.229,0.193,1.787
					s0.33,1.045,0.604,1.459s0.621,0.742,1.043,0.984s0.926,0.363,1.512,0.363c0.383,0,0.727-0.045,1.031-0.135
					s0.58-0.217,0.826-0.381s0.465-0.359,0.656-0.586s0.357-0.477,0.498-0.75v-5.824c-0.141-0.258-0.305-0.496-0.492-0.715
					s-0.404-0.408-0.65-0.568s-0.521-0.285-0.826-0.375s-0.645-0.135-1.02-0.135c-0.594,0-1.104,0.123-1.529,0.369
					s-0.775,0.58-1.049,1.002s-0.475,0.912-0.604,1.471s-0.193,1.154-0.193,1.787V183.187z"/>
			</g>
		</g>
	</g>
</g>
</svg>
