<svg width="960" height="148" fill="none" xmlns="http://www.w3.org/2000/svg"><path d="M960 78.053c-341.5-9.5-746-49.5-960-78v78h960z" fill="#E5EFFD"/><path d="M16.3 32.32l-.52.14H1.9v2.34h11.54c-1.32 1.18-3.04 2.46-4.6 3.28v8.86c0 .34-.16.46-.6.46-.44 0-2.08.02-3.5-.04.38.64.84 1.7.96 2.4 1.92.02 3.34-.04 4.34-.4.98-.36 1.3-1 1.3-2.36v-7.72c2.5-1.48 5.04-3.6 6.88-5.56l-1.92-1.4zm13.4 5.5c.38.4.78.96.96 1.36.14-.06.28-.14.42-.2-.24 1.42-.72 2.88-1.38 3.9v-5.06zm-3.08 4.94V41.1h1.14v1.66h-1.14zm-2.7-1.66h1.14v1.66H23.9c.02-.46.02-.9.02-1.32v-.34zm2.1-6.38c-.18.5-.36 1.02-.56 1.46h-1.72c.24-.46.46-.96.68-1.46h1.6zm.6 3.2h1.14v1.5h-1.14v-1.5zm-2.7 0h1.14v1.5h-1.14v-1.5zm15.46 6.4h-3.4v-1.8h3v-2h-3v-1.8h-2.26v1.8h-.98c.12-.42.2-.86.28-1.28l-1.78-.36c2.04-1.12 2.8-2.78 3.14-4.86h2.32c-.08 1.66-.18 2.34-.36 2.56-.14.18-.3.22-.54.22-.28 0-.82-.02-1.44-.08.3.5.5 1.3.54 1.92.8.02 1.58 0 2.02-.06.5-.08.88-.24 1.22-.66.44-.52.6-1.9.7-5.08.02-.26.04-.76.04-.76H30v1.94h2.24c-.28 1.46-.88 2.62-2.54 3.38v-1.22h-2.24c.42-.82.82-1.74 1.1-2.52l-1.36-.84-.3.1h-1.82c.16-.46.3-.94.42-1.42l-2.1-.44c-.54 2.34-1.6 4.68-2.96 6.14.42.28 1.16.88 1.56 1.28v2.96c0 2.24-.1 5.22-1.44 7.28.44.2 1.3.74 1.64 1.06.92-1.44 1.38-3.38 1.58-5.26h3.98v2.88c0 .26-.1.34-.34.34-.24 0-1.02 0-1.82-.04.3.54.62 1.44.68 2.02 1.22 0 2.04-.06 2.66-.4.6-.34.76-.94.76-1.88v-4.22c.5.22 1.22.6 1.56.84.3-.44.56-.96.8-1.54h1.66v1.8h-3.7v2.04h3.7v3.3h2.26v-3.3h3.4v-2.04zm12.02-2.66V39.2h4.22v2.46H51.4zm-6.22 0c.04-.74.06-1.46.06-2.1v-.36H49v2.46h-3.82zm3.82-7v2.32h-3.76v-2.32H49zm6.62 2.32H51.4v-2.32h4.22v2.32zm2.36-4.58h-15.1v7.14c0 2.8-.18 6.36-2.36 8.76.54.28 1.5 1.1 1.88 1.54 1.44-1.56 2.16-3.76 2.52-5.94H49v5.58h2.4V43.9h4.22v3c0 .36-.14.48-.52.48-.36 0-1.68.02-2.8-.04.3.62.68 1.64.76 2.28 1.8.02 3.02-.02 3.84-.42.8-.36 1.08-1 1.08-2.28V32.4zm7.7 9.06c.08-.96.12-1.9.12-2.72v-.2h8.82v2.92h-8.94zm.12-5.12v-1.66c3.72-.36 7.74-.96 10.8-1.8l-1.88-1.8c-2.72.8-7.28 1.48-11.32 1.84v5.8c0 2.92-.24 6.86-2.84 9.5.5.3 1.48 1.16 1.84 1.62 1.66-1.64 2.52-3.92 2.96-6.18h9.26v1h2.44v-8.32H65.8zm17.68-.06h1.12l-.62 1.12c1.14.24 2.66.68 3.46 1l.62-1.3c-.74-.28-2.14-.62-3.24-.82h3.96v3.86h2.32v-3.86h3.5c-.86.32-2.04.72-2.84.86l.74 1.14c1.04-.2 2.5-.54 3.58-.98l-.76-1.02h1.12V39h2.38v-4.48H91.1v-.94h6.7v-1.7H82.12v1.7h6.66v.94h-7.56V39h2.26v-2.72zm7.98 3.26c1.5.24 3.56.74 4.62 1.14l.44-1.5c-1.08-.38-3.12-.8-4.6-.96l-.46 1.32zm7.42 2.98v-1.84H84.1c1.24-.28 2.66-.6 4.08-.94l-.08-1.34c-1.8.26-3.52.52-4.78.68l.58 1.6h-2.76v1.84h7.5c-.06.32-.14.64-.22.96h-5.78v6.2h2.24v-4.34h2.04v4.24h2.16v-4.24h2.1v4.24h2.16v-4.24h2.18v2.2c0 .18-.06.24-.28.24-.2 0-.82 0-1.42-.02.28.54.6 1.34.68 1.94 1.08 0 1.9-.02 2.52-.34.64-.32.8-.84.8-1.8v-4.08h-7.14c.14-.3.26-.62.38-.96h7.82zm17.34-5.58c-.76 1.12-1.96 2.46-3.02 3.54-.84-1.22-1.5-2.52-2.02-3.86v-.24h7.7v-2.3h-2.18l.88-.98c-.86-.64-2.52-1.54-3.7-2.08l-1.42 1.5c.86.44 1.88 1.02 2.7 1.56h-3.98V31.1h-2.44v2.98h-7.52v2.3h7.52v4.82c-2.96 1.7-6.2 3.48-8.12 4.46l1.52 2.16c1.94-1.16 4.32-2.64 6.6-4.12v3.08c0 .38-.14.5-.52.5-.4 0-1.66.02-2.86-.04.36.72.7 1.82.8 2.5 1.78.02 3.08-.06 3.9-.48.84-.4 1.12-1.04 1.12-2.46v-5.48c1.62 2.9 3.76 5.24 6.52 6.68.4-.68 1.18-1.64 1.76-2.14-1.88-.82-3.54-2.1-4.94-3.64 1.22-1.08 2.64-2.52 3.8-3.82l-2.1-1.46zm-9.2 3.8c-.64-1.08-2.12-2.58-3.3-3.62l-1.82 1.26c1.2 1.12 2.6 2.7 3.18 3.8l1.94-1.44zm28.18-.98c-.62 1.6-1.52 2.98-2.66 4.12-1.18-1.16-2.1-2.56-2.76-4.12h5.42zm-7.8-5.56h4c-.26 1.14-.54 2.3-.82 3.3h-3.22c.02-.62.04-1.2.04-1.76V34.2zm9.3 3.2l-.44.1h-3c.38-1.66.8-3.78 1.12-5.62h-12.64v2.32h3.16v1.52c0 3.24-.4 8.28-4.36 11.66.52.46 1.38 1.44 1.72 2.06 3.2-2.78 4.42-6.42 4.88-9.68h.3c.84 2.2 1.88 4.1 3.24 5.66-1.58 1.1-3.44 1.88-5.46 2.36.5.54 1.1 1.54 1.38 2.22 2.22-.66 4.24-1.54 5.94-2.8 1.46 1.16 3.18 2 5.22 2.6.38-.68 1.1-1.72 1.66-2.26-1.88-.44-3.5-1.12-4.9-2.04 1.8-1.86 3.14-4.26 3.92-7.36l-1.74-.74zm16.82 7.5v-1.08h2.6v1.08h-2.6zm-4.74 0v-1.08h2.56v1.08h-2.56zm2.56-3.74v1.02h-2.56v-1.02h2.56zm4.78 1.02h-2.6v-1.02h2.6v1.02zm2.22-2.74h-3.28c-.22-.12-.44-.24-.7-.36 1.32-.74 2.64-1.6 3.7-2.42l-1.34-1.22-.5.12h-8.98v1.64h6.9c-.52.38-1.1.74-1.64 1.04-.88-.36-1.8-.74-2.6-1.02l-1.32 1.26c.76.26 1.58.6 2.38.96h-4.36V49.7h2.18v-3.16h2.56v2.92h2.18v-2.92h2.6v1.16c0 .22-.08.3-.34.3-.22 0-.98 0-1.64-.02.24.48.52 1.16.6 1.7 1.22 0 2.12-.02 2.74-.3.66-.3.86-.7.86-1.68v-8.26zm-5.46-6.66c-.28-.6-.72-1.34-1.14-1.92l-2.3.6c.26.38.52.86.74 1.32h-6.64v4.8c-.28-.94-.78-2.12-1.28-3.08l-1.74.88c.56 1.22 1.14 2.82 1.3 3.82l1.72-.9v.82c0 .5 0 1.04-.02 1.56-1.18.62-2.3 1.16-3.12 1.5l.68 2.2c.72-.42 1.46-.86 2.2-1.32-.32 1.82-.92 3.6-2.24 5 .48.28 1.36 1.14 1.68 1.6 2.62-2.74 3.04-7.36 3.04-10.54v-4.3h13.38v-2.04h-6.26zm10.26 1.46c.28.9.48 2.02.52 2.78l1.06-.32c-.06-.78-.32-1.96-.64-2.88l-.94.28v-.84h1.68v4.34h-1.68v-3.36zm4.84-.1l-.96-.34c-.14.8-.48 1.96-.76 2.76v-3.3h1.72v.88zm-1.72 3.46v-.86l.82.3c.26-.58.58-1.44.9-2.28v2.84h-1.72zm-5.28 7.34c2.42-.1 5.84-.28 9.08-.48l.04-1.84c-1.16.04-2.36.1-3.52.14v-.88h3.2v-1.8h-3.2v-.88h3.24v-7.54h-8.46v7.54h3.12v.88h-3.08v1.8h3.08v.96c-1.34.04-2.56.08-3.56.1l.06 2zm1.04 4.8c.84-.92 1.18-2.44 1.42-3.86l-1.6-.48c-.18 1.32-.64 2.7-1.36 3.54l1.54.8zm1.56-4.22c.22 1.12.38 2.56.34 3.5l1.54-.18c-.02-.96-.18-2.38-.42-3.5l-1.46.18zm2-.08c.38 1.06.72 2.44.82 3.34l1.46-.3c-.12-.92-.48-2.26-.86-3.32l-1.42.28zm1.94-.18c.62 1 1.22 2.32 1.46 3.2l1.5-.62c-.26-.88-.9-2.16-1.54-3.1l-1.42.52zm8.86 1.54h-3.7v-4.18h3.7v4.18zm2.94-9.42v-2.2h-3.86v-4.1h-2.32v9.38h-2.62v9.26h2.16v-.78h3.7v.7h2.28v-9.18h-3.2v-3.08h3.86zm76.48-1.96h12.3v2.76h2.46v-5h-6.94c-.22-.72-.64-1.62-1.04-2.32l-2.4.66c.26.52.5 1.1.7 1.66h-7.42v5h2.34v-2.76zm7.44 8.64h5.48v-2.24h-5.48v-2.36h4.26v-2.28h-11v2.28h4.26v6.78c-1.16-.6-2.08-1.56-2.68-3.2.16-.76.32-1.58.42-2.42l-2.42-.22c-.36 3.4-1.36 6.18-3.52 7.8.54.32 1.56 1.16 1.94 1.58 1.14-.98 2.02-2.28 2.68-3.84 1.82 2.9 4.56 3.52 8.3 3.52h4.98c.12-.72.5-1.86.86-2.42-1.36.04-4.66.04-5.72.04-.84 0-1.62-.04-2.36-.14v-2.88zm24.42.14c-.4.46-.9.9-1.46 1.28a7.6 7.6 0 01-.62-1.28h2.08zm-8.38-1.74v-1.04c1-.14 1.94-.3 2.76-.48l-1.3-1.34h5.92l-1.24 1.3c1 .36 2.14 1 2.92 1.56h-3.3c-.18-.82-.3-1.68-.34-2.6h-2.28c.06.9.16 1.78.32 2.6h-3.46zm8.74 1.74h3v-1.74h-1.96l1.06-1.18c-.72-.56-2.06-1.26-3.16-1.68h3.96v-1.8h-7.74v-.74h5.8v-1.64h-5.8v-.72h6.86v-1.76h-3.46c.32-.4.68-.9 1.04-1.42l-2.64-.5c-.18.56-.54 1.32-.88 1.92h-4.02c-.22-.56-.72-1.34-1.22-1.86l-2.08.66c.28.36.54.78.76 1.2H274v1.76h6.74v.72h-5.68v1.64h5.68v.74h-7.64v1.8h7.34c-1.76.4-4.6.68-7.04.82.2.4.42 1.02.5 1.42.98-.02 2.06-.08 3.12-.18v.8h-3.96v1.74h3.96v.88c-1.52.08-2.92.14-4.02.18l.18 1.82c1.12-.08 2.44-.16 3.84-.28v.8c0 .26-.1.34-.4.34-.3.02-1.4.04-2.26-.02.28.52.56 1.26.68 1.82 1.48 0 2.5-.02 3.28-.3.74-.26.96-.72.96-1.78v-1.02l2.98-.24.02-1.6-3 .16v-.76h3.9c.26.88.6 1.68 1 2.38-1.24.54-2.64.96-4.02 1.26.38.46.94 1.4 1.16 1.88 1.38-.38 2.78-.9 4.06-1.54.96.98 2.1 1.54 3.42 1.54 1.58 0 2.24-.48 2.56-2.72-.54-.16-1.28-.5-1.74-.92-.1 1.12-.22 1.48-.7 1.48-.52 0-1.02-.2-1.5-.58.9-.64 1.72-1.36 2.34-2.18l-1.74-.6zm11.04-10.56v1.08H296v-1.08h3.06zM296 37.46v-1.14h3.06v1.14H296zm5.28 1.8v-7.44h-7.64v17.92H296V39.26h5.28zm2.3 3.34v2.36h-3.3V42.6h3.3zm2.22 4.32v-6.28h-7.74v7.4h2.22v-1.12h5.52zm-.88-9.44v-1.16h3.16v1.16h-3.16zm3.16-3.86v1.1h-3.16v-1.1h3.16zm2.42-1.8h-7.84v7.46h5.42v7.58c0 .36-.14.48-.52.48-.38.02-1.74.04-2.9-.04.34.64.72 1.76.8 2.44 1.84 0 3.1-.06 3.92-.46.84-.38 1.12-1.06 1.12-2.38V31.82zm17.68 5.34h-3.64v-.92h3.64v.92zm0 2.46h-3.64v-.92h3.64v.92zm0 2.48h-3.64v-.96h3.64v.96zm-5.76-7.46v9.08h7.96v-9.08h-3.4l.48-1.08h3.5V31.9h-9.16v1.66h3.52c-.12.36-.22.74-.34 1.08h-2.56zm4.42 9.96c1 .7 2.24 1.88 2.86 2.66l1.7-1c-.62-.76-1.86-1.82-2.92-2.52l-1.64.86zm-2.8-.74c-.7.84-1.9 1.62-3.08 2.16.42.32 1.18 1 1.52 1.38 1.24-.66 2.64-1.8 3.5-2.92l-1.94-.62zm-5.24-9.5h-2.86v-.94h2.86v.94zm0 2.48h-2.86v-.98h2.86v.98zm2.2-5h-7.18v6.6H321v-6.6zm-2.38 12.82h2.88v-1.72h-2.88V41.3h3.26v-1.72h-8.96v1.72h3.7v4.56c-.4-.42-.74-.94-1.02-1.58.06-.72.1-1.44.12-2.18h-1.9c-.06 2.4-.26 4.76-1.38 6.14.48.36 1.08 1.12 1.38 1.62.68-.82 1.12-1.88 1.4-3.08 1.6 2.18 4.08 2.56 7.84 2.56h7.7c.12-.58.44-1.5.76-1.96-1.64.08-7.1.08-8.46.08-1.78 0-3.24-.08-4.44-.44v-2.36zm28.58-4.9c-.62 1.6-1.52 2.98-2.66 4.12-1.18-1.16-2.1-2.56-2.76-4.12h5.42zm-7.8-5.56h4c-.26 1.14-.54 2.3-.82 3.3h-3.22c.02-.62.04-1.2.04-1.76V34.2zm9.3 3.2l-.44.1h-3c.38-1.66.8-3.78 1.12-5.62h-12.64v2.32h3.16v1.52c0 3.24-.4 8.28-4.36 11.66.52.46 1.38 1.44 1.72 2.06 3.2-2.78 4.42-6.42 4.88-9.68h.3c.84 2.2 1.88 4.1 3.24 5.66-1.58 1.1-3.44 1.88-5.46 2.36.5.54 1.1 1.54 1.38 2.22 2.22-.66 4.24-1.54 5.94-2.8 1.46 1.16 3.18 2 5.22 2.6.38-.68 1.1-1.72 1.66-2.26-1.88-.44-3.5-1.12-4.9-2.04 1.8-1.86 3.14-4.26 3.92-7.36l-1.74-.74zm8.56 8.56V43.6h9.26v2.36h-9.26zm9.26-6.96v2.36h-9.26V39h9.26zm0-4.54v2.3h-9.26v-2.3h9.26zm-11.66-2.32v17.38h2.4v-1.24h9.26v1.24h2.52V32.14h-14.18zm30.88 2.44h-1.06v-.9h1.06v.9zm2.84 1.68v1.5h-1.14v-1.5h1.14zm-3.9 0h1.06v1.5h-1.06v-1.5zm-2.76 0H383v1.5h-1.08v-1.5zm1.08-1.68h-3v4.86h10.64v-4.86h-3.2v-.9H391V31.8h-11.38v1.88H383v.9zm6.82 7.36v-1.8h-8.98v1.8h8.98zm-9.84-.5c-.34-.56-1.84-2.9-2.36-3.58v-.88h1.94v-2.2h-1.94v-3.72h-2.16v3.72h-2.5v2.2h2.2c-.54 2.26-1.6 5.04-2.7 6.58.34.62.86 1.72 1.1 2.42.72-1.14 1.36-2.8 1.9-4.6v8.34h2.16v-8.88c.4.8.76 1.64.98 2.22l1.38-1.62zm1.34 3.58c-.54 1.12-1.5 2.3-2.52 3.08.5.3 1.38.9 1.78 1.26 1-.92 2.12-2.36 2.8-3.76l-2.06-.58zm9.72-.42v-1.86h-11.4v1.86h4.54v5.12h2.12V44.6h4.74zm-4 1.32c.9 1 1.94 2.4 2.38 3.3l1.84-1.08c-.52-.86-1.56-2.16-2.5-3.1l-1.72.88zM518.8 44.4c-.36.52-.78.98-1.26 1.4-.9-.5-1.82-.96-2.66-1.4h3.92zm1.42-1.64l-.36.06h-6.5v1.58h.48l-.8.96c.86.46 1.8 1 2.78 1.54-1.04.52-2.26.9-3.56 1.12.38.44.8 1.2 1 1.72 1.66-.38 3.2-.94 4.46-1.72 1.08.64 2.04 1.26 2.72 1.74l1.2-1.58c-.6-.4-1.42-.9-2.32-1.4.96-.94 1.7-2.1 2.2-3.56l-1.3-.46zm1.04-9.6c-.54.64-1.46 1.48-2.22 2.08-.36-.28-.72-.58-1.06-.9.76-.54 1.62-1.26 2.44-1.94l-1.7-1.22c-.48.56-1.22 1.28-1.88 1.84-.46-.56-.84-1.2-1.14-1.88l-1.9.56c.96 2.14 2.3 3.92 4.04 5.3h-3.82v1.42c0 .9-.18 1.86-1.42 2.68v-3.98h-2.62c1.62-1.22 2.96-2.78 3.76-4.74l-1.46-.72-.4.1h-5.22v1.86h3.94c-.34.46-.74.88-1.16 1.28-.58-.44-1.42-.92-2.1-1.26l-1.36 1.26c.6.34 1.32.8 1.86 1.2-1.04.66-2.18 1.2-3.36 1.54.42.42 1 1.22 1.28 1.74.62-.22 1.22-.48 1.82-.78v.32h2.9v1.4h-3.54c-.18 1.58-.5 3.56-.78 4.86h4.2c-.14 1.36-.32 2-.56 2.22-.18.18-.4.2-.72.2-.44 0-1.42-.02-2.42-.1.36.54.64 1.36.68 1.98 1.06.04 2.1.04 2.64-.02.7-.04 1.18-.2 1.6-.66.52-.52.76-1.82.98-4.52.02-.28.04-.82.04-.82h-4.16c.06-.44.12-.92.2-1.38h3.96v-.6c.4.36.98.94 1.2 1.28 1.66-1.06 2.14-2.56 2.2-3.96h1.84v1.16c0 1.62.32 2.3 2 2.3h1.24c.42 0 .88-.02 1.16-.12-.08-.46-.12-1.14-.16-1.62-.26.08-.74.1-1.02.1h-.98c-.26 0-.3-.16-.3-.64v-1.72c.72.38 1.46.7 2.28.96.32-.58.92-1.42 1.42-1.88a14.42 14.42 0 01-2.86-1.12c.74-.52 1.6-1.16 2.36-1.84l-1.72-1.22zm15.06 6.6H540v1.2h-3.68v-1.2zm0-2.9H540v1.16h-3.68v-1.16zm0-2.92H540v1.16h-3.68v-1.16zm-4.2 9.66c.9.84 2.08 2.06 2.64 2.78l1.72-1.44c-.48-.56-1.34-1.4-2.12-2.12h7.92V32.06h-8.12v10.58l-.4-.36-1.64 1.32zm-3.82-.54h2.26v-4.18c.72.66 1.46 1.38 1.92 1.88l1.24-1.9c-.46-.38-2.36-1.74-3.16-2.2v-.74h2.82V33.9h-2.82v-2.82h-2.26v2.82h-3.28v2.02h2.9c-.78 1.74-2.08 3.48-3.4 4.46.48.38 1.18 1.12 1.52 1.64.82-.72 1.58-1.72 2.26-2.9v3.94zm-1.46 5.58c.7-1.16 1.28-2.94 1.68-4.36l-2.12-.84c-.34 1.42-1.02 3.06-1.74 4.12l2.18 1.08zm6.04-1.4c-1.08 0-1.28-.08-1.28-.68v-2.7h-2.34v2.74c0 2.08.68 2.74 3.4 2.74h3.6c2.2 0 2.86-.7 3.16-3.56-.66-.12-1.66-.46-2.14-.84-.12 2.02-.26 2.3-1.2 2.3h-3.2zm5.98-3.1c.78 1.34 1.88 3.1 2.36 4.16l2.22-1.14c-.54-1.04-1.7-2.74-2.5-3.98l-2.08.96zm14.84-6.32c.38.4.78.96.96 1.36.14-.06.28-.14.42-.2-.24 1.42-.72 2.88-1.38 3.9v-5.06zm-3.08 4.94V41.1h1.14v1.66h-1.14zm-2.7-1.66h1.14v1.66h-1.16c.02-.46.02-.9.02-1.32v-.34zm2.1-6.38c-.18.5-.36 1.02-.56 1.46h-1.72c.24-.46.46-.96.68-1.46h1.6zm.6 3.2h1.14v1.5h-1.14v-1.5zm-2.7 0h1.14v1.5h-1.14v-1.5zm15.46 6.4h-3.4v-1.8h3v-2h-3v-1.8h-2.26v1.8h-.98c.12-.42.2-.86.28-1.28l-1.78-.36c2.04-1.12 2.8-2.78 3.14-4.86h2.32c-.08 1.66-.18 2.34-.36 2.56-.14.18-.3.22-.54.22-.28 0-.82-.02-1.44-.08.3.5.5 1.3.54 1.92.8.02 1.58 0 2.02-.06.5-.08.88-.24 1.22-.66.44-.52.6-1.9.7-5.08.02-.26.04-.76.04-.76H554v1.94h2.24c-.28 1.46-.88 2.62-2.54 3.38v-1.22h-2.24c.42-.82.82-1.74 1.1-2.52l-1.36-.84-.3.1h-1.82c.16-.46.3-.94.42-1.42l-2.1-.44c-.54 2.34-1.6 4.68-2.96 6.14.42.28 1.16.88 1.56 1.28v2.96c0 2.24-.1 5.22-1.44 7.28.44.2 1.3.74 1.64 1.06.92-1.44 1.38-3.38 1.58-5.26h3.98v2.88c0 .26-.1.34-.34.34-.24 0-1.02 0-1.82-.04.3.54.62 1.44.68 2.02 1.22 0 2.04-.06 2.66-.4.6-.34.76-.94.76-1.88v-4.22c.5.22 1.22.6 1.56.84.3-.44.56-.96.8-1.54h1.66v1.8h-3.7v2.04h3.7v3.3h2.26v-3.3h3.4v-2.04zm7.64-11.02c-.84-.7-2.54-1.56-3.8-2.04l-1.32 1.78c1.32.54 2.96 1.5 3.74 2.2l1.38-1.94zm-1.22 5.42c-.86-.68-2.54-1.5-3.84-1.98l-1.22 1.8c1.28.54 2.96 1.46 3.72 2.16l1.34-1.98zm-.58 2.88c-1.2 2.32-2.72 4.8-3.78 6.3l2.02 1.6c1.18-1.94 2.44-4.22 3.52-6.28l-1.76-1.62zm7.98-5.24h2.3v3.62h-2.36c.04-.68.06-1.34.06-2v-1.62zm6.12 5.86v-2.24h-1.5v-5.86h-4.62v-3.04h-2.38v3.04h-3.5v2.24h3.5v1.62c0 .68-.02 1.34-.06 2h-4.44v2.24h4.08c-.58 2.22-1.9 4.26-4.9 5.84.6.36 1.54 1.18 1.98 1.7 3.48-1.96 4.86-4.66 5.4-7.54h6.44zm-5.96 1.06c1.34 2.04 3.16 4.82 3.98 6.46l2.12-1.22c-.88-1.6-2.8-4.3-4.14-6.24l-1.96 1zm25.58-6.68v-2.34h-8.2l1.38-.6c-.3-.76-.9-1.96-1.44-2.86l-2.34.88c.4.8.88 1.8 1.2 2.58h-8.44v2.34h5.04c-.2 4.22-.58 8.72-5.38 11.26.64.5 1.38 1.32 1.74 1.98 3.6-2.08 5.08-5.2 5.76-8.54h6.3c-.28 3.58-.64 5.3-1.16 5.74-.28.22-.54.26-.98.26-.6 0-2-.02-3.36-.16.46.66.8 1.66.84 2.34 1.36.06 2.68.08 3.46 0 .9-.1 1.54-.28 2.14-.94.82-.86 1.24-3.08 1.6-8.5.06-.32.08-1.04.08-1.04h-8.58c.1-.8.14-1.6.2-2.4h10.14zm13 1.36c-.44.44-.96.8-1.54 1.12-1.06-.22-2.18-.44-3.28-.62.18-.16.34-.32.5-.5h4.32zm6.96 3.32c-1.5-.52-3.46-1.08-5.62-1.6.56-.46 1.08-1.04 1.52-1.72h4.08V36.1h-3.14c.1-.24.2-.5.28-.76l-2.32-.46c-.14.42-.3.84-.48 1.22h-3.86c.38-.44.7-.88 1.02-1.3l-1.44-.44h7.34v1.1h2.3V32.4h-7.14c-.24-.46-.52-.96-.78-1.34l-2.52.5c.14.26.28.54.42.84h-7.1v3.06h2.2v-1.1H612c-.36.56-.78 1.14-1.26 1.74h-5.62v1.86h3.98c-.56.62-1.14 1.18-1.66 1.64 1.18.18 2.3.38 3.42.6-1.64.28-3.58.44-5.88.5.34.5.64 1.24.82 1.96 3.94-.22 6.92-.64 9.16-1.56 2.28.56 4.26 1.14 5.68 1.72l2.26-1.54zm.2 2.02h-7.96v-1.38h-2.38v1.38h-7.8v1.96h4.36c-.92 1.04-2.7 2-4.4 2.56.56.38 1.54 1.12 2 1.58 1.7-.76 3.66-2 4.82-3.36l-2.34-.78h3.36v4.48h2.38v-4.48h2.3l-1.36 1.14c1.74.9 3.98 2.28 5.04 3.24l1.86-1.66c-1.04-.84-2.94-1.94-4.5-2.72h4.62V43.3zm148.6-5.86c-.48 1.62-1.14 3.1-1.92 4.44-.34-1.6-.62-3.48-.8-5.48h6.18v-2.36h-2.08l.96-1.02c-.7-.66-2.16-1.58-3.26-2.14l-1.44 1.42c.82.5 1.82 1.14 2.56 1.74h-3.06c-.04-.98-.06-1.96-.04-2.96h-2.5c0 1 .04 1.98.08 2.96h-8.16v5.84c0 2.6-.14 6.08-1.66 8.48.54.28 1.6 1.16 2.02 1.62 1.64-2.44 2.06-6.34 2.14-9.26h2.6c-.06 2.52-.14 3.48-.34 3.76-.16.2-.32.24-.6.24-.32 0-1-.02-1.72-.08.36.6.62 1.52.66 2.22.92.02 1.78.02 2.3-.06.6-.1 1-.28 1.38-.8.46-.58.58-2.36.64-6.56 0-.28.02-.9.02-.9h-4.94V36.4h5.8c.26 3 .7 5.8 1.38 8.06a15.28 15.28 0 01-4.08 3.24c.5.46 1.36 1.44 1.72 1.96 1.24-.76 2.36-1.66 3.38-2.72.88 1.64 1.98 2.64 3.38 2.64 1.86 0 2.66-.88 3.04-4.58-.64-.26-1.48-.78-2.02-1.34-.1 2.5-.34 3.5-.82 3.5-.64 0-1.28-.84-1.86-2.28 1.44-1.94 2.62-4.26 3.44-6.86l-2.38-.58zm9.86.92v-1.28h3.22v1.28h-3.22zm0-4.4h3.22v1.28h-3.22v-1.28zm8.92 1.28h-3.18v-1.28h3.18v1.28zm0 3.12h-3.18v-1.28h3.18v1.28zm4.46 5.34v-2.18h-7.64v-1.18h5.8v-8.36h-14.04v8.36h5.72v1.18h-7.66v2.18h5.92c-1.68 1.5-4.16 2.82-6.54 3.52.54.5 1.26 1.42 1.62 1.98 2.38-.88 4.82-2.44 6.66-4.28v4.82h2.52v-4.92c1.86 1.82 4.3 3.38 6.62 4.26.34-.6 1.06-1.54 1.6-2.02-2.28-.66-4.72-1.94-6.48-3.36h5.9zm2.88 4.68c.34-1.12.6-3.02.72-4.34l-1.18-.42c-.14 1.32-.44 3.16-.82 4.32l1.28.44zm.94-4.34c.08 1.16.14 2.68.1 3.68l1.04-.12c0-1-.06-2.5-.16-3.64l-.98.08zm1.18-.14c.24 1.02.48 2.38.54 3.26l1-.2c-.08-.86-.34-2.18-.58-3.22l-.96.16zm-.54-4.14h1.24v1.26h-1.24v-1.26zm1.24-6v1.32h-1.24v-1.32h1.24zm0 4.26h-1.24v-1.18h1.24v1.18zm7.26-2.56c.7-.56 1.36-1.16 1.92-1.8.68.62 1.44 1.22 2.22 1.8h-4.14zm-1.4 8.12c-.36 1.9-1.12 3.64-2.3 4.76.24-.92.34-2.84.44-6.56.02-.24.02-.76.02-.76h-2.22v-1.26h1.78v-1.74h-1.78v-1.18h1.72v-1.1c.44.36 1.04 1 1.32 1.38.46-.28.92-.56 1.38-.86v1h5.88v-1.32c.62.42 1.24.78 1.86 1.1.14-.6.54-1.64.88-2.18-1.54-.58-3.28-1.64-4.48-2.7.14-.2.28-.4.4-.62l-2.12-.74c-1.06 1.74-3 3.56-5.12 4.74v-.46h-1.72v-1.32h2.04v-1.94h-6.92v11.14h5.22c-.04.96-.06 1.76-.1 2.4-.18-.62-.44-1.36-.7-1.94l-.84.28c.32.8.66 1.88.8 2.58l.7-.26c-.08 1.04-.16 1.52-.28 1.72-.14.2-.28.22-.5.22-.2 0-.62 0-1.12-.06.24.48.44 1.22.46 1.76.64.02 1.26 0 1.66-.08.46-.06.8-.22 1.1-.66.08-.1.14-.24.2-.44.46.34 1.2.94 1.5 1.28.66-.68 1.24-1.54 1.72-2.54.56.42 1.1.9 1.42 1.24l1.16-1.54c-.4-.44-1.16-1.02-1.88-1.46.16-.5.3-1.02.42-1.54l-2-.34zm5.14-3.78h1.26v1.88h-1.26V39.8zm-1.54 3.38h4.44v-4.86h-4.44v4.86zm-3.38-3.38h1.1v1.88h-1.1V39.8zm-1.54 3.38h4.28v-4.86h-4.28v4.86zm6.2.3c-.3 2-.98 3.82-2.14 4.96.5.3 1.38.96 1.72 1.32.44-.48.84-1.08 1.18-1.72.68.52 1.36 1.08 1.74 1.5l1.38-1.62c-.52-.5-1.48-1.2-2.32-1.76.24-.74.42-1.52.56-2.32l-2.12-.36zm20.4-6.46c-.32 2.04-.82 3.82-1.56 5.34-.8-1.44-1.44-3.08-1.9-4.8.06-.18.14-.36.2-.54h3.26zm3.56 0v-2.26h-6.1c.28-1.06.5-2.18.7-3.3l-2.42-.4c-.48 3.22-1.4 6.26-2.96 8.2v-7.88h-2.36v10.96l-2.12.64v-9.76h-2.34v9.64c0 .82-.36 1.2-.74 1.42.36.52.76 1.6.92 2.18.44-.36 1.1-.72 4.28-1.84v5.16h2.36V39.74c.5.52 1.18 1.4 1.44 1.86.36-.44.72-.92 1.04-1.44.5 1.6 1.14 3.06 1.9 4.36-1.08 1.42-2.42 2.52-4.16 3.36.48.44 1.26 1.44 1.54 1.94 1.58-.88 2.9-1.96 3.96-3.28 1.02 1.28 2.2 2.34 3.58 3.14.36-.64 1.1-1.54 1.62-1.96-1.5-.76-2.76-1.84-3.82-3.18 1.18-2.06 1.96-4.56 2.48-7.52h1.2zm15.92-3.94h-2.06v11.56h2.06V33.08zm-9.38 0c-.68-.6-2.08-1.4-3.16-1.86l-1.34 1.76c1.1.5 2.46 1.38 3.1 2.02l1.4-1.92zm-.76 5.2c-.68-.62-2.1-1.32-3.2-1.74l-1.3 1.74c1.1.5 2.46 1.3 3.12 1.92l1.38-1.92zm-1.58 3.6c-.78 2.34-1.84 4.88-2.58 6.42l2.14 1.22c.82-1.96 1.7-4.26 2.36-6.4l-1.92-1.24zm3.18 3.16c-.54 1.3-1.46 2.64-2.4 3.54.52.28 1.42.86 1.86 1.22.96-1 2.04-2.64 2.7-4.16l-2.16-.6zm2.8.84c.74 1 1.64 2.34 2.02 3.18l1.88-1.12c-.42-.84-1.36-2.14-2.1-3.06l-1.8 1zm.6-10.3h-1.96V33.9h1.96v1.68zm0 3.6h-1.96v-1.7h1.96v1.7zm0 3.64h-1.96V41.1h1.96v1.72zm2.08-10.98h-6.04v13.04h6.04V31.84zm4.3-.76v15.98c0 .3-.1.4-.44.42-.32 0-1.28 0-2.3-.04.3.66.6 1.66.68 2.28 1.56 0 2.6-.08 3.3-.46.7-.36.92-.98.92-2.2V31.08h-2.16zm10.98 3.28h-3l1.32-.72c-.3-.74-.92-1.84-1.44-2.66l-1.84.86c.42.76.94 1.76 1.26 2.52h-2.98v1.88h6.68v-1.88zm-.3 4.58v-1.8h-5.52v1.8h5.52zm0 .88h-5.52v1.8h5.52v-1.8zm-1.94 4.66v2.24h-1.58v-2.24h1.58zm2.02-1.9h-5.58v6.9h1.98v-.84h3.6v-6.06zm4.4-1.3h1.7v-2.1h-5.52v2.1h1.64v4.32c-.78.12-1.48.26-2.1.36l.58 2.32c1.76-.44 4-.98 6.1-1.54l-.2-2.06c-.74.16-1.48.32-2.2.48v-3.88zm7.7-4.38v-2.2h-1.64l1.48-.96c-.32-.66-1.02-1.66-1.66-2.36l-1.6.94c.58.74 1.22 1.7 1.54 2.38h-1.64c0-1.18 0-2.42.04-3.62h-2.32c0 1.2 0 2.42.02 3.62h-5.62v2.2h5.68c.18 6.84.88 12.82 3.4 12.82 1.56 0 2.16-.86 2.44-3.98-.52-.26-1.22-.8-1.7-1.32-.04 2.02-.18 3-.4 3-.74 0-1.34-4.76-1.5-10.52h3.48z" fill="#1C1C1E"/><path d="M960 78l-10-5.773v11.546L960 78zM0 79h951v-2H0v2z" fill="#2F80ED"/><circle cx="6" cy="78" r="6" fill="#2F80ED"/><circle cx="257" cy="78" r="6" fill="#2F80ED"/><circle cx="508" cy="78" r="6" fill="#2F80ED"/><circle cx="759" cy="78" r="6" fill="#2F80ED"/><path d="M8.816 114.152c0 .144-.032.208-.208.208-.16.016-.64.016-1.2-.016.128.24.256.56.304.816.768 0 1.328 0 1.68-.144.352-.16.448-.368.448-.864v-4.208h-.432v-.016H7.312v-1.712h2.64v-1.008h-2.64v-1.488h-1.04v5.168h2.544v3.264zm-2.032-2.576c-.144.976-.384 1.936-.88 2.64.24.112.656.368.832.512.48-.768.816-1.872.976-2.992l-.928-.16zm-1.328 5.168c-1.008.88-2.928 1.936-4.448 2.56.224.256.544.656.704.896 1.552-.672 3.456-1.744 4.768-2.736l-1.024-.72zm4.08.768c1.664.816 3.44 1.872 4.528 2.64l.784-.896c-1.136-.768-2.96-1.76-4.656-2.56l-.656.816zm4.144-2.128c.144-2.368.224-6.16.24-8.96h-3.392v1.04h2.304c0 .64-.016 1.312-.032 2h-2.128v1.024h2.112c-.032.672-.048 1.328-.08 1.968h-2.112v1.008h2.08c-.032.688-.08 1.36-.112 1.92H3.488l-.064-1.968h2.064v-1.024H3.376l-.064-1.952h2.112v-1.024H3.28l-.064-1.872c.816-.256 1.696-.56 2.432-.864l-.576-.976c-.768.4-1.968.88-2.96 1.232l.304 8.448H.8v1.104h14.416v-1.104H13.68zm8.05-4.288c1.36-.304 2.88-.672 4.32-1.136 1.297.4 2.465.784 3.393 1.136H21.73zm7.057-3.04c-.72.384-1.648.736-2.672 1.072-1.36-.4-2.768-.768-4.016-1.072h6.688zm3.36 4.032v-.992h-2.32l.64-.592c-.8-.288-1.888-.64-3.056-.992.912-.32 1.744-.688 2.448-1.072l-.64-.384h2.432v-.976h-5.36c-.304-.496-.8-1.136-1.216-1.616l-.848.432c.288.352.592.784.864 1.184h-5.904v.976h2.56l-.704.576c1.136.256 2.384.576 3.6.928a51.127 51.127 0 01-4.096.944c.16.144.416.384.576.592h-2.016v3.36c0 1.6-.16 3.664-1.456 5.152.256.144.72.544.896.768 1.44-1.648 1.712-4.096 1.712-5.904v-2.384h11.888zm-5.2 6.624v-1.616h3.952v-.96h-3.952v-1.424h4.304v-.976h-4.304v-1.36h-1.168v1.36h-2.8c.16-.368.304-.72.448-1.088l-1.024-.288c-.464 1.28-1.232 2.512-2.112 3.344.208.208.512.768.624.976.544-.512 1.072-1.2 1.52-1.968h3.344v1.424H22.05v.96h3.728v1.616h-5.232v.992h11.856v-.992h-5.456zm18.435-8.256H39.03v-3.024h6.352v3.024zm1.2-4.16h-8.704v5.296h8.704v-5.296zm-6.544 8.128v3.792h-3.344v-3.792h3.344zm-4.48 5.808h1.136v-.864h3.344v.72h1.168v-6.816h-5.648v6.96zm8.544-2.016v-3.792h3.632v3.792h-3.632zm-1.152-4.944v6.96h1.152v-.864h3.632v.752h1.168v-6.848H42.95zm23.379-6.864h-8.432v1.088h8.432v-1.088zm-.096 7.232c-.384-.72-1.168-1.824-1.92-2.72.528-.8 1.184-1.808 1.648-2.624l-1.056-.288c-.368.752-1.12 1.968-1.792 2.944.912 1.072 1.76 2.32 2.16 3.152l.96-.464zm-4.064-5.616c-.368.752-1.088 1.952-1.728 2.912.864 1.072 1.648 2.304 2 3.136l.976-.448c-.368-.704-1.104-1.808-1.808-2.72.544-.784 1.152-1.808 1.6-2.608l-1.04-.272zm-1.52 5.664c-.352-.72-1.056-1.84-1.76-2.768a34.66 34.66 0 001.568-2.64l-1.04-.272a30.446 30.446 0 01-1.68 2.944c.816 1.088 1.568 2.32 1.904 3.152l1.008-.416zm-2.928 1.232c-.16-.832-.608-2.24-1.04-3.28l-.912.24c.192.496.368 1.04.544 1.568l-2.512.336c1.28-1.472 2.528-3.328 3.552-5.152l-1.024-.608a24.68 24.68 0 01-1.152 2.128l-1.648.128c.864-1.2 1.728-2.736 2.432-4.256l-1.056-.432c-.656 1.728-1.776 3.568-2.112 4.032-.336.496-.608.816-.88.88.128.304.304.816.368 1.056.224-.112.56-.176 2.208-.368-.576.848-1.072 1.52-1.312 1.808-.464.576-.832.976-1.184 1.056.144.288.32.864.384 1.104.32-.16.8-.272 4.192-.784.08.32.144.624.176.848l.976-.304zm-5.04.928c-.16 1.312-.4 2.736-.768 3.728.24.096.736.256.944.368.352-1.008.656-2.544.816-3.92l-.992-.176zm1.632.128c.192 1.072.368 2.464.4 3.36l.96-.16c-.048-.928-.24-2.304-.448-3.36l-.912.16zm1.552-.304c.304.848.64 1.968.784 2.704l.88-.304c-.128-.72-.496-1.824-.816-2.672l-.848.272zm6.736 3.088v-3.04h3.232v-1.072h-7.584v1.072h3.184v3.04h-4.064v1.088h9.104v-1.088H62.6zm11.41-2.976l-1.743.576v-3.952h1.616v-1.12h-1.616v-3.472h1.84v-1.12h-4.96v1.12h1.984v3.472h-1.824v1.12h1.824v4.304c-.816.272-1.552.496-2.144.672l.272 1.2c1.424-.464 3.248-1.088 4.96-1.664l-.208-1.136zm1.969-5.408h2.432v2.048H75.98v-2.048zm0-2.992h2.432v2.016H75.98v-2.016zm5.904 2.016h-2.448v-2.016h2.448v2.016zm0 3.024h-2.448v-2.048h2.448v2.048zm-2.352 6.192v-2.192h3.728v-1.088h-3.728v-1.872h3.488v-7.12h-8.128v7.12h3.44v1.872H74.7v1.088h3.632v2.192h-4.864v1.088h10.304v-1.088h-4.24zm10.675-11.008c-.256-.56-.768-1.392-1.232-2.048l-.928.464c.448.656.96 1.552 1.184 2.128l.976-.544zm.464 8.016v2.64h-2.705v-2.64h2.705zm1.055-.992h-4.8v5.376h1.04v-.752h3.76v-4.624zm-4.784-1.184h4.785v-.944h-4.785v.944zm0-2.08h4.785v-.944h-4.785v.944zm-.671-2.064h6.047v-.976h-6.047v.976zm14.4-.016h-1.953v-3.616H97.55v3.616h-5.12v1.168h5.12v8.16c0 .32-.111.4-.415.416-.288.016-1.264.016-2.353-.032.16.352.353.896.416 1.232 1.457 0 2.32-.032 2.817-.256.495-.176.704-.544.704-1.36v-8.16h1.952v-1.168zm-4.529 6.4c-.32-1.008-1.087-2.528-1.903-3.68l-.993.4c.785 1.168 1.553 2.736 1.809 3.76l1.087-.48zm10.627-8.08a16.52 16.52 0 00-1.232-2.048l-.928.464c.464.656.96 1.552 1.184 2.128l.976-.544zm1.328.72h-4.832v.976h4.832v-.976zm-.416 4.176h-3.872v.944h3.872v-.944zm-.88 3.12v2.64h-2.08v-2.64h2.08zm.992-.992h-4.064v5.376h.992v-.752h3.072v-4.624zm6.688.944v-2.144h1.488v2.144h-1.488zm-2.32 0v-2.144h1.44v2.144h-1.44zm-2.304 0v-2.144h1.424v2.144h-1.424zm7.12-3.152h-8.112v7.872h.992v-3.712h1.424v3.296h.88v-3.296h1.44v3.296h.88v-3.296h1.488v2.4c0 .128-.032.176-.16.176-.112 0-.464 0-.88-.016.128.304.256.72.288 1.008.624 0 1.072 0 1.376-.192.304-.176.384-.464.384-.976v-6.56zm-13.184-2v.944h3.888v-.944h-3.888zm6.736-.4a16.648 16.648 0 002.288-2.464 11.74 11.74 0 002.256 2.464h-4.544zm2.272-4.464c-1.04 1.936-3.168 3.968-5.136 4.912.272.272.56.768.72 1.104.592-.32 1.184-.752 1.76-1.232v.72h5.456v-.624a8.534 8.534 0 001.536.928 5.67 5.67 0 01.848-1.088c-1.728-.656-3.536-2.144-4.544-3.616l.288-.48-.928-.624zm15.587 11.28h2.384v1.68h-2.384v-1.68zm2.384-3.552h-2.384v-1.616h2.384v1.616zm0 2.624h-2.384v-1.696h2.384v1.696zm-6.32 1.184h-1.776v-4.672h1.776v4.672zm10.4 1.424h-2.976v-1.68h2.288v-.928h-2.288v-1.696h2.288v-.928h-2.288v-1.616h2.496v-1.008h-2.192c-.192-.544-.576-1.28-.896-1.872l-.992.4c.224.448.48.992.688 1.472h-2.08c.512-.736.96-1.536 1.36-2.4h3.168v1.68h1.072v-2.704h-3.824c.192-.448.352-.944.496-1.424l-1.12-.224c-.16.56-.352 1.12-.56 1.648H126.1v2.736h1.04v-1.712h1.872c-.864 1.744-2.048 3.216-3.52 4.24v-1.12h-2.736c.336-1.104.592-2.32.8-3.552h2.208v-1.088h-5.248v1.088h1.888c-.416 2.64-1.12 5.088-2.272 6.72.224.24.56.784.688 1.024.304-.4.576-.88.832-1.36v5.232h1.024v-1.296h2.816v-5.568c.24.24.56.688.688.928.368-.288.752-.592 1.088-.912v7.632h1.12v-.688h6.464v-1.024zm15.411-11.248c-.128 3.232-.288 4.48-.544 4.768-.144.16-.272.192-.528.192s-.928-.016-1.664-.08c.192.304.304.736.336 1.056.704.032 1.408.032 1.808 0 .432-.032.736-.144 1.008-.464.384-.496.56-1.936.736-5.984 0-.16.016-.512.016-.512h-7.792v1.024h3.296c-.08.784-.192 1.52-.4 2.208a61.362 61.362 0 00-2.112-1.744l-.624.672c.752.624 1.728 1.472 2.32 2.08-.528 1.072-1.392 1.92-2.816 2.528.24.176.56.576.688.848 2.944-1.328 3.744-3.712 4.032-6.592h2.24zm-3.968 6.608c.656.736 1.376 1.744 1.712 2.368l.784-.544c-.352-.608-1.088-1.584-1.76-2.288l-.736.464zm-5.184-6.128a13.662 13.662 0 00-1.056-2.112l-1.008.352c.384.688.816 1.6.992 2.176l1.072-.416zm1.936.512h-5.632v.992h5.632v-.992zm-.384 2.16h-4.832v.944h4.832v-.944zm-4.832 3.072h4.832v-.96h-4.832v.96zm3.728 2.176v2.672h-2.72v-2.672h2.72zm1.024-.976h-4.752v5.36h1.008v-.736h3.744v-4.624zm.896 3.984c.544-.88.896-2.336 1.104-3.488l-.848-.256c-.192 1.088-.576 2.496-1.12 3.36l.864.384zm3.216.24c-.544 0-.656-.08-.656-.464v-3.888h-1.04v3.888c0 1.104.32 1.424 1.584 1.424h2.08c1.104 0 1.392-.512 1.504-2.688-.288-.064-.72-.224-.944-.4-.048 1.856-.144 2.128-.672 2.128h-1.856zm3.2-4.336c.56 1.072 1.12 2.496 1.344 3.36l.912-.352c-.224-.848-.832-2.24-1.408-3.296l-.848.288zm12.595-.368v-2.656h4.304v2.656h-4.304zm-5.072 0c.048-.592.064-1.184.064-1.712v-.944h3.824v2.656h-3.888zm3.888-6.336v2.56h-3.824v-2.56h3.824zm5.488 2.56h-4.304v-2.56h4.304v2.56zm1.168-3.696h-11.648v5.76c0 2.224-.16 5.04-1.92 7.024.256.144.736.544.912.784 1.216-1.36 1.76-3.184 2-4.96h4v4.72h1.184v-4.72h4.304v3.248c0 .304-.112.4-.432.416-.288 0-1.376.016-2.496-.032.16.32.352.832.4 1.152 1.504.016 2.432 0 2.976-.192.512-.208.72-.56.72-1.328v-11.872zm6.931 7.296c.064-.672.08-1.296.08-1.888v-1.296h8.112v3.184h-8.192zm.08-4.288v-1.568c3.088-.384 6.496-.928 8.816-1.632l-.976-.896c-2.064.672-5.808 1.296-9.024 1.648v4.848c0 2.272-.208 5.248-2.24 7.312.272.144.72.576.912.8 1.392-1.392 2.016-3.28 2.304-5.104h8.32v.848h1.184v-6.256h-9.296zm17.491-4.176c-.928 2.416-2.48 4.8-4.096 6.32.224.272.56.88.672 1.152.592-.592 1.2-1.296 1.76-2.08v9.328h1.136v-11.04a25.712 25.712 0 001.648-3.328l-1.12-.352zm2.256 7.84v-2.368h2.848v1.648c0 .24 0 .48-.016.72h-2.832zm6.96-2.368v2.368h-2.96c.016-.24.016-.48.016-.72v-1.648h2.944zm1.136 3.376v-4.384h-4.08v-1.568h4.608v-1.088h-4.608v-1.712h-1.168v1.712h-4.416v1.088h4.416v1.568h-3.952v4.384h3.872c-.112.88-.352 1.712-.864 2.464-.848-.592-1.536-1.296-2.016-2.128l-.992.32a8.82 8.82 0 002.32 2.608c-.736.656-1.808 1.216-3.376 1.616.256.224.592.72.72.976 1.664-.496 2.816-1.168 3.616-1.952 1.632.976 3.632 1.6 5.888 1.936.16-.352.448-.816.704-1.072-2.272-.272-4.288-.816-5.888-1.696.64-.928.928-1.968 1.056-3.072h4.16zM8.672 138.216v-2.656h4.304v2.656H8.672zm-5.072 0c.048-.592.064-1.184.064-1.712v-.944h3.824v2.656H3.6zm3.888-6.336v2.56H3.664v-2.56h3.824zm5.488 2.56H8.672v-2.56h4.304v2.56zm1.168-3.696H2.496v5.76c0 2.224-.16 5.04-1.92 7.024.256.144.736.544.912.784 1.216-1.36 1.76-3.184 2-4.96h4v4.72h1.184v-4.72h4.304v3.248c0 .304-.112.4-.432.416-.288 0-1.376.016-2.496-.032.16.32.352.832.4 1.152 1.504.016 2.432 0 2.976-.192.512-.208.72-.56.72-1.328v-11.872zm3.36 6.352c.384-1.184.672-3.008.752-4.272l-.944-.144c-.112 1.264-.4 3.024-.784 4.08l.976.336zm1.44 7.104h1.104v-14.592h-1.104V144.2zm1.216-11.936c.368.784.8 1.824.976 2.464l.848-.464c-.176-.592-.624-1.6-1.008-2.352l-.816.352zm3.488 8.576a16.4 16.4 0 00.048-1.216h5.424v1.216h-5.472zm5.472-3.344v1.232h-5.424v-1.232h5.424zm1.136-.896h-7.68v2.928c0 1.248-.096 2.864-.976 4.064.24.128.688.576.864.816.592-.768.896-1.728 1.056-2.688h5.6v1.2c0 .192-.064.256-.288.272-.208.016-.976.016-1.776-.016.144.288.288.72.336 1.024 1.136 0 1.84 0 2.304-.192.432-.16.56-.464.56-1.072V136.6zm-3.36-1.824v-1.12h3.44v-.864h-3.44v-1.008h3.856v-.912h-3.856v-1.248h-1.168v1.248h-3.792v.912h3.792v1.008h-3.36v.864h3.36v1.12H21.52v.912h9.728v-.912h-4.352zm19.456-3.984h-3.328c-.144-.4-.352-.88-.544-1.264l-1.104.208c.144.336.32.704.448 1.056h-3.456v1.008h7.984v-1.008zm.416 2.896h-2.432c.208-.432.464-.944.704-1.456l-1.104-.24c-.144.48-.432 1.184-.672 1.696h-2.656l.592-.16c-.096-.416-.368-1.088-.576-1.584l-.976.208c.208.48.416 1.104.496 1.536h-2.256v1.024h8.88v-1.024zm-9.328 5.488l-1.68.624v-5.184h1.552v-1.12H35.76V129.8h-1.152v3.696h-1.76v1.12h1.76v5.6c-.752.272-1.44.512-2 .688l.384 1.2a208.809 208.809 0 004.672-1.84l-.224-1.088zm2.32-.992h5.024v1.072H39.76v-1.072zm0-1.824h5.024v1.04H39.76v-1.04zm4.8 6.72c-.192 0-.336-.016-.432-.08-.128-.048-.144-.208-.144-.448v-2.48h1.936v-4.528h-7.264v4.528h1.664c-.208 1.856-.896 2.752-3.488 3.28.208.208.512.656.624.928 2.912-.688 3.728-1.904 3.984-4.208h1.424v2.368c0 .848.112 1.104.4 1.296.24.192.72.272 1.088.272h1.072c.304 0 .736-.048.976-.128.288-.08.464-.256.592-.496.096-.272.16-.928.192-1.552a2.916 2.916 0 01-.96-.512c-.016.64-.032 1.136-.064 1.36-.048.176-.16.304-.288.336-.08.048-.32.064-.544.064h-.768zm16.432-7.04c-.624 1.808-1.632 3.264-2.928 4.384a11.19 11.19 0 01-2.976-4.384h5.904zm-7.488-4.512h4.304a57.883 57.883 0 01-.864 3.392H53.44c.048-.688.064-1.344.064-1.952v-1.44zm8.224 3.328l-.224.064h-3.28c.352-1.296.768-3.088 1.088-4.56h-9.808v1.168h2.8v1.44c0 2.832-.272 6.816-3.664 9.968.256.224.688.688.864 1.008 2.592-2.448 3.52-5.312 3.84-7.904h.592c.736 2.032 1.776 3.776 3.168 5.136-1.424 1.008-3.072 1.68-4.8 2.08.24.24.528.752.672 1.088 1.84-.496 3.584-1.232 5.072-2.336 1.264 1.008 2.752 1.744 4.496 2.224.176-.352.544-.848.816-1.12-1.648-.4-3.104-1.04-4.32-1.904 1.616-1.456 2.848-3.392 3.52-5.984l-.832-.368zm9.312-.4v-1.296h2.24v1.296h-2.24zm0-3.424h2.24v1.28h-2.24v-1.28zm5.68 1.28h-2.352v-1.28h2.352v1.28zm0 2.144h-2.352v-1.296h2.352v1.296zm-7.408 7.536h1.072v-4.672h2.896v1.888c-.912.064-1.728.112-2.4.144l.128.976c1.344-.112 3.184-.256 4.992-.4.08.272.16.512.208.736l.816-.24c-.176-.672-.64-1.808-1.088-2.64l-.768.176c.176.336.352.72.496 1.104l-1.36.08v-1.824h3.152v3.76c0 .16-.048.224-.256.24-.192.016-.88.016-1.632-.016.144.256.288.592.352.864 1.04 0 1.712 0 2.112-.16.432-.144.544-.384.544-.944v-4.672h-4.208v-1.04h3.472v-5.2h-7.872v5.2h3.312v1.04h-2.896v-.576h-1.072v.576h-.416v.928h.416v4.672zm-1.792-9.712c-.192-.688-.56-1.744-.848-2.56l-1.04.304c.256.832.624 1.936.816 2.624l1.072-.368zm.544 4.752l-.208.048h-1.104c.432-1.104.928-2.448 1.328-3.6H64.8v1.072h1.776c-.432 1.264-.928 2.624-1.376 3.568h2.096c-.256 1.152-.672 2.416-1.152 3.328-.48.32-1.04.976-1.6 1.776l.832 1.072c.448-1.008.992-2.016 1.344-2.016.368 0 .96.544 1.6.928 1.184.704 2.576.88 4.688.88 1.888 0 4.912-.096 6.112-.176.032-.352.208-.912.352-1.232-1.776.176-4.368.336-6.416.336-1.904 0-3.344-.112-4.48-.8-.592-.352-.976-.656-1.28-.832.544-1.168 1.008-2.72 1.312-4.128l-.544-.224zm17.792 1.952h3.184v-1.056h-3.184V136.2H84.72v1.728H81.6v1.056h3.12v2.688c-1.392.24-2.688.48-3.664.64l.256 1.12c2.096-.416 5.12-.992 7.952-1.536l-.08-1.04c-1.104.208-2.24.416-3.328.624v-2.496zm-4.672-7.264h2.528c-.512 1.136-1.152 2.128-1.392 2.448-.272.384-.512.656-.768.704.144.304.336.864.4 1.12.384-.176.96-.24 5.936-.72.24.368.432.72.56.992l.912-.592c-.464-.912-1.52-2.352-2.416-3.424l-.848.512c.384.48.8 1.024 1.184 1.584l-4.08.352c.64-.848 1.296-1.92 1.84-2.976h4.32v-1.056h-8.176v1.056zM91.36 131h-1.12v9.616h1.12V131zm2.016-1.12v12.496c0 .272-.064.336-.336.352-.272.016-1.152.016-2.08-.016.176.32.384.864.432 1.168 1.152 0 2-.032 2.496-.224.48-.176.656-.544.656-1.296v-12.48h-1.168zm8.512 6.704h-3.36v-3.344h3.36v3.344zm-3.36 4.896v-3.84h3.36v3.84h-3.36zm1.344-11.904c-.112.752-.4 1.824-.64 2.592H97.44v11.648h1.088v-1.264h4.448v-10.384h-2.656c.272-.688.56-1.568.832-2.352l-1.28-.24zm10.928 2.544h-4.784c.272-.752.496-1.52.688-2.304l-1.136-.272c-.512 2.192-1.376 4.4-2.448 5.808.256.16.768.48.976.672.56-.752 1.056-1.728 1.504-2.8h4.064c-.208 6.368-.448 8.8-.976 9.36-.16.208-.336.24-.656.24-.368 0-1.328 0-2.368-.096.224.336.368.816.4 1.168.896.048 1.808.08 2.368.016.544-.048.912-.192 1.264-.64.64-.784.848-3.248 1.104-10.544v-.608zm-2.528 7.2c-.512-.944-1.616-2.48-2.512-3.616l-.928.544c.88 1.152 1.952 2.736 2.432 3.696l1.008-.624zm9.856-8.064v1.344h-3.44v-1.344h3.44zm-3.44 3.68v-1.456h3.44v1.456h-3.44zm4.576.96v-5.6h-5.744v13.936h1.168v-8.336h4.576zm2.544 2.432v2.64h-3.76v-2.64h3.76zm1.104 3.648v-4.656h-5.952v5.616h1.088v-.96h4.864zm-1.088-7.024v-1.472h3.552v1.472h-3.552zm3.552-3.712v1.36h-3.552v-1.36h3.552zm1.2-.944h-5.888v5.6h4.688v6.72c0 .304-.096.4-.384.4-.32.016-1.36.032-2.4-.016.16.32.352.88.416 1.216 1.392 0 2.304-.016 2.864-.208.512-.208.704-.608.704-1.392v-12.32zm14.768 4.304h-3.808v-1.2h3.808v1.2zm0 2.016h-3.808v-1.184h3.808v1.184zm0 2.048h-3.808v-1.2h3.808v1.2zm-4.88-6.144v7.024h5.984v-7.024h-2.96c.144-.368.304-.8.448-1.216h3.152v-.912h-7.232v.912h2.976c-.096.4-.224.832-.352 1.216h-2.016zm3.536 7.744c.88.592 1.92 1.504 2.448 2.144l.864-.56c-.528-.608-1.568-1.488-2.496-2.048l-.816.464zm-2.208-.448c-.608.736-1.632 1.456-2.64 1.92.24.16.624.56.8.752 1.008-.576 2.144-1.472 2.832-2.352l-.992-.32zm-3.872-7.472h-3.12v-1.184h3.12v1.184zm0 2.048h-3.12v-1.216h3.12v1.216zm1.088-4.112h-5.28v4.992h5.28v-4.992zm-2.032 9.712h2.704v-.912h-2.704v-1.712h2.976v-.928h-7.168v.928h3.168v4.256c-.48-.384-.88-.896-1.184-1.552.064-.592.096-1.216.128-1.824h-.992c-.08 1.952-.352 4.096-1.312 5.248.256.176.608.544.752.768.608-.736.992-1.76 1.216-2.912 1.44 2.144 3.824 2.528 7.28 2.528h5.136c.064-.32.256-.768.432-1.024-.928.032-4.864.032-5.568.032-1.968-.016-3.6-.112-4.864-.656v-2.24zm127.84-25.84c0 .144-.032.208-.208.208-.16.016-.64.016-1.2-.016.128.24.256.56.304.816.768 0 1.328 0 1.68-.144.352-.16.448-.368.448-.864v-4.208h-.432v-.016h-2.096v-1.712h2.64v-1.008h-2.64v-1.488h-1.04v5.168h2.544v3.264zm-2.032-2.576c-.144.976-.384 1.936-.88 2.64.24.112.656.368.832.512.48-.768.816-1.872.976-2.992l-.928-.16zm-1.328 5.168c-1.008.88-2.928 1.936-4.448 2.56.224.256.544.656.704.896 1.552-.672 3.456-1.744 4.768-2.736l-1.024-.72zm4.08.768c1.664.816 3.44 1.872 4.528 2.64l.784-.896c-1.136-.768-2.96-1.76-4.656-2.56l-.656.816zm4.144-2.128c.144-2.368.224-6.16.24-8.96h-3.392v1.04h2.304c0 .64-.016 1.312-.032 2h-2.128v1.024h2.112c-.032.672-.048 1.328-.08 1.968h-2.112v1.008h2.08c-.032.688-.08 1.36-.112 1.92h-9.072l-.064-1.968h2.064v-1.024h-2.112l-.064-1.952h2.112v-1.024h-2.144l-.064-1.872c.816-.256 1.696-.56 2.432-.864l-.576-.976c-.768.4-1.968.88-2.96 1.232l.304 8.448H252.8v1.104h14.416v-1.104h-1.536zm13.312-5.072V111h-2.544v-.688h2.544zm0 1.984h-2.544v-.704h2.544v.704zm-2.544 1.392v-.784h2.224l-.64.432c.128.096.256.192.384.304l-1.968.048zm-3.456-1.392v-.704h2.448v.704h-2.448zm0-1.984h2.448V111h-2.448v-.688zm2.448-.608h-3.392v3.2h3.392v.8c-1.52.016-2.928.032-3.984.032l.048.752c1.984-.048 4.848-.128 7.616-.224.256.256.48.496.64.704l.672-.496c-.352-.464-1.088-1.12-1.728-1.568h1.28v-3.2h-3.536v-.672h4.096v-.736h-4.096v-.752h-1.008v.752h-4.016v.736h4.016v.672zm-2.512 6.592c.512.448 1.12 1.072 1.376 1.52l.816-.48c-.272-.416-.896-1.04-1.424-1.44l-.768.4zm7.84-1.216h-2.288v-.592h-1.008v.592h-6.24v.736h6.24v1.456c0 .16-.048.208-.24.208-.16.016-.768.016-1.408 0 .112.192.24.448.288.672.96 0 1.552 0 1.904-.112.368-.096.464-.272.464-.736v-1.488h2.288v-.736zm-10.08 3.36v-11.152h10.608v11.152h-10.608zm-1.104-12.096v13.888h1.104v-.832h10.608v.752h1.136v-13.808h-12.848zm19.536-.096l-.192.048h-3.584v13.936h1.056v-12.848h2.096c-.336 1.088-.8 2.528-1.264 3.696 1.136 1.232 1.424 2.304 1.424 3.168 0 .464-.08.896-.336 1.072-.112.096-.288.144-.496.144-.256.032-.56.016-.928-.016.192.304.288.752.304 1.056.352.016.752 0 1.072-.032.32-.032.608-.128.832-.288.432-.304.624-.992.624-1.84 0-.96-.272-2.112-1.44-3.408.544-1.264 1.12-2.912 1.6-4.224l-.768-.464zm8.96 3.904c-.72.64-1.84 1.472-2.816 2.08a7.885 7.885 0 00-1.312-2.112c.272-.256.528-.496.736-.768h4.48v-1.04h-3.04c.528-.672 1.12-1.52 1.616-2.32l-1.136-.368c-.4.8-1.12 1.952-1.712 2.688l-1.792-.016.8-.56c-.384-.608-1.184-1.424-1.936-2.016l-.88.56c.688.576 1.44 1.424 1.84 2.016h-3.12v1.056h3.536c-1.024.992-2.448 1.856-3.792 2.432.224.208.576.624.72.848.976-.496 2.032-1.136 2.944-1.872.32.4.592.832.8 1.264-.928.848-2.624 1.808-3.856 2.304.256.224.544.624.672.864 1.104-.544 2.544-1.472 3.568-2.304.144.432.256.848.336 1.264-1.104 1.216-3.28 2.512-5.088 3.088.272.208.544.592.704.848 1.504-.592 3.312-1.664 4.56-2.784.112 1.568-.192 2.864-.672 3.296-.272.288-.528.352-.928.352-.288 0-.832-.016-1.328-.08.176.32.272.768.288 1.088.432.016.96.048 1.264.032.688 0 1.104-.16 1.568-.608.96-.816 1.328-3.616.48-6.288l.304-.176c.64 1.936 1.744 3.968 2.832 5.12.176-.272.544-.624.784-.8-1.072-1.008-2.224-2.976-2.784-4.816a28.727 28.727 0 002.112-1.504l-.752-.768zm2.688 1.968v1.296h14.528v-1.296h-14.528zm25.328.832v3.024h-4.192v-3.024h4.192zm1.12 4.048v-5.056H320.8v6.208h1.104V117h5.312zm.848-7.76H320v1.04h8.064v-1.04zm2.512-2.8h-13.12v13.824h1.152v-12.688h10.8v11.152c0 .256-.096.352-.384.368-.272.016-1.2.016-2.208-.016.192.32.384.832.432 1.168 1.376 0 2.176-.032 2.672-.224.48-.208.656-.56.656-1.296V106.44zm3.952 2.112h10.896v2.336h1.2v-3.472h-5.696c-.192-.528-.592-1.312-.944-1.904l-1.152.336c.256.464.544 1.072.736 1.568h-6.208v3.472h1.168v-2.336zm6.064 6.832h4.736v-1.12h-4.736v-2.608h4.08v-1.136h-9.264v1.136h3.968v6.608c-1.296-.496-2.32-1.424-2.928-3.12.144-.64.272-1.328.368-2.064l-1.184-.128c-.352 2.88-1.216 5.152-2.992 6.512.288.176.768.592.96.816 1.056-.912 1.84-2.128 2.384-3.616 1.456 2.72 3.84 3.296 7.168 3.296h3.696c.064-.352.256-.896.448-1.2-.768.032-3.504.032-4.08.032-.944 0-1.824-.048-2.624-.208v-3.2zm22.48-4.256h-6.496v-1.024h4.976v-.896h-4.976v-.976h5.824v-.928h-3.296c.288-.4.64-.912.96-1.392l-1.264-.336c-.208.496-.608 1.232-.912 1.728h-3.824l.112-.048c-.192-.48-.656-1.152-1.12-1.632l-1.024.352c.32.4.656.896.88 1.328h-3.28v.928h5.744v.976h-4.896v.896h4.896v1.024h-6.432v.944h14.128v-.944zm-.864 2.576c-.56-.48-1.68-1.072-2.592-1.408l-.64.704c.912.384 2.016 1.008 2.544 1.488l.688-.784zm-1.344 2.08a7.224 7.224 0 01-1.712 1.52 8.654 8.654 0 01-.8-1.728h4.768v-.928h-5.024c-.16-.72-.272-1.504-.304-2.336h-1.152c.048.816.144 1.6.304 2.336h-3.488v-1.232c.96-.112 1.856-.272 2.592-.448l-.72-.752c-1.424.368-4.032.656-6.208.784.112.208.24.544.272.784a66.87 66.87 0 002.928-.224v1.088h-3.392v.928h3.392v1.168c-1.312.096-2.512.176-3.456.24l.112.96 3.344-.304v1.376c0 .224-.08.272-.32.272-.24.016-1.072.016-1.936-.016.128.272.304.672.368.944 1.2 0 1.952 0 2.416-.16.448-.128.608-.4.608-1.008v-1.504c.944-.096 1.904-.176 2.864-.272v-.848l-2.864.224v-1.072h3.728c.256.864.592 1.632.992 2.288-1.104.576-2.368 1.04-3.616 1.36.192.224.496.72.624.944 1.216-.384 2.448-.88 3.568-1.488.832.976 1.84 1.536 2.976 1.536 1.008-.016 1.424-.448 1.6-2.144a2.733 2.733 0 01-.912-.464c-.08 1.136-.208 1.504-.64 1.52-.72.016-1.424-.368-2.048-1.04.848-.56 1.584-1.216 2.144-1.952l-1.008-.352zm15.664-5.552a8.89 8.89 0 01-.944 1.488l-2.72.16a117.2 117.2 0 001.888-2.992h4.512v-1.104h-3.584l.16-.064c-.128-.592-.528-1.504-.928-2.176l-1.104.336c.32.592.624 1.328.8 1.904h-4.176v1.104h3.04c-.544.928-1.44 2.368-1.744 2.688-.272.288-.72.4-1.024.464.096.256.288.848.32 1.12.304-.096.768-.192 3.632-.384a14.817 14.817 0 01-4.272 3.008c.224.224.544.64.672.896 2.816-1.344 5.232-3.616 6.592-6.048l-1.12-.4zm-6.4 3.024c-.272-.448-1.44-2.24-1.872-2.832v-.624h1.808v-1.12h-1.808v-3.072h-1.136v3.072h-2.128v1.12h2.048c-.48 2.176-1.472 4.704-2.464 6.032.224.288.512.8.624 1.152.72-1.024 1.408-2.672 1.92-4.4v7.632h1.136v-8.336c.432.784.928 1.712 1.152 2.208l.72-.832zm7.568-.176c-1.36 2.688-4.4 4.976-8.112 6.176.224.24.56.704.704.976 2-.688 3.792-1.664 5.28-2.864 1.056.88 2.272 1.984 2.88 2.688l.912-.784c-.64-.72-1.904-1.776-2.96-2.624 1.008-.944 1.856-1.984 2.512-3.136l-1.216-.432zm7.808-6.128c1.504 1.072 3.36 2.64 4.24 3.632l.848-.88c-.912-1.008-2.816-2.512-4.304-3.536l-.784.784zm6.64 4.304c.896 1.872 1.76 4.384 2.08 6.032l1.168-.464c-.336-1.648-1.216-4.096-2.144-6l-1.104.432zm-9.936-.016c-.224 1.872-.752 4.368-1.44 6l1.184.496c.656-1.696 1.152-4.4 1.408-6.272l-1.152-.224zm2.544-1.2v7.872c0 1.584.48 2.016 2.208 2.016h3.216c1.776 0 2.144-.88 2.32-3.904-.336-.096-.832-.304-1.12-.528-.128 2.752-.272 3.312-1.264 3.312h-3.056c-.912 0-1.104-.144-1.104-.88v-7.888h-1.2zm17.376-2.784v1.344h-3.44v-1.344h3.44zm-3.44 3.68v-1.456h3.44v1.456h-3.44zm4.576.96v-5.6h-5.744v13.936h1.168v-8.336h4.576zm2.544 2.432v2.64h-3.76v-2.64h3.76zm1.104 3.648v-4.656h-5.952v5.616h1.088v-.96h4.864zm-1.088-7.024v-1.472h3.552v1.472h-3.552zm3.552-3.712v1.36h-3.552v-1.36h3.552zm1.2-.944h-5.888v5.6h4.688v6.72c0 .304-.096.4-.384.4-.32.016-1.36.032-2.4-.016.16.32.352.88.416 1.216 1.392 0 2.304-.016 2.864-.208.512-.208.704-.608.704-1.392v-12.32zm14.768 4.304h-3.808v-1.2h3.808v1.2zm0 2.016h-3.808v-1.184h3.808v1.184zm0 2.048h-3.808v-1.2h3.808v1.2zm-4.88-6.144v7.024h5.984v-7.024h-2.96c.144-.368.304-.8.448-1.216h3.152v-.912h-7.232v.912h2.976c-.096.4-.224.832-.352 1.216h-2.016zm3.536 7.744c.88.592 1.92 1.504 2.448 2.144l.864-.56c-.528-.608-1.568-1.488-2.496-2.048l-.816.464zm-2.208-.448c-.608.736-1.632 1.456-2.64 1.92.24.16.624.56.8.752 1.008-.576 2.144-1.472 2.832-2.352l-.992-.32zm-3.872-7.472h-3.12v-1.184h3.12v1.184zm0 2.048h-3.12v-1.216h3.12v1.216zm1.088-4.112h-5.28v4.992h5.28v-4.992zm-2.032 9.712h2.704v-.912h-2.704v-1.712h2.976v-.928h-7.168v.928h3.168v4.256c-.48-.384-.88-.896-1.184-1.552.064-.592.096-1.216.128-1.824h-.992c-.08 1.952-.352 4.096-1.312 5.248.256.176.608.544.752.768.608-.736.992-1.76 1.216-2.912 1.44 2.144 3.824 2.528 7.28 2.528h5.136c.064-.32.256-.768.432-1.024-.928.032-4.864.032-5.568.032-1.968-.016-3.6-.112-4.864-.656v-2.24zm97.296-5.152h-2.992v-1.552h2.992v1.552zm0 2.592h-2.992v-1.584h2.992v1.584zm0 2.672h-2.992v-1.664h2.992v1.664zm-4.144 1.952h1.152v-.928h7.84v-1.024h-3.712v-1.664h2.88v-1.008h-2.88v-1.584h2.912v-1.008h-2.912v-1.552h3.44v-1.04h-2.8c-.24-.672-.72-1.584-1.168-2.288l-1.088.32c.336.608.72 1.36.96 1.968h-3.184c.4-.736.752-1.52 1.04-2.304l-1.088-.304c-.72 2.016-1.92 3.92-3.312 5.136.224.24.592.784.736 1.024.4-.4.8-.848 1.184-1.344v7.6zm-2.608-9.776c-.192-.688-.56-1.744-.848-2.576l-1.04.32c.256.832.624 1.92.816 2.624l1.072-.368zm.544 4.752l-.208.048h-1.104c.432-1.104.928-2.448 1.328-3.6h-3.28v1.072h1.776c-.432 1.264-.928 2.624-1.376 3.568h2.096c-.256 1.152-.672 2.416-1.152 3.328-.48.32-1.04.976-1.6 1.776l.816 1.072c.464-1.008 1.008-2.016 1.36-2.016.368 0 .96.544 1.6.928 1.184.704 2.576.88 4.688.88 1.888 0 4.928-.096 6.112-.176.032-.352.208-.912.368-1.232-1.792.176-4.384.336-6.432.336-1.904 0-3.344-.112-4.48-.8-.592-.352-.976-.656-1.28-.832.544-1.168 1.008-2.72 1.312-4.128l-.544-.224zm27.795-6.448h-7.808v1.12h7.808v-1.12zm-10.48-.976c-.8 1.136-2.336 2.576-3.664 3.472.208.224.528.688.704.944 1.424-1.008 3.056-2.56 4.096-3.968l-1.136-.448zm.656 3.408c-1.104 1.808-2.832 3.648-4.48 4.816.24.24.656.752.832.992.592-.464 1.2-1.04 1.808-1.664v7.104h1.184v-8.416c.656-.784 1.264-1.6 1.76-2.416l-1.104-.416zm10.288 1.936h-8.96v1.136h5.344v6.592c0 .272-.096.336-.4.352-.304.016-1.36.016-2.496-.016.176.336.336.832.384 1.152 1.568 0 2.464 0 3.008-.176.528-.192.704-.56.704-1.296v-6.608h2.416v-1.136zm16.451-4.112h-2.704c-.144-.4-.352-.88-.544-1.248l-1.04.208c.144.32.304.688.416 1.04h-2.528v.96h6.4v-.96zm.384 3.04h-1.936c.192-.448.4-.976.608-1.456l-1.072-.256a16.166 16.166 0 01-.544 1.712h-1.424c-.144-.48-.4-1.104-.64-1.632l-.944.208c.176.432.384.976.528 1.424h-1.52v.976h6.944v-.976zm-7.392-3.04h-2.56c-.16-.4-.368-.88-.576-1.264l-1.04.208c.144.32.32.704.448 1.056h-2.576v.96h6.304v-.96zm.064 3.104h-1.488c.192-.448.4-.992.592-1.488l-1.072-.256c-.128.496-.352 1.2-.56 1.744h-1.36a24.78 24.78 0 00-.736-1.696l-.96.24c.192.432.432.992.592 1.456h-1.648v.976h6.64v-.976zm-4.88 2.608h3.312v1.632h-3.312v-1.632zm3.344 5.152v-2.672h1.024v-3.312h-5.392v3.312h1.104c-.144 1.888-.512 3.456-2.048 4.336.224.176.56.592.704.832 1.76-1.088 2.224-2.896 2.416-5.168h1.168v2.464c0 .592-.256.832-.48.944.176.272.384.816.448 1.104.192-.224.56-.464 2.992-1.808a6.87 6.87 0 01-.24-.912l-1.696.88zm3.392-5.136h3.696v1.6h-3.696v-1.6zm3.728 6.544a.65.65 0 01-.336-.08c-.08-.064-.096-.24-.096-.512v-3.504h1.456v-3.296h-5.76v3.296h1.168c-.192 2.048-.752 3.568-2.864 4.416.24.192.544.592.672.848 2.336-1.024 3.008-2.816 3.248-5.264h.992v3.392c0 .896.096 1.152.352 1.328.208.208.624.272.944.272h.912c.256 0 .624-.032.832-.128a.87.87 0 00.496-.512c.096-.256.144-.944.176-1.568a3.297 3.297 0 01-.88-.464c-.016.64-.016 1.136-.064 1.36-.048.192-.128.304-.224.336-.08.064-.256.08-.416.08h-.608zm15.059-8.656h-6.352v-3.024h6.352v3.024zm1.2-4.16h-8.704v5.296h8.704v-5.296zm-6.544 8.128v3.792h-3.344v-3.792h3.344zm-4.48 5.808h1.136v-.864h3.344v.72h1.168v-6.816h-5.648v6.96zm8.544-2.016v-3.792h3.632v3.792h-3.632zm-1.152-4.944v6.96h1.152v-.864h3.632v.752h1.168v-6.848h-5.952zm13.059-7.12c-.768 2.496-2.224 4.608-4.112 5.92.288.192.784.64.992.88 1.872-1.504 3.456-3.776 4.352-6.496l-1.232-.304zm-1.712 5.472v1.152h3.264c-.368 2.72-1.248 5.232-5.024 6.496.288.256.624.72.768 1.04 4.064-1.488 5.104-4.368 5.52-7.536h4.128c-.192 4.032-.416 5.632-.832 6.032-.16.176-.336.208-.672.208-.384 0-1.36-.016-2.4-.112.224.352.368.832.384 1.2.992.048 2 .08 2.512.032.576-.064.912-.176 1.248-.576.544-.608.768-2.448.992-7.36.016-.16.032-.576.032-.576h-9.92zm4.208-5.728v1.12h2.832c.912 2.384 2.56 4.624 4.544 5.904a7.15 7.15 0 01.848-1.072c-2.032-1.152-3.744-3.44-4.544-5.952h-3.68zm16.611 8.032c-.32-.48-1.648-2.272-2.208-2.944v-.816h2.336v-1.136h-2.336v-3.424h-1.152v3.424h-2.384v1.136h2.256c-.528 2.192-1.632 4.688-2.688 6.016.192.288.496.752.624 1.072.816-1.072 1.6-2.8 2.192-4.592v7.552h1.152v-7.76c.544.848 1.168 1.856 1.44 2.416l.768-.944zm8.48-2.88h-6.4V108.2c1.92-.352 4-.864 5.488-1.472l-1.008-.928c-1.296.592-3.584 1.2-5.6 1.568v4.896c0 2.224-.144 5.2-1.584 7.328.272.096.768.416.976.608 1.504-2.208 1.728-5.552 1.728-7.936v-.08h2.912v8.048h1.168v-8.048h2.32v-1.136zm8.546 4.944c1.68-.592 2.768-1.904 2.768-3.632 0-1.12-.48-1.84-1.36-1.84-.656 0-1.216.4-1.216 1.152 0 .752.544 1.136 1.2 1.136.096 0 .176 0 .272-.016-.08 1.088-.784 1.84-2.016 2.352l.352.848zm17.251-6.032h2.224v8.368h-2.224v-8.368zm3.392 8.368v-8.368h4.448v-1.152h-3.68c.56-.768 1.216-1.84 1.744-2.8l-1.264-.384a18.877 18.877 0 01-1.632 2.944l.656.24h-5.424l1.008-.448c-.256-.768-.928-1.872-1.6-2.72l-1.04.416c.624.816 1.28 1.984 1.536 2.752h-3.664v1.152h4.352v8.368h-4.768v1.2h14.192v-1.2h-4.864zm-8.144-6.544c.752 1.584 1.376 3.664 1.52 5.04l1.136-.288c-.192-1.376-.816-3.456-1.6-5.04l-1.056.288zm9.984 5.072c.624-1.36 1.392-3.456 1.936-5.2l-1.248-.304c-.384 1.584-1.136 3.824-1.76 5.184l1.072.32zm17.955-8.544h-5.28v-1.264h5.28v1.264zm0 2.112h-5.28v-1.28h5.28v1.28zm1.136-4.272h-7.504v5.184h7.504v-5.184zm-8.688 6.432l-1.616.496v-3.152h1.76v-1.104h-1.76v-3.184h-1.104v3.184h-1.968v1.104h1.968v3.504c-.816.256-1.552.48-2.144.624l.288 1.152c.576-.176 1.2-.368 1.856-.592v4.112c0 .24-.08.304-.288.304-.176 0-.8 0-1.488-.016.16.336.304.816.352 1.104 1.008.016 1.616-.032 1.984-.224.4-.192.544-.496.544-1.152v-4.48c.592-.208 1.184-.384 1.76-.592l-.144-1.088zm5.472 3.744h3.312v-.976h-3.312v-1.872h4.096v-1.008h-9.12v1.008h3.904v5.056c-.912-.384-1.616-1.12-2.08-2.464.144-.528.24-1.12.32-1.712l-1.104-.128c-.256 2.368-.96 4.16-2.384 5.28.256.16.704.528.88.72.848-.752 1.472-1.728 1.92-2.928 1.04 2.24 2.72 2.672 5.024 2.672h2.784c.048-.304.192-.8.352-1.056-.528.016-2.704.016-3.088.016-.528 0-1.04-.032-1.504-.096v-2.512zm19.219-2.768v4.56h-4.384v-5.568h5.04v-5.488h-1.28v4.32h-3.76v-5.76h-1.28v5.76h-3.664v-4.304h-1.232v5.472h4.896v5.568h-4.32v-4.56h-1.28v5.728h11.264v.912h1.28v-6.64h-1.28zm12.003-2.144v3.648h-4.176v-3.648h4.176zm1.168 4.784v-5.936h-6.496v7.216h1.152v-1.28h5.344zm6.032-9.456h-14.16v1.184h10.976v10.576c0 .336-.112.448-.464.464-.368.016-1.68.032-2.96-.032.192.336.432.928.512 1.264 1.568 0 2.672 0 3.312-.224.608-.176.816-.592.816-1.456v-10.592h1.968v-1.184zm16.755-.16h-7.808v1.12h7.808v-1.12zm-10.48-.976c-.8 1.136-2.336 2.576-3.664 3.472.208.224.528.688.704.944 1.424-1.008 3.056-2.56 4.096-3.968l-1.136-.448zm.656 3.408c-1.104 1.808-2.832 3.648-4.48 4.816.24.24.656.752.832.992.592-.464 1.2-1.04 1.808-1.664v7.104h1.184v-8.416c.656-.784 1.264-1.6 1.76-2.416l-1.104-.416zm10.288 1.936h-8.96v1.136h5.344v6.592c0 .272-.096.336-.4.352-.304.016-1.36.016-2.496-.016.176.336.336.832.384 1.152 1.568 0 2.464 0 3.008-.176.528-.192.704-.56.704-1.296v-6.608h2.416v-1.136zm-201.808 26.096c.416-1.168.72-2.976.8-4.288l-.896-.128c-.112 1.296-.4 3.04-.832 4.096l.928.32zm1.376 7.168h1.184v-14.608H506.8v14.608zm1.296-11.664c.448.88.928 2.032 1.104 2.72l.896-.432c-.192-.672-.688-1.808-1.168-2.672l-.832.384zm7.024 9.984v-4h3.264v-1.104h-3.264v-3.312h3.616v-1.136h-3.616v-3.312h-1.184v3.312h-2c.224-.784.416-1.616.576-2.448l-1.152-.192c-.368 2.176-1.008 4.32-1.936 5.712.288.128.816.384 1.056.544.432-.688.8-1.52 1.12-2.48h2.336v3.312h-3.392v1.104h3.392v4h-4.576v1.136h9.76v-1.136h-4zm10.768-5.952h-3.36v-3.344h3.36v3.344zm-3.36 4.896v-3.84h3.36v3.84h-3.36zm1.344-11.904c-.112.752-.4 1.824-.64 2.592h-1.792v11.648h1.088v-1.264h4.448v-10.384h-2.656c.272-.688.56-1.568.832-2.352l-1.28-.24zm10.928 2.544h-4.784c.272-.752.496-1.52.688-2.304l-1.136-.272c-.512 2.192-1.376 4.4-2.448 5.808.256.16.768.48.976.672.56-.752 1.056-1.728 1.504-2.8h4.064c-.208 6.368-.448 8.8-.976 9.36-.16.208-.336.24-.656.24-.368 0-1.328 0-2.368-.096.224.336.368.816.4 1.168.896.048 1.808.08 2.368.016.544-.048.912-.192 1.264-.64.64-.784.848-3.248 1.104-10.544v-.608zm-2.528 7.2c-.512-.944-1.616-2.48-2.512-3.616l-.928.544c.88 1.152 1.952 2.736 2.432 3.696l1.008-.624zm13.056-8.016h2.656v2.56c0 1.2.224 1.648 1.264 1.648h1.04c.304 0 .624-.016.784-.08-.016-.272-.064-.72-.08-1.024a3.39 3.39 0 01-.704.08h-.944c-.224 0-.256-.144-.256-.592v-3.712h-4.864v1.76c0 1.136-.272 2.448-1.984 3.424.208.176.608.624.768.864 1.904-1.12 2.32-2.816 2.32-4.256v-.672zm-4.64.304c-.256-.576-.768-1.408-1.232-2.064l-.928.464c.448.672.96 1.568 1.2 2.144l.96-.544zm2.16.72H536.8v.976h6.048v-.976zm-5.36 5.12h4.72v-.944h-4.72v.944zm0-3.024v.944h4.704v-.944h-4.704zm11.44 3.328c-.528 1.216-1.312 2.224-2.256 3.056a8.893 8.893 0 01-2.256-3.056h4.512zm-7.792 4.512h-2.624v-2.64h2.624v2.64zm8.56-5.68l-.208.048h-6.816v1.12h1.392l-.688.24a10.936 10.936 0 002.384 3.536 11.612 11.612 0 01-3.568 1.616v-4.512h-4.72v5.376h1.04v-.752h3.648c.208.272.432.688.544.992 1.44-.432 2.784-1.072 3.968-1.952 1.136.864 2.464 1.504 3.968 1.904.16-.336.496-.816.736-1.072-1.424-.32-2.688-.864-3.776-1.6 1.264-1.168 2.256-2.672 2.848-4.608l-.752-.336zm7.408-4.976c-.24-.56-.752-1.392-1.232-2.048l-.896.464c.432.656.944 1.552 1.168 2.128l.96-.544zm2.544.72h-6.576v.976h6.576v-.976zm-.72 4.176h-5.152v.944h5.152v-.944zm-1.008 3.12v2.64h-2.976v-2.64h2.976zm1.056-.992h-5.072v5.376h1.04v-.752h4.032v-4.624zm-5.2-3.264h5.2v-.944h-5.2v.944zm13.456-.24h-3.28v-5.216h-1.2v5.216h-3.136v1.168h3.136v7.936h1.2v-7.936h3.28v-1.168zm15.68-1.584v-1.168h-6.672l1.104-.48c-.224-.656-.72-1.616-1.152-2.368l-1.136.448c.416.736.88 1.76 1.088 2.4h-6.992v1.168h4.32c-.176 3.648-.592 7.744-4.672 9.776.304.224.672.64.864.96 3.008-1.6 4.208-4.24 4.72-7.056h5.696c-.272 3.6-.576 5.136-1.056 5.552-.176.144-.384.176-.752.176-.416 0-1.536-.016-2.672-.112.224.32.384.8.416 1.152 1.072.08 2.112.096 2.672.064.624-.048.992-.16 1.376-.56.624-.624.944-2.352 1.248-6.848.032-.176.048-.576.048-.576h-6.8c.112-.848.176-1.696.224-2.528h8.128zm3.536-1.712H597.6v1.28h1.152v-2.288h-5.856c-.224-.4-.56-.88-.8-1.232l-1.184.288c.176.288.384.608.576.944h-6.16v2.288h1.12v-1.28zm7.76 2.784c-.528.624-1.216 1.12-2.048 1.536a63.325 63.325 0 00-3.12-.56c.304-.304.64-.624.976-.976h4.192zm4.576 3.2c-1.328-.448-3.088-.912-5.04-1.344a6.33 6.33 0 001.888-1.856h3.36v-.976h-2.832c.128-.272.224-.528.32-.832l-1.152-.272a5.75 5.75 0 01-.48 1.104h-3.936c.368-.432.72-.88 1.008-1.296l-1.152-.352a16.58 16.58 0 01-1.248 1.648h-4.464v.976h3.6a28.305 28.305 0 01-1.584 1.552 86.87 86.87 0 013.376.576c-1.44.368-3.216.576-5.408.672.176.288.336.672.448 1.024 2.944-.192 5.216-.56 6.944-1.296 2.096.48 3.904.96 5.2 1.456l1.152-.784zm-9.888 2.848c-.848.912-2.368 1.744-3.808 2.272.288.176.768.592.976.816 1.408-.624 3.024-1.616 4-2.704l-1.168-.384zm4.912.592c1.456.688 3.28 1.792 4.176 2.576l.864-.864c-.944-.768-2.8-1.824-4.24-2.464l-.8.752zm-1.264-1.952v-1.328h-1.168v1.328h-6.48v1.008h6.48v3.904h1.168v-3.904h6.608v-1.008h-6.608zm173.728-28.464h-2.992v-1.552h2.992v1.552zm0 2.592h-2.992v-1.584h2.992v1.584zm0 2.672h-2.992v-1.664h2.992v1.664zm-4.144 1.952h1.152v-.928h7.84v-1.024h-3.712v-1.664h2.88v-1.008h-2.88v-1.584h2.912v-1.008h-2.912v-1.552h3.44v-1.04h-2.8c-.24-.672-.72-1.584-1.168-2.288l-1.088.32c.336.608.72 1.36.96 1.968h-3.184c.4-.736.752-1.52 1.04-2.304l-1.088-.304c-.72 2.016-1.92 3.92-3.312 5.136.224.24.592.784.736 1.024.4-.4.8-.848 1.184-1.344v7.6zm-2.608-9.776c-.192-.688-.56-1.744-.848-2.576l-1.04.32c.256.832.624 1.92.816 2.624l1.072-.368zm.544 4.752l-.208.048h-1.104c.432-1.104.928-2.448 1.328-3.6h-3.28v1.072h1.776c-.432 1.264-.928 2.624-1.376 3.568h2.096c-.256 1.152-.672 2.416-1.152 3.328-.48.32-1.04.976-1.6 1.776l.816 1.072c.464-1.008 1.008-2.016 1.36-2.016.368 0 .96.544 1.6.928 1.184.704 2.576.88 4.688.88 1.888 0 4.928-.096 6.112-.176.032-.352.208-.912.368-1.232-1.792.176-4.384.336-6.432.336-1.904 0-3.344-.112-4.48-.8-.592-.352-.976-.656-1.28-.832.544-1.168 1.008-2.72 1.312-4.128l-.544-.224zm27.795-6.448h-7.808v1.12h7.808v-1.12zm-10.48-.976c-.8 1.136-2.336 2.576-3.664 3.472.208.224.528.688.704.944 1.424-1.008 3.056-2.56 4.096-3.968l-1.136-.448zm.656 3.408c-1.104 1.808-2.832 3.648-4.48 4.816.24.24.656.752.832.992.592-.464 1.2-1.04 1.808-1.664v7.104h1.184v-8.416c.656-.784 1.264-1.6 1.76-2.416l-1.104-.416zm10.288 1.936h-8.96v1.136h5.344v6.592c0 .272-.096.336-.4.352-.304.016-1.36.016-2.496-.016.176.336.336.832.384 1.152 1.568 0 2.464 0 3.008-.176.528-.192.704-.56.704-1.296v-6.608h2.416v-1.136zm10.531 3.264v-2.656h4.304v2.656h-4.304zm-5.072 0c.048-.592.064-1.184.064-1.712v-.944h3.824v2.656h-3.888zm3.888-6.336v2.56h-3.824v-2.56h3.824zm5.488 2.56h-4.304v-2.56h4.304v2.56zm1.168-3.696h-11.648v5.76c0 2.224-.16 5.04-1.92 7.024.256.144.736.544.912.784 1.216-1.36 1.76-3.184 2-4.96h4v4.72h1.184v-4.72h4.304v3.248c0 .304-.112.4-.432.416-.288 0-1.376.016-2.496-.032.16.32.352.832.4 1.152 1.504.016 2.432 0 2.976-.192.512-.208.72-.56.72-1.328v-11.872zm6.931 7.296c.064-.672.08-1.296.08-1.888v-1.296h8.112v3.184h-8.192zm.08-4.288v-1.568c3.088-.384 6.496-.928 8.816-1.632l-.976-.896c-2.064.672-5.808 1.296-9.024 1.648v4.848c0 2.272-.208 5.248-2.24 7.312.272.144.72.576.912.8 1.392-1.392 2.016-3.28 2.304-5.104h8.32v.848h1.184v-6.256h-9.296zm19.075.576h2.528v1.968h-2.528v-1.968zm0 2.96h2.528v2h-2.528v-2zm0-5.904h2.528v1.952h-2.528v-1.952zm-1.024-1.056v10h4.624v-10h-4.624zm2.816 10.784c.64.784 1.424 1.872 1.776 2.544l.944-.592c-.368-.64-1.168-1.696-1.824-2.448l-.896.496zm-2.16-.448c-.464 1.088-1.28 2.208-2.128 2.944.256.16.736.48.928.656.848-.8 1.76-2.08 2.304-3.312l-1.104-.288zm7.952-11.04v13.12c0 .272-.112.352-.384.352-.24.016-1.088.032-2.032 0 .16.304.304.816.352 1.12 1.312 0 2.064-.032 2.512-.224.448-.192.624-.528.624-1.264v-13.104h-1.072zm-2.784 1.632v9.088h1.056v-9.088h-1.056zm-9.504-.624c.896.448 2 1.184 2.512 1.712l.704-.944c-.544-.528-1.632-1.2-2.528-1.616l-.688.848zm-.688 4.272c.944.416 2.08 1.088 2.624 1.584l.672-.976c-.56-.496-1.696-1.104-2.624-1.472l-.672.864zm.336 8.48l1.072.64a62.363 62.363 0 002.08-5.088l-.944-.624c-.656 1.792-1.568 3.84-2.208 5.072zm30.979-11.456c-.272-.544-.88-1.376-1.44-1.968l-.832.464c.56.64 1.152 1.52 1.408 2.064l.864-.56zm-10.448-.336c-.224-.56-.752-1.392-1.2-2.048l-.928.464c.432.672.944 1.552 1.184 2.144l.944-.56zm.288 8.032v2.64h-2.224v-2.64h2.224zm1.04-.992h-4.288v5.376h1.024v-.752h3.264v-4.624zm-4.272-1.184h4.24v-.944h-4.24v.944zm4.24-3.024h-4.24v.944h4.24v-.944zm-4.912-1.12h5.216v-.976h-5.216v.976zm8.24 3.888h1.712v-1.072h-4.48v1.072h1.68v4.224c-.72.176-1.376.336-1.936.464l.336 1.152c1.424-.416 3.28-.928 5.04-1.472l-.112-1.008c-.752.192-1.52.4-2.24.592v-3.952zm6.288-3.328v-1.12h-3.104a65.092 65.092 0 01-.032-3.088h-1.168c.016 1.056.032 2.08.064 3.088h-4.672v1.12h4.72c.256 5.808.992 10.384 2.784 10.384.992 0 1.312-.752 1.488-3.136-.272-.112-.64-.384-.896-.64-.048 1.792-.192 2.608-.432 2.608-.848 0-1.6-3.872-1.824-9.216h3.072zm8.434 6.128c1.68-.592 2.768-1.904 2.768-3.632 0-1.12-.48-1.84-1.36-1.84-.656 0-1.216.4-1.216 1.152 0 .752.544 1.136 1.2 1.136.096 0 .176 0 .272-.016-.08 1.088-.784 1.84-2.016 2.352l.352.848zm19.155.848h2.384v1.68h-2.384v-1.68zm2.384-3.552h-2.384v-1.616h2.384v1.616zm0 2.624h-2.384v-1.696h2.384v1.696zm-6.32 1.184h-1.776v-4.672h1.776v4.672zm10.4 1.424h-2.976v-1.68h2.288v-.928h-2.288v-1.696h2.288v-.928h-2.288v-1.616h2.496v-1.008h-2.192c-.192-.544-.576-1.28-.896-1.872l-.992.4c.224.448.48.992.688 1.472h-2.08c.512-.736.96-1.536 1.36-2.4h3.168v1.68h1.072v-2.704h-3.824c.192-.448.352-.944.496-1.424l-1.12-.224c-.16.56-.352 1.12-.56 1.648H882.1v2.736h1.04v-1.712h1.872c-.864 1.744-2.048 3.216-3.52 4.24v-1.12h-2.736c.336-1.104.592-2.32.8-3.552h2.208v-1.088h-5.248v1.088h1.888c-.416 2.64-1.12 5.088-2.272 6.72.224.24.56.784.688 1.024.304-.4.576-.88.832-1.36v5.232h1.024v-1.296h2.816v-5.568c.24.24.56.688.688.928.368-.288.752-.592 1.088-.912v7.632h1.12v-.688h6.464v-1.024zm4.403-9.968h10.896v2.336h1.2v-3.472h-5.696c-.192-.528-.592-1.312-.944-1.904l-1.152.336c.256.464.544 1.072.736 1.568h-6.208v3.472h1.168v-2.336zm6.064 6.832h4.736v-1.12h-4.736v-2.608h4.08v-1.136h-9.264v1.136h3.968v6.608c-1.296-.496-2.32-1.424-2.928-3.12.144-.64.272-1.328.368-2.064l-1.184-.128c-.352 2.88-1.216 5.152-2.992 6.512.288.176.768.592.96.816 1.056-.912 1.84-2.128 2.384-3.616 1.456 2.72 3.84 3.296 7.168 3.296h3.696c.064-.352.256-.896.448-1.2-.768.032-3.504.032-4.08.032-.944 0-1.824-.048-2.624-.208v-3.2zm23.411-5.84v-1.168h-6.672l1.104-.48c-.224-.656-.72-1.616-1.152-2.368l-1.136.448c.416.736.88 1.76 1.088 2.4h-6.992v1.168h4.32c-.176 3.648-.592 7.744-4.672 9.776.304.224.672.64.864.96 3.008-1.6 4.208-4.24 4.72-7.056h5.696c-.272 3.6-.576 5.136-1.056 5.552-.176.144-.384.176-.752.176-.416 0-1.536-.016-2.672-.112.224.32.384.8.416 1.152 1.072.08 2.112.096 2.672.064.624-.048.992-.16 1.376-.56.624-.624.944-2.352 1.248-6.848.032-.176.048-.576.048-.576h-6.8c.112-.848.176-1.696.224-2.528h8.128zm12.179 3.152v3.12h-4.016v-3.12h4.016zm1.104 4.192v-5.264h-6.208v6.4h1.088v-1.136h5.12zm3.344-8.528h-7.136c.4-.768.816-1.68 1.168-2.528l-1.456-.256c-.208.816-.624 1.92-1.024 2.784h-4.368v11.856h1.168v-10.704h10.464v9.12c0 .304-.096.384-.384.4a39.23 39.23 0 01-2.592-.032c.176.32.368.88.432 1.216 1.44 0 2.416-.016 2.992-.208.56-.192.736-.592.736-1.376V108.36zm6.579-2.736c-.656 1.12-1.968 2.48-3.136 3.328.176.224.496.624.64.864 1.28-.976 2.704-2.448 3.584-3.792l-1.088-.4zm.384 3.232c-.88 1.68-2.304 3.344-3.68 4.432.224.24.56.816.688 1.04a13.119 13.119 0 001.504-1.488v7.44h1.136v-8.832a18.458 18.458 0 001.408-2.224l-1.056-.368zm7.968 5.936c-.592.96-1.456 1.776-2.448 2.432a9.725 9.725 0 01-2.096-1.744c.208-.224.4-.448.592-.688h3.952zm.88-1.04l-.192.048h-3.92c.288-.4.544-.848.768-1.28l3.552-.224c.352.48.624.944.832 1.312l.976-.56c-.544-.928-1.68-2.4-2.624-3.456l-.928.48c.352.4.72.864 1.088 1.328l-5.008.272c1.952-1.04 3.92-2.368 5.808-3.92l-1.088-.608a27.387 27.387 0 01-2.112 1.712l-2.848.096c1.024-.72 2.08-1.664 3.04-2.656l-1.168-.512c-.976 1.168-2.384 2.32-2.8 2.624-.416.288-.752.512-1.056.56.144.32.336.896.384 1.152.24-.096.672-.176 3.056-.288-.896.576-1.632 1.04-2 1.232-.752.432-1.312.704-1.776.768.128.304.32.88.368 1.104.304-.112.72-.176 3.008-.32a11.19 11.19 0 01-1.488 2 8.933 8.933 0 01-.512-.832l-.976.336c.24.416.48.832.768 1.2-.432.4-.912.752-1.376 1.056.24.208.656.656.816.88.416-.32.848-.656 1.264-1.056a11.5 11.5 0 001.776 1.632c-1.296.672-2.768 1.152-4.224 1.424.224.256.48.72.576 1.024 1.632-.384 3.248-.944 4.688-1.776 1.328.784 2.848 1.376 4.528 1.744.16-.32.464-.768.72-1.024a15.788 15.788 0 01-4.224-1.392c1.328-.96 2.384-2.176 3.04-3.712l-.736-.368zm-192.64 25.52v-1.968h3.712v1.968h-3.712zm-4.784-1.968h3.6v1.968h-3.6v-1.968zm3.6-2.976v1.936h-3.6v-1.936h3.6zm4.896 0v1.936h-3.712v-1.936h3.712zm3.104 4.944h-1.936v-6.032h-4.88v-1.536h6.224v-1.12H757.28v1.12h6.064v1.536h-4.768v6.032h-1.888v1.104h1.888v3.888h1.168v-3.888h8.496v2.4c0 .256-.096.336-.384.336-.272.016-1.296.032-2.352 0 .176.304.368.816.432 1.136 1.376 0 2.256-.016 2.784-.208.512-.192.688-.544.688-1.264v-2.4h1.936v-1.104zm8.416-5.472h-2.8v-1.52h2.32v-1.024h-2.32v-1.648h-1.12v1.648h-2.432v1.024h2.432v1.52h-3.024v1.024h6.944V133.8zm-4.192 3.104c-.112-.544-.464-1.392-.848-2.016l-.848.288c.352.64.688 1.52.8 2.064l.896-.336zm4.256 4.096v-1.024h-2.848v-1.664h2.448v-1.024h-1.376c.256-.608.528-1.376.8-2.08l-1.024-.256c-.16.688-.496 1.68-.768 2.336h-3.744v1.024h2.544v1.664h-3.04V141h3.04v3.2h1.12V141h2.848zm3.04-8.272v-3.104h-1.12v3.104h-1.808v1.12h1.808v.624c0 .864-.016 1.776-.128 2.704a19.427 19.427 0 00-1.376-1.04l-.672.784c.608.432 1.248.96 1.84 1.536-.352 1.824-1.104 3.632-2.672 5.104.256.16.704.496.912.72 1.488-1.408 2.288-3.136 2.72-4.912.544.544.992 1.088 1.296 1.536l.72-.912c-.384-.576-1.024-1.264-1.76-1.936.192-1.216.24-2.448.24-3.584v-.624h1.696c-.032 5.376-.048 9.712 1.552 10.192.768.272 1.264-.272 1.376-2.656-.192-.128-.512-.496-.72-.768-.048 1.264-.144 2.304-.272 2.288-.912-.224-.864-4.864-.8-10.176h-2.832zm19.904-2.144h-7.808v1.12h7.808v-1.12zm-10.48-.976c-.8 1.136-2.336 2.576-3.664 3.472.208.224.528.688.704.944 1.424-1.008 3.056-2.56 4.096-3.968l-1.136-.448zm.656 3.408c-1.104 1.808-2.832 3.648-4.48 4.816.24.24.656.752.832.992.592-.464 1.2-1.04 1.808-1.664v7.104h1.184v-8.416c.656-.784 1.264-1.6 1.76-2.416l-1.104-.416zm10.288 1.936h-8.96v1.136h5.344v6.592c0 .272-.096.336-.4.352-.304.016-1.36.016-2.496-.016.176.336.336.832.384 1.152 1.568 0 2.464 0 3.008-.176.528-.192.704-.56.704-1.296v-6.608h2.416v-1.136zm1.712.608c.24-.128.592-.208 2.304-.4-.592.896-1.12 1.6-1.376 1.888-.464.608-.832 1.008-1.152 1.072.128.288.288.8.336 1.04.304-.16.8-.288 4.464-.848.064.24.128.48.16.672l.896-.352c-.16-.784-.624-2.064-1.12-3.056l-.832.288c.208.496.432 1.04.624 1.6l-2.816.384c1.296-1.52 2.56-3.424 3.6-5.312l-.96-.56a26.302 26.302 0 01-1.2 2.192l-1.712.16c.88-1.2 1.744-2.752 2.448-4.256l-1.024-.432c-.656 1.712-1.776 3.552-2.112 4.016-.336.48-.592.816-.864.88.128.272.304.8.336 1.024zm.384 4.288c-.144 1.28-.4 2.688-.768 3.68.256.064.704.224.912.336.336-.992.64-2.48.8-3.872l-.944-.144zm1.712.112c.192 1.072.368 2.464.4 3.408l.928-.208a30.902 30.902 0 00-.464-3.376l-.864.176zm1.76-.32c.368.976.768 2.256.912 3.104l.88-.304c-.176-.816-.576-2.08-.96-3.072l-.832.272zm6.736 2.208v-4.496h2.208v4.496h-2.208zm-3.168-4.496h2.08v4.496h-2.08v-4.496zm2.08-5.712v4.592h-2.08v-4.592h2.08zm3.296 4.592h-2.208v-4.592h2.208v4.592zm-6.48-5.776v13.552h1.104v-1.04h5.376v.896h1.136v-13.408h-7.616zm17.568 1.04h-2.944a15.055 15.055 0 00-.848-1.952l-1.04.304c.224.496.48 1.12.656 1.648h-3.312v1.088h7.488v-1.088zm-4.432 3.936c-.16-.752-.592-1.872-1.056-2.704l-1.024.256c.432.864.848 2 .992 2.736l1.088-.288zm2.88 3.968v2.896h-4.352V139.4h4.352zm-5.488 4.72h1.136v-.768h4.352v.64h1.168v-5.664h-6.656v5.792zm5.152-11.44c-.256.896-.736 2.208-1.168 3.104h-4.896v1.088h8.32v-1.088h-2.272c.4-.832.848-1.92 1.2-2.848l-1.184-.256zm7.36-2.272l-.192.064h-4.096V144.2h1.072v-12.64h2.544c-.432 1.232-1.056 2.928-1.648 4.272 1.424 1.456 1.824 2.608 1.824 3.616.016.544-.096 1.04-.416 1.248-.176.096-.4.144-.64.16a8.35 8.35 0 01-1.232-.032c.192.336.304.816.32 1.136.448.016.96.016 1.36-.032.368-.032.72-.144.992-.336.512-.336.72-1.12.72-2.032 0-1.12-.352-2.352-1.776-3.856.672-1.472 1.408-3.296 1.984-4.752l-.816-.544zm7.584 6.176h-3.36v-3.344h3.36v3.344zm-3.36 4.896v-3.84h3.36v3.84h-3.36zm1.344-11.904c-.112.752-.4 1.824-.64 2.592h-1.792v11.648h1.088v-1.264h4.448v-10.384h-2.656c.272-.688.56-1.568.832-2.352l-1.28-.24zm10.928 2.544h-4.784c.272-.752.496-1.52.688-2.304l-1.136-.272c-.512 2.192-1.376 4.4-2.448 5.808.256.16.768.48.976.672.56-.752 1.056-1.728 1.504-2.8h4.064c-.208 6.368-.448 8.8-.976 9.36-.16.208-.336.24-.656.24-.368 0-1.328 0-2.368-.096.224.336.368.816.4 1.168.896.048 1.808.08 2.368.016.544-.048.912-.192 1.264-.64.64-.784.848-3.248 1.104-10.544v-.608zm-2.528 7.2c-.512-.944-1.616-2.48-2.512-3.616l-.928.544c.88 1.152 1.952 2.736 2.432 3.696l1.008-.624zm8.192-7.6c-.24-.56-.752-1.424-1.184-2.08l-.88.4c.4.672.912 1.584 1.136 2.144l.928-.464zm1.648.592h-5.408v.992h5.408v-.992zm-.48 2.112h-4.304v.944h4.304v-.944zm-4.32 3.024h4.32v-.944h-4.32v.944zm3.36 2.176v2.656h-2.368v-2.656h2.368zm.976-.992h-4.336v5.36h.992v-.72h3.344v-4.64zm6.4 0v1.952h-2.464v-1.952h2.464zm.928 2.848v-3.744h-4.272v4.48h.88v-.736h3.392zm-1.568-5.776v-1.616h2.416v1.616h-2.416zM860 134.088h2.4v1.616H860v-1.616zm2.4-2.688v1.712H860V131.4h2.4zm3.424 1.712h-2.416V131.4h2.416v1.712zm1.008-2.784h-7.824v5.968c0 2.272-.112 5.264-1.296 7.36.208.096.656.416.832.592 1.216-2.08 1.44-5.2 1.456-7.568h5.824v6.064c0 .24-.08.304-.288.32-.224.016-.944.016-1.76-.016.144.288.304.752.352 1.024 1.088 0 1.76-.016 2.16-.192.4-.176.544-.512.544-1.136v-12.416zm3.568 2.8h1.728v1.168H870.4v-1.168zm4.368 0v1.168h-1.584v-1.168h1.584zm-2.64 4.72h1.056V135.8c.752.4 1.632.976 2.096 1.392l.528-.704c-.496-.416-1.408-.992-2.176-1.344l-.448.544v-.592h2.608v-2.752h-2.608v-.816h3.008v-.912h-3.008v-1.008h-1.056v1.008h-3.168v.912h3.168v.816h-2.704v2.752h2.32c-.752.864-1.968 1.696-3.056 2.096.224.192.528.56.688.784.944-.432 1.984-1.216 2.752-2.048v1.92zm4.448 3.616h4.576v-.928h-4.576v-1.248h5.632v-.992h-12.336v.992h5.536v3.488h-2.832v-2.64h-1.136v2.64h-2.624v1.024h14.416v-1.024h-6.656v-1.312zm1.68-9.056l2.768-.016a6.665 6.665 0 01-1.28 2.432 8.31 8.31 0 01-1.488-2.416zm4.928-.016v-.992h-4.448c.224-.496.4-1.008.56-1.536l-1.088-.24c-.432 1.6-1.232 3.104-2.272 4.048.224.192.64.592.8.8.32-.32.64-.704.944-1.104.32.72.784 1.456 1.376 2.144-.832.72-1.872 1.264-3.104 1.664.208.192.56.64.688.848 1.2-.448 2.256-1.008 3.12-1.76a8.732 8.732 0 002.912 1.808c.128-.256.448-.704.672-.912-1.136-.384-2.096-.944-2.864-1.616.736-.848 1.296-1.888 1.68-3.152h1.024z" fill="#646470"/></svg>