<svg width="1140" height="230" fill="none" xmlns="http://www.w3.org/2000/svg"><path d="M8.259 26.384c-1.466-.006-2.728-.367-3.785-1.083-1.05-.716-1.86-1.753-2.429-3.11-.562-1.359-.84-2.992-.835-4.901 0-1.904.281-3.526.844-4.867.568-1.34 1.378-2.36 2.429-3.06C5.54 8.66 6.798 8.308 8.259 8.308c1.46 0 2.715.352 3.767 1.057 1.056.704 1.869 1.727 2.437 3.068.568 1.335.85 2.954.844 4.858 0 1.915-.284 3.55-.853 4.909-.562 1.358-1.369 2.395-2.42 3.11-1.051.717-2.31 1.075-3.775 1.075zm0-3.06c1 0 1.798-.503 2.394-1.509.597-1.005.893-2.514.887-4.525 0-1.324-.137-2.426-.41-3.307-.266-.88-.647-1.543-1.141-1.986a2.49 2.49 0 00-1.73-.665c-.995 0-1.79.497-2.387 1.492-.596.994-.898 2.483-.903 4.466 0 1.34.133 2.46.4 3.358.273.892.657 1.562 1.15 2.011a2.521 2.521 0 001.74.665zM25.532 8.545V26h-3.69V12.048h-.103l-3.997 2.506v-3.273l4.321-2.736h3.469z" fill="#D1D1D6"/><path d="M19.56 47.184l-.624.168H2.28v2.808h13.848c-1.584 1.416-3.648 2.952-5.52 3.936v10.632c0 .408-.192.552-.72.552s-2.496.024-4.2-.048c.456.768 1.008 2.04 1.152 2.88 2.304.024 4.008-.048 5.208-.48 1.176-.432 1.56-1.2 1.56-2.832v-9.264c3-1.776 6.048-4.32 8.256-6.672l-2.304-1.68zm16.08 6.6c.456.48.936 1.152 1.152 1.632.168-.072.336-.168.504-.24-.288 1.704-.864 3.456-1.656 4.68v-6.072zm-3.696 5.928V57.72h1.368v1.992h-1.368zm-3.24-1.992h1.368v1.992H28.68c.024-.552.024-1.08.024-1.584v-.408zm2.52-7.656c-.216.6-.432 1.224-.672 1.752h-2.064c.288-.552.552-1.152.816-1.752h1.92zm.72 3.84h1.368v1.8h-1.368v-1.8zm-3.24 0h1.368v1.8h-1.368v-1.8zm18.552 7.68h-4.08v-2.16h3.6v-2.4h-3.6v-2.16h-2.712v2.16h-1.176c.144-.504.24-1.032.336-1.536l-2.136-.432c2.448-1.344 3.36-3.336 3.768-5.832h2.784c-.096 1.992-.216 2.808-.432 3.072-.168.216-.36.264-.648.264-.336 0-.984-.024-1.728-.096.36.6.6 1.56.648 2.304.96.024 1.896 0 2.424-.072.6-.096 1.056-.288 1.464-.792.528-.624.72-2.28.84-6.096.024-.312.048-.912.048-.912H36v2.328h2.688c-.336 1.752-1.056 3.144-3.048 4.056v-1.464h-2.688c.504-.984.984-2.088 1.32-3.024l-1.632-1.008-.36.12h-2.184c.192-.552.36-1.128.504-1.704l-2.52-.528c-.648 2.808-1.92 5.616-3.552 7.368a15.461 15.461 0 011.872 1.536v3.552c0 2.688-.12 6.264-1.728 8.736.528.24 1.56.888 1.968 1.272 1.104-1.728 1.656-4.056 1.896-6.312h4.776v3.456c0 .312-.12.408-.408.408s-1.224 0-2.184-.048c.36.648.744 1.728.816 2.424 1.464 0 2.448-.072 3.192-.48.72-.408.912-1.128.912-2.256v-5.064c.6.264 1.464.72 1.872 1.008.36-.528.672-1.152.96-1.848h1.992v2.16h-4.44v2.448h4.44v3.96h2.712v-3.96h4.08v-2.448zm14.424-3.192V55.44h5.064v2.952H61.68zm-7.464 0c.048-.888.072-1.752.072-2.52v-.432H58.8v2.952h-4.584zm4.584-8.4v2.784h-4.512v-2.784H58.8zm7.944 2.784H61.68v-2.784h5.064v2.784zm2.832-5.496h-18.12v8.568c0 3.36-.216 7.632-2.832 10.512.648.336 1.8 1.32 2.256 1.848 1.728-1.872 2.592-4.512 3.024-7.128H58.8v6.696h2.88V61.08h5.064v3.6c0 .432-.168.576-.624.576-.432 0-2.016.024-3.36-.048.36.744.816 1.968.912 2.736 2.16.024 3.624-.024 4.608-.504.96-.432 1.296-1.2 1.296-2.736V47.28zm9.24 10.872c.096-1.152.144-2.28.144-3.264v-.24h10.584v3.504H78.816zm.144-6.144v-1.992c4.464-.432 9.288-1.152 12.96-2.16l-2.256-2.16c-3.264.96-8.736 1.776-13.584 2.208v6.96c0 3.504-.288 8.232-3.408 11.4.6.36 1.776 1.392 2.208 1.944 1.992-1.968 3.024-4.704 3.552-7.416h11.112v1.2h2.928v-9.984H78.96zm21.216-.072h1.344l-.744 1.344c1.368.288 3.192.816 4.152 1.2l.744-1.56c-.888-.336-2.568-.744-3.888-.984h4.752v4.632h2.784v-4.632h4.2c-1.032.384-2.448.864-3.408 1.032l.888 1.368c1.248-.24 3-.648 4.296-1.176l-.912-1.224h1.344V55.2h2.856v-5.376h-9.264v-1.128h8.04v-2.04H98.544v2.04h7.992v1.128h-9.072V55.2h2.712v-3.264zm9.576 3.912c1.8.288 4.272.888 5.544 1.368l.528-1.8c-1.296-.456-3.744-.96-5.52-1.152l-.552 1.584zm8.904 3.576v-2.208H100.92c1.488-.336 3.192-.72 4.896-1.128l-.096-1.608c-2.16.312-4.224.624-5.736.816l.696 1.92h-3.312v2.208h9c-.072.384-.168.768-.264 1.152h-6.936v7.44h2.688v-5.208h2.448v5.088h2.592v-5.088h2.52v5.088h2.592v-5.088h2.616v2.64c0 .216-.072.288-.336.288-.24 0-.984 0-1.704-.024.336.648.72 1.608.816 2.328 1.296 0 2.28-.024 3.024-.408.768-.384.96-1.008.96-2.16v-4.896h-8.568a12.8 12.8 0 00.456-1.152h9.384zm20.808-6.696c-.912 1.344-2.352 2.952-3.624 4.248a22.46 22.46 0 01-2.424-4.632v-.288h9.24v-2.76h-2.616l1.056-1.176c-1.032-.768-3.024-1.848-4.44-2.496l-1.704 1.8a36.51 36.51 0 013.24 1.872h-4.776V45.72h-2.928v3.576h-9.024v2.76h9.024v5.784c-3.552 2.04-7.44 4.176-9.744 5.352l1.824 2.592a264.398 264.398 0 007.92-4.944v3.696c0 .456-.168.6-.624.6-.48 0-1.992.024-3.432-.048.432.864.84 2.184.96 3 2.136.024 3.696-.072 4.68-.576 1.008-.48 1.344-1.248 1.344-2.952v-6.576c1.944 3.48 4.512 6.288 7.824 8.016.48-.816 1.416-1.968 2.112-2.568-2.256-.984-4.248-2.52-5.928-4.368 1.464-1.296 3.168-3.024 4.56-4.584l-2.52-1.752zm-11.04 4.56c-.768-1.296-2.544-3.096-3.96-4.344l-2.184 1.512c1.44 1.344 3.12 3.24 3.816 4.56l2.328-1.728zm33.816-1.176c-.744 1.92-1.824 3.576-3.192 4.944-1.416-1.392-2.52-3.072-3.312-4.944h6.504zm-9.36-6.672h4.8a86.922 86.922 0 01-.984 3.96h-3.864c.024-.744.048-1.44.048-2.112V49.44zm11.16 3.84l-.528.12h-3.6c.456-1.992.96-4.536 1.344-6.744h-15.168v2.784h3.792v1.824c0 3.888-.48 9.936-5.232 13.992.624.552 1.656 1.728 2.064 2.472 3.84-3.336 5.304-7.704 5.856-11.616h.36c1.008 2.64 2.256 4.92 3.888 6.792-1.896 1.32-4.128 2.256-6.552 2.832.6.648 1.32 1.848 1.656 2.664 2.664-.792 5.088-1.848 7.128-3.36 1.752 1.392 3.816 2.4 6.264 3.12.456-.816 1.32-2.064 1.992-2.712-2.256-.528-4.2-1.344-5.88-2.448 2.16-2.232 3.768-5.112 4.704-8.832l-2.088-.888zm20.184 9v-1.296h3.12v1.296h-3.12zm-5.688 0v-1.296h3.072v1.296h-3.072zm3.072-4.488v1.224h-3.072v-1.224h3.072zm5.736 1.224h-3.12v-1.224h3.12v1.224zm2.664-3.288h-3.936c-.264-.144-.528-.288-.84-.432 1.584-.888 3.168-1.92 4.44-2.904l-1.608-1.464-.6.144h-10.776v1.968h8.28c-.624.456-1.32.888-1.968 1.248-1.056-.432-2.16-.888-3.12-1.224l-1.584 1.512c.912.312 1.896.72 2.856 1.152h-5.232V68.04h2.616v-3.792h3.072v3.504h2.616v-3.504h3.12v1.392c0 .264-.096.36-.408.36-.264 0-1.176 0-1.968-.024.288.576.624 1.392.72 2.04 1.464 0 2.544-.024 3.288-.36.792-.36 1.032-.84 1.032-2.016v-9.912zm-6.552-7.992a15.297 15.297 0 00-1.368-2.304l-2.76.72c.312.456.624 1.032.888 1.584h-7.968v5.76c-.336-1.128-.936-2.544-1.536-3.696l-2.088 1.056c.672 1.464 1.368 3.384 1.56 4.584l2.064-1.08v.984c0 .6 0 1.248-.024 1.872-1.416.744-2.76 1.392-3.744 1.8l.816 2.64c.864-.504 1.752-1.032 2.64-1.584-.384 2.184-1.104 4.32-2.688 6 .576.336 1.632 1.368 2.016 1.92 3.144-3.288 3.648-8.832 3.648-12.648v-5.16h16.056v-2.448h-7.512zm12.312 1.752c.336 1.08.576 2.424.624 3.336l1.272-.384c-.072-.936-.384-2.352-.768-3.456l-1.128.336v-1.008h2.016v5.208h-2.016v-4.032zm5.808-.12l-1.152-.408c-.168.96-.576 2.352-.912 3.312v-3.96h2.064v1.056zm-2.064 4.152v-1.032l.984.36c.312-.696.696-1.728 1.08-2.736v3.408h-2.064zm-6.336 8.808c2.904-.12 7.008-.336 10.896-.576l.048-2.208c-1.392.048-2.832.12-4.224.168v-1.056h3.84v-2.16h-3.84V55.44h3.888v-9.048h-10.152v9.048h3.744v1.056h-3.696v2.16h3.696v1.152c-1.608.048-3.072.096-4.272.12l.072 2.4zm1.248 5.76c1.008-1.104 1.416-2.928 1.704-4.632l-1.92-.576c-.216 1.584-.768 3.24-1.632 4.248l1.848.96zm1.872-5.064c.264 1.344.456 3.072.408 4.2l1.848-.216c-.024-1.152-.216-2.856-.504-4.2l-1.752.216zm2.4-.096c.456 1.272.864 2.928.984 4.008l1.752-.36c-.144-1.104-.576-2.712-1.032-3.984l-1.704.336zm2.328-.216c.744 1.2 1.464 2.784 1.752 3.84l1.8-.744c-.312-1.056-1.08-2.592-1.848-3.72l-1.704.624zm10.632 1.848h-4.44v-5.016h4.44v5.016zm3.528-11.304v-2.64h-4.632v-4.92h-2.784v11.256h-3.144v11.112h2.592v-.936h4.44v.84h2.736V56.952h-3.84v-3.696h4.632z" fill="#2F80ED"/><path d="M305.259 26.384c-1.466-.006-2.728-.367-3.785-1.083-1.051-.716-1.86-1.753-2.429-3.11-.562-1.359-.84-2.992-.835-4.901 0-1.904.281-3.526.844-4.867.568-1.34 1.378-2.36 2.429-3.06 1.057-.704 2.315-1.056 3.776-1.056 1.46 0 2.715.352 3.767 1.057 1.056.704 1.869 1.727 2.437 3.068.568 1.335.85 2.954.844 4.858 0 1.915-.284 3.55-.852 4.909-.563 1.358-1.37 2.395-2.421 3.11-1.051.717-2.31 1.075-3.775 1.075zm0-3.06c1 0 1.798-.503 2.394-1.509.597-1.005.892-2.514.887-4.525 0-1.324-.137-2.426-.409-3.307-.267-.88-.648-1.543-1.142-1.986a2.492 2.492 0 00-1.73-.665c-.995 0-1.79.497-2.387 1.492-.596.994-.898 2.483-.903 4.466 0 1.34.133 2.46.4 3.358.273.892.657 1.562 1.151 2.011a2.521 2.521 0 001.739.665zM314.938 26v-2.66l6.213-5.752c.529-.511.972-.972 1.33-1.38.363-.41.639-.81.827-1.202.187-.398.281-.827.281-1.287 0-.512-.117-.952-.35-1.321a2.296 2.296 0 00-.954-.861 2.994 2.994 0 00-1.372-.307c-.534 0-1 .108-1.398.324a2.232 2.232 0 00-.921.929c-.215.403-.323.883-.323 1.44h-3.503c0-1.142.258-2.133.775-2.974.517-.841 1.242-1.492 2.174-1.952.931-.46 2.005-.69 3.221-.69 1.25 0 2.338.221 3.264.665.932.437 1.657 1.045 2.174 1.824.517.778.775 1.67.775 2.676 0 .659-.13 1.31-.392 1.951-.255.642-.713 1.355-1.372 2.14-.659.778-1.588 1.713-2.787 2.803l-2.548 2.498v.119h7.329V26h-12.443z" fill="#D1D1D6"/><path d="M301.56 50.904h14.76v3.312h2.952v-6h-8.328c-.264-.864-.768-1.944-1.248-2.784l-2.88.792c.312.624.6 1.32.84 1.992h-8.904v6h2.808v-3.312zm8.928 10.368h6.576v-2.688h-6.576v-2.832h5.112v-2.736h-13.2v2.736h5.112v8.136c-1.392-.72-2.496-1.872-3.216-3.84a33.15 33.15 0 00.504-2.904l-2.904-.264c-.432 4.08-1.632 7.416-4.224 9.36.648.384 1.872 1.392 2.328 1.896 1.368-1.176 2.424-2.736 3.216-4.608 2.184 3.48 5.472 4.224 9.96 4.224h5.976c.144-.864.6-2.232 1.032-2.904-1.632.048-5.592.048-6.864.048-1.008 0-1.944-.048-2.832-.168v-3.456zm29.304.168a9.136 9.136 0 01-1.752 1.536c-.288-.456-.528-.984-.744-1.536h2.496zm-10.056-2.088v-1.248c1.2-.168 2.328-.36 3.312-.576l-1.56-1.608h7.104l-1.488 1.56c1.2.432 2.568 1.2 3.504 1.872h-3.96a18.144 18.144 0 01-.408-3.12h-2.736c.072 1.08.192 2.136.384 3.12h-4.152zm10.488 2.088h3.6v-2.088h-2.352l1.272-1.416c-.864-.672-2.472-1.512-3.792-2.016h4.752v-2.16h-9.288v-.888h6.96v-1.968h-6.96v-.864h8.232v-2.112h-4.152a32 32 0 001.248-1.704l-3.168-.6c-.216.672-.648 1.584-1.056 2.304h-4.824c-.264-.672-.864-1.608-1.464-2.232l-2.496.792c.336.432.648.936.912 1.44H323.4v2.112h8.088v.864h-6.816v1.968h6.816v.888h-9.168v2.16h8.808c-2.112.48-5.52.816-8.448.984.24.48.504 1.224.6 1.704a51.906 51.906 0 003.744-.216v.96h-4.752v2.088h4.752v1.056c-1.824.096-3.504.168-4.824.216l.216 2.184c1.344-.096 2.928-.192 4.608-.336v.96c0 .312-.12.408-.48.408-.36.024-1.68.048-2.712-.024a9.25 9.25 0 01.816 2.184c1.776 0 3-.024 3.936-.36.888-.312 1.152-.864 1.152-2.136v-1.224l3.576-.288.024-1.92-3.6.192v-.912h4.68a13.44 13.44 0 001.2 2.856c-1.488.648-3.168 1.152-4.824 1.512.456.552 1.128 1.68 1.392 2.256a27.137 27.137 0 004.872-1.848c1.152 1.176 2.52 1.848 4.104 1.848 1.896 0 2.688-.576 3.072-3.264-.648-.192-1.536-.6-2.088-1.104-.12 1.344-.264 1.776-.84 1.776-.624 0-1.224-.24-1.8-.696 1.08-.768 2.064-1.632 2.808-2.616l-2.088-.72zm13.248-12.672v1.296H349.8v-1.296h3.672zm-3.672 4.584v-1.368h3.672v1.368H349.8zm6.336 2.16v-8.928h-9.168v21.504h2.832V55.512h6.336zm2.76 4.008v2.832h-3.96V59.52h3.96zm2.664 5.184v-7.536h-9.288v8.88h2.664v-1.344h6.624zm-1.056-11.328v-1.392h3.792v1.392h-3.792zm3.792-4.632v1.32h-3.792v-1.32h3.792zm2.904-2.16h-9.408v8.952h6.504v9.096c0 .432-.168.576-.624.576-.456.024-2.088.048-3.48-.048.408.768.864 2.112.96 2.928 2.208 0 3.72-.072 4.704-.552 1.008-.456 1.344-1.272 1.344-2.856V46.584zm21.216 6.408h-4.368v-1.104h4.368v1.104zm0 2.952h-4.368V54.84h4.368v1.104zm0 2.976h-4.368v-1.152h4.368v1.152zm-6.912-8.952v10.896h9.552V49.968h-4.08l.576-1.296h4.2V46.68H380.76v1.992h4.224c-.144.432-.264.888-.408 1.296h-3.072zm5.304 11.952c1.2.84 2.688 2.256 3.432 3.192l2.04-1.2c-.744-.912-2.232-2.184-3.504-3.024l-1.968 1.032zm-3.36-.888c-.84 1.008-2.28 1.944-3.696 2.592.504.384 1.416 1.2 1.824 1.656 1.488-.792 3.168-2.16 4.2-3.504l-2.328-.744zm-6.288-11.4h-3.432v-1.128h3.432v1.128zm0 2.976h-3.432v-1.176h3.432v1.176zm2.64-6h-8.616v7.92h8.616v-7.92zm-2.856 15.384h3.456v-2.064h-3.456V57.96h3.912v-2.064h-10.752v2.064h4.44v5.472c-.48-.504-.888-1.128-1.224-1.896.072-.864.12-1.728.144-2.616h-2.28c-.072 2.88-.312 5.712-1.656 7.368.576.432 1.296 1.344 1.656 1.944.816-.984 1.344-2.256 1.68-3.696 1.92 2.616 4.896 3.072 9.408 3.072h9.24c.144-.696.528-1.8.912-2.352-1.968.096-8.52.096-10.152.096-2.136 0-3.888-.096-5.328-.528v-2.832zm34.296-5.88c-.744 1.92-1.824 3.576-3.192 4.944-1.416-1.392-2.52-3.072-3.312-4.944h6.504zm-9.36-6.672h4.8a86.922 86.922 0 01-.984 3.96h-3.864c.024-.744.048-1.44.048-2.112V49.44zm11.16 3.84l-.528.12h-3.6c.456-1.992.96-4.536 1.344-6.744h-15.168v2.784h3.792v1.824c0 3.888-.48 9.936-5.232 13.992.624.552 1.656 1.728 2.064 2.472 3.84-3.336 5.304-7.704 5.856-11.616h.36c1.008 2.64 2.256 4.92 3.888 6.792-1.896 1.32-4.128 2.256-6.552 2.832.6.648 1.32 1.848 1.656 2.664 2.664-.792 5.088-1.848 7.128-3.36 1.752 1.392 3.816 2.4 6.264 3.12.456-.816 1.32-2.064 1.992-2.712-2.256-.528-4.2-1.344-5.88-2.448 2.16-2.232 3.768-5.112 4.704-8.832l-2.088-.888zm10.272 10.272V60.72h11.112v2.832h-11.112zm11.112-8.352v2.832h-11.112V55.2h11.112zm0-5.448v2.76h-11.112v-2.76h11.112zm-13.992-2.784v20.856h2.88v-1.488h11.112v1.488h3.024V46.968h-17.016zm37.056 2.928h-1.272v-1.08h1.272v1.08zm3.408 2.016v1.8h-1.368v-1.8h1.368zm-4.68 0h1.272v1.8h-1.272v-1.8zm-3.312 0h1.296v1.8h-1.296v-1.8zm1.296-2.016h-3.6v5.832h12.768v-5.832h-3.84v-1.08h4.272V46.56h-13.656v2.256h4.056v1.08zm8.184 8.832v-2.16h-10.776v2.16h10.776zm-11.808-.6c-.408-.672-2.208-3.48-2.832-4.296v-1.056h2.328v-2.64h-2.328v-4.464h-2.592v4.464h-3v2.64h2.64c-.648 2.712-1.92 6.048-3.24 7.896.408.744 1.032 2.064 1.32 2.904.864-1.368 1.632-3.36 2.28-5.52v10.008h2.592V57.408c.48.96.912 1.968 1.176 2.664l1.656-1.944zm1.608 4.296c-.648 1.344-1.8 2.76-3.024 3.696.6.36 1.656 1.08 2.136 1.512 1.2-1.104 2.544-2.832 3.36-4.512l-2.472-.696zm11.664-.504v-2.232h-13.68v2.232h5.448v6.144h2.544V61.92h5.688zm-4.8 1.584c1.08 1.2 2.328 2.88 2.856 3.96l2.208-1.296c-.624-1.032-1.872-2.592-3-3.72l-2.064 1.056z" fill="#2F80ED"/><path d="M602.259 26.384c-1.466-.006-2.728-.367-3.785-1.083-1.051-.716-1.86-1.753-2.429-3.11-.562-1.359-.84-2.992-.835-4.901 0-1.904.281-3.526.844-4.867.568-1.34 1.378-2.36 2.429-3.06 1.057-.704 2.315-1.056 3.776-1.056 1.46 0 2.715.352 3.767 1.057 1.056.704 1.869 1.727 2.437 3.068.568 1.335.85 2.954.844 4.858 0 1.915-.284 3.55-.852 4.909-.563 1.358-1.37 2.395-2.421 3.11-1.051.717-2.31 1.075-3.775 1.075zm0-3.06c1 0 1.798-.503 2.394-1.509.597-1.005.892-2.514.887-4.525 0-1.324-.137-2.426-.409-3.307-.267-.88-.648-1.543-1.142-1.986a2.492 2.492 0 00-1.73-.665c-.995 0-1.79.497-2.387 1.492-.596.994-.898 2.483-.903 4.466 0 1.34.133 2.46.4 3.358.273.892.657 1.562 1.151 2.011a2.521 2.521 0 001.739.665zm16.131 2.915c-1.273 0-2.406-.22-3.401-.657-.988-.443-1.77-1.05-2.343-1.823-.569-.779-.861-1.677-.878-2.694h3.716c.022.426.162.801.417 1.125.262.319.608.566 1.04.742.432.176.918.264 1.457.264.563 0 1.06-.1 1.492-.298.432-.2.77-.475 1.014-.827s.367-.759.367-1.219c0-.466-.131-.878-.392-1.236-.256-.363-.625-.647-1.108-.852-.478-.204-1.046-.307-1.705-.307h-1.628v-2.71h1.628c.557 0 1.048-.096 1.474-.29.432-.193.768-.46 1.006-.8a2.08 2.08 0 00.358-1.211 2.094 2.094 0 00-1.185-1.935c-.369-.187-.801-.28-1.295-.28-.5 0-.957.09-1.372.272a2.397 2.397 0 00-.997.758c-.25.33-.384.716-.401 1.16h-3.537c.017-1.006.304-1.893.861-2.66.557-.767 1.307-1.366 2.25-1.798.949-.437 2.02-.656 3.213-.656 1.205 0 2.259.219 3.162.656.903.438 1.605 1.028 2.105 1.773.506.738.756 1.568.75 2.488.006.978-.298 1.793-.912 2.447-.608.653-1.4 1.068-2.378 1.244v.136c1.284.165 2.262.61 2.932 1.338.676.722 1.012 1.625 1.006 2.71.006.995-.281 1.878-.861 2.651-.574.773-1.366 1.38-2.378 1.824-1.011.443-2.17.665-3.477.665z" fill="#D1D1D6"/><path d="M611.76 61.68a9.126 9.126 0 01-1.512 1.68c-1.08-.6-2.184-1.152-3.192-1.68h4.704zm1.704-1.968l-.432.072h-7.8v1.896h.576l-.96 1.152c1.032.552 2.16 1.2 3.336 1.848-1.248.624-2.712 1.08-4.272 1.344.456.528.96 1.44 1.2 2.064 1.992-.456 3.84-1.128 5.352-2.064a51.153 51.153 0 013.264 2.088l1.44-1.896c-.72-.48-1.704-1.08-2.784-1.68 1.152-1.128 2.04-2.52 2.64-4.272l-1.56-.552zm1.248-11.52c-.648.768-1.752 1.776-2.664 2.496a17.815 17.815 0 01-1.272-1.08c.912-.648 1.944-1.512 2.928-2.328l-2.04-1.464c-.576.672-1.464 1.536-2.256 2.208a9.76 9.76 0 01-1.368-2.256l-2.28.672c1.152 2.568 2.76 4.704 4.848 6.36h-4.584v1.704c0 1.08-.216 2.232-1.704 3.216v-4.776h-3.144c1.944-1.464 3.552-3.336 4.512-5.688l-1.752-.864-.48.12h-6.264v2.232h4.728c-.408.552-.888 1.056-1.392 1.536-.696-.528-1.704-1.104-2.52-1.512l-1.632 1.512c.72.408 1.584.96 2.232 1.44-1.248.792-2.616 1.44-4.032 1.848.504.504 1.2 1.464 1.536 2.088a19.282 19.282 0 002.184-.936v.384h3.48v1.68h-4.248c-.216 1.896-.6 4.272-.936 5.832h5.04c-.168 1.632-.384 2.4-.672 2.664-.216.216-.48.24-.864.24-.528 0-1.704-.024-2.904-.12.432.648.768 1.632.816 2.376 1.272.048 2.52.048 3.168-.024.84-.048 1.416-.24 1.92-.792.624-.624.912-2.184 1.176-5.424.024-.336.048-.984.048-.984h-4.992c.072-.528.144-1.104.24-1.656h4.752v-.72c.48.432 1.176 1.128 1.44 1.536 1.992-1.272 2.568-3.072 2.64-4.752h2.208v1.392c0 1.944.384 2.76 2.4 2.76h1.488c.504 0 1.056-.024 1.392-.144-.096-.552-.144-1.368-.192-1.944-.312.096-.888.12-1.224.12h-1.176c-.312 0-.36-.192-.36-.768v-2.064c.864.456 1.752.84 2.736 1.152.384-.696 1.104-1.704 1.704-2.256a17.303 17.303 0 01-3.432-1.344c.888-.624 1.92-1.392 2.832-2.208l-2.064-1.464zm18.072 7.92h4.416v1.44h-4.416v-1.44zm0-3.48h4.416v1.392h-4.416v-1.392zm0-3.504h4.416v1.392h-4.416v-1.392zm-5.04 11.592c1.08 1.008 2.496 2.472 3.168 3.336l2.064-1.728c-.576-.672-1.608-1.68-2.544-2.544h9.504V46.872h-9.744v12.696l-.48-.432-1.968 1.584zm-4.584-.648h2.712v-5.016c.864.792 1.752 1.656 2.304 2.256l1.488-2.28c-.552-.456-2.832-2.088-3.792-2.64v-.888h3.384V49.08h-3.384v-3.384h-2.712v3.384h-3.936v2.424h3.48c-.936 2.088-2.496 4.176-4.08 5.352.576.456 1.416 1.344 1.824 1.968.984-.864 1.896-2.064 2.712-3.48v4.728zm-1.752 6.696c.84-1.392 1.536-3.528 2.016-5.232l-2.544-1.008c-.408 1.704-1.224 3.672-2.088 4.944l2.616 1.296zm7.248-1.68c-1.296 0-1.536-.096-1.536-.816v-3.24h-2.808v3.288c0 2.496.816 3.288 4.08 3.288h4.32c2.64 0 3.432-.84 3.792-4.272-.792-.144-1.992-.552-2.568-1.008-.144 2.424-.312 2.76-1.44 2.76h-3.84zm7.176-3.72c.936 1.608 2.256 3.72 2.832 4.992l2.664-1.368c-.648-1.248-2.04-3.288-3-4.776l-2.496 1.152zm17.808-7.584c.456.48.936 1.152 1.152 1.632.168-.072.336-.168.504-.24-.288 1.704-.864 3.456-1.656 4.68v-6.072zm-3.696 5.928V57.72h1.368v1.992h-1.368zm-3.24-1.992h1.368v1.992h-1.392c.024-.552.024-1.08.024-1.584v-.408zm2.52-7.656c-.216.6-.432 1.224-.672 1.752h-2.064c.288-.552.552-1.152.816-1.752h1.92zm.72 3.84h1.368v1.8h-1.368v-1.8zm-3.24 0h1.368v1.8h-1.368v-1.8zm18.552 7.68h-4.08v-2.16h3.6v-2.4h-3.6v-2.16h-2.712v2.16h-1.176c.144-.504.24-1.032.336-1.536l-2.136-.432c2.448-1.344 3.36-3.336 3.768-5.832h2.784c-.096 1.992-.216 2.808-.432 3.072-.168.216-.36.264-.648.264-.336 0-.984-.024-1.728-.096.36.6.6 1.56.648 2.304.96.024 1.896 0 2.424-.072.6-.096 1.056-.288 1.464-.792.528-.624.72-2.28.84-6.096.024-.312.048-.912.048-.912H654v2.328h2.688c-.336 1.752-1.056 3.144-3.048 4.056v-1.464h-2.688c.504-.984.984-2.088 1.32-3.024l-1.632-1.008-.36.12h-2.184c.192-.552.36-1.128.504-1.704l-2.52-.528c-.648 2.808-1.92 5.616-3.552 7.368a15.461 15.461 0 011.872 1.536v3.552c0 2.688-.12 6.264-1.728 8.736.528.24 1.56.888 1.968 1.272 1.104-1.728 1.656-4.056 1.896-6.312h4.776v3.456c0 .312-.12.408-.408.408s-1.224 0-2.184-.048c.36.648.744 1.728.816 2.424 1.464 0 2.448-.072 3.192-.48.72-.408.912-1.128.912-2.256v-5.064c.6.264 1.464.72 1.872 1.008.36-.528.672-1.152.96-1.848h1.992v2.16h-4.44v2.448h4.44v3.96h2.712v-3.96h4.08v-2.448zm9.168-13.224c-1.008-.84-3.048-1.872-4.56-2.448l-1.584 2.136c1.584.648 3.552 1.8 4.488 2.64l1.656-2.328zm-1.464 6.504c-1.032-.816-3.048-1.8-4.608-2.376l-1.464 2.16c1.536.648 3.552 1.752 4.464 2.592l1.608-2.376zm-.696 3.456c-1.44 2.784-3.264 5.76-4.536 7.56l2.424 1.92c1.416-2.328 2.928-5.064 4.224-7.536l-2.112-1.944zm9.576-6.288h2.76v4.344h-2.832a40.67 40.67 0 00.072-2.4v-1.944zm7.344 7.032v-2.688h-1.8v-7.032h-5.544v-3.648h-2.856v3.648h-4.2v2.688h4.2v1.944c0 .816-.024 1.608-.072 2.4h-5.328v2.688h4.896c-.696 2.664-2.28 5.112-5.88 7.008.72.432 1.848 1.416 2.376 2.04 4.176-2.352 5.832-5.592 6.48-9.048h7.728zm-7.152 1.272c1.608 2.448 3.792 5.784 4.776 7.752l2.544-1.464c-1.056-1.92-3.36-5.16-4.968-7.488l-2.352 1.2zm30.696-8.016v-2.808h-9.84l1.656-.72c-.36-.912-1.08-2.352-1.728-3.432l-2.808 1.056c.48.96 1.056 2.16 1.44 3.096H691.32v2.808h6.048c-.24 5.064-.696 10.464-6.456 13.512.768.6 1.656 1.584 2.088 2.376 4.32-2.496 6.096-6.24 6.912-10.248h7.56c-.336 4.296-.768 6.36-1.392 6.888-.336.264-.648.312-1.176.312-.72 0-2.4-.024-4.032-.192.552.792.96 1.992 1.008 2.808 1.632.072 3.216.096 4.152 0 1.08-.12 1.848-.336 2.568-1.128.984-1.032 1.488-3.696 1.92-10.2.072-.384.096-1.248.096-1.248H700.32c.12-.96.168-1.92.24-2.88h12.168zm15.6 1.632c-.528.528-1.152.96-1.848 1.344a95.379 95.379 0 00-3.936-.744c.216-.192.408-.384.6-.6h5.184zm8.352 3.984c-1.8-.624-4.152-1.296-6.744-1.92a8.991 8.991 0 001.824-2.064h4.896V51.72h-3.768c.12-.288.24-.6.336-.912l-2.784-.552c-.168.504-.36 1.008-.576 1.464h-4.632c.456-.528.84-1.056 1.224-1.56l-1.728-.528h8.808v1.32h2.76V47.28h-8.568a16.714 16.714 0 00-.936-1.608l-3.024.6c.168.312.336.648.504 1.008h-8.52v3.672h2.64v-1.32h5.208a25.022 25.022 0 01-1.512 2.088h-6.744v2.232h4.776a25.38 25.38 0 01-1.992 1.968c1.416.216 2.76.456 4.104.72-1.968.336-4.296.528-7.056.6.408.6.768 1.488.984 2.352 4.728-.264 8.304-.768 10.992-1.872 2.736.672 5.112 1.368 6.816 2.064l2.712-1.848zm.24 2.424h-9.552v-1.656h-2.856v1.656h-9.36v2.352h5.232c-1.104 1.248-3.24 2.4-5.28 3.072.672.456 1.848 1.344 2.4 1.896 2.04-.912 4.392-2.4 5.784-4.032l-2.808-.936h4.032v5.376h2.856v-5.376h2.76l-1.632 1.368c2.088 1.08 4.776 2.736 6.048 3.888l2.232-1.992c-1.248-1.008-3.528-2.328-5.4-3.264h5.544V60.36z" fill="#2F80ED"/><path d="M899.259 26.384c-1.466-.006-2.728-.367-3.785-1.083-1.051-.716-1.86-1.753-2.429-3.11-.562-1.359-.84-2.992-.835-4.901 0-1.904.281-3.526.844-4.867.568-1.34 1.378-2.36 2.429-3.06 1.057-.704 2.315-1.056 3.776-1.056 1.46 0 2.715.352 3.767 1.057 1.056.704 1.869 1.727 2.437 3.068.568 1.335.85 2.954.844 4.858 0 1.915-.284 3.55-.852 4.909-.563 1.358-1.37 2.395-2.421 3.11-1.051.717-2.31 1.075-3.775 1.075zm0-3.06c1 0 1.798-.503 2.394-1.509.597-1.005.892-2.514.887-4.525 0-1.324-.137-2.426-.409-3.307-.267-.88-.648-1.543-1.142-1.986a2.492 2.492 0 00-1.73-.665c-.995 0-1.79.497-2.387 1.492-.596.994-.898 2.483-.903 4.466 0 1.34.133 2.46.4 3.358.273.892.657 1.562 1.151 2.011a2.521 2.521 0 001.739.665zm9.415-.392v-2.906l7.287-11.48h2.506v4.022h-1.483l-4.594 7.27v.136h10.355v2.958h-14.071zM917.052 26v-3.954l.068-1.287V8.545h3.46V26h-3.528z" fill="#D1D1D6"/><path d="M909.84 53.328a24.294 24.294 0 01-2.304 5.328c-.408-1.92-.744-4.176-.96-6.576h7.416v-2.832h-2.496l1.152-1.224c-.84-.792-2.592-1.896-3.912-2.568l-1.728 1.704c.984.6 2.184 1.368 3.072 2.088h-3.672a58.177 58.177 0 01-.048-3.552h-3c0 1.2.048 2.376.096 3.552h-9.792v7.008c0 3.12-.168 7.296-1.992 10.176.648.336 1.92 1.392 2.424 1.944 1.968-2.928 2.472-7.608 2.568-11.112h3.12c-.072 3.024-.168 4.176-.408 4.512-.192.24-.384.288-.72.288-.384 0-1.2-.024-2.064-.096.432.72.744 1.824.792 2.664 1.104.024 2.136.024 2.76-.072.72-.12 1.2-.336 1.656-.96.552-.696.696-2.832.768-7.872 0-.336.024-1.08.024-1.08h-5.928V52.08h6.96c.312 3.6.84 6.96 1.656 9.672a18.335 18.335 0 01-4.896 3.888c.6.552 1.632 1.728 2.064 2.352a20.342 20.342 0 004.056-3.264c1.056 1.968 2.376 3.168 4.056 3.168 2.232 0 3.192-1.056 3.648-5.496-.768-.312-1.776-.936-2.424-1.608-.12 3-.408 4.2-.984 4.2-.768 0-1.536-1.008-2.232-2.736 1.728-2.328 3.144-5.112 4.128-8.232l-2.856-.696zm11.832 1.104v-1.536h3.864v1.536h-3.864zm0-5.28h3.864v1.536h-3.864v-1.536zm10.704 1.536h-3.816v-1.536h3.816v1.536zm0 3.744h-3.816v-1.536h3.816v1.536zm5.352 6.408v-2.616h-9.168v-1.416h6.96V46.776h-16.848v10.032h6.864v1.416h-9.192v2.616h7.104c-2.016 1.8-4.992 3.384-7.848 4.224.648.6 1.512 1.704 1.944 2.376 2.856-1.056 5.784-2.928 7.992-5.136v5.784h3.024v-5.904c2.232 2.184 5.16 4.056 7.944 5.112.408-.72 1.272-1.848 1.92-2.424-2.736-.792-5.664-2.328-7.776-4.032h7.08zm3.456 5.616c.408-1.344.72-3.624.864-5.208l-1.416-.504c-.168 1.584-.528 3.792-.984 5.184l1.536.528zm1.128-5.208c.096 1.392.168 3.216.12 4.416l1.248-.144c0-1.2-.072-3-.192-4.368l-1.176.096zm1.416-.168c.288 1.224.576 2.856.648 3.912l1.2-.24c-.096-1.032-.408-2.616-.696-3.864l-1.152.192zm-.648-4.968h1.488v1.512h-1.488v-1.512zm1.488-7.2v1.584h-1.488v-1.584h1.488zm0 5.112h-1.488v-1.416h1.488v1.416zm8.712-3.072c.84-.672 1.632-1.392 2.304-2.16.816.744 1.728 1.464 2.664 2.16h-4.968zm-1.68 9.744c-.432 2.28-1.344 4.368-2.76 5.712.288-1.104.408-3.408.528-7.872.024-.288.024-.912.024-.912h-2.664v-1.512h2.136v-2.088h-2.136v-1.416h2.064v-1.32c.528.432 1.248 1.2 1.584 1.656a62.31 62.31 0 001.656-1.032v1.2h7.056v-1.584c.744.504 1.488.936 2.232 1.32.168-.72.648-1.968 1.056-2.616-1.848-.696-3.936-1.968-5.376-3.24.168-.24.336-.48.48-.744l-2.544-.888c-1.272 2.088-3.6 4.272-6.144 5.688v-.552h-2.064v-1.584h2.448v-2.328h-8.304v13.368h6.264c-.048 1.152-.072 2.112-.12 2.88a19.174 19.174 0 00-.84-2.328l-1.008.336c.384.96.792 2.256.96 3.096l.84-.312c-.096 1.248-.192 1.824-.336 2.064-.168.24-.336.264-.6.264-.24 0-.744 0-1.344-.072.288.576.528 1.464.552 2.112.768.024 1.512 0 1.992-.096.552-.072.96-.264 1.32-.792.096-.12.168-.288.24-.528.552.408 1.44 1.128 1.8 1.536.792-.816 1.488-1.848 2.064-3.048.672.504 1.32 1.08 1.704 1.488l1.392-1.848c-.48-.528-1.392-1.224-2.256-1.752.192-.6.36-1.224.504-1.848l-2.4-.408zm6.168-4.536h1.512v2.256h-1.512V56.16zm-1.848 4.056h5.328v-5.832h-5.328v5.832zm-4.056-4.056h1.32v2.256h-1.32V56.16zm-1.848 4.056h5.136v-5.832h-5.136v5.832zm7.44.36c-.36 2.4-1.176 4.584-2.568 5.952.6.36 1.656 1.152 2.064 1.584.528-.576 1.008-1.296 1.416-2.064.816.624 1.632 1.296 2.088 1.8l1.656-1.944c-.624-.6-1.776-1.44-2.784-2.112.288-.888.504-1.824.672-2.784l-2.544-.432zm24.48-7.752c-.384 2.448-.984 4.584-1.872 6.408-.96-1.728-1.728-3.696-2.28-5.76.072-.216.168-.432.24-.648h3.912zm4.272 0v-2.712h-7.32c.336-1.272.6-2.616.84-3.96l-2.904-.48c-.576 3.864-1.68 7.512-3.552 9.84v-9.456h-2.832v13.152l-2.544.768V48.264h-2.808v11.568c0 .984-.432 1.44-.888 1.704.432.624.912 1.92 1.104 2.616.528-.432 1.32-.864 5.136-2.208v6.192h2.832V56.088c.6.624 1.416 1.68 1.728 2.232.432-.528.864-1.104 1.248-1.728.6 1.92 1.368 3.672 2.28 5.232-1.296 1.704-2.904 3.024-4.992 4.032.576.528 1.512 1.728 1.848 2.328 1.896-1.056 3.48-2.352 4.752-3.936 1.224 1.536 2.64 2.808 4.296 3.768.432-.768 1.32-1.848 1.944-2.352-1.8-.912-3.312-2.208-4.584-3.816 1.416-2.472 2.352-5.472 2.976-9.024h1.44zm19.102-4.728h-2.47v13.872h2.47V48.096zm-11.254 0c-.816-.72-2.496-1.68-3.792-2.232l-1.608 2.112c1.32.6 2.952 1.656 3.72 2.424l1.68-2.304zm-.912 6.24c-.816-.744-2.52-1.584-3.84-2.088l-1.56 2.088c1.32.6 2.952 1.56 3.744 2.304l1.656-2.304zm-1.896 4.32c-.936 2.808-2.208 5.856-3.096 7.704l2.568 1.464c.984-2.352 2.04-5.112 2.832-7.68l-2.304-1.488zm3.816 3.792c-.648 1.56-1.752 3.168-2.88 4.248.624.336 1.704 1.032 2.232 1.464 1.152-1.2 2.448-3.168 3.24-4.992l-2.592-.72zm3.36 1.008c.888 1.2 1.966 2.808 2.426 3.816l2.25-1.344c-.5-1.008-1.63-2.568-2.52-3.672l-2.156 1.2zm.72-12.36h-2.352V49.08h2.352v2.016zm0 4.32h-2.352v-2.04h2.352v2.04zm0 4.368h-2.352V57.72h2.352v2.064zm2.496-13.176h-7.248v15.648h7.248V46.608zm5.16-.912v19.176c0 .36-.12.48-.53.504-.38 0-1.53 0-2.76-.048.36.792.72 1.992.82 2.736 1.87 0 3.12-.096 3.96-.552.84-.432 1.1-1.176 1.1-2.64V45.696h-2.59zm13.18 3.936h-3.6l1.58-.864c-.36-.888-1.1-2.208-1.73-3.192l-2.21 1.032c.51.912 1.13 2.112 1.52 3.024h-3.58v2.256h8.02v-2.256zm-.36 5.496v-2.16h-6.63v2.16h6.63zm0 1.056h-6.63v2.16h6.63v-2.16zm-2.33 5.592v2.688h-1.9v-2.688h1.9zm2.42-2.28h-6.69v8.28h2.37v-1.008h4.32v-7.272zm5.28-1.56h2.04v-2.52h-6.62v2.52h1.97v5.184c-.94.144-1.78.312-2.52.432l.69 2.784c2.11-.528 4.8-1.176 7.32-1.848l-.24-2.472c-.89.192-1.77.384-2.64.576v-4.656zm9.24-5.256v-2.64h-1.97l1.78-1.152c-.38-.792-1.22-1.992-1.99-2.832l-1.92 1.128c.69.888 1.46 2.04 1.85 2.856h-1.97c0-1.416 0-2.904.05-4.344h-2.79c0 1.44 0 2.904.03 4.344h-6.75v2.64h6.82c.21 8.208 1.05 15.384 4.08 15.384 1.87 0 2.59-1.032 2.93-4.776-.63-.312-1.47-.96-2.04-1.584-.05 2.424-.22 3.6-.48 3.6-.89 0-1.61-5.712-1.8-12.624h4.17z" fill="#2F80ED"/><path d="M1140 104l-10-5.773v11.547l10-5.774zM0 105h1131v-2H0v2z" fill="#1C1C1E"/><circle cx="6" cy="104" r="5" fill="#fff" stroke="#1C1C1E" stroke-width="2"/><circle cx="302" cy="104" r="5" fill="#fff" stroke="#1C1C1E" stroke-width="2"/><circle cx="598" cy="104" r="5" fill="#fff" stroke="#1C1C1E" stroke-width="2"/><circle cx="894" cy="104" r="5" fill="#fff" stroke="#1C1C1E" stroke-width="2"/><path d="M11.02 151.94c0 .18-.04.26-.26.26-.2.02-.8.02-1.5-.02.16.3.32.7.38 1.02.96 0 1.66 0 2.1-.18.44-.2.56-.46.56-1.08v-5.26h-.54v-.02H9.14v-2.14h3.3v-1.26h-3.3v-1.86h-1.3v6.46h3.18v4.08zm-2.54-3.22c-.18 1.22-.48 2.42-1.1 3.3.3.14.82.46 1.04.64.6-.96 1.02-2.34 1.22-3.74l-1.16-.2zm-1.66 6.46c-1.26 1.1-3.66 2.42-5.56 3.2.28.32.68.82.88 1.12 1.94-.84 4.32-2.18 5.96-3.42l-1.28-.9zm5.1.96c2.08 1.02 4.3 2.34 5.66 3.3l.98-1.12c-1.42-.96-3.7-2.2-5.82-3.2l-.82 1.02zm5.18-2.66c.18-2.96.28-7.7.3-11.2h-4.24v1.3h2.88c0 .8-.02 1.64-.04 2.5h-2.66v1.28h2.64c-.04.84-.06 1.66-.1 2.46h-2.64v1.26h2.6c-.04.86-.1 1.7-.14 2.4H4.36l-.08-2.46h2.58v-1.28H4.22l-.08-2.44h2.64v-1.28H4.1l-.08-2.34c1.02-.32 2.12-.7 3.04-1.08l-.72-1.22c-.96.5-2.46 1.1-3.7 1.54l.38 10.56H1v1.38h18.02v-1.38H17.1zm9.518-5.36c1.7-.38 3.6-.84 5.4-1.42 1.62.5 3.08.98 4.24 1.42h-9.64zm8.82-3.8c-.9.48-2.06.92-3.34 1.34-1.7-.5-3.46-.96-5.02-1.34h8.36zm4.2 5.04v-1.24h-2.9l.8-.74c-1-.36-2.36-.8-3.82-1.24 1.14-.4 2.18-.86 3.06-1.34l-.8-.48h3.04v-1.22h-6.7c-.38-.62-1-1.42-1.52-2.02l-1.06.54c.36.44.74.98 1.08 1.48h-7.38v1.22h3.2l-.88.72c1.42.32 2.98.72 4.5 1.16-1.72.48-3.54.88-5.12 1.18.2.18.52.48.72.74h-2.52v4.2c0 2-.2 4.58-1.82 6.44.32.18.9.68 1.12.96 1.8-2.06 2.14-5.12 2.14-7.38v-2.98h14.86zm-6.5 8.28v-2.02h4.94v-1.2h-4.94v-1.78h5.38v-1.22h-5.38v-1.7h-1.46v1.7h-3.5c.2-.46.38-.9.56-1.36l-1.28-.36c-.58 1.6-1.54 3.14-2.64 4.18.26.26.64.96.78 1.22.68-.64 1.34-1.5 1.9-2.46h4.18v1.78h-4.66v1.2h4.66v2.02h-6.54v1.24h14.82v-1.24h-6.82zm22.498-10.32h-7.94v-3.78h7.94v3.78zm1.5-5.2h-10.88v6.62h10.88v-6.62zm-8.18 10.16v4.74h-4.18v-4.74h4.18zm-5.6 7.26h1.42v-1.08h4.18v.9h1.46v-8.52h-7.06v8.7zm10.68-2.52v-4.74h4.54v4.74h-4.54zm-1.44-6.18v8.7h1.44v-1.08h4.54v.94h1.46v-8.56h-7.44zm28.679-8.58h-10.54v1.36h10.54v-1.36zm-.12 9.04c-.48-.9-1.46-2.28-2.4-3.4.66-1 1.48-2.26 2.06-3.28l-1.32-.36c-.46.94-1.4 2.46-2.24 3.68 1.14 1.34 2.2 2.9 2.7 3.94l1.2-.58zm-5.08-7.02c-.46.94-1.36 2.44-2.16 3.64 1.08 1.34 2.06 2.88 2.5 3.92l1.22-.56c-.46-.88-1.38-2.26-2.26-3.4.68-.98 1.44-2.26 2-3.26l-1.3-.34zm-1.9 7.08c-.44-.9-1.32-2.3-2.2-3.46.66-1 1.42-2.28 1.96-3.3l-1.3-.34c-.46.94-1.3 2.46-2.1 3.68 1.02 1.36 1.96 2.9 2.38 3.94l1.26-.52zm-3.66 1.54c-.2-1.04-.76-2.8-1.3-4.1l-1.14.3c.24.62.46 1.3.68 1.96l-3.14.42c1.6-1.84 3.16-4.16 4.44-6.44l-1.28-.76c-.42.9-.94 1.82-1.44 2.66l-2.06.16c1.08-1.5 2.16-3.42 3.04-5.32l-1.32-.54c-.82 2.16-2.22 4.46-2.64 5.04-.42.62-.76 1.02-1.1 1.1.16.38.38 1.02.46 1.32.28-.14.7-.22 2.76-.46-.72 1.06-1.34 1.9-1.64 2.26-.58.72-1.04 1.22-1.48 1.32.18.36.4 1.08.48 1.38.4-.2 1-.34 5.24-.98.1.4.18.78.22 1.06l1.22-.38zm-6.3 1.16c-.2 1.64-.5 3.42-.96 4.66.3.12.92.32 1.18.46.44-1.26.82-3.18 1.02-4.9l-1.24-.22zm2.04.16c.24 1.34.46 3.08.5 4.2l1.2-.2c-.06-1.16-.3-2.88-.56-4.2l-1.14.2zm1.94-.38c.38 1.06.8 2.46.98 3.38l1.1-.38c-.16-.9-.62-2.28-1.02-3.34l-1.06.34zm8.42 3.86v-3.8h4.04v-1.34h-9.48v1.34h3.98v3.8h-5.08v1.36h11.38v-1.36h-4.84zm13.718-3.72l-2.18.72v-4.94h2.02v-1.4h-2.02v-4.34h2.3v-1.4h-6.2v1.4h2.48v4.34h-2.28v1.4h2.28v5.38c-1.02.34-1.94.62-2.68.84l.34 1.5c1.78-.58 4.06-1.36 6.2-2.08l-.26-1.42zm2.46-6.76h3.04v2.56h-3.04v-2.56zm0-3.74h3.04V146h-3.04v-2.52zm7.38 2.52h-3.06v-2.52h3.06V146zm0 3.78h-3.06v-2.56h3.06v2.56zm-2.94 7.74v-2.74h4.66v-1.36h-4.66v-2.34h4.36v-8.9h-10.16v8.9h4.3v2.34h-4.54v1.36h4.54v2.74h-6.08v1.36h12.88v-1.36h-5.3zm12.798-13.76c-.32-.7-.96-1.74-1.54-2.56l-1.16.58c.56.82 1.2 1.94 1.48 2.66l1.22-.68zm.58 10.02v3.3h-3.38v-3.3h3.38zm1.32-1.24h-6v6.72h1.3v-.94h4.7v-5.78zm-5.98-1.48h5.98v-1.18h-5.98v1.18zm0-2.6h5.98v-1.18h-5.98v1.18zm-.84-2.58h7.56v-1.22h-7.56v1.22zm18-.02h-2.44v-4.52h-1.46v4.52h-6.4v1.46h6.4v10.2c0 .4-.14.5-.52.52-.36.02-1.58.02-2.94-.04.2.44.44 1.12.52 1.54 1.82 0 2.9-.04 3.52-.32.62-.22.88-.68.88-1.7v-10.2h2.44v-1.46zm-5.66 8c-.4-1.26-1.36-3.16-2.38-4.6l-1.24.5c.98 1.46 1.94 3.42 2.26 4.7l1.36-.6zm12.738-10.1c-.34-.7-.96-1.74-1.54-2.56l-1.16.58c.58.82 1.2 1.94 1.48 2.66l1.22-.68zm1.66.9h-6.04v1.22h6.04v-1.22zm-.52 5.22h-4.84v1.18h4.84v-1.18zm-1.1 3.9v3.3h-2.6v-3.3h2.6zm1.24-1.24h-5.08v6.72h1.24v-.94h3.84v-5.78zm8.36 1.18v-2.68h1.86v2.68h-1.86zm-2.9 0v-2.68h1.8v2.68h-1.8zm-2.88 0v-2.68h1.78v2.68h-1.78zm8.9-3.94h-10.14v9.84h1.24v-4.64h1.78v4.12h1.1v-4.12h1.8v4.12h1.1v-4.12h1.86v3c0 .16-.04.22-.2.22-.14 0-.58 0-1.1-.02.16.38.32.9.36 1.26.78 0 1.34 0 1.72-.24.38-.22.48-.58.48-1.22v-8.2zm-16.48-2.5v1.18h4.86v-1.18h-4.86zm8.42-.5a20.81 20.81 0 002.86-3.08c.76 1.12 1.74 2.2 2.82 3.08h-5.68zm2.84-5.58c-1.3 2.42-3.96 4.96-6.42 6.14.34.34.7.96.9 1.38.74-.4 1.48-.94 2.2-1.54v.9h6.82v-.78c.62.46 1.26.86 1.92 1.16.24-.42.72-1.04 1.06-1.36-2.16-.82-4.42-2.68-5.68-4.52l.36-.6-1.16-.78zm18.938 14.1h2.98v2.1h-2.98v-2.1zm2.98-4.44h-2.98v-2.02h2.98v2.02zm0 3.28h-2.98v-2.12h2.98v2.12zm-7.9 1.48h-2.22v-5.84h2.22v5.84zm13 1.78h-3.72v-2.1h2.86v-1.16h-2.86v-2.12h2.86v-1.16h-2.86v-2.02h3.12v-1.26h-2.74c-.24-.68-.72-1.6-1.12-2.34l-1.24.5c.28.56.6 1.24.86 1.84h-2.6c.64-.92 1.2-1.92 1.7-3h3.96v2.1h1.34v-3.38h-4.78c.24-.56.44-1.18.62-1.78l-1.4-.28c-.2.7-.44 1.4-.7 2.06h-4.24v3.42h1.3v-2.14h2.34c-1.08 2.18-2.56 4.02-4.4 5.3v-1.4h-3.42c.42-1.38.74-2.9 1-4.44h2.76v-1.36h-6.56v1.36h2.36c-.52 3.3-1.4 6.36-2.84 8.4.28.3.7.98.86 1.28.38-.5.72-1.1 1.04-1.7v6.54h1.28v-1.62h3.52v-6.96c.3.3.7.86.86 1.16.46-.36.94-.74 1.36-1.14v9.54h1.4v-.86h8.08v-1.28zm18.718-14.06c-.16 4.04-.36 5.6-.68 5.96-.18.2-.34.24-.66.24s-1.16-.02-2.08-.1c.24.38.38.92.42 1.32.88.04 1.76.04 2.26 0 .54-.04.92-.18 1.26-.58.48-.62.7-2.42.92-7.48 0-.2.02-.64.02-.64h-9.74v1.28h4.12c-.1.98-.24 1.9-.5 2.76-.76-.66-1.8-1.52-2.64-2.18l-.78.84c.94.78 2.16 1.84 2.9 2.6-.66 1.34-1.74 2.4-3.52 3.16.3.22.7.72.86 1.06 3.68-1.66 4.68-4.64 5.04-8.24h2.8zm-4.96 8.26c.82.92 1.72 2.18 2.14 2.96l.98-.68c-.44-.76-1.36-1.98-2.2-2.86l-.92.58zm-6.48-7.66c-.28-.72-.8-1.82-1.32-2.64l-1.26.44c.48.86 1.02 2 1.24 2.72l1.34-.52zm2.42.64h-7.04v1.24h7.04v-1.24zm-.48 2.7h-6.04v1.18h6.04v-1.18zm-6.04 3.84h6.04v-1.2h-6.04v1.2zm4.66 2.72v3.34h-3.4v-3.34h3.4zm1.28-1.22h-5.94v6.7h1.26v-.92h4.68v-5.78zm1.12 4.98c.68-1.1 1.12-2.92 1.38-4.36l-1.06-.32c-.24 1.36-.72 3.12-1.4 4.2l1.08.48zm4.02.3c-.68 0-.82-.1-.82-.58v-4.86h-1.3v4.86c0 1.38.4 1.78 1.98 1.78h2.6c1.38 0 1.74-.64 1.88-3.36-.36-.08-.9-.28-1.18-.5-.06 2.32-.18 2.66-.84 2.66h-2.32zm4-5.42c.7 1.34 1.4 3.12 1.68 4.2l1.14-.44c-.28-1.06-1.04-2.8-1.76-4.12l-1.06.36zm10.159-4.36c1.7-.38 3.6-.84 5.4-1.42 1.62.5 3.08.98 4.24 1.42h-9.64zm8.82-3.8c-.9.48-2.06.92-3.34 1.34-1.7-.5-3.46-.96-5.02-1.34h8.36zm4.2 5.04v-1.24h-2.9l.8-.74c-1-.36-2.36-.8-3.82-1.24 1.14-.4 2.18-.86 3.06-1.34l-.8-.48h3.04v-1.22h-6.7c-.38-.62-1-1.42-1.52-2.02l-1.06.54c.36.44.74.98 1.08 1.48h-7.38v1.22h3.2l-.88.72c1.42.32 2.98.72 4.5 1.16-1.72.48-3.54.88-5.12 1.18.2.18.52.48.72.74h-2.52v4.2c0 2-.2 4.58-1.82 6.44.32.18.9.68 1.12.96 1.8-2.06 2.14-5.12 2.14-7.38v-2.98h14.86zm-6.5 8.28v-2.02h4.94v-1.2h-4.94v-1.78h5.38v-1.22h-5.38v-1.7h-1.46v1.7h-3.5c.2-.46.38-.9.56-1.36l-1.28-.36c-.58 1.6-1.54 3.14-2.64 4.18.26.26.64.96.78 1.22.68-.64 1.34-1.5 1.9-2.46h4.18v1.78h-4.66v1.2h4.66v2.02h-6.54v1.24h14.82v-1.24h-6.82zm22.498-10.32h-7.94v-3.78h7.94v3.78zm1.5-5.2h-10.88v6.62h10.88v-6.62zm-8.18 10.16v4.74h-4.18v-4.74h4.18zm-5.6 7.26h1.42v-1.08h4.18v.9h1.46v-8.52h-7.06v8.7zm10.68-2.52v-4.74h4.54v4.74h-4.54zm-1.44-6.18v8.7h1.44v-1.08h4.54v.94h1.46v-8.56h-7.44zm14.538 5.76v-3.28h10.46v3.28h-10.46zm10.46-7.98v3.28h-10.46v-3.28h10.46zm0-4.66v3.24h-10.46v-3.24h10.46zm-11.92-1.44v16.9h1.46v-1.36h10.46v1.36h1.54v-16.9h-13.46zM14 176.76h-1.8v-1.34H14v1.34zm3.08 1.14v2.38h-1.96v-2.38h1.96zm-4.88 0H14v2.38h-1.8v-2.38zm-2.92 0h1.78v2.38H9.28v-2.38zm1.78-1.14H8.04v4.66H18.4v-4.66h-3.28v-1.34h3.62v-1.22H7.58v1.22h3.48v1.34zm6.4 6.9v-1.18H8.9v1.18h8.56zm-9.74-.56c-.32-.56-1.84-2.92-2.34-3.58v-1.02h2.2v-1.4h-2.2v-3.84H4.02v3.84h-2.8v1.4H3.8c-.6 2.64-1.86 5.8-3.1 7.44.26.36.64 1 .8 1.44.94-1.4 1.84-3.64 2.52-5.94v10.08h1.36v-10.2c.54 1 1.18 2.2 1.44 2.84l.9-1.06zm1.9 3.84c-.64 1.2-1.66 2.42-2.76 3.24.36.18.9.56 1.16.78 1.04-.9 2.18-2.28 2.92-3.64l-1.32-.38zm9.2-.68v-1.22H7.62v1.22h4.78v5.26h1.34v-5.26h5.08zm-3.66 1.28c1.02 1.02 2.12 2.42 2.64 3.36l1.16-.7c-.54-.92-1.68-2.26-2.72-3.28l-1.08.62zm14.018-1.3c2.1-.74 3.46-2.38 3.46-4.54 0-1.4-.6-2.3-1.7-2.3-.82 0-1.52.5-1.52 1.44s.68 1.42 1.5 1.42c.12 0 .22 0 .34-.02-.1 1.36-.98 2.3-2.52 2.94l.44 1.06zm28.638-9.6h-6.6v-1.58h6.6v1.58zm0 2.64h-6.6v-1.6h6.6v1.6zm1.42-5.34h-9.38v6.48h9.38v-6.48zm-10.86 8.04l-2.02.62v-3.94h2.2v-1.38h-2.2v-3.98h-1.38v3.98h-2.46v1.38h2.46v4.38c-1.02.32-1.94.6-2.68.78l.36 1.44c.72-.22 1.5-.46 2.32-.74v5.14c0 .3-.1.38-.36.38-.22 0-1 0-1.86-.02.2.42.38 1.02.44 1.38 1.26.02 2.02-.04 2.48-.28.5-.24.68-.62.68-1.44v-5.6c.74-.26 1.48-.48 2.2-.74l-.18-1.36zm6.84 4.68h4.14v-1.22h-4.14v-2.34h5.12v-1.26h-11.4v1.26h4.88v6.32c-1.14-.48-2.02-1.4-2.6-3.08.18-.66.3-1.4.4-2.14l-1.38-.16c-.32 2.96-1.2 5.2-2.98 6.6.32.2.88.66 1.1.9 1.06-.94 1.84-2.16 2.4-3.66 1.3 2.8 3.4 3.34 6.28 3.34h3.48c.06-.38.24-1 .44-1.32-.66.02-3.38.02-3.86.02-.66 0-1.3-.04-1.88-.12v-3.14zm23.479-3.46v5.7h-5.48v-6.96h6.3v-6.86h-1.6v5.4h-4.7v-7.2h-1.6v7.2h-4.58v-5.38h-1.54v6.84h6.12v6.96h-5.4v-5.7h-1.6v7.16h14.08v1.14h1.6v-8.3h-1.6zm22.738-9.04h-5.6v1.28h4.22v3.6h-4.22v1.28h5.6v-6.16zm-13.9-.78c-.74 3.08-1.96 6.12-3.48 8.1.26.36.64 1.14.78 1.5.48-.62.92-1.34 1.34-2.1v10.64h1.42v-13.7c.5-1.32.96-2.72 1.32-4.14l-1.38-.3zm6.18 2.04v3.66h-2.76v-3.66h2.76zm1.1 12.08v-1.26h-3.86v-2.48h3.64v-1.26h-3.64v-2.14h4.08v-6.2h-5.46v17.32h1.38v-3.98h3.86zm5.3-4.38c-.38 1.44-.94 2.66-1.66 3.68-.74-1.1-1.26-2.34-1.64-3.68h3.3zm.74-1.3l-.24.04h-5.34v1.26h1.3l-.92.22c.46 1.66 1.1 3.2 1.96 4.5a9.815 9.815 0 01-4.02 2.62c.26.26.6.78.76 1.1 1.52-.6 2.88-1.46 4.04-2.64.9 1.12 1.98 2 3.26 2.58.2-.36.6-.88.9-1.12-1.28-.52-2.4-1.38-3.3-2.46 1.14-1.48 1.98-3.4 2.46-5.82l-.86-.28zm14.898-6.44h3.32v3.2c0 1.5.28 2.06 1.58 2.06h1.3c.38 0 .78-.02.98-.1-.02-.34-.08-.9-.1-1.28-.24.06-.62.1-.88.1h-1.18c-.28 0-.32-.18-.32-.74v-4.64h-6.08v2.2c0 1.42-.34 3.06-2.48 4.28.26.22.76.78.96 1.08 2.38-1.4 2.9-3.52 2.9-5.32v-.84zm-5.8.38c-.32-.72-.96-1.76-1.54-2.58l-1.16.58c.56.84 1.2 1.96 1.5 2.68l1.2-.68zm2.7.9h-7.56v1.22h7.56v-1.22zm-6.7 6.4h5.9v-1.18h-5.9v1.18zm0-3.78v1.18h5.88v-1.18h-5.88zm14.3 4.16c-.66 1.52-1.64 2.78-2.82 3.82-1.2-1.06-2.16-2.34-2.82-3.82h5.64zm-9.74 5.64h-3.28v-3.3h3.28v3.3zm10.7-7.1l-.26.06h-8.52v1.4h1.74l-.86.3c.72 1.7 1.74 3.2 2.98 4.42-1.34.92-2.88 1.6-4.46 2.02v-5.64h-5.9v6.72h1.3v-.94h4.56c.26.34.54.86.68 1.24 1.8-.54 3.48-1.34 4.96-2.44 1.42 1.08 3.08 1.88 4.96 2.38.2-.42.62-1.02.92-1.34-1.78-.4-3.36-1.08-4.72-2 1.58-1.46 2.82-3.34 3.56-5.76l-.94-.42zm12.258-3.28h2.78v10.46h-2.78V178.7zm4.24 10.46V178.7h5.56v-1.44h-4.6c.7-.96 1.52-2.3 2.18-3.5l-1.58-.48c-.48 1.12-1.34 2.68-2.04 3.68l.82.3h-6.78l1.26-.56c-.32-.96-1.16-2.34-2-3.4l-1.3.52c.78 1.02 1.6 2.48 1.92 3.44h-4.58v1.44h5.44v10.46h-5.96v1.5h17.74v-1.5h-6.08zm-10.18-8.18c.94 1.98 1.72 4.58 1.9 6.3l1.42-.36c-.24-1.72-1.02-4.32-2-6.3l-1.32.36zm12.48 6.34c.78-1.7 1.74-4.32 2.42-6.5l-1.56-.38c-.48 1.98-1.42 4.78-2.2 6.48l1.34.4zm18.558-7.52h-3.74v-1.94h3.74v1.94zm0 3.24h-3.74v-1.98h3.74v1.98zm0 3.34h-3.74v-2.08h3.74v2.08zm-5.18 2.44h1.44v-1.16h9.8v-1.28h-4.64v-2.08h3.6v-1.26h-3.6v-1.98h3.64v-1.26h-3.64v-1.94h4.3v-1.3h-3.5c-.3-.84-.9-1.98-1.46-2.86l-1.36.4c.42.76.9 1.7 1.2 2.46h-3.98c.5-.92.94-1.9 1.3-2.88l-1.36-.38c-.9 2.52-2.4 4.9-4.14 6.42.28.3.74.98.92 1.28.5-.5 1-1.06 1.48-1.68v9.5zm-3.26-12.22c-.24-.86-.7-2.18-1.06-3.22l-1.3.4c.32 1.04.78 2.4 1.02 3.28l1.34-.46zm.68 5.94l-.26.06h-1.38c.54-1.38 1.16-3.06 1.66-4.5h-4.1v1.34h2.22c-.54 1.58-1.16 3.28-1.72 4.46h2.62c-.32 1.44-.84 3.02-1.44 4.16-.6.4-1.3 1.22-2 2.22l1.02 1.34c.58-1.26 1.26-2.52 1.7-2.52.46 0 1.2.68 2 1.16 1.48.88 3.22 1.1 5.86 1.1 2.36 0 6.16-.12 7.64-.22.04-.44.26-1.14.46-1.54-2.24.22-5.48.42-8.04.42-2.38 0-4.18-.14-5.6-1-.74-.44-1.22-.82-1.6-1.04.68-1.46 1.26-3.4 1.64-5.16l-.68-.28zm34.198-8.06h-9.76v1.4h9.76v-1.4zm-13.1-1.22c-1 1.42-2.92 3.22-4.58 4.34.26.28.66.86.88 1.18 1.78-1.26 3.82-3.2 5.12-4.96l-1.42-.56zm.82 4.26c-1.38 2.26-3.54 4.56-5.6 6.02.3.3.82.94 1.04 1.24.74-.58 1.5-1.3 2.26-2.08v8.88h1.48v-10.52c.82-.98 1.58-2 2.2-3.02l-1.38-.52zm12.86 2.42h-11.2v1.42h6.68v8.24c0 .34-.12.42-.5.44-.38.02-1.7.02-3.12-.02.22.42.42 1.04.48 1.44 1.96 0 3.08 0 3.76-.22.66-.24.88-.7.88-1.62v-8.26h3.02v-1.42zm12.619 4.08v-3.32h5.38v3.32h-5.38zm-6.34 0c.06-.74.08-1.48.08-2.14v-1.18h4.78v3.32h-4.86zm4.86-7.92v3.2h-4.78v-3.2h4.78zm6.86 3.2h-5.38v-3.2h5.38v3.2zm1.46-4.62h-14.56v7.2c0 2.78-.2 6.3-2.4 8.78.32.18.92.68 1.14.98 1.52-1.7 2.2-3.98 2.5-6.2h5v5.9h1.48v-5.9h5.38v4.06c0 .38-.14.5-.54.52-.36 0-1.72.02-3.12-.04.2.4.44 1.04.5 1.44 1.88.02 3.04 0 3.72-.24.64-.26.9-.7.9-1.66v-14.84zm8.118 9.12c.08-.84.1-1.62.1-2.36v-1.62h10.14v3.98h-10.24zm.1-5.36v-1.96c3.86-.48 8.12-1.16 11.02-2.04l-1.22-1.12c-2.58.84-7.26 1.62-11.28 2.06v6.06c0 2.84-.26 6.56-2.8 9.14.34.18.9.72 1.14 1 1.74-1.74 2.52-4.1 2.88-6.38h10.4v1.06h1.48v-7.82h-11.62zm22.138 9.24h-2.7v-5.9h2.7v5.9zm-5.32-11.96h2.5c-.54 3.04-1.46 5.84-2.86 7.72.24.4.58 1.24.66 1.58.4-.48.72-1.04 1.06-1.62v7.22h1.26v-1.6h4.02v-8.56h-3.98c.5-1.48.92-3.1 1.24-4.74h3.1v-1.36h-7v1.36zm11.14 5.78v-5.74h3.24v5.74h-3.24zm6.92 0h-2.26v-5.74h1.86v-1.4h-9.58v1.4h1.64v5.74h-2.2v1.42h2.18c-.06 2.68-.5 5.7-2.54 7.84.34.18.88.6 1.12.86 2.26-2.34 2.78-5.66 2.84-8.7h3.26v8.6h1.42v-8.6h2.26v-1.42zM3.08 208.58h3.86c-.34 2.4-1.32 3.6-5.12 4.26.28.3.66.84.8 1.22 4.24-.86 5.48-2.48 5.88-5.48h2.96v3.3c0 1.44.36 1.96 1.96 1.96h3.18c.64 0 1.26 0 1.58-.08-.04-.36-.08-.88-.12-1.26-.36.08-1.08.12-1.52.12H13.5c-.5 0-.58-.2-.58-.72v-3.32h4.1v2.06h1.54v-3.42h-7.48c-.22-.6-.54-1.38-.8-1.98l-1.5.26c.22.52.44 1.16.62 1.72H1.62v3.6h1.46v-2.24zm12.04 13.08c-.6 0-.7-.1-.7-.64v-5.3H9.56v-2.44H8.02v2.44H2.3v1.38h5.56c-.42 1.84-1.98 3.9-6.9 5.26.34.32.8.86 1.02 1.26 5.54-1.58 7.12-4.14 7.48-6.52h3.42v3.94c0 1.62.46 2.08 2.04 2.08h2.3c1.44 0 1.86-.74 2.02-3.78-.42-.12-1.08-.38-1.42-.66-.06 2.6-.16 2.98-.76 2.98h-1.94zm19.28-11.7c-.44 2.22-1.4 4.16-2.84 5.4.36.16.96.58 1.24.8.68-.64 1.26-1.44 1.76-2.36 1.18.98 2.44 2.1 3.12 2.86l1.06-1.02c-.8-.82-2.34-2.1-3.6-3.08.28-.74.52-1.52.68-2.36l-1.42-.24zm-9.42 0c-.58 2.58-1.82 4.72-3.64 6.08.34.22.92.7 1.18.96.98-.82 1.84-1.88 2.52-3.14.72.7 1.46 1.44 1.86 1.94l1.02-1.02c-.5-.58-1.42-1.46-2.26-2.2.3-.74.58-1.52.78-2.36l-1.46-.26zm5.72-.46h7.94v-1.46H30.7v-2.76h-1.52v2.76h-7.66v1.46h7.66v4.88c-1.84 2.9-5.14 5.66-8.36 6.98.34.3.82.88 1.04 1.24 2.66-1.24 5.34-3.4 7.32-5.94v6.86h1.52v-6.92c1.94 2.6 4.66 4.84 7.42 6.06.24-.4.72-1 1.1-1.32-3.4-1.28-6.74-4.1-8.52-7.1v-4.74zm20.42.24c.96-.78 1.82-1.66 2.56-2.6.82.9 1.86 1.82 2.9 2.6h-5.46zm-.34 1.18h5.94v-1.08c.6.48 1.24.88 1.82 1.22.12-.38.42-.96.66-1.28-1.64-.8-3.6-2.26-4.82-3.62.14-.2.28-.42.38-.64l-1.36-.42c-1.04 1.9-3.06 3.88-5.32 5.18.28.2.74.66.96.92.6-.36 1.2-.78 1.74-1.2v.92zm4.48 2.6h1.9v2.54h-1.9v-2.54zm-1.08 3.58h4.1v-4.6h-4.1v4.6zm-3.84-3.58h1.8v2.54h-1.8v-2.54zm-1.04 3.58h3.94v-4.6H49.3v4.6zm-7.7 5.1c.38-1.16.7-3.12.86-4.44l-.84-.28c-.16 1.32-.5 3.24-.9 4.38l.88.34zm1.24-4.34c.14 1.14.24 2.62.24 3.6l.8-.08c-.02-1-.14-2.48-.28-3.6l-.76.08zm1.18-.22c.3 1.04.64 2.38.76 3.26l.76-.18c-.14-.86-.48-2.2-.8-3.22l-.72.14zm2.98 2.04c-.2-.68-.72-1.76-1.14-2.6l-.68.24c.44.84.9 1.94 1.14 2.64l.68-.28zm-4.02-6.3h1.78v1.88h-1.78v-1.88zm1.78-5.96v1.84h-1.78v-1.84h1.78zm0 4.78h-1.78v-1.76h1.78v1.76zm3.72 3.06h-2.52v-1.88h2.12v-1.18h-2.12v-1.76h2.1v-1.18h-2.1v-1.84h2.5v-1.26h-6.68v10.36h5.46c-.12 3.88-.26 5.28-.52 5.62-.12.2-.26.22-.48.22-.24 0-.78 0-1.38-.06.18.32.3.8.34 1.16.58.04 1.2.04 1.56 0 .46-.04.74-.18 1-.52.42-.56.56-2.22.72-7.1v-.58zm2.26 2.46c-.44 2.06-1.34 3.82-2.66 4.98.3.2.8.64 1 .86.82-.74 1.5-1.74 2.02-2.88.74.52 1.5 1.14 1.88 1.58l.8-.98c-.48-.5-1.4-1.2-2.22-1.72.18-.52.34-1.06.44-1.6l-1.26-.24zm4.94-.1c-.38 2.12-1.24 3.9-2.62 5.04.34.22.88.64 1.12.86.66-.62 1.26-1.44 1.74-2.36.88.68 1.76 1.44 2.22 2l.9-1.02c-.56-.6-1.64-1.46-2.6-2.14.26-.68.44-1.4.58-2.16l-1.34-.22zm9.78-9.92c-.32-.72-.98-1.78-1.56-2.58l-1.02.64c.54.84 1.22 1.96 1.5 2.68l1.08-.74zm2.08.96h-6.66v1.22h6.66v-1.22zm-.58 2.62h-5.32v1.18h5.32v-1.18zm-5.32 3.78h5.32v-1.18h-5.32v1.18zm4.22 2.72v3.3H62.8v-3.3h3.06zm1.2-1.24h-5.44v6.72h1.18v-.94h4.26v-5.78zm3.7-4.38h5.16v-1.06c.7 1.02 1.54 1.84 2.46 2.46.22-.36.66-.86 1-1.08-.9-.54-1.68-1.3-2.38-2.22.66-.38 1.42-.88 2.04-1.4l-.9-.82c-.42.38-1.12.94-1.72 1.34-.24-.36-.44-.76-.64-1.16.64-.44 1.38-1.04 1.98-1.62l-.9-.82c-.36.4-.98.94-1.52 1.4-.22-.56-.4-1.12-.56-1.7l-1.24.24c.5 1.94 1.26 3.74 2.26 5.22h-4.76c.88-1.28 1.56-2.88 1.96-4.68l-.86-.3-.26.04h-3.42v1.22h2.92c-.24.72-.54 1.44-.92 2.08-.48-.4-1.14-.88-1.72-1.22l-.82.96c.62.38 1.36.96 1.84 1.4-.68.96-1.5 1.76-2.34 2.26.28.24.7.72.9 1 .88-.58 1.72-1.38 2.44-2.36v.82zm5.14 4.92h-5.22v-2.38h5.22v2.38zm1.34-3.56H69.4v4.74h7.84v-4.74zm-4.7 7.84c-.14-.76-.64-1.94-1.2-2.84l-1.3.34c.56.92 1.04 2.14 1.16 2.9l1.34-.4zm2.8-2.92c-.32 1-.98 2.42-1.5 3.36h-6.1v1.22H79v-1.22h-3.76c.5-.86 1.08-2 1.54-2.98l-1.44-.38zm21.24-9.04h-4.96v-1.86h4.96v1.86zm0 3.04h-4.96v-1.88h4.96v1.88zm0 3.04h-4.96v-1.9h4.96v1.9zm1.42-9.16h-7.76v10.38H98v-10.38zm-9.7 10.98c.92.9 2.14 2.18 2.72 2.94l1.08-.88c-.62-.74-1.84-1.98-2.76-2.82l-1.04.76zm-6 5.18c.8-1.1 1.44-2.88 1.88-4.22l-1.3-.5c-.4 1.3-1.08 3-1.88 4.06l1.3.66zm3.92-5.58v-4.86c.88.74 2 1.72 2.52 2.22l.8-1.2c-.52-.4-2.56-1.92-3.32-2.4v-1.12h3.16v-1.3h-3.16v-2.92H84.8v2.92h-3.64v1.3h3.38c-.88 2.04-2.36 4.1-3.82 5.14.3.24.72.7.96 1.04 1.12-.92 2.24-2.44 3.12-4.08v5.26h1.42zm2.3 4.86c-1.16 0-1.36-.1-1.36-.62v-3.16H85.7v3.18c0 1.54.56 1.94 2.72 1.94h4.14c1.8 0 2.26-.6 2.46-3.1-.42-.08-1.02-.3-1.36-.56-.08 2.04-.24 2.32-1.2 2.32h-3.94zm6.78-3.82c.8 1.32 1.84 3.06 2.3 4.1l1.38-.68c-.5-1.02-1.58-2.74-2.4-4l-1.28.58zm10.12-5.08c-.82-.64-2.46-1.5-3.72-2l-.8 1.08c1.3.58 2.88 1.48 3.7 2.16l.82-1.24zm-2.6 10.4c1.18-1.84 2.58-4.32 3.62-6.42l-1.08-.98c-1.14 2.26-2.72 4.88-3.78 6.4l1.24 1zm-.84-16.7c1.32.6 2.94 1.56 3.74 2.24l.86-1.24c-.84-.64-2.48-1.54-3.8-2.08l-.8 1.08zm16.76 16.28c-.6-1.54-2.1-3.92-3.5-5.66l-1.2.56c.62.78 1.22 1.68 1.78 2.58l-6.32.7c1.24-1.68 2.48-3.8 3.52-5.92h5.64v-1.42h-5.24v-3.56h4.42v-1.42h-4.42v-3.44h-1.48v3.44h-4.26v1.42h4.26v3.56h-5.14v1.42h4.46c-1 2.24-2.32 4.36-2.76 4.96-.5.72-.9 1.2-1.28 1.3.18.4.42 1.14.5 1.48.54-.26 1.38-.4 8.8-1.32.38.74.72 1.42.92 1.98l1.3-.66zm189.28-70.9c0 .18-.04.26-.26.26-.2.02-.8.02-1.5-.02.16.3.32.7.38 1.02.96 0 1.66 0 2.1-.18.44-.2.56-.46.56-1.08v-5.26h-.54v-.02h-2.62v-2.14h3.3v-1.26h-3.3v-1.86h-1.3v6.46h3.18v4.08zm-2.54-3.22c-.18 1.22-.48 2.42-1.1 3.3.3.14.82.46 1.04.64.6-.96 1.02-2.34 1.22-3.74l-1.16-.2zm-1.66 6.46c-1.26 1.1-3.66 2.42-5.56 3.2.28.32.68.82.88 1.12 1.94-.84 4.32-2.18 5.96-3.42l-1.28-.9zm5.1.96c2.08 1.02 4.3 2.34 5.66 3.3l.98-1.12c-1.42-.96-3.7-2.2-5.82-3.2l-.82 1.02zm5.18-2.66c.18-2.96.28-7.7.3-11.2h-4.24v1.3h2.88c0 .8-.02 1.64-.04 2.5h-2.66v1.28h2.64c-.04.84-.06 1.66-.1 2.46h-2.64v1.26h2.6c-.04.86-.1 1.7-.14 2.4h-11.34l-.08-2.46h2.58v-1.28h-2.64l-.08-2.44h2.64v-1.28h-2.68l-.08-2.34c1.02-.32 2.12-.7 3.04-1.08l-.72-1.22c-.96.5-2.46 1.1-3.7 1.54l.38 10.56H298v1.38h18.02v-1.38h-1.92zm16.64-6.34v.86h-3.18v-.86h3.18zm0 2.48h-3.18v-.88h3.18v.88zm-3.18 1.74v-.98h2.78l-.8.54c.16.12.32.24.48.38l-2.46.06zm-4.32-1.74v-.88h3.06v.88h-3.06zm0-2.48h3.06v.86h-3.06v-.86zm3.06-.76h-4.24v4h4.24v1c-1.9.02-3.66.04-4.98.04l.06.94c2.48-.06 6.06-.16 9.52-.28.32.32.6.62.8.88l.84-.62c-.44-.58-1.36-1.4-2.16-1.96h1.6v-4h-4.42v-.84h5.12v-.92h-5.12v-.94h-1.26v.94h-5.02v.92h5.02v.84zm-3.14 8.24c.64.56 1.4 1.34 1.72 1.9l1.02-.6c-.34-.52-1.12-1.3-1.78-1.8l-.96.5zm9.8-1.52h-2.86v-.74h-1.26v.74h-7.8v.92h7.8v1.82c0 .2-.06.26-.3.26-.2.02-.96.02-1.76 0 .14.24.3.56.36.84 1.2 0 1.94 0 2.38-.14.46-.12.58-.34.58-.92v-1.86h2.86v-.92zm-12.6 4.2v-13.94h13.26v13.94h-13.26zm-1.38-15.12v17.36h1.38v-1.04h13.26v.94h1.42v-17.26h-16.06zm24.42-.12l-.24.06h-4.48v17.42H340v-16.06h2.62c-.42 1.36-1 3.16-1.58 4.62 1.42 1.54 1.78 2.88 1.78 3.96 0 .58-.1 1.12-.42 1.34-.14.12-.36.18-.62.18-.32.04-.7.02-1.16-.02.24.38.36.94.38 1.32.44.02.94 0 1.34-.04.4-.04.76-.16 1.04-.36.54-.38.78-1.24.78-2.3 0-1.2-.34-2.64-1.8-4.26.68-1.58 1.4-3.64 2-5.28l-.96-.58zm11.2 4.88c-.9.8-2.3 1.84-3.52 2.6-.4-.94-.94-1.84-1.64-2.64.34-.32.66-.62.92-.96h5.6v-1.3h-3.8c.66-.84 1.4-1.9 2.02-2.9l-1.42-.46c-.5 1-1.4 2.44-2.14 3.36l-2.24-.02 1-.7c-.48-.76-1.48-1.78-2.42-2.52l-1.1.7c.86.72 1.8 1.78 2.3 2.52h-3.9v1.32h4.42c-1.28 1.24-3.06 2.32-4.74 3.04.28.26.72.78.9 1.06 1.22-.62 2.54-1.42 3.68-2.34.4.5.74 1.04 1 1.58-1.16 1.06-3.28 2.26-4.82 2.88.32.28.68.78.84 1.08 1.38-.68 3.18-1.84 4.46-2.88.18.54.32 1.06.42 1.58-1.38 1.52-4.1 3.14-6.36 3.86.34.26.68.74.88 1.06 1.88-.74 4.14-2.08 5.7-3.48.14 1.96-.24 3.58-.84 4.12-.34.36-.66.44-1.16.44-.36 0-1.04-.02-1.66-.1.22.4.34.96.36 1.36.54.02 1.2.06 1.58.04.86 0 1.38-.2 1.96-.76 1.2-1.02 1.66-4.52.6-7.86l.38-.22c.8 2.42 2.18 4.96 3.54 6.4.22-.34.68-.78.98-1-1.34-1.26-2.78-3.72-3.48-6.02.92-.6 1.86-1.26 2.64-1.88l-.94-.96zm3.36 2.46v1.62h18.16v-1.62h-18.16zm31.66 1.04v3.78h-5.24v-3.78h5.24zm1.4 5.06v-6.32H383v7.76h1.38v-1.44h6.64zm1.06-9.7H382v1.3h10.08v-1.3zm3.14-3.5h-16.4v17.28h1.44v-15.86h13.5v13.94c0 .32-.12.44-.48.46-.34.02-1.5.02-2.76-.02.24.4.48 1.04.54 1.46 1.72 0 2.72-.04 3.34-.28.6-.26.82-.7.82-1.62V142.3zm4.94 2.64h13.62v2.92h1.5v-4.34h-7.12c-.24-.66-.74-1.64-1.18-2.38l-1.44.42c.32.58.68 1.34.92 1.96h-7.76v4.34h1.46v-2.92zm7.58 8.54h5.92v-1.4h-5.92v-3.26h5.1v-1.42h-11.58v1.42h4.96v8.26c-1.62-.62-2.9-1.78-3.66-3.9.18-.8.34-1.66.46-2.58l-1.48-.16c-.44 3.6-1.52 6.44-3.74 8.14.36.22.96.74 1.2 1.02 1.32-1.14 2.3-2.66 2.98-4.52 1.82 3.4 4.8 4.12 8.96 4.12h4.62c.08-.44.32-1.12.56-1.5-.96.04-4.38.04-5.1.04-1.18 0-2.28-.06-3.28-.26v-4zm28.1-5.32h-8.12v-1.28h6.22v-1.12h-6.22v-1.22H435v-1.16h-4.12c.36-.5.8-1.14 1.2-1.74l-1.58-.42c-.26.62-.76 1.54-1.14 2.16h-4.78l.14-.06c-.24-.6-.82-1.44-1.4-2.04l-1.28.44c.4.5.82 1.12 1.1 1.66h-4.1v1.16h7.18v1.22h-6.12v1.12h6.12v1.28h-8.04v1.18h17.66v-1.18zm-1.08 3.22c-.7-.6-2.1-1.34-3.24-1.76l-.8.88c1.14.48 2.52 1.26 3.18 1.86l.86-.98zm-1.68 2.6c-.56.7-1.28 1.34-2.14 1.9-.38-.62-.72-1.34-1-2.16h5.96v-1.16h-6.28c-.2-.9-.34-1.88-.38-2.92h-1.44c.06 1.02.18 2 .38 2.92h-4.36v-1.54c1.2-.14 2.32-.34 3.24-.56l-.9-.94c-1.78.46-5.04.82-7.76.98.14.26.3.68.34.98 1.16-.06 2.42-.16 3.66-.28v1.36h-4.24v1.16h4.24v1.46c-1.64.12-3.14.22-4.32.3l.14 1.2 4.18-.38v1.72c0 .28-.1.34-.4.34-.3.02-1.34.02-2.42-.02.16.34.38.84.46 1.18 1.5 0 2.44 0 3.02-.2.56-.16.76-.5.76-1.26v-1.88c1.18-.12 2.38-.22 3.58-.34v-1.06l-3.58.28v-1.34h4.66c.32 1.08.74 2.04 1.24 2.86-1.38.72-2.96 1.3-4.52 1.7.24.28.62.9.78 1.18 1.52-.48 3.06-1.1 4.46-1.86 1.04 1.22 2.3 1.92 3.72 1.92 1.26-.02 1.78-.56 2-2.68-.38-.1-.84-.34-1.14-.58-.1 1.42-.26 1.88-.8 1.9-.9.02-1.78-.46-2.56-1.3 1.06-.7 1.98-1.52 2.68-2.44l-1.26-.44zm19.58-6.94c-.3.62-.72 1.26-1.18 1.86l-3.4.2c.72-1.1 1.68-2.62 2.36-3.74h5.64v-1.38h-4.48l.2-.08c-.16-.74-.66-1.88-1.16-2.72l-1.38.42c.4.74.78 1.66 1 2.38h-5.22v1.38h3.8c-.68 1.16-1.8 2.96-2.18 3.36-.34.36-.9.5-1.28.58.12.32.36 1.06.4 1.4.38-.12.96-.24 4.54-.48-1.48 1.5-3.34 2.84-5.34 3.76.28.28.68.8.84 1.12 3.52-1.68 6.54-4.52 8.24-7.56l-1.4-.5zm-8 3.78c-.34-.56-1.8-2.8-2.34-3.54v-.78h2.26v-1.4h-2.26v-3.84h-1.42v3.84h-2.66v1.4h2.56c-.6 2.72-1.84 5.88-3.08 7.54.28.36.64 1 .78 1.44.9-1.28 1.76-3.34 2.4-5.5v9.54h1.42V149.1c.54.98 1.16 2.14 1.44 2.76l.9-1.04zm9.46-.22c-1.7 3.36-5.5 6.22-10.14 7.72.28.3.7.88.88 1.22 2.5-.86 4.74-2.08 6.6-3.58 1.32 1.1 2.84 2.48 3.6 3.36l1.14-.98c-.8-.9-2.38-2.22-3.7-3.28 1.26-1.18 2.32-2.48 3.14-3.92l-1.52-.54zm9.76-7.66c1.88 1.34 4.2 3.3 5.3 4.54l1.06-1.1c-1.14-1.26-3.52-3.14-5.38-4.42l-.98.98zm8.3 5.38c1.12 2.34 2.2 5.48 2.6 7.54l1.46-.58c-.42-2.06-1.52-5.12-2.68-7.5l-1.38.54zm-12.42-.02c-.28 2.34-.94 5.46-1.8 7.5l1.48.62c.82-2.12 1.44-5.5 1.76-7.84l-1.44-.28zm3.18-1.5v9.84c0 1.98.6 2.52 2.76 2.52h4.02c2.22 0 2.68-1.1 2.9-4.88-.42-.12-1.04-.38-1.4-.66-.16 3.44-.34 4.14-1.58 4.14h-3.82c-1.14 0-1.38-.18-1.38-1.1v-9.86h-1.5zm21.72-3.48V145h-4.3v-1.68h4.3zm-4.3 4.6v-1.82h4.3v1.82h-4.3zm5.72 1.2v-7h-7.18v17.42h1.46v-10.42h5.72zm3.18 3.04v3.3h-4.7v-3.3h4.7zm1.38 4.56v-5.82h-7.44v7.02h1.36v-1.2h6.08zm-1.36-8.78v-1.84h4.44v1.84h-4.44zm4.44-4.64v1.7h-4.44v-1.7h4.44zm1.5-1.18h-7.36v7h5.86v8.4c0 .38-.12.5-.48.5-.4.02-1.7.04-3-.02.2.4.44 1.1.52 1.52 1.74 0 2.88-.02 3.58-.26.64-.26.88-.76.88-1.74v-15.4zm18.46 5.38h-4.76V146h4.76v1.5zm0 2.52h-4.76v-1.48h4.76v1.48zm0 2.56h-4.76v-1.5h4.76v1.5zm-6.1-7.68v8.78h7.48v-8.78h-3.7c.18-.46.38-1 .56-1.52h3.94v-1.14h-9.04v1.14h3.72c-.12.5-.28 1.04-.44 1.52h-2.52zm4.42 9.68c1.1.74 2.4 1.88 3.06 2.68l1.08-.7c-.66-.76-1.96-1.86-3.12-2.56l-1.02.58zm-2.76-.56c-.76.92-2.04 1.82-3.3 2.4.3.2.78.7 1 .94 1.26-.72 2.68-1.84 3.54-2.94l-1.24-.4zm-4.84-9.34h-3.9v-1.48h3.9v1.48zm0 2.56h-3.9v-1.52h3.9v1.52zm1.36-5.14h-6.6v6.24h6.6v-6.24zm-2.54 12.14h3.38v-1.14h-3.38v-2.14h3.72v-1.16h-8.96v1.16h3.96v5.32c-.6-.48-1.1-1.12-1.48-1.94.08-.74.12-1.52.16-2.28h-1.24c-.1 2.44-.44 5.12-1.64 6.56.32.22.76.68.94.96.76-.92 1.24-2.2 1.52-3.64 1.8 2.68 4.78 3.16 9.1 3.16h6.42c.08-.4.32-.96.54-1.28-1.16.04-6.08.04-6.96.04-2.46-.02-4.5-.14-6.08-.82v-2.8zm103.62-6.44h-3.74v-1.94h3.74v1.94zm0 3.24h-3.74v-1.98h3.74v1.98zm0 3.34h-3.74v-2.08h3.74v2.08zm-5.18 2.44h1.44v-1.16h9.8v-1.28h-4.64v-2.08h3.6v-1.26h-3.6v-1.98h3.64v-1.26h-3.64v-1.94h4.3v-1.3h-3.5c-.3-.84-.9-1.98-1.46-2.86l-1.36.4c.42.76.9 1.7 1.2 2.46h-3.98c.5-.92.94-1.9 1.3-2.88l-1.36-.38c-.9 2.52-2.4 4.9-4.14 6.42.28.3.74.98.92 1.28.5-.5 1-1.06 1.48-1.68v9.5zm-3.26-12.22c-.24-.86-.7-2.18-1.06-3.22l-1.3.4c.32 1.04.78 2.4 1.02 3.28l1.34-.46zm.68 5.94l-.26.06h-1.38c.54-1.38 1.16-3.06 1.66-4.5H595v1.34h2.22c-.54 1.58-1.16 3.28-1.72 4.46h2.62c-.32 1.44-.84 3.02-1.44 4.16-.6.4-1.3 1.22-2 2.22l1.02 1.34c.58-1.26 1.26-2.52 1.7-2.52.46 0 1.2.68 2 1.16 1.48.88 3.22 1.1 5.86 1.1 2.36 0 6.16-.12 7.64-.22.04-.44.26-1.14.46-1.54-2.24.22-5.48.42-8.04.42-2.38 0-4.18-.14-5.6-1-.74-.44-1.22-.82-1.6-1.04.68-1.46 1.26-3.4 1.64-5.16l-.68-.28zm34.198-8.06h-9.76v1.4h9.76v-1.4zm-13.1-1.22c-1 1.42-2.92 3.22-4.58 4.34.26.28.66.86.88 1.18 1.78-1.26 3.82-3.2 5.12-4.96l-1.42-.56zm.82 4.26c-1.38 2.26-3.54 4.56-5.6 6.02.3.3.82.94 1.04 1.24.74-.58 1.5-1.3 2.26-2.08v8.88h1.48v-10.52c.82-.98 1.58-2 2.2-3.02l-1.38-.52zm12.86 2.42h-11.2v1.42h6.68v8.24c0 .34-.12.42-.5.44-.38.02-1.7.02-3.12-.02.22.42.42 1.04.48 1.44 1.96 0 3.08 0 3.76-.22.66-.24.88-.7.88-1.62v-8.26h3.02v-1.42zm20.018-5.14h-3.38c-.18-.5-.44-1.1-.68-1.56l-1.3.26c.18.4.38.86.52 1.3h-3.16v1.2h8v-1.2zm.48 3.8h-2.42c.24-.56.5-1.22.76-1.82l-1.34-.32c-.16.62-.42 1.48-.68 2.14h-1.78c-.18-.6-.5-1.38-.8-2.04l-1.18.26c.22.54.48 1.22.66 1.78h-1.9v1.22h8.68v-1.22zm-9.24-3.8h-3.2c-.2-.5-.46-1.1-.72-1.58l-1.3.26c.18.4.4.88.56 1.32h-3.22v1.2h7.88v-1.2zm.08 3.88h-1.86c.24-.56.5-1.24.74-1.86l-1.34-.32c-.16.62-.44 1.5-.7 2.18h-1.7c-.24-.62-.6-1.46-.92-2.12l-1.2.3c.24.54.54 1.24.74 1.82h-2.06v1.22h8.3v-1.22zm-6.1 3.26h4.14v2.04h-4.14v-2.04zm4.18 6.44v-3.34h1.28v-4.14h-6.74v4.14h1.38c-.18 2.36-.64 4.32-2.56 5.42.28.22.7.74.88 1.04 2.2-1.36 2.78-3.62 3.02-6.46h1.46v3.08c0 .74-.32 1.04-.6 1.18.22.34.48 1.02.56 1.38.24-.28.7-.58 3.74-2.26-.1-.28-.24-.8-.3-1.14l-2.12 1.1zm4.24-6.42h4.62v2h-4.62v-2zm4.66 8.18c-.18 0-.32-.04-.42-.1-.1-.08-.12-.3-.12-.64v-4.38h1.82v-4.12h-7.2v4.12h1.46c-.24 2.56-.94 4.46-3.58 5.52.3.24.68.74.84 1.06 2.92-1.28 3.76-3.52 4.06-6.58h1.24v4.24c0 1.12.12 1.44.44 1.66.26.26.78.34 1.18.34h1.14c.32 0 .78-.04 1.04-.16.3-.12.5-.34.62-.64.12-.32.18-1.18.22-1.96-.36-.12-.82-.36-1.1-.58-.02.8-.02 1.42-.08 1.7-.06.24-.16.38-.28.42-.1.08-.32.1-.52.1h-.76zm18.279-10.82h-7.94v-3.78h7.94v3.78zm1.5-5.2h-10.88v6.62h10.88v-6.62zm-8.18 10.16v4.74h-4.18v-4.74h4.18zm-5.6 7.26h1.42v-1.08h4.18v.9h1.46v-8.52h-7.06v8.7zm10.68-2.52v-4.74h4.54v4.74h-4.54zm-1.44-6.18v8.7h1.44v-1.08h4.54v.94h1.46v-8.56h-7.44zm15.778-8.9c-.96 3.12-2.78 5.76-5.14 7.4.36.24.98.8 1.24 1.1 2.34-1.88 4.32-4.72 5.44-8.12l-1.54-.38zm-2.14 6.84v1.44h4.08c-.46 3.4-1.56 6.54-6.28 8.12.36.32.78.9.96 1.3 5.08-1.86 6.38-5.46 6.9-9.42h5.16c-.24 5.04-.52 7.04-1.04 7.54-.2.22-.42.26-.84.26-.48 0-1.7-.02-3-.14.28.44.46 1.04.48 1.5 1.24.06 2.5.1 3.14.04.72-.08 1.14-.22 1.56-.72.68-.76.96-3.06 1.24-9.2.02-.2.04-.72.04-.72h-12.4zm5.26-7.16v1.4h3.54c1.14 2.98 3.2 5.78 5.68 7.38.26-.42.74-1.02 1.06-1.34-2.54-1.44-4.68-4.3-5.68-7.44h-4.6zm20.218 10.04c-.4-.6-2.06-2.84-2.76-3.68v-1.02h2.92v-1.42h-2.92v-4.28h-1.44v4.28h-2.98v1.42h2.82c-.66 2.74-2.04 5.86-3.36 7.52.24.36.62.94.78 1.34 1.02-1.34 2-3.5 2.74-5.74v9.44h1.44v-9.7c.68 1.06 1.46 2.32 1.8 3.02l.96-1.18zm10.6-3.6h-8v-3.56c2.4-.44 5-1.08 6.86-1.84l-1.26-1.16c-1.62.74-4.48 1.5-7 1.96v6.12c0 2.78-.18 6.5-1.98 9.16.34.12.96.52 1.22.76 1.88-2.76 2.16-6.94 2.16-9.92v-.1h3.64v10.06h1.46v-10.06h2.9v-1.42zm10.138 6.18c2.1-.74 3.46-2.38 3.46-4.54 0-1.4-.6-2.3-1.7-2.3-.82 0-1.52.5-1.52 1.44s.68 1.42 1.5 1.42c.12 0 .22 0 .34-.02-.1 1.36-.98 2.3-2.52 2.94l.44 1.06zm21.018-7.54h2.78v10.46h-2.78V146.7zm4.24 10.46V146.7h5.56v-1.44h-4.6c.7-.96 1.52-2.3 2.18-3.5l-1.58-.48c-.48 1.12-1.34 2.68-2.04 3.68l.82.3h-6.78l1.26-.56c-.32-.96-1.16-2.34-2-3.4l-1.3.52c.78 1.02 1.6 2.48 1.92 3.44h-4.58v1.44h5.44v10.46h-5.96v1.5h17.74v-1.5h-6.08zm-10.18-8.18c.94 1.98 1.72 4.58 1.9 6.3l1.42-.36c-.24-1.72-1.02-4.32-2-6.3l-1.32.36zm12.48 6.34c.78-1.7 1.74-4.32 2.42-6.5l-1.56-.38c-.48 1.98-1.42 4.78-2.2 6.48l1.34.4zm21.898-10.68h-6.6v-1.58h6.6v1.58zm0 2.64h-6.6v-1.6h6.6v1.6zm1.42-5.34h-9.38v6.48h9.38v-6.48zm-10.86 8.04l-2.02.62v-3.94h2.2v-1.38h-2.2v-3.98h-1.38v3.98h-2.46v1.38h2.46v4.38c-1.02.32-1.94.6-2.68.78l.36 1.44c.72-.22 1.5-.46 2.32-.74v5.14c0 .3-.1.38-.36.38-.22 0-1 0-1.86-.02.2.42.38 1.02.44 1.38 1.26.02 2.02-.04 2.48-.28.5-.24.68-.62.68-1.44v-5.6c.74-.26 1.48-.48 2.2-.74l-.18-1.36zm6.84 4.68h4.14v-1.22h-4.14v-2.34h5.12v-1.26h-11.4v1.26h4.88v6.32c-1.14-.48-2.02-1.4-2.6-3.08.18-.66.3-1.4.4-2.14l-1.38-.16c-.32 2.96-1.2 5.2-2.98 6.6.32.2.88.66 1.1.9 1.06-.94 1.84-2.16 2.4-3.66 1.3 2.8 3.4 3.34 6.28 3.34h3.48c.06-.38.24-1 .44-1.32-.66.02-3.38.02-3.86.02-.66 0-1.3-.04-1.88-.12v-3.14zm23.479-3.46v5.7h-5.48v-6.96h6.3v-6.86h-1.6v5.4h-4.7v-7.2h-1.6v7.2h-4.58v-5.38h-1.54v6.84h6.12v6.96h-5.4v-5.7h-1.6v7.16h14.08v1.14h1.6v-8.3h-1.6zm14.458-2.68v4.56h-5.22v-4.56h5.22zm1.46 5.98v-7.42h-8.12v9.02h1.44v-1.6h6.68zm7.54-11.82h-17.7v1.48h13.72v13.22c0 .42-.14.56-.58.58-.46.02-2.1.04-3.7-.04.24.42.54 1.16.64 1.58 1.96 0 3.34 0 4.14-.28.76-.22 1.02-.74 1.02-1.82v-13.24h2.46v-1.48zm20.398-.2h-9.76v1.4h9.76v-1.4zm-13.1-1.22c-1 1.42-2.92 3.22-4.58 4.34.26.28.66.86.88 1.18 1.78-1.26 3.82-3.2 5.12-4.96l-1.42-.56zm.82 4.26c-1.38 2.26-3.54 4.56-5.6 6.02.3.3.82.94 1.04 1.24.74-.58 1.5-1.3 2.26-2.08v8.88h1.48v-10.52c.82-.98 1.58-2 2.2-3.02l-1.38-.52zm12.86 2.42h-11.2v1.42h6.68v8.24c0 .34-.12.42-.5.44-.38.02-1.7.02-3.12-.02.22.42.42 1.04.48 1.44 1.96 0 3.08 0 3.76-.22.66-.24.88-.7.88-1.62v-8.26h3.02v-1.42zm-246.26 34.62c.52-1.46.9-3.72 1-5.36l-1.12-.16c-.14 1.62-.5 3.8-1.04 5.12l1.16.4zm1.72 8.96h1.48v-18.26h-1.48v18.26zm1.62-14.58c.56 1.1 1.16 2.54 1.38 3.4l1.12-.54c-.24-.84-.86-2.26-1.46-3.34l-1.04.48zm8.78 12.48v-5h4.08v-1.38h-4.08v-4.14h4.52v-1.42h-4.52v-4.14h-1.48v4.14h-2.5c.28-.98.52-2.02.72-3.06l-1.44-.24c-.46 2.72-1.26 5.4-2.42 7.14.36.16 1.02.48 1.32.68.54-.86 1-1.9 1.4-3.1h2.92v4.14h-4.24v1.38h4.24v5h-5.72v1.42h12.2v-1.42h-5zm10.74-16.04c-.88 3.06-2.36 6.12-3.98 8.12.24.36.64 1.16.78 1.5.6-.74 1.18-1.62 1.72-2.58v11.12h1.42V177.6c.54-1.24 1.02-2.54 1.42-3.84l-1.36-.38zm5.26 13.9h5.24c-.7.6-1.66 1.18-2.86 1.64-1.02-.38-1.92-.86-2.66-1.4l.28-.24zm6.46-1.06l-.26.06h-5.04c.3-.28.56-.56.8-.86h2.4c1.04 0 1.38-.3 1.5-1.44-.32-.06-.78-.18-1.02-.34-.06.78-.16.88-.62.88h-2.48c-.66 0-.78-.06-.78-.44v-1.16h-1.24v1.16c0 .76.18 1.1.76 1.24-.44.5-1.02.98-1.68 1.46-.22-.22-.44-.44-.6-.68l-1.16.44c.24.3.48.6.76.88-.6.36-1.3.7-2.04 1.02.3.18.68.58.88.88.74-.36 1.44-.72 2.06-1.12.6.48 1.28.9 2.02 1.28-1.48.42-3.24.76-5.22.98.28.3.6.78.76 1.12 2.34-.32 4.4-.78 6.12-1.4 1.78.66 3.82 1.12 5.96 1.38.18-.38.52-.88.78-1.18-1.8-.16-3.54-.46-5.08-.9 1.48-.74 2.62-1.66 3.34-2.72l-.92-.54zm-7.76-3.3c-.44.7-1.22 1.56-2.04 2.02l.88.7c.88-.56 1.6-1.46 2.1-2.22l-.94-.5zm9.84 2.2c-.48-.64-1.46-1.6-2.3-2.26l-.84.5c.84.7 1.82 1.68 2.26 2.36l.88-.6zm-9.24-4.64h6.66v.86h-6.66v-.86zm6.66-3.28v.86h-6.66v-.86h6.66zm0 2.5h-6.66v-.86h6.66v.86zm1.4 1.64v-5h-4.54c.14-.32.28-.68.42-1.04h5.66v-1.14h-12.4v1.14h5.18c-.08.34-.16.7-.26 1.04h-3.48v5h-1.96v2.68h1.3v-1.72h4.76l-.66.44c.68.38 1.5 1.02 1.94 1.44l.84-.6c-.4-.4-1.14-.92-1.78-1.28h5.5v1.72h1.34v-2.68h-1.86zm9-8c-1.28 3.06-3.42 6.04-5.6 7.92.26.36.68 1.12.84 1.48.92-.86 1.84-1.9 2.7-3.04v11.84h1.44v-13.96c.76-1.2 1.42-2.48 2-3.78l-1.38-.46zm6.2 16.16c-1.04 0-1.26-.24-1.26-1.3v-7.74h7.1v-1.44h-7.1v-5.44h-1.44v14.58c0 2.12.62 2.7 2.6 2.7h3.8c2.1 0 2.5-1.28 2.74-4.98-.42-.1-1-.38-1.38-.68-.16 3.42-.32 4.3-1.44 4.3h-3.62zm26.18-11.32v-1.46h-8.34l1.38-.6c-.28-.82-.9-2.02-1.44-2.96l-1.42.56c.52.92 1.1 2.2 1.36 3h-8.74v1.46h5.4c-.22 4.56-.74 9.68-5.84 12.22.38.28.84.8 1.08 1.2 3.76-2 5.26-5.3 5.9-8.82h7.12c-.34 4.5-.72 6.42-1.32 6.94-.22.18-.48.22-.94.22-.52 0-1.92-.02-3.34-.14.28.4.48 1 .52 1.44 1.34.1 2.64.12 3.34.08.78-.06 1.24-.2 1.72-.7.78-.78 1.18-2.94 1.56-8.56.04-.22.06-.72.06-.72h-8.5c.14-1.06.22-2.12.28-3.16h10.16zm4.42-2.14H691v1.6h1.44v-2.86h-7.32c-.28-.5-.7-1.1-1-1.54l-1.48.36c.22.36.48.76.72 1.18h-7.7v2.86h1.4v-1.6zm9.7 3.48c-.66.78-1.52 1.4-2.56 1.92-1.28-.26-2.58-.5-3.9-.7.38-.38.8-.78 1.22-1.22h5.24zm5.72 4c-1.66-.56-3.86-1.14-6.3-1.68.96-.62 1.74-1.38 2.36-2.32h4.2v-1.22h-3.54c.16-.34.28-.66.4-1.04l-1.44-.34c-.16.5-.36.96-.6 1.38h-4.92c.46-.54.9-1.1 1.26-1.62l-1.44-.44c-.42.64-.96 1.36-1.56 2.06h-5.58v1.22h4.5c-.68.72-1.36 1.38-1.98 1.94 1.46.22 2.86.46 4.22.72-1.8.46-4.02.72-6.76.84.22.36.42.84.56 1.28 3.68-.24 6.52-.7 8.68-1.62 2.62.6 4.88 1.2 6.5 1.82l1.44-.98zm-12.36 3.56c-1.06 1.14-2.96 2.18-4.76 2.84.36.22.96.74 1.22 1.02 1.76-.78 3.78-2.02 5-3.38l-1.46-.48zm6.14.74c1.82.86 4.1 2.24 5.22 3.22l1.08-1.08c-1.18-.96-3.5-2.28-5.3-3.08l-1 .94zm-1.58-2.44v-1.66h-1.46v1.66h-8.1v1.26h8.1v4.88h1.46v-4.88h8.26v-1.26h-8.26zm215-33.08c-1.06.28-2.16.58-3.2.86v-8.12h2.9v-1.42h-7.28v1.42h2.92v8.52c-1.22.3-2.32.58-3.2.78l.38 1.52c2.1-.58 4.96-1.38 7.66-2.18l-.18-1.38zm4.66-6.5c.04-1.36.06-2.76.06-4.2h-1.48c0 1.46-.02 2.86-.06 4.2h-3.34v1.44h3.28c-.3 4.84-1.4 8.88-5.64 11.14.36.26.86.8 1.06 1.18 4.56-2.56 5.72-7.02 6.04-12.32h4c-.3 7.08-.62 9.76-1.18 10.4-.22.24-.46.3-.84.3-.44 0-1.58 0-2.8-.12.26.42.44 1.04.46 1.46 1.12.08 2.3.1 2.94.04.7-.08 1.1-.24 1.54-.78.76-.92 1.02-3.78 1.34-11.98.02-.2.02-.76.02-.76h-5.4zm24.478 4.08c.72 0 1.44-.04 1.78-.12-.06-.34-.12-.9-.16-1.3-.38.1-1.18.12-1.66.12h-3.68c-.64 0-.8-.24-.8-.96v-2.26h5.38v-1.32h-5.38v-2.76h-1.46v6.3c0 1.68.48 2.3 2.24 2.3h3.74zm-13.2 1.62c1.08.66 2.46 1.58 3.16 2.16l.8-.82c-.72-.56-2.12-1.46-3.18-2.08l-.78.74zm-.16-1.88h4.14v4.04c-1.6.8-3.18 1.6-4.3 2.1.12-.88.16-1.76.16-2.52v-3.62zm5.56-1.28h-6.94v4.88c0 1.7-.12 3.8-1.26 5.32.3.2.82.72 1.02 1.04.84-1.04 1.24-2.42 1.44-3.74l.52 1.2c1.12-.64 2.48-1.42 3.8-2.2v3.08c0 .26-.06.34-.34.34-.26 0-1.08.02-2.04-.02.2.36.4.86.48 1.24 1.24 0 2.12-.02 2.62-.24.54-.22.7-.56.7-1.32v-9.58zm-2.48-5.16c.42.62.84 1.3 1.24 1.98l-4.1.28c.98-1.04 1.94-2.38 2.78-3.68l-1.48-.5c-.84 1.62-2.16 3.24-2.54 3.66-.4.42-.74.72-1.06.78.18.36.4 1.1.48 1.4.46-.22 1.16-.3 6.58-.74.26.5.48.96.64 1.36l1.28-.58c-.5-1.18-1.64-3.06-2.62-4.42l-1.2.46zm6.88 14.86c-.94 0-1.12-.12-1.12-.78v-3h5.6v-1.34h-5.6v-2.38h-1.46v6.72c0 1.64.5 2.1 2.44 2.1h3.54c1.66 0 2.1-.68 2.28-3.28-.4-.1-.98-.32-1.32-.56-.1 2.14-.24 2.52-1.08 2.52h-3.28zm17.338-.94v-7.92h7.44v-1.48h-7.44v-6.12h-1.56v15.52h-7.46v1.48h17.82v-1.48h-8.8zm18.459-4.06c-.16-1.06-.68-2.86-1.16-4.24l-1.14.3c.22.62.42 1.3.6 1.98l-2.88.38c1.6-1.84 3.18-4.16 4.46-6.46l-1.32-.76c-.44.9-.94 1.82-1.48 2.66l-2.08.2c1.08-1.48 2.16-3.42 3.02-5.28l-1.38-.58c-.78 2.14-2.12 4.42-2.56 5-.38.62-.72 1.02-1.06 1.1.16.38.4 1.06.48 1.36.28-.14.7-.22 2.74-.48-.7 1.06-1.34 1.88-1.64 2.22-.6.74-1.04 1.22-1.46 1.32.16.4.4 1.1.48 1.42.36-.2.98-.34 4.96-.92.08.4.16.8.2 1.14l1.22-.36zm-6.02 1c-.18 1.66-.48 3.46-.96 4.7.32.1.88.28 1.14.42.44-1.26.8-3.16 1.02-4.92l-1.2-.2zm1.94.16c.22 1.36.42 3.12.44 4.28l1.18-.22c-.06-1.16-.28-2.9-.5-4.26l-1.12.2zm1.86-.38c.36 1.02.78 2.38.94 3.26l1.1-.36c-.18-.86-.6-2.18-1-3.2l-1.04.3zm6.2-1.84l-.24.06h-3.16v1.24h2.58c-.72 1.94-2.14 3.5-3.66 4.26.28.24.68.74.86 1.06 2.02-1.14 3.76-3.28 4.48-6.3l-.86-.32zm-1.28-4.56h6.22v1.78h-6.22v-1.78zm0-2.86h6.22v1.74h-6.22v-1.74zm7.18 6.52c-.54.68-1.46 1.6-2.24 2.32-.4-.74-.7-1.5-.94-2.3v-.72h3.66v-7h-4.5c.26-.54.56-1.18.84-1.78l-1.66-.34c-.14.62-.4 1.44-.68 2.12h-3.06v7h3.98v7.5c0 .24-.08.3-.34.32-.24.02-1.08.02-2.02-.02.2.4.36.96.44 1.38 1.28 0 2.12-.02 2.64-.26.54-.24.7-.64.7-1.4v-3.76c.94 1.94 2.2 3.56 3.78 4.54.24-.38.66-.92.98-1.18-1.28-.66-2.4-1.76-3.26-3.12.88-.66 1.9-1.58 2.8-2.4l-1.12-.9zm8.098-9.8c-.82 1.4-2.46 3.1-3.92 4.16.22.28.62.78.8 1.08 1.6-1.22 3.38-3.06 4.48-4.74l-1.36-.5zm.48 4.04c-1.1 2.1-2.88 4.18-4.6 5.54.28.3.7 1.02.86 1.3.62-.52 1.26-1.14 1.88-1.86v9.3h1.42v-11.04c.66-.9 1.26-1.84 1.76-2.78l-1.32-.46zm9.96 7.42c-.74 1.2-1.82 2.22-3.06 3.04-1-.62-1.88-1.36-2.62-2.18.26-.28.5-.56.74-.86h4.94zm1.1-1.3l-.24.06h-4.9c.36-.5.68-1.06.96-1.6l4.44-.28c.44.6.78 1.18 1.04 1.64l1.22-.7c-.68-1.16-2.1-3-3.28-4.32l-1.16.6c.44.5.9 1.08 1.36 1.66l-6.26.34c2.44-1.3 4.9-2.96 7.26-4.9l-1.36-.76c-.82.74-1.74 1.48-2.64 2.14l-3.56.12c1.28-.9 2.6-2.08 3.8-3.32l-1.46-.64c-1.22 1.46-2.98 2.9-3.5 3.28-.52.36-.94.64-1.32.7.18.4.42 1.12.48 1.44.3-.12.84-.22 3.82-.36-1.12.72-2.04 1.3-2.5 1.54-.94.54-1.64.88-2.22.96.16.38.4 1.1.46 1.38.38-.14.9-.22 3.76-.4-.5.88-1.16 1.74-1.86 2.5-.24-.34-.44-.68-.64-1.04l-1.22.42c.3.52.6 1.04.96 1.5-.54.5-1.14.94-1.72 1.32.3.26.82.82 1.02 1.1.52-.4 1.06-.82 1.58-1.32.64.74 1.42 1.44 2.22 2.04-1.62.84-3.46 1.44-5.28 1.78.28.32.6.9.72 1.28 2.04-.48 4.06-1.18 5.86-2.22 1.66.98 3.56 1.72 5.66 2.18.2-.4.58-.96.9-1.28-1.92-.34-3.7-.96-5.28-1.74 1.66-1.2 2.98-2.72 3.8-4.64l-.92-.46zm12.717 2.8c2.1-.74 3.46-2.38 3.46-4.54 0-1.4-.6-2.3-1.7-2.3-.82 0-1.52.5-1.52 1.44s.68 1.42 1.5 1.42c.12 0 .22 0 .34-.02-.1 1.36-.98 2.3-2.52 2.94l.44 1.06zm25.3-6.44h-3.74v-1.94h3.74v1.94zm0 3.24h-3.74v-1.98h3.74v1.98zm0 3.34h-3.74v-2.08h3.74v2.08zm-5.18 2.44h1.44v-1.16h9.8v-1.28h-4.64v-2.08h3.6v-1.26h-3.6v-1.98h3.64v-1.26h-3.64v-1.94h4.3v-1.3h-3.5c-.3-.84-.9-1.98-1.46-2.86l-1.36.4c.42.76.9 1.7 1.2 2.46h-3.98c.5-.92.94-1.9 1.3-2.88l-1.36-.38c-.9 2.52-2.4 4.9-4.14 6.42.28.3.74.98.92 1.28.5-.5 1-1.06 1.48-1.68v9.5zm-3.26-12.22c-.24-.86-.7-2.18-1.06-3.22l-1.3.4c.32 1.04.78 2.4 1.02 3.28l1.34-.46zm.68 5.94l-.26.06h-1.38c.54-1.38 1.16-3.06 1.66-4.5h-4.1v1.34h2.22c-.54 1.58-1.16 3.28-1.72 4.46h2.62c-.32 1.44-.84 3.02-1.44 4.16-.6.4-1.3 1.22-2 2.22l1.02 1.34c.58-1.26 1.26-2.52 1.7-2.52.46 0 1.2.68 2 1.16 1.48.88 3.22 1.1 5.86 1.1 2.36 0 6.16-.12 7.64-.22.04-.44.26-1.14.46-1.54-2.24.22-5.48.42-8.04.42-2.38 0-4.18-.14-5.6-1-.74-.44-1.22-.82-1.6-1.04.68-1.46 1.26-3.4 1.64-5.16l-.68-.28zm34.2-8.06h-9.76v1.4h9.76v-1.4zm-13.1-1.22c-1 1.42-2.92 3.22-4.58 4.34.26.28.66.86.88 1.18 1.78-1.26 3.82-3.2 5.12-4.96l-1.42-.56zm.82 4.26c-1.38 2.26-3.54 4.56-5.6 6.02.3.3.82.94 1.04 1.24.74-.58 1.5-1.3 2.26-2.08v8.88h1.48v-10.52c.82-.98 1.58-2 2.2-3.02l-1.38-.52zm12.86 2.42h-11.2v1.42h6.68v8.24c0 .34-.12.42-.5.44-.38.02-1.7.02-3.12-.02.22.42.42 1.04.48 1.44 1.96 0 3.08 0 3.76-.22.66-.24.88-.7.88-1.62v-8.26h3.02v-1.42zm12.62 4.08v-3.32h5.38v3.32h-5.38zm-6.34 0c.06-.74.08-1.48.08-2.14v-1.18h4.78v3.32h-4.86zm4.86-7.92v3.2h-4.78v-3.2h4.78zm6.86 3.2h-5.38v-3.2h5.38v3.2zm1.46-4.62h-14.56v7.2c0 2.78-.2 6.3-2.4 8.78.32.18.92.68 1.14.98 1.52-1.7 2.2-3.98 2.5-6.2h5v5.9h1.48v-5.9h5.38v4.06c0 .38-.14.5-.54.52-.36 0-1.72.02-3.12-.04.2.4.44 1.04.5 1.44 1.88.02 3.04 0 3.72-.24.64-.26.9-.7.9-1.66v-14.84zm8.11 9.12c.08-.84.1-1.62.1-2.36v-1.62h10.14v3.98h-10.24zm.1-5.36v-1.96c3.86-.48 8.12-1.16 11.02-2.04l-1.22-1.12c-2.58.84-7.26 1.62-11.28 2.06v6.06c0 2.84-.26 6.56-2.8 9.14.34.18.9.72 1.14 1 1.74-1.74 2.52-4.1 2.88-6.38h10.4v1.06h1.48v-7.82h-11.62zm23.3.72h3.16v2.46h-3.16v-2.46zm0 3.7h3.16v2.5h-3.16v-2.5zm0-7.38h3.16v2.44h-3.16v-2.44zm-1.28-1.32v12.5h5.78v-12.5h-5.78zm3.52 13.48c.8.98 1.78 2.34 2.22 3.18l1.18-.74c-.46-.8-1.46-2.12-2.28-3.06l-1.12.62zm-2.7-.56c-.58 1.36-1.6 2.76-2.66 3.68.32.2.92.6 1.16.82 1.06-1 2.2-2.6 2.88-4.14l-1.38-.36zm9.94-13.8v16.4c0 .34-.14.44-.48.44-.3.02-1.36.04-2.54 0 .2.38.38 1.02.44 1.4 1.64 0 2.58-.04 3.14-.28.56-.24.78-.66.78-1.58v-16.38h-1.34zm-3.48 2.04v11.36h1.32v-11.36h-1.32zm-11.88-.78c1.12.56 2.5 1.48 3.14 2.14l.88-1.18c-.68-.66-2.04-1.5-3.16-2.02l-.86 1.06zm-.86 5.34c1.18.52 2.6 1.36 3.28 1.98l.84-1.22c-.7-.62-2.12-1.38-3.28-1.84l-.84 1.08zm.42 10.6l1.34.8c.86-1.84 1.86-4.28 2.6-6.36l-1.18-.78c-.82 2.24-1.96 4.8-2.76 6.34zm38.18-14.32c-.34-.68-1.1-1.72-1.8-2.46l-1.04.58c.7.8 1.44 1.9 1.76 2.58l1.08-.7zm-13.06-.42c-.28-.7-.94-1.74-1.5-2.56l-1.16.58c.54.84 1.18 1.94 1.48 2.68l1.18-.7zm.36 10.04v3.3h-2.78v-3.3h2.78zm1.3-1.24h-5.36v6.72h1.28v-.94h4.08v-5.78zm-5.34-1.48h5.3v-1.18h-5.3v1.18zm5.3-3.78h-5.3v1.18h5.3v-1.18zm-6.14-1.4h6.52v-1.22h-6.52v1.22zm10.3 4.86h2.14v-1.34h-5.6v1.34h2.1v5.28c-.9.22-1.72.42-2.42.58l.42 1.44c1.78-.52 4.1-1.16 6.3-1.84l-.14-1.26c-.94.24-1.9.5-2.8.74v-4.94zm7.86-4.16v-1.4h-3.88c-.04-1.24-.06-2.52-.04-3.86h-1.46c.02 1.32.04 2.6.08 3.86h-5.84v1.4h5.9c.32 7.26 1.24 12.98 3.48 12.98 1.24 0 1.64-.94 1.86-3.92-.34-.14-.8-.48-1.12-.8-.06 2.24-.24 3.26-.54 3.26-1.06 0-2-4.84-2.28-11.52h3.84zm-242.64 29.18c-.28-.7-.88-1.74-1.42-2.56l-1.06.58c.52.82 1.1 1.94 1.38 2.66l1.1-.68zm2.56.9h-7.08v1.22h7.08v-1.22zm-6.3 6.4h5.52v-1.18h-5.52v1.18zm0-3.78v1.18h5.5v-1.18h-5.5zm4.28 6.5v3.3h-3.12v-3.3h3.12zm1.24 4.54v-5.78h-5.56v6.72h1.2v-.94h4.36zm11.62-12.18v-1.42h-4.78l.62-.2c-.16-.8-.6-2.1-1.04-3.1l-1.26.34c.38.94.76 2.14.92 2.96h-4.78v1.42h2.7c-.12 4.96-.48 9.84-4.12 12.4.34.22.76.7.98 1.04 2.8-2.06 3.86-5.34 4.28-9.02h4.14c-.22 4.88-.48 6.78-.88 7.22-.18.22-.36.26-.7.24-.38 0-1.34 0-2.36-.1.24.4.4.98.44 1.42.98.06 1.98.08 2.5.02.58-.06.96-.2 1.34-.66.58-.72.82-2.86 1.1-8.84 0-.2.02-.7.02-.7h-5.48c.08-1 .12-2 .16-3.02h6.2zm18.16-3.58c-.46.96-1.28 2.38-1.92 3.24l1.08.48c.66-.8 1.5-2.06 2.2-3.16l-1.36-.56zm1.56 6.66c-1.1-1.04-3.18-2.46-4.98-3.52.26-1.2.36-2.64.4-4.42h-1.38c-.1 4.96-.54 6.86-4.84 7.94.3.28.68.82.82 1.2 2.54-.74 3.86-1.76 4.6-3.46 1.68 1.08 3.54 2.46 4.52 3.42l.86-1.16zm-2.48 5.8c.68-.84 1.56-2.2 2.28-3.38l-1.36-.54c-.46 1.04-1.32 2.56-1.98 3.48l1.06.44zm-4.8-.32c-.46-.9-1.46-2.46-2.26-3.64l-1.06.64c.78 1.2 1.74 2.8 2.24 3.76l1.08-.76zm.2-8.7c-.44-.86-1.42-2.34-2.2-3.46l-1.06.64c.78 1.14 1.72 2.7 2.18 3.6l1.08-.78zm-6.02-2.16c-.26-.68-.82-1.76-1.32-2.58l-1.22.46c.5.82 1.02 1.94 1.26 2.64l1.28-.52zm2.56.82h-7.24v1.22h7.24v-1.22zm-.78 3.8v-1.18h-5.68v1.18h5.68zm0 1.42h-5.68v1.18h5.68v-1.18zm-1.24 3.9v3.3h-3.06v-3.3h3.06zm1.32 4.54v-5.78h-5.7v6.72h1.32v-.94h4.38zm6.5-8.8h-1.4v2.12c0 1.9-.38 4.82-5.18 6.86.36.26.78.74.98 1.02 3.06-1.38 4.48-3.1 5.1-4.76.98 2.26 2.48 3.88 4.8 4.7.2-.38.6-.94.92-1.22-2.86-.86-4.5-3-5.24-5.98.02-.22.02-.42.02-.62v-2.12zm14.44 4.72c2.1-.74 3.46-2.38 3.46-4.54 0-1.4-.6-2.3-1.7-2.3-.82 0-1.52.5-1.52 1.44s.68 1.42 1.5 1.42c.12 0 .22 0 .34-.02-.1 1.36-.98 2.3-2.52 2.94l.44 1.06zm24.26-8.98h1.46v-1.4h4.62v-1.3h-4.62v-1.28h-1.46v1.28h-2.24v1.3h2.24v1.4zm1.16 8.04c-.3 1.06-.98 2.18-1.16 2.48-.2.3-.38.5-.6.54.14.22.3.7.36.9.3-.12.78-.22 3.68-.5.1.22.2.42.28.6l.88-.38c-.3-.64-.88-1.72-1.38-2.54l-.86.28c.22.4.48.82.7 1.26l-2.18.2c.52-.72 1.04-1.66 1.4-2.56l-1.12-.28zm-7.98-8.04h1.44v-1.42h2.42v-1.28h-2.42v-1.28h-1.44v1.28h-4.48v1.28h4.48v1.42zm-1.28 4.86h4.64v1.72h-4.64v-1.72zm0-2.76h4.64v1.68h-4.64v-1.68zm11 1.68h-4.88v-1.68h4.88v1.68zm0 2.8h-4.88v-1.72h4.88v1.72zm-2.78 6.14c-1.16 0-1.36-.14-1.36-.72v-4.3h5.64v-6.72h-6.92c.24-.5.54-1.06.8-1.62l-1.52-.28c-.16.52-.42 1.3-.7 1.9h-5.62v6.72h3.98c-.42 3.02-1.54 4.68-6.32 5.5.28.3.68.88.8 1.26 5.16-1.04 6.52-3.12 6.98-6.76h1.46v4.32c0 1.54.58 1.94 2.68 1.94h4.08c1.86 0 2.32-.7 2.5-3.62-.4-.1-.96-.28-1.3-.54-.1 2.52-.26 2.92-1.3 2.92h-3.88zm17.06-12.04h-4.84v-1.34h4.84v1.34zm0 2.38h-4.84V179h4.84v1.32zm0 2.44h-4.84v-1.38h4.84v1.38zm-6.3 1.8h1.46v-.6h13.36v-1.2h-7.08v-1.38h5.68v-1.06h-5.68V179h5.62v-1.06h-5.62v-1.34h6.42v-1.2h-5.88c-.24-.64-.72-1.52-1.16-2.22l-1.36.42c.32.54.66 1.22.9 1.8h-4.44c.44-.62.8-1.28 1.14-1.88l-1.52-.28c-.86 1.74-2.46 3.98-4.64 5.64.34.2.82.64 1.06.96.62-.52 1.22-1.06 1.74-1.62v6.34zm3.2 3.14c-1.28.9-3.76 1.68-5.8 2.06.3.28.72.78.92 1.14 2.04-.48 4.62-1.54 6.02-2.64l-1.14-.56zm5.16.82c1.98.66 4.66 1.64 6 2.24l.82-1.1c-1.4-.6-4.06-1.5-6-2.08l-.82.94zm-1.18-3.02v-1.36h-1.46v1.36h-8.08v1.22h8.08v4.8h1.46v-4.8h8.2v-1.22h-8.2zm21.68-.92h-4.84v-4.56h4.84v4.56zm-6.26-5.9v7.22h7.72v-7.22h-7.72zm-2.88 10.36v-13.46h13.5v13.46h-13.5zm-1.5-14.94v17.42h1.5v-1.08h13.5v1.08h1.58V174.1h-16.58zm28.9 2.78v-1.36h2.46v1.36h-2.46zm6.32-1.36v1.36h-2.5v-1.36h2.5zm-3.86 3.32h-4.66v1.14h10.7v-1.14h-4.68v-.98h3.82v-3.3h-3.82v-1.32h-1.36v1.32h-3.72v3.3h3.72v.98zm-2.32 7.16h5.98v1.22h-5.98V186zm0-2.1h5.98v1.18h-5.98v-1.18zm0-2.06h5.98v1.14h-5.98v-1.14zm7.38 6.32v-7.28h-8.72v7.28h8.72zm-9.64-12.06c-.64-.5-1.84-1.28-2.84-1.88.14-.24.28-.46.4-.68l-1.22-.42c-.9 1.68-2.56 3.26-4.12 4.26.22.28.56 1 .66 1.3 1.28-.88 2.56-2.12 3.58-3.46 1.04.66 2.24 1.48 2.86 2.02l.68-1.14zm-5.08 1.98h3.38V177h-3.38v1.08zm3 2.34V182h-3.08v-1.58h3.08zm-3.08 4.42v-1.72h3.08v1.72h-3.08zm5.12 5.52c-.42-.98-1.34-2.72-2.08-3.98l-1.04.42c.26.48.54.98.8 1.52l-2.8 1.08v-3.42h4.4v-6.68h-5.72v9.84c0 .72-.42 1-.72 1.12.22.3.44.94.52 1.26.36-.28.9-.56 4.82-2.18.3.62.54 1.16.7 1.6l1.12-.58zm3.14-1.94c-.74.86-2.04 1.6-3.24 2.12.3.24.82.74 1.02 1.02 1.26-.62 2.7-1.66 3.56-2.7l-1.34-.44zm3.08.6c1.26.78 2.66 1.8 3.5 2.54l1.08-.8c-.9-.74-2.36-1.72-3.7-2.5l-.88.76zm13.88-10.32h2.78v10.46h-2.78V178.7zm4.24 10.46V178.7h5.56v-1.44h-4.6c.7-.96 1.52-2.3 2.18-3.5l-1.58-.48c-.48 1.12-1.34 2.68-2.04 3.68l.82.3h-6.78l1.26-.56c-.32-.96-1.16-2.34-2-3.4l-1.3.52c.78 1.02 1.6 2.48 1.92 3.44h-4.58v1.44h5.44v10.46h-5.96v1.5h17.74v-1.5h-6.08zm-10.18-8.18c.94 1.98 1.72 4.58 1.9 6.3l1.42-.36c-.24-1.72-1.02-4.32-2-6.3l-1.32.36zm12.48 6.34c.78-1.7 1.74-4.32 2.42-6.5l-1.56-.38c-.48 1.98-1.42 4.78-2.2 6.48l1.34.4zm11.72-5.36l-1.94.6v-3.9h2.08v-1.38h-2.08v-4h-1.38v4h-2.6v1.38h2.6v4.32c-1.1.34-2.1.64-2.88.86l.4 1.42c.74-.22 1.58-.5 2.48-.8v5.2c0 .3-.1.38-.36.38-.22 0-1 0-1.86-.02.2.42.38 1.02.42 1.38 1.28.02 2.04-.04 2.5-.28.5-.24.68-.62.68-1.44v-5.66l2.14-.7-.2-1.36zm2.14 3.96c.78 1.1 1.74 2.62 2.18 3.52l1.22-.74c-.48-.9-1.48-2.34-2.26-3.44l-1.14.66zm7.58-4.38h-1.4v1.78h-7.66v1.36h7.66v5.1c0 .28-.08.36-.38.38-.3.02-1.36.02-2.48-.02.2.42.4 1 .46 1.44 1.46 0 2.44-.02 3.04-.26.58-.24.76-.64.76-1.52v-5.12h2.46v-1.36h-2.46v-1.78zm-2.62-5.7v-2.48h-1.42v2.48h-5.24v1.38h5.24v2.44h-4.26v1.36h9.98v-1.36h-4.3v-2.44h5.22v-1.38h-5.22zm18.54.64h-4.26v1h9.8v-1h-4.08v-1.08h4.88v-1.04h-4.88v-1.08h-1.46v1.08h-5.1v1.04h5.1v1.08zm-3.7 2.82h2.26v1.64h-2.26v-1.64zm8.56 1.64h-1.9v-1.64h1.9v1.64zm-5.14 0v-1.64h2.08v1.64h-2.08zm-4.68 1.02h11.14v-3.66h-11.14v3.66zm.04 3.14c-.14-1.06-.62-2.84-1.12-4.22l-1.06.26c.22.6.4 1.3.58 1.98l-2.88.36c1.52-1.86 3-4.2 4.18-6.52l-1.18-.7c-.42.9-.88 1.84-1.4 2.7l-1.96.16c1.04-1.5 2.04-3.46 2.84-5.34l-1.28-.54c-.72 2.18-2.02 4.5-2.42 5.08-.38.6-.7 1.04-1.02 1.12.14.34.36.98.44 1.24.26-.14.68-.2 2.66-.44-.7 1.1-1.3 1.96-1.6 2.3-.56.76-.98 1.26-1.38 1.34.16.36.38 1 .44 1.3.34-.2.96-.32 4.84-.92.1.42.16.84.2 1.16l1.12-.32zm-5.8.94c-.18 1.72-.5 3.64-1 4.94.32.1.9.28 1.16.4.44-1.28.8-3.3 1.04-5.14l-1.2-.2zm1.88.1c.24 1.46.46 3.36.48 4.62l1.14-.2c-.06-1.26-.3-3.14-.54-4.6l-1.08.18zm1.8-.36c.38 1.18.84 2.72 1.02 3.74l1.04-.34c-.2-.98-.66-2.52-1.1-3.7l-.96.3zm4.06 1.1h7.12v.92h-7.12v-.92zm0-1.58h7.12v.86h-7.12v-.86zm0-1.56h7.12v.84h-7.12v-.84zm8.52 4.96v-5.86h-9.86v5.86h3.1c-1.08.58-2.98 1.38-4.28 1.86.22.3.48.74.62 1.06 1.36-.54 3.26-1.32 4.78-2.02l-1.06-.9h3.42l-.5.88c1.48.6 3.14 1.38 4.2 1.9l.62-1.06c-1.02-.48-2.58-1.18-4.06-1.72h3.02zm13.82-10.96v1.06c0 .62-.02 1.3-.1 1.98h-5.5v1.38h5.24c-.5 1.94-1.8 3.88-4.96 5.28.32.26.8.78.98 1.1 2.76-1.34 4.22-3.1 5-4.94 1.9 1.46 3.9 3.34 4.86 4.68l1.12-.96c-1.12-1.5-3.5-3.58-5.56-5.02l.04-.14h5.92v-1.38h-5.68c.08-.68.1-1.32.1-1.96v-1.08h4.62v-1.36h-4.62v-3.1h-1.46v3.1h-2.32c.26-.7.5-1.48.68-2.22l-1.46-.26c-.48 2.1-1.36 4.22-2.52 5.58.34.16 1.04.48 1.34.7.52-.66.98-1.5 1.42-2.44h2.86zm-7.4-1.14c-.26-.86-.72-2.18-1.06-3.22l-1.32.4c.34 1.04.78 2.4 1.02 3.28l1.36-.46zm.66 5.94l-.26.06h-1.36c.52-1.38 1.14-3.06 1.64-4.5h-4.1v1.34h2.24c-.56 1.56-1.18 3.28-1.72 4.46h2.6c-.32 1.44-.82 3.02-1.44 4.16-.6.4-1.28 1.22-2 2.22l1.04 1.34c.58-1.26 1.24-2.52 1.7-2.52.44 0 1.18.68 2 1.16 1.46.88 3.2 1.1 5.84 1.1 2.38 0 6.16-.12 7.64-.22.04-.44.26-1.14.46-1.54-2.24.22-5.48.42-8.04.42-2.38 0-4.18-.14-5.6-1-.74-.44-1.22-.82-1.6-1.04.68-1.46 1.28-3.4 1.64-5.16l-.68-.28zm33.54-5.64c-.68-.9-2.1-2.26-3.3-3.2l-1.08.72c1.18.98 2.58 2.38 3.22 3.28l1.16-.8zm-12.34-3.4c-1.3 3.14-3.5 6.18-5.78 8.12.26.34.7 1.08.86 1.44.92-.84 1.82-1.82 2.68-2.94v11.38h1.5v-13.52c.82-1.3 1.56-2.64 2.14-4.04l-1.4-.44zm12.72 6.44l-.2-1.4-5.98.76c-.2-1.76-.32-3.7-.38-5.72h-1.48c.08 2.08.22 4.06.38 5.92l-4.84.6.2 1.4 4.8-.6c.76 6.24 2.36 10.38 5.64 10.62 1.04.06 1.84-.98 2.28-4.4-.3-.14-.94-.5-1.24-.78-.2 2.3-.52 3.48-1.1 3.44-2.14-.2-3.44-3.78-4.12-9.08l6.04-.76z" fill="#1C1C1E"/></svg>