<svg width="960" height="57" fill="none" xmlns="http://www.w3.org/2000/svg"><path d="M107.324 24.402v2.448h18.792v-2.448h-18.792zm-2.592 16.272v2.412h26.532v-2.412h-26.532zm1.476-22.32v2.448h25.056v-2.448h-25.056zm18.828 6.048v.576c-.396 14.04-.9 19.08-1.836 20.232-.324.432-.648.504-1.332.504-.684.036-2.34 0-4.176-.144.36.612.612 1.548.648 2.16 1.8.108 3.6.108 4.68.036 1.08-.108 1.872-.396 2.556-1.296 1.152-1.512 1.656-6.228 2.088-20.736 0-.36.036-1.332.036-1.332h-2.664zm-19.044 0c-.576 5.868-1.764 13.968-2.736 18.684h2.736c.864-4.608 1.98-12.636 2.736-18.684h-2.736zm1.728-9.9c-1.872 4.572-5.004 9.18-8.316 12.096.684.36 1.836 1.152 2.412 1.584 3.168-3.132 6.408-7.992 8.604-12.924l-2.7-.756zm4.32 13.968c2.376 1.044 5.148 2.808 6.516 4.14l1.62-1.692c-1.44-1.332-4.248-2.952-6.588-3.996l-1.548 1.548zm-.9 7.884c2.448 1.26 5.4 3.24 6.84 4.68l1.584-1.728c-1.476-1.404-4.464-3.312-6.912-4.464l-1.512 1.512zm-11.628-3.888v2.448h6.732v-.072h19.872v.072h6.408v-2.448h-6.408v.072h-19.872v-.072h-6.732zm40.68-9.684h7.02v2.736h-7.02v-2.736zm0-4.608h7.02v2.7h-7.02v-2.7zm-2.412-1.944v11.304h11.952V16.23H137.78zm-2.16 13.968v2.088h16.236v-2.088H135.62zm16.02-13.716v2.016h16.416v-2.016H151.64zm-8.82 14.364v12.276l2.304 1.44V30.846h-2.304zm1.224 5.328v2.052h7.2v-2.052h-7.2zm14.724-19.188c-.324 1.548-.936 3.78-1.512 5.256l2.016.468c.648-1.332 1.368-3.384 2.052-5.22l-2.556-.504zm-3.276 10.908h8.604v2.7h-8.604v-2.7zm0 4.572h8.604v2.772h-8.604v-2.772zm0-9.18h8.604v2.664h-8.604v-2.664zm-2.448-1.98v15.912h13.572V21.306h-13.572zm2.988 16.56c-1.368 1.656-3.708 3.276-5.94 4.32.504.396 1.404 1.26 1.8 1.656 2.232-1.224 4.86-3.276 6.444-5.292l-2.304-.684zm-17.892-3.6c-.18 4.428-.756 9.288-2.952 11.916.576.396 1.368 1.188 1.728 1.728 2.556-3.06 3.276-8.46 3.492-13.644h-2.268zm1.692 3.528l-1.692.612c2.988 7.452 8.784 8.64 17.964 8.64h11.7c.144-.72.576-1.764.972-2.34-2.124.072-11.052.072-12.672.072-8.1 0-13.716-.792-16.272-6.984zm21.24 1.044c1.944 1.332 4.356 3.42 5.508 4.86l1.98-1.26c-1.188-1.368-3.564-3.384-5.652-4.644l-1.836 1.044zm20.772-16.236v2.16h22.176v-2.16h-22.176zm1.8 9.9v2.052h18.72v-2.052h-18.72zm-1.548 4.932v2.16h21.6v-2.16h-21.6zm8.82-22.716v28.44h2.556v-28.44h-2.556zm-6.732 3.06v2.16h14.904v7.632h-15.156v2.16h17.604V17.778h-17.352zm-11.916-.828v2.412h8.244V16.95h-8.244zm2.628 10.296l-.324 2.376h5.832v-2.376h-5.508zm4.608 0v.504c-.936 9.108-3.744 15.084-8.208 18.252.612.36 1.584 1.296 2.016 1.8 4.5-3.456 7.596-10.008 8.712-20.232l-1.548-.396-.468.072h-.504zm-4.68 5.328l-2.052.756c3.384 11.412 10.332 13.608 20.7 13.608h10.116c.144-.72.612-1.908 1.044-2.484-1.872.036-9.648.036-11.088.036-9.18 0-15.84-1.836-18.72-11.916zm-1.368-1.8c0-.54 1.944-1.368 1.944-1.368v-.036c2.232-2.952 4.644-7.236 6.732-11.7l-1.728-1.152-1.008.468v.18c-1.476 3.96-3.996 8.172-4.752 9.252-.72 1.152-1.62 2.016-2.268 2.16.36.576.9 1.656 1.08 2.196zm36-9.288v2.7h29.16v-2.7h-29.16zm-1.548 22.104v2.7h32.148v-2.7h-32.148zm6.552-16.812c1.368 4.788 2.88 11.124 3.42 15.228l2.844-.684c-.612-4.176-2.124-10.332-3.6-15.192l-2.664.648zm16.416-.612c-1.26 5.472-3.6 13.392-5.652 18l2.664.576c1.98-4.572 4.392-12.132 6.012-18.072l-3.024-.504zm-9.468-10.98c.684 1.872 1.44 4.32 1.728 5.904l2.772-.828c-.36-1.584-1.152-3.924-1.908-5.76l-2.592.684zm35.856 10.944v2.376H275.3V26.13h-18.036zm-1.62-7.128v2.448h20.772v-2.448h-20.772zm.144 13.5v2.412h20.52v-2.412h-20.52zm8.928-17.82v12.78h2.664v-12.78h-2.664zm4.752 13.356v16.524c0 .54-.18.684-.792.72-.576.036-2.592.036-4.824-.036.396.72.828 1.8.936 2.52 2.88 0 4.716-.036 5.832-.432 1.116-.396 1.476-1.188 1.476-2.736v-16.56h-2.628zm-11.484 9.396c1.764 1.908 3.708 4.608 4.572 6.336l2.376-1.476c-.9-1.692-2.988-4.284-4.716-6.12l-2.232 1.26zm-11.988-20.376v2.448h6.48v18.756h-6.48v2.448h9V17.058h-9zm.108 10.476v2.412h7.56v-2.412h-7.56zM244.7 17.058v26.604h2.556V17.058H244.7zm45.792 19.692v2.088H301.4V36.75h-10.908zm-.108-5.436v2.124h9.72v8.928h-9.72v2.088h12.276v-13.14h-12.276zm-1.188 0V46.29h2.484V31.314h-2.484zm-6.624-9.972v1.98h10.008v-1.98h-10.008zm16.596 0v1.98h10.188v-1.98h-10.188zm9.072-5.112v28.008c0 .612-.216.828-.864.828-.648.036-2.844.072-5.04-.036.396.756.828 2.016.936 2.772 3.024 0 4.968-.036 6.12-.468 1.152-.468 1.548-1.368 1.548-3.096V16.23h-2.7zm-25.452 0v2.088h8.964v8.208h-8.964v2.088h11.52V16.23h-11.52zm26.784 0h-12.024v12.42h12.024v-2.052h-9.432v-8.28h9.432V16.23zm-28.332 0v31.608h2.664V16.23h-2.664z" fill="#000"/><path d="M341.71 27.53v3.693h-12.898V27.53h12.898zm15.341 16.79c-1.951 0-3.693-.337-5.227-1.009-1.525-.672-2.732-1.605-3.622-2.798-.881-1.203-1.354-2.595-1.421-4.176h4.46c.057.861.346 1.61.867 2.244.53.625 1.222 1.108 2.074 1.449.852.34 1.799.511 2.841.511 1.146 0 2.159-.199 3.039-.596.891-.398 1.587-.952 2.089-1.662.501-.72.752-1.549.752-2.486 0-.975-.251-1.832-.752-2.571-.493-.748-1.217-1.335-2.174-1.761-.947-.427-2.093-.64-3.437-.64h-2.458v-3.58h2.458c1.079 0 2.026-.193 2.841-.582.824-.388 1.467-.928 1.931-1.619.465-.7.697-1.52.697-2.457 0-.9-.204-1.681-.611-2.344-.398-.672-.966-1.198-1.705-1.577-.729-.379-1.591-.568-2.585-.568-.947 0-1.832.175-2.656.526-.815.34-1.478.833-1.989 1.477-.511.634-.786 1.397-.824 2.287h-4.247c.047-1.572.511-2.955 1.392-4.148.89-1.193 2.064-2.126 3.523-2.798 1.458-.673 3.077-1.009 4.858-1.009 1.865 0 3.475.365 4.829 1.094 1.364.72 2.415 1.68 3.154 2.883a7.244 7.244 0 011.108 3.95c.009 1.628-.445 3.01-1.364 4.147-.909 1.136-2.121 1.899-3.636 2.287v.227c1.932.294 3.428 1.06 4.488 2.301 1.07 1.241 1.601 2.78 1.591 4.617.01 1.6-.435 3.035-1.335 4.304-.89 1.269-2.107 2.268-3.651 2.997-1.543.72-3.309 1.08-5.298 1.08zm25.327-29.887c1.297.01 2.576.247 3.835.71 1.26.464 2.396 1.222 3.409 2.273 1.023 1.051 1.837 2.472 2.443 4.262.616 1.78.928 3.996.938 6.647 0 2.548-.256 4.816-.767 6.804-.512 1.98-1.245 3.65-2.202 5.015-.947 1.363-2.097 2.4-3.452 3.11-1.354.71-2.878 1.066-4.573 1.066-1.733 0-3.272-.341-4.617-1.023a8.791 8.791 0 01-3.281-2.827c-.843-1.212-1.369-2.604-1.577-4.176h4.332c.285 1.25.862 2.263 1.733 3.04.881.767 2.017 1.15 3.41 1.15 2.13 0 3.792-.928 4.985-2.784 1.194-1.865 1.795-4.47 1.804-7.812h-.227a7.843 7.843 0 01-1.847 2.102 8.307 8.307 0 01-2.457 1.364 8.659 8.659 0 01-2.912.483c-1.676 0-3.201-.412-4.574-1.236-1.373-.824-2.467-1.956-3.281-3.395-.814-1.44-1.222-3.082-1.222-4.929 0-1.837.417-3.504 1.25-5a9.328 9.328 0 013.523-3.551c1.515-.88 3.291-1.312 5.327-1.293zm.014 3.693c-1.108 0-2.107.275-2.997.824a5.83 5.83 0 00-2.088 2.202c-.512.918-.767 1.941-.767 3.068s.246 2.15.738 3.068a5.86 5.86 0 002.046 2.174c.871.53 1.865.795 2.983.795.833 0 1.61-.16 2.329-.483a5.909 5.909 0 001.89-1.335 6.517 6.517 0 001.264-1.96 5.94 5.94 0 00.454-2.301c0-1.07-.255-2.065-.767-2.983a5.973 5.973 0 00-2.074-2.216c-.88-.569-1.884-.853-3.011-.853zm30.927 20.341v-1.534c0-1.098.227-2.102.682-3.011a5.44 5.44 0 012.017-2.202c.89-.558 1.965-.838 3.224-.838 1.288 0 2.368.275 3.239.824a5.276 5.276 0 011.974 2.202c.455.918.682 1.927.682 3.025v1.534c0 1.099-.227 2.107-.682 3.026a5.457 5.457 0 01-2.003 2.202c-.871.549-1.941.824-3.21.824-1.278 0-2.358-.275-3.238-.824a5.457 5.457 0 01-2.003-2.202c-.455-.919-.682-1.927-.682-3.026zm3.31-1.534v1.534c0 .815.194 1.553.582 2.216.388.663 1.065.995 2.031.995.957 0 1.624-.332 2.003-.995a4.384 4.384 0 00.568-2.216v-1.534c0-.814-.184-1.553-.554-2.216-.36-.663-1.032-.994-2.017-.994-.947 0-1.619.331-2.017.994a4.221 4.221 0 00-.596 2.216zM398.688 21.82v-1.535c0-1.098.227-2.107.682-3.025a5.441 5.441 0 012.017-2.202c.89-.549 1.965-.824 3.225-.824 1.287 0 2.367.275 3.238.824a5.286 5.286 0 011.975 2.202c.445.918.667 1.927.667 3.025v1.535c0 1.098-.227 2.107-.682 3.025a5.364 5.364 0 01-1.988 2.202c-.871.55-1.942.824-3.21.824-1.288 0-2.373-.275-3.253-.824a5.493 5.493 0 01-1.989-2.202c-.455-.918-.682-1.927-.682-3.025zm3.324-1.535v1.535c0 .814.189 1.553.568 2.215.389.663 1.066.995 2.032.995.946 0 1.609-.332 1.988-.995a4.306 4.306 0 00.583-2.215v-1.535c0-.814-.185-1.552-.554-2.215-.37-.663-1.042-.995-2.017-.995-.947 0-1.62.332-2.018.995a4.305 4.305 0 00-.582 2.215zm-1.974 23.637l20-29.091h3.395l-20 29.09h-3.395z" fill="#2F80ED"/><path d="M469.104 34.374v2.268h27.9v-2.268h-27.9zm-2.088-17.424v2.052h16.452V16.95h-16.452zm16.056 22.5v2.124h11.592V39.45h-11.592zm-16.38 5.076v2.34h32.688v-2.34h-32.688zm14.904-9.324v10.332h2.664V35.202h-2.664zm-7.416-20.52v18.684h2.412V14.682h-2.412zm-1.584 23.832v7.2h2.592v-7.2h-2.592zm-2.304-15.84h9.9v2.664h-9.9v-2.664zm-2.196-1.836v6.264h14.436v-6.264h-14.436zm19.872-6.12c-1.008 3.636-2.808 6.984-5.184 9.18.54.432 1.476 1.332 1.836 1.836 2.52-2.484 4.644-6.372 5.796-10.476l-2.448-.54zm-.54 3.996l-1.116 2.268h12.924v-2.268h-11.808zm7.236.972c-1.44 6.372-5.508 10.116-11.808 12.096.504.468 1.296 1.512 1.584 2.016 6.552-2.484 10.98-6.588 12.744-13.824l-2.52-.288zm-6.948.36l-1.764 1.188c1.62 4.644 5.436 10.152 12.132 12.636.288-.612 1.008-1.62 1.548-2.124-6.66-2.124-10.404-7.236-11.916-11.7zm-13.788 6.372c-1.62 2.16-4.752 4.428-7.524 5.472.504.396 1.224 1.224 1.584 1.764 2.808-1.296 6.012-3.96 7.704-6.48l-1.764-.756zm2.52 2.232c1.764.9 3.816 2.232 4.896 3.24l1.188-1.584c-1.044-1.008-3.204-2.268-4.896-3.06l-1.188 1.404zm34.056-13.824c-2.016 5.472-5.364 10.872-8.928 14.364.504.612 1.26 2.052 1.548 2.664 3.888-4.032 7.596-10.116 9.936-16.236l-2.556-.792zm-3.816 9.288v23.652h2.664V21.522l-.036-.036-2.628 2.628zm8.928 5.328v2.556h14.148v-2.556h-14.148zm13.248 0v.54c-.468 10.08-.972 13.752-1.728 14.652-.36.396-.648.432-1.224.432-.612 0-2.016 0-3.564-.144.432.684.648 1.728.72 2.484 1.62.108 3.168.108 4.068 0 1.008-.072 1.656-.36 2.304-1.116 1.044-1.26 1.512-5.04 2.016-15.624.036-.36.036-1.224.036-1.224h-2.628zm-9 1.296c-.576 7.38-2.7 12.24-7.956 14.94.576.468 1.476 1.512 1.836 2.016 5.544-3.276 8.064-8.496 8.82-16.812l-2.7-.144zm2.808-14.796v2.592h5.688v-2.592h-5.688zm-3.924.504c-1.26 4.716-3.6 8.928-6.732 11.628.54.54 1.44 1.764 1.764 2.34 3.42-3.132 6.12-7.92 7.632-13.32l-2.664-.648zm7.128-.504v1.476h.648c1.26 5.112 3.888 10.152 7.164 13.068.396-.864 1.224-2.088 1.764-2.736-3.024-2.304-5.508-6.876-6.552-11.808h-3.024zm24.696 9.432h5.724v4.5h-5.724v-4.5zm0 6.732h5.724v4.5h-5.724v-4.5zm0-13.392h5.724v4.428h-5.724v-4.428zm-2.34-2.412v22.716h10.512V16.302h-10.512zm6.372 24.48c1.476 1.764 3.24 4.248 4.032 5.76l2.16-1.332c-.828-1.476-2.664-3.852-4.14-5.58l-2.052 1.152zm-4.86-1.008c-1.08 2.448-2.952 4.968-4.86 6.66.612.36 1.656 1.08 2.16 1.512 1.908-1.836 3.96-4.716 5.184-7.524l-2.484-.648zm17.964-25.056v29.736c0 .612-.216.792-.828.792-.576.036-2.484.072-4.608 0 .36.72.684 1.872.828 2.556 2.952 0 4.644-.036 5.688-.504 1.008-.432 1.44-1.188 1.44-2.88v-29.7h-2.52zm-6.264 3.708v20.592h2.376V18.426h-2.376zm-21.528-1.404c2.016 1.008 4.5 2.664 5.652 3.888l1.62-2.196c-1.224-1.152-3.708-2.7-5.724-3.636l-1.548 1.944zm-1.584 9.684c2.124.936 4.68 2.448 5.94 3.564l1.548-2.196c-1.26-1.116-3.852-2.52-5.976-3.348l-1.512 1.98zm.756 19.224l2.412 1.44c1.584-3.348 3.384-7.776 4.752-11.52l-2.16-1.44c-1.476 4.032-3.528 8.748-5.004 11.52zm38.34-23.976v2.124h10.008v-2.124h-10.008zm0 5.328v2.124h10.08v-2.124h-10.08zm4.068-9.396v16.416h2.16V17.886h-2.16zm.792 18.684c.756 1.512 1.62 3.492 2.016 4.788l1.26-.54c-.36-1.224-1.296-3.168-2.088-4.68l-1.188.432zm-2.16.576c.576 1.836 1.152 4.284 1.404 5.904l1.404-.324c-.288-1.584-.9-3.996-1.476-5.868l-1.332.288zm-2.124.36c.252 2.088.432 4.788.432 6.588l1.44-.216c-.036-1.764-.216-4.428-.504-6.516l-1.368.144zm-2.268-.648c-.252 2.376-.864 5.832-1.62 7.956l1.656.612c.684-2.124 1.224-5.652 1.548-8.064l-1.584-.504zm10.26-4.032v.432c-.216 8.424-.468 11.376-.972 12.024-.216.36-.468.396-.864.396-.432 0-1.404 0-2.484-.108.324.576.54 1.476.576 2.088 1.08.072 2.196.072 2.844 0 .828-.072 1.332-.288 1.836-.9.72-1.008 1.008-4.032 1.296-12.888v-1.044h-2.232zm2.16-16.488H576.06V35.13h11.16v-2.304h-8.964v-14.22h9.9v-2.268zm3.456 13.356h3.24v4.572h-3.24v-4.572zm-1.908-1.908v8.352h7.164v-8.352h-7.164zm10.8 1.908h3.456v4.572h-3.456v-4.572zm-1.944-1.908v8.352h7.452v-8.352h-7.452zm-6.264 9.468c-.756 3.744-2.412 6.948-4.824 9.036.54.36 1.476 1.152 1.872 1.548 2.484-2.34 4.356-5.976 5.292-10.152l-2.34-.432zm.072-14.472v2.16h10.836v-2.16h-10.836zm-.504 19.08c1.62 1.044 3.564 2.592 4.536 3.672l1.404-1.8c-.936-1.008-2.952-2.52-4.536-3.456l-1.404 1.584zm9.396-4.788c-.684 3.852-2.232 7.092-4.716 9.144.612.396 1.62 1.188 2.016 1.584 2.556-2.376 4.392-6.012 5.184-10.332l-2.484-.396zm-.9 5.472c1.908 1.368 4.248 3.312 5.364 4.608l1.656-1.872c-1.152-1.224-3.528-3.096-5.436-4.392l-1.584 1.656zm-3.24-28.188c-1.872 3.42-5.508 7.02-9.612 9.396.54.36 1.368 1.188 1.728 1.656 4.32-2.556 8.1-6.228 10.404-10.26l-2.52-.792zm1.08 1.008l-1.836 1.116c2.304 3.096 6.552 6.624 10.116 8.676.216-.648.756-1.728 1.224-2.34-3.348-1.62-7.488-4.716-9.504-7.452zm22.644 7.236v2.16h22.176v-2.16h-22.176zm1.8 9.9v2.052h18.72v-2.052h-18.72zm-1.548 4.932v2.16h21.6v-2.16h-21.6zm8.82-22.716v28.44h2.556v-28.44h-2.556zm-6.732 3.06v2.16h14.904v7.632h-15.156v2.16h17.604V17.778h-17.352zm-11.916-.828v2.412h8.244V16.95h-8.244zm2.628 10.296l-.324 2.376h5.832v-2.376h-5.508zm4.608 0v.504c-.936 9.108-3.744 15.084-8.208 18.252.612.36 1.584 1.296 2.016 1.8 4.5-3.456 7.596-10.008 8.712-20.232l-1.548-.396-.468.072h-.504zm-4.68 5.328l-2.052.756c3.384 11.412 10.332 13.608 20.7 13.608h10.116c.144-.72.612-1.908 1.044-2.484-1.872.036-9.648.036-11.088.036-9.18 0-15.84-1.836-18.72-11.916zm-1.368-1.8c0-.54 1.944-1.368 1.944-1.368v-.036c2.232-2.952 4.644-7.236 6.732-11.7l-1.728-1.152-1.008.468v.18c-1.476 3.96-3.996 8.172-4.752 9.252-.72 1.152-1.62 2.016-2.268 2.16.36.576.9 1.656 1.08 2.196zm36-9.288v2.7h29.16v-2.7h-29.16zm-1.548 22.104v2.7h32.148v-2.7h-32.148zm6.552-16.812c1.368 4.788 2.88 11.124 3.42 15.228l2.844-.684c-.612-4.176-2.124-10.332-3.6-15.192l-2.664.648zm16.416-.612c-1.26 5.472-3.6 13.392-5.652 18l2.664.576c1.98-4.572 4.392-12.132 6.012-18.072l-3.024-.504zm-9.468-10.98c.684 1.872 1.44 4.32 1.728 5.904l2.772-.828c-.36-1.584-1.152-3.924-1.908-5.76l-2.592.684zm35.856 10.944v2.376H714.3V26.13h-18.036zm-1.62-7.128v2.448h20.772v-2.448h-20.772zm.144 13.5v2.412h20.52v-2.412h-20.52zm8.928-17.82v12.78h2.664v-12.78h-2.664zm4.752 13.356v16.524c0 .54-.18.684-.792.72-.576.036-2.592.036-4.824-.036.396.72.828 1.8.936 2.52 2.88 0 4.716-.036 5.832-.432 1.116-.396 1.476-1.188 1.476-2.736v-16.56h-2.628zm-11.484 9.396c1.764 1.908 3.708 4.608 4.572 6.336l2.376-1.476c-.9-1.692-2.988-4.284-4.716-6.12l-2.232 1.26zm-11.988-20.376v2.448h6.48v18.756h-6.48v2.448h9V17.058h-9zm.108 10.476v2.412h7.56v-2.412h-7.56zM683.7 17.058v26.604h2.556V17.058H683.7zm45.792 19.692v2.088H740.4V36.75h-10.908zm-.108-5.436v2.124h9.72v8.928h-9.72v2.088h12.276v-13.14h-12.276zm-1.188 0V46.29h2.484V31.314h-2.484zm-6.624-9.972v1.98h10.008v-1.98h-10.008zm16.596 0v1.98h10.188v-1.98h-10.188zm9.072-5.112v28.008c0 .612-.216.828-.864.828-.648.036-2.844.072-5.04-.036.396.756.828 2.016.936 2.772 3.024 0 4.968-.036 6.12-.468 1.152-.468 1.548-1.368 1.548-3.096V16.23h-2.7zm-25.452 0v2.088h8.964v8.208h-8.964v2.088h11.52V16.23h-11.52zm26.784 0h-12.024v12.42h12.024v-2.052h-9.432v-8.28h9.432V16.23zm-28.332 0v31.608h2.664V16.23h-2.664z" fill="#000"/><path d="M780.71 27.53v3.693h-12.898V27.53h12.898zm4.993 10.71v-3.55l12.571-19.858h2.798v5.227h-1.775l-8.992 14.233v.228h17.231v3.721h-21.833zm13.793 5.682V37.16l.028-1.62V14.83h4.162v29.09h-4.19zm23.636-29.091v29.09h-4.403V19.235h-.171l-6.96 4.546v-4.205l7.259-4.744h4.275zm23.054 23.636v-1.534c0-1.098.227-2.102.682-3.011a5.44 5.44 0 012.017-2.202c.89-.558 1.965-.838 3.224-.838 1.288 0 2.368.275 3.239.824a5.276 5.276 0 011.974 2.202c.455.918.682 1.927.682 3.025v1.534c0 1.099-.227 2.107-.682 3.026a5.461 5.461 0 01-2.002 2.202c-.872.549-1.942.824-3.211.824-1.278 0-2.358-.275-3.238-.824a5.457 5.457 0 01-2.003-2.202c-.455-.919-.682-1.927-.682-3.026zm3.31-1.534v1.534c0 .815.194 1.553.582 2.216.388.663 1.065.995 2.031.995.957 0 1.624-.332 2.003-.995a4.384 4.384 0 00.568-2.216v-1.534c0-.814-.184-1.553-.554-2.216-.359-.663-1.032-.994-2.017-.994-.947 0-1.619.331-2.017.994a4.23 4.23 0 00-.596 2.216zM831.555 21.82v-1.535c0-1.098.228-2.107.682-3.025a5.448 5.448 0 012.017-2.202c.89-.549 1.965-.824 3.225-.824 1.288 0 2.367.275 3.238.824a5.273 5.273 0 011.975 2.202c.445.918.667 1.927.667 3.025v1.535c0 1.098-.227 2.107-.681 3.025a5.366 5.366 0 01-1.989 2.202c-.871.55-1.941.824-3.21.824-1.288 0-2.372-.275-3.253-.824a5.5 5.5 0 01-1.989-2.202c-.454-.918-.682-1.927-.682-3.025zm3.324-1.535v1.535c0 .814.19 1.553.568 2.215.389.663 1.066.995 2.032.995.947 0 1.61-.332 1.988-.995a4.296 4.296 0 00.583-2.215v-1.535c0-.814-.185-1.552-.554-2.215-.37-.663-1.042-.995-2.017-.995-.947 0-1.62.332-2.017.995a4.296 4.296 0 00-.583 2.215zm-1.974 23.637l20-29.091h3.395l-20 29.09h-3.395z" fill="#2F80ED"/></svg>