<svg width="747" height="373" fill="none" xmlns="http://www.w3.org/2000/svg"><path fill="#ECECEC" d="M0 .326h747v372H0z"/><path d="M201.259 54.326v-8.728h3.494c.642 0 1.177.096 1.606.286.429.19.752.455.968.792.216.336.324.722.324 1.16 0 .34-.069.64-.205.899a1.767 1.767 0 01-.562.63 2.31 2.31 0 01-.81.346v.085a1.99 1.99 0 011.645 1.01c.182.31.272.679.272 1.108 0 .463-.115.876-.345 1.24-.227.36-.564.646-1.01.856-.446.21-.995.316-1.649.316h-3.728zm1.845-1.509h1.504c.514 0 .889-.098 1.125-.294a.984.984 0 00.354-.793c0-.241-.059-.454-.175-.639a1.19 1.19 0 00-.499-.434 1.706 1.706 0 00-.762-.158h-1.547v2.318zm0-3.567h1.368c.252 0 .477-.044.673-.132.199-.09.355-.218.469-.383.116-.165.174-.362.174-.593a.958.958 0 00-.336-.762c-.222-.194-.537-.29-.946-.29h-1.402v2.16zm9.037 5.203c-.673 0-1.253-.136-1.739-.409a2.797 2.797 0 01-1.116-1.167c-.261-.506-.392-1.104-.392-1.794 0-.673.131-1.264.392-1.773a2.892 2.892 0 011.104-1.189c.477-.284 1.036-.426 1.679-.426.431 0 .833.07 1.206.209.375.136.701.342.98.618.281.275.5.622.656 1.04.156.414.234.9.234 1.457v.498h-5.527v-1.125h3.818c0-.26-.056-.492-.17-.694a1.222 1.222 0 00-.473-.473 1.35 1.35 0 00-.695-.175c-.275 0-.52.064-.733.192-.21.125-.375.294-.494.507-.119.21-.18.445-.183.703v1.07c0 .324.06.603.179.84.122.235.294.417.515.545.222.128.485.191.789.191.202 0 .386-.028.554-.085a1.11 1.11 0 00.703-.673l1.679.11a2.29 2.29 0 01-.524 1.057 2.64 2.64 0 01-1.014.7c-.412.164-.888.246-1.428.246zm7.709-6.673v1.364h-4.04V47.78h4.04zm-3.115 6.546v-7.019c0-.474.092-.868.277-1.18.187-.313.443-.547.767-.703a2.508 2.508 0 011.103-.235 4.2 4.2 0 01.763.064c.233.043.406.081.52.115l-.324 1.364a2.278 2.278 0 00-.264-.064 1.641 1.641 0 00-.315-.03c-.267 0-.453.063-.559.188-.105.122-.157.294-.157.515v6.985h-1.811zm6.947.127c-.662 0-1.235-.14-1.718-.421a2.89 2.89 0 01-1.112-1.185c-.261-.508-.392-1.098-.392-1.769 0-.676.131-1.267.392-1.772a2.857 2.857 0 011.112-1.185c.483-.284 1.056-.426 1.718-.426.662 0 1.233.142 1.713.426.483.281.855.676 1.116 1.185.262.506.392 1.096.392 1.773 0 .67-.13 1.26-.392 1.768a2.88 2.88 0 01-1.116 1.185c-.48.28-1.051.422-1.713.422zm.008-1.406c.301 0 .553-.085.755-.255.201-.174.353-.41.456-.708.105-.298.157-.638.157-1.018s-.052-.72-.157-1.019a1.598 1.598 0 00-.456-.707 1.12 1.12 0 00-.755-.26c-.304 0-.559.087-.767.26a1.6 1.6 0 00-.464.707 3.139 3.139 0 00-.154 1.019c0 .38.052.72.154 1.018.105.298.26.534.464.708.208.17.463.255.767.255zm4.394 1.279V47.78h1.76v1.142h.068c.119-.406.32-.713.601-.92a1.58 1.58 0 01.971-.316 2.758 2.758 0 01.571.064v1.611a2.366 2.366 0 00-.353-.068 3.19 3.19 0 00-.414-.03 1.45 1.45 0 00-.716.175 1.287 1.287 0 00-.494.477 1.38 1.38 0 00-.179.708v3.703h-1.815zm7.588.127c-.673 0-1.253-.136-1.738-.409a2.8 2.8 0 01-1.117-1.167c-.261-.506-.392-1.104-.392-1.794 0-.673.131-1.264.392-1.773a2.892 2.892 0 011.104-1.189c.477-.284 1.037-.426 1.679-.426.432 0 .834.07 1.206.209.375.136.701.342.98.618.281.275.5.622.656 1.04.156.414.234.9.234 1.457v.498h-5.526v-1.125h3.818c0-.26-.057-.492-.171-.694a1.215 1.215 0 00-.473-.473 1.348 1.348 0 00-.694-.175c-.276 0-.52.064-.733.192a1.345 1.345 0 00-.495.507c-.119.21-.18.445-.183.703v1.07c0 .324.06.603.179.84.122.235.294.417.516.545.221.128.484.191.788.191.202 0 .386-.028.554-.085a1.098 1.098 0 00.703-.673l1.679.11a2.29 2.29 0 01-.524 1.057 2.626 2.626 0 01-1.014.7c-.412.164-.888.246-1.428.246z" fill="#222"/><rect x="107" y="68.826" width="226" height="47" rx="5.5" fill="#fff"/><path d="M137.222 91.554l-1.348.238a1.601 1.601 0 00-.268-.492 1.328 1.328 0 00-.487-.383c-.206-.1-.463-.149-.771-.149-.421 0-.772.095-1.054.284-.282.185-.423.425-.423.72a.76.76 0 00.284.617c.189.156.494.283.915.383l1.213.278c.702.163 1.226.413 1.571.75.344.339.517.778.517 1.318 0 .458-.133.865-.398 1.223-.262.355-.628.633-1.099.836-.467.202-1.009.303-1.625.303-.856 0-1.553-.183-2.093-.547-.541-.368-.872-.89-.995-1.566l1.437-.219c.09.375.273.658.552.85.278.19.641.284 1.089.284.487 0 .876-.101 1.168-.304.292-.205.437-.455.437-.75a.78.78 0 00-.268-.602c-.176-.162-.446-.285-.81-.368l-1.293-.283c-.713-.163-1.24-.421-1.581-.776-.338-.354-.507-.803-.507-1.347 0-.45.126-.845.378-1.183.252-.338.6-.602 1.044-.79.444-.193.953-.29 1.526-.29.825 0 1.475.18 1.949.538.474.355.787.83.94 1.427zm5.348-1.865v1.194h-4.171v-1.194h4.171zm-3.053-1.83h1.487v7.225c0 .288.043.505.129.65a.672.672 0 00.333.294c.139.05.29.075.453.075.119 0 .223-.009.313-.025l.209-.04.268 1.228a2.497 2.497 0 01-.368.1 2.916 2.916 0 01-.597.06 2.615 2.615 0 01-1.093-.21 1.88 1.88 0 01-.821-.676c-.208-.305-.313-.688-.313-1.148V87.86zm7.906 9.62c-.752 0-1.4-.16-1.944-.481a3.272 3.272 0 01-1.252-1.368c-.292-.59-.438-1.28-.438-2.073 0-.782.146-1.471.438-2.068a3.398 3.398 0 011.233-1.397c.53-.335 1.15-.502 1.859-.502.431 0 .848.071 1.253.214.404.142.767.366 1.089.67.321.306.575.702.76 1.189.186.484.279 1.072.279 1.765v.527h-6.071V92.84h4.614a2.2 2.2 0 00-.239-1.039 1.805 1.805 0 00-.671-.72 1.875 1.875 0 00-1.004-.264c-.418 0-.782.103-1.094.308a2.07 2.07 0 00-.716.796 2.292 2.292 0 00-.248 1.059v.87c0 .51.089.944.268 1.302.182.358.436.631.761.82.325.186.704.279 1.138.279.282 0 .539-.04.771-.12a1.593 1.593 0 00.989-.97l1.407.255a2.557 2.557 0 01-.606 1.088 2.951 2.951 0 01-1.089.721c-.434.17-.93.254-1.487.254zm4.926 2.71v-10.5h1.452v1.238h.124c.086-.159.21-.343.373-.552a2.12 2.12 0 01.676-.546c.288-.16.669-.24 1.143-.24.617 0 1.167.157 1.651.468.484.312.863.76 1.138 1.347.279.587.418 1.293.418 2.118 0 .826-.138 1.533-.413 2.123-.275.587-.653 1.04-1.133 1.358a2.936 2.936 0 01-1.646.472c-.464 0-.843-.078-1.138-.234a2.143 2.143 0 01-.686-.547 4.072 4.072 0 01-.383-.556h-.09v4.051h-1.486zm1.457-6.681c0 .536.077 1.007.233 1.411.156.405.381.721.676.95.295.225.657.338 1.084.338.444 0 .816-.118 1.114-.353a2.2 2.2 0 00.676-.97c.156-.407.234-.866.234-1.377 0-.503-.077-.956-.229-1.357a2.08 2.08 0 00-.676-.95c-.299-.231-.671-.347-1.119-.347-.431 0-.795.11-1.094.333-.295.222-.518.532-.671.93-.152.397-.228.861-.228 1.391zm14.732-6.364v10.182h-1.542v-8.64h-.059l-2.436 1.59v-1.472l2.54-1.66h1.497zm25.762 3.482h2.66v2.14h-2.66v-2.14zm0 3.68h2.66v2.16h-2.66v-2.16zm0-7.34h2.66v2.12h-2.66v-2.12zm-1.6-1.66v12.82h5.94v-12.82h-5.94zm3.46 13.82c.78.98 1.74 2.36 2.14 3.2l1.52-.92c-.44-.82-1.44-2.14-2.22-3.08l-1.44.8zm-2.76-.68c-.56 1.34-1.56 2.72-2.56 3.62.42.24 1.14.74 1.5 1.02 1.02-1.02 2.12-2.64 2.8-4.18l-1.74-.46zm9.92-14v16.34c0 .32-.12.42-.44.44-.32 0-1.34.02-2.46-.02.24.52.48 1.32.56 1.8 1.6 0 2.6-.04 3.22-.36.62-.28.86-.8.86-1.86v-16.34h-1.74zm-3.4 2.06v11.52h1.64v-11.52h-1.64zm-11.94-.5c1.12.56 2.5 1.46 3.14 2.12l1.14-1.52c-.7-.64-2.08-1.46-3.2-1.96l-1.08 1.36zm-.82 5.38c1.14.5 2.54 1.34 3.22 1.96l1.1-1.54c-.7-.62-2.12-1.36-3.28-1.82l-1.04 1.4zm.38 10.4l1.7 1c.86-1.9 1.8-4.3 2.52-6.42l-1.52-.98c-.8 2.28-1.9 4.86-2.7 6.4zm21.52-13.3v1.44h5.52v-1.44h-5.52zm0 2.96v1.44h5.56v-1.44h-5.56zm2.1-4.98v9.08h1.48v-9.08h-1.48zm.46 10.38c.38.82.82 1.92 1 2.64l.78-.32c-.18-.68-.64-1.76-1.04-2.58l-.74.26zm-1.18.28c.28 1.02.56 2.38.66 3.28l.88-.2c-.12-.88-.42-2.22-.7-3.24l-.84.16zm-1.2.16c.14 1.18.2 2.68.18 3.68l.92-.12c-.02-.98-.1-2.48-.24-3.64l-.86.08zm-1.32-.38c-.14 1.32-.46 3.22-.86 4.38l1.08.4c.36-1.16.64-3.1.8-4.44l-1.02-.34zm5.6-2.42v.28c-.1 4.6-.22 6.22-.5 6.58-.12.2-.26.22-.48.22-.24 0-.72 0-1.28-.06.22.4.36 1 .4 1.42.6.04 1.22.04 1.6-.02.46-.06.78-.18 1.06-.58.42-.56.56-2.3.7-7.18.02-.2.02-.66.02-.66h-1.52zm1.42-9.18h-6.82v10.76h6.2v-1.58h-4.7v-7.62h5.32v-1.56zm2.06 7.68h1.5v2.26H217v-2.26zm-1.28-1.26v4.76h4.14v-4.76h-4.14zm6.24 1.26h1.62v2.26h-1.62v-2.26zm-1.3-1.26v4.76h4.28v-4.76h-4.28zm-3.54 5.28c-.4 2.02-1.28 3.82-2.56 4.96.38.26 1 .8 1.28 1.06 1.36-1.32 2.38-3.4 2.88-5.74l-1.6-.28zm.18-8.1v1.48h5.96v-1.48h-5.96zm-.34 10.86c.86.56 1.94 1.4 2.44 1.98l.98-1.26c-.52-.54-1.62-1.34-2.48-1.84l-.94 1.12zm5.12-2.86c-.36 2.08-1.14 3.9-2.42 5.04.4.26 1.1.8 1.4 1.08 1.32-1.34 2.28-3.44 2.7-5.84l-1.68-.28zm-.46 3.36c1.02.72 2.32 1.76 2.94 2.46l1.12-1.3c-.64-.66-1.96-1.64-2.98-2.32l-1.08 1.16zm-1.78-16.04c-1.06 1.86-3.06 3.8-5.3 5.04.36.28.92.86 1.18 1.2 2.38-1.4 4.54-3.4 5.84-5.66l-1.72-.58zm.78.6l-1.28.78c1.34 1.7 3.72 3.62 5.78 4.74.12-.46.46-1.26.76-1.68-1.88-.84-4.14-2.44-5.26-3.84zm13.32 15.66v1.74h9.34v-1.74h-9.34zm-.84-14.04v1.68h7.24v-1.68h-7.24zm.74-2.08c-1.16 2.18-3.42 4.7-6.72 6.48.42.34 1.06 1.02 1.34 1.48 3.52-2.1 5.92-4.8 7.52-7.54l-2.14-.42zm5.88 2.08v.32c-1.98 5.16-7.34 9.06-12.68 10.6.4.4.88 1.18 1.1 1.7 5.68-1.88 11.18-5.92 13.56-12.04l-1.28-.68-.34.1h-.36zm-9.16 3.92c1.5 1.08 3.34 2.7 4.14 3.8l1.54-1.36c-.9-1.1-2.78-2.62-4.28-3.66l-1.4 1.22zm11.82 3.9v8.78h1.96v-8.78h-1.96zm-7.62 0h-.42l-1.48 1.44v7.3h1.9v-7.02h8.58v-1.72h-8.58zm24.26-3.7v8.16h1.72v-8.16h-1.72zm-2.82 4.04v1.42h7.7v-1.42h-7.7zm-2.54 3.02v1.56h12.3v-1.56h-12.3zm1.42-6.08v11.44h1.74v-9.94h7.1v-1.5h-8.84zm8.04 0v9.5c0 .24-.1.3-.36.32-.26 0-1.12.02-2-.02.26.44.54 1.18.62 1.66 1.26 0 2.14-.02 2.72-.32.6-.26.78-.76.78-1.62v-9.52h-1.76zm.84-6.88c-2.22.72-6.16 1.26-9.48 1.54.2.38.42.98.46 1.38 3.38-.26 7.46-.76 10.14-1.58l-1.12-1.34zm-.48 2.18c-.52 1.1-1.3 2.28-2.18 3.1.42.2 1.16.6 1.5.86.84-.86 1.74-2.26 2.34-3.52l-1.66-.44zm-5.02 1.04c.5.76.96 1.84 1.12 2.54l1.6-.58c-.18-.7-.68-1.72-1.22-2.46l-1.5.5zm-3.52.34c.58.82 1.22 1.94 1.46 2.66l1.62-.72c-.3-.72-.92-1.78-1.56-2.56l-1.52.62zm-4.84-1.98v16.8h1.78v-16.8h-1.78zm-2.8 3.98v1.72h7.04v-1.72h-7.04zm2.78.68c-.56 2.32-1.82 5.36-3.06 7 .3.46.74 1.22.92 1.76 1.34-1.92 2.62-5.52 3.26-8.32l-1.12-.44zm2.84-6.06c-1.34.64-3.68 1.22-5.76 1.58.22.36.46.98.54 1.38 2.2-.32 4.78-.86 6.6-1.62l-1.38-1.34zm-1.1 7.84l-.82.74c.56.7 1.88 2.52 2.32 3.34l1.1-1.44c-.4-.46-2.1-2.24-2.6-2.64z" fill="#646470"/><rect x="107" y="68.826" width="226" height="47" rx="5.5" stroke="#646470"/><path d="M220 140.326l2.887-5h-5.774l2.887 5zm-.5-24v19.5h1v-19.5h-1z" fill="#646470"/><rect x="107" y="140.826" width="226" height="47" rx="5.5" fill="#fff"/><path d="M137.222 163.554l-1.348.238a1.606 1.606 0 00-.268-.492 1.333 1.333 0 00-.487-.383c-.206-.099-.463-.149-.771-.149-.421 0-.772.095-1.054.284-.282.185-.423.425-.423.72a.76.76 0 00.284.617c.189.156.494.283.915.383l1.213.278c.702.163 1.226.413 1.571.751.344.338.517.777.517 1.317 0 .458-.133.865-.398 1.223-.262.355-.628.633-1.099.836-.467.202-1.009.303-1.625.303-.856 0-1.553-.182-2.093-.547-.541-.368-.872-.89-.995-1.566l1.437-.219c.09.375.273.658.552.85.278.189.641.284 1.089.284.487 0 .876-.101 1.168-.304.292-.205.437-.455.437-.75a.78.78 0 00-.268-.602c-.176-.162-.446-.285-.81-.368l-1.293-.283c-.713-.163-1.24-.421-1.581-.776-.338-.354-.507-.803-.507-1.347 0-.451.126-.845.378-1.183.252-.338.6-.602 1.044-.791.444-.192.953-.288 1.526-.288.825 0 1.475.179 1.949.537.474.354.787.83.94 1.427zm5.348-1.865v1.194h-4.171v-1.194h4.171zm-3.053-1.829h1.487v7.223c0 .289.043.506.129.652.086.142.197.24.333.293.139.05.29.075.453.075.119 0 .223-.009.313-.025l.209-.04.268 1.228a2.507 2.507 0 01-.368.099 2.85 2.85 0 01-.597.06 2.606 2.606 0 01-1.093-.209 1.88 1.88 0 01-.821-.676c-.208-.305-.313-.688-.313-1.148v-7.532zm7.906 9.62c-.752 0-1.4-.161-1.944-.482a3.272 3.272 0 01-1.252-1.368c-.292-.59-.438-1.281-.438-2.073 0-.782.146-1.471.438-2.068a3.396 3.396 0 011.233-1.397c.53-.335 1.15-.502 1.859-.502.431 0 .848.071 1.253.214.404.142.767.366 1.089.671.321.305.575.701.76 1.188.186.484.279 1.072.279 1.765v.527h-6.071v-1.114h4.614c0-.391-.08-.737-.239-1.039a1.808 1.808 0 00-.671-.721 1.881 1.881 0 00-1.004-.263c-.418 0-.782.103-1.094.308a2.065 2.065 0 00-.716.796 2.288 2.288 0 00-.248 1.059v.87c0 .51.089.944.268 1.302.182.358.436.631.761.82.325.186.704.279 1.138.279.282 0 .539-.04.771-.119a1.597 1.597 0 00.989-.97l1.407.254a2.553 2.553 0 01-.606 1.088 2.937 2.937 0 01-1.089.721c-.434.169-.93.254-1.487.254zm4.926 2.709v-10.5h1.452v1.238h.124c.086-.159.21-.343.373-.552.162-.208.388-.391.676-.546.288-.16.669-.239 1.143-.239.617 0 1.167.156 1.651.467.484.312.863.761 1.138 1.348.279.586.418 1.292.418 2.117 0 .826-.138 1.533-.413 2.123-.275.587-.653 1.039-1.133 1.358a2.943 2.943 0 01-1.646.472c-.464 0-.843-.078-1.138-.234a2.143 2.143 0 01-.686-.547 4.048 4.048 0 01-.383-.557h-.09v4.052h-1.486zm1.457-6.681c0 .536.077 1.007.233 1.411.156.405.381.721.676.95.295.225.657.338 1.084.338.444 0 .816-.118 1.114-.353.298-.239.523-.562.676-.969.156-.408.234-.867.234-1.377a3.81 3.81 0 00-.229-1.358 2.08 2.08 0 00-.676-.949c-.299-.232-.671-.348-1.119-.348-.431 0-.795.111-1.094.333-.295.222-.518.532-.671.929-.152.398-.228.862-.228 1.393zm10.869 3.818v-1.114l3.445-3.57c.368-.387.671-.727.91-1.019a3.86 3.86 0 00.542-.84 2.04 2.04 0 00.179-.845c0-.338-.08-.63-.239-.875a1.56 1.56 0 00-.651-.572 2.07 2.07 0 00-.93-.204c-.364 0-.683.075-.954.224-.272.149-.481.36-.627.631-.146.272-.219.59-.219.955h-1.466c0-.62.142-1.162.427-1.626a2.906 2.906 0 011.174-1.079c.497-.258 1.062-.387 1.695-.387.64 0 1.203.127 1.69.382.491.252.874.597 1.149 1.035.275.434.412.924.412 1.471 0 .378-.071.748-.213 1.109-.14.361-.383.764-.731 1.208-.348.441-.832.976-1.452 1.606l-2.023 2.118v.074h4.583v1.318h-6.701zm31.625-6.7h2.66v2.14h-2.66v-2.14zm0 3.68h2.66v2.16h-2.66v-2.16zm0-7.34h2.66v2.12h-2.66v-2.12zm-1.6-1.66v12.82h5.94v-12.82h-5.94zm3.46 13.82c.78.98 1.74 2.36 2.14 3.2l1.52-.92c-.44-.82-1.44-2.14-2.22-3.08l-1.44.8zm-2.76-.68c-.56 1.34-1.56 2.72-2.56 3.62.42.24 1.14.74 1.5 1.02 1.02-1.02 2.12-2.64 2.8-4.18l-1.74-.46zm9.92-14v16.34c0 .32-.12.42-.44.44-.32 0-1.34.02-2.46-.02.24.52.48 1.32.56 1.8 1.6 0 2.6-.04 3.22-.36.62-.28.86-.8.86-1.86v-16.34h-1.74zm-3.4 2.06v11.52h1.64v-11.52h-1.64zm-11.94-.5c1.12.56 2.5 1.46 3.14 2.12l1.14-1.52c-.7-.64-2.08-1.46-3.2-1.96l-1.08 1.36zm-.82 5.38c1.14.5 2.54 1.34 3.22 1.96l1.1-1.54c-.7-.62-2.12-1.36-3.28-1.82l-1.04 1.4zm.38 10.4l1.7 1c.86-1.9 1.8-4.3 2.52-6.42l-1.52-.98c-.8 2.28-1.9 4.86-2.7 6.4zm21.52-13.3v1.44h5.52v-1.44h-5.52zm0 2.96v1.44h5.56v-1.44h-5.56zm2.1-4.98v9.08h1.48v-9.08h-1.48zm.46 10.38c.38.82.82 1.92 1 2.64l.78-.32c-.18-.68-.64-1.76-1.04-2.58l-.74.26zm-1.18.28c.28 1.02.56 2.38.66 3.28l.88-.2c-.12-.88-.42-2.22-.7-3.24l-.84.16zm-1.2.16c.14 1.18.2 2.68.18 3.68l.92-.12c-.02-.98-.1-2.48-.24-3.64l-.86.08zm-1.32-.38c-.14 1.32-.46 3.22-.86 4.38l1.08.4c.36-1.16.64-3.1.8-4.44l-1.02-.34zm5.6-2.42v.28c-.1 4.6-.22 6.22-.5 6.58-.12.2-.26.22-.48.22-.24 0-.72 0-1.28-.06.22.4.36 1 .4 1.42.6.04 1.22.04 1.6-.02.46-.06.78-.18 1.06-.58.42-.56.56-2.3.7-7.18.02-.2.02-.66.02-.66h-1.52zm1.42-9.18h-6.82v10.76h6.2v-1.58h-4.7v-7.62h5.32v-1.56zm2.06 7.68h1.5v2.26H219v-2.26zm-1.28-1.26v4.76h4.14v-4.76h-4.14zm6.24 1.26h1.62v2.26h-1.62v-2.26zm-1.3-1.26v4.76h4.28v-4.76h-4.28zm-3.54 5.28c-.4 2.02-1.28 3.82-2.56 4.96.38.26 1 .8 1.28 1.06 1.36-1.32 2.38-3.4 2.88-5.74l-1.6-.28zm.18-8.1v1.48h5.96v-1.48h-5.96zm-.34 10.86c.86.56 1.94 1.4 2.44 1.98l.98-1.26c-.52-.54-1.62-1.34-2.48-1.84l-.94 1.12zm5.12-2.86c-.36 2.08-1.14 3.9-2.42 5.04.4.26 1.1.8 1.4 1.08 1.32-1.34 2.28-3.44 2.7-5.84l-1.68-.28zm-.46 3.36c1.02.72 2.32 1.76 2.94 2.46l1.12-1.3c-.64-.66-1.96-1.64-2.98-2.32l-1.08 1.16zm-1.78-16.04c-1.06 1.86-3.06 3.8-5.3 5.04.36.28.92.86 1.18 1.2 2.38-1.4 4.54-3.4 5.84-5.66l-1.72-.58zm.78.6l-1.28.78c1.34 1.7 3.72 3.62 5.78 4.74.12-.46.46-1.26.76-1.68-1.88-.84-4.14-2.44-5.26-3.84zm7.96 4.1v14.1h1.92v-12.24h13.06v-1.86h-14.98zm14.02 0v11.76c0 .3-.1.42-.46.42-.38.02-1.68.02-2.92-.02.28.52.58 1.38.66 1.92 1.7 0 2.9-.02 3.68-.32.74-.32.96-.88.96-1.98v-11.78h-1.92zm-10.48-3.62v1.68h4.36v-1.68h-4.36zm3.1 0v.9h.36c.28 5.58 1.72 9.96 5.7 12.1.3-.5.94-1.26 1.36-1.64-3.84-1.74-5.14-5.86-5.36-11.36h-2.06zm.18 4.08c-.52 3.62-2.12 6.14-5.02 7.54.4.32 1.02 1.06 1.28 1.5 3.18-1.66 4.82-4.58 5.5-8.74l-1.76-.3zm17.6-.76c-1.08 1.42-2.92 2.76-4.72 3.62.4.34 1.04 1.1 1.32 1.46 1.84-1.04 3.88-2.72 5.18-4.5l-1.78-.58zm5 1.1c1.8 1.12 4.02 2.8 5.08 3.92l1.36-1.24c-1.12-1.12-3.4-2.72-5.16-3.76l-1.28 1.08zm-7.18 6.5v6.8h1.82v-5.12h7.66v5.06h1.92v-6.74h-11.4zm.98 4.5v1.68h9.4v-1.68h-9.4zm-3.76-14.54v3.94h1.86v-2.22h13.12v2.22h1.92v-3.94h-16.9zm6.94-1.48c.42.8.88 1.84 1.04 2.5l2.06-.48c-.2-.68-.68-1.7-1.14-2.46l-1.96.44zm1.28 5.7c-1.88 3.02-5.4 5.42-9.1 6.74.44.4.92 1.06 1.2 1.52 3.88-1.58 7.42-4.18 9.54-7.54l-1.64-.72zm.84.72l-1.52.72c2.6 3.18 5.48 5 9 6.58.24-.56.76-1.18 1.2-1.58-3.42-1.3-6.34-2.94-8.68-5.72z" fill="#646470"/><rect x="107" y="140.826" width="226" height="47" rx="5.5" stroke="#646470"/><path d="M220 212.326l2.887-5h-5.774l2.887 5zm-.5-24v19.5h1v-19.5h-1z" fill="#646470"/><rect x="107" y="212.826" width="226" height="47" rx="5.5" fill="#fff"/><path d="M137.222 235.554l-1.348.238a1.606 1.606 0 00-.268-.492 1.333 1.333 0 00-.487-.383c-.206-.099-.463-.149-.771-.149-.421 0-.772.095-1.054.284-.282.185-.423.425-.423.72a.76.76 0 00.284.617c.189.156.494.283.915.383l1.213.278c.702.163 1.226.413 1.571.751.344.338.517.777.517 1.317 0 .458-.133.865-.398 1.223-.262.355-.628.633-1.099.836-.467.202-1.009.303-1.625.303-.856 0-1.553-.182-2.093-.547-.541-.368-.872-.89-.995-1.566l1.437-.219c.09.375.273.658.552.85.278.189.641.284 1.089.284.487 0 .876-.101 1.168-.304.292-.205.437-.455.437-.75a.78.78 0 00-.268-.602c-.176-.162-.446-.285-.81-.368l-1.293-.283c-.713-.163-1.24-.421-1.581-.776-.338-.354-.507-.803-.507-1.347 0-.451.126-.845.378-1.183.252-.338.6-.602 1.044-.791.444-.192.953-.288 1.526-.288.825 0 1.475.179 1.949.537.474.354.787.83.94 1.427zm5.348-1.865v1.194h-4.171v-1.194h4.171zm-3.053-1.829h1.487v7.223c0 .289.043.506.129.652.086.142.197.24.333.293.139.05.29.075.453.075.119 0 .223-.009.313-.025l.209-.04.268 1.228a2.507 2.507 0 01-.368.099 2.85 2.85 0 01-.597.06 2.606 2.606 0 01-1.093-.209 1.88 1.88 0 01-.821-.676c-.208-.305-.313-.688-.313-1.148v-7.532zm7.906 9.62c-.752 0-1.4-.161-1.944-.482a3.272 3.272 0 01-1.252-1.368c-.292-.59-.438-1.281-.438-2.073 0-.782.146-1.471.438-2.068a3.396 3.396 0 011.233-1.397c.53-.335 1.15-.502 1.859-.502.431 0 .848.071 1.253.214.404.142.767.366 1.089.671.321.305.575.701.76 1.188.186.484.279 1.072.279 1.765v.527h-6.071v-1.114h4.614c0-.391-.08-.737-.239-1.039a1.808 1.808 0 00-.671-.721 1.881 1.881 0 00-1.004-.263c-.418 0-.782.103-1.094.308a2.065 2.065 0 00-.716.796 2.288 2.288 0 00-.248 1.059v.87c0 .51.089.944.268 1.302.182.358.436.631.761.82.325.186.704.279 1.138.279.282 0 .539-.04.771-.119a1.597 1.597 0 00.989-.97l1.407.254a2.553 2.553 0 01-.606 1.088 2.937 2.937 0 01-1.089.721c-.434.169-.93.254-1.487.254zm4.926 2.709v-10.5h1.452v1.238h.124c.086-.159.21-.343.373-.552.162-.208.388-.391.676-.546.288-.16.669-.239 1.143-.239.617 0 1.167.156 1.651.467.484.312.863.761 1.138 1.348.279.586.418 1.292.418 2.117 0 .826-.138 1.533-.413 2.123-.275.587-.653 1.039-1.133 1.358a2.943 2.943 0 01-1.646.472c-.464 0-.843-.078-1.138-.234a2.143 2.143 0 01-.686-.547 4.048 4.048 0 01-.383-.557h-.09v4.052h-1.486zm1.457-6.681c0 .536.077 1.007.233 1.411.156.405.381.721.676.95.295.225.657.338 1.084.338.444 0 .816-.118 1.114-.353.298-.239.523-.562.676-.969.156-.408.234-.867.234-1.377a3.81 3.81 0 00-.229-1.358 2.08 2.08 0 00-.676-.949c-.299-.232-.671-.348-1.119-.348-.431 0-.795.111-1.094.333-.295.222-.518.532-.671.929-.152.398-.228.862-.228 1.393zm14.413 3.957c-.682 0-1.292-.118-1.829-.353-.534-.235-.956-.562-1.268-.979a2.603 2.603 0 01-.497-1.462h1.561c.02.301.121.563.303.785.186.219.428.388.726.507.298.12.63.179.995.179.401 0 .755-.069 1.063-.208.312-.14.556-.333.731-.582.176-.252.264-.542.264-.87 0-.341-.088-.641-.264-.9-.172-.262-.426-.467-.76-.616-.332-.15-.733-.224-1.204-.224h-.86v-1.253h.86c.378 0 .71-.068.995-.204a1.63 1.63 0 00.676-.567c.162-.245.244-.532.244-.86a1.54 1.54 0 00-.214-.82 1.438 1.438 0 00-.597-.552 1.945 1.945 0 00-.905-.199c-.331 0-.641.062-.929.184-.285.12-.517.292-.696.517a1.335 1.335 0 00-.289.801h-1.486c.016-.55.179-1.034.487-1.452a3.15 3.15 0 011.233-.979 4 4 0 011.7-.353c.653 0 1.217.127 1.691.382.477.252.845.589 1.103 1.01.262.421.391.881.388 1.382.003.57-.156 1.054-.477 1.452a2.32 2.32 0 01-1.273.8v.079c.676.103 1.2.372 1.571.806.375.434.56.973.557 1.616a2.521 2.521 0 01-.467 1.506 3.187 3.187 0 01-1.278 1.049c-.54.252-1.159.378-1.855.378zm22.381-12.099v1.66h6.44v-1.66h-6.44zm-.46 6.38v1.7h7.62v-1.7h-7.62zm3.16.88v8.24c0 .24-.08.3-.36.32-.28 0-1.22 0-2.16-.02.24.52.5 1.28.58 1.8 1.36 0 2.3-.02 2.94-.32.66-.28.82-.8.82-1.74v-8.28h-1.82zm3.16-7.26v.36c-.56 1.1-1.76 2.72-2.82 3.66.32.26.82.78 1.08 1.12 1.28-1.1 2.7-2.86 3.68-4.42l-1.18-.82-.34.1h-.42zm.76 6.38v.26c-.34 1.4-.86 3.14-1.3 4.18l1.42.34c.5-1.14 1.1-2.94 1.58-4.54l-1.18-.3-.26.06h-.26zm-6.16-2.52c1.68.86 3.7 2.24 4.64 3.26l1.06-1.4c-1-.98-3.06-2.28-4.72-3.1l-.98 1.24zm7.36-3.9v1.6h10.2v-1.6h-10.2zm2.48 7.68h5.26v1.66h-5.26v-1.66zm0 3h5.26v1.68h-5.26v-1.68zm0-6h5.26v1.66h-5.26v-1.66zm-1.74-1.42v10.52h8.82v-10.52h-8.82zm3.4-2.44c-.1.96-.36 2.34-.58 3.26l1.66.32c.32-.86.72-2.12 1.06-3.32l-2.14-.26zm-1.42 13.18c-.86.88-2.66 1.94-4.24 2.5.4.32.98.9 1.26 1.26 1.58-.6 3.48-1.7 4.58-2.76l-1.6-1zm3.02 1.08c1.18.78 2.7 1.92 3.42 2.66l1.5-1.06c-.8-.76-2.34-1.84-3.52-2.56l-1.4.96zm10.44-15.88c-1.06 2.96-2.88 5.9-4.78 7.78.32.44.86 1.46 1.04 1.92 2.16-2.26 4.22-5.74 5.54-9.14l-1.8-.56zm-2.06 5.32v13.14h1.8v-14.92l-.02-.02-1.78 1.8zm4.52 4.52v8.64h1.88v-6.84h6.72v6.76h1.94v-8.56h-10.54zm4.24-9.92v10.88h1.94v-10.88h-1.94zm-5.28 4.26v1.82h12.76v-1.82h-12.76zm1.96 11.66v1.8h8.76v-1.8h-8.76zm21.3-12.6l-.88 1.8h10.42v-1.8h-9.54zm2.56 4.36v1.72h6.5v-1.72h-6.5zm-.02 4.42v1.78h6.78v-1.78h-6.78zm-.94-8.18v14.64h1.94v-14.64h-1.94zm-.96-3.7c-.96 2.92-2.56 5.82-4.36 7.66.42.3 1.16.98 1.46 1.32 1.84-2.08 3.6-5.3 4.72-8.5l-1.82-.48zm-5.02-.14c-1.08 2.96-2.9 5.9-4.82 7.78.34.46.9 1.52 1.08 1.96 2.18-2.24 4.26-5.76 5.56-9.16l-1.82-.58zm-2.08 5.32v13.14h1.9v-15.02l-.02-.02-1.88 1.9zm22.62 3.8v1.58h8.2v-1.58h-8.2zm-.76 7v1.66h9.7v-1.66h-9.7zm-1.04-4.04v6.42h1.8v-4.8h8.1v4.72h1.88v-6.34h-11.78zm5.54-7.44c-1.72 2.34-5.2 4.36-9 5.58.38.34.96 1.1 1.2 1.54 3.96-1.42 7.42-3.56 9.5-6.4l-1.7-.72zm.76.84l-1.14 1.04c1.84 1.6 5.62 3.84 8.9 4.96.3-.48.9-1.26 1.34-1.66-3.36-.94-7.32-2.86-9.1-4.34zm-6.86-4.02v1.66h6.32v-1.66h-6.32zm7.94 0v1.66h7.54v-1.66h-7.54zm-7.76-1.66c-.64 1.7-1.8 3.4-3.06 4.48.38.38 1.02 1.24 1.26 1.62 1.42-1.34 2.82-3.46 3.66-5.56l-1.86-.54zm8 0c-.46 1.5-1.32 2.94-2.38 3.9.44.32 1.18 1.02 1.5 1.38 1.14-1.14 2.18-2.96 2.78-4.78l-1.9-.5zm-7.28 4.38c.68.68 1.52 1.62 1.88 2.24l1.38-1.16c-.4-.6-1.24-1.5-1.94-2.12l-1.32 1.04zm8.6-.1c.72.66 1.56 1.6 1.94 2.22l1.36-1.16c-.42-.6-1.3-1.48-2.02-2.1l-1.28 1.04zm15.42 2.1v1.66h10.12v-1.66H278zm-.78-3.98v1.68h11.5v-1.68h-11.5zm.06 7.56v1.68h11.36v-1.68h-11.36zm4.76-9.86v7.22h1.86v-7.22h-1.86zm2.58 7.68v8.76c0 .3-.1.38-.42.38-.32.02-1.42.02-2.54-.02.26.5.54 1.26.62 1.76 1.56 0 2.6-.02 3.3-.3.68-.28.9-.8.9-1.78v-8.8h-1.86zm-6.3 5.24c.9 1.04 1.96 2.54 2.42 3.46l1.68-1c-.52-.92-1.64-2.34-2.54-3.34l-1.56.88zm-6.52-11.62v1.7h3.3v9.98h-3.3v1.7h5.06v-13.38h-5.06zm.08 5.76v1.68h4.06v-1.68h-4.06zm-.98-5.76v15.08h1.76v-15.08h-1.76zm25.68 10.96v1.4h5.8v-1.4h-5.8zm-.1-3v1.44h5v4.6h-5v1.42h6.78v-7.46h-6.78zm-.8 0v8.48h1.72v-8.48h-1.72zm-3.54-5.6v1.32h5.32v-1.32h-5.32zm9.24 0v1.32h5.4v-1.32h-5.4zm4.62-2.82v15.38c0 .34-.12.46-.48.46-.36.02-1.58.04-2.72-.02.28.52.56 1.4.64 1.92 1.7 0 2.8-.02 3.52-.34.72-.32.94-.9.94-2v-15.4H306zm-13.72 0v1.42h4.6v4.22h-4.6v1.4h6.38v-7.04h-6.38zm14.7 0h-6.72v7.08h6.72v-1.4h-4.92v-4.26h4.92v-1.42zm-15.78 0v17.76h1.88v-17.76h-1.88z" fill="#646470"/><rect x="107" y="212.826" width="226" height="47" rx="5.5" stroke="#646470"/><path d="M220 284.326l2.887-5h-5.774l2.887 5zm-.5-24v19.5h1v-19.5h-1z" fill="#646470"/><rect x="107" y="284.826" width="226" height="47" rx="5.5" fill="#fff"/><path d="M137.222 307.554l-1.348.238a1.606 1.606 0 00-.268-.492 1.333 1.333 0 00-.487-.383c-.206-.099-.463-.149-.771-.149-.421 0-.772.095-1.054.284-.282.185-.423.425-.423.72a.76.76 0 00.284.617c.189.156.494.283.915.383l1.213.278c.702.163 1.226.413 1.571.751.344.338.517.777.517 1.317 0 .458-.133.865-.398 1.223-.262.355-.628.633-1.099.836-.467.202-1.009.303-1.625.303-.856 0-1.553-.182-2.093-.547-.541-.368-.872-.89-.995-1.566l1.437-.219c.09.375.273.658.552.85.278.189.641.284 1.089.284.487 0 .876-.101 1.168-.304.292-.205.437-.455.437-.75a.78.78 0 00-.268-.602c-.176-.162-.446-.285-.81-.368l-1.293-.283c-.713-.163-1.24-.421-1.581-.776-.338-.354-.507-.803-.507-1.347 0-.451.126-.845.378-1.183.252-.338.6-.602 1.044-.791.444-.192.953-.288 1.526-.288.825 0 1.475.179 1.949.537.474.354.787.83.94 1.427zm5.348-1.865v1.194h-4.171v-1.194h4.171zm-3.053-1.829h1.487v7.223c0 .289.043.506.129.652.086.142.197.24.333.293.139.05.29.075.453.075.119 0 .223-.009.313-.025l.209-.04.268 1.228a2.507 2.507 0 01-.368.099 2.85 2.85 0 01-.597.06 2.606 2.606 0 01-1.093-.209 1.88 1.88 0 01-.821-.676c-.208-.305-.313-.688-.313-1.148v-7.532zm7.906 9.62c-.752 0-1.4-.161-1.944-.482a3.272 3.272 0 01-1.252-1.368c-.292-.59-.438-1.281-.438-2.073 0-.782.146-1.471.438-2.068a3.396 3.396 0 011.233-1.397c.53-.335 1.15-.502 1.859-.502.431 0 .848.071 1.253.214.404.142.767.366 1.089.671.321.305.575.701.76 1.188.186.484.279 1.072.279 1.765v.527h-6.071v-1.114h4.614c0-.391-.08-.737-.239-1.039a1.808 1.808 0 00-.671-.721 1.881 1.881 0 00-1.004-.263c-.418 0-.782.103-1.094.308a2.065 2.065 0 00-.716.796 2.288 2.288 0 00-.248 1.059v.87c0 .51.089.944.268 1.302.182.358.436.631.761.82.325.186.704.279 1.138.279.282 0 .539-.04.771-.119a1.597 1.597 0 00.989-.97l1.407.254a2.553 2.553 0 01-.606 1.088 2.937 2.937 0 01-1.089.721c-.434.169-.93.254-1.487.254zm4.926 2.709v-10.5h1.452v1.238h.124c.086-.159.21-.343.373-.552.162-.208.388-.391.676-.546.288-.16.669-.239 1.143-.239.617 0 1.167.156 1.651.467.484.312.863.761 1.138 1.348.279.586.418 1.292.418 2.117 0 .826-.138 1.533-.413 2.123-.275.587-.653 1.039-1.133 1.358a2.943 2.943 0 01-1.646.472c-.464 0-.843-.078-1.138-.234a2.143 2.143 0 01-.686-.547 4.048 4.048 0 01-.383-.557h-.09v4.052h-1.486zm1.457-6.681c0 .536.077 1.007.233 1.411.156.405.381.721.676.95.295.225.657.338 1.084.338.444 0 .816-.118 1.114-.353.298-.239.523-.562.676-.969.156-.408.234-.867.234-1.377a3.81 3.81 0 00-.229-1.358 2.08 2.08 0 00-.676-.949c-.299-.232-.671-.348-1.119-.348-.431 0-.795.111-1.094.333-.295.222-.518.532-.671.929-.152.398-.228.862-.228 1.393zm10.655 1.829v-1.243l4.4-6.95h.979v1.829h-.621l-3.147 4.982v.079h6.03v1.303h-7.641zm4.827 1.989v-2.367l.01-.567v-7.248h1.457v10.182h-1.467zm28.012-6.7h2.66v2.14h-2.66v-2.14zm0 3.68h2.66v2.16h-2.66v-2.16zm0-7.34h2.66v2.12h-2.66v-2.12zm-1.6-1.66v12.82h5.94v-12.82h-5.94zm3.46 13.82c.78.98 1.74 2.36 2.14 3.2l1.52-.92c-.44-.82-1.44-2.14-2.22-3.08l-1.44.8zm-2.76-.68c-.56 1.34-1.56 2.72-2.56 3.62.42.24 1.14.74 1.5 1.02 1.02-1.02 2.12-2.64 2.8-4.18l-1.74-.46zm9.92-14v16.34c0 .32-.12.42-.44.44-.32 0-1.34.02-2.46-.02.24.52.48 1.32.56 1.8 1.6 0 2.6-.04 3.22-.36.62-.28.86-.8.86-1.86v-16.34h-1.74zm-3.4 2.06v11.52h1.64v-11.52h-1.64zm-11.94-.5c1.12.56 2.5 1.46 3.14 2.12l1.14-1.52c-.7-.64-2.08-1.46-3.2-1.96l-1.08 1.36zm-.82 5.38c1.14.5 2.54 1.34 3.22 1.96l1.1-1.54c-.7-.62-2.12-1.36-3.28-1.82l-1.04 1.4zm.38 10.4l1.7 1c.86-1.9 1.8-4.3 2.52-6.42l-1.52-.98c-.8 2.28-1.9 4.86-2.7 6.4zm21.52-13.3v1.44h5.52v-1.44h-5.52zm0 2.96v1.44h5.56v-1.44h-5.56zm2.1-4.98v9.08h1.48v-9.08h-1.48zm.46 10.38c.38.82.82 1.92 1 2.64l.78-.32c-.18-.68-.64-1.76-1.04-2.58l-.74.26zm-1.18.28c.28 1.02.56 2.38.66 3.28l.88-.2c-.12-.88-.42-2.22-.7-3.24l-.84.16zm-1.2.16c.14 1.18.2 2.68.18 3.68l.92-.12c-.02-.98-.1-2.48-.24-3.64l-.86.08zm-1.32-.38c-.14 1.32-.46 3.22-.86 4.38l1.08.4c.36-1.16.64-3.1.8-4.44l-1.02-.34zm5.6-2.42v.28c-.1 4.6-.22 6.22-.5 6.58-.12.2-.26.22-.48.22-.24 0-.72 0-1.28-.06.22.4.36 1 .4 1.42.6.04 1.22.04 1.6-.02.46-.06.78-.18 1.06-.58.42-.56.56-2.3.7-7.18.02-.2.02-.66.02-.66h-1.52zm1.42-9.18h-6.82v10.76h6.2v-1.58h-4.7v-7.62h5.32v-1.56zm2.06 7.68h1.5v2.26H220v-2.26zm-1.28-1.26v4.76h4.14v-4.76h-4.14zm6.24 1.26h1.62v2.26h-1.62v-2.26zm-1.3-1.26v4.76h4.28v-4.76h-4.28zm-3.54 5.28c-.4 2.02-1.28 3.82-2.56 4.96.38.26 1 .8 1.28 1.06 1.36-1.32 2.38-3.4 2.88-5.74l-1.6-.28zm.18-8.1v1.48h5.96v-1.48h-5.96zm-.34 10.86c.86.56 1.94 1.4 2.44 1.98l.98-1.26c-.52-.54-1.62-1.34-2.48-1.84l-.94 1.12zm5.12-2.86c-.36 2.08-1.14 3.9-2.42 5.04.4.26 1.1.8 1.4 1.08 1.32-1.34 2.28-3.44 2.7-5.84l-1.68-.28zm-.46 3.36c1.02.72 2.32 1.76 2.94 2.46l1.12-1.3c-.64-.66-1.96-1.64-2.98-2.32l-1.08 1.16zm-1.78-16.04c-1.06 1.86-3.06 3.8-5.3 5.04.36.28.92.86 1.18 1.2 2.38-1.4 4.54-3.4 5.84-5.66l-1.72-.58zm.78.6l-1.28.78c1.34 1.7 3.72 3.62 5.78 4.74.12-.46.46-1.26.76-1.68-1.88-.84-4.14-2.44-5.26-3.84zm12.8 12.28v1.58h12.02v-1.58h-12.02zm2.94-4h6.32v1.2h-6.32v-1.2zm0-2.46h6.32v1.16h-6.32v-1.16zm-1.76-1.38v6.4h9.92v-6.4h-9.92zm4 6.18c-.32 3.16-1.1 5.1-5.74 6.06.34.38.8 1.08.98 1.52 5.16-1.22 6.22-3.68 6.62-7.58h-1.86zm-4.86-9.44v1.54h5.5v-1.54h-5.5zm2.26-1.56v4.38h1.7v-4.38H239zm5.4 0v4.38h1.68v-4.38h-1.68zm-1.58 1.54v1.56h5.82v-1.56h-5.82zm-.32 13.88c1.7.9 4.04 2.26 5.18 3.06l1.2-1.34c-1.22-.8-3.58-2.06-5.24-2.9l-1.14 1.18zm-11.96-11.6v1.74h6.36v-1.74h-6.36zm2.46-3.82v18.56h1.72v-18.56H233zm0 5.04c-.5 2.56-1.72 5.9-2.94 7.64.32.48.74 1.32.94 1.88 1.3-2.06 2.48-5.98 3.04-9.08l-1.04-.44zm1.62 1l-.88.7c.54.98 1.74 3.5 2.18 4.68l1.14-1.32c-.36-.66-1.98-3.44-2.44-4.06zm29.1-4.9c.98.7 2.16 1.74 2.72 2.44l1.34-1.16c-.6-.68-1.82-1.68-2.8-2.34l-1.26 1.06zm-13.16 2.46v1.84h17.9v-1.84h-17.9zm.72 4.52v1.84h8.76v-1.84h-8.76zm3.36 1.02v6.98h1.88v-6.98h-1.88zm-4.04 6.96l.56 1.9c2.58-.56 6.2-1.36 9.56-2.12l-.14-1.7c-3.66.74-7.58 1.5-9.98 1.92zm10-16.02c.04 9.52 1.5 18.52 5.64 18.52 1.7 0 2.38-.98 2.68-4.62-.52-.2-1.24-.64-1.66-1.08-.12 2.62-.36 3.72-.86 3.72-2.22 0-3.9-7.72-3.78-16.54h-2.02z" fill="#646470"/><rect x="107" y="284.826" width="226" height="47" rx="5.5" stroke="#646470"/><path d="M513.763 54.326h-1.977l3.012-8.728h2.378l3.009 8.728h-1.978l-2.186-6.733h-.068l-2.19 6.733zm-.124-3.43h4.671v1.44h-4.671v-1.44zm10.965-3.116v1.364h-4.04V47.78h4.04zm-3.115 6.546v-7.019c0-.474.092-.868.277-1.18.187-.313.443-.547.767-.703a2.505 2.505 0 011.103-.235 4.2 4.2 0 01.763.064c.233.043.406.081.52.115l-.324 1.364a2.278 2.278 0 00-.264-.064 1.641 1.641 0 00-.315-.03c-.267 0-.454.063-.559.188-.105.122-.157.294-.157.515v6.985h-1.811zm7.705-6.546v1.364h-3.942V47.78h3.942zm-3.047-1.568h1.816v6.102a.83.83 0 00.076.392.43.43 0 00.213.192.88.88 0 00.324.055c.086 0 .171-.007.256-.02l.196-.04.286 1.352a5.103 5.103 0 01-.384.098 3.08 3.08 0 01-.601.072c-.437.017-.821-.041-1.15-.175a1.607 1.607 0 01-.763-.622c-.182-.281-.271-.636-.269-1.065v-6.341zm7.142 8.241c-.673 0-1.252-.136-1.738-.409a2.806 2.806 0 01-1.117-1.167c-.261-.506-.392-1.104-.392-1.794 0-.673.131-1.264.392-1.773.262-.509.63-.905 1.104-1.189.477-.284 1.037-.426 1.679-.426.432 0 .834.07 1.206.209.375.136.702.342.98.618.281.275.5.622.656 1.04.157.414.235.9.235 1.457v.498h-5.527v-1.125h3.818c0-.26-.057-.492-.171-.694a1.215 1.215 0 00-.473-.473 1.346 1.346 0 00-.694-.175c-.276 0-.52.064-.733.192-.21.125-.375.294-.494.507-.12.21-.181.445-.184.703v1.07c0 .324.06.603.179.84.122.235.294.417.516.545.221.128.484.191.788.191.202 0 .387-.028.554-.085.168-.057.311-.142.431-.255a1.11 1.11 0 00.272-.418l1.679.11a2.29 2.29 0 01-.524 1.057 2.626 2.626 0 01-1.014.7c-.412.164-.888.246-1.428.246zm4.189-.127V47.78h1.76v1.142h.068c.12-.406.32-.713.601-.92.282-.21.605-.316.972-.316a2.758 2.758 0 01.571.064v1.611a2.357 2.357 0 00-.354-.068c-.15-.02-.288-.03-.413-.03-.267 0-.506.058-.716.175a1.287 1.287 0 00-.673 1.185v3.703h-1.816z" fill="#222"/><rect x="414" y="68.826" width="226" height="47" rx="5.5" fill="#fff"/><path d="M444.222 91.554l-1.348.238a1.601 1.601 0 00-.268-.492 1.328 1.328 0 00-.487-.383c-.206-.1-.463-.149-.771-.149-.421 0-.772.095-1.054.284-.282.185-.423.425-.423.72a.76.76 0 00.284.617c.189.156.494.283.915.383l1.213.278c.702.163 1.226.413 1.571.75.344.339.517.778.517 1.318 0 .458-.133.865-.398 1.223-.262.355-.628.633-1.099.836-.467.202-1.009.303-1.625.303-.856 0-1.553-.183-2.093-.547-.541-.368-.872-.89-.995-1.566l1.437-.219c.09.375.273.658.552.85.278.19.641.284 1.089.284.487 0 .876-.101 1.168-.304.292-.205.437-.455.437-.75a.78.78 0 00-.268-.602c-.176-.162-.446-.285-.81-.368l-1.293-.283c-.713-.163-1.24-.421-1.581-.776-.338-.354-.507-.803-.507-1.347 0-.45.126-.845.378-1.183.252-.338.6-.602 1.044-.79.444-.193.953-.29 1.526-.29.825 0 1.475.18 1.949.538.474.355.787.83.94 1.427zm5.348-1.865v1.194h-4.171v-1.194h4.171zm-3.053-1.83h1.487v7.225c0 .288.043.505.129.65a.672.672 0 00.333.294c.139.05.29.075.453.075.119 0 .223-.009.313-.025l.209-.04.268 1.228a2.497 2.497 0 01-.368.1 2.916 2.916 0 01-.597.06 2.615 2.615 0 01-1.093-.21 1.88 1.88 0 01-.821-.676c-.208-.305-.313-.688-.313-1.148V87.86zm7.906 9.62c-.752 0-1.4-.16-1.944-.481a3.272 3.272 0 01-1.252-1.368c-.292-.59-.438-1.28-.438-2.073 0-.782.146-1.471.438-2.068a3.398 3.398 0 011.233-1.397c.53-.335 1.15-.502 1.859-.502.431 0 .848.071 1.253.214.404.142.767.366 1.089.67.321.306.575.702.76 1.189.186.484.279 1.072.279 1.765v.527h-6.071V92.84h4.614a2.2 2.2 0 00-.239-1.039 1.805 1.805 0 00-.671-.72 1.875 1.875 0 00-1.004-.264c-.418 0-.782.103-1.094.308a2.07 2.07 0 00-.716.796 2.292 2.292 0 00-.248 1.059v.87c0 .51.089.944.268 1.302.182.358.436.631.761.82.325.186.704.279 1.138.279.282 0 .539-.04.771-.12a1.593 1.593 0 00.989-.97l1.407.255a2.557 2.557 0 01-.606 1.088 2.951 2.951 0 01-1.089.721c-.434.17-.93.254-1.487.254zm4.926 2.71v-10.5h1.452v1.238h.124c.086-.159.21-.343.373-.552a2.12 2.12 0 01.676-.546c.288-.16.669-.24 1.143-.24.617 0 1.167.157 1.651.468.484.312.863.76 1.138 1.347.279.587.418 1.293.418 2.118 0 .826-.138 1.533-.413 2.123-.275.587-.653 1.04-1.133 1.358a2.936 2.936 0 01-1.646.472c-.464 0-.843-.078-1.138-.234a2.143 2.143 0 01-.686-.547 4.072 4.072 0 01-.383-.556h-.09v4.051h-1.486zm1.457-6.681c0 .536.077 1.007.233 1.411.156.405.381.721.676.95.295.225.657.338 1.084.338.444 0 .816-.118 1.114-.353a2.2 2.2 0 00.676-.97c.156-.407.234-.866.234-1.377 0-.503-.077-.956-.229-1.357a2.08 2.08 0 00-.676-.95c-.299-.231-.671-.347-1.119-.347-.431 0-.795.11-1.094.333-.295.222-.518.532-.671.93-.152.397-.228.861-.228 1.391zm14.732-6.364v10.182h-1.542v-8.64h-.059l-2.436 1.59v-1.472l2.54-1.66h1.497zm25.762 3.482h2.66v2.14h-2.66v-2.14zm0 3.68h2.66v2.16h-2.66v-2.16zm0-7.34h2.66v2.12h-2.66v-2.12zm-1.6-1.66v12.82h5.94v-12.82h-5.94zm3.46 13.82c.78.98 1.74 2.36 2.14 3.2l1.52-.92c-.44-.82-1.44-2.14-2.22-3.08l-1.44.8zm-2.76-.68c-.56 1.34-1.56 2.72-2.56 3.62.42.24 1.14.74 1.5 1.02 1.02-1.02 2.12-2.64 2.8-4.18l-1.74-.46zm9.92-14v16.34c0 .32-.12.42-.44.44-.32 0-1.34.02-2.46-.02.24.52.48 1.32.56 1.8 1.6 0 2.6-.04 3.22-.36.62-.28.86-.8.86-1.86v-16.34h-1.74zm-3.4 2.06v11.52h1.64v-11.52h-1.64zm-11.94-.5c1.12.56 2.5 1.46 3.14 2.12l1.14-1.52c-.7-.64-2.08-1.46-3.2-1.96l-1.08 1.36zm-.82 5.38c1.14.5 2.54 1.34 3.22 1.96l1.1-1.54c-.7-.62-2.12-1.36-3.28-1.82l-1.04 1.4zm.38 10.4l1.7 1c.86-1.9 1.8-4.3 2.52-6.42l-1.52-.98c-.8 2.28-1.9 4.86-2.7 6.4zm21.52-13.3v1.44h5.52v-1.44h-5.52zm0 2.96v1.44h5.56v-1.44h-5.56zm2.1-4.98v9.08h1.48v-9.08h-1.48zm.46 10.38c.38.82.82 1.92 1 2.64l.78-.32c-.18-.68-.64-1.76-1.04-2.58l-.74.26zm-1.18.28c.28 1.02.56 2.38.66 3.28l.88-.2c-.12-.88-.42-2.22-.7-3.24l-.84.16zm-1.2.16c.14 1.18.2 2.68.18 3.68l.92-.12c-.02-.98-.1-2.48-.24-3.64l-.86.08zm-1.32-.38c-.14 1.32-.46 3.22-.86 4.38l1.08.4c.36-1.16.64-3.1.8-4.44l-1.02-.34zm5.6-2.42v.28c-.1 4.6-.22 6.22-.5 6.58-.12.2-.26.22-.48.22-.24 0-.72 0-1.28-.06.22.4.36 1 .4 1.42.6.04 1.22.04 1.6-.02.46-.06.78-.18 1.06-.58.42-.56.56-2.3.7-7.18.02-.2.02-.66.02-.66h-1.52zm1.42-9.18h-6.82v10.76h6.2v-1.58h-4.7v-7.62h5.32v-1.56zm2.06 7.68h1.5v2.26H524v-2.26zm-1.28-1.26v4.76h4.14v-4.76h-4.14zm6.24 1.26h1.62v2.26h-1.62v-2.26zm-1.3-1.26v4.76h4.28v-4.76h-4.28zm-3.54 5.28c-.4 2.02-1.28 3.82-2.56 4.96.38.26 1 .8 1.28 1.06 1.36-1.32 2.38-3.4 2.88-5.74l-1.6-.28zm.18-8.1v1.48h5.96v-1.48h-5.96zm-.34 10.86c.86.56 1.94 1.4 2.44 1.98l.98-1.26c-.52-.54-1.62-1.34-2.48-1.84l-.94 1.12zm5.12-2.86c-.36 2.08-1.14 3.9-2.42 5.04.4.26 1.1.8 1.4 1.08 1.32-1.34 2.28-3.44 2.7-5.84l-1.68-.28zm-.46 3.36c1.02.72 2.32 1.76 2.94 2.46l1.12-1.3c-.64-.66-1.96-1.64-2.98-2.32l-1.08 1.16zm-1.78-16.04c-1.06 1.86-3.06 3.8-5.3 5.04.36.28.92.86 1.18 1.2 2.38-1.4 4.54-3.4 5.84-5.66l-1.72-.58zm.78.6l-1.28.78c1.34 1.7 3.72 3.62 5.78 4.74.12-.46.46-1.26.76-1.68-1.88-.84-4.14-2.44-5.26-3.84zm13.32 15.66v1.74h9.34v-1.74h-9.34zm-.84-14.04v1.68h7.24v-1.68h-7.24zm.74-2.08c-1.16 2.18-3.42 4.7-6.72 6.48.42.34 1.06 1.02 1.34 1.48 3.52-2.1 5.92-4.8 7.52-7.54l-2.14-.42zm5.88 2.08v.32c-1.98 5.16-7.34 9.06-12.68 10.6.4.4.88 1.18 1.1 1.7 5.68-1.88 11.18-5.92 13.56-12.04l-1.28-.68-.34.1h-.36zm-9.16 3.92c1.5 1.08 3.34 2.7 4.14 3.8l1.54-1.36c-.9-1.1-2.78-2.62-4.28-3.66l-1.4 1.22zm11.82 3.9v8.78h1.96v-8.78h-1.96zm-7.62 0h-.42l-1.48 1.44v7.3h1.9v-7.02h8.58v-1.72h-8.58zm24.26-3.7v8.16h1.72v-8.16h-1.72zm-2.82 4.04v1.42h7.7v-1.42h-7.7zm-2.54 3.02v1.56h12.3v-1.56h-12.3zm1.42-6.08v11.44h1.74v-9.94h7.1v-1.5h-8.84zm8.04 0v9.5c0 .24-.1.3-.36.32-.26 0-1.12.02-2-.02.26.44.54 1.18.62 1.66 1.26 0 2.14-.02 2.72-.32.6-.26.78-.76.78-1.62v-9.52h-1.76zm.84-6.88c-2.22.72-6.16 1.26-9.48 1.54.2.38.42.98.46 1.38 3.38-.26 7.46-.76 10.14-1.58l-1.12-1.34zm-.48 2.18c-.52 1.1-1.3 2.28-2.18 3.1.42.2 1.16.6 1.5.86.84-.86 1.74-2.26 2.34-3.52l-1.66-.44zm-5.02 1.04c.5.76.96 1.84 1.12 2.54l1.6-.58c-.18-.7-.68-1.72-1.22-2.46l-1.5.5zm-3.52.34c.58.82 1.22 1.94 1.46 2.66l1.62-.72c-.3-.72-.92-1.78-1.56-2.56l-1.52.62zm-4.84-1.98v16.8h1.78v-16.8h-1.78zm-2.8 3.98v1.72h7.04v-1.72h-7.04zm2.78.68c-.56 2.32-1.82 5.36-3.06 7 .3.46.74 1.22.92 1.76 1.34-1.92 2.62-5.52 3.26-8.32l-1.12-.44zm2.84-6.06c-1.34.64-3.68 1.22-5.76 1.58.22.36.46.98.54 1.38 2.2-.32 4.78-.86 6.6-1.62l-1.38-1.34zm-1.1 7.84l-.82.74c.56.7 1.88 2.52 2.32 3.34l1.1-1.44c-.4-.46-2.1-2.24-2.6-2.64z" fill="#646470"/><rect x="414" y="68.826" width="226" height="47" rx="5.5" stroke="#646470"/><path d="M527 140.326l2.887-5h-5.774l2.887 5zm-.5-24v19.5h1v-19.5h-1z" fill="#646470"/><rect x="414" y="140.826" width="226" height="47" rx="5.5" fill="#fff"/><path d="M444.222 163.554l-1.348.238a1.606 1.606 0 00-.268-.492 1.333 1.333 0 00-.487-.383c-.206-.099-.463-.149-.771-.149-.421 0-.772.095-1.054.284-.282.185-.423.425-.423.72a.76.76 0 00.284.617c.189.156.494.283.915.383l1.213.278c.702.163 1.226.413 1.571.751.344.338.517.777.517 1.317 0 .458-.133.865-.398 1.223-.262.355-.628.633-1.099.836-.467.202-1.009.303-1.625.303-.856 0-1.553-.182-2.093-.547-.541-.368-.872-.89-.995-1.566l1.437-.219c.09.375.273.658.552.85.278.189.641.284 1.089.284.487 0 .876-.101 1.168-.304.292-.205.437-.455.437-.75a.78.78 0 00-.268-.602c-.176-.162-.446-.285-.81-.368l-1.293-.283c-.713-.163-1.24-.421-1.581-.776-.338-.354-.507-.803-.507-1.347 0-.451.126-.845.378-1.183.252-.338.6-.602 1.044-.791.444-.192.953-.288 1.526-.288.825 0 1.475.179 1.949.537.474.354.787.83.94 1.427zm5.348-1.865v1.194h-4.171v-1.194h4.171zm-3.053-1.829h1.487v7.223c0 .289.043.506.129.652.086.142.197.24.333.293.139.05.29.075.453.075.119 0 .223-.009.313-.025l.209-.04.268 1.228a2.507 2.507 0 01-.368.099 2.85 2.85 0 01-.597.06 2.606 2.606 0 01-1.093-.209 1.88 1.88 0 01-.821-.676c-.208-.305-.313-.688-.313-1.148v-7.532zm7.906 9.62c-.752 0-1.4-.161-1.944-.482a3.272 3.272 0 01-1.252-1.368c-.292-.59-.438-1.281-.438-2.073 0-.782.146-1.471.438-2.068a3.396 3.396 0 011.233-1.397c.53-.335 1.15-.502 1.859-.502.431 0 .848.071 1.253.214.404.142.767.366 1.089.671.321.305.575.701.76 1.188.186.484.279 1.072.279 1.765v.527h-6.071v-1.114h4.614c0-.391-.08-.737-.239-1.039a1.808 1.808 0 00-.671-.721 1.881 1.881 0 00-1.004-.263c-.418 0-.782.103-1.094.308a2.065 2.065 0 00-.716.796 2.288 2.288 0 00-.248 1.059v.87c0 .51.089.944.268 1.302.182.358.436.631.761.82.325.186.704.279 1.138.279.282 0 .539-.04.771-.119a1.597 1.597 0 00.989-.97l1.407.254a2.553 2.553 0 01-.606 1.088 2.937 2.937 0 01-1.089.721c-.434.169-.93.254-1.487.254zm4.926 2.709v-10.5h1.452v1.238h.124c.086-.159.21-.343.373-.552.162-.208.388-.391.676-.546.288-.16.669-.239 1.143-.239.617 0 1.167.156 1.651.467.484.312.863.761 1.138 1.348.279.586.418 1.292.418 2.117 0 .826-.138 1.533-.413 2.123-.275.587-.653 1.039-1.133 1.358a2.943 2.943 0 01-1.646.472c-.464 0-.843-.078-1.138-.234a2.143 2.143 0 01-.686-.547 4.048 4.048 0 01-.383-.557h-.09v4.052h-1.486zm1.457-6.681c0 .536.077 1.007.233 1.411.156.405.381.721.676.95.295.225.657.338 1.084.338.444 0 .816-.118 1.114-.353.298-.239.523-.562.676-.969.156-.408.234-.867.234-1.377a3.81 3.81 0 00-.229-1.358 2.08 2.08 0 00-.676-.949c-.299-.232-.671-.348-1.119-.348-.431 0-.795.111-1.094.333-.295.222-.518.532-.671.929-.152.398-.228.862-.228 1.393zm10.869 3.818v-1.114l3.445-3.57c.368-.387.671-.727.91-1.019a3.86 3.86 0 00.542-.84 2.04 2.04 0 00.179-.845c0-.338-.08-.63-.239-.875a1.56 1.56 0 00-.651-.572 2.07 2.07 0 00-.93-.204c-.364 0-.683.075-.954.224-.272.149-.481.36-.627.631-.146.272-.219.59-.219.955h-1.466c0-.62.142-1.162.427-1.626a2.906 2.906 0 011.174-1.079c.497-.258 1.062-.387 1.695-.387.64 0 1.203.127 1.69.382.491.252.874.597 1.149 1.035.275.434.412.924.412 1.471 0 .378-.071.748-.213 1.109-.14.361-.383.764-.731 1.208-.348.441-.832.976-1.452 1.606l-2.023 2.118v.074h4.583v1.318h-6.701zm31.625-6.7h2.66v2.14h-2.66v-2.14zm0 3.68h2.66v2.16h-2.66v-2.16zm0-7.34h2.66v2.12h-2.66v-2.12zm-1.6-1.66v12.82h5.94v-12.82h-5.94zm3.46 13.82c.78.98 1.74 2.36 2.14 3.2l1.52-.92c-.44-.82-1.44-2.14-2.22-3.08l-1.44.8zm-2.76-.68c-.56 1.34-1.56 2.72-2.56 3.62.42.24 1.14.74 1.5 1.02 1.02-1.02 2.12-2.64 2.8-4.18l-1.74-.46zm9.92-14v16.34c0 .32-.12.42-.44.44-.32 0-1.34.02-2.46-.02.24.52.48 1.32.56 1.8 1.6 0 2.6-.04 3.22-.36.62-.28.86-.8.86-1.86v-16.34h-1.74zm-3.4 2.06v11.52h1.64v-11.52h-1.64zm-11.94-.5c1.12.56 2.5 1.46 3.14 2.12l1.14-1.52c-.7-.64-2.08-1.46-3.2-1.96l-1.08 1.36zm-.82 5.38c1.14.5 2.54 1.34 3.22 1.96l1.1-1.54c-.7-.62-2.12-1.36-3.28-1.82l-1.04 1.4zm.38 10.4l1.7 1c.86-1.9 1.8-4.3 2.52-6.42l-1.52-.98c-.8 2.28-1.9 4.86-2.7 6.4zm21.52-13.3v1.44h5.52v-1.44h-5.52zm0 2.96v1.44h5.56v-1.44h-5.56zm2.1-4.98v9.08h1.48v-9.08h-1.48zm.46 10.38c.38.82.82 1.92 1 2.64l.78-.32c-.18-.68-.64-1.76-1.04-2.58l-.74.26zm-1.18.28c.28 1.02.56 2.38.66 3.28l.88-.2c-.12-.88-.42-2.22-.7-3.24l-.84.16zm-1.2.16c.14 1.18.2 2.68.18 3.68l.92-.12c-.02-.98-.1-2.48-.24-3.64l-.86.08zm-1.32-.38c-.14 1.32-.46 3.22-.86 4.38l1.08.4c.36-1.16.64-3.1.8-4.44l-1.02-.34zm5.6-2.42v.28c-.1 4.6-.22 6.22-.5 6.58-.12.2-.26.22-.48.22-.24 0-.72 0-1.28-.06.22.4.36 1 .4 1.42.6.04 1.22.04 1.6-.02.46-.06.78-.18 1.06-.58.42-.56.56-2.3.7-7.18.02-.2.02-.66.02-.66h-1.52zm1.42-9.18h-6.82v10.76h6.2v-1.58h-4.7v-7.62h5.32v-1.56zm2.06 7.68h1.5v2.26H526v-2.26zm-1.28-1.26v4.76h4.14v-4.76h-4.14zm6.24 1.26h1.62v2.26h-1.62v-2.26zm-1.3-1.26v4.76h4.28v-4.76h-4.28zm-3.54 5.28c-.4 2.02-1.28 3.82-2.56 4.96.38.26 1 .8 1.28 1.06 1.36-1.32 2.38-3.4 2.88-5.74l-1.6-.28zm.18-8.1v1.48h5.96v-1.48h-5.96zm-.34 10.86c.86.56 1.94 1.4 2.44 1.98l.98-1.26c-.52-.54-1.62-1.34-2.48-1.84l-.94 1.12zm5.12-2.86c-.36 2.08-1.14 3.9-2.42 5.04.4.26 1.1.8 1.4 1.08 1.32-1.34 2.28-3.44 2.7-5.84l-1.68-.28zm-.46 3.36c1.02.72 2.32 1.76 2.94 2.46l1.12-1.3c-.64-.66-1.96-1.64-2.98-2.32l-1.08 1.16zm-1.78-16.04c-1.06 1.86-3.06 3.8-5.3 5.04.36.28.92.86 1.18 1.2 2.38-1.4 4.54-3.4 5.84-5.66l-1.72-.58zm.78.6l-1.28.78c1.34 1.7 3.72 3.62 5.78 4.74.12-.46.46-1.26.76-1.68-1.88-.84-4.14-2.44-5.26-3.84zm12.8 12.28v1.58h12.02v-1.58h-12.02zm2.94-4h6.32v1.2h-6.32v-1.2zm0-2.46h6.32v1.16h-6.32v-1.16zm-1.76-1.38v6.4h9.92v-6.4h-9.92zm4 6.18c-.32 3.16-1.1 5.1-5.74 6.06.34.38.8 1.08.98 1.52 5.16-1.22 6.22-3.68 6.62-7.58h-1.86zm-4.86-9.44v1.54h5.5v-1.54h-5.5zm2.26-1.56v4.38h1.7v-4.38H545zm5.4 0v4.38h1.68v-4.38h-1.68zm-1.58 1.54v1.56h5.82v-1.56h-5.82zm-.32 13.88c1.7.9 4.04 2.26 5.18 3.06l1.2-1.34c-1.22-.8-3.58-2.06-5.24-2.9l-1.14 1.18zm-11.96-11.6v1.74h6.36v-1.74h-6.36zm2.46-3.82v18.56h1.72v-18.56H539zm0 5.04c-.5 2.56-1.72 5.9-2.94 7.64.32.48.74 1.32.94 1.88 1.3-2.06 2.48-5.98 3.04-9.08l-1.04-.44zm1.62 1l-.88.7c.54.98 1.74 3.5 2.18 4.68l1.14-1.32c-.36-.66-1.98-3.44-2.44-4.06zm29.1-4.9c.98.7 2.16 1.74 2.72 2.44l1.34-1.16c-.6-.68-1.82-1.68-2.8-2.34l-1.26 1.06zm-13.16 2.46v1.84h17.9v-1.84h-17.9zm.72 4.52v1.84h8.76v-1.84h-8.76zm3.36 1.02v6.98h1.88v-6.98h-1.88zm-4.04 6.96l.56 1.9c2.58-.56 6.2-1.36 9.56-2.12l-.14-1.7c-3.66.74-7.58 1.5-9.98 1.92zm10-16.02c.04 9.52 1.5 18.52 5.64 18.52 1.7 0 2.38-.98 2.68-4.62-.52-.2-1.24-.64-1.66-1.08-.12 2.62-.36 3.72-.86 3.72-2.22 0-3.9-7.72-3.78-16.54h-2.02z" fill="#646470"/><rect x="414" y="140.826" width="226" height="47" rx="5.5" stroke="#646470"/><path d="M527 212.326l2.887-5h-5.774l2.887 5zm-.5-24v19.5h1v-19.5h-1z" fill="#646470"/><rect x="414" y="212.826" width="226" height="47" rx="5.5" fill="#fff"/><path d="M444.222 235.554l-1.348.238a1.606 1.606 0 00-.268-.492 1.333 1.333 0 00-.487-.383c-.206-.099-.463-.149-.771-.149-.421 0-.772.095-1.054.284-.282.185-.423.425-.423.72a.76.76 0 00.284.617c.189.156.494.283.915.383l1.213.278c.702.163 1.226.413 1.571.751.344.338.517.777.517 1.317 0 .458-.133.865-.398 1.223-.262.355-.628.633-1.099.836-.467.202-1.009.303-1.625.303-.856 0-1.553-.182-2.093-.547-.541-.368-.872-.89-.995-1.566l1.437-.219c.09.375.273.658.552.85.278.189.641.284 1.089.284.487 0 .876-.101 1.168-.304.292-.205.437-.455.437-.75a.78.78 0 00-.268-.602c-.176-.162-.446-.285-.81-.368l-1.293-.283c-.713-.163-1.24-.421-1.581-.776-.338-.354-.507-.803-.507-1.347 0-.451.126-.845.378-1.183.252-.338.6-.602 1.044-.791.444-.192.953-.288 1.526-.288.825 0 1.475.179 1.949.537.474.354.787.83.94 1.427zm5.348-1.865v1.194h-4.171v-1.194h4.171zm-3.053-1.829h1.487v7.223c0 .289.043.506.129.652.086.142.197.24.333.293.139.05.29.075.453.075.119 0 .223-.009.313-.025l.209-.04.268 1.228a2.507 2.507 0 01-.368.099 2.85 2.85 0 01-.597.06 2.606 2.606 0 01-1.093-.209 1.88 1.88 0 01-.821-.676c-.208-.305-.313-.688-.313-1.148v-7.532zm7.906 9.62c-.752 0-1.4-.161-1.944-.482a3.272 3.272 0 01-1.252-1.368c-.292-.59-.438-1.281-.438-2.073 0-.782.146-1.471.438-2.068a3.396 3.396 0 011.233-1.397c.53-.335 1.15-.502 1.859-.502.431 0 .848.071 1.253.214.404.142.767.366 1.089.671.321.305.575.701.76 1.188.186.484.279 1.072.279 1.765v.527h-6.071v-1.114h4.614c0-.391-.08-.737-.239-1.039a1.808 1.808 0 00-.671-.721 1.881 1.881 0 00-1.004-.263c-.418 0-.782.103-1.094.308a2.065 2.065 0 00-.716.796 2.288 2.288 0 00-.248 1.059v.87c0 .51.089.944.268 1.302.182.358.436.631.761.82.325.186.704.279 1.138.279.282 0 .539-.04.771-.119a1.597 1.597 0 00.989-.97l1.407.254a2.553 2.553 0 01-.606 1.088 2.937 2.937 0 01-1.089.721c-.434.169-.93.254-1.487.254zm4.926 2.709v-10.5h1.452v1.238h.124c.086-.159.21-.343.373-.552.162-.208.388-.391.676-.546.288-.16.669-.239 1.143-.239.617 0 1.167.156 1.651.467.484.312.863.761 1.138 1.348.279.586.418 1.292.418 2.117 0 .826-.138 1.533-.413 2.123-.275.587-.653 1.039-1.133 1.358a2.943 2.943 0 01-1.646.472c-.464 0-.843-.078-1.138-.234a2.143 2.143 0 01-.686-.547 4.048 4.048 0 01-.383-.557h-.09v4.052h-1.486zm1.457-6.681c0 .536.077 1.007.233 1.411.156.405.381.721.676.95.295.225.657.338 1.084.338.444 0 .816-.118 1.114-.353.298-.239.523-.562.676-.969.156-.408.234-.867.234-1.377a3.81 3.81 0 00-.229-1.358 2.08 2.08 0 00-.676-.949c-.299-.232-.671-.348-1.119-.348-.431 0-.795.111-1.094.333-.295.222-.518.532-.671.929-.152.398-.228.862-.228 1.393zm14.413 3.957c-.682 0-1.292-.118-1.829-.353-.534-.235-.956-.562-1.268-.979a2.603 2.603 0 01-.497-1.462h1.561c.02.301.121.563.303.785.186.219.428.388.726.507.298.12.63.179.995.179.401 0 .755-.069 1.063-.208.312-.14.556-.333.731-.582.176-.252.264-.542.264-.87 0-.341-.088-.641-.264-.9-.172-.262-.426-.467-.76-.616-.332-.15-.733-.224-1.204-.224h-.86v-1.253h.86c.378 0 .71-.068.995-.204a1.63 1.63 0 00.676-.567c.162-.245.244-.532.244-.86a1.54 1.54 0 00-.214-.82 1.438 1.438 0 00-.597-.552 1.945 1.945 0 00-.905-.199c-.331 0-.641.062-.929.184-.285.12-.517.292-.696.517a1.335 1.335 0 00-.289.801h-1.486c.016-.55.179-1.034.487-1.452a3.15 3.15 0 011.233-.979 4 4 0 011.7-.353c.653 0 1.217.127 1.691.382.477.252.845.589 1.103 1.01.262.421.391.881.388 1.382.003.57-.156 1.054-.477 1.452a2.32 2.32 0 01-1.273.8v.079c.676.103 1.2.372 1.571.806.375.434.56.973.557 1.616a2.521 2.521 0 01-.467 1.506 3.187 3.187 0 01-1.278 1.049c-.54.252-1.159.378-1.855.378zm29.081-6.839h2.66v2.14h-2.66v-2.14zm0 3.68h2.66v2.16h-2.66v-2.16zm0-7.34h2.66v2.12h-2.66v-2.12zm-1.6-1.66v12.82h5.94v-12.82h-5.94zm3.46 13.82c.78.98 1.74 2.36 2.14 3.2l1.52-.92c-.44-.82-1.44-2.14-2.22-3.08l-1.44.8zm-2.76-.68c-.56 1.34-1.56 2.72-2.56 3.62.42.24 1.14.74 1.5 1.02 1.02-1.02 2.12-2.64 2.8-4.18l-1.74-.46zm9.92-14v16.34c0 .32-.12.42-.44.44-.32 0-1.34.02-2.46-.02.24.52.48 1.32.56 1.8 1.6 0 2.6-.04 3.22-.36.62-.28.86-.8.86-1.86v-16.34h-1.74zm-3.4 2.06v11.52h1.64v-11.52h-1.64zm-11.94-.5c1.12.56 2.5 1.46 3.14 2.12l1.14-1.52c-.7-.64-2.08-1.46-3.2-1.96l-1.08 1.36zm-.82 5.38c1.14.5 2.54 1.34 3.22 1.96l1.1-1.54c-.7-.62-2.12-1.36-3.28-1.82l-1.04 1.4zm.38 10.4l1.7 1c.86-1.9 1.8-4.3 2.52-6.42l-1.52-.98c-.8 2.28-1.9 4.86-2.7 6.4zm21.52-13.3v1.44h5.52v-1.44h-5.52zm0 2.96v1.44h5.56v-1.44h-5.56zm2.1-4.98v9.08h1.48v-9.08h-1.48zm.46 10.38c.38.82.82 1.92 1 2.64l.78-.32c-.18-.68-.64-1.76-1.04-2.58l-.74.26zm-1.18.28c.28 1.02.56 2.38.66 3.28l.88-.2c-.12-.88-.42-2.22-.7-3.24l-.84.16zm-1.2.16c.14 1.18.2 2.68.18 3.68l.92-.12c-.02-.98-.1-2.48-.24-3.64l-.86.08zm-1.32-.38c-.14 1.32-.46 3.22-.86 4.38l1.08.4c.36-1.16.64-3.1.8-4.44l-1.02-.34zm5.6-2.42v.28c-.1 4.6-.22 6.22-.5 6.58-.12.2-.26.22-.48.22-.24 0-.72 0-1.28-.06.22.4.36 1 .4 1.42.6.04 1.22.04 1.6-.02.46-.06.78-.18 1.06-.58.42-.56.56-2.3.7-7.18.02-.2.02-.66.02-.66h-1.52zm1.42-9.18h-6.82v10.76h6.2v-1.58h-4.7v-7.62h5.32v-1.56zm2.06 7.68h1.5v2.26H527v-2.26zm-1.28-1.26v4.76h4.14v-4.76h-4.14zm6.24 1.26h1.62v2.26h-1.62v-2.26zm-1.3-1.26v4.76h4.28v-4.76h-4.28zm-3.54 5.28c-.4 2.02-1.28 3.82-2.56 4.96.38.26 1 .8 1.28 1.06 1.36-1.32 2.38-3.4 2.88-5.74l-1.6-.28zm.18-8.1v1.48h5.96v-1.48h-5.96zm-.34 10.86c.86.56 1.94 1.4 2.44 1.98l.98-1.26c-.52-.54-1.62-1.34-2.48-1.84l-.94 1.12zm5.12-2.86c-.36 2.08-1.14 3.9-2.42 5.04.4.26 1.1.8 1.4 1.08 1.32-1.34 2.28-3.44 2.7-5.84l-1.68-.28zm-.46 3.36c1.02.72 2.32 1.76 2.94 2.46l1.12-1.3c-.64-.66-1.96-1.64-2.98-2.32l-1.08 1.16zm-1.78-16.04c-1.06 1.86-3.06 3.8-5.3 5.04.36.28.92.86 1.18 1.2 2.38-1.4 4.54-3.4 5.84-5.66l-1.72-.58zm.78.6l-1.28.78c1.34 1.7 3.72 3.62 5.78 4.74.12-.46.46-1.26.76-1.68-1.88-.84-4.14-2.44-5.26-3.84zm7.96 4.1v14.1h1.92v-12.24h13.06v-1.86h-14.98zm14.02 0v11.76c0 .3-.1.42-.46.42-.38.02-1.68.02-2.92-.02.28.52.58 1.38.66 1.92 1.7 0 2.9-.02 3.68-.32.74-.32.96-.88.96-1.98v-11.78h-1.92zm-10.48-3.62v1.68h4.36v-1.68h-4.36zm3.1 0v.9h.36c.28 5.58 1.72 9.96 5.7 12.1.3-.5.94-1.26 1.36-1.64-3.84-1.74-5.14-5.86-5.36-11.36h-2.06zm.18 4.08c-.52 3.62-2.12 6.14-5.02 7.54.4.32 1.02 1.06 1.28 1.5 3.18-1.66 4.82-4.58 5.5-8.74l-1.76-.3zm17.6-.76c-1.08 1.42-2.92 2.76-4.72 3.62.4.34 1.04 1.1 1.32 1.46 1.84-1.04 3.88-2.72 5.18-4.5l-1.78-.58zm5 1.1c1.8 1.12 4.02 2.8 5.08 3.92l1.36-1.24c-1.12-1.12-3.4-2.72-5.16-3.76l-1.28 1.08zm-7.18 6.5v6.8h1.82v-5.12h7.66v5.06h1.92v-6.74h-11.4zm.98 4.5v1.68h9.4v-1.68h-9.4zm-3.76-14.54v3.94h1.86v-2.22h13.12v2.22h1.92v-3.94h-16.9zm6.94-1.48c.42.8.88 1.84 1.04 2.5l2.06-.48c-.2-.68-.68-1.7-1.14-2.46l-1.96.44zm1.28 5.7c-1.88 3.02-5.4 5.42-9.1 6.74.44.4.92 1.06 1.2 1.52 3.88-1.58 7.42-4.18 9.54-7.54l-1.64-.72zm.84.72l-1.52.72c2.6 3.18 5.48 5 9 6.58.24-.56.76-1.18 1.2-1.58-3.42-1.3-6.34-2.94-8.68-5.72z" fill="#646470"/><rect x="414" y="212.826" width="226" height="47" rx="5.5" stroke="#646470"/><path d="M527 284.326l2.887-5h-5.774l2.887 5zm-.5-24v19.5h1v-19.5h-1z" fill="#646470"/><rect x="414" y="284.826" width="226" height="47" rx="5.5" fill="#fff"/><path d="M444.222 307.554l-1.348.238a1.606 1.606 0 00-.268-.492 1.333 1.333 0 00-.487-.383c-.206-.099-.463-.149-.771-.149-.421 0-.772.095-1.054.284-.282.185-.423.425-.423.72a.76.76 0 00.284.617c.189.156.494.283.915.383l1.213.278c.702.163 1.226.413 1.571.751.344.338.517.777.517 1.317 0 .458-.133.865-.398 1.223-.262.355-.628.633-1.099.836-.467.202-1.009.303-1.625.303-.856 0-1.553-.182-2.093-.547-.541-.368-.872-.89-.995-1.566l1.437-.219c.09.375.273.658.552.85.278.189.641.284 1.089.284.487 0 .876-.101 1.168-.304.292-.205.437-.455.437-.75a.78.78 0 00-.268-.602c-.176-.162-.446-.285-.81-.368l-1.293-.283c-.713-.163-1.24-.421-1.581-.776-.338-.354-.507-.803-.507-1.347 0-.451.126-.845.378-1.183.252-.338.6-.602 1.044-.791.444-.192.953-.288 1.526-.288.825 0 1.475.179 1.949.537.474.354.787.83.94 1.427zm5.348-1.865v1.194h-4.171v-1.194h4.171zm-3.053-1.829h1.487v7.223c0 .289.043.506.129.652.086.142.197.24.333.293.139.05.29.075.453.075.119 0 .223-.009.313-.025l.209-.04.268 1.228a2.507 2.507 0 01-.368.099 2.85 2.85 0 01-.597.06 2.606 2.606 0 01-1.093-.209 1.88 1.88 0 01-.821-.676c-.208-.305-.313-.688-.313-1.148v-7.532zm7.906 9.62c-.752 0-1.4-.161-1.944-.482a3.272 3.272 0 01-1.252-1.368c-.292-.59-.438-1.281-.438-2.073 0-.782.146-1.471.438-2.068a3.396 3.396 0 011.233-1.397c.53-.335 1.15-.502 1.859-.502.431 0 .848.071 1.253.214.404.142.767.366 1.089.671.321.305.575.701.76 1.188.186.484.279 1.072.279 1.765v.527h-6.071v-1.114h4.614c0-.391-.08-.737-.239-1.039a1.808 1.808 0 00-.671-.721 1.881 1.881 0 00-1.004-.263c-.418 0-.782.103-1.094.308a2.065 2.065 0 00-.716.796 2.288 2.288 0 00-.248 1.059v.87c0 .51.089.944.268 1.302.182.358.436.631.761.82.325.186.704.279 1.138.279.282 0 .539-.04.771-.119a1.597 1.597 0 00.989-.97l1.407.254a2.553 2.553 0 01-.606 1.088 2.937 2.937 0 01-1.089.721c-.434.169-.93.254-1.487.254zm4.926 2.709v-10.5h1.452v1.238h.124c.086-.159.21-.343.373-.552.162-.208.388-.391.676-.546.288-.16.669-.239 1.143-.239.617 0 1.167.156 1.651.467.484.312.863.761 1.138 1.348.279.586.418 1.292.418 2.117 0 .826-.138 1.533-.413 2.123-.275.587-.653 1.039-1.133 1.358a2.943 2.943 0 01-1.646.472c-.464 0-.843-.078-1.138-.234a2.143 2.143 0 01-.686-.547 4.048 4.048 0 01-.383-.557h-.09v4.052h-1.486zm1.457-6.681c0 .536.077 1.007.233 1.411.156.405.381.721.676.95.295.225.657.338 1.084.338.444 0 .816-.118 1.114-.353.298-.239.523-.562.676-.969.156-.408.234-.867.234-1.377a3.81 3.81 0 00-.229-1.358 2.08 2.08 0 00-.676-.949c-.299-.232-.671-.348-1.119-.348-.431 0-.795.111-1.094.333-.295.222-.518.532-.671.929-.152.398-.228.862-.228 1.393zm10.655 1.829v-1.243l4.4-6.95h.979v1.829h-.621l-3.147 4.982v.079h6.03v1.303h-7.641zm4.827 1.989v-2.367l.01-.567v-7.248h1.457v10.182h-1.467zm21.312-11.96v1.66h6.44v-1.66h-6.44zm-.46 6.38v1.7h7.62v-1.7h-7.62zm3.16.88v8.24c0 .24-.08.3-.36.32-.28 0-1.22 0-2.16-.02.24.52.5 1.28.58 1.8 1.36 0 2.3-.02 2.94-.32.66-.28.82-.8.82-1.74v-8.28h-1.82zm3.16-7.26v.36c-.56 1.1-1.76 2.72-2.82 3.66.32.26.82.78 1.08 1.12 1.28-1.1 2.7-2.86 3.68-4.42l-1.18-.82-.34.1h-.42zm.76 6.38v.26c-.34 1.4-.86 3.14-1.3 4.18l1.42.34c.5-1.14 1.1-2.94 1.58-4.54l-1.18-.3-.26.06h-.26zm-6.16-2.52c1.68.86 3.7 2.24 4.64 3.26l1.06-1.4c-1-.98-3.06-2.28-4.72-3.1l-.98 1.24zm7.36-3.9v1.6h10.2v-1.6h-10.2zm2.48 7.68h5.26v1.66h-5.26v-1.66zm0 3h5.26v1.68h-5.26v-1.68zm0-6h5.26v1.66h-5.26v-1.66zm-1.74-1.42v10.52h8.82v-10.52h-8.82zm3.4-2.44c-.1.96-.36 2.34-.58 3.26l1.66.32c.32-.86.72-2.12 1.06-3.32l-2.14-.26zm-1.42 13.18c-.86.88-2.66 1.94-4.24 2.5.4.32.98.9 1.26 1.26 1.58-.6 3.48-1.7 4.58-2.76l-1.6-1zm3.02 1.08c1.18.78 2.7 1.92 3.42 2.66l1.5-1.06c-.8-.76-2.34-1.84-3.52-2.56l-1.4.96zm10.44-15.88c-1.06 2.96-2.88 5.9-4.78 7.78.32.44.86 1.46 1.04 1.92 2.16-2.26 4.22-5.74 5.54-9.14l-1.8-.56zm-2.06 5.32v13.14h1.8v-14.92l-.02-.02-1.78 1.8zm4.52 4.52v8.64h1.88v-6.84h6.72v6.76h1.94v-8.56h-10.54zm4.24-9.92v10.88h1.94v-10.88h-1.94zm-5.28 4.26v1.82h12.76v-1.82h-12.76zm1.96 11.66v1.8h8.76v-1.8h-8.76zm21.3-12.6l-.88 1.8h10.42v-1.8h-9.54zm2.56 4.36v1.72h6.5v-1.72h-6.5zm-.02 4.42v1.78h6.78v-1.78h-6.78zm-.94-8.18v14.64h1.94v-14.64h-1.94zm-.96-3.7c-.96 2.92-2.56 5.82-4.36 7.66.42.3 1.16.98 1.46 1.32 1.84-2.08 3.6-5.3 4.72-8.5l-1.82-.48zm-5.02-.14c-1.08 2.96-2.9 5.9-4.82 7.78.34.46.9 1.52 1.08 1.96 2.18-2.24 4.26-5.76 5.56-9.16l-1.82-.58zm-2.08 5.32v13.14h1.9v-15.02l-.02-.02-1.88 1.9zm22.62 3.8v1.58h8.2v-1.58h-8.2zm-.76 7v1.66h9.7v-1.66h-9.7zm-1.04-4.04v6.42h1.8v-4.8h8.1v4.72h1.88v-6.34h-11.78zm5.54-7.44c-1.72 2.34-5.2 4.36-9 5.58.38.34.96 1.1 1.2 1.54 3.96-1.42 7.42-3.56 9.5-6.4l-1.7-.72zm.76.84l-1.14 1.04c1.84 1.6 5.62 3.84 8.9 4.96.3-.48.9-1.26 1.34-1.66-3.36-.94-7.32-2.86-9.1-4.34zm-6.86-4.02v1.66h6.32v-1.66h-6.32zm7.94 0v1.66h7.54v-1.66h-7.54zm-7.76-1.66c-.64 1.7-1.8 3.4-3.06 4.48.38.38 1.02 1.24 1.26 1.62 1.42-1.34 2.82-3.46 3.66-5.56l-1.86-.54zm8 0c-.46 1.5-1.32 2.94-2.38 3.9.44.32 1.18 1.02 1.5 1.38 1.14-1.14 2.18-2.96 2.78-4.78l-1.9-.5zm-7.28 4.38c.68.68 1.52 1.62 1.88 2.24l1.38-1.16c-.4-.6-1.24-1.5-1.94-2.12l-1.32 1.04zm8.6-.1c.72.66 1.56 1.6 1.94 2.22l1.36-1.16c-.42-.6-1.3-1.48-2.02-2.1l-1.28 1.04zm15.42 2.1v1.66h10.12v-1.66H585zm-.78-3.98v1.68h11.5v-1.68h-11.5zm.06 7.56v1.68h11.36v-1.68h-11.36zm4.76-9.86v7.22h1.86v-7.22h-1.86zm2.58 7.68v8.76c0 .3-.1.38-.42.38-.32.02-1.42.02-2.54-.02.26.5.54 1.26.62 1.76 1.56 0 2.6-.02 3.3-.3.68-.28.9-.8.9-1.78v-8.8h-1.86zm-6.3 5.24c.9 1.04 1.96 2.54 2.42 3.46l1.68-1c-.52-.92-1.64-2.34-2.54-3.34l-1.56.88zm-6.52-11.62v1.7h3.3v9.98h-3.3v1.7h5.06v-13.38h-5.06zm.08 5.76v1.68h4.06v-1.68h-4.06zm-.98-5.76v15.08h1.76v-15.08h-1.76zm25.68 10.96v1.4h5.8v-1.4h-5.8zm-.1-3v1.44h5v4.6h-5v1.42h6.78v-7.46h-6.78zm-.8 0v8.48h1.72v-8.48h-1.72zm-3.54-5.6v1.32h5.32v-1.32h-5.32zm9.24 0v1.32h5.4v-1.32h-5.4zm4.62-2.82v15.38c0 .34-.12.46-.48.46-.36.02-1.58.04-2.72-.02.28.52.56 1.4.64 1.92 1.7 0 2.8-.02 3.52-.34.72-.32.94-.9.94-2v-15.4H613zm-13.72 0v1.42h4.6v4.22h-4.6v1.4h6.38v-7.04h-6.38zm14.7 0h-6.72v7.08h6.72v-1.4h-4.92v-4.26h4.92v-1.42zm-15.78 0v17.76h1.88v-17.76h-1.88z" fill="#646470"/><rect x="414" y="284.826" width="226" height="47" rx="5.5" stroke="#646470"/></svg>