<svg width="960" height="379" fill="none" xmlns="http://www.w3.org/2000/svg"><path d="M122.034 48.798c36.726 0 73.091 7.26 107.022 21.366a279.605 279.605 0 0190.728 60.847 280.79 280.79 0 0160.623 91.063 281.603 281.603 0 0121.288 107.417H122.034V48.798z" fill="#E5EFFD"/><path d="M122.034 142.361c24.483 0 48.728 4.84 71.348 14.245a186.393 186.393 0 0160.485 40.564 187.18 187.18 0 0140.416 60.709 187.74 187.74 0 0114.192 71.611H122.034V142.361z" fill="#8BB8F5"/><path d="M122.034 235.926a92.915 92.915 0 0135.673 7.122 93.192 93.192 0 0130.244 20.282 93.592 93.592 0 0120.207 30.355 93.854 93.854 0 017.096 35.805h-93.22v-93.564z" fill="#2F80ED"/><path d="M122.034 30.085l-2.691 4.678h5.382l-2.691-4.678zm0 299.406h-.466v.468h.466v-.468zm298.305 0l-4.661-2.701v5.402l4.661-2.701zM121.568 34.295v295.196h.932V34.295h-.932zm.466 295.664h294.11v-.936h-294.11v.936z" fill="#646470"/><path d="M141.856 300.486v-13.609h2.867v5.615h5.819v-5.615h2.861v13.609h-2.861v-5.621h-5.819v5.621h-2.867zm13.857 0v-10.207h2.821v10.207h-2.821zm1.417-11.522c-.419 0-.779-.14-1.079-.42a1.356 1.356 0 01-.443-1.016c0-.39.147-.724.443-1.004.3-.283.66-.424 1.079-.424.42 0 .777.141 1.073.424.3.28.451.614.451 1.004 0 .394-.151.733-.451 1.016-.296.28-.653.42-1.073.42zm8.245 15.562c-.914 0-1.697-.126-2.35-.379-.649-.248-1.166-.586-1.55-1.016a3.132 3.132 0 01-.748-1.448l2.609-.353c.079.204.205.395.378.572.171.177.399.319.681.424.287.112.636.167 1.046.167.613 0 1.12-.151 1.517-.452.401-.296.602-.795.602-1.495v-1.868h-.119a2.704 2.704 0 01-1.51 1.423c-.388.16-.852.239-1.391.239a4.177 4.177 0 01-2.085-.531c-.622-.36-1.119-.907-1.49-1.642-.366-.74-.549-1.674-.549-2.805 0-1.156.188-2.122.562-2.896.376-.776.875-1.356 1.497-1.742a3.86 3.86 0 012.059-.578c.569 0 1.046.098 1.43.293.384.19.693.43.927.718.238.283.422.562.55.836h.106v-1.714h2.8v10.307c0 .868-.211 1.594-.636 2.179-.423.585-1.01 1.024-1.761 1.316-.745.297-1.604.445-2.575.445zm.059-6.313c.455 0 .839-.113 1.153-.338.318-.23.56-.559.728-.984.172-.429.258-.944.258-1.542 0-.598-.084-1.116-.252-1.555-.168-.442-.41-.786-.728-1.03-.318-.243-.704-.365-1.159-.365-.463 0-.853.127-1.171.379-.318.248-.559.593-.722 1.036-.163.443-.245.955-.245 1.535 0 .59.082 1.099.245 1.529.168.425.408.755.722.99.318.23.708.345 1.171.345zm9.978-3.628v5.901h-2.82v-13.609h2.741v5.203h.119c.229-.602.6-1.074 1.112-1.415.512-.346 1.154-.519 1.927-.519.706 0 1.322.156 1.847.465a3.1 3.1 0 011.231 1.323c.296.571.442 1.256.437 2.053v6.499h-2.82v-5.994c.004-.628-.154-1.119-.477-1.469-.318-.35-.763-.525-1.337-.525a2.07 2.07 0 00-1.02.247 1.74 1.74 0 00-.689.717c-.163.31-.247.685-.251 1.123zm18.648-64.782h3.536l3.733 9.143h.159l3.735-9.143h3.535v13.609h-2.781v-8.858h-.112l-3.51 8.791h-1.893l-3.509-8.825h-.113v8.892h-2.78v-13.609zm21.642 13.808c-1.046 0-1.947-.212-2.702-.638a4.368 4.368 0 01-1.735-1.821c-.405-.788-.608-1.72-.608-2.797 0-1.05.203-1.972.608-2.764a4.518 4.518 0 011.716-1.855c.741-.442 1.61-.664 2.608-.664a5.29 5.29 0 011.874.326 4.16 4.16 0 011.522.963c.437.43.777.971 1.02 1.622.243.646.364 1.404.364 2.273v.777h-8.587v-1.754h5.932c0-.408-.088-.769-.264-1.084a1.91 1.91 0 00-.736-.737 2.08 2.08 0 00-1.078-.272c-.429 0-.809.099-1.14.298a2.105 2.105 0 00-.768.791 2.249 2.249 0 00-.284 1.096v1.669c0 .505.092.941.278 1.309.19.367.457.651.801.85.344.199.753.299 1.224.299.315 0 .601-.044.862-.132a1.79 1.79 0 00.668-.399c.186-.178.326-.395.424-.652l2.609.173a3.588 3.588 0 01-.815 1.649c-.406.465-.931.828-1.576 1.089-.64.257-1.379.385-2.217.385zm10.255-.033a3.829 3.829 0 01-2.099-.598c-.622-.403-1.116-.994-1.483-1.774-.361-.784-.543-1.745-.543-2.884 0-1.17.188-2.142.563-2.917.376-.78.874-1.363 1.496-1.748a3.825 3.825 0 012.059-.585c.57 0 1.044.097 1.424.293.384.19.692.429.926.718.239.283.42.562.544.836h.086v-5.116h2.814v13.609h-2.781v-1.635h-.119a3.65 3.65 0 01-.563.844 2.803 2.803 0 01-.933.685c-.381.182-.844.272-1.391.272zm.894-2.253c.455 0 .839-.124 1.152-.372.318-.253.56-.604.728-1.056.173-.452.258-.982.258-1.588 0-.607-.084-1.135-.251-1.582-.168-.448-.411-.793-.728-1.037-.318-.243-.704-.365-1.159-.365-.463 0-.854.126-1.172.379-.318.252-.558.602-.721 1.05-.164.447-.246.965-.246 1.555 0 .593.082 1.118.246 1.575.167.451.408.806.721 1.062.318.253.709.379 1.172.379zm7.211 2.087v-10.207h2.821v10.207h-2.821zm1.417-11.523c-.419 0-.779-.139-1.079-.419a1.357 1.357 0 01-.444-1.016c0-.39.148-.724.444-1.004.3-.283.66-.425 1.079-.425.42 0 .777.142 1.073.425.3.28.451.614.451 1.004 0 .394-.151.733-.451 1.016-.296.28-.653.419-1.073.419zm10.185 7.177v-5.861h2.821v10.207h-2.709v-1.854h-.106a3.008 3.008 0 01-1.145 1.442c-.53.363-1.176.545-1.939.545-.681 0-1.279-.156-1.795-.465a3.21 3.21 0 01-1.212-1.322c-.287-.572-.432-1.257-.437-2.054v-6.499h2.821v5.994c.004.602.165 1.078.483 1.428.318.35.744.525 1.278.525.34 0 .658-.076.953-.232.296-.16.535-.395.715-.704.186-.31.276-.694.272-1.15zm5.076 4.346v-10.207h2.688v1.801h.119a2.836 2.836 0 011.059-1.416c.495-.345 1.086-.518 1.775-.518.697 0 1.291.175 1.781.525.49.345.816.815.98 1.409h.106a2.713 2.713 0 011.126-1.403c.547-.354 1.193-.531 1.94-.531.949 0 1.719.303 2.31.91.595.603.894 1.458.894 2.565v6.865h-2.814v-6.306c0-.567-.15-.993-.45-1.277-.3-.283-.676-.424-1.126-.424-.512 0-.912.163-1.198.491-.287.324-.431.751-.431 1.283v6.233h-2.734v-6.366c0-.501-.143-.899-.43-1.196-.283-.297-.656-.445-1.119-.445-.313 0-.596.079-.847.239a1.643 1.643 0 00-.59.658 2.09 2.09 0 00-.219.983v6.127h-2.82z" fill="#fff"/><path d="M285.416 186.337v-13.608h2.866v11.237h5.813v2.371h-8.679zm15.12.2c-1.028 0-1.918-.219-2.668-.658a4.497 4.497 0 01-1.728-1.847c-.406-.793-.609-1.712-.609-2.758 0-1.055.203-1.976.609-2.764a4.44 4.44 0 011.728-1.848c.75-.443 1.64-.664 2.668-.664 1.028 0 1.916.221 2.661.664a4.424 4.424 0 011.735 1.848c.407.788.609 1.709.609 2.764 0 1.046-.202 1.965-.609 2.758a4.48 4.48 0 01-1.735 1.847c-.745.439-1.633.658-2.661.658zm.013-2.193c.468 0 .859-.133 1.172-.399.314-.27.55-.637.708-1.103.163-.465.245-.995.245-1.588 0-.594-.082-1.123-.245-1.589-.158-.465-.394-.832-.708-1.103-.313-.269-.704-.405-1.172-.405-.472 0-.87.136-1.191.405-.318.271-.559.638-.722 1.103-.159.466-.238.995-.238 1.589 0 .593.079 1.123.238 1.588.163.466.404.833.722 1.103.321.266.719.399 1.191.399zm8.577 1.993l-2.767-10.206h2.854l1.575 6.858h.093l1.642-6.858h2.801l1.668 6.818h.086l1.549-6.818h2.847l-2.761 10.206h-2.986l-1.748-6.419h-.126l-1.747 6.419h-2.98z" fill="#8BB8F5"/><path d="M382.818 351.946h-2.511v-8.165h2.622c.789 0 1.464.164 2.026.49.562.325.992.791 1.291 1.4.3.605.449 1.332.449 2.176 0 .852-.151 1.584-.453 2.197a3.229 3.229 0 01-1.318 1.412c-.578.327-1.28.49-2.106.49zm-1.525-.876h1.461c.673 0 1.23-.131 1.673-.391.442-.26.772-.632.989-1.113.217-.481.325-1.053.325-1.719 0-.658-.107-1.226-.321-1.702a2.38 2.38 0 00-.962-1.1c-.426-.258-.957-.387-1.593-.387h-1.572v6.412zm6.927.876v-6.123h.938v6.123h-.938zm.477-7.144a.663.663 0 01-.472-.188.602.602 0 01-.195-.45c0-.176.065-.326.195-.451a.662.662 0 01.472-.187c.183 0 .339.062.469.187a.6.6 0 01.199.451.599.599 0 01-.199.45.652.652 0 01-.469.188zm4.895 1.021v.797h-3.29v-.797h3.29zm-2.304 6.123v-6.969c0-.351.082-.643.246-.877a1.53 1.53 0 01.64-.527c.262-.117.539-.175.83-.175a2.15 2.15 0 01.89.16l-.27.814a3.554 3.554 0 00-.199-.06 1.155 1.155 0 00-.326-.037c-.309 0-.533.079-.671.236-.135.156-.202.386-.202.689v6.746h-.938zm6.335-6.123v.797h-3.289v-.797h3.289zm-2.303 6.123v-6.969c0-.351.082-.643.246-.877.164-.234.377-.41.639-.527.262-.117.539-.175.83-.175.231 0 .418.019.565.056.145.037.253.072.325.104l-.27.814a3.554 3.554 0 00-.199-.06 1.147 1.147 0 00-.325-.037c-.311 0-.534.079-.671.236-.136.156-.204.386-.204.689v6.746h-.936zm3.617 0v-6.123h.937v6.123h-.937zm.477-7.144a.667.667 0 01-.473-.188.606.606 0 01-.195-.45c0-.176.066-.326.195-.451a.666.666 0 01.473-.187c.183 0 .339.062.469.187a.599.599 0 01.198.451.598.598 0 01-.198.45.652.652 0 01-.469.188zm4.656 7.273c-.571 0-1.064-.136-1.477-.407a2.66 2.66 0 01-.954-1.121c-.222-.476-.334-1.019-.334-1.63 0-.622.115-1.172.342-1.647.231-.479.551-.852.961-1.121.413-.271.895-.407 1.446-.407.429 0 .816.081 1.161.24.344.16.625.382.845.67.22.287.357.622.41 1.005h-.938a1.457 1.457 0 00-.476-.742c-.244-.218-.573-.327-.986-.327a1.64 1.64 0 00-.961.287 1.86 1.86 0 00-.639.801c-.151.344-.227.746-.227 1.208 0 .474.075.885.223 1.236.151.351.362.624.636.818.275.194.598.291.968.291.244 0 .465-.042.664-.127.198-.086.366-.208.504-.367.138-.16.236-.351.294-.575h.938a2.18 2.18 0 01-1.216 1.663 2.646 2.646 0 01-1.184.252zm7.615-2.632v-3.62h.938v6.123h-.938v-1.036h-.063a2 2 0 01-.668.793c-.302.215-.683.323-1.143.323-.382 0-.721-.083-1.017-.251a1.757 1.757 0 01-.7-.765c-.169-.343-.254-.775-.254-1.296v-3.891h.938v3.827c0 .447.125.803.374 1.069.25.266.571.398.961.398.233 0 .47-.059.711-.179.243-.12.447-.303.612-.55.166-.247.249-.563.249-.945zm3.593-5.662v8.165h-.938v-8.165h.938zm4.37 2.042v.797h-3.162v-.797h3.162zm-2.24-1.467h.938v5.836c0 .266.038.465.115.598a.593.593 0 00.302.264c.124.042.255.063.393.063.103 0 .188-.005.254-.015.067-.014.119-.025.159-.032l.191.845a2.08 2.08 0 01-.699.111c-.266 0-.525-.057-.779-.171a1.543 1.543 0 01-.628-.522c-.164-.234-.246-.529-.246-.885v-6.092zM64.29 326.683v-8.165h4.878v.876h-3.893v2.76h3.528v.877h-3.528v3.652h-.985zm6.373 0v-6.124h.906v.925h.063c.112-.304.313-.549.604-.738a1.77 1.77 0 01.985-.283c.07 0 .155.002.259.004.103.003.181.007.234.012v.957a2.769 2.769 0 00-.218-.036 2.211 2.211 0 00-.354-.028 1.67 1.67 0 00-.795.187 1.377 1.377 0 00-.747 1.248v3.876h-.937zm6.535.128c-.588 0-1.095-.131-1.522-.391a2.62 2.62 0 01-.98-1.1c-.229-.474-.343-1.024-.343-1.651 0-.628.114-1.181.342-1.659.23-.481.551-.856.962-1.124.413-.272.895-.407 1.446-.407.317 0 .631.053.94.16.31.106.593.279.847.518.254.237.457.55.608.941.15.39.226.871.226 1.443v.399h-4.703v-.813h3.75a2.02 2.02 0 00-.207-.926 1.575 1.575 0 00-.58-.642 1.626 1.626 0 00-.881-.234 1.68 1.68 0 00-.97.278c-.27.184-.478.423-.623.718a2.12 2.12 0 00-.219.949v.542c0 .463.08.855.238 1.177.162.319.386.562.672.729.286.165.618.247.997.247.246 0 .469-.034.667-.104a1.39 1.39 0 00.52-.319 1.44 1.44 0 00.338-.534l.906.256a2.018 2.018 0 01-.48.813 2.329 2.329 0 01-.835.542 3.075 3.075 0 01-1.116.192zm8.116 2.169v-3.238h-.08a6.209 6.209 0 01-.294.423 1.756 1.756 0 01-.544.451c-.236.13-.55.195-.942.195a2.38 2.38 0 01-1.346-.387c-.39-.26-.694-.627-.914-1.101-.22-.476-.33-1.037-.33-1.687 0-.642.11-1.201.33-1.673.22-.474.526-.84.918-1.097a2.414 2.414 0 011.358-.387c.398 0 .711.066.942.2.233.13.41.279.532.446.124.165.221.301.29.406h.111v-.972h.906v8.421h-.938zm-1.732-3.015c.376 0 .693-.098.953-.294.26-.2.457-.475.592-.826.135-.353.203-.761.203-1.224 0-.457-.067-.857-.2-1.2a1.744 1.744 0 00-.587-.806c-.26-.193-.58-.29-.961-.29-.398 0-.729.101-.994.306-.262.203-.46.478-.591.826-.13.345-.195.733-.195 1.164 0 .436.066.832.198 1.188.135.354.334.635.596.846.265.206.594.31.986.31zm8.23-1.786v-3.62h.938v6.124h-.938v-1.037h-.063a2.002 2.002 0 01-.667.794c-.302.215-.684.322-1.145.322-.38 0-.72-.083-1.016-.25a1.764 1.764 0 01-.7-.766c-.17-.343-.254-.774-.254-1.296v-3.891h.938v3.828c0 .446.124.803.373 1.068.252.266.572.399.961.399.233 0 .47-.06.712-.18a1.55 1.55 0 00.611-.55c.167-.247.25-.562.25-.945zm5.213 2.632c-.588 0-1.095-.131-1.521-.391a2.62 2.62 0 01-.981-1.1c-.228-.474-.342-1.024-.342-1.651 0-.628.114-1.181.342-1.659.23-.481.55-.856.961-1.124.413-.272.895-.407 1.446-.407.318 0 .632.053.941.16.31.106.592.279.847.518.254.237.456.55.607.941.151.39.227.871.227 1.443v.399h-4.704v-.813h3.75a2.02 2.02 0 00-.206-.926 1.575 1.575 0 00-.58-.642 1.626 1.626 0 00-.882-.234 1.68 1.68 0 00-.97.278 1.84 1.84 0 00-.623.718 2.12 2.12 0 00-.219.949v.542c0 .463.08.855.239 1.177.161.319.385.562.671.729.286.165.619.247.997.247.247 0 .47-.034.668-.104.201-.071.374-.177.52-.319a1.44 1.44 0 00.338-.534l.905.256a2.017 2.017 0 01-.48.813 2.329 2.329 0 01-.834.542 3.075 3.075 0 01-1.117.192zm4.89-3.812v3.684h-.937v-6.124h.906v.956h.079c.143-.31.36-.56.652-.749.291-.191.667-.287 1.128-.287.413 0 .774.085 1.084.255.31.168.551.423.723.765.172.341.258.771.258 1.293v3.891h-.937v-3.828c0-.481-.124-.856-.373-1.123-.249-.272-.591-.407-1.025-.407-.3 0-.567.064-.803.195-.233.13-.417.32-.552.57-.135.25-.203.553-.203.909zm8.26-2.44v.797h-3.162v-.797h3.162zm-2.24-1.467h.937v5.837c0 .265.039.465.115.597.08.131.18.218.302.264.125.042.256.064.394.064.103 0 .188-.006.254-.016l.159-.032.19.845a1.994 1.994 0 01-.699.111c-.265 0-.524-.057-.778-.171a1.543 1.543 0 01-.628-.522c-.164-.234-.246-.528-.246-.885v-6.092zm-20.34-277.78v-8.165h2.75c.635 0 1.157.108 1.564.326.408.216.71.512.906.89.196.377.294.806.294 1.287 0 .482-.098.908-.294 1.28a2.075 2.075 0 01-.902.877c-.405.21-.922.315-1.553.315h-2.224v-.893h2.192c.435 0 .784-.064 1.05-.191.267-.128.46-.308.58-.542a1.84 1.84 0 00.182-.846 1.9 1.9 0 00-.183-.857 1.247 1.247 0 00-.584-.566c-.267-.136-.62-.203-1.06-.203H88.58v7.288h-.985zm3.83-3.668l2.002 3.668h-1.144l-1.97-3.668h1.112zm4.994 3.812c-.386 0-.737-.074-1.052-.22a1.808 1.808 0 01-.751-.642c-.186-.281-.278-.622-.278-1.02 0-.351.069-.636.206-.853a1.46 1.46 0 01.552-.519c.23-.125.485-.218.763-.279.28-.064.563-.114.846-.151.37-.048.672-.084.902-.108.233-.027.402-.07.508-.132.109-.06.163-.167.163-.319v-.032c0-.393-.107-.699-.322-.917-.211-.218-.533-.327-.965-.327-.447 0-.798.099-1.052.296-.255.196-.433.406-.537.63l-.89-.32c.16-.372.371-.661.636-.869.267-.21.559-.356.874-.438.318-.085.63-.128.937-.128.196 0 .421.024.676.072.257.045.504.14.743.283.24.143.44.36.6.65.158.29.238.678.238 1.164v4.035h-.938v-.83h-.047c-.064.134-.17.276-.318.427a1.83 1.83 0 01-.592.387c-.246.106-.547.16-.902.16zm.143-.846c.37 0 .683-.073.938-.219a1.491 1.491 0 00.778-1.296v-.861c-.04.048-.127.092-.262.132a4.67 4.67 0 01-.46.1 20.446 20.446 0 01-.898.119 3.576 3.576 0 00-.684.155 1.18 1.18 0 00-.508.315c-.127.139-.19.327-.19.566 0 .328.12.575.36.742.244.165.553.247.926.247zm4.365.702v-6.124h.906v.925h.063a1.47 1.47 0 01.604-.738c.291-.188.62-.283.985-.283.069 0 .155.002.258.004.104.003.182.007.235.012v.957a2.875 2.875 0 00-.219-.036 2.139 2.139 0 00-.353-.028c-.297 0-.562.063-.795.188-.23.122-.413.292-.548.51a1.384 1.384 0 00-.199.738v3.875h-.937zm6.535.128c-.588 0-1.095-.13-1.522-.391a2.615 2.615 0 01-.981-1.1c-.228-.474-.342-1.024-.342-1.651 0-.628.114-1.18.342-1.659.23-.481.551-.856.961-1.124.413-.271.895-.407 1.446-.407.318 0 .632.053.942.16.31.106.592.279.846.518.254.236.457.55.608.94.151.392.226.873.226 1.444v.399h-4.703v-.813h3.75a2.01 2.01 0 00-.207-.925 1.557 1.557 0 00-.58-.642 1.62 1.62 0 00-.882-.236c-.373 0-.696.093-.969.28-.27.183-.478.422-.624.717a2.123 2.123 0 00-.218.95v.541c0 .463.079.855.238 1.177.162.319.386.562.672.73.286.164.618.246.997.246.246 0 .468-.034.667-.103.201-.072.375-.178.52-.32.146-.143.259-.32.338-.533l.906.255c-.096.308-.256.58-.481.813a2.34 2.34 0 01-.834.542 3.084 3.084 0 01-1.116.192zm20.006 304.382a1.254 1.254 0 00-.58-.941c-.339-.223-.755-.335-1.247-.335-.36 0-.675.059-.946.176a1.509 1.509 0 00-.627.482 1.158 1.158 0 00-.223.698 1 1 0 00.155.562c.106.155.241.283.405.387.165.101.337.185.517.251.18.064.345.115.496.156l.827.222c.212.057.447.133.707.232.262.099.512.232.751.403.241.167.439.382.595.645.157.264.235.587.235.97 0 .44-.115.84-.346 1.195-.228.357-.561.639-1.001.85-.437.21-.968.315-1.593.315-.582 0-1.087-.094-1.513-.283a2.407 2.407 0 01-1.001-.79 2.263 2.263 0 01-.41-1.176h1.017c.027.309.13.563.31.765.183.2.413.348.691.448.281.095.583.143.906.143.376 0 .714-.061 1.013-.184.299-.125.536-.297.711-.518.175-.224.262-.484.262-.781 0-.272-.075-.492-.226-.663a1.674 1.674 0 00-.596-.414 6.314 6.314 0 00-.798-.279l-1.001-.287c-.636-.184-1.139-.446-1.51-.785-.371-.341-.556-.786-.556-1.336 0-.458.123-.856.369-1.196a2.46 2.46 0 011.001-.798 3.379 3.379 0 011.411-.286c.524 0 .99.093 1.398.282.408.186.731.442.969.765.241.325.368.693.382 1.105h-.954zm2.557 6.124v-6.124h.938v6.124h-.938zm.477-7.144a.667.667 0 01-.473-.188.606.606 0 01-.194-.45c0-.176.065-.326.194-.451a.667.667 0 01.473-.188c.183 0 .339.063.469.188a.6.6 0 01.199.451.6.6 0 01-.199.45.652.652 0 01-.469.188zm2.178 7.144v-6.124h.906v.957h.079c.128-.327.333-.58.616-.762.284-.183.624-.275 1.021-.275.403 0 .737.092 1.005.275.27.182.481.435.632.762h.063c.156-.317.391-.567.703-.754.312-.189.687-.283 1.124-.283.546 0 .992.172 1.339.515.347.34.52.871.52 1.59v4.099h-.937v-4.099c0-.451-.123-.775-.37-.968a1.363 1.363 0 00-.87-.291c-.428 0-.761.13-.996.39-.236.258-.354.585-.354.981v3.987h-.953v-4.194c0-.348-.113-.629-.338-.841-.225-.216-.515-.323-.87-.323-.243 0-.472.064-.683.195-.209.13-.379.311-.508.542a1.597 1.597 0 00-.192.793v3.828h-.937zm9.723 2.297v-8.421h.906v.973h.111c.069-.106.164-.242.286-.407.124-.167.302-.316.532-.446.233-.134.548-.2.945-.2.514 0 .967.129 1.358.387.393.258.699.623.919 1.097.22.472.33 1.031.33 1.674 0 .649-.11 1.21-.33 1.687-.22.473-.525.84-.914 1.1-.39.258-.838.387-1.347.387-.391 0-.706-.065-.941-.195a1.765 1.765 0 01-.545-.451 5.943 5.943 0 01-.293-.423h-.08v3.238h-.937zm.921-5.359c0 .463.068.871.203 1.225.135.35.333.626.592.825.259.196.577.295.953.295.392 0 .719-.104.981-.311a1.92 1.92 0 00.597-.846c.134-.355.202-.752.202-1.188 0-.431-.066-.819-.199-1.164a1.792 1.792 0 00-.592-.825c-.262-.205-.592-.307-.989-.307-.381 0-.702.097-.961.291-.26.191-.456.459-.588.805a3.33 3.33 0 00-.199 1.2zm6.833-5.103v8.165h-.937v-8.165h.937zm4.276 8.293c-.589 0-1.096-.131-1.522-.391a2.61 2.61 0 01-.981-1.1c-.228-.473-.342-1.024-.342-1.651s.114-1.18.342-1.658c.23-.481.551-.857.961-1.125.413-.271.895-.407 1.446-.407.317 0 .632.053.941.16.311.107.592.279.847.518.254.237.456.55.607.942.151.39.227.871.227 1.442v.399h-4.704v-.813h3.75c0-.345-.069-.654-.206-.926a1.565 1.565 0 00-.581-.641 1.613 1.613 0 00-.881-.235 1.67 1.67 0 00-.969.279c-.27.183-.478.422-.624.717a2.116 2.116 0 00-.219.949v.543c0 .462.08.854.239 1.176.161.319.385.562.671.73.286.164.618.247.998.247.246 0 .468-.035.667-.104.2-.071.375-.178.52-.319.146-.144.258-.321.338-.535l.906.256a2.033 2.033 0 01-.481.813 2.342 2.342 0 01-.835.543c-.33.127-.702.191-1.115.191zm348.599-161.678a.936.936 0 000-1.323l-5.933-5.955a.928.928 0 00-1.318 0 .938.938 0 000 1.323l5.274 5.293-5.274 5.293a.938.938 0 000 1.323.928.928 0 001.318 0l5.933-5.954zm-45.405.274h44.746v-1.872h-44.746v1.872z" fill="#646470"/><path d="M588.135 48.798c36.727 0 73.092 7.26 107.022 21.366a279.62 279.62 0 0190.729 60.847 280.79 280.79 0 0160.623 91.063 281.603 281.603 0 0121.288 107.417H588.135V48.798z" fill="#E5EFFD"/><path d="M588.135 142.361c24.484 0 48.729 4.84 71.349 14.245a186.403 186.403 0 0160.485 40.564 187.161 187.161 0 0140.415 60.709 187.721 187.721 0 0114.192 71.611H588.135V142.361z" fill="#8BB8F5"/><path d="M588.135 235.926a92.92 92.92 0 0135.674 7.122 93.213 93.213 0 0130.244 20.282 93.592 93.592 0 0120.207 30.355 93.873 93.873 0 017.096 35.805h-93.221v-93.564z" fill="#2F80ED"/><path d="M588.136 30.085l-2.692 4.678h5.383l-2.691-4.678zm0 299.406h-.466v.468h.466v-.468zm298.305 0l-4.661-2.701v5.402l4.661-2.701zM587.67 34.295v295.196h.932V34.295h-.932zm.466 295.664h294.11v-.936h-294.11v.936zm260.784 21.987h-2.511v-8.165h2.622c.789 0 1.464.164 2.026.49a3.21 3.21 0 011.291 1.4c.299.605.449 1.332.449 2.176 0 .852-.151 1.584-.453 2.197a3.231 3.231 0 01-1.319 1.412c-.578.327-1.279.49-2.105.49zm-1.525-.876h1.461c.672 0 1.23-.131 1.673-.391.441-.26.771-.632.989-1.113.217-.481.325-1.053.325-1.719 0-.658-.107-1.226-.322-1.702a2.373 2.373 0 00-.961-1.1c-.426-.258-.957-.387-1.593-.387h-1.572v6.412zm6.927.876v-6.123h.938v6.123h-.938zm.477-7.144a.667.667 0 01-.473-.188.605.605 0 01-.194-.45c0-.176.065-.326.194-.451a.666.666 0 01.473-.187c.183 0 .338.062.469.187a.599.599 0 01.198.451.598.598 0 01-.198.45.654.654 0 01-.469.188zm4.895 1.021v.797h-3.29v-.797h3.29zm-2.304 6.123v-6.969c0-.351.082-.643.246-.877a1.53 1.53 0 01.64-.527c.262-.117.539-.175.83-.175a2.15 2.15 0 01.89.16l-.27.814a3.554 3.554 0 00-.199-.06 1.155 1.155 0 00-.326-.037c-.31 0-.533.079-.671.236-.135.156-.203.386-.203.689v6.746h-.937zm6.335-6.123v.797h-3.289v-.797h3.289zm-2.304 6.123v-6.969c0-.351.082-.643.246-.877.165-.234.378-.41.64-.527.262-.117.539-.175.83-.175.231 0 .418.019.565.056.145.037.253.072.325.104l-.27.814a3.554 3.554 0 00-.199-.06 1.147 1.147 0 00-.325-.037c-.311 0-.535.079-.672.236-.135.156-.203.386-.203.689v6.746h-.937zm3.618 0v-6.123h.937v6.123h-.937zm.477-7.144a.665.665 0 01-.473-.188.602.602 0 01-.195-.45c0-.176.065-.326.195-.451a.664.664 0 01.473-.187c.182 0 .339.062.469.187a.599.599 0 01.198.451.598.598 0 01-.198.45.654.654 0 01-.469.188zm4.656 7.273c-.571 0-1.065-.136-1.478-.407a2.657 2.657 0 01-.953-1.121c-.222-.476-.334-1.019-.334-1.63 0-.622.115-1.172.342-1.647.23-.479.551-.852.961-1.121.413-.271.895-.407 1.446-.407.429 0 .816.081 1.161.24.344.16.625.382.845.67.22.287.356.622.409 1.005h-.937a1.459 1.459 0 00-.477-.742c-.243-.218-.572-.327-.985-.327a1.64 1.64 0 00-.961.287 1.868 1.868 0 00-.64.801c-.151.344-.226.746-.226 1.208 0 .474.074.885.223 1.236.151.351.362.624.635.818.275.194.599.291.969.291.244 0 .465-.042.664-.127.198-.086.366-.208.504-.367.138-.16.236-.351.294-.575h.937a2.18 2.18 0 01-1.215 1.663 2.65 2.65 0 01-1.184.252zm7.615-2.632v-3.62h.938v6.123h-.938v-1.036h-.063a2.007 2.007 0 01-.668.793c-.302.215-.683.323-1.144.323-.381 0-.72-.083-1.017-.251a1.761 1.761 0 01-.699-.765c-.169-.343-.254-.775-.254-1.296v-3.891h.938v3.827c0 .447.125.803.373 1.069.251.266.572.398.962.398.233 0 .469-.059.711-.179.243-.12.447-.303.611-.55.167-.247.25-.563.25-.945zm3.593-5.662v8.165h-.938v-8.165h.938zm4.37 2.042v.797h-3.162v-.797h3.162zm-2.24-1.467h.938v5.836c0 .266.038.465.114.598.08.131.18.218.302.264.124.042.256.063.394.063.103 0 .188-.005.254-.015.067-.014.119-.025.159-.032l.191.845a2.08 2.08 0 01-.699.111 1.89 1.89 0 01-.78-.171 1.547 1.547 0 01-.627-.522c-.164-.234-.246-.529-.246-.885v-6.092zm-353.118-17.673v-8.165h4.878v.876h-3.893v2.76h3.528v.877h-3.528v3.652h-.985zm6.373 0v-6.124h.906v.925h.063c.111-.304.312-.549.604-.738.291-.189.619-.283.985-.283.069 0 .155.002.258.004.103.003.182.007.235.012v.957a2.803 2.803 0 00-.219-.036 2.209 2.209 0 00-.354-.028c-.296 0-.561.063-.794.187-.23.123-.413.293-.548.511a1.381 1.381 0 00-.199.737v3.876h-.937zm6.534.128c-.588 0-1.095-.131-1.521-.391a2.63 2.63 0 01-.982-1.1c-.227-.474-.341-1.024-.341-1.651 0-.628.114-1.181.341-1.659.232-.481.551-.856.962-1.124.413-.272.895-.407 1.446-.407.318 0 .631.053.942.16.309.106.592.279.845.518.255.237.457.55.608.941.151.39.227.871.227 1.443v.399h-4.703v-.813h3.75c0-.346-.069-.654-.207-.926a1.572 1.572 0 00-.58-.642 1.627 1.627 0 00-.882-.234c-.374 0-.696.092-.969.278a1.836 1.836 0 00-.624.718 2.128 2.128 0 00-.218.949v.542c0 .463.079.855.238 1.177.162.319.386.562.671.729.286.165.619.247.997.247.246 0 .469-.034.668-.104.201-.071.375-.177.52-.319.145-.143.258-.321.337-.534l.907.256a2.028 2.028 0 01-.481.813 2.322 2.322 0 01-.835.542 3.074 3.074 0 01-1.116.192zm8.116 2.169v-3.238h-.079a5.97 5.97 0 01-.295.423 1.744 1.744 0 01-.543.451c-.236.13-.55.195-.942.195-.509 0-.957-.129-1.347-.387-.389-.26-.693-.627-.913-1.101-.22-.476-.33-1.037-.33-1.687 0-.642.11-1.201.33-1.673.22-.474.526-.84.917-1.097a2.418 2.418 0 011.359-.387c.397 0 .711.066.942.2.233.13.41.279.532.446.124.165.221.301.29.406h.111v-.972h.906v8.421h-.938zm-1.732-3.015c.376 0 .694-.098.954-.294.259-.2.457-.475.592-.826.135-.353.202-.761.202-1.224 0-.457-.066-.857-.199-1.2a1.738 1.738 0 00-.588-.806c-.259-.193-.58-.29-.961-.29-.397 0-.728.101-.993.306a1.845 1.845 0 00-.592.826 3.304 3.304 0 00-.194 1.164c0 .436.066.832.198 1.188.135.354.334.635.596.846.264.206.594.31.985.31zm8.231-1.786v-3.62h.937v6.124h-.937v-1.037h-.064a1.998 1.998 0 01-.666.794c-.302.215-.684.322-1.145.322-.381 0-.72-.083-1.017-.25a1.757 1.757 0 01-.699-.766c-.169-.343-.254-.774-.254-1.296v-3.891h.937v3.828c0 .446.125.803.374 1.068.251.266.571.399.961.399.233 0 .47-.06.711-.18.243-.119.448-.303.612-.55.167-.247.25-.562.25-.945zm5.213 2.632c-.588 0-1.095-.131-1.522-.391a2.629 2.629 0 01-.981-1.1c-.227-.474-.342-1.024-.342-1.651 0-.628.115-1.181.342-1.659.231-.481.551-.856.961-1.124.413-.272.895-.407 1.446-.407.318 0 .632.053.942.16.31.106.592.279.846.518.255.237.457.55.608.941.151.39.227.871.227 1.443v.399h-4.704v-.813h3.75c0-.346-.069-.654-.207-.926a1.565 1.565 0 00-.58-.642 1.624 1.624 0 00-.882-.234c-.373 0-.696.092-.968.278a1.836 1.836 0 00-.624.718 2.116 2.116 0 00-.219.949v.542c0 .463.079.855.239 1.177.161.319.385.562.671.729.286.165.618.247.997.247a2 2 0 00.667-.104 1.41 1.41 0 00.521-.319c.145-.143.258-.321.337-.534l.907.256a2.04 2.04 0 01-.481.813 2.34 2.34 0 01-.835.542 3.074 3.074 0 01-1.116.192zm4.89-3.812v3.684h-.937v-6.124h.905v.956h.079c.144-.31.361-.56.652-.749.292-.191.667-.287 1.129-.287.413 0 .774.085 1.084.255.309.168.551.423.722.765.173.341.259.771.259 1.293v3.891h-.937v-3.828c0-.481-.125-.856-.374-1.123-.249-.272-.59-.407-1.025-.407-.299 0-.566.064-.802.195-.233.13-.417.32-.552.57-.135.25-.203.553-.203.909zm8.26-2.44v.797h-3.162v-.797h3.162zm-2.241-1.467h.938v5.837c0 .265.038.465.115.597.08.131.18.218.301.264.125.042.257.064.394.064.103 0 .188-.006.254-.016l.16-.032.19.845a1.994 1.994 0 01-.699.111 1.89 1.89 0 01-.779-.171 1.547 1.547 0 01-.627-.522c-.165-.234-.247-.528-.247-.885v-6.092zm-20.339-277.78v-8.165h2.749c.636 0 1.157.108 1.565.326.408.216.71.512.906.89.195.377.294.806.294 1.287 0 .482-.099.908-.294 1.28a2.072 2.072 0 01-.902.877c-.405.21-.923.315-1.553.315h-2.225v-.893h2.193c.435 0 .784-.064 1.049-.191.268-.128.461-.308.58-.542a1.84 1.84 0 00.183-.846c0-.327-.062-.612-.183-.857a1.248 1.248 0 00-.585-.566c-.267-.136-.62-.203-1.06-.203h-1.732v7.288h-.985zm3.83-3.668l2.001 3.668h-1.144l-1.97-3.668h1.113zm4.993 3.812a2.47 2.47 0 01-1.052-.22 1.804 1.804 0 01-.75-.642c-.186-.281-.279-.622-.279-1.02 0-.351.069-.636.207-.853.138-.221.321-.394.552-.519a2.88 2.88 0 01.763-.279c.281-.064.562-.114.846-.151.371-.048.671-.084.902-.108.233-.027.402-.07.508-.132.108-.06.163-.167.163-.319v-.032c0-.393-.107-.699-.321-.917-.213-.218-.535-.327-.966-.327-.448 0-.799.099-1.053.296-.254.196-.433.406-.537.63l-.889-.32c.159-.372.371-.661.636-.869.267-.21.558-.356.873-.438a3.62 3.62 0 01.938-.128c.196 0 .421.024.675.072.257.045.505.14.743.283.241.143.441.36.6.65.159.29.238.678.238 1.164v4.035h-.937v-.83h-.047c-.065.134-.17.276-.318.427-.148.152-.346.28-.592.387-.247.106-.547.16-.903.16zm.144-.846c.371 0 .683-.073.937-.219a1.5 1.5 0 00.581-.566 1.45 1.45 0 00.198-.73v-.861c-.04.048-.128.092-.263.132-.132.037-.285.07-.46.1a20.548 20.548 0 01-.898.119 3.57 3.57 0 00-.683.155 1.18 1.18 0 00-.508.315c-.128.139-.191.327-.191.566 0 .328.12.575.361.742.244.165.552.247.926.247zm4.365.702v-6.124h.906v.925h.063a1.47 1.47 0 01.603-.738c.292-.188.62-.283.986-.283.069 0 .154.002.258.004.103.003.182.007.235.012v.957a2.972 2.972 0 00-.219-.036 2.142 2.142 0 00-.354-.028c-.296 0-.561.063-.794.188-.23.122-.413.292-.548.51a1.384 1.384 0 00-.199.738v3.875h-.937zm6.534.128c-.588 0-1.095-.13-1.521-.391a2.623 2.623 0 01-.982-1.1c-.227-.474-.341-1.024-.341-1.651 0-.628.114-1.18.341-1.659.231-.481.551-.856.961-1.124.414-.271.896-.407 1.447-.407.318 0 .631.053.942.16.309.106.592.279.845.518.255.236.457.55.608.94.151.392.227.873.227 1.444v.399h-4.703v-.813h3.749a2.01 2.01 0 00-.206-.925 1.557 1.557 0 00-.58-.642 1.62 1.62 0 00-.882-.236c-.374 0-.697.093-.969.28a1.83 1.83 0 00-.624.717 2.124 2.124 0 00-.219.95v.541c0 .463.08.855.239 1.177.161.319.385.562.671.73.286.164.619.246.997.246.246 0 .469-.034.668-.103.201-.072.375-.178.52-.32.145-.143.258-.32.337-.533l.907.255c-.096.308-.256.58-.481.813a2.344 2.344 0 01-.835.542 3.084 3.084 0 01-1.116.192zm20.007 304.382a1.254 1.254 0 00-.58-.941c-.339-.223-.754-.335-1.248-.335-.359 0-.675.059-.945.176a1.509 1.509 0 00-.627.482 1.164 1.164 0 00-.223.698 1 1 0 00.155.562c.106.155.241.283.405.387.164.101.337.185.517.251.18.064.346.115.497.156l.826.222c.211.057.447.133.707.232.262.099.512.232.75.403.241.167.44.382.596.645.157.264.235.587.235.97 0 .44-.116.84-.346 1.195-.227.357-.561.639-1.001.85-.437.21-.968.315-1.593.315-.583 0-1.087-.094-1.513-.283a2.407 2.407 0 01-1.001-.79 2.254 2.254 0 01-.41-1.176h1.018c.026.309.129.563.309.765.183.2.413.348.692.448a2.8 2.8 0 00.905.143c.376 0 .714-.061 1.013-.184.299-.125.536-.297.711-.518.175-.224.262-.484.262-.781 0-.272-.075-.492-.226-.663a1.674 1.674 0 00-.596-.414 6.33 6.33 0 00-.799-.279l-1.001-.287c-.635-.184-1.138-.446-1.509-.785-.371-.341-.557-.786-.557-1.336 0-.458.124-.856.37-1.196a2.457 2.457 0 011.002-.798 3.37 3.37 0 011.409-.286c.525 0 .991.093 1.398.282.409.186.732.442.97.765.241.325.368.693.381 1.105h-.953zm2.557 6.124v-6.124h.937v6.124h-.937zm.477-7.144a.667.667 0 01-.473-.188.607.607 0 01-.195-.45c0-.176.066-.326.195-.451a.667.667 0 01.473-.188c.183 0 .339.063.469.188a.599.599 0 01.198.451.6.6 0 01-.198.45.652.652 0 01-.469.188zm2.177 7.144v-6.124h.907v.957h.079c.128-.327.333-.58.616-.762.283-.183.624-.275 1.021-.275.402 0 .737.092 1.005.275.27.182.481.435.632.762h.063c.156-.317.391-.567.703-.754.312-.189.687-.283 1.124-.283.546 0 .992.172 1.339.515.347.34.52.871.52 1.59v4.099h-.937v-4.099c0-.451-.123-.775-.37-.968a1.363 1.363 0 00-.87-.291c-.428 0-.761.13-.996.39-.236.258-.354.585-.354.981v3.987h-.953v-4.194c0-.348-.113-.629-.339-.841-.224-.216-.514-.323-.869-.323-.244 0-.472.064-.684.195-.208.13-.378.311-.508.542a1.607 1.607 0 00-.191.793v3.828h-.938zm9.723 2.297v-8.421h.906v.973h.111c.069-.106.164-.242.287-.407.124-.167.302-.316.532-.446.233-.134.548-.2.945-.2.514 0 .967.129 1.358.387.393.258.699.623.919 1.097.22.472.33 1.031.33 1.674 0 .649-.11 1.21-.33 1.687-.22.473-.525.84-.914 1.1-.39.258-.838.387-1.347.387-.392 0-.706-.065-.942-.195a1.773 1.773 0 01-.544-.451 6.009 6.009 0 01-.294-.423h-.079v3.238h-.938zm.922-5.359c0 .463.067.871.203 1.225.135.35.332.626.592.825.259.196.577.295.953.295.392 0 .719-.104.981-.311a1.91 1.91 0 00.596-.846c.135-.355.203-.752.203-1.188 0-.431-.066-.819-.199-1.164a1.792 1.792 0 00-.592-.825c-.262-.205-.592-.307-.989-.307-.381 0-.702.097-.961.291-.26.191-.456.459-.588.805-.133.343-.199.743-.199 1.2zm6.832-5.103v8.165h-.936v-8.165h.936zm4.276 8.293c-.588 0-1.095-.131-1.521-.391a2.618 2.618 0 01-.982-1.1c-.227-.473-.342-1.024-.342-1.651s.115-1.18.342-1.658c.231-.481.551-.857.962-1.125.413-.271.894-.407 1.445-.407.318 0 .632.053.942.16.31.107.592.279.846.518.255.237.457.55.608.942.151.39.227.871.227 1.442v.399h-4.704v-.813h3.75c0-.345-.069-.654-.206-.926a1.565 1.565 0 00-.581-.641 1.616 1.616 0 00-.882-.235c-.372 0-.696.092-.968.279-.27.183-.478.422-.624.717a2.116 2.116 0 00-.219.949v.543c0 .462.079.854.239 1.176.161.319.385.562.671.73.286.164.618.247.997.247.247 0 .468-.035.668-.104.2-.071.375-.178.52-.319.145-.144.258-.321.338-.535l.906.256a2.033 2.033 0 01-.481.813 2.342 2.342 0 01-.835.543 3.095 3.095 0 01-1.116.191z" fill="#646470"/><path d="M609.079 306.865v9.527h-1.15v-9.527h1.15zm5.047 9.676c-.667 0-1.241-.158-1.723-.475a3.083 3.083 0 01-1.112-1.307c-.26-.555-.39-1.189-.39-1.902 0-.726.133-1.366.399-1.922a3.163 3.163 0 011.121-1.307c.482-.316 1.044-.474 1.687-.474.5 0 .952.093 1.353.28.402.186.731.446.988.781.256.335.415.725.477 1.172h-1.094a1.706 1.706 0 00-.556-.865c-.285-.255-.668-.382-1.15-.382-.426 0-.799.112-1.121.335a2.183 2.183 0 00-.746.936c-.176.399-.265.869-.265 1.409 0 .552.087 1.033.261 1.441.176.41.423.727.741.954.321.226.698.34 1.13.34.285 0 .543-.05.774-.149a1.589 1.589 0 00.932-1.098h1.094a2.552 2.552 0 01-.459 1.14 2.573 2.573 0 01-.959.8c-.395.195-.856.293-1.382.293zm7.291 0c-.643 0-1.207-.154-1.692-.461a3.124 3.124 0 01-1.131-1.288c-.269-.552-.403-1.197-.403-1.935 0-.745.134-1.394.403-1.949a3.114 3.114 0 011.131-1.293c.485-.308 1.049-.461 1.692-.461.642 0 1.205.153 1.686.461a3.06 3.06 0 011.131 1.293c.272.555.409 1.204.409 1.949 0 .738-.137 1.383-.409 1.935a3.07 3.07 0 01-1.131 1.288c-.481.307-1.044.461-1.686.461zm0-.986c.488 0 .889-.126 1.205-.377.315-.251.548-.582.7-.99.151-.41.226-.854.226-1.331 0-.478-.075-.922-.226-1.335a2.251 2.251 0 00-.7-1c-.316-.255-.717-.382-1.205-.382-.488 0-.89.127-1.205.382a2.251 2.251 0 00-.7 1 3.854 3.854 0 00-.227 1.335c0 .477.076.921.227 1.331.152.408.385.739.7.99.315.251.717.377 1.205.377zm5.989-3.461v4.298h-1.094v-7.145h1.056v1.117h.094c.166-.363.419-.654.759-.875.341-.223.779-.335 1.317-.335.482 0 .903.099 1.265.298.361.195.643.493.843.893.202.397.301.899.301 1.507v4.54h-1.093v-4.466c0-.56-.146-.998-.436-1.312-.29-.316-.689-.474-1.195-.474-.35 0-.661.077-.936.228a1.625 1.625 0 00-.645.666c-.157.29-.236.644-.236 1.06zm16.879 4.298v-9.527h3.319c.661 0 1.206.115 1.636.345.428.226.748.532.959.916.21.381.315.805.315 1.27 0 .409-.073.748-.218 1.014a1.702 1.702 0 01-.565.633 2.59 2.59 0 01-.756.344v.093c.291.019.582.121.876.307.294.186.539.453.737.8.197.348.296.773.296 1.275 0 .477-.108.907-.324 1.288-.217.381-.558.684-1.024.907-.467.224-1.074.335-1.821.335h-3.43zm1.149-1.024h2.281c.75 0 1.283-.145 1.598-.437.319-.294.478-.651.478-1.069 0-.323-.083-.62-.246-.894a1.784 1.784 0 00-.7-.66c-.303-.168-.661-.251-1.075-.251h-2.336v3.311zm0-4.316h2.132c.346 0 .658-.068.936-.205.282-.136.504-.328.668-.576.167-.249.25-.54.25-.875 0-.419-.145-.774-.436-1.066-.29-.293-.75-.441-1.38-.441h-2.17v3.163zm11.677 2.419v-4.224h1.094v7.145h-1.094v-1.209h-.074a2.34 2.34 0 01-.779.925c-.352.251-.797.378-1.335.378-.444 0-.84-.099-1.186-.294a2.045 2.045 0 01-.815-.893c-.199-.4-.298-.904-.298-1.512v-4.54h1.095v4.466c0 .52.144.936.435 1.246.294.31.668.465 1.122.465.272 0 .548-.07.829-.209.285-.14.522-.354.714-.642.194-.288.292-.656.292-1.102zm6.193-4.224v.93h-3.689v-.93h3.689zm-2.614-1.712h1.093v6.811c0 .309.045.542.135.697.093.152.21.254.352.308.145.049.298.073.459.073.121 0 .22-.006.297-.018l.185-.038.222.987a2.154 2.154 0 01-.31.084 2.268 2.268 0 01-.505.047c-.309 0-.612-.068-.908-.201a1.819 1.819 0 01-.733-.609c-.191-.273-.287-.617-.287-1.033v-7.108zm7.355 1.712v.93h-3.689v-.93h3.689zm-2.614-1.712h1.094v6.811c0 .309.044.542.135.697a.7.7 0 00.351.308c.146.049.298.073.46.073.12 0 .219-.006.296-.018l.186-.038.222.987a2.212 2.212 0 01-.311.084 2.268 2.268 0 01-.505.047c-.309 0-.612-.068-.908-.201a1.819 1.819 0 01-.733-.609c-.191-.273-.287-.617-.287-1.033v-7.108zm7.075 9.006c-.643 0-1.207-.154-1.691-.461a3.117 3.117 0 01-1.131-1.288c-.27-.552-.404-1.197-.404-1.935 0-.745.134-1.394.404-1.949a3.107 3.107 0 011.131-1.293c.484-.308 1.048-.461 1.691-.461s1.205.153 1.687.461c.485.307.862.737 1.131 1.293.272.555.407 1.204.407 1.949 0 .738-.135 1.383-.407 1.935a3.083 3.083 0 01-1.131 1.288c-.482.307-1.044.461-1.687.461zm0-.986c.488 0 .89-.126 1.205-.377.315-.251.548-.582.7-.99.151-.41.227-.854.227-1.331 0-.478-.076-.922-.227-1.335a2.251 2.251 0 00-.7-1c-.315-.255-.717-.382-1.205-.382-.488 0-.89.127-1.205.382a2.243 2.243 0 00-.7 1 3.831 3.831 0 00-.227 1.335c0 .477.075.921.227 1.331.151.408.385.739.7.99.315.251.717.377 1.205.377zm5.989-3.461v4.298h-1.094v-7.145h1.057v1.117h.092c.167-.363.42-.654.761-.875.339-.223.778-.335 1.316-.335.482 0 .903.099 1.265.298.362.195.642.493.844.893.2.397.301.899.301 1.507v4.54h-1.094v-4.466c0-.56-.145-.998-.436-1.312-.29-.316-.689-.474-1.195-.474-.35 0-.662.077-.937.228a1.629 1.629 0 00-.644.666c-.158.29-.236.644-.236 1.06zm-48.945-84.588h-1.15a2.407 2.407 0 00-.968-1.508 2.607 2.607 0 00-.793-.39 3.144 3.144 0 00-.908-.13c-.575 0-1.095.145-1.562.437-.463.291-.832.721-1.107 1.288-.273.568-.409 1.265-.409 2.089 0 .825.136 1.521.409 2.088.275.568.644.998 1.107 1.29.467.291.987.436 1.562.436.315 0 .618-.043.908-.13.291-.087.555-.216.793-.386a2.436 2.436 0 00.968-1.512h1.15a3.87 3.87 0 01-.473 1.307 3.555 3.555 0 01-1.998 1.592 4.258 4.258 0 01-1.348.208c-.81 0-1.529-.198-2.16-.595-.63-.397-1.126-.961-1.487-1.693-.362-.732-.543-1.6-.543-2.605s.181-1.873.543-2.605c.361-.732.857-1.296 1.487-1.693.631-.397 1.35-.596 2.16-.596.479 0 .929.071 1.348.21.424.139.806.344 1.145.614.34.266.625.592.853.977.228.381.386.816.473 1.307zm2.803 2.251v4.298h-1.095v-9.527h1.095v3.499h.092c.167-.369.418-.663.751-.88.337-.22.784-.33 1.344-.33.485 0 .91.098 1.274.294.366.192.648.488.848.888.205.396.306.903.306 1.516v4.54h-1.093v-4.466c0-.567-.147-1.005-.44-1.316-.291-.313-.694-.47-1.21-.47-.358 0-.68.077-.964.229a1.657 1.657 0 00-.668.665c-.16.291-.24.644-.24 1.06zm9.601 4.447c-.686 0-1.278-.152-1.775-.456a3.057 3.057 0 01-1.145-1.283c-.266-.552-.398-1.194-.398-1.926 0-.733.132-1.377.398-1.936.269-.56.643-.998 1.122-1.312.482-.316 1.044-.474 1.687-.474.371 0 .737.063 1.099.186.36.125.69.326.986.606.297.275.533.641.709 1.097.177.456.265 1.017.265 1.684v.465h-5.488v-.949h4.375c0-.403-.08-.763-.24-1.079a1.83 1.83 0 00-.677-.749 1.89 1.89 0 00-1.029-.275c-.436 0-.812.109-1.131.326a2.133 2.133 0 00-.727.837 2.459 2.459 0 00-.256 1.107v.634c0 .538.094.996.279 1.371.188.373.449.656.783.852.334.192.722.288 1.163.288.288 0 .547-.04.779-.121.235-.083.437-.208.607-.372.169-.168.301-.375.394-.623l1.056.297c-.111.36-.298.677-.56.949-.263.27-.587.481-.973.633a3.601 3.601 0 01-1.303.223zm7.504 0c-.668 0-1.243-.158-1.725-.474a3.095 3.095 0 01-1.112-1.307c-.259-.555-.39-1.19-.39-1.903 0-.726.134-1.366.399-1.921a3.169 3.169 0 011.122-1.308c.482-.316 1.044-.474 1.687-.474.501 0 .952.094 1.353.28.402.186.731.446.987.781s.416.725.477 1.172h-1.093a1.703 1.703 0 00-.556-.865c-.284-.255-.667-.382-1.149-.382a1.93 1.93 0 00-1.123.335 2.194 2.194 0 00-.745.936c-.176.399-.264.869-.264 1.409 0 .552.086 1.033.259 1.442.176.41.423.727.742.953.321.227.698.34 1.131.34.284 0 .541-.05.774-.149a1.59 1.59 0 00.931-1.097h1.093a2.535 2.535 0 01-1.418 1.939c-.395.196-.855.293-1.38.293zm5.417-2.754l-.018-1.358h.222l3.115-3.181h1.353l-3.319 3.367h-.092l-1.261 1.172zm-1.019 2.605v-9.527h1.093v9.527h-1.093zm4.523 0l-2.781-3.535.779-.763 3.392 4.298h-1.39zm2.724 0v-9.527h1.093v3.518h.094c.08-.125.191-.283.333-.475.145-.195.352-.369.621-.521.272-.155.64-.233 1.103-.233.599 0 1.128.151 1.585.452.457.3.814.727 1.071 1.279.256.552.384 1.203.384 1.954 0 .757-.128 1.412-.384 1.967-.257.552-.612.98-1.067 1.284-.454.3-.978.451-1.57.451-.458 0-.824-.076-1.099-.227a2.048 2.048 0 01-.634-.526 6.88 6.88 0 01-.343-.493h-.131v1.097h-1.056zm1.075-3.572c0 .54.079 1.015.237 1.428.157.41.387.73.69.962.303.231.673.345 1.112.345.457 0 .839-.121 1.145-.363a2.22 2.22 0 00.696-.986c.157-.416.235-.877.235-1.386 0-.503-.077-.955-.231-1.359a2.098 2.098 0 00-.691-.962c-.305-.239-.69-.359-1.154-.359-.444 0-.818.113-1.121.34-.303.224-.531.537-.686.94-.155.4-.232.867-.232 1.4zm9.774 3.721c-.642 0-1.206-.153-1.691-.46a3.12 3.12 0 01-1.131-1.289c-.269-.552-.404-1.196-.404-1.935 0-.744.135-1.394.404-1.949a3.113 3.113 0 011.131-1.293c.485-.307 1.049-.461 1.691-.461.643 0 1.205.154 1.687.461.485.307.862.738 1.131 1.293.272.555.408 1.205.408 1.949 0 .739-.136 1.383-.408 1.935a3.086 3.086 0 01-1.131 1.289c-.482.307-1.044.46-1.687.46zm0-.986c.488 0 .89-.126 1.205-.376.315-.252.548-.582.7-.991a3.82 3.82 0 00.227-1.331c0-.478-.076-.922-.227-1.335a2.257 2.257 0 00-.7-1c-.315-.255-.717-.382-1.205-.382-.488 0-.889.127-1.205.382a2.257 2.257 0 00-.7 1 3.854 3.854 0 00-.226 1.335c0 .478.075.921.226 1.331.152.409.385.739.7.991.316.25.717.376 1.205.376zm5.418-6.307l1.706 2.921 1.705-2.921h1.261l-2.299 3.572 2.299 3.572h-1.261l-1.705-2.772-1.706 2.772h-1.26l2.261-3.572-2.261-3.572h1.26zm-55.458-19.989v-9.527h3.207c.742 0 1.351.127 1.826.382.476.251.828.597 1.057 1.038.229.439.343.941.343 1.501 0 .562-.114 1.059-.343 1.494-.229.434-.58.775-1.052 1.023-.473.245-1.077.368-1.812.368h-2.596v-1.042h2.558c.507 0 .915-.074 1.224-.223.313-.149.538-.36.677-.634.142-.276.213-.604.213-.986 0-.381-.071-.714-.213-.999a1.462 1.462 0 00-.681-.661c-.313-.158-.725-.237-1.237-.237h-2.021v8.503h-1.15zm4.468-4.28l2.335 4.28h-1.335l-2.297-4.28h1.297zm5.826 4.447c-.451 0-.86-.085-1.227-.255a2.122 2.122 0 01-.877-.749c-.216-.329-.324-.726-.324-1.191 0-.409.08-.742.242-.995.16-.257.374-.46.644-.606.268-.145.565-.253.889-.325.327-.074.656-.133.987-.177.433-.055.783-.097 1.053-.125.271-.031.469-.083.593-.154.126-.071.19-.195.19-.372v-.037c0-.459-.125-.816-.376-1.07-.247-.255-.623-.382-1.126-.382-.522 0-.931.115-1.228.345-.297.23-.505.474-.626.735l-1.038-.372c.186-.435.433-.772.741-1.015a2.785 2.785 0 011.02-.511c.371-.1.736-.149 1.094-.149.229 0 .491.028.787.084.301.052.589.163.867.33.282.168.515.42.7.758.186.338.278.791.278 1.359v4.707h-1.093v-.968h-.056a1.92 1.92 0 01-.371.498 2.118 2.118 0 01-.69.451c-.288.125-.639.186-1.053.186zm.167-.986c.433 0 .797-.085 1.094-.255a1.737 1.737 0 00.909-1.512v-1.005c-.047.056-.149.107-.306.153a4.775 4.775 0 01-.538.116c-.2.032-.397.059-.588.085-.189.021-.342.04-.46.056a4.13 4.13 0 00-.797.18 1.388 1.388 0 00-.593.368c-.148.162-.222.382-.222.661 0 .381.14.67.422.865.284.192.644.288 1.079.288zm7.781.968c-.593 0-1.117-.151-1.571-.451-.454-.304-.81-.732-1.067-1.284-.256-.555-.384-1.211-.384-1.968 0-.75.128-1.401.384-1.953.257-.552.614-.979 1.071-1.279.457-.302.986-.452 1.585-.452.463 0 .83.077 1.098.233.272.151.479.325.621.521.146.192.258.35.339.474h.093v-3.517h1.093v9.527h-1.056v-1.098h-.13c-.081.13-.194.295-.343.493-.149.196-.36.371-.635.526-.275.152-.641.228-1.098.228zm.148-.986c.439 0 .81-.115 1.112-.345.303-.232.533-.553.691-.963.157-.412.236-.888.236-1.427 0-.534-.077-1.001-.232-1.4-.155-.403-.383-.717-.686-.94-.302-.227-.676-.34-1.121-.34-.464 0-.85.12-1.159.358a2.142 2.142 0 00-.69.963 3.828 3.828 0 00-.227 1.359c0 .509.077.97.232 1.385.157.413.389.742.694.986.31.243.693.364 1.15.364zm5.269.837v-7.145h1.094v7.145h-1.094zm.557-8.336a.778.778 0 01-.552-.219.7.7 0 01-.227-.525c0-.204.075-.379.227-.525a.778.778 0 01.552-.219c.213 0 .395.073.546.219a.696.696 0 01.232.525c0 .204-.077.38-.232.525a.757.757 0 01-.546.219zm5.432 8.485c-.642 0-1.206-.154-1.691-.461a3.117 3.117 0 01-1.131-1.288c-.269-.552-.403-1.197-.403-1.935 0-.745.134-1.394.403-1.949a3.107 3.107 0 011.131-1.293c.485-.308 1.049-.461 1.691-.461.643 0 1.205.153 1.687.461.485.307.863.737 1.131 1.293.272.555.408 1.204.408 1.949 0 .738-.136 1.383-.408 1.935a3.076 3.076 0 01-1.131 1.288c-.482.307-1.044.461-1.687.461zm0-.986c.488 0 .89-.126 1.205-.377.315-.251.548-.582.7-.99.151-.41.227-.854.227-1.331 0-.478-.076-.922-.227-1.335a2.251 2.251 0 00-.7-1c-.315-.255-.717-.382-1.205-.382-.488 0-.889.127-1.204.382a2.245 2.245 0 00-.701 1 3.854 3.854 0 00-.226 1.335c0 .477.075.921.226 1.331.152.408.385.739.701.99.315.251.716.377 1.204.377zm-24.457 47.958a1.463 1.463 0 00-.677-1.098c-.395-.26-.88-.39-1.455-.39-.421 0-.788.068-1.103.205a1.75 1.75 0 00-.733.562c-.172.239-.259.51-.259.814 0 .255.061.474.181.656.124.18.281.33.472.451.193.118.393.216.603.294.21.074.403.134.58.181l.963.26c.247.066.522.156.825.27.306.115.598.271.876.47.281.195.513.447.695.754.183.307.274.684.274 1.13 0 .515-.135.98-.403 1.395-.266.416-.656.747-1.168.991-.51.245-1.129.368-1.858.368-.681 0-1.269-.111-1.767-.331-.494-.22-.884-.527-1.167-.92a2.63 2.63 0 01-.478-1.373h1.186c.031.36.152.658.362.894.214.232.482.406.807.521.327.111.679.166 1.057.166a3.11 3.11 0 001.181-.213c.349-.146.625-.347.829-.605.205-.261.306-.565.306-.912 0-.316-.087-.573-.264-.772a1.931 1.931 0 00-.695-.483 7.148 7.148 0 00-.931-.326l-1.168-.335c-.741-.214-1.329-.519-1.761-.917-.433-.397-.649-.916-.649-1.558 0-.533.143-.998.431-1.396.29-.399.679-.71 1.168-.93a3.932 3.932 0 011.645-.335c.611 0 1.156.111 1.631.331.476.217.853.514 1.131.893.282.378.43.808.445 1.288h-1.112zm5.968 7.294c-.686 0-1.278-.152-1.775-.456a3.054 3.054 0 01-1.145-1.284c-.266-.552-.398-1.193-.398-1.925 0-.733.132-1.377.398-1.936.269-.56.643-.998 1.121-1.312.482-.316 1.045-.474 1.688-.474.371 0 .736.063 1.098.186.362.125.691.326.987.605.296.276.533.642.709 1.098.177.456.264 1.017.264 1.684v.465h-5.487v-.95h4.375c0-.402-.08-.762-.24-1.078a1.83 1.83 0 00-.677-.749 1.893 1.893 0 00-1.029-.275c-.436 0-.813.109-1.131.326a2.143 2.143 0 00-.728.837c-.17.344-.255.714-.255 1.107v.633c0 .539.093.997.278 1.372.188.372.449.656.783.851.334.193.722.289 1.164.289.288 0 .547-.041.779-.121.234-.083.437-.208.607-.372a1.7 1.7 0 00.393-.624l1.057.298c-.111.36-.298.676-.561.949-.262.27-.586.481-.973.633-.386.149-.82.223-1.302.223zm5.705-9.676v9.527h-1.094v-9.527h1.094zm4.988 9.676c-.686 0-1.277-.152-1.775-.456a3.054 3.054 0 01-1.145-1.284c-.265-.552-.399-1.193-.399-1.925 0-.733.134-1.377.399-1.936.269-.56.643-.998 1.122-1.312.482-.316 1.044-.474 1.687-.474.37 0 .736.063 1.098.186.362.125.691.326.987.605.297.276.533.642.71 1.098.175.456.264 1.017.264 1.684v.465h-5.487v-.95h4.374c0-.402-.08-.762-.241-1.078a1.817 1.817 0 00-.677-.749 1.887 1.887 0 00-1.028-.275c-.436 0-.813.109-1.131.326a2.143 2.143 0 00-.728.837c-.17.344-.254.714-.254 1.107v.633c0 .539.092.997.277 1.372.189.372.45.656.784.851.333.193.721.289 1.163.289.287 0 .547-.041.778-.121.235-.083.437-.208.608-.372.17-.168.301-.376.393-.624l1.058.298a2.36 2.36 0 01-.562.949c-.262.27-.587.481-.973.633-.386.149-.82.223-1.302.223zm7.503 0c-.667 0-1.241-.158-1.723-.475a3.101 3.101 0 01-1.114-1.307c-.259-.555-.388-1.189-.388-1.902 0-.726.132-1.366.398-1.922a3.177 3.177 0 011.121-1.307c.483-.316 1.045-.474 1.688-.474.5 0 .951.093 1.353.28.402.186.731.446.987.781.257.335.416.725.478 1.172h-1.094a1.71 1.71 0 00-.556-.865c-.285-.255-.668-.382-1.15-.382-.426 0-.8.112-1.121.335a2.192 2.192 0 00-.747.936c-.175.399-.264.869-.264 1.409 0 .552.087 1.033.259 1.442.177.409.425.727.742.953.322.226.699.34 1.131.34.285 0 .543-.05.774-.149.232-.099.428-.242.589-.428.16-.186.275-.41.343-.67h1.094a2.552 2.552 0 01-.459 1.14 2.564 2.564 0 01-.959.8c-.396.195-.857.293-1.382.293zm7.494-7.294v.93h-3.689v-.93h3.689zm-2.614-1.712h1.094v6.811c0 .309.044.542.135.697.092.152.21.254.351.308.146.049.299.074.46.074.12 0 .219-.007.296-.019l.186-.038.222.987a2.174 2.174 0 01-.311.084 2.268 2.268 0 01-.505.047c-.308 0-.611-.068-.908-.201a1.803 1.803 0 01-.733-.609c-.191-.273-.287-.617-.287-1.033v-7.108zm-48.218 37.862v-9.527h1.15v8.503h4.412v1.024h-5.562zm9.288.167c-.452 0-.861-.085-1.228-.255a2.108 2.108 0 01-.876-.75c-.217-.328-.325-.725-.325-1.19 0-.41.08-.742.241-.995.161-.258.375-.46.644-.606.269-.145.566-.253.89-.325.327-.074.656-.133.987-.177.433-.055.783-.097 1.053-.126.271-.03.469-.082.593-.153.126-.071.19-.196.19-.372v-.037c0-.459-.126-.816-.376-1.07-.247-.255-.623-.382-1.126-.382-.522 0-.931.115-1.229.344-.296.231-.504.475-.625.736l-1.038-.373c.186-.434.433-.772.741-1.014a2.796 2.796 0 011.02-.512 4.233 4.233 0 011.094-.148c.228 0 .491.028.788.084.3.052.589.163.866.33.282.168.515.42.701.758.185.338.277.791.277 1.359v4.707h-1.093v-.968h-.056a1.92 1.92 0 01-.371.498 2.118 2.118 0 01-.69.451c-.288.124-.638.186-1.052.186zm.167-.986c.432 0 .797-.085 1.093-.255a1.744 1.744 0 00.909-1.512v-1.005c-.047.056-.148.106-.306.153a4.775 4.775 0 01-.538.116c-.201.032-.397.059-.588.084-.189.022-.342.041-.46.057a4.13 4.13 0 00-.797.18 1.384 1.384 0 00-.592.368c-.149.162-.223.382-.223.66 0 .382.14.67.422.866.284.192.644.288 1.08.288zm5.24.819v-9.527h1.094v3.517h.092c.081-.124.192-.282.334-.474.145-.196.352-.37.622-.521.271-.156.639-.233 1.102-.233.6 0 1.127.15 1.585.452.458.3.814.727 1.07 1.279.258.552.385 1.203.385 1.953 0 .757-.127 1.413-.385 1.968-.256.552-.611.979-1.065 1.284-.454.3-.978.451-1.571.451-.458 0-.824-.076-1.099-.228a2.026 2.026 0 01-.635-.526 7.34 7.34 0 01-.343-.493h-.129v1.098h-1.057zm1.075-3.573c0 .54.079 1.016.237 1.428.158.41.388.731.69.963.303.23.674.344 1.113.344.457 0 .838-.12 1.145-.363.308-.244.54-.573.694-.986.158-.415.237-.877.237-1.386 0-.502-.078-.955-.232-1.358a2.1 2.1 0 00-.691-.963c-.306-.238-.69-.358-1.153-.358-.446 0-.82.113-1.123.339-.302.224-.531.537-.685.941-.154.399-.232.866-.232 1.399zm9.868 3.722c-.687 0-1.278-.152-1.776-.456a3.06 3.06 0 01-1.145-1.284c-.266-.552-.398-1.194-.398-1.925 0-.733.132-1.378.398-1.936a3.155 3.155 0 011.122-1.312c.482-.316 1.044-.474 1.687-.474.371 0 .737.062 1.099.186.361.124.69.325.986.605.297.275.533.642.709 1.098.177.455.264 1.017.264 1.684v.465h-5.487v-.95h4.375c0-.402-.08-.762-.24-1.079a1.821 1.821 0 00-.677-.748c-.291-.184-.634-.275-1.029-.275-.436 0-.812.108-1.131.325a2.135 2.135 0 00-.727.838 2.456 2.456 0 00-.256 1.107v.633c0 .539.094.997.278 1.372.189.372.45.656.784.851.334.193.722.288 1.164.288.287 0 .546-.04.778-.12.235-.084.437-.208.607-.373.169-.167.301-.375.394-.623l1.056.298c-.111.36-.298.676-.56.948a2.737 2.737 0 01-.973.634 3.6 3.6 0 01-1.302.223zm5.705-9.676v9.527h-1.095v-9.527h1.095zm27.799 1.615v-1.023h7.118v1.023h-2.984v8.504h-1.149v-8.504h-2.985zm9.87 8.671c-.451 0-.86-.085-1.228-.255a2.108 2.108 0 01-.876-.75c-.216-.328-.324-.725-.324-1.191 0-.409.08-.741.241-.995.16-.258.375-.459.644-.605.269-.146.565-.254.889-.325.329-.074.658-.133.988-.177.432-.056.784-.098 1.052-.126.272-.031.47-.082.593-.153.127-.071.19-.196.19-.373v-.037c0-.458-.125-.815-.376-1.069-.247-.255-.621-.382-1.126-.382-.522 0-.931.115-1.227.344-.297.229-.506.475-.626.736l-1.038-.373c.185-.434.432-.772.741-1.014a2.788 2.788 0 011.02-.512 4.229 4.229 0 011.094-.149c.228 0 .491.028.788.085.299.052.588.162.866.33.281.167.514.42.7.758.185.338.278.79.278 1.358v4.708h-1.094v-.968h-.056a1.907 1.907 0 01-.37.498 2.129 2.129 0 01-.691.451c-.287.124-.637.186-1.052.186zm.167-.986c.432 0 .797-.085 1.094-.256.299-.171.525-.391.677-.66.154-.271.231-.554.231-.852v-1.004c-.046.056-.148.106-.306.153a5.18 5.18 0 01-.537.116 26.054 26.054 0 01-1.047.139c-.285.038-.55.099-.797.182-.245.08-.442.203-.594.368-.148.161-.222.381-.222.66 0 .382.14.67.421.866.285.191.644.288 1.08.288zm5.241.819v-9.527h1.093v3.517h.093c.081-.125.191-.283.334-.474.145-.196.352-.37.621-.522.272-.155.639-.233 1.103-.233.599 0 1.128.151 1.584.451.458.302.815.728 1.072 1.28.256.552.384 1.204.384 1.954 0 .756-.128 1.412-.384 1.968-.257.552-.612.979-1.067 1.283-.454.301-.978.451-1.571.451-.457 0-.823-.075-1.098-.228a2.035 2.035 0 01-.635-.525 7.34 7.34 0 01-.343-.493h-.129v1.098h-1.057zm1.075-3.573c0 .54.079 1.015.236 1.428.158.41.388.731.691.963.303.229.673.344 1.112.344.457 0 .839-.121 1.145-.363.308-.245.541-.573.695-.986.158-.415.236-.878.236-1.386 0-.502-.077-.955-.231-1.358a2.107 2.107 0 00-.691-.963c-.306-.239-.691-.358-1.154-.358-.445 0-.818.113-1.121.339-.303.224-.532.536-.686.94-.155.4-.232.867-.232 1.4zm32.641 19.823v-9.527h1.149v8.504h4.412v1.023h-5.561zm7.192 0v-7.144h1.094v7.144h-1.094zm.556-8.335a.777.777 0 01-.551-.219.7.7 0 01-.227-.525c0-.205.075-.38.227-.526a.777.777 0 01.551-.219c.214 0 .396.073.547.219a.696.696 0 01.232.526c0 .204-.077.38-.232.525a.758.758 0 01-.547.219zm7.584 2.791l-.983.278a1.89 1.89 0 00-.273-.479 1.329 1.329 0 00-.482-.39c-.204-.103-.465-.153-.783-.153-.436 0-.799.1-1.09.302-.287.198-.431.451-.431.758 0 .273.099.488.297.646.198.158.507.29.926.396l1.058.26c.636.156 1.111.392 1.422.712.312.317.468.724.468 1.223 0 .41-.117.776-.351 1.099-.232.321-.557.576-.974.762-.417.186-.902.279-1.456.279-.725 0-1.326-.158-1.802-.474-.476-.317-.777-.779-.904-1.386l1.039-.261c.098.384.285.673.56.865.279.192.641.289 1.09.289.509 0 .914-.109 1.213-.326.303-.22.454-.484.454-.791a.829.829 0 00-.259-.623c-.173-.171-.439-.297-.797-.382l-1.187-.278c-.651-.156-1.13-.396-1.436-.722-.303-.328-.454-.739-.454-1.232 0-.403.113-.76.338-1.07.229-.31.539-.553.932-.73a3.254 3.254 0 011.344-.266c.704 0 1.257.155 1.659.466.405.31.692.719.862 1.228zm4.872-1.6v.93h-3.69v-.93h3.69zm-2.614-1.713h1.094v6.811c0 .31.044.543.134.697.093.153.21.255.352.308.146.049.299.074.459.074.12 0 .219-.007.296-.019l.186-.037.223.986a2.251 2.251 0 01-.311.084 2.274 2.274 0 01-.505.047c-.309 0-.611-.068-.909-.2a1.817 1.817 0 01-.732-.61c-.192-.273-.287-.617-.287-1.033v-7.108zm-20.207-70.672h-1.15a2.392 2.392 0 00-.357-.875 2.391 2.391 0 00-.611-.633 2.613 2.613 0 00-.792-.39 3.15 3.15 0 00-.908-.13c-.576 0-1.096.145-1.563.437-.463.291-.832.721-1.107 1.288-.272.568-.409 1.265-.409 2.089 0 .825.137 1.521.409 2.088.275.568.644.998 1.107 1.29.467.291.987.436 1.563.436.315 0 .617-.043.908-.13.29-.087.554-.216.792-.386a2.438 2.438 0 00.968-1.512h1.15a3.85 3.85 0 01-.473 1.307 3.539 3.539 0 01-.853.982 3.767 3.767 0 01-1.144.61c-.42.139-.87.208-1.348.208-.811 0-1.53-.198-2.16-.595-.631-.397-1.126-.961-1.488-1.693-.362-.732-.543-1.6-.543-2.605s.181-1.873.543-2.605c.362-.732.857-1.296 1.488-1.693.63-.397 1.349-.596 2.16-.596.478 0 .928.071 1.348.21a3.65 3.65 0 011.144.614c.341.266.625.592.853.977.229.381.386.816.473 1.307zm3.804 6.717c-.451 0-.86-.085-1.228-.256a2.122 2.122 0 01-.877-.749c-.216-.329-.324-.725-.324-1.19 0-.41.081-.742.241-.996.161-.257.376-.459.644-.605.269-.145.566-.254.891-.326.327-.074.656-.133.987-.177a49.48 49.48 0 011.051-.125c.273-.031.47-.082.593-.153.127-.072.191-.196.191-.373v-.036c0-.46-.125-.816-.375-1.071-.248-.254-.623-.381-1.127-.381-.522 0-.932.115-1.228.344-.296.23-.505.474-.625.735l-1.039-.372c.186-.434.433-.772.742-1.014a2.768 2.768 0 011.019-.512 4.229 4.229 0 011.094-.149c.229 0 .492.028.788.084.299.053.588.163.867.331.281.167.514.42.699.757.186.338.279.791.279 1.359v4.707h-1.094v-.967h-.056a1.936 1.936 0 01-.371.498 2.133 2.133 0 01-.69.45c-.287.125-.638.187-1.052.187zm.167-.986c.433 0 .797-.086 1.094-.256.299-.171.524-.391.676-.66.154-.271.232-.554.232-.852v-1.005c-.046.056-.149.107-.306.154a5.007 5.007 0 01-.538.116 25.196 25.196 0 01-1.047.14 4.13 4.13 0 00-.797.181 1.396 1.396 0 00-.594.367c-.148.162-.222.382-.222.661 0 .382.141.67.422.865.284.192.644.289 1.08.289zm5.092.818v-7.144h1.057v1.078h.074a1.71 1.71 0 01.704-.86 2.07 2.07 0 011.15-.331c.08 0 .18.002.301.005.12.004.211.008.273.014v1.117a3.58 3.58 0 00-.255-.042 2.57 2.57 0 00-.413-.033c-.345 0-.654.073-.926.219a1.652 1.652 0 00-.64.595 1.614 1.614 0 00-.232.861v4.521h-1.093zm7.327.149c-.593 0-1.117-.151-1.571-.451-.454-.304-.81-.732-1.066-1.284-.257-.555-.384-1.21-.384-1.967 0-.751.127-1.402.384-1.954.256-.552.613-.979 1.071-1.279.457-.301.985-.452 1.585-.452.463 0 .829.078 1.098.233.272.152.479.326.621.521.145.192.258.35.338.475h.093v-3.518h1.094v9.527h-1.057v-1.097h-.13c-.08.13-.194.294-.342.493a2.07 2.07 0 01-.636.526c-.275.151-.64.227-1.098.227zm.148-.986c.439 0 .81-.114 1.112-.345.303-.232.533-.552.691-.962.158-.413.237-.888.237-1.428 0-.533-.078-1-.232-1.4-.155-.403-.384-.716-.686-.94-.303-.227-.676-.34-1.122-.34-.463 0-.849.12-1.159.359a2.131 2.131 0 00-.689.962 3.832 3.832 0 00-.228 1.359c0 .509.077.97.232 1.386.158.412.389.742.695.986.309.242.692.363 1.149.363zm58.038 21.421h-1.149a2.402 2.402 0 00-.969-1.508 2.59 2.59 0 00-.792-.39 3.15 3.15 0 00-.908-.13c-.575 0-1.095.145-1.562.437-.464.291-.833.72-1.108 1.288-.272.568-.408 1.264-.408 2.089s.136 1.521.408 2.088c.275.568.644.997 1.108 1.289.467.291.987.437 1.562.437.315 0 .617-.043.908-.13.291-.087.555-.216.792-.386.242-.174.445-.387.612-.637.17-.255.289-.546.357-.875h1.149a3.856 3.856 0 01-.472 1.307 3.568 3.568 0 01-1.998 1.591c-.42.14-.87.209-1.348.209-.81 0-1.53-.198-2.16-.595-.63-.397-1.126-.961-1.488-1.693-.361-.732-.542-1.6-.542-2.605s.181-1.874.542-2.605c.362-.732.858-1.296 1.488-1.694.63-.396 1.35-.595 2.16-.595.478 0 .928.07 1.348.21.423.139.805.344 1.145.614.34.266.624.592.853.976.228.382.386.817.472 1.308zm3.805 6.717c-.452 0-.861-.086-1.229-.256a2.12 2.12 0 01-.876-.749c-.217-.329-.325-.726-.325-1.191 0-.409.081-.741.242-.995.16-.257.375-.459.644-.605.268-.145.566-.254.89-.326.327-.074.656-.133.987-.177.433-.055.783-.097 1.052-.125.272-.031.47-.083.593-.154.127-.071.19-.195.19-.372v-.037c0-.459-.125-.815-.375-1.07-.248-.254-.623-.382-1.127-.382-.522 0-.931.115-1.228.345-.296.23-.505.474-.625.735l-1.039-.372c.186-.434.433-.772.742-1.015a2.773 2.773 0 011.019-.511c.371-.1.736-.149 1.095-.149.228 0 .491.028.788.084.299.052.588.163.866.33.281.168.514.42.7.758.185.338.278.791.278 1.359v4.707h-1.094v-.967h-.055c-.075.155-.199.32-.371.497a2.134 2.134 0 01-.691.451c-.287.125-.637.187-1.051.187zm.166-.987c.433 0 .798-.085 1.094-.255a1.75 1.75 0 00.677-.661c.154-.27.231-.554.231-.851v-1.005c-.046.056-.148.107-.306.153a4.775 4.775 0 01-.538.116c-.2.032-.396.059-.588.085-.188.021-.341.04-.459.056a4.13 4.13 0 00-.797.18 1.388 1.388 0 00-.593.368c-.149.162-.222.382-.222.661 0 .381.14.67.421.865.284.192.644.288 1.08.288zm5.092.819v-7.145h1.057v1.079h.074c.13-.353.364-.64.705-.861.339-.219.722-.33 1.149-.33.08 0 .181.002.301.005.12.004.212.008.273.014v1.117a3.621 3.621 0 00-.254-.042 2.477 2.477 0 00-.413-.033c-.346 0-.655.073-.927.219a1.605 1.605 0 00-.871 1.456v4.521h-1.094zm7.531.149c-.642 0-1.206-.154-1.692-.461a3.123 3.123 0 01-1.13-1.288c-.269-.552-.403-1.197-.403-1.935 0-.745.134-1.394.403-1.949a3.119 3.119 0 011.13-1.293c.486-.308 1.05-.461 1.692-.461.643 0 1.206.153 1.688.461.484.307.861.737 1.13 1.293.272.555.408 1.204.408 1.949 0 .738-.136 1.383-.408 1.935a3.081 3.081 0 01-1.13 1.288c-.482.307-1.045.461-1.688.461zm0-.986c.489 0 .89-.126 1.206-.377.315-.251.548-.581.699-.99a3.8 3.8 0 00.227-1.331c0-.478-.075-.922-.227-1.335a2.242 2.242 0 00-.699-1c-.316-.255-.717-.382-1.206-.382-.488 0-.89.127-1.205.382a2.242 2.242 0 00-.699 1 3.831 3.831 0 00-.228 1.335c0 .477.076.921.228 1.331.151.409.384.739.699.99.315.251.717.377 1.205.377zm9.382-2.084v-4.224h1.094v7.145H814v-1.209h-.074a2.35 2.35 0 01-.779.926c-.352.25-.797.377-1.335.377-.444 0-.84-.099-1.186-.294a2.053 2.053 0 01-.816-.893c-.198-.4-.297-.904-.297-1.512v-4.54h1.094v4.466c0 .521.145.936.436 1.247.294.309.668.465 1.122.465.272 0 .548-.071.829-.21.285-.139.522-.354.713-.642.195-.288.293-.656.293-1.102zm8.139-2.624l-.982.279a1.856 1.856 0 00-.273-.479 1.337 1.337 0 00-.482-.39c-.205-.103-.466-.153-.784-.153-.436 0-.798.1-1.089.302-.287.198-.431.451-.431.758 0 .273.099.488.297.646.197.158.507.29.926.396l1.057.26c.637.155 1.111.392 1.423.712.312.316.468.724.468 1.223 0 .41-.118.776-.353 1.098-.231.322-.555.577-.973.763-.416.186-.901.279-1.455.279-.726 0-1.326-.158-1.803-.475-.475-.316-.776-.778-.903-1.385l1.037-.261c.1.384.287.672.562.865.277.192.641.288 1.088.288.51 0 .915-.108 1.215-.325.303-.22.454-.484.454-.791a.835.835 0 00-.259-.623c-.174-.171-.439-.298-.797-.382l-1.187-.279c-.651-.155-1.131-.395-1.436-.721-.303-.328-.455-.739-.455-1.232 0-.403.112-.76.338-1.071.229-.309.54-.553.932-.729a3.26 3.26 0 011.344-.266c.704 0 1.257.155 1.659.466.404.31.693.718.862 1.227zm4.761 5.694c-.686 0-1.277-.152-1.775-.456a3.054 3.054 0 01-1.145-1.284c-.265-.552-.399-1.193-.399-1.925 0-.733.134-1.377.399-1.936.269-.56.643-.998 1.122-1.312.482-.316 1.044-.474 1.687-.474.37 0 .736.063 1.098.186.362.125.691.326.987.605.297.276.534.642.71 1.098.176.456.264 1.017.264 1.684v.465h-5.487v-.95h4.374c0-.402-.08-.762-.241-1.078a1.817 1.817 0 00-.677-.749 1.887 1.887 0 00-1.028-.275c-.436 0-.813.109-1.131.326a2.143 2.143 0 00-.728.837 2.48 2.48 0 00-.254 1.107v.633c0 .539.092.997.278 1.372.188.372.449.656.783.851.333.193.721.289 1.163.289.287 0 .547-.041.778-.121.235-.083.438-.208.608-.372.17-.168.301-.376.394-.624l1.057.298a2.36 2.36 0 01-.562.949c-.262.27-.587.481-.973.633-.386.149-.82.223-1.302.223zm5.705-9.676v9.527h-1.093v-9.527h1.093zm-181.794-72.808v-9.527h3.318c.661 0 1.206.115 1.636.344.429.227.749.533.959.917.21.381.316.805.316 1.27 0 .409-.073.748-.219 1.014a1.707 1.707 0 01-.564.633 2.595 2.595 0 01-.757.344v.093c.291.018.583.12.877.307.293.186.539.453.736.8.198.348.297.772.297 1.275 0 .477-.109.907-.325 1.288-.216.381-.557.684-1.023.907-.467.224-1.074.335-1.822.335h-3.429zm1.149-1.024h2.28c.751 0 1.284-.145 1.599-.437a1.4 1.4 0 00.477-1.069c0-.323-.082-.62-.245-.894a1.777 1.777 0 00-.7-.66c-.303-.168-.661-.251-1.075-.251h-2.336v3.311zm0-4.316h2.132c.346 0 .658-.068.936-.205.281-.136.503-.328.667-.576.167-.249.25-.54.25-.875 0-.419-.144-.774-.435-1.066-.29-.293-.751-.441-1.381-.441h-2.169v3.163zm7.19 5.34v-7.145h1.057v1.079h.074c.13-.354.364-.64.705-.861.34-.22.723-.33 1.149-.33.08 0 .181.002.301.005s.212.008.274.014v1.117a3.58 3.58 0 00-.255-.042 2.474 2.474 0 00-.412-.033 1.93 1.93 0 00-.928.219 1.605 1.605 0 00-.871 1.456v4.521h-1.094zm7.625.149c-.687 0-1.278-.152-1.776-.456a3.054 3.054 0 01-1.145-1.284c-.266-.552-.398-1.194-.398-1.925 0-.733.132-1.378.398-1.936a3.162 3.162 0 011.122-1.312c.482-.316 1.044-.474 1.687-.474.371 0 .737.062 1.099.186.361.124.69.326.986.605.297.275.533.642.709 1.098.177.455.265 1.017.265 1.684v.465h-5.488v-.95h4.375c0-.402-.08-.762-.24-1.078a1.818 1.818 0 00-.677-.749 1.89 1.89 0 00-1.029-.275c-.436 0-.812.108-1.131.326a2.133 2.133 0 00-.727.837 2.456 2.456 0 00-.256 1.107v.633c0 .539.094.997.279 1.372.188.372.449.656.783.851.334.193.722.288 1.164.288.287 0 .546-.04.778-.12.235-.083.437-.208.607-.373.169-.167.301-.375.394-.623l1.056.298c-.111.36-.298.676-.56.949-.263.27-.587.48-.973.633a3.6 3.6 0 01-1.302.223zm6.705.018c-.45 0-.861-.085-1.228-.255a2.115 2.115 0 01-.876-.75c-.216-.328-.325-.725-.325-1.19 0-.409.082-.742.242-.995.16-.257.376-.46.644-.606a3.43 3.43 0 01.889-.325c.329-.074.658-.133.988-.177.432-.055.784-.097 1.052-.125.272-.031.47-.083.593-.154.127-.071.19-.195.19-.372v-.037c0-.459-.125-.816-.376-1.07-.247-.255-.621-.382-1.126-.382-.522 0-.931.115-1.227.345-.297.23-.506.474-.626.735l-1.038-.372c.185-.435.432-.772.742-1.015a2.758 2.758 0 011.019-.511c.371-.1.735-.149 1.094-.149.228 0 .491.028.788.084.299.052.588.163.866.33.281.168.514.42.7.758.185.338.278.791.278 1.359v4.707h-1.094v-.968h-.055a1.92 1.92 0 01-.371.498 2.123 2.123 0 01-.691.451c-.287.125-.637.186-1.052.186zm.167-.986c.432 0 .798-.085 1.094-.255a1.75 1.75 0 00.677-.661c.154-.27.231-.554.231-.851v-1.005c-.046.056-.148.107-.306.153a4.706 4.706 0 01-.537.116 26.17 26.17 0 01-.589.085c-.188.021-.341.04-.458.056-.285.036-.55.097-.797.18a1.392 1.392 0 00-.594.368c-.148.162-.222.382-.222.661 0 .381.14.669.421.865.285.192.644.288 1.08.288zm7.781.968c-.594 0-1.118-.151-1.572-.451-.454-.304-.809-.732-1.065-1.284-.257-.555-.385-1.211-.385-1.968 0-.75.128-1.401.385-1.953.256-.552.613-.979 1.07-1.279.458-.302.985-.452 1.585-.452.464 0 .829.077 1.099.233.271.151.478.325.62.521a7.9 7.9 0 01.339.474h.092v-3.517h1.095v9.527h-1.058v-1.098h-.129c-.08.13-.195.295-.343.493-.148.196-.36.371-.635.526-.275.152-.641.228-1.098.228zm.148-.987c.438 0 .809-.114 1.112-.344.303-.232.533-.553.691-.963.157-.412.236-.888.236-1.427 0-.534-.078-1.001-.231-1.4-.155-.403-.383-.717-.686-.94-.303-.227-.677-.34-1.122-.34-.464 0-.85.12-1.159.358a2.15 2.15 0 00-.69.963 3.85 3.85 0 00-.228 1.359c0 .509.078.97.232 1.385.158.413.39.742.696.986.308.243.691.363 1.149.363zm8.162.987c-.668 0-1.243-.158-1.725-.475a3.083 3.083 0 01-1.112-1.307c-.259-.555-.39-1.189-.39-1.902 0-.726.133-1.366.399-1.922a3.165 3.165 0 011.122-1.307c.482-.316 1.044-.474 1.687-.474.5 0 .952.093 1.353.28a2.6 2.6 0 01.987.781c.256.335.415.725.477 1.172h-1.093a1.7 1.7 0 00-.556-.865c-.284-.255-.668-.382-1.149-.382-.427 0-.801.112-1.123.335a2.183 2.183 0 00-.746.936c-.176.399-.263.869-.263 1.409 0 .552.085 1.033.259 1.441.176.41.423.727.742.954.32.226.698.339 1.131.339.284 0 .541-.049.773-.148a1.593 1.593 0 00.932-1.098h1.093a2.54 2.54 0 01-1.418 1.94c-.395.195-.856.293-1.38.293zm4.398-.149v-7.145h1.056v1.079h.074c.13-.354.365-.64.704-.861.34-.22.724-.33 1.15-.33.081 0 .18.002.301.005s.212.008.274.014v1.117a3.54 3.54 0 00-.256-.042 2.448 2.448 0 00-.412-.033c-.346 0-.655.073-.926.219a1.605 1.605 0 00-.872 1.456v4.521h-1.093zm9.341-2.921v-4.224h1.094v7.145h-1.094v-1.209h-.073a2.342 2.342 0 01-.78.925c-.351.251-.797.377-1.334.377a2.37 2.37 0 01-1.186-.293 2.053 2.053 0 01-.816-.893c-.198-.4-.296-.904-.296-1.512v-4.54h1.093v4.466c0 .52.145.936.435 1.246.294.31.668.465 1.122.465.272 0 .549-.07.829-.209.285-.14.522-.354.714-.642.195-.288.292-.656.292-1.102zm3.097 2.921v-7.145h1.057v1.117h.092c.149-.382.388-.678.719-.889.331-.214.727-.321 1.192-.321.468 0 .86.107 1.171.321.316.211.562.507.738.889h.073c.183-.369.456-.663.821-.88.365-.22.802-.33 1.311-.33.637 0 1.158.2 1.563.6.404.397.607 1.016.607 1.856v4.782h-1.094v-4.782c0-.527-.143-.904-.432-1.13a1.586 1.586 0 00-1.014-.34c-.5 0-.888.152-1.163.457-.275.3-.413.682-.413 1.144v4.651h-1.112v-4.894c0-.406-.132-.733-.394-.981-.263-.251-.601-.377-1.015-.377-.284 0-.55.077-.797.228a1.726 1.726 0 00-.594.633 1.873 1.873 0 00-.222.925v4.466h-1.094zm11.491 0v-9.527h1.095v3.517h.092c.08-.124.192-.282.334-.474.145-.196.352-.37.621-.521.272-.156.639-.233 1.103-.233.6 0 1.127.15 1.585.452.457.3.814.727 1.07 1.279.257.552.385 1.203.385 1.953 0 .757-.128 1.413-.385 1.968-.256.552-.611.98-1.065 1.284-.454.3-.978.451-1.572.451-.457 0-.823-.076-1.098-.228a2.026 2.026 0 01-.635-.526 6.984 6.984 0 01-.343-.493h-.13v1.098h-1.057zm1.076-3.572c0 .539.078 1.015.236 1.427.157.41.388.731.691.963.303.23.674.344 1.112.344.457 0 .839-.12 1.145-.363.309-.244.54-.573.695-.986.157-.415.237-.876.237-1.385 0-.503-.078-.956-.232-1.359a2.1 2.1 0 00-.691-.963c-.306-.238-.69-.358-1.154-.358-.445 0-.819.113-1.122.34-.303.223-.531.537-.686.94-.154.399-.231.866-.231 1.4zm-110.822-23.563h-1.206l3.486-9.527h1.186l3.485 9.527h-1.205l-2.836-8.019h-.075l-2.835 8.019zm.444-3.721h4.857v1.024h-4.857v-1.024zm12.766-3.423l-2.633 7.144h-1.112l-2.632-7.144h1.186l1.965 5.693h.074l1.965-5.693h1.187zm3.321 7.312c-.45 0-.86-.086-1.227-.256a2.122 2.122 0 01-.877-.749c-.216-.329-.324-.725-.324-1.19 0-.41.081-.742.241-.996.161-.257.376-.459.645-.605.268-.145.564-.254.889-.326.328-.074.657-.133.987-.177.433-.055.784-.097 1.053-.125.272-.031.469-.082.592-.154.127-.071.191-.195.191-.372v-.036c0-.46-.125-.816-.376-1.071-.247-.254-.622-.382-1.126-.382-.522 0-.931.116-1.228.345-.296.23-.505.474-.625.735l-1.039-.372c.186-.434.433-.772.742-1.014a2.753 2.753 0 011.019-.512 4.235 4.235 0 011.094-.149c.229 0 .492.028.788.084.299.053.588.163.866.33.282.168.515.421.7.758.186.338.278.791.278 1.359v4.707h-1.093v-.967h-.055a1.964 1.964 0 01-.371.497 2.134 2.134 0 01-.691.451c-.287.125-.638.187-1.053.187zm.167-.987c.433 0 .798-.085 1.095-.255a1.748 1.748 0 00.908-1.512v-1.005c-.047.056-.149.107-.306.154a5.007 5.007 0 01-.538.116 25.196 25.196 0 01-1.047.14c-.284.036-.55.097-.797.181a1.386 1.386 0 00-.594.367c-.148.162-.222.382-.222.661 0 .382.14.67.422.865.284.192.644.288 1.079.288zm8.189-6.325v.93h-3.689v-.93h3.689zm-2.614-1.713h1.093v6.811c0 .31.045.543.135.697.093.152.21.254.352.308.145.049.298.074.459.074.121 0 .22-.007.297-.019l.185-.037.222.986a2.154 2.154 0 01-.31.084 2.274 2.274 0 01-.505.047c-.309 0-.612-.068-.908-.201a1.803 1.803 0 01-.733-.609c-.191-.273-.287-.617-.287-1.033v-7.108zm7.167 9.006c-.686 0-1.278-.152-1.775-.456a3.057 3.057 0 01-1.145-1.283c-.266-.552-.398-1.194-.398-1.926 0-.733.132-1.377.398-1.936.269-.56.643-.998 1.122-1.312.482-.316 1.044-.474 1.687-.474.371 0 .737.063 1.099.186.36.125.69.326.986.606.297.275.533.641.709 1.097.177.456.265 1.017.265 1.684v.465h-5.488v-.949h4.375c0-.403-.08-.763-.24-1.079a1.83 1.83 0 00-.677-.749 1.89 1.89 0 00-1.029-.275c-.436 0-.812.109-1.131.326a2.133 2.133 0 00-.727.837 2.456 2.456 0 00-.256 1.107v.633c0 .539.094.997.279 1.372.188.372.449.656.783.852.334.192.722.288 1.163.288.288 0 .547-.041.779-.121.235-.083.437-.208.607-.372a1.72 1.72 0 00.394-.623l1.056.297c-.111.36-.298.677-.56.949-.263.27-.587.481-.973.633a3.601 3.601 0 01-1.303.223zm4.611-.149v-7.144h1.057v1.078h.074c.13-.353.364-.64.705-.86a2.07 2.07 0 011.149-.331c.08 0 .181.002.301.005.12.004.212.008.274.014v1.117a3.58 3.58 0 00-.255-.042 2.585 2.585 0 00-.412-.033 1.93 1.93 0 00-.928.219 1.642 1.642 0 00-.639.595 1.604 1.604 0 00-.231.861v4.521h-1.095zm-16.316-59.963V90.73h7.118v1.024h-2.984v8.503h-1.149v-8.503h-2.985zm10.604 8.652c-.643 0-1.207-.154-1.691-.46a3.12 3.12 0 01-1.132-1.29c-.269-.551-.403-1.196-.403-1.934 0-.745.134-1.394.403-1.949a3.115 3.115 0 011.132-1.294c.484-.307 1.048-.46 1.691-.46s1.205.153 1.687.46c.485.307.862.739 1.131 1.294.272.555.407 1.204.407 1.949 0 .738-.135 1.383-.407 1.935a3.083 3.083 0 01-1.131 1.288c-.482.307-1.044.461-1.687.461zm0-.987c.488 0 .89-.125 1.205-.376.315-.251.548-.582.699-.99a3.8 3.8 0 00.228-1.331 3.83 3.83 0 00-.228-1.335 2.247 2.247 0 00-.699-1c-.315-.255-.717-.382-1.205-.382-.489 0-.89.127-1.205.382a2.241 2.241 0 00-.7 1 3.83 3.83 0 00-.227 1.335c0 .477.075.92.227 1.33.151.41.384.74.7.991.315.251.716.376 1.205.376zm7.787.987c-.643 0-1.207-.154-1.692-.46a3.123 3.123 0 01-1.13-1.29c-.269-.551-.404-1.196-.404-1.934 0-.745.135-1.394.404-1.949a3.118 3.118 0 011.13-1.294c.485-.307 1.049-.46 1.692-.46s1.205.153 1.687.46a3.07 3.07 0 011.13 1.294c.273.555.409 1.204.409 1.949 0 .738-.136 1.383-.409 1.935a3.074 3.074 0 01-1.13 1.288c-.482.307-1.044.461-1.687.461zm0-.987c.488 0 .89-.125 1.205-.376.315-.251.549-.582.7-.99a3.82 3.82 0 00.227-1.331 3.85 3.85 0 00-.227-1.335 2.249 2.249 0 00-.7-1c-.315-.255-.717-.382-1.205-.382-.488 0-.89.127-1.205.382a2.257 2.257 0 00-.7 1 3.854 3.854 0 00-.227 1.335c0 .477.076.92.227 1.33.152.41.385.74.7.991.315.251.717.376 1.205.376zm5.989-8.689v9.527h-1.094v-9.527h1.094zm5.099 2.382v.93h-3.689v-.93h3.689zm-2.614-1.712h1.094v6.81c0 .31.045.543.135.698a.693.693 0 00.352.307 1.4 1.4 0 00.459.074c.12 0 .219-.006.296-.018l.186-.038.221.986a2.337 2.337 0 01-.815.131c-.309 0-.612-.067-.908-.2a1.816 1.816 0 01-.733-.609c-.191-.273-.287-.618-.287-1.033v-7.108zm4.259 8.857v-7.145h1.094v7.145h-1.094zm.557-8.336a.777.777 0 01-.552-.218.706.706 0 01-.228-.526c0-.205.077-.38.228-.526a.777.777 0 01.552-.218.76.76 0 01.546.218.696.696 0 01.232.526c0 .204-.077.38-.232.526a.76.76 0 01-.546.218zm2.54 11.015v-9.824h1.057v1.135h.13c.08-.124.192-.282.333-.475.146-.195.353-.369.621-.52.272-.156.64-.233 1.103-.233.599 0 1.128.15 1.586.451.457.301.814.727 1.07 1.28.256.552.385 1.203.385 1.953 0 .757-.129 1.413-.385 1.968-.256.552-.612.98-1.066 1.284-.454.3-.977.451-1.571.451-.457 0-.823-.076-1.098-.228a2.03 2.03 0 01-.635-.526 7.029 7.029 0 01-.343-.493h-.093v3.777h-1.094zm1.076-6.251c0 .54.078 1.015.236 1.427.157.41.387.731.69.963.303.23.674.344 1.112.344.458 0 .839-.12 1.145-.363a2.21 2.21 0 00.696-.986 3.89 3.89 0 00.236-1.385 3.77 3.77 0 00-.232-1.36 2.096 2.096 0 00-.69-.962c-.306-.239-.691-.358-1.155-.358-.444 0-.818.113-1.121.34-.303.223-.531.536-.686.94-.154.4-.231.866-.231 1.4zm11.92-1.973l-.983.279a1.84 1.84 0 00-.274-.48 1.324 1.324 0 00-.482-.39c-.203-.102-.464-.153-.783-.153-.435 0-.799.1-1.089.302-.287.199-.431.451-.431.758 0 .274.1.489.297.647.198.158.506.29.927.396l1.057.26c.636.155 1.11.392 1.422.712.313.316.468.724.468 1.223 0 .41-.117.775-.352 1.098a2.343 2.343 0 01-.973.763c-.417.186-.903.279-1.455.279-.727 0-1.328-.159-1.803-.475-.476-.316-.778-.778-.904-1.386l1.038-.26c.099.384.286.672.561.865.278.192.641.288 1.089.288.51 0 .914-.108 1.215-.325.302-.22.454-.484.454-.791a.833.833 0 00-.26-.623c-.173-.172-.439-.298-.797-.382l-1.186-.279c-.653-.155-1.131-.396-1.438-.721-.302-.329-.454-.74-.454-1.233 0-.403.113-.76.339-1.07a2.3 2.3 0 01.931-.73 3.263 3.263 0 011.344-.265c.705 0 1.258.155 1.66.465.404.31.691.72.862 1.228zm68.895 100.045v-9.527h3.207c.745 0 1.354.135 1.826.405.477.267.828.628 1.057 1.084.229.455.344.964.344 1.526a3.38 3.38 0 01-.344 1.53 2.555 2.555 0 01-1.047 1.098c-.473.269-1.079.404-1.817.404h-2.299v-1.022h2.262c.509 0 .919-.089 1.228-.266.309-.177.533-.416.672-.716.142-.304.213-.646.213-1.028a2.37 2.37 0 00-.213-1.024 1.529 1.529 0 00-.676-.707c-.313-.173-.727-.26-1.242-.26h-2.021v8.503h-1.15zm10.231.167c-.451 0-.86-.085-1.228-.255a2.115 2.115 0 01-.876-.75c-.216-.328-.324-.725-.324-1.19 0-.41.08-.742.24-.995.161-.258.376-.46.645-.606.269-.145.565-.253.89-.325.327-.074.656-.133.987-.177.433-.055.783-.097 1.052-.125.272-.031.469-.083.593-.154.127-.071.19-.195.19-.372v-.037c0-.459-.125-.816-.375-1.07-.247-.255-.623-.382-1.126-.382-.522 0-.932.115-1.229.344-.296.231-.505.475-.625.736l-1.039-.372c.186-.435.433-.772.742-1.015a2.788 2.788 0 011.02-.512 4.22 4.22 0 011.093-.148c.229 0 .492.028.788.084.3.052.588.163.867.33.281.168.515.42.699.758.186.338.279.791.279 1.359v4.707h-1.094v-.968h-.055a1.943 1.943 0 01-.371.498 2.123 2.123 0 01-.691.451c-.287.125-.638.186-1.052.186zm.167-.986c.433 0 .797-.085 1.094-.255a1.741 1.741 0 00.908-1.512v-1.005c-.046.056-.149.107-.306.153a4.754 4.754 0 01-.537.116c-.201.032-.397.059-.589.085-.189.021-.341.04-.459.056a4.13 4.13 0 00-.797.18 1.388 1.388 0 00-.593.368c-.149.162-.223.382-.223.661 0 .381.141.669.422.865.284.192.644.288 1.08.288zm7.966 3.647c-.529 0-.983-.068-1.363-.205a2.856 2.856 0 01-1.548-1.227l.871-.615c.099.131.224.28.376.447.151.171.358.318.621.442.265.127.613.191 1.043.191.574 0 1.049-.14 1.422-.419.374-.279.561-.716.561-1.312v-1.451h-.093c-.08.13-.194.292-.343.483a1.948 1.948 0 01-.63.508c-.272.146-.639.219-1.103.219-.575 0-1.09-.137-1.548-.41-.454-.273-.814-.67-1.08-1.19-.262-.522-.394-1.154-.394-1.899 0-.732.129-1.369.385-1.911.257-.546.614-.968 1.07-1.265.458-.302.987-.452 1.586-.452.463 0 .831.077 1.103.233.275.151.485.325.63.521.148.192.263.35.343.474h.111v-1.135h1.057v7.35c0 .614-.139 1.113-.418 1.498a2.378 2.378 0 01-1.112.851 4.177 4.177 0 01-1.547.274zm-.037-3.926c.439 0 .809-.101 1.112-.302.303-.202.533-.492.69-.87.158-.378.236-.831.236-1.359 0-.514-.076-.968-.231-1.362a2.045 2.045 0 00-.686-.926c-.303-.223-.677-.335-1.121-.335-.464 0-.851.118-1.159.354a2.155 2.155 0 00-.691.948 3.696 3.696 0 00-.226 1.321c0 .497.076.936.231 1.317.157.379.389.676.695.893.309.214.692.321 1.15.321zm5.116 1.098v-7.145h1.094v7.145h-1.094zm.556-8.336a.778.778 0 01-.552-.219.702.702 0 01-.226-.525.7.7 0 01.226-.525.778.778 0 01.552-.219.76.76 0 01.547.219c.154.145.231.32.231.525 0 .204-.077.38-.231.525a.76.76 0 01-.547.219zm3.635 4.037v4.299h-1.094v-7.145h1.056v1.116h.094c.166-.363.419-.654.759-.874.341-.223.779-.335 1.317-.335.482 0 .903.099 1.265.298.361.195.643.493.843.893.202.397.301.899.301 1.507v4.54h-1.093v-4.466c0-.56-.146-.998-.435-1.312-.291-.316-.69-.474-1.196-.474-.35 0-.661.077-.936.228a1.623 1.623 0 00-.645.665c-.157.291-.236.645-.236 1.06zm8.635 4.466a2.89 2.89 0 01-1.228-.255 2.108 2.108 0 01-.876-.75c-.217-.328-.325-.725-.325-1.19 0-.41.081-.742.242-.995.16-.258.375-.46.644-.606.268-.145.565-.253.889-.325.328-.074.657-.133.987-.177.433-.055.784-.097 1.053-.125.272-.031.47-.083.593-.154.127-.071.19-.195.19-.372v-.037c0-.459-.125-.816-.376-1.07-.247-.255-.622-.382-1.126-.382-.522 0-.931.115-1.228.344-.296.231-.505.475-.625.736l-1.039-.372c.186-.435.433-.772.742-1.015a2.791 2.791 0 011.019-.512 4.234 4.234 0 011.095-.148c.228 0 .491.028.788.084.299.052.588.163.866.33.281.168.514.42.7.758.185.338.277.791.277 1.359v4.707h-1.093v-.968h-.056a1.936 1.936 0 01-.37.498 2.123 2.123 0 01-.691.451c-.287.125-.637.186-1.052.186zm.167-.986c.432 0 .797-.085 1.094-.255.299-.172.525-.391.677-.661.154-.27.231-.554.231-.851v-1.005c-.047.056-.148.107-.306.153a4.775 4.775 0 01-.538.116c-.2.032-.397.059-.588.085-.188.021-.341.04-.459.056a4.13 4.13 0 00-.797.18 1.394 1.394 0 00-.593.368c-.149.162-.222.382-.222.661 0 .381.14.669.421.865.284.192.644.288 1.08.288zm8.188-6.326v.93h-3.689v-.93h3.689zm-2.614-1.712h1.094v6.811c0 .309.044.542.134.697a.703.703 0 00.352.307c.146.05.299.074.459.074.121 0 .22-.006.297-.018l.185-.038.223.986a2.275 2.275 0 01-.816.131c-.309 0-.612-.067-.908-.2a1.819 1.819 0 01-.733-.609c-.191-.273-.287-.617-.287-1.033v-7.108zm4.259 8.857v-7.145h1.094v7.145h-1.094zm.556-8.336a.775.775 0 01-.551-.219.7.7 0 01-.227-.525c0-.205.075-.38.227-.525a.775.775 0 01.551-.219.76.76 0 01.547.219c.155.145.232.32.232.525 0 .204-.077.38-.232.525a.76.76 0 01-.547.219zm5.433 8.485c-.642 0-1.206-.154-1.691-.461a3.117 3.117 0 01-1.131-1.288c-.269-.552-.404-1.197-.404-1.935 0-.745.135-1.394.404-1.949a3.107 3.107 0 011.131-1.293c.485-.308 1.049-.461 1.691-.461.643 0 1.205.153 1.687.461.485.307.862.737 1.131 1.293.272.555.408 1.204.408 1.949 0 .738-.136 1.383-.408 1.935a3.083 3.083 0 01-1.131 1.288c-.482.307-1.044.461-1.687.461zm0-.987c.488 0 .89-.125 1.205-.376.315-.251.548-.582.7-.991.151-.409.227-.853.227-1.33a3.85 3.85 0 00-.227-1.335 2.251 2.251 0 00-.7-1c-.315-.255-.717-.382-1.205-.382-.488 0-.889.127-1.205.382a2.243 2.243 0 00-.7 1 3.85 3.85 0 00-.227 1.335c0 .477.076.921.227 1.33.151.409.385.74.7.991.316.251.717.376 1.205.376zm5.989-3.461v4.299h-1.093v-7.145h1.056v1.116h.093c.167-.363.42-.654.76-.874.339-.223.778-.335 1.316-.335.482 0 .904.099 1.265.298a2 2 0 01.844.893c.2.397.301.899.301 1.507v4.54h-1.094v-4.466c0-.56-.145-.998-.436-1.312-.29-.316-.689-.474-1.195-.474a1.91 1.91 0 00-.936.228 1.629 1.629 0 00-.645.665c-.157.291-.236.645-.236 1.06zm-99.666-97.345a1.46 1.46 0 00-.677-1.098c-.395-.26-.88-.391-1.455-.391-.421 0-.788.068-1.103.205a1.765 1.765 0 00-.733.563c-.172.238-.259.51-.259.814 0 .254.061.473.181.655.124.18.282.33.473.451.192.118.392.216.602.294.211.074.404.135.58.181l.964.26c.247.066.522.156.825.27.305.115.597.271.875.47.281.195.514.447.695.754.183.307.274.684.274 1.13 0 .515-.135.98-.403 1.395-.266.417-.656.747-1.168.991-.51.245-1.129.368-1.858.368-.681 0-1.269-.111-1.767-.331a2.805 2.805 0 01-1.167-.92 2.636 2.636 0 01-.478-1.373h1.187c.03.36.152.658.361.894.214.232.482.406.807.52a3.24 3.24 0 001.057.167c.438 0 .832-.07 1.181-.213.349-.146.625-.347.83-.605.204-.26.305-.564.305-.912 0-.316-.087-.573-.263-.772a1.948 1.948 0 00-.696-.483 7.11 7.11 0 00-.931-.326l-1.168-.335c-.741-.214-1.329-.52-1.761-.917-.433-.396-.649-.916-.649-1.558 0-.533.144-.998.431-1.395.291-.4.679-.71 1.168-.93a3.928 3.928 0 011.645-.335c.612 0 1.156.11 1.631.33.476.217.853.515 1.131.893.282.378.43.808.445 1.288h-1.112zm5.968 7.293c-.685 0-1.277-.152-1.775-.456a3.057 3.057 0 01-1.145-1.283c-.266-.552-.398-1.194-.398-1.926 0-.733.132-1.377.398-1.936.269-.56.643-.998 1.122-1.311.481-.316 1.045-.475 1.687-.475.371 0 .736.062 1.098.187.362.124.691.325.987.604.297.276.533.642.71 1.098.176.456.263 1.017.263 1.684v.465h-5.487v-.95h4.375c0-.402-.08-.762-.24-1.078a1.827 1.827 0 00-.677-.749 1.893 1.893 0 00-1.029-.274c-.436 0-.813.108-1.131.325a2.152 2.152 0 00-.728.837 2.47 2.47 0 00-.254 1.107v.634c0 .538.092.996.277 1.371.189.373.45.656.783.852.334.192.722.288 1.164.288.288 0 .547-.04.779-.12.234-.084.437-.209.607-.373a1.68 1.68 0 00.393-.623l1.057.297a2.34 2.34 0 01-.561.949c-.262.27-.586.481-.973.633-.386.149-.82.223-1.302.223zm7.484 2.68c-.527 0-.982-.069-1.362-.205a2.878 2.878 0 01-1.548-1.228l.872-.614c.098.13.223.279.375.447.151.17.358.317.621.441.266.128.614.191 1.042.191.576 0 1.05-.139 1.424-.419.374-.279.56-.716.56-1.312v-1.45h-.092c-.08.13-.195.291-.343.483a1.955 1.955 0 01-.63.507c-.273.146-.64.219-1.103.219a2.967 2.967 0 01-1.549-.41c-.454-.272-.813-.67-1.079-1.19-.263-.521-.394-1.154-.394-1.898 0-.732.128-1.37.385-1.912.256-.546.613-.968 1.07-1.265.458-.301.985-.452 1.585-.452.464 0 .831.078 1.103.233.275.152.485.326.63.521.149.192.263.35.343.474h.111v-1.135h1.058v7.35c0 .614-.14 1.114-.418 1.498a2.39 2.39 0 01-1.112.852c-.464.182-.98.274-1.549.274zm-.036-3.926c.438 0 .809-.101 1.112-.302.303-.203.533-.493.691-.87.157-.379.236-.832.236-1.36 0-.514-.078-.968-.231-1.362a2.052 2.052 0 00-.687-.926c-.302-.223-.676-.334-1.121-.334-.464 0-.85.117-1.159.353a2.156 2.156 0 00-.69.949 3.692 3.692 0 00-.228 1.32c0 .498.077.936.232 1.317.158.38.39.677.696.894.308.213.691.32 1.149.32zm5.116 1.097v-7.144h1.057v1.116h.092c.149-.382.388-.678.719-.889.33-.214.727-.32 1.191-.32.469 0 .861.106 1.172.32.315.211.561.507.738.889h.073c.183-.37.456-.662.821-.88.364-.22.801-.33 1.311-.33.637 0 1.158.2 1.563.6.404.397.606 1.016.606 1.856v4.782h-1.093v-4.782c0-.527-.144-.904-.432-1.13a1.59 1.59 0 00-1.014-.34c-.5 0-.888.153-1.163.457-.275.3-.413.682-.413 1.144v4.651h-1.112v-4.893c0-.406-.132-.734-.395-.982-.262-.25-.6-.376-1.014-.376-.284 0-.55.075-.797.227a1.726 1.726 0 00-.594.633 1.876 1.876 0 00-.222.925v4.466h-1.094zm14.328.149c-.686 0-1.278-.152-1.775-.456a3.057 3.057 0 01-1.145-1.283c-.265-.552-.399-1.194-.399-1.926 0-.733.134-1.377.399-1.936.269-.56.643-.998 1.122-1.311.482-.316 1.044-.475 1.687-.475.37 0 .736.062 1.098.187.362.124.691.325.987.604.297.276.534.642.71 1.098.175.456.264 1.017.264 1.684v.465h-5.487v-.95h4.374c0-.402-.08-.762-.241-1.078a1.82 1.82 0 00-.677-.749 1.887 1.887 0 00-1.028-.274c-.436 0-.813.108-1.131.325a2.143 2.143 0 00-.728.837 2.48 2.48 0 00-.254 1.107v.634c0 .538.092.996.278 1.371.188.373.449.656.783.852.333.192.721.288 1.163.288.287 0 .547-.04.778-.12.235-.084.438-.209.607-.373.171-.168.302-.375.395-.623l1.057.297c-.112.36-.299.677-.562.949-.262.27-.587.481-.973.633-.386.149-.82.223-1.302.223zm5.705-4.447v4.298h-1.093v-7.144h1.056v1.116h.093c.167-.363.419-.654.76-.875.34-.223.778-.335 1.316-.335.482 0 .903.1 1.265.298a2 2 0 01.844.893c.2.397.301.9.301 1.508v4.539h-1.094v-4.466c0-.56-.145-.998-.435-1.311-.291-.316-.69-.474-1.196-.474a1.9 1.9 0 00-.936.227 1.62 1.62 0 00-.644.666c-.158.29-.237.644-.237 1.06zm9.636-2.846v.93h-3.688v-.93h3.688zm-2.614-1.712h1.094v6.81c0 .31.045.543.135.697.092.153.21.254.352.308.145.05.298.074.459.074.12 0 .219-.007.296-.019l.186-.037.222.986a2.174 2.174 0 01-.311.084 2.268 2.268 0 01-.505.047 2.22 2.22 0 01-.908-.2 1.818 1.818 0 01-.733-.61c-.191-.273-.287-.617-.287-1.032v-7.108zm7.168 9.005c-.686 0-1.278-.152-1.775-.456a3.05 3.05 0 01-1.145-1.283c-.265-.552-.399-1.194-.399-1.926 0-.733.134-1.377.399-1.936.269-.56.643-.998 1.122-1.311.482-.316 1.044-.475 1.686-.475.371 0 .738.062 1.099.187.361.124.69.325.987.604.297.276.533.642.709 1.098.176.456.265 1.017.265 1.684v.465h-5.488v-.95h4.376c0-.402-.082-.762-.242-1.078a1.813 1.813 0 00-.677-.749c-.29-.183-.633-.274-1.029-.274-.435 0-.812.108-1.131.325a2.141 2.141 0 00-.727.837 2.482 2.482 0 00-.255 1.107v.634c0 .538.093.996.279 1.371.188.373.449.656.783.852.333.192.721.288 1.163.288.287 0 .546-.04.778-.12.235-.084.438-.209.607-.373a1.7 1.7 0 00.395-.623l1.056.297c-.111.36-.298.677-.56.949a2.74 2.74 0 01-.974.633c-.387.149-.82.223-1.302.223zm7.299 0c-.593 0-1.117-.151-1.571-.451-.454-.304-.81-.732-1.066-1.284-.256-.554-.384-1.21-.384-1.967 0-.75.128-1.402.384-1.954s.613-.979 1.071-1.28c.457-.3.985-.45 1.585-.45.463 0 .83.077 1.098.232.272.152.479.326.621.521.145.192.258.35.338.474h.093v-3.516h1.094v9.526h-1.057v-1.097h-.13c-.08.13-.195.294-.343.493-.148.195-.36.37-.635.526-.275.151-.64.227-1.098.227zm.148-.986c.439 0 .81-.114 1.113-.345.302-.231.533-.552.69-.962.158-.413.237-.888.237-1.428 0-.533-.077-1-.232-1.4-.155-.403-.383-.716-.686-.94-.303-.226-.677-.34-1.122-.34-.463 0-.849.12-1.158.359a2.149 2.149 0 00-.691.962 3.851 3.851 0 00-.227 1.359c0 .509.078.97.232 1.386.157.412.389.742.695.986.309.242.693.363 1.149.363zM656.584 125.52h-1.15a2.387 2.387 0 00-.357-.874 2.392 2.392 0 00-.611-.633 2.607 2.607 0 00-.793-.39 3.15 3.15 0 00-.908-.13c-.575 0-1.095.145-1.562.437-.464.291-.833.72-1.108 1.288-.272.568-.408 1.264-.408 2.088 0 .826.136 1.522.408 2.089.275.568.644.997 1.108 1.289.467.291.987.437 1.562.437.315 0 .617-.043.908-.13.291-.087.555-.216.793-.386a2.458 2.458 0 00.968-1.512h1.15a3.878 3.878 0 01-.473 1.307 3.568 3.568 0 01-1.998 1.591c-.419.14-.87.209-1.348.209-.81 0-1.53-.198-2.16-.595-.63-.397-1.126-.961-1.488-1.694-.361-.731-.542-1.6-.542-2.605 0-1.004.181-1.873.542-2.604.362-.732.858-1.296 1.488-1.694.63-.397 1.35-.595 2.16-.595.478 0 .929.07 1.348.21.423.139.806.344 1.145.613.34.267.624.593.853.977.228.382.386.817.473 1.307zm4.601 6.699c-.643 0-1.207-.154-1.692-.461a3.124 3.124 0 01-1.131-1.288c-.268-.552-.404-1.197-.404-1.935 0-.745.136-1.394.404-1.949a3.114 3.114 0 011.131-1.293c.485-.308 1.049-.461 1.692-.461.642 0 1.204.153 1.686.461.486.307.862.737 1.131 1.293.272.555.408 1.204.408 1.949 0 .738-.136 1.383-.408 1.935a3.076 3.076 0 01-1.131 1.288c-.482.307-1.044.461-1.686.461zm0-.987c.487 0 .889-.125 1.204-.376.315-.251.549-.582.7-.991.151-.409.228-.853.228-1.33a3.85 3.85 0 00-.228-1.335 2.243 2.243 0 00-.7-1c-.315-.255-.717-.382-1.204-.382-.489 0-.89.127-1.206.382a2.251 2.251 0 00-.7 1 3.85 3.85 0 00-.226 1.335c0 .477.075.921.226 1.33.152.409.385.74.7.991.316.251.717.376 1.206.376zm5.988-8.689v9.527h-1.093v-9.527h1.093zm3.097 0v9.527h-1.093v-9.527h1.093zm4.099 9.694a2.9 2.9 0 01-1.229-.255 2.112 2.112 0 01-.875-.75c-.216-.328-.324-.725-.324-1.19 0-.409.08-.742.24-.995.16-.258.376-.46.644-.606.269-.145.566-.253.891-.325.327-.074.656-.133.987-.177a49.48 49.48 0 011.051-.125c.272-.031.47-.083.593-.154.127-.071.19-.195.19-.372v-.037c0-.459-.125-.816-.374-1.07-.248-.255-.623-.382-1.127-.382-.523 0-.932.115-1.228.344-.297.231-.505.475-.626.736l-1.038-.372c.185-.435.432-.772.742-1.015a2.776 2.776 0 011.019-.512 4.227 4.227 0 011.094-.148c.229 0 .491.028.788.084.299.052.588.163.867.33.28.168.513.42.699.758.185.338.279.791.279 1.359v4.707h-1.095v-.968h-.055a1.897 1.897 0 01-.371.498 2.118 2.118 0 01-.69.451c-.288.125-.638.186-1.052.186zm.167-.986c.432 0 .797-.085 1.093-.255a1.744 1.744 0 00.908-1.512v-1.005c-.045.056-.148.107-.305.153a4.775 4.775 0 01-.538.116c-.201.032-.397.059-.589.085-.188.021-.341.04-.458.056-.285.036-.55.097-.797.18a1.398 1.398 0 00-.594.368c-.148.162-.222.382-.222.661 0 .381.141.669.421.865.285.192.645.288 1.081.288zm5.092 3.499v-9.825h1.057v1.135h.129c.08-.124.191-.282.334-.474.145-.196.352-.37.621-.521.272-.156.639-.233 1.103-.233.599 0 1.128.15 1.585.452.457.3.814.727 1.07 1.279.257.552.385 1.203.385 1.953 0 .757-.128 1.413-.385 1.968-.256.552-.611.98-1.066 1.284-.454.3-.978.451-1.571.451-.457 0-.823-.076-1.098-.228a2.037 2.037 0 01-.635-.526 6.984 6.984 0 01-.343-.493h-.093v3.778h-1.093zm1.075-6.252c0 .539.079 1.015.236 1.427.158.41.388.731.691.963.303.23.673.344 1.112.344.458 0 .839-.12 1.145-.363a2.22 2.22 0 00.695-.986c.158-.415.236-.876.236-1.385 0-.503-.077-.956-.231-1.359a2.107 2.107 0 00-.691-.963c-.306-.238-.691-.358-1.154-.358-.445 0-.818.113-1.121.34-.303.223-.532.537-.687.94-.154.399-.231.866-.231 1.4zm11.919-1.973l-.982.279a1.856 1.856 0 00-.273-.479 1.329 1.329 0 00-.482-.39c-.204-.103-.465-.154-.783-.154-.436 0-.799.101-1.089.303-.288.198-.432.451-.432.757 0 .274.099.489.297.647.198.158.507.29.927.396l1.057.26c.636.155 1.111.392 1.423.712.311.316.468.724.468 1.223 0 .41-.117.775-.352 1.098-.232.322-.557.577-.974.763-.417.186-.902.279-1.455.279-.726 0-1.327-.159-1.803-.475-.476-.316-.777-.778-.904-1.385l1.039-.261c.098.384.286.672.561.865.278.192.64.288 1.089.288.51 0 .914-.108 1.213-.325.303-.22.455-.484.455-.791a.828.828 0 00-.26-.623c-.172-.171-.438-.298-.797-.382l-1.187-.279c-.651-.155-1.13-.396-1.436-.721-.303-.329-.454-.739-.454-1.232 0-.404.113-.76.338-1.071.229-.309.539-.553.932-.73a3.27 3.27 0 011.344-.265c.705 0 1.257.155 1.659.466.405.309.692.718.861 1.227zm4.762 5.694c-.686 0-1.278-.152-1.776-.456a3.058 3.058 0 01-1.144-1.284c-.266-.552-.399-1.194-.399-1.925 0-.733.133-1.378.399-1.936a3.162 3.162 0 011.122-1.312c.482-.316 1.044-.474 1.686-.474.371 0 .738.062 1.098.186.362.124.691.326.988.605.297.275.533.642.709 1.098.176.455.264 1.017.264 1.684v.465h-5.487v-.95h4.375c0-.402-.08-.762-.241-1.079a1.808 1.808 0 00-.677-.748 1.888 1.888 0 00-1.029-.275c-.435 0-.812.108-1.13.325a2.145 2.145 0 00-.728.838c-.17.344-.255.714-.255 1.107v.633c0 .539.093.997.278 1.372.189.372.45.656.784.851.333.193.721.288 1.163.288.287 0 .546-.04.779-.12.234-.084.437-.208.606-.373.17-.167.302-.375.395-.623l1.056.298c-.111.36-.298.676-.56.949-.263.27-.588.48-.974.633-.386.149-.82.223-1.302.223zm26.138 9.972h1.372l3.226 7.908h.111l3.225-7.908h1.372v9.527h-1.075v-7.238h-.093l-2.966 7.238h-1.037l-2.967-7.238h-.093v7.238h-1.075v-9.527zm14.354 9.676c-.642 0-1.206-.154-1.691-.46a3.118 3.118 0 01-1.13-1.289c-.27-.552-.404-1.197-.404-1.935 0-.744.134-1.394.404-1.949a3.11 3.11 0 011.13-1.293c.485-.308 1.049-.461 1.691-.461.644 0 1.206.153 1.688.461.484.307.862.738 1.13 1.293.273.555.408 1.205.408 1.949 0 .738-.135 1.383-.408 1.935a3.083 3.083 0 01-1.13 1.289c-.482.306-1.044.46-1.688.46zm0-.986c.489 0 .891-.126 1.206-.376.315-.252.548-.582.7-.991.151-.41.226-.854.226-1.331 0-.478-.075-.922-.226-1.335a2.251 2.251 0 00-.7-1c-.315-.255-.717-.382-1.206-.382-.487 0-.889.127-1.204.382a2.243 2.243 0 00-.7 1 3.831 3.831 0 00-.228 1.335c0 .477.076.921.228 1.331.151.409.385.739.7.991.315.25.717.376 1.204.376zm7.584.986c-.593 0-1.117-.151-1.571-.451-.455-.304-.81-.732-1.066-1.284-.257-.555-.384-1.211-.384-1.967 0-.751.127-1.402.384-1.954.256-.552.613-.979 1.071-1.279.456-.301.985-.452 1.584-.452.464 0 .83.078 1.099.233.272.152.479.326.62.521a7.9 7.9 0 01.339.474h.093v-3.517h1.093v9.527h-1.057v-1.097h-.129c-.08.13-.195.294-.343.493-.148.195-.36.37-.635.526-.275.151-.641.227-1.098.227zm.148-.986c.439 0 .809-.114 1.112-.345.303-.232.533-.553.691-.962.157-.413.237-.888.237-1.428 0-.533-.078-1-.232-1.4-.155-.403-.384-.717-.687-.94-.303-.227-.676-.34-1.121-.34-.463 0-.849.12-1.159.359a2.15 2.15 0 00-.691.962 3.855 3.855 0 00-.226 1.359c0 .509.077.97.231 1.386.158.412.39.741.696.986.309.242.692.363 1.149.363zm7.364 1.005c-.451 0-.86-.086-1.228-.256a2.12 2.12 0 01-.876-.749c-.216-.329-.324-.725-.324-1.19 0-.41.08-.742.241-.996a1.71 1.71 0 01.644-.605c.269-.145.566-.254.89-.326.327-.074.656-.133.987-.177.433-.055.783-.097 1.052-.125.272-.031.469-.082.593-.154.127-.071.191-.195.191-.372v-.036c0-.46-.126-.816-.376-1.071-.247-.254-.623-.382-1.126-.382-.522 0-.931.116-1.229.345-.296.23-.505.474-.625.735l-1.038-.372c.185-.434.433-.772.741-1.014a2.765 2.765 0 011.02-.512c.37-.099.736-.149 1.094-.149.228 0 .491.028.787.084.3.053.589.163.867.33.282.168.515.421.7.758.185.338.278.791.278 1.359v4.707h-1.093v-.967h-.056a1.94 1.94 0 01-.371.497 2.113 2.113 0 01-.691.451c-.287.125-.638.187-1.052.187zm.167-.987c.433 0 .797-.085 1.094-.255a1.737 1.737 0 00.909-1.512v-1.005c-.047.056-.149.107-.306.154a5.007 5.007 0 01-.538.116 25.267 25.267 0 01-1.048.14c-.284.036-.55.097-.797.181a1.377 1.377 0 00-.593.367c-.148.162-.222.382-.222.661 0 .382.14.67.422.865.283.192.644.288 1.079.288zm6.186-8.708v9.527h-1.094v-9.527h1.094zm30.516-57.839h-2.929v-9.527h3.059c.921 0 1.708.19 2.364.572a3.737 3.737 0 011.505 1.633c.35.707.524 1.554.524 2.54 0 .992-.176 1.847-.527 2.563a3.777 3.777 0 01-1.54 1.647c-.673.38-1.492.572-2.456.572zm-1.779-1.024h1.705c.784 0 1.435-.152 1.951-.456a2.804 2.804 0 001.154-1.297c.253-.562.38-1.23.38-2.005 0-.77-.125-1.431-.376-1.986a2.765 2.765 0 00-1.121-1.284c-.497-.301-1.117-.451-1.858-.451h-1.835v7.48zm10.177 1.191c-.451 0-.861-.085-1.228-.256a2.116 2.116 0 01-.877-.749c-.216-.328-.324-.725-.324-1.19 0-.41.081-.742.241-.996.161-.257.376-.459.645-.605.268-.145.565-.254.89-.325.327-.075.656-.134.986-.177.433-.056.784-.098 1.053-.126.272-.03.469-.082.592-.153.127-.071.191-.195.191-.372v-.037c0-.46-.125-.816-.375-1.07-.248-.255-.623-.382-1.127-.382-.522 0-.931.115-1.228.344-.296.23-.505.475-.625.735l-1.039-.372c.186-.434.433-.772.742-1.014a2.78 2.78 0 011.019-.511c.371-.1.736-.15 1.095-.15.228 0 .491.029.787.084.299.053.588.163.867.33.281.168.514.42.699.759.186.338.279.79.279 1.358v4.708h-1.094v-.968h-.055a1.976 1.976 0 01-.371.498 2.156 2.156 0 01-.691.451c-.287.124-.638.186-1.052.186zm.166-.986c.434 0 .798-.085 1.095-.256a1.745 1.745 0 00.908-1.512v-1.004c-.046.055-.149.107-.306.153a5.126 5.126 0 01-.538.116 23.67 23.67 0 01-1.047.14c-.284.037-.55.098-.797.181a1.38 1.38 0 00-.594.368c-.148.161-.222.381-.222.66 0 .382.141.67.422.865.284.193.644.289 1.079.289zm8.189-6.326v.93h-3.689v-.93h3.689zm-2.614-1.712h1.093v6.81c0 .31.045.543.135.698a.7.7 0 00.352.307c.145.05.298.074.459.074.121 0 .22-.006.297-.019l.185-.037.222.986a2.187 2.187 0 01-.31.084 2.271 2.271 0 01-.505.047c-.309 0-.612-.067-.908-.2a1.808 1.808 0 01-.733-.61c-.191-.273-.287-.617-.287-1.032v-7.108zm7.168 9.005c-.687 0-1.278-.151-1.775-.455a3.047 3.047 0 01-1.145-1.284c-.266-.552-.399-1.194-.399-1.926s.133-1.377.399-1.935a3.146 3.146 0 011.121-1.312c.482-.316 1.044-.474 1.687-.474.371 0 .737.062 1.099.186.361.124.69.325.987.605.296.275.532.641.708 1.097.177.456.265 1.017.265 1.684v.465h-5.488v-.949h4.375c0-.403-.08-.763-.24-1.079a1.822 1.822 0 00-.677-.749 1.89 1.89 0 00-1.029-.274c-.436 0-.812.108-1.131.325a2.132 2.132 0 00-.727.838 2.454 2.454 0 00-.256 1.107v.632c0 .54.094.998.279 1.373.188.372.449.656.783.85.334.193.722.29 1.164.29.287 0 .546-.04.778-.122.235-.083.437-.207.607-.372.169-.167.301-.375.394-.623l1.056.298c-.111.36-.298.676-.56.949-.263.27-.587.48-.973.632-.387.15-.82.224-1.302.224zm4.758-.148v-9.527h3.208c.745 0 1.354.135 1.826.405a2.53 2.53 0 011.057 1.084c.228.455.343.964.343 1.525 0 .562-.115 1.072-.343 1.53a2.561 2.561 0 01-1.047 1.099c-.474.27-1.079.404-1.817.404h-2.299V79.85h2.262c.509 0 .919-.089 1.227-.265.31-.177.533-.416.672-.717.143-.304.214-.646.214-1.028 0-.381-.071-.722-.214-1.023a1.523 1.523 0 00-.676-.707c-.312-.174-.726-.26-1.242-.26h-2.021v8.503h-1.15zm8.137 0v-7.145h1.093v7.145h-1.093zm.556-8.336a.778.778 0 01-.552-.219.705.705 0 01-.227-.525c0-.205.076-.38.227-.526a.778.778 0 01.552-.219.76.76 0 01.547.219c.154.146.232.32.232.526a.7.7 0 01-.232.525.76.76 0 01-.547.219zm5.433 8.484c-.667 0-1.243-.158-1.724-.474a3.093 3.093 0 01-1.113-1.307c-.259-.555-.389-1.19-.389-1.903 0-.725.133-1.366.399-1.92a3.151 3.151 0 011.121-1.308c.482-.316 1.044-.474 1.687-.474.501 0 .952.093 1.353.279.402.186.731.446.987.781.257.335.416.726.478 1.172h-1.094a1.7 1.7 0 00-.555-.865c-.285-.254-.668-.381-1.15-.381a1.91 1.91 0 00-1.121.335c-.319.22-.568.532-.747.935-.176.4-.264.87-.264 1.41 0 .551.087 1.032.259 1.441.177.41.424.727.742.954.321.226.699.34 1.131.34.284 0 .542-.05.774-.15a1.595 1.595 0 00.931-1.097h1.094a2.552 2.552 0 01-.459 1.14 2.56 2.56 0 01-.959.8c-.396.195-.856.293-1.381.293zm5.417-2.753l-.018-1.359h.222l3.115-3.181h1.353l-3.318 3.368h-.093l-1.261 1.172zm-1.019 2.605v-9.527h1.094v9.527h-1.094zm4.523 0l-2.78-3.536.778-.763 3.392 4.299h-1.39zm5.267.148c-.686 0-1.277-.151-1.775-.455a3.051 3.051 0 01-1.144-1.284c-.266-.552-.398-1.194-.398-1.926s.132-1.377.398-1.935a3.146 3.146 0 011.121-1.312c.482-.316 1.044-.474 1.687-.474.371 0 .737.062 1.098.186.362.124.691.325.988.605.296.275.533.641.709 1.097.176.456.264 1.017.264 1.684v.465h-5.487v-.949h4.375c0-.403-.08-.763-.242-1.079a1.82 1.82 0 00-.676-.749c-.29-.183-.633-.274-1.029-.274-.435 0-.813.108-1.13.325a2.142 2.142 0 00-.728.838c-.17.344-.255.713-.255 1.107v.632c0 .54.092.998.278 1.373.188.372.449.656.783.85.334.193.721.29 1.163.29.287 0 .547-.04.779-.122.235-.083.437-.207.607-.372.17-.167.302-.375.394-.623l1.057.298c-.112.36-.298.676-.561.949-.263.27-.587.48-.973.632a3.6 3.6 0 01-1.303.224zm4.612-.148v-7.145h1.056v1.079h.075a1.71 1.71 0 01.704-.86c.34-.22.723-.33 1.15-.33a8.652 8.652 0 01.574.018v1.116a3.296 3.296 0 00-.254-.042 2.52 2.52 0 00-.413-.032 1.94 1.94 0 00-.927.218 1.649 1.649 0 00-.64.596 1.614 1.614 0 00-.232.86v4.522h-1.093z" fill="#1C1C1E"/></svg>