<svg width="1140" height="231" fill="none" xmlns="http://www.w3.org/2000/svg"><path d="M8.259 27.11c-1.466-.005-2.728-.366-3.785-1.082-1.05-.715-1.86-1.752-2.429-3.11-.562-1.358-.84-2.992-.835-4.9 0-1.904.281-3.527.844-4.867.568-1.341 1.378-2.361 2.429-3.06 1.057-.705 2.315-1.057 3.776-1.057 1.46 0 2.715.352 3.767 1.057 1.056.705 1.869 1.727 2.437 3.068.568 1.335.85 2.955.844 4.858 0 1.915-.284 3.551-.853 4.91-.562 1.357-1.369 2.394-2.42 3.11-1.051.716-2.31 1.074-3.775 1.074zm0-3.059c1 0 1.798-.503 2.394-1.508.597-1.006.893-2.515.887-4.526 0-1.324-.137-2.426-.41-3.307-.266-.88-.647-1.542-1.141-1.986a2.49 2.49 0 00-1.73-.664c-.995 0-1.79.497-2.387 1.491-.596.995-.898 2.483-.903 4.466 0 1.341.133 2.46.4 3.358.273.892.657 1.563 1.15 2.011a2.521 2.521 0 001.74.665zM25.532 9.273v17.454h-3.69V12.776h-.103l-3.997 2.505v-3.273l4.321-2.735h3.469z" fill="#D1D1D6"/><path d="M19.56 47.911l-.624.168H2.28v2.808h13.848c-1.584 1.416-3.648 2.952-5.52 3.936v10.632c0 .408-.192.552-.72.552s-2.496.024-4.2-.048c.456.768 1.008 2.04 1.152 2.88 2.304.024 4.008-.048 5.208-.48 1.176-.432 1.56-1.2 1.56-2.832v-9.264c3-1.776 6.048-4.32 8.256-6.672l-2.304-1.68zm16.08 6.6c.456.48.936 1.152 1.152 1.632.168-.072.336-.168.504-.24-.288 1.704-.864 3.456-1.656 4.68v-6.072zm-3.696 5.928v-1.992h1.368v1.992h-1.368zm-3.24-1.992h1.368v1.992H28.68c.024-.552.024-1.08.024-1.584v-.408zm2.52-7.656c-.216.6-.432 1.224-.672 1.752h-2.064c.288-.552.552-1.152.816-1.752h1.92zm.72 3.84h1.368v1.8h-1.368v-1.8zm-3.24 0h1.368v1.8h-1.368v-1.8zm18.552 7.68h-4.08v-2.16h3.6v-2.4h-3.6v-2.16h-2.712v2.16h-1.176c.144-.504.24-1.032.336-1.536l-2.136-.432c2.448-1.344 3.36-3.336 3.768-5.832h2.784c-.096 1.992-.216 2.808-.432 3.072-.168.216-.36.264-.648.264-.336 0-.984-.024-1.728-.096.36.6.6 1.56.648 2.304.96.024 1.896 0 2.424-.072.6-.096 1.056-.288 1.464-.792.528-.624.72-2.28.84-6.096.024-.312.048-.912.048-.912H36v2.328h2.688c-.336 1.752-1.056 3.144-3.048 4.056v-1.464h-2.688c.504-.984.984-2.088 1.32-3.024l-1.632-1.008-.36.12h-2.184c.192-.552.36-1.128.504-1.704l-2.52-.528c-.648 2.808-1.92 5.616-3.552 7.368a15.461 15.461 0 011.872 1.536v3.552c0 2.688-.12 6.264-1.728 8.736.528.24 1.56.888 1.968 1.272 1.104-1.728 1.656-4.056 1.896-6.312h4.776v3.456c0 .312-.12.408-.408.408s-1.224 0-2.184-.048c.36.648.744 1.728.816 2.424 1.464 0 2.448-.072 3.192-.48.72-.408.912-1.128.912-2.256v-5.064c.6.264 1.464.72 1.872 1.008.36-.528.672-1.152.96-1.848h1.992v2.16h-4.44v2.448h4.44v3.96h2.712v-3.96h4.08v-2.448zm16.944-9h-8.4v-3.24h8.4v3.24zm2.904-5.976H53.04v8.688h14.064v-8.688zM56.016 60.751v4.128H52.44v-4.128h3.576zm-6.288 8.064h2.712v-1.2h3.576v1.08h2.856v-10.68h-9.144v10.8zm13.92-3.936v-4.128h3.816v4.128h-3.816zm-2.736-6.864v10.8h2.736v-1.2h3.816v1.104h2.88V58.015h-9.432zm17.64-5.304h-1.728v-5.688h-2.568v8.928c0 3.336-.216 8.568-1.632 12.048.696.168 1.92.552 2.496.792.936-2.424 1.392-5.592 1.584-8.544h1.512v8.592h2.616V57.823H76.8c.024-.648.024-1.296.024-1.896v-.816h4.08v-8.688h-2.352v6.288zm6.144 3.768v-1.656h2.064c-.096.504-.216 1.056-.456 1.656h-1.608zm0-5.376h2.136v1.608h-2.136v-1.608zm6.744 1.608h-2.088v-1.608h2.088v1.608zm0 3.768h-2.592c.192-.624.336-1.176.408-1.656h2.184v1.656zm3.744 5.232H91.56V59.24h-2.544v2.472h-3.384a11.33 11.33 0 002.28-2.976h6.264v-9.888h-5.76c.36-.6.744-1.272 1.128-1.992l-3.168-.432c-.216.72-.576 1.632-.96 2.424H82.08v9.888h2.976c-.6.792-1.392 1.536-2.4 2.208.288.192.672.48.984.768h-2.256v2.52h7.632v4.56h2.544v-4.56h3.6l.024-2.52zm6.36-11.664h17.208v-2.592H98.736v6.936c0 3.696-.168 8.904-2.16 12.48.72.264 1.968.96 2.52 1.416 2.112-3.864 2.448-9.888 2.448-13.896v-4.344zm3.048 11.808c-.912 1.56-2.4 3.36-3.768 4.536.696.36 1.824 1.104 2.4 1.536 1.272-1.272 2.928-3.384 4.08-5.208l-2.712-.864zm1.32-4.416h8.256V59h-8.256v-1.56zm0-3.528h8.256v1.536h-8.256v-1.536zm11.208 7.224v-9.36h-6.432c.288-.408.576-.864.864-1.296l-3.432-.408a12.293 12.293 0 01-.744 1.704h-4.248v9.36h5.568v4.8c0 .288-.096.36-.456.36-.312 0-1.488 0-2.544-.024.336.72.696 1.752.792 2.52 1.704 0 2.952 0 3.84-.408.912-.384 1.152-1.08 1.152-2.376v-4.872h5.64zm-4.512 1.872c1.296 1.584 3.072 3.744 3.912 5.016l2.448-1.392c-.936-1.296-2.808-3.36-4.08-4.8l-2.28 1.176zm21.144-13.704v13.512h2.76V49.303h-2.76zm5.64-2.424v18.48c0 .432-.192.576-.648.576-.504 0-2.04 0-3.6-.048.408.792.84 2.112.984 2.952 2.184 0 3.792-.096 4.776-.552.984-.456 1.32-1.248 1.32-2.928V46.88h-2.832zm-15.696 16.152c-.648 1.536-1.824 3.096-3.072 4.152.672.36 1.848 1.2 2.4 1.68 1.248-1.2 2.664-3.168 3.456-5.064l-2.784-.768zm3.888 1.056c1.032 1.32 2.112 3.144 2.568 4.344l2.616-1.224c-.504-1.2-1.608-2.904-2.688-4.152l-2.496 1.032zm-2.736-10.032h4.248v1.992h-4.248v-1.992zm0 4.248h4.248v1.992h-4.248v-1.992zm0-8.448h4.248V51.8h-4.248v-1.944zm-2.712-2.52V62.84h9.792V47.335h-9.792z" fill="#2F80ED"/><path d="M245.858 27.11c-1.465-.005-2.727-.366-3.784-1.082-1.051-.715-1.86-1.752-2.429-3.11-.562-1.358-.84-2.992-.835-4.9 0-1.904.281-3.527.844-4.867.568-1.341 1.378-2.361 2.429-3.06 1.057-.705 2.315-1.057 3.775-1.057 1.461 0 2.716.352 3.768 1.057 1.056.705 1.869 1.727 2.437 3.068.568 1.335.849 2.955.844 4.858 0 1.915-.284 3.551-.852 4.91-.563 1.357-1.37 2.394-2.421 3.11-1.051.716-2.31 1.074-3.776 1.074zm0-3.059c1 0 1.799-.503 2.395-1.508.597-1.006.892-2.515.887-4.526 0-1.324-.137-2.426-.409-3.307-.267-.88-.648-1.542-1.142-1.986a2.493 2.493 0 00-1.731-.664c-.994 0-1.789.497-2.386 1.491-.596.995-.898 2.483-.903 4.466 0 1.341.133 2.46.4 3.358.273.892.657 1.563 1.151 2.011a2.52 2.52 0 001.738.665zm9.68 2.676v-2.659l6.213-5.753a23.27 23.27 0 001.33-1.38c.363-.41.639-.81.827-1.202.187-.398.281-.827.281-1.287 0-.511-.117-.952-.35-1.321a2.296 2.296 0 00-.954-.86 2.994 2.994 0 00-1.372-.308c-.534 0-1 .108-1.398.324a2.232 2.232 0 00-.921.93c-.215.403-.323.883-.323 1.44h-3.503c0-1.143.258-2.134.775-2.975.517-.84 1.242-1.491 2.174-1.952.931-.46 2.005-.69 3.221-.69 1.25 0 2.338.222 3.264.665.932.437 1.657 1.045 2.174 1.824.517.778.775 1.67.775 2.676 0 .659-.13 1.31-.392 1.952-.255.642-.713 1.355-1.372 2.139-.659.778-1.588 1.713-2.787 2.804l-2.548 2.497v.12h7.329v3.016h-12.443z" fill="#D1D1D6"/><path d="M252.264 51.367h2.784v-1.344h5.208v-2.4h-5.208v-1.2h-2.784v1.2h-2.232v2.4h2.232v1.344zm-8.28-.024h2.784V50h2.52v-2.4h-2.52v-1.176h-2.784V47.6h-4.992V50h4.992v1.344zm-.312 6.192h4.344v1.344h-4.344v-1.344zm0-3.216h4.344v1.344h-4.344V54.32zm11.808 1.344h-4.584V54.32h4.584v1.344zm0 3.216h-4.584v-1.344h4.584v1.344zm0 3.744c.168.36.36.792.528 1.2l-1.656.12c.504-.744 1.032-1.632 1.368-2.472l-2.064-.48c-.24 1.128-.84 2.232-1.008 2.568-.216.288-.456.504-.72.576.264.384.576 1.176.696 1.488.36-.12.96-.216 3.96-.48.072.192.144.384.192.528l1.512-.576c-.168.816-.528 1.008-1.248 1.008h-3.744c-1.272 0-1.488-.12-1.488-.864v-4.344h6.6v-8.568h-8.088c.264-.48.576-1.008.888-1.584l-3-.384c-.12.576-.36 1.296-.6 1.968h-6.72v8.568h4.368c-.384 3-1.392 4.704-6.864 5.64.552.552 1.272 1.728 1.488 2.448 6.336-1.368 7.776-3.96 8.232-8.088h.984v4.368c0 2.424.84 3.168 3.888 3.168h4.272c2.64 0 3.384-.984 3.696-4.728-.72-.192-1.848-.576-2.424-1.032-.048 1.08-.096 1.848-.216 2.352-.288-.768-.888-1.992-1.344-2.88l-1.488.48zm17.664-10.704h-4.848v-1.008h4.848v1.008zm0 2.808h-4.848v-.96h4.848v.96zm0 2.904h-4.848v-1.056h4.848v1.056zm-7.68 2.808h2.832v-.648h15.48v-2.16h-7.896v-1.056h6.264v-1.848h-6.264v-.96h6.24V51.92h-6.24v-1.008h7.32v-2.184h-6.816a16.47 16.47 0 00-1.152-2.472l-2.688.744c.264.528.528 1.128.744 1.728h-3.696c.408-.6.792-1.2 1.152-1.8l-2.904-.552c-1.08 2.064-3.024 4.536-5.688 6.432.648.36 1.56 1.272 2.016 1.872.432-.36.864-.72 1.296-1.104v6.864zm3.744 3.528c-1.488.888-4.344 1.68-6.792 2.016.576.528 1.368 1.536 1.776 2.184 2.52-.576 5.448-1.848 7.152-3.216l-2.136-.984zm15.168-.456v-2.28h-9.408v-1.224h-2.832v1.224h-9.312v2.28h9.312v5.256h2.832v-5.256h9.408zm-8.544 1.896c2.208.816 5.304 2.064 6.84 2.808l1.752-1.872c-1.656-.768-4.824-1.896-6.936-2.592l-1.656 1.656zM296.28 46.76v2.664h3.816c.84 2.016 2.064 4.032 3.624 5.736h-12.432c1.56-2.04 2.88-4.536 3.768-7.224l-3-.72c-1.104 3.6-3.24 6.816-5.952 8.76.672.48 1.896 1.536 2.4 2.112a20.266 20.266 0 001.8-1.728v1.584h4.056c-.48 3.48-1.728 6.648-7.152 8.4.696.648 1.536 1.824 1.896 2.64 6.216-2.328 7.776-6.432 8.376-11.04h4.728c-.216 4.992-.48 7.128-.96 7.656-.264.288-.528.336-.96.336-.6 0-1.848-.024-3.168-.12.504.816.888 2.016.936 2.88 1.416.048 2.808.048 3.624-.072.936-.12 1.584-.36 2.184-1.152.84-.984 1.128-3.744 1.392-10.824.576.504 1.2.984 1.824 1.392.456-.816 1.44-2.04 2.016-2.64-3.336-1.728-5.784-5.136-6.888-8.64h-5.928zm32.928 8.208h-4.632v-1.464h4.632v1.464zm0 3.456h-4.632v-1.488h4.632v1.488zm0 3.456h-4.632v-1.488h4.632v1.488zm-7.2-10.512v12.648h9.888V51.367h-4.224c.192-.504.384-1.032.576-1.584h4.368v-2.448h-11.328v2.448h3.96a37.23 37.23 0 01-.336 1.584h-2.904zm-3.312-4.008c-.24.912-.696 2.208-1.08 3.096l1.824.6c.456-.792 1.032-1.968 1.608-3.096l-2.352-.6zm-4.512 2.784c-.168-.816-.72-1.992-1.296-2.88l-1.92.696c.528.936 1.056 2.16 1.2 2.976l2.016-.792zm.6 7.8h2.472v-2.448c.84.744 2.232 2.088 2.832 2.808l1.512-1.8c-.504-.384-2.496-1.824-3.144-2.208l-1.2.888v-1.44h3.888v-2.256h-3.888v-4.92h-2.472v4.92h-4.152v2.256h4.152v4.2zm-1.872-3.72c-.576 1.128-1.704 2.352-2.808 3 .528.36 1.248 1.2 1.632 1.776 1.176-.912 2.28-2.616 2.88-4.152l-1.704-.624zm7.944 11.664c-.912-.72-2.688-1.8-4.08-2.568.048-.216.096-.408.12-.624h4.344v-2.352h-1.128l.792-.576c-.336-.504-1.08-1.296-1.728-1.8L317.64 59c.432.384.864.888 1.248 1.344h-1.848v-1.92h-2.448v1.92h-3.912v2.352h3.696c-.408 1.416-1.464 2.88-4.224 3.912.504.48 1.176 1.464 1.44 2.04 2.16-.864 3.504-2.016 4.272-3.24 1.296.816 2.688 1.776 3.456 2.448l1.536-1.968zm3.456-1.752c-.84 1.008-2.52 2.328-3.96 3a25.97 25.97 0 011.824 1.8c1.536-.72 3.384-2.112 4.464-3.312l-2.328-1.488zm2.88 1.44c1.296.96 3.048 2.376 3.84 3.264l2.16-1.536c-.888-.912-2.664-2.232-3.984-3.12l-2.016 1.392z" fill="#2F80ED"/><path d="M483.458 27.11c-1.465-.005-2.727-.366-3.784-1.082-1.051-.715-1.86-1.752-2.429-3.11-.562-1.358-.841-2.992-.835-4.9 0-1.904.281-3.527.844-4.867.568-1.341 1.378-2.361 2.429-3.06 1.057-.705 2.315-1.057 3.775-1.057 1.461 0 2.716.352 3.768 1.057 1.056.705 1.869 1.727 2.437 3.068.568 1.335.849 2.955.844 4.858 0 1.915-.284 3.551-.853 4.91-.562 1.357-1.369 2.394-2.42 3.11-1.051.716-2.31 1.074-3.776 1.074zm0-3.059c1 0 1.799-.503 2.395-1.508.597-1.006.892-2.515.887-4.526 0-1.324-.137-2.426-.409-3.307-.267-.88-.648-1.542-1.142-1.986a2.493 2.493 0 00-1.731-.664c-.994 0-1.789.497-2.386 1.491-.596.995-.898 2.483-.903 4.466 0 1.341.133 2.46.4 3.358.273.892.657 1.563 1.151 2.011a2.52 2.52 0 001.738.665zm16.132 2.915c-1.273 0-2.406-.219-3.401-.656-.988-.444-1.77-1.051-2.343-1.824-.569-.779-.861-1.676-.878-2.693h3.716c.022.426.162.8.417 1.125.262.318.608.565 1.04.741a3.83 3.83 0 001.457.264c.563 0 1.06-.1 1.492-.298a2.44 2.44 0 001.014-.827c.244-.352.367-.758.367-1.218 0-.466-.131-.878-.392-1.236-.256-.364-.625-.648-1.108-.853-.478-.204-1.046-.306-1.705-.306h-1.628v-2.71h1.628c.557 0 1.048-.097 1.474-.29.432-.193.767-.46 1.006-.801a2.08 2.08 0 00.358-1.21 2.095 2.095 0 00-1.185-1.935c-.369-.188-.801-.282-1.295-.282-.5 0-.957.091-1.372.273a2.397 2.397 0 00-.997.759c-.25.33-.384.716-.401 1.159h-3.537c.017-1.006.304-1.892.861-2.66.557-.766 1.307-1.366 2.25-1.798.949-.437 2.02-.656 3.213-.656 1.205 0 2.259.219 3.162.656.903.438 1.605 1.029 2.105 1.773.506.739.756 1.568.75 2.489.006.977-.298 1.792-.912 2.446-.608.653-1.4 1.068-2.378 1.244v.136c1.284.165 2.262.611 2.932 1.338.676.722 1.011 1.625 1.006 2.71.005.995-.281 1.879-.861 2.651-.574.773-1.366 1.381-2.378 1.824-1.011.443-2.17.665-3.477.665z" fill="#D1D1D6"/><path d="M492.96 62.407a9.126 9.126 0 01-1.512 1.68c-1.08-.6-2.184-1.152-3.192-1.68h4.704zm1.704-1.968l-.432.072h-7.8v1.896h.576l-.96 1.152c1.032.552 2.16 1.2 3.336 1.848-1.248.624-2.712 1.08-4.272 1.344.456.528.96 1.44 1.2 2.064 1.992-.456 3.84-1.128 5.352-2.064a51.153 51.153 0 013.264 2.088l1.44-1.896c-.72-.48-1.704-1.08-2.784-1.68 1.152-1.128 2.04-2.52 2.64-4.272l-1.56-.552zm1.248-11.52c-.648.768-1.752 1.776-2.664 2.496a17.815 17.815 0 01-1.272-1.08c.912-.648 1.944-1.512 2.928-2.328l-2.04-1.464c-.576.672-1.464 1.536-2.256 2.208a9.76 9.76 0 01-1.368-2.256l-2.28.672c1.152 2.568 2.76 4.704 4.848 6.36h-4.584v1.704c0 1.08-.216 2.232-1.704 3.216v-4.776h-3.144c1.944-1.464 3.552-3.336 4.512-5.688l-1.752-.864-.48.12h-6.264v2.232h4.728c-.408.552-.888 1.056-1.392 1.536-.696-.528-1.704-1.104-2.52-1.512l-1.632 1.512c.72.408 1.584.96 2.232 1.44-1.248.792-2.616 1.44-4.032 1.848.504.504 1.2 1.464 1.536 2.088a19.282 19.282 0 002.184-.936v.384h3.48v1.68h-4.248c-.216 1.896-.6 4.272-.936 5.832h5.04c-.168 1.632-.384 2.4-.672 2.664-.216.216-.48.24-.864.24-.528 0-1.704-.024-2.904-.12.432.648.768 1.632.816 2.376 1.272.048 2.52.048 3.168-.024.84-.048 1.416-.24 1.92-.792.624-.624.912-2.184 1.176-5.424.024-.336.048-.984.048-.984h-4.992c.072-.528.144-1.104.24-1.656h4.752v-.72c.48.432 1.176 1.128 1.44 1.536 1.992-1.272 2.568-3.072 2.64-4.752h2.208v1.392c0 1.944.384 2.76 2.4 2.76h1.488c.504 0 1.056-.024 1.392-.144-.096-.552-.144-1.368-.192-1.944-.312.096-.888.12-1.224.12h-1.176c-.312 0-.36-.192-.36-.768V55.04c.864.456 1.752.84 2.736 1.152.384-.696 1.104-1.704 1.704-2.256a17.303 17.303 0 01-3.432-1.344c.888-.624 1.92-1.392 2.832-2.208l-2.064-1.464zm18.072 7.92h4.416v1.44h-4.416v-1.44zm0-3.48h4.416v1.392h-4.416V53.36zm0-3.504h4.416v1.392h-4.416v-1.392zm-5.04 11.592c1.08 1.008 2.496 2.472 3.168 3.336l2.064-1.728c-.576-.672-1.608-1.68-2.544-2.544h9.504V47.6h-9.744v12.696l-.48-.432-1.968 1.584zm-4.584-.648h2.712v-5.016c.864.792 1.752 1.656 2.304 2.256l1.488-2.28c-.552-.456-2.832-2.088-3.792-2.64v-.888h3.384v-2.424h-3.384v-3.384h-2.712v3.384h-3.936v2.424h3.48c-.936 2.088-2.496 4.176-4.08 5.352.576.456 1.416 1.344 1.824 1.968.984-.864 1.896-2.064 2.712-3.48V60.8zm-1.752 6.696c.84-1.392 1.536-3.528 2.016-5.232l-2.544-1.008c-.408 1.704-1.224 3.672-2.088 4.944l2.616 1.296zm7.248-1.68c-1.296 0-1.536-.096-1.536-.816v-3.24h-2.808v3.288c0 2.496.816 3.288 4.08 3.288h4.32c2.64 0 3.432-.84 3.792-4.272-.792-.144-1.992-.552-2.568-1.008-.144 2.424-.312 2.76-1.44 2.76h-3.84zm7.176-3.72c.936 1.608 2.256 3.72 2.832 4.992l2.664-1.368c-.648-1.248-2.04-3.288-3-4.776l-2.496 1.152zm18.912-3.624c0 .216-.072.264-.288.264-.216.024-.912.024-1.536-.024.24.504.528 1.2.624 1.752 1.176 0 2.112 0 2.736-.288.648-.312.84-.72.84-1.704V52.4h-.912v-.048h-2.664V50.6h3.768v-2.352h-3.768v-1.632h-2.424v7.968h3.624v3.888zm-3.288-3.312c-.096 1.272-.288 2.496-.888 3.384.504.264 1.44.816 1.8 1.128.672-1.008 1.056-2.592 1.224-4.152l-2.136-.36zm13.584 5.52h-2.088c.192-3.6.312-8.952.312-13.224h-5.376v2.448h2.76c-.024.696-.024 1.368-.024 2.064h-2.496v2.352h2.424l-.072 2.064h-2.52v2.352h2.424c-.048.696-.072 1.32-.12 1.944h-12.528l-.072-2.016h2.592v-2.328h-2.664l-.072-2.064h2.664v-2.328h-2.736l-.072-2.16c1.08-.288 2.208-.576 3.216-.936l-1.224-2.328c-1.224.576-3.072 1.296-4.584 1.776l.408 12.384h-2.16v2.64h6.552c-1.608 1.176-4.368 2.544-6.48 3.336.528.6 1.224 1.536 1.584 2.136 2.352-.936 5.352-2.448 7.416-3.816l-2.016-1.656h7.128l-1.272 1.656c2.376 1.152 5.016 2.688 6.552 3.744l1.896-2.184c-1.464-.912-3.864-2.16-6.12-3.216h6.768v-2.64zm19.896-7.128c-.384 2.448-.984 4.584-1.872 6.408-.96-1.728-1.728-3.696-2.28-5.76.072-.216.168-.432.24-.648h3.912zm4.272 0V50.84h-7.32c.336-1.272.6-2.616.84-3.96l-2.904-.48c-.576 3.864-1.68 7.512-3.552 9.84v-9.456h-2.832v13.152l-2.544.768V48.991h-2.808V60.56c0 .984-.432 1.44-.888 1.704.432.624.912 1.92 1.104 2.616.528-.432 1.32-.864 5.136-2.208v6.192h2.832V56.815c.6.624 1.416 1.68 1.728 2.232.432-.528.864-1.104 1.248-1.728.6 1.92 1.368 3.672 2.28 5.232-1.296 1.704-2.904 3.024-4.992 4.032.576.528 1.512 1.728 1.848 2.328 1.896-1.056 3.48-2.352 4.752-3.936 1.224 1.536 2.64 2.808 4.296 3.768.432-.768 1.32-1.848 1.944-2.352-1.8-.912-3.312-2.208-4.584-3.816 1.416-2.472 2.352-5.472 2.976-9.024h1.44zm6.384-1.776a21.137 21.137 0 001.488-1.8c.864.576 1.752 1.2 2.568 1.8h-4.056zm-1.368 2.16h6.192V52.4c.456.36.84.696 1.152 1.008l1.536-2.064c-1.056-.96-3-2.28-4.776-3.336.144-.264.264-.552.408-.816l-2.352-.84c-1.176 2.448-3.456 4.704-5.688 6.024.672.528 1.44 1.392 1.848 2.04.552-.384 1.128-.84 1.68-1.32v.84zm-.768 2.88h1.224v2.448h-1.224v-2.448zm3.72 7.704c-.432-.576-1.32-1.392-2.112-1.992.096-.456.168-.936.24-1.44h1.248v-6.096h-4.872v6.096h1.296c-.288 2.472-1.008 4.608-2.352 5.976.504.36 1.344 1.2 1.704 1.608.984-1.056 1.728-2.424 2.208-4.008.504.456.96.96 1.224 1.368l1.416-1.512zm11.784-12.648c-.216 2.424-.552 4.56-1.104 6.456-.672-1.992-1.152-4.176-1.512-6.456h2.616zm-10.152 4.944h1.272v2.448h-1.272v-2.448zm14.04-4.944v-2.448h-5.712c.24-.888.48-1.776.672-2.688l-2.52-.528c-.648 3.432-1.848 6.744-3.576 8.784h-4.704v6.096h1.296c-.288 2.568-1.008 4.632-2.64 5.952.504.36 1.368 1.224 1.68 1.632 1.2-1.032 2.016-2.4 2.544-4.08.624.552 1.176 1.128 1.512 1.584l1.584-1.488c-.528-.648-1.56-1.584-2.52-2.328.072-.384.144-.816.192-1.272h1.296v-5.856c.552.48 1.272 1.224 1.608 1.656.384-.456.72-.984 1.056-1.512.504 2.28 1.104 4.416 1.896 6.312-1.2 2.208-2.976 3.912-5.472 5.136.552.504 1.464 1.608 1.752 2.16 2.16-1.224 3.792-2.712 5.064-4.56 1.008 1.704 2.232 3.168 3.744 4.296.408-.696 1.248-1.68 1.848-2.16-1.68-1.152-3.048-2.784-4.128-4.824 1.176-2.688 1.848-5.928 2.232-9.864h1.296z" fill="#2F80ED"/><path d="M721.059 27.11c-1.466-.005-2.728-.366-3.785-1.082-1.051-.715-1.86-1.752-2.428-3.11-.563-1.358-.841-2.992-.836-4.9 0-1.904.282-3.527.844-4.867.568-1.341 1.378-2.361 2.429-3.06 1.057-.705 2.315-1.057 3.776-1.057 1.46 0 2.715.352 3.767 1.057 1.056.705 1.869 1.727 2.437 3.068.568 1.335.85 2.955.844 4.858 0 1.915-.284 3.551-.852 4.91-.563 1.357-1.37 2.394-2.421 3.11-1.051.716-2.31 1.074-3.775 1.074zm0-3.059c1 0 1.798-.503 2.394-1.508.597-1.006.893-2.515.887-4.526 0-1.324-.137-2.426-.409-3.307-.267-.88-.648-1.542-1.142-1.986a2.492 2.492 0 00-1.73-.664c-.995 0-1.79.497-2.387 1.491-.596.995-.898 2.483-.903 4.466 0 1.341.133 2.46.4 3.358.273.892.657 1.563 1.151 2.011a2.521 2.521 0 001.739.665zm9.415-.392v-2.906l7.287-11.48h2.506v4.023h-1.483l-4.594 7.27v.136h10.355v2.957h-14.071zm8.378 3.068v-3.954l.068-1.287V9.273h3.46v17.454h-3.528z" fill="#D1D1D6"/><path d="M717.36 51.631h14.76v3.312h2.952v-6h-8.328c-.264-.864-.768-1.944-1.248-2.784l-2.88.792c.312.624.6 1.32.84 1.992h-8.904v6h2.808v-3.312zM726.288 62h6.576v-2.688h-6.576V56.48h5.112v-2.736h-13.2v2.736h5.112v8.136c-1.392-.72-2.496-1.872-3.216-3.84a33.15 33.15 0 00.504-2.904l-2.904-.264c-.432 4.08-1.632 7.416-4.224 9.36.648.384 1.872 1.392 2.328 1.896 1.368-1.176 2.424-2.736 3.216-4.608 2.184 3.48 5.472 4.224 9.96 4.224h5.976c.144-.864.6-2.232 1.032-2.904-1.632.048-5.592.048-6.864.048-1.008 0-1.944-.048-2.832-.168V62zm29.304.168a9.136 9.136 0 01-1.752 1.536c-.288-.456-.528-.984-.744-1.536h2.496zm-10.056-2.088v-1.248c1.2-.168 2.328-.36 3.312-.576l-1.56-1.608h7.104l-1.488 1.56c1.2.432 2.568 1.2 3.504 1.872h-3.96a18.144 18.144 0 01-.408-3.12h-2.736c.072 1.08.192 2.136.384 3.12h-4.152zm10.488 2.088h3.6V60.08h-2.352l1.272-1.416c-.864-.672-2.472-1.512-3.792-2.016h4.752v-2.16h-9.288V53.6h6.96v-1.968h-6.96v-.864h8.232v-2.112h-4.152a32 32 0 001.248-1.704l-3.168-.6c-.216.672-.648 1.584-1.056 2.304h-4.824c-.264-.672-.864-1.608-1.464-2.232l-2.496.792c.336.432.648.936.912 1.44H739.2v2.112h8.088v.864h-6.816V53.6h6.816v.888h-9.168v2.16h8.808c-2.112.48-5.52.816-8.448.984.24.48.504 1.224.6 1.704a51.906 51.906 0 003.744-.216v.96h-4.752v2.088h4.752v1.056c-1.824.096-3.504.168-4.824.216l.216 2.184c1.344-.096 2.928-.192 4.608-.336v.96c0 .312-.12.408-.48.408-.36.024-1.68.048-2.712-.024a9.25 9.25 0 01.816 2.184c1.776 0 3-.024 3.936-.36.888-.312 1.152-.864 1.152-2.136v-1.224l3.576-.288.024-1.92-3.6.192v-.912h4.68a13.44 13.44 0 001.2 2.856c-1.488.648-3.168 1.152-4.824 1.512.456.552 1.128 1.68 1.392 2.256a27.137 27.137 0 004.872-1.848c1.152 1.176 2.52 1.848 4.104 1.848 1.896 0 2.688-.576 3.072-3.264-.648-.192-1.536-.6-2.088-1.104-.12 1.344-.264 1.776-.84 1.776-.624 0-1.224-.24-1.8-.696 1.08-.768 2.064-1.632 2.808-2.616l-2.088-.72zm14.112-8.472h-7.344v2.16h7.344V54.68c.552.48 1.296 1.32 1.56 1.776 3-1.608 3.672-4.296 3.672-6.624v-.024h2.88v2.568c0 2.376.432 3.384 2.688 3.384h1.248c.48 0 1.008-.024 1.344-.168a68.152 68.152 0 01-.192-2.376c-.312.096-.84.168-1.176.168h-.96c-.288 0-.336-.288-.336-.984v-5.232h-8.088v2.568c0 1.56-.288 3.216-2.64 4.512v-.552zm.984-3.336h-4.56l1.608-.864c-.36-.888-1.104-2.208-1.752-3.192l-2.232 1.032c.552.912 1.176 2.112 1.536 3.024h-3.96v2.256h9.36V50.36zm-.936 6.552h-7.392v2.16h7.392v-2.16zm9.216 2.52a11.29 11.29 0 01-2.568 3.408c-1.176-.984-2.136-2.112-2.832-3.408h5.4zm-11.712 5.76h-2.448v-2.688h2.448v2.688zm13.56-8.544l-.48.12H770.76v2.664h2.232l-1.56.552c.84 1.704 1.896 3.216 3.144 4.464-1.32.768-2.808 1.32-4.416 1.704v-5.928h-7.344v8.28h2.424v-1.008h4.92v-.864a14.01 14.01 0 011.104 2.136c2.064-.552 3.936-1.368 5.568-2.424 1.608 1.056 3.456 1.848 5.568 2.352.384-.768 1.152-1.992 1.752-2.568a18.107 18.107 0 01-4.968-1.728c1.728-1.752 3.048-4.032 3.84-6.984l-1.776-.768zm15.072-6.288h-5.064l1.584-.864c-.36-.888-1.104-2.208-1.752-3.192l-2.232 1.032c.552.912 1.176 2.112 1.536 3.024h-4.176v2.256h10.104V50.36zm-1.008 5.496v-2.16h-8.04v2.16h8.04zm-.048 1.056h-7.992v2.16h7.992v-2.16zm-2.376 5.592v2.688h-3.12v-2.688h3.12zm2.472-2.28h-7.992v8.28h2.4v-1.008h5.592v-7.272zm12.48-5.856h-4.44v-7.536h-2.976v7.536h-4.2v2.808h4.2v11.64h2.976v-11.64h4.44v-2.808z" fill="#2F80ED"/><path d="M958.659 27.11c-1.466-.005-2.728-.366-3.785-1.082-1.051-.715-1.86-1.752-2.429-3.11-.562-1.358-.84-2.992-.835-4.9 0-1.904.282-3.527.844-4.867.568-1.341 1.378-2.361 2.429-3.06 1.057-.705 2.315-1.057 3.776-1.057 1.46 0 2.715.352 3.767 1.057 1.056.705 1.869 1.727 2.437 3.068.568 1.335.85 2.955.844 4.858 0 1.915-.284 3.551-.852 4.91-.563 1.357-1.37 2.394-2.421 3.11-1.051.716-2.31 1.074-3.775 1.074zm0-3.059c1 0 1.798-.503 2.394-1.508.597-1.006.892-2.515.887-4.526 0-1.324-.137-2.426-.409-3.307-.267-.88-.648-1.542-1.142-1.986a2.492 2.492 0 00-1.73-.664c-.995 0-1.79.497-2.387 1.491-.596.995-.898 2.483-.903 4.466 0 1.341.133 2.46.4 3.358.273.892.657 1.563 1.151 2.011a2.521 2.521 0 001.739.665zm16.054 2.915c-1.204 0-2.278-.222-3.221-.665-.938-.443-1.682-1.054-2.233-1.832-.551-.779-.838-1.67-.861-2.676h3.579c.04.676.324 1.224.853 1.645.528.42 1.156.63 1.883.63.58 0 1.091-.128 1.534-.383a2.745 2.745 0 001.049-1.083c.255-.466.383-1 .383-1.602 0-.614-.131-1.153-.392-1.62a2.776 2.776 0 00-1.065-1.09c-.455-.262-.975-.395-1.56-.4a3.7 3.7 0 00-1.491.315c-.478.21-.85.497-1.117.86l-3.281-.588.827-9.204h10.67v3.017h-7.628l-.451 4.372h.102c.307-.432.77-.79 1.389-1.074.619-.284 1.312-.426 2.08-.426 1.051 0 1.988.247 2.812.741a5.344 5.344 0 011.952 2.037c.477.858.713 1.847.707 2.966.006 1.176-.267 2.222-.818 3.137-.546.909-1.31 1.625-2.293 2.147-.977.517-2.113.776-3.409.776z" fill="#D1D1D6"/><path d="M955.56 61.735c.048-.552.072-1.056.072-1.56h3.936v1.56h-4.008zm4.008-5.328v1.656h-3.936v-1.656h3.936zm2.76-2.232h-9.264v5.496c0 2.352-.144 5.376-1.632 7.536.576.288 1.704 1.152 2.136 1.608.96-1.368 1.512-3.168 1.776-4.992h4.224v2.136c0 .288-.096.384-.384.384-.312.024-1.272.024-2.16-.024.36.648.768 1.704.912 2.424 1.464 0 2.568-.048 3.336-.456.816-.408 1.056-1.08 1.056-2.304V54.175zm6.84 11.448c0 .336-.12.432-.504.432-.408.024-1.656.024-2.88-.024.432.744.888 1.92 1.032 2.688 1.728.024 3.024-.048 3.936-.48.96-.456 1.224-1.152 1.224-2.568V53.743h-2.808v11.88zm-2.16-11.208h-2.616v9.792h2.616v-9.792zm1.368-4.464c.6-.84 1.248-1.776 1.824-2.712l-3.096-.912a26.906 26.906 0 01-1.968 3.624h-6.672l1.32-.456c-.408-.912-1.368-2.208-2.232-3.12l-2.712.936a16.095 16.095 0 011.8 2.64h-5.112v2.568h21.72v-2.568h-4.872zm28.32-2.376h-2.712v3.672h-2.304v-4.752h-2.736v4.752h-2.184v-3.672h-2.616v6.12h12.552v-6.12zM983.52 50.6h-3.768l1.776-.576c-.288-.936-.912-2.328-1.536-3.36l-2.352.648c.48 1.008 1.056 2.328 1.32 3.288h-3.504v2.616h8.064V50.6zm-4.56 11.472c-.072-2.184-.408-5.4-.84-7.944l-2.088.36c.384 2.52.696 5.76.696 7.968l2.232-.384zm2.736.432c.456-2.376.984-5.496 1.344-8.136l-2.4-.36c-.192 2.688-.6 6.456-1.056 8.928-1.68.36-3.216.672-4.416.888l.576 2.832c2.256-.552 5.136-1.224 7.8-1.872l-.288-2.64-1.56.36zm12.816 3.888c0 .192-.048.264-.264.264-.144 0-.6 0-1.056-.024V61.28h1.32v5.112zm2.952-8.976v-2.52h-14.16v2.52h5.256a14.823 14.823 0 01-.288 1.488h-4.464v9.888h2.544V61.28h1.248v7.344h2.16V61.28h1.296v7.32h2.136v-1.8c.264.624.528 1.44.624 2.064 1.032 0 1.8-.024 2.4-.408.648-.384.792-.984.792-2.04v-7.512h-5.832l.624-1.488h5.664zm9.436-8.064v1.224h-3.77v-1.224h3.77zm-3.77 4.392v-1.32h3.77v1.32h-3.77zm6.45 2.064v-8.496h-9.24v21.504h2.79V55.807h6.45zm-.38 5.28v-1.8h2.23v1.8h-2.23zm7.37 2.328v-2.328h-2.64v-1.8h2.25v-2.256h-11.59v2.256h2.19v1.8h-2.52v2.328h2.42c-.24 1.224-.91 2.784-2.45 3.744.55.384 1.42 1.128 1.83 1.632 2.04-1.392 2.83-3.72 3.07-5.376h2.3v4.944h2.5v-4.944h2.64zm-2.69-9.624v-1.368h3.89v1.368h-3.89zm3.89-4.44v1.224h-3.89v-1.224h3.89zm2.81-2.04h-9.41v8.544h6.6v9.6c0 .336-.12.48-.51.48-.36.024-1.53.024-2.61-.024.38.744.77 2.04.86 2.832 1.83 0 3.07-.072 3.94-.552.86-.456 1.13-1.248 1.13-2.712V47.311zm19.58 15.096a9.261 9.261 0 01-1.51 1.68c-1.08-.6-2.19-1.152-3.19-1.68h4.7zm1.7-1.968l-.43.072h-7.8v1.896h.58l-.96 1.152c1.03.552 2.16 1.2 3.33 1.848-1.24.624-2.71 1.08-4.27 1.344.46.528.96 1.44 1.2 2.064 1.99-.456 3.84-1.128 5.35-2.064 1.3.768 2.45 1.512 3.27 2.088l1.44-1.896c-.72-.48-1.71-1.08-2.79-1.68 1.16-1.128 2.04-2.52 2.64-4.272l-1.56-.552zm1.25-11.52c-.65.768-1.75 1.776-2.66 2.496-.43-.336-.87-.696-1.27-1.08.91-.648 1.94-1.512 2.92-2.328l-2.04-1.464c-.57.672-1.46 1.536-2.25 2.208a9.836 9.836 0 01-1.37-2.256l-2.28.672c1.15 2.568 2.76 4.704 4.85 6.36h-4.59v1.704c0 1.08-.21 2.232-1.7 3.216v-4.776h-3.14c1.94-1.464 3.55-3.336 4.51-5.688l-1.75-.864-.48.12h-6.27v2.232h4.73c-.41.552-.89 1.056-1.39 1.536-.7-.528-1.71-1.104-2.52-1.512l-1.63 1.512c.72.408 1.58.96 2.23 1.44-1.25.792-2.62 1.44-4.03 1.848.5.504 1.2 1.464 1.53 2.088.75-.264 1.47-.576 2.19-.936v.384h3.48v1.68h-4.25c-.22 1.896-.6 4.272-.94 5.832h5.04c-.17 1.632-.38 2.4-.67 2.664-.22.216-.48.24-.86.24-.53 0-1.71-.024-2.91-.12.43.648.77 1.632.82 2.376 1.27.048 2.52.048 3.17-.024.84-.048 1.41-.24 1.92-.792.62-.624.91-2.184 1.17-5.424.03-.336.05-.984.05-.984h-4.99c.07-.528.14-1.104.24-1.656h4.75v-.72c.48.432 1.18 1.128 1.44 1.536 1.99-1.272 2.57-3.072 2.64-4.752h2.21v1.392c0 1.944.38 2.76 2.4 2.76h1.49c.5 0 1.05-.024 1.39-.144-.1-.552-.15-1.368-.19-1.944-.32.096-.89.12-1.23.12h-1.17c-.32 0-.36-.192-.36-.768V55.04c.86.456 1.75.84 2.73 1.152.39-.696 1.11-1.704 1.71-2.256a17.329 17.329 0 01-3.44-1.344c.89-.624 1.92-1.392 2.84-2.208l-2.07-1.464z" fill="#2F80ED"/><path d="M1140 104.727l-10-5.773V110.5l10-5.774zm-1140 1h1131v-2H0v2z" fill="#1C1C1E"/><circle cx="6" cy="104.727" r="5" fill="#fff" stroke="#1C1C1E" stroke-width="2"/><circle cx="243" cy="104.727" r="5" fill="#fff" stroke="#1C1C1E" stroke-width="2"/><circle cx="480" cy="104.727" r="5" fill="#fff" stroke="#1C1C1E" stroke-width="2"/><circle cx="717" cy="104.727" r="5" fill="#fff" stroke="#1C1C1E" stroke-width="2"/><circle cx="954" cy="104.727" r="5" fill="#fff" stroke="#1C1C1E" stroke-width="2"/><path d="M9.28 149.927v9.44c0 .36-.14.46-.56.48-.46.02-2 .04-3.68-.02.24.42.52 1.08.6 1.5 2.04.02 3.38 0 4.16-.24.78-.24 1.04-.68 1.04-1.7v-9.46H9.28zm-7.36-5.42v1.46h14.46v-1.46H1.92zm14 0v.36c-1.34 1.62-4.2 3.84-6.64 5.06.3.24.76.72 1 1.04 2.64-1.32 5.66-3.6 7.56-5.7l-1.16-.86-.34.1h-.42zm8.04 3.5v1.18h5.78v-1.18h-5.78zm0 3.4v1.14h5.78v-1.14h-5.78zm0 3.48v1.18h5.78v-1.18h-5.78zm8.52-2.48v1.3h7.62v-1.3h-7.62zm-7.48-7.68v1.18h3.32v-1.18H25zm6.2-.78v1.28h7.82v-1.28H31.2zm-.24 12.2v1.34h9.48v-1.34h-9.48zm4.22-5.8v10.9h1.44v-10.9h-1.44zm-8.74-1.76v6.8h1.08v-6.8h-1.08zm12.1-4.64v.2c-.14 3.14-.3 4.3-.56 4.6-.12.16-.3.2-.58.18-.28 0-1 0-1.8-.08.18.34.32.86.34 1.26.84.04 1.68.04 2.08 0 .52-.04.82-.16 1.1-.5.42-.46.62-1.76.76-5.1.02-.18.02-.56.02-.56h-1.36zm-5.98 6.58c-.34 1.7-.96 3.38-1.82 4.5.32.16.92.46 1.18.64.84-1.2 1.54-3.02 1.94-4.88l-1.3-.26zm-7.6-7.6c-.6 2.46-1.72 4.84-3.14 6.38.32.2.9.66 1.14.9 1.42-1.7 2.64-4.28 3.38-6.98l-1.38-.3zm-1.58 5.08v5.32c0 2.26-.14 5.24-1.5 7.36.3.14.86.48 1.08.68 1.42-2.22 1.66-5.6 1.66-8.04v-5.32h-1.24zm5.96 0v11.68c0 .26-.12.34-.38.36-.28.02-1.18.02-2.2-.02.18.36.4.94.46 1.28 1.38 0 2.2-.02 2.7-.24.52-.22.68-.64.68-1.38v-11.68h-1.26zm4.7-3.64c-.28 2.26-1 4.24-3.46 5.28.3.22.66.7.84 1.02 2.8-1.26 3.66-3.54 4-6.3h-1.38zm-6.08.36v.24c-.3 1-.86 2.44-1.36 3.34.28.12.72.38.96.58.6-.94 1.36-2.42 1.78-3.66l-.88-.58-.2.08h-.3zm17.66 5.1v1.26h15.66v-1.26H45.62zm-.66-5.04v1.22h15.7v-1.22h-15.7zm3.64 8.38v1.22h11.56v-1.22H48.6zm-.04 3v1.22H59.7v-1.22H48.56zm-1.9 3.26v1.26H61.6v-1.26H46.66zm6.6-7.98v8.82h1.46v-8.82h-1.46zm-8.42-1.62v4.22c0 2.02-.18 4.64-1.82 6.52.32.18.92.68 1.14.96 1.82-2.06 2.16-5.18 2.16-7.46v-4.24h-1.48zm4.18 1.6c-.6 1.6-1.56 3.14-2.68 4.2.26.28.68.98.8 1.26 1.3-1.24 2.46-3.16 3.16-5.08l-1.28-.38zm-1.72-4.68c3.7.82 8.36 2.26 10.92 3.24l.96-.9c-2.64-.94-7.3-2.32-10.88-3.16l-1 .82zm10.04-.9c-2.4 1.34-7.1 2.58-10.68 3.24.24.22.64.64.84.9 3.54-.72 8.08-1.98 10.9-3.48l-1.06-.66zm-6.04-2.56c.62.74 1.3 1.76 1.62 2.42l1.12-.62c-.32-.66-1.04-1.64-1.68-2.34l-1.06.54zm18.32 1.94h8v3.8h-8v-3.8zm-1.46-1.44v6.68h10.98v-6.68H68.16zm-2.9 8.8v8.74h1.42v-7.3h4.2v7.14h1.5v-8.58h-7.12zm9.3 0v8.74H76v-7.3h4.58v7.18h1.5v-8.62h-7.52zm-8.66 6.22v1.44h5.58v-1.44H65.9zm9.4 0v1.44h5.94v-1.44H75.3zm15.52-13.58h8v3.8h-8v-3.8zm-1.46-1.44v6.68h10.98v-6.68H89.36zm-2.9 8.8v8.74h1.42v-7.3h4.2v7.14h1.5v-8.58h-7.12zm9.3 0v8.74h1.44v-7.3h4.58v7.18h1.5v-8.62h-7.52zm-8.66 6.22v1.44h5.58v-1.44H87.1zm9.4 0v1.44h5.94v-1.44H96.5zm21.5-15.86c-.2.68-.62 1.7-.98 2.38l1.44.26c.38-.62.8-1.52 1.24-2.38l-1.7-.26zm-2.26 6.62h7v2.18h-7v-2.18zm0-3.32h7v2.16h-7v-2.16zm-1.42-1.24v8h9.88v-8h-9.88zm-.8 10.88v1.36h11.66v-1.36h-11.66zm6.7-2.4v7.84h1.38v-7.84h-1.38zm-1.62-8.02v3.08c0 1.48-.5 4.58-3.72 6.7.32.22.84.62 1.06.9 3.4-2.42 4.02-6.28 4.02-7.6v-3.08h-1.36zm-9.74 3.02v1.3h4.02v-1.3h-4.02zm2.74-5.54v6.28h1.28v-6.28h-1.28zm-2.72 9.72v1.3h2.6v7.34h1.42v-8.64h-4.02zm-.8-9.32v7.66c0 2.94-.18 6.98-1.4 9.84.42.12 1.04.32 1.36.48 1.2-3.02 1.42-7.12 1.42-10.32v-7.66h-1.38zm22.94-.4v18.38h1.32v-18.38h-1.32zm-2.96 6.7v1.42h6.78v-1.42h-6.78zm1.72 2.58c-.34 1.8-1.22 4.04-2.04 5.2.22.38.56 1.04.7 1.48 1.04-1.4 1.92-4.18 2.34-6.34l-1-.34zm3.62.02l-.82.58c.42.78 1.48 3.18 1.82 4.16l1.04-1.12c-.3-.6-1.66-3.08-2.04-3.62zm-5.24-7.72c.42 1.34.9 3.12 1.08 4.28l1.16-.32c-.2-1.14-.68-2.88-1.14-4.22l-1.1.26zm5.9-.28c-.3 1.3-.9 3.18-1.38 4.3l.98.38c.52-1.06 1.16-2.82 1.7-4.24l-1.3-.44zm1.38.32v1.14h10.76v-1.14h-10.76zm.5 2.38v1.1h9.88v-1.1h-9.88zm-.72 2.46v1.16h11.18v-1.16h-11.18zm4.76-6.48v7.1h1.46v-7.1h-1.46zm3.84 8.84v8c0 .22-.06.3-.32.3-.26.02-1.08.02-1.98-.02.18.36.38.88.44 1.24 1.24.02 2.08 0 2.6-.2.52-.22.68-.6.68-1.32v-8h-1.42zm-6.68 2.64v1.1h7.4v-1.1h-7.4zm0 2.58v1.08h7.4v-1.08h-7.4zm-.74-5.22v3.68c0 1.6-.14 3.62-1.32 5.14.28.18.84.7 1.04.98 1.4-1.7 1.66-4.22 1.66-6.1v-3.7h-1.38zm.8 0v1.18h7.12v-1.18h-7.12zm19.74-5.68v10.64h1.4v-9.28h7.1v9.12h1.44v-10.48h-9.94zm.88 4.14v1.34h8.42v-1.34h-8.42zm0 4.2v1.34h8.42v-1.34h-8.42zm3.32-11.5v18.38h1.46v-18.38h-1.46zm-11.7 3.44v1.38h5.96v-1.38h-5.96zm2.76 5.9v9.06h1.38v-10.8l-1.38 1.74zm1.32-1.36l-.82.76c.68.74 2.34 2.68 2.94 3.54l.9-1.24c-.46-.52-2.44-2.58-3.02-3.06zm1.44-4.54v.32c-1.06 2.86-3.54 5.76-5.94 7.3.22.26.54 1.02.66 1.44 2.52-1.78 5.28-5.04 6.6-8.54l-.76-.58-.26.06h-.3zm-3.44-2.76c.66.82 1.44 1.94 1.8 2.66l1.22-.78c-.38-.7-1.16-1.76-1.86-2.54l-1.16.66zm29.6 11.44l1.36-1.16c-1.24-1.46-3.04-3.28-4.48-4.44l-1.3 1.14c1.42 1.16 3.14 2.88 4.42 4.46zM4.18 180.907v1.42h11.58v-1.42H4.18zm0 4.74v1.42h11.58v-1.42H4.18zm0 4.76v1.46h11.58v-1.46H4.18zm-1.04-14.24v17.06h1.5v-15.58h10.52v15.58h1.56v-17.06H3.14zm27.92.38v6.06h1.14v-6.06h-1.14zm2.96 0v6.06h1.14v-6.06h-1.14zm1.18 12.78c1 1 2.14 2.44 2.66 3.38l1.16-.72c-.54-.92-1.68-2.28-2.74-3.28l-1.08.62zm-5.6-.6c-.62 1.2-1.68 2.4-2.76 3.24.34.18.9.58 1.16.8 1.06-.9 2.18-2.3 2.94-3.66l-1.34-.38zm-2.04-12.86v1.24h11.22v-1.24H27.56zm1.32 8.34v1.2h8.64v-1.2h-8.64zm-1.28 2.6v1.22h11.28v-1.22H27.6zm1.66-7.2h7.86v2.38h-7.86v-2.38zm-1.26-1.16v4.7h10.44v-4.7H28zm4.4 8.98v5.9h1.38v-5.9H32.4zm-11.26-8.62v1.38h6.42v-1.38h-6.42zm2.82-3.88v18.38h1.38v-18.38h-1.38zm-.1 4.78c-.58 2.74-1.92 6.22-3.24 8 .26.36.64 1.02.8 1.46 1.36-2.04 2.7-5.98 3.32-9.12l-.88-.34zm1.4 1.46l-.72.56c.52.82 1.82 3.2 2.26 4.2l.92-1.08c-.38-.6-2-3.14-2.46-3.68zm16.18-.46v4.08h1.4v-2.74H57.1v2.74h1.46v-4.08H41.44zm2.42 3.6v1.4h11.18v-1.4H43.86zm12.52-9.44c-3.42.72-9.58 1.24-14.76 1.48.14.34.32.9.36 1.28 5.2-.2 11.44-.72 15.46-1.56l-1.06-1.2zm-13.08 3.18c.54.86 1.12 2 1.36 2.72l1.36-.44c-.24-.72-.84-1.84-1.42-2.66l-1.3.38zm5.32-.42c.46.94.88 2.18 1 2.96l1.42-.34c-.12-.78-.6-2-1.06-2.92l-1.36.3zm6.84-.34c-.48 1.12-1.36 2.72-2.06 3.72l1.2.42c.72-.94 1.66-2.42 2.38-3.7l-1.52-.44zm-.96 7.02v.26c-2.08 4.42-7.48 6.54-13.48 7.36.3.32.72.98.88 1.36 6.1-1.02 11.76-3.34 14.22-8.42l-1-.62-.28.06h-.34zm-8.68.92l-1.32.56c2.62 4.16 7.44 6.6 13.54 7.48.18-.42.6-1.06.9-1.4-6.02-.72-10.84-2.96-13.12-6.64zm19.06-.3c-.48 1.96-1.46 4.88-4.32 6.32.3.24.72.76.92 1.1 3.16-1.72 4.3-4.9 4.86-7.42h-1.46zm9.82-.36c-.38 2.1-1.24 5.08-3.98 6.58.32.24.78.78.98 1.12 2.98-1.78 4.02-5.06 4.48-7.7H74.7zm.68 2.28l-1.02.72c.68 1.3 2.18 3.42 3.78 4.56.22-.36.68-.86 1-1.1-1.6-.98-3.1-2.88-3.76-4.18zm-2.42-9.8h3.46v2.62h-3.46v-2.62zm-4.78 0h3.4v2.62h-3.4v-2.62zm-4.68 0h3.3v2.62h-3.3v-2.62zm-1.44-1.34v5.3H77.9v-5.3H62.06zm15.1 6.22c-3.74.6-10.4.94-15.48.86.3.34.7 1.06.9 1.42 4.84-.1 11.58-.44 15.7-1.18l-1.12-1.1zm-7.92 1.96v9.72h1.5v-10.42l-.6-.2-.9.9zm-4.6 4.22c1.12.86 2.5 2.1 3.16 2.94l.82-1.06c-.64-.82-2.04-2-3.18-2.8l-.8.92zm17.14-12.24v1.46h11.2v-1.46h-11.2zm14.84 5.74v.3c-1.5 5.82-6.08 9.02-11.3 10.2.32.32.68.96.86 1.38 5.6-1.5 10.34-4.8 12.08-11.48l-1.04-.46-.3.06h-.3zm-11.3-5.14v2.7c0 3.56-.32 8.58-4.62 12.54.34.28.88.88 1.1 1.28 4.66-4.36 5.06-9.82 5.06-13.82v-2.7h-1.54zm7.26-.6c-.42 2.04-1.08 4.74-1.62 6.42h1.64c.48-1.62 1.1-4.3 1.56-6.42h-1.58zm-6.38 5.74l-.28 1.44H97v-1.44H86.2zm2.42.86l-1.3.36c1.86 5.34 5.36 9.02 10.92 10.5.22-.42.68-1.06 1.04-1.4-5.42-1.26-8.98-4.72-10.66-9.46zm13.16-1.48v1.2h5.92v-1.2h-5.92zm0 2.62v1.2h5.94v-1.2h-5.94zm-.84-5.28v1.26h7.62v-1.26h-7.62zm1.48 7.96v1.26h3.96v3.32h-3.96v1.26h5.3v-5.84h-5.3zm-.66 0v6.78h1.32v-6.78h-1.32zm1.36-10.84c.54.82 1.18 1.96 1.48 2.7l1.24-.72c-.32-.7-.98-1.76-1.56-2.58l-1.16.6zm7.44.22v1.4h5.18v-1.4h-5.18zm-2.22 8.1v1.42h8.82v-1.42h-8.82zm8.28 0v.26c-1.3 4.28-4.98 6.96-9.02 7.98.28.32.62.94.78 1.34 4.34-1.3 8.2-4.12 9.74-9.22l-.94-.42-.26.06h-.3zm-6.16 1.28l-1.28.44c1.7 3.92 4.84 6.68 9.18 7.82.2-.42.62-1.04.94-1.36-4.22-.94-7.36-3.48-8.84-6.9zm-.2-9.38v2.2c0 1.42-.32 3.06-2.48 4.3.26.22.78.8.96 1.1 2.4-1.42 2.92-3.56 2.92-5.36v-2.24h-1.4zm4.74 0v4.62c0 1.52.28 2.08 1.6 2.08h1.32c.36 0 .76-.02.98-.12-.06-.34-.1-.9-.12-1.28-.24.06-.62.1-.86.1h-1.22c-.26 0-.3-.2-.3-.76v-4.64H115zm7.16 5.32v1.2h6.54v-1.2h-6.54zm0 2.62v1.2h6.5v-1.2h-6.5zm-.9-5.28v1.26h8.28v-1.26h-8.28zm1.68 7.96v1.26h4.42v3.32h-4.42v1.26h5.74v-5.84h-5.74zm-.64 0v6.78h1.3v-6.78h-1.3zm1.34-10.84c.54.82 1.2 1.96 1.5 2.7l1.2-.72c-.32-.7-.96-1.76-1.52-2.58l-1.18.6zm5.88 6.42v1.48h9.58v-1.48h-9.58zm3.92-6.56v18.02h1.54v-18.02h-1.54zm10.04.74v1.38h15.38v-1.38h-15.38zm-.86 0v5.66c0 3.1-.18 7.4-1.94 10.46.38.14 1.02.52 1.3.76 1.84-3.2 2.12-7.96 2.12-11.22v-5.66h-1.48zm4.76 7.64h8.36v1.9h-8.36v-1.9zm0-2.98h8.36v1.86h-8.36v-1.86zm-1.48-1.2v7.26h11.36v-7.26H145.9zm4.9 6.3v5.86c0 .24-.08.32-.38.34-.3 0-1.34 0-2.52-.02.2.38.4.94.46 1.32 1.56 0 2.54 0 3.14-.22.6-.22.76-.62.76-1.4v-5.88h-1.46zm-.2-8.16c-.24.72-.68 1.72-1.06 2.44l1.36.28c.44-.62.96-1.56 1.42-2.46l-1.72-.26zm3.36 10.8c1.2 1.28 2.8 3.08 3.56 4.14l1.26-.78c-.82-1.04-2.42-2.78-3.64-4l-1.18.64zm-6.56-.68c-.88 1.34-2.2 2.86-3.4 3.88.36.2.98.6 1.28.82 1.12-1.08 2.52-2.76 3.54-4.22l-1.42-.48zm24.5-10.42v11.08h1.44v-11.08h-1.44zm4.9-2.04v16.04c0 .38-.16.5-.54.5-.38.02-1.64.04-3.06-.02.24.44.48 1.12.56 1.52 1.84.02 2.96-.02 3.62-.28.62-.24.9-.7.9-1.72v-16.04h-1.48zm-13.48 13.62c-.56 1.32-1.56 2.64-2.64 3.52.38.22.98.66 1.26.92 1.08-.98 2.2-2.5 2.86-4.04l-1.48-.4zm3.48.58c.88 1.08 1.82 2.58 2.22 3.54l1.38-.68c-.46-.96-1.4-2.38-2.32-3.42l-1.28.56zm-3.46-8.74h4.88v2.48h-4.88v-2.48zm0 3.72h4.88v2.52h-4.88v-2.52zm0-7.42h4.88v2.46h-4.88v-2.46zm-1.42-1.36v12.64h7.78v-12.64h-7.78zm76.82-28.9v1.38h5.46v-1.38h-5.46zm2.4-3.88v18.38h1.22v-18.38h-1.22zm-.12 4.7c-.46 2.78-1.56 6.16-2.66 7.92.22.38.54 1.04.68 1.48 1.18-2 2.28-5.9 2.78-9.06l-.8-.34zm1.22 1.7l-.58.62c.46.78 1.66 3.06 2.04 4.02l.74-1.12c-.34-.58-1.8-2.98-2.2-3.52zm5.02-1.88v1.22h6v-1.22h-6zm-.92 3.78h2.14v2.64h-2.14v-2.64zm-1.16-1.1v4.84h4.5v-4.84h-4.5zm6.9 1.1h2.24v2.64h-2.24v-2.64zm-1.18-1.1v4.84h4.62v-4.84h-4.62zm-4.02 5.28c-.64 2.18-2 3.92-3.84 5 .32.24.82.72 1.04.98 1.86-1.26 3.4-3.22 4.16-5.7l-1.36-.28zm-.22 2.5c.88.58 1.94 1.44 2.46 2.02l.8-1c-.52-.56-1.62-1.36-2.5-1.9l-.76.88zm5.82-2.52c-.44 2.18-1.52 3.9-3.14 4.96.3.24.82.74 1.02.98 1.74-1.26 2.96-3.2 3.5-5.74l-1.38-.2zm-.42 2.6c1.34.88 3.02 2.2 3.84 3.06l.92-1.04c-.82-.84-2.56-2.1-3.9-2.94l-.86.92zm-2.24-15.2c-1.12 1.88-3.3 3.84-5.72 5.1.32.24.8.72 1.02 1 2.5-1.38 4.78-3.4 6.16-5.62l-1.46-.48zm.52.66l-1.06.7c1.6 1.72 4.54 3.56 6.96 4.62.12-.38.42-1 .68-1.36-2.3-.82-5.18-2.44-6.58-3.96zm18.08 4.78h5.86v2h-5.86v-2zm0 3.18h5.86v2.02h-5.86v-2.02zm0-6.34h5.86v1.96h-5.86v-1.96zm-1.38-1.24v10.84h8.68v-10.84h-8.68zm4.9 10.42v5.14c0 1.46.32 1.86 1.68 1.86h1.66c1.18 0 1.56-.64 1.68-3.24-.4-.1-.98-.34-1.28-.58-.06 2.22-.12 2.48-.56 2.48h-1.3c-.4 0-.48-.06-.48-.52v-5.14h-1.4zm-3.08.2c-.26 2.92-.96 4.82-4.22 5.84.3.26.68.78.82 1.1 3.6-1.22 4.48-3.48 4.78-6.94h-1.38zm-10.2-8.08v1.38h6.24v-1.38h-6.24zm2.92 5.9v9.06h1.46v-10.8l-1.46 1.74zm1.4-1.36l-.88.76c.72.74 2.42 2.68 3.04 3.54l.96-1.24c-.5-.52-2.52-2.58-3.12-3.06zm1.46-4.54v.32c-1.14 2.88-3.78 5.78-6.32 7.3.22.26.56 1.04.68 1.44 2.7-1.78 5.6-5.02 7.02-8.54l-.8-.58-.28.06h-.3zm-3.64-2.66c.7.8 1.48 1.9 1.82 2.62l1.18-.8c-.36-.72-1.14-1.76-1.9-2.52l-1.1.7zm21.62 15.44v1.34h10.46v-1.34h-10.46zm2.66-16.38c-1.42 2.46-3.86 4.72-6.38 6.12.34.24.9.8 1.14 1.08 2.5-1.54 5.04-3.98 6.66-6.7l-1.42-.5zm7.3 2.26v.24c-2.52 4.04-8.88 7-14.22 8.08.28.32.62.94.74 1.36 5.62-1.32 12.14-4.36 15.1-9.06l-1.04-.7-.26.08h-.32zm-8.86.92l-1.24.6c2.96 3.92 8.2 6.84 13.72 8.08.22-.42.62-1.04.98-1.38-5.5-1.06-10.78-3.84-13.46-7.3zm-1.88 8.22v7.26h1.5v-5.88h8.8v5.8h1.56v-7.18h-11.86zm2.66-9.14l-.9 1.34h9.36v-1.34h-8.46zm20.12-.88v17.18h1.4v-15.84h8.86v15.68h1.44v-17.02h-11.7zm2.22 4.24v1.18H314v-1.18h-7.36zm-1.46 10.4v1.34h10.3v-1.34h-10.3zm4.5-12.66v6.34h1.22v-6.34h-1.22zm-1.04 6.76h3.38v3.1h-3.38v-3.1zm-1.16-1.12v5.36h5.74v-5.36h-5.74zm-5.14-8.74c-.98 3.04-2.62 6.06-4.42 8.02.26.36.68 1.18.8 1.54 2-2.3 3.86-5.74 5-9.16l-1.38-.4zm-1.66 4.9v13.44h1.42v-14.84l-.02-.02-1.4 1.42zm17.94-2.62v1.42h7.34v-1.42h-7.34zm7.5 2.2v1.44h9.5v-1.44h-9.5zm-4.54-1.64v10.02h1.46v-10.02h-1.46zm13.34 1.64v.32c-.28 7.96-.6 10.92-1.22 11.6-.22.24-.44.3-.84.3-.44 0-1.58 0-2.8-.12.26.42.42 1.06.46 1.48 1.14.08 2.3.1 2.96.04.68-.08 1.1-.24 1.54-.8.76-.9 1.04-3.8 1.36-12.06.02-.22.02-.76.02-.76h-1.48zm-16.58 8.6l.38 1.54c2.12-.58 5.02-1.4 7.74-2.18l-.2-1.42c-2.9.78-5.94 1.6-7.92 2.06zm11.18-12.84c-.04 7.3.08 13.78-5.78 16.9.36.28.86.82 1.08 1.18 6.12-3.44 6.18-10.36 6.22-18.08h-1.52zm15.84 6.78v9.66c0 .26-.06.34-.34.34s-1.12.02-2.06-.02c.18.36.4.88.48 1.24 1.26 0 2.12-.02 2.66-.22.52-.22.68-.58.68-1.34v-9.66h-1.42zm-4.86 0v1.3h5.62v-1.3h-5.62zm8.12 2.22v6.78c0 1.66.52 2.12 2.46 2.12h3.58c1.66 0 2.1-.7 2.28-3.32-.4-.08-1-.32-1.34-.56-.1 2.18-.24 2.54-1.06 2.54h-3.3c-.96 0-1.14-.12-1.14-.8v-6.76h-1.48zm-4.34-7.4c.98 1.42 2.1 3.36 2.56 4.56l1.28-.58c-.5-1.18-1.64-3.08-2.62-4.46l-1.22.48zm5.2.86v1.32h6.04v-1.32h-6.04zm.02 8.94v1.36h6.24v-1.36h-6.24zm-9.94-5.86c0-.3.94-.76.94-.76v-.02c1.24-1.12 2.62-2.86 3.72-4.6l-1.52-.5c-.84 1.62-2.16 3.24-2.58 3.68-.4.44-.72.72-1.04.78.16.38.4 1.12.48 1.42zm0 0c.48-.2 1.24-.3 7.32-.82-.1-.3-.22-.82-.28-1.2l-6.28.42-.8.48.04 1.12zm.22 1.24v4.92c0 1.72-.12 3.82-1.26 5.36.3.2.84.74 1.04 1.04 1.38-1.76 1.62-4.4 1.62-6.38v-4.94h-1.4zm1.2 7.5l.54 1.28c1.36-.76 2.98-1.72 4.56-2.66l-.3-.98c-1.76.9-3.58 1.82-4.8 2.36zm.36-4.3c1.08.64 2.48 1.58 3.18 2.18l.8-.86c-.72-.56-2.12-1.44-3.2-2.08l-.78.76zm7.28-10.3v6.32c0 1.72.5 2.32 2.28 2.32h3.76c.72 0 1.44-.02 1.78-.1-.06-.36-.12-.92-.16-1.32-.38.1-1.18.12-1.66.12h-3.7c-.66 0-.82-.24-.82-.98v-6.36h-1.48zm18.2 11.4v4.02h1.4v-4.02h-1.4zm-8.2 5.34v1.08h17.98v-1.08h-17.98zm.04-13.56v.94h17.88v-.94h-17.88zm-.04 6v1.06h17.98v-1.06h-17.98zm1.54-1.98v.94h15v-.94h-15zm.62-5.98v.94h12.08v3.06h-12.2v.94h13.7v-4.94h-13.58zm5.98-1.24v9.62h1.52v-9.62h-1.52zm-4.38 13.88h10.5v1.06h-10.5v-1.06zm0-1.86h10.5v1.02h-10.5v-1.02zm-1.48-.9v4.7h13.5v-4.7h-13.5zm23.8-2.22v1.24h5.48v-1.24h-5.48zm0 3.48v1.24h5.54v-1.24h-5.54zm-4.12 3.58v1.4h14.12v-1.4h-14.12zm-.92-10.68v13.14h1.46v-11.74H394v11.74h1.52v-13.14h-15.86zm4.34.88v10.44h1.36v-10.44H384zm5.6 0v10.38h1.38v-10.38h-1.38zm-3-4.16c-.14 1.16-.54 2.82-.86 3.9l1.36.38c.4-1 .82-2.54 1.24-3.88l-1.74-.4zm-7.84-.66v1.44h17.72v-1.44h-17.72zm27.2 11.7c2.1-.72 3.46-2.36 3.46-4.52 0-1.4-.6-2.32-1.72-2.32-.8 0-1.52.5-1.52 1.44s.68 1.44 1.5 1.44c.38 0 .78-.1 1.06-.46l-1.08-1.52.38 1.68c0 1.52-.9 2.54-2.54 3.2l.46 1.06zm-166.76 22.98v1.48h16.84v-1.48H239.2zm-.54 11.98v1.54h17.88v-1.54h-17.88zm6.02-11v11.8h1.48v-11.8h-1.48zm4.24 0v11.82h1.5v-11.82h-1.5zm4.68 2.22c-.48 2-1.42 4.82-2.22 6.54l1.34.38c.82-1.68 1.76-4.32 2.48-6.52l-1.6-.4zm-1.64-7.2c-.46 1.12-1.34 2.7-2.04 3.7l1.34.48c.72-.96 1.6-2.4 2.32-3.7l-1.62-.48zm-11.82 7.76c.94 2 1.72 4.62 1.92 6.34l1.44-.36c-.22-1.74-1.02-4.34-2.02-6.34l-1.34.36zm1.72-7.2c.8 1.04 1.64 2.52 1.96 3.5l1.4-.62c-.36-.94-1.2-2.36-2.04-3.42l-1.32.54zm23.22 9.7v1.34h11.66v-1.34h-11.66zm4.56-8.58l-.68 1.1h5.86l.36-1.1h-5.54zm3.06 5.76v8.98c0 .26-.08.34-.4.34-.34.02-1.42.04-2.6 0 .2.42.4 1.02.46 1.44 1.6 0 2.6-.02 3.18-.26.62-.24.8-.68.8-1.52v-8.98h-1.44zm-2.16-7.48c-1.16 1.64-3.38 3.32-5.78 4.28.28.24.72.68.94.94 2.46-1.12 4.86-2.88 6.3-4.78l-1.46-.44zm-4 12.8c1 1 2.12 2.4 2.6 3.32l1.22-.78c-.5-.9-1.66-2.24-2.66-3.2l-1.16.66zm1.76-9.56c1.22.98 2.54 2.38 3.12 3.34l1.02-.74c-.62-.98-1.98-2.34-3.18-3.26l-.96.66zm-8.42 2.56v1.32h3.84v-1.32h-3.84zm-1.48 4.28v1.32h5.26v-1.32h-5.26zm4.62-10.04v18.38h1.4v-18.38h-1.4zm-3.76.78v6.3h1.34v-6.3h-1.34zm.24 9.76v1.26c0 1.56-.18 4.06-1.28 5.9.36.14.9.48 1.16.72 1.24-2 1.44-4.84 1.44-6.58v-1.3h-1.32zm15.14-8.86v.26c-1.5 3.7-5.56 6.12-9.5 7.04.26.3.6.8.74 1.14 4.24-1.18 8.44-3.68 10.22-8.04l-.92-.46-.26.06h-.28zm-9.46 4.28l.24 1.12c1.22-.16 2.62-.36 4.08-.58l-.08-1.06c-1.62.22-3.12.42-4.24.52zm26.88-4.82c1.1.86 2.34 2.1 2.9 2.94l1.12-.84c-.6-.84-1.88-2.02-2.98-2.84l-1.04.74zm-13.44 3.74v1.28h17.94v-1.28h-17.94zm.86-3.04v1.28h8.82v-1.28h-8.82zm1.64 9.08v1h7.24v-1h-7.24zm0 2.36v1.02h7.24v-1.02h-7.24zm-.08 2.42v1.22h7.64v-1.22h-7.64zm2.18-15.7v5.8h1.46v-5.8h-1.46zm1.26 9.06v7.06h1.26v-7.06h-1.26zm-2.96-2.68c-.7 1.76-1.9 3.48-3.18 4.64.3.18.82.62 1.06.84 1.28-1.24 2.58-3.2 3.4-5.14l-1.28-.34zm.12 2.04h-.22l-1.1 1.2v8.36h1.32v-8.36h7.08v-1.2h-7.08zm7.88-8.4c.06 9.84 1.3 18.16 5.08 18.16 1.42 0 1.9-.9 2.16-3.92-.36-.14-.88-.46-1.2-.76-.1 2.32-.3 3.22-.84 3.22-2.32 0-3.78-7.24-3.7-16.7h-1.5zm4.72 7.36c-1.18 4.1-3.46 7.88-6.66 9.98.4.26.82.7 1.06 1.04 3.36-2.36 5.66-6.24 6.98-10.62l-1.38-.4zm-10.38-.54c.44.66.92 1.54 1.1 2.12l1.2-.52c-.22-.58-.7-1.42-1.18-2.04l-1.12.44zm20.98-2.92h5.42v1.32h-5.42v-1.32zm-1.24-.9v3.12h7.96v-3.12h-7.96zm.54 6.78h6.82v4.46h-6.82v-4.46zm-1.2-.94v6.36h9.28v-6.36h-9.28zm3.42 2.58h2.34v1.18h-2.34v-1.18zm-.94-.78v2.76h4.26v-2.76h-4.26zm-3.84-3.6v.94h12.06v-.94h-12.06zm5.28-1.52v1.94h1.32v-1.94h-1.32zm-7.62-4.74v17.56h1.42v-16.28h13.86v16.28H316v-17.56h-16.76zm.88 15.5v1.28h15.18v-1.28h-15.18zm21.22-8.74v1.46h11.44v-1.46h-11.44zm10.94 0v.28c-.26 5.94-.56 8.22-1.1 8.76-.2.22-.44.26-.84.26-.48 0-1.72-.02-3.04-.14.28.44.48 1.06.5 1.52 1.26.06 2.52.08 3.18.02.7-.06 1.14-.2 1.54-.7.72-.76 1-3.08 1.28-9.28.02-.2.04-.72.04-.72h-1.56zm-6.72.4c-.4 3.78-1.2 7.48-6.44 9.22.34.32.78.92.96 1.3 5.58-2 6.62-6.14 7.08-10.52h-1.6zm-2.08-7.32c-.96 3.14-2.8 5.82-5.18 7.48.36.26 1 .8 1.26 1.1 2.36-1.86 4.36-4.74 5.48-8.2l-1.56-.38zm3.14-.3v1.4H331v-1.4h-4.38zm2.94 0v.84h.42c1.1 3.22 3.28 6.3 5.94 8 .26-.4.76-1.02 1.08-1.34-2.56-1.44-4.72-4.36-5.74-7.5h-1.7zm14.82 9.82c.52.52 1.1 1.24 1.38 1.72l.88-.62c-.26-.44-.88-1.16-1.38-1.62l-.88.52zm-5.82 1.54v1.28h8.76v-1.28h-8.76zm.02-7.28v1.24h8.54v-1.24h-8.54zm7.02-3.7c-.26.74-.76 1.84-1.14 2.54l1 .36c.44-.64.94-1.6 1.4-2.5l-1.26-.4zm-3.32-.64v9.36h1.32v-9.36h-1.32zm-3.26 1.04c.52.76.98 1.76 1.16 2.42l1.12-.46c-.18-.66-.68-1.64-1.2-2.36l-1.08.4zm3.24 13.52c1.28.84 2.94 2.06 3.76 2.8l.84-1.04c-.84-.72-2.54-1.88-3.78-2.7l-.82.94zm2.46-8.3l-.78.58c.6.52 2.08 1.98 2.58 2.6l.84-1c-.4-.4-2.12-1.84-2.64-2.18zm-3.92-.08c-.52 1.12-1.56 2.38-2.56 2.96.28.22.7.66.9.98 1.04-.78 2.08-2.24 2.62-3.58l-.96-.36zm6.58-5.32v1.32h9.34v-1.32h-9.34zm2.18 7.44h4.94v1.92h-4.94v-1.92zm0 3.04h4.94v1.98h-4.94v-1.98zm0-6.08h4.94v1.9h-4.94v-1.9zm-1.38-1.18v10.42h7.76v-10.42h-7.76zm2.94-2.58c-.14.94-.46 2.3-.74 3.18l1.28.26c.34-.82.74-2.06 1.08-3.22l-1.62-.22zm-.86 13.42c-.7.84-2.18 1.88-3.5 2.44.32.28.76.72 1 1 1.34-.6 2.88-1.68 3.8-2.68l-1.3-.76zm2.24.78c1.16.78 2.66 1.9 3.36 2.64l1.18-.84c-.8-.76-2.28-1.82-3.46-2.54l-1.08.74zm-10.32-5.9v1.98c0 1.76-.36 3.82-3.88 5.3.26.28.64.78.78 1.1 3.94-1.72 4.42-4.18 4.42-6.36v-2.02h-1.32zm30.4-4.6c1.02 1.56 2.2 3.7 2.72 4.96l1.34-.66c-.54-1.28-1.78-3.3-2.82-4.84l-1.24.54zm-6.66-2.76v1.42h10.6v-1.42h-10.6zm5.7 5.96v7.6c0 1.52.34 1.96 1.74 1.96h1.74c1.22 0 1.58-.72 1.72-3.4-.42-.12-1-.34-1.34-.6-.02 2.3-.1 2.66-.54 2.66h-1.4c-.42 0-.5-.1-.5-.62v-7.6h-1.42zm-3.32.4c-.1 4.52-.5 7-3.8 8.42.34.28.76.8.94 1.16 3.62-1.66 4.16-4.56 4.3-9.58h-1.44zm-2 .96c.54-.24 1.4-.36 8.88-1.2-.06-.3-.12-.88-.14-1.26l-7.92.78-.86.52.04 1.16zm0 0c0-.32 1.08-.84 1.08-.84v-.04c1.72-2.2 3.54-5.36 4.92-8.5l-1.62-.48c-1.1 2.96-2.92 6.08-3.52 6.88-.54.84-.98 1.38-1.38 1.5.2.4.44 1.16.52 1.48zm-3.16-1.98c.6 1.28 1.16 3 1.36 4.04l1.16-.46c-.2-1.02-.8-2.68-1.42-3.96l-1.1.38zm-1.8 5.14c.24 1.36.44 3.12.5 4.28l1.18-.28c-.06-1.16-.3-2.9-.54-4.24l-1.14.24zm-2.16-.14c-.18 1.62-.48 3.42-.96 4.64.32.1.92.3 1.18.44.4-1.24.8-3.14 1.02-4.86l-1.24-.22zm-.46-5.38c0-.32.94-.78.94-.78v-.04c1.34-1.6 2.72-3.92 3.78-6.16l-1.38-.6c-.84 2.18-2.26 4.5-2.7 5.08-.42.6-.78 1.02-1.12 1.1.16.38.4 1.08.48 1.4zm0 0c.3-.16.84-.26 4.06-.62-.02-.3.04-.8.1-1.14l-3.52.3-.66.42.02 1.04zm.12 4.5c0-.3.96-.76.96-.76v-.02c1.94-2 3.88-4.8 5.44-7.58l-1.3-.74c-1.3 2.74-3.42 5.62-4.08 6.36-.6.74-1.06 1.24-1.48 1.34.16.4.4 1.1.46 1.4zm0 0c.4-.2 1.02-.36 5.86-1.16-.04-.28-.04-.8.02-1.16l-5.26.78-.66.46.04 1.08zm4.72.62c.42 1.16.88 2.66 1.06 3.66l1.14-.4c-.22-.96-.7-2.46-1.14-3.62l-1.06.36zm16.32-1.68v1.26h15.5v-1.26h-15.5zm-1.16-9.68v1.14h9.14v-1.14h-9.14zm8.92 12.5v1.18h6.44v-1.18h-6.44zm-9.1 2.82v1.3h18.16v-1.3h-18.16zm8.28-5.18v5.74h1.48v-5.74h-1.48zm-4.12-11.4v10.38h1.34v-10.38h-1.34zm-.88 13.24v4h1.44v-4h-1.44zm-1.28-8.8h5.5v1.48h-5.5v-1.48zm-1.22-1.02v3.48h8.02v-3.48h-8.02zm11.04-3.4c-.56 2.02-1.56 3.88-2.88 5.1.3.24.82.74 1.02 1.02 1.4-1.38 2.58-3.54 3.22-5.82l-1.36-.3zm-.3 2.22l-.62 1.26h7.18v-1.26h-6.56zm4.02.54c-.8 3.54-3.06 5.62-6.56 6.72.28.26.72.84.88 1.12 3.64-1.38 6.1-3.66 7.08-7.68l-1.4-.16zm-3.86.2l-.98.66c.9 2.58 3.02 5.64 6.74 7.02.16-.34.56-.9.86-1.18-3.7-1.18-5.78-4.02-6.62-6.5zm-7.66 3.54c-.9 1.2-2.64 2.46-4.18 3.04.28.22.68.68.88.98 1.56-.72 3.34-2.2 4.28-3.6l-.98-.42zm1.4 1.24c.98.5 2.12 1.24 2.72 1.8l.66-.88c-.58-.56-1.78-1.26-2.72-1.7l-.66.78zm98.52-36.6c1.28 1.48 2.58 3.54 3.1 4.92l1.44-.78c-.58-1.36-1.86-3.34-3.2-4.8l-1.34.66zm-6.58 11.52l.54 1.56c2.22-.96 5.26-2.3 8.04-3.58l-.34-1.46c-3 1.32-6.2 2.68-8.24 3.48zm12-2.64c1.92 1.96 4.32 4.66 5.44 6.32l1.28-1.18c-1.18-1.64-3.66-4.24-5.56-6.12l-1.16.98zm2.78-11c-.9 8.7-3.02 13.6-9.94 16.12.38.32.98.98 1.2 1.3 7-2.92 9.34-8.02 10.36-17.26l-1.62-.16zm-12.34.06l.34 13.22 1.54-.06-.34-13.22-1.54.06zm24.569.02v1.38h15.38v-1.38h-15.38zm-.86 0v5.66c0 3.1-.18 7.4-1.94 10.46.38.14 1.02.52 1.3.76 1.84-3.2 2.12-7.96 2.12-11.22v-5.66h-1.48zm4.76 7.64h8.36v1.9h-8.36v-1.9zm0-2.98h8.36v1.86h-8.36v-1.86zm-1.48-1.2v7.26h11.36v-7.26h-11.36zm4.9 6.3v5.86c0 .24-.08.32-.38.34-.3 0-1.34 0-2.52-.02.2.38.4.94.46 1.32 1.56 0 2.54 0 3.14-.22.6-.22.76-.62.76-1.4v-5.88h-1.46zm-.2-8.16c-.24.72-.68 1.72-1.06 2.44l1.36.28c.44-.62.96-1.56 1.42-2.46l-1.72-.26zm3.36 10.8c1.2 1.28 2.8 3.08 3.56 4.14l1.26-.78c-.82-1.04-2.42-2.78-3.64-4l-1.18.64zm-6.56-.68c-.88 1.34-2.2 2.86-3.4 3.88.36.2.98.6 1.28.82 1.12-1.08 2.52-2.76 3.54-4.22l-1.42-.48zm22.848-10.54h8v3.8h-8v-3.8zm-1.46-1.44v6.68h10.98v-6.68h-10.98zm-2.9 8.8v8.74h1.42v-7.3h4.2v7.14h1.5v-8.58h-7.12zm9.3 0v8.74h1.44v-7.3h4.58v7.18h1.5v-8.62h-7.52zm-8.66 6.22v1.44h5.58v-1.44h-5.58zm9.4 0v1.44h5.94v-1.44h-5.94zm24.529-15.86c-.2.68-.62 1.7-.98 2.38l1.44.26c.38-.62.8-1.52 1.24-2.38l-1.7-.26zm-2.26 6.62h7v2.18h-7v-2.18zm0-3.32h7v2.16h-7v-2.16zm-1.42-1.24v8h9.88v-8h-9.88zm-.8 10.88v1.36h11.66v-1.36h-11.66zm6.7-2.4v7.84h1.38v-7.84h-1.38zm-1.62-8.02v3.08c0 1.48-.5 4.58-3.72 6.7.32.22.84.62 1.06.9 3.4-2.42 4.02-6.28 4.02-7.6v-3.08h-1.36zm-9.74 3.02v1.3h4.02v-1.3h-4.02zm2.74-5.54v6.28h1.28v-6.28h-1.28zm-2.72 9.72v1.3h2.6v7.34h1.42v-8.64h-4.02zm-.8-9.32v7.66c0 2.94-.18 6.98-1.4 9.84.42.12 1.04.32 1.36.48 1.2-3.02 1.42-7.12 1.42-10.32v-7.66h-1.38zm23.428 2.92v1.34h7.12v-1.34h-7.12zm-.42 4.62v1.38h7.94v-1.38h-7.94zm3.3-7.74v6.92c0 3.1-.14 7.5-3.42 9.94.34.28.82.78 1.02 1.1 3.52-2.84 3.84-7.52 3.84-11.06v-6.9h-1.44zm1.1 10.14l-.92.72c.8.86 2.8 3.3 3.5 4.34l1.02-1.12c-.54-.64-2.92-3.32-3.6-3.94zm5.68-5h5.72v1.98h-5.72v-1.98zm0 3.22h5.72v2h-5.72v-2zm0-6.44h5.72v1.96h-5.72v-1.96zm-1.42-1.34v11.14h8.58v-11.14h-8.58zm4.8 10.54v4.86c0 1.42.32 1.86 1.68 1.86h1.64c1.2 0 1.56-.68 1.68-3.42-.38-.1-.98-.32-1.26-.58-.06 2.36-.14 2.66-.56 2.66h-1.28c-.44 0-.48-.06-.48-.54v-4.84h-1.42zm-3.16.28c-.28 2.64-1.06 4.6-4.26 5.64.3.26.7.8.86 1.12 3.52-1.26 4.48-3.56 4.84-6.76h-1.44zm14.409-5.66v1.14h9.18v-1.14h-9.18zm-.4 8.64v1.16h9.72v-1.16h-9.72zm11-8.98v1.32h5.18v-1.32h-5.18zm-6.56-.86v13.64h1.3v-13.64h-1.3zm5.96.86v10c0 1.82.54 2.28 2.32 2.28h3.32c1.64 0 2.06-.78 2.24-3.46-.42-.08-1-.32-1.34-.56-.08 2.2-.22 2.66-1 2.66h-3.06c-.88 0-1.04-.16-1.04-.92v-10h-1.44zm5 0v5.96c0 .22-.06.3-.34.32-.3 0-1.2 0-2.3-.02.2.4.44.98.52 1.4 1.38 0 2.28-.02 2.84-.26.58-.24.72-.68.72-1.42v-5.98h-1.44zm-13.06 5.66h5.38v1.26h-5.38v-1.26zm0-2.2h5.38v1.24h-5.38v-1.24zm-1.22-1v5.48h7.88v-5.48h-7.88zm1.4-6.66v1.22h6.4v-1.22h-6.4zm8.32.02v1.2h7.32v-1.2h-7.32zm-7.86-1.58c-.66 1.66-1.8 3.3-3.02 4.4.32.24.84.74 1.06 1 1.24-1.24 2.52-3.12 3.3-5.02l-1.34-.38zm8.24 0c-.56 1.68-1.56 3.3-2.74 4.36.34.2.9.64 1.16.88 1.2-1.18 2.34-3 2.96-4.9l-1.38-.34zm-7.2 3.36c.72.62 1.62 1.5 2.06 2.06l.98-.88c-.46-.52-1.38-1.36-2.12-1.94l-.92.76zm8.72.12c.7.56 1.56 1.38 2 1.92l1-.9c-.44-.5-1.32-1.28-2.02-1.82l-.98.8zm14.748 7.32v1.32h13.62v-1.32h-13.62zm-2.58-7.22v1.38h13.08v-1.38h-13.08zm5.64 3.6v1.34h9.16v-1.34h-9.16zm9.92 3.62v.24c-.32 3.98-.7 5.56-1.16 6.02-.18.16-.38.2-.76.2s-1.34 0-2.34-.12c.24.4.4.98.42 1.4 1.04.04 2.04.06 2.54.02.6-.04.98-.18 1.36-.56.64-.66 1.02-2.32 1.38-6.54.04-.22.06-.66.06-.66h-1.5zm-4.44 2.4c.6.84 1.22 2 1.48 2.72l1.1-.46c-.26-.72-.88-1.84-1.52-2.66l-1.06.4zm-8.64-12.46c.78.84 1.62 2.02 1.96 2.8l1.4-.64c-.4-.76-1.28-1.9-2.06-2.7l-1.3.54zm2.72 12.96c.34 1.3.56 2.94.52 4.02l1.32-.18c0-1.08-.22-2.74-.62-4l-1.22.16zm2.94-.18c.5 1.1.98 2.56 1.12 3.52l1.24-.34c-.16-.94-.66-2.36-1.18-3.46l-1.18.28zm-5.5-.28c-.4 1.54-1.16 3.32-2.28 4.38l1.16.82c1.22-1.22 1.92-3.12 2.38-4.78l-1.26-.42zm5.9-13.1c-1.52 5.18-4.6 10.3-9.56 13.12.26.32.64.92.82 1.28 5.3-3.14 8.44-8.42 10.26-14.02l-1.52-.38zm4.2 3.44c-.22 1.28-.56 2.88-.84 3.94l1.32.18c.3-1.08.66-2.74.94-4.12h-1.42zm1.5 3.6c-.2 1.28-.54 2.9-.84 3.98l1.36.16c.28-1.08.62-2.76.9-4.14h-1.42zm10.209-5.1v1.28h16.38v-1.28h-16.38zm.64 14.66v1.26h15.14v-1.26h-15.14zm3.3-12.06v1.14H659v-1.14h-8.42zm0 2.52v1.14H659v-1.14h-8.42zm-4.88 2.58v1.26h18.18v-1.26H645.7zm4.2 3.58v1.24h9.82v-1.24h-9.82zm-.22-13.2v10.32h1.5v-10.32h-1.5zm8.8 0v10.32h1.5v-10.32h-1.5zm-4.5 11.52v5.76h1.54v-5.76h-1.54zm-3.24-1.56c-1.08 1.76-3.22 3.48-5.24 4.28.34.28.76.8.98 1.14 2.1-.98 4.3-2.88 5.52-4.94l-1.26-.48zm8.18 0l-1.18.46c1.16 1.96 3.28 3.82 5.4 4.72.22-.36.66-.88 1-1.16-2.08-.74-4.16-2.32-5.22-4.02zm-182.74 23.1v1.38h6.02v-1.38h-6.02zm1.84 6.16v1.34h2.8v5.96h-2.8v1.34h3.88v-8.64h-3.88zm.62-5.5c-.52 3.34-1.46 6.46-3 8.5.24.38.58 1.18.66 1.54 1.84-2.4 2.98-6 3.68-9.76l-1.34-.28zm-1.22 5.5v10.26h1.16v-10.26h-1.16zm5.08-5.18v1.2h5.52v-1.2h-5.52zm.06 7.02v1.26h10.66v-1.26h-10.66zm5.72 3.64v1.24h5.34v-1.24h-5.34zm-3.4-12.68v8.34h1.22v-8.34h-1.22zm-.2 2.68c-.52 1.46-1.62 3.1-2.62 3.96.26.24.58.72.72 1.02 1.1-1.06 2.24-2.88 2.82-4.46l-.92-.52zm1.36.72l-.66.5c.44.54 1.54 2.02 1.9 2.68l.78-.94c-.28-.38-1.64-1.88-2.02-2.24zm2.44-1.38v1.18h5.84v-1.18h-5.84zm2.06-2.02v8.34h1.26v-8.34h-1.26zm-.06 2.66c-.52 1.64-1.62 3.36-2.74 4.22.26.24.56.7.72.98 1.2-1.06 2.36-2.96 2.92-4.7l-.9-.5zm2.28 6.38v.18c-.24.86-.6 1.84-.9 2.5l1.14.42c.4-.74.84-1.86 1.18-2.86l-.96-.32-.24.08h-.22zm-7.9 3.92l-1.04.38c1.12 3.78 3.1 4.58 6.46 4.58h3.82c.06-.36.26-.98.46-1.3-.7.02-3.72.02-4.2.02-2.76 0-4.6-.6-5.5-3.68zm2.78-3.54v7.36l1.38.6v-7.96h-1.38zm-3.76 1.82c-.24 2.6-.82 4.94-2.58 6.2l1.06.94c1.96-1.5 2.5-4.1 2.78-6.9l-1.26-.24zm7.98-8.36l-.68.54c.56.74 2.06 3.08 2.5 4l.9-1.02c-.4-.6-2.24-2.98-2.72-3.52zm11.7 10.12c2.1-.72 3.46-2.36 3.46-4.52 0-1.4-.6-2.32-1.72-2.32-.8 0-1.52.5-1.52 1.44s.68 1.44 1.5 1.44c.38 0 .78-.1 1.06-.46l-1.08-1.52.38 1.68c0 1.52-.9 2.54-2.54 3.2l.46 1.06zm18-12.14v1.16h12.5v-1.16h-12.5zm2.26 3.92v.78h7.96v-.78h-7.96zm0 1.66v.78h7.96v-.78h-7.96zm-.8-3.38v5.54h1.38v-4.66h6.7v4.66h1.4v-5.54h-9.48zm-1.98 5.04v2.7h1.32v-1.74h10.66v1.74h1.36v-2.7h-13.34zm2.74 1.56c-.46.74-1.22 1.58-2.04 2.04l.88.72c.9-.54 1.62-1.46 2.12-2.24l-.96-.52zm1.04 0v1.22c0 1.1.4 1.34 1.92 1.34h2.78c1.02 0 1.36-.3 1.48-1.46-.32-.06-.78-.2-1.02-.34-.08.78-.18.88-.64.88h-2.48c-.68 0-.8-.06-.8-.42v-1.22h-1.24zm1.66-.16c.7.4 1.52 1.02 1.94 1.46l.86-.62c-.44-.42-1.28-1.02-1.96-1.38l-.84.54zm4.04.64c.86.7 1.84 1.7 2.3 2.36l.88-.58c-.48-.68-1.48-1.64-2.32-2.32l-.86.54zm-4.68 1.66c-.98 1.18-2.7 2.5-5 3.44.28.2.68.6.88.9 2.44-1.14 4.24-2.56 5.48-4.06l-1.36-.28zm5.18 1.28v.24c-1.34 1.9-5.06 3.38-10.44 3.96.28.32.6.8.74 1.12 5.64-.72 9.5-2.34 11.22-4.86l-.94-.52-.28.06h-.3zm-7.76-.18l-1.14.42c2.2 2.92 6.46 4.5 11.38 5.06.18-.36.52-.88.78-1.18-4.82-.44-9.08-1.82-11.02-4.3zm1.82.18l-1 1h7.36v-1h-6.36zm1.8-11.68c-.08.58-.3 1.4-.48 2.04l1.3.2c.24-.54.52-1.3.82-2.06l-1.64-.18zm-7.1-1.32c-.9 3.08-2.36 6.14-4.02 8.16.26.38.66 1.18.8 1.54 1.88-2.34 3.54-5.88 4.62-9.32l-1.4-.38zm-1.48 4.9v13.38h1.42v-14.72l-.04-.04-1.38 1.38zm26.66-4.7v14.68c0 2.14.58 2.72 2.6 2.72h3.82c2.16 0 2.54-1.28 2.78-5.02-.42-.1-1-.38-1.38-.66-.16 3.42-.34 4.32-1.46 4.32h-3.66c-1.04 0-1.26-.24-1.26-1.32v-14.72h-1.44zm-3.56-.24c-1.28 3.08-3.42 6.06-5.64 7.96.28.36.7 1.16.86 1.5 2.38-2.22 4.7-5.58 6.18-8.98l-1.4-.48zm-2.06 4.88v13.44h1.44v-14.82l-.02-.02-1.42 1.4zm6.46.86v1.42h7.76v-1.42h-7.76zm11-1.8v1.48h16.84v-1.48H556.8zm-.54 11.98v1.54h17.88v-1.54h-17.88zm6.02-11v11.8h1.48v-11.8h-1.48zm4.24 0v11.82h1.5v-11.82h-1.5zm4.68 2.22c-.48 2-1.42 4.82-2.22 6.54l1.34.38c.82-1.68 1.76-4.32 2.48-6.52l-1.6-.4zm-1.64-7.2c-.46 1.12-1.34 2.7-2.04 3.7l1.34.48c.72-.96 1.6-2.4 2.32-3.7l-1.62-.48zm-11.82 7.76c.94 2 1.72 4.62 1.92 6.34l1.44-.36c-.22-1.74-1.02-4.34-2.02-6.34l-1.34.36zm1.72-7.2c.8 1.04 1.64 2.52 1.96 3.5l1.4-.62c-.36-.94-1.2-2.36-2.04-3.42l-1.32.54zm24.68 4.28v8.82h1.42v-8.82h-1.42zm4.62 1.82v1.4h4.82v-1.4h-4.82zm-12.66-5.7v1.36h4.78v-1.36h-4.78zm1.34 5.98v1.24h3.62v-1.24h-3.62zm10.58-5.24v12.2h1.52v-12.2h-1.52zm4.76-1.44c-2.2.72-6.18 1.22-9.56 1.48.16.34.34.9.38 1.26 3.44-.24 7.5-.72 10.14-1.54l-.96-1.2zm-12.12 6.68v.26c-.44 5.22-2.16 8.58-4.82 10.04.3.3.68.88.86 1.26 3.02-1.84 4.8-5.32 5.34-11.42l-.86-.2-.26.06h-.26zm-3.08 2.62l-1.18.52c2.24 6.66 6.8 7.86 12.78 7.86h4.84c.1-.42.36-1.12.6-1.48-1.02.02-4.6.02-5.4.02-5.34 0-9.78-1-11.64-6.92zm4.98 3.34v1.4h11.5v-1.4h-11.5zm-5.58-4.18c0-.32 1.08-.76 1.08-.76v-.04c1.28-1.64 2.66-4.04 3.86-6.54l-.96-.62-.54.24v.1c-.86 2.22-2.3 4.58-2.76 5.18-.42.64-.92 1.16-1.26 1.24.2.28.48.9.58 1.2zm30.04-8.64v18.3h1.48v-18.3h-1.48zm-5.32 3.08v10.7h1.42v-9.32h9.4v9.18h1.46v-10.56H601.7zm.94 4.14v1.34h10.54v-1.34h-10.54zm.06 4.14v1.38h10.54v-1.38H602.7zm-2.22-11.38c-1.12 3.04-3 6.04-4.98 7.98.28.34.7 1.14.86 1.48 2.16-2.24 4.22-5.62 5.54-9.02l-1.42-.44zm-2.08 5.16v13.14h1.44v-14.54l-.04-.02-1.4 1.42zm21.02.94v1.44h11.66v-1.44h-11.66zm5.76 4.72v1.42h6.74v-1.42h-6.74zm-.8-4.04v9.92l1.56.2v-10.12h-1.56zm-4.7 2.38c-.44 3.64-1.52 6.5-3.76 8.22.36.24.98.74 1.22 1 2.26-1.98 3.5-5.02 4.06-9.06l-1.52-.16zm.94 2.56l-1.22.48c1.72 4.88 4.98 5.8 9.74 5.8h4.68c.08-.44.34-1.14.58-1.52-.98.04-4.44.04-5.18.04-4.06-.02-7.18-.72-8.6-4.8zm-3.78-9.54v4.38h1.48v-2.94h13.7v2.94h1.54v-4.38h-16.72zm6.86-1.96c.48.8.94 1.86 1.12 2.52l1.56-.48c-.2-.68-.72-1.7-1.2-2.46l-1.48.42zm13.46 1.82v1.18h16.1v-1.18h-16.1zm1.08 2.42v1.12h13.94v-1.12h-13.94zm-1.94 2.4v1.2h17.8v-1.2h-17.8zm-.02 4.46v1.18h17.88v-1.18h-17.88zm8.12-8.7v4.84h1.54v-4.84h-1.54zm4.32-2.74c-.28.64-.78 1.58-1.2 2.18l1.26.4c.44-.54 1.02-1.36 1.52-2.16l-1.58-.42zm-12.52 14.38l.14 1.22c2.44-.22 5.9-.54 9.24-.86v-1.08c-3.48.3-7.06.56-9.38.72zm4.34-5.12v7.66c0 .28-.1.36-.4.36-.28.02-1.34.02-2.44-.02.18.34.38.84.46 1.2 1.52 0 2.46-.02 3.06-.2.58-.18.78-.52.78-1.3v-7.7h-1.46zm3.8-.88c-1.8.44-5.08.8-7.82.96.14.28.32.7.36 1 2.8-.14 6.18-.5 8.38-1.02l-.92-.94zm1.66.12c.3 5.7 2.92 9.94 6.38 9.94 1.3 0 1.82-.56 2.04-2.68-.36-.12-.84-.34-1.16-.62-.1 1.44-.24 1.9-.8 1.92-2.5.04-4.78-3.58-5.02-8.56H646zm5.3 4.36c-1.6 2.06-4.8 3.52-7.94 4.32.26.3.66.92.8 1.22 3.22-1 6.6-2.68 8.44-5.1l-1.3-.44zm-2.36-3.48c1.14.46 2.52 1.26 3.22 1.86l.86-1c-.72-.62-2.12-1.34-3.26-1.78l-.82.92zm-8.74-8.86c.54.64 1.1 1.56 1.32 2.14l1.38-.56c-.26-.58-.82-1.44-1.42-2.04l-1.28.46zm-157.8 48.6c3 0 5.28-1.62 5.28-6.32v-8.62h-1.78v8.68c0 3.52-1.56 4.62-3.5 4.62-1.92 0-3.42-1.1-3.42-4.62v-8.68h-1.84v8.62c0 4.7 2.28 6.32 5.26 6.32zm9.214-.28h1.86v-14.66h-1.86v14.66zm18.332-9.94v.88h7.82v-.88h-7.82zm0 2v.88h7.88v-.88h-7.88zm-.42 2.04v1.02h9.12v-1.02h-9.12zm-2.46-7.92c-.88 1.86-2.34 3.7-3.82 4.9.3.22.8.74 1 .96 1.5-1.34 3.04-3.4 4.08-5.48l-1.26-.38zm3.2-.04c-.74 1.74-1.94 3.48-3.24 4.66.32.2.84.62 1.06.84 1.26-1.26 2.58-3.22 3.44-5.14l-1.26-.36zm3.3 2.3v6.06h1.28v-6.06h-1.28zm-5.42 8.46v2.8c0 1.4.44 1.76 2.24 1.76h3.24c1.4 0 1.82-.48 1.96-2.46-.36-.1-.94-.3-1.24-.52-.06 1.54-.18 1.74-.86 1.74h-2.96c-.84 0-1-.08-1-.52v-2.8h-1.38zm1.74-.6c1.2.54 2.6 1.44 3.32 2.08l.92-.94c-.74-.64-2.18-1.46-3.34-2l-.9.86zm5.06.88c1.16 1.16 2.36 2.8 2.84 3.9l1.2-.64c-.5-1.1-1.76-2.68-2.92-3.82l-1.12.56zm-9.2-.34c-.42 1.28-1.22 2.72-2.32 3.56l1.16.74c1.18-.94 1.9-2.48 2.38-3.86l-1.22-.44zm4.6-8.84l-.72.98h8.7v-.98h-7.98zm-1.16 1.16v6.56h1.28v-7.64l-1.28 1.08zm-6.26-4.4v1.28h16.06v-1.28h-16.06zm-.82 0v6.04c0 2.94-.12 7.04-1.58 9.96.32.14.92.6 1.16.86 1.58-3.1 1.82-7.7 1.82-10.82v-6.04h-1.4zm3.64 4.7v6.26h1.3v-7.52l-.02-.02-1.28 1.28zm3.48-6.2c.56.74 1.12 1.78 1.36 2.48l1.36-.52c-.26-.68-.86-1.66-1.44-2.4l-1.28.44zm3.52 3.28c.48.52.98 1.26 1.2 1.78l1.14-.56c-.26-.48-.78-1.18-1.28-1.7l-1.06.48zm11.1-1.92v1.44h12.94v-1.44h-12.94zm0 4.66v1.42h12.92v-1.42h-12.92zm-.1 4.78v1.42h13.06v-1.42h-13.06zm-.74-9.44v7.24c0 2.82-.22 6.38-2.42 8.86.32.2.92.7 1.16 1 2.38-2.66 2.74-6.8 2.74-9.84v-7.26h-1.48zm13.18 0v14.94c0 .38-.14.5-.52.52-.38 0-1.74.02-3.16-.04.22.4.46 1.06.52 1.46 1.9.02 3.06 0 3.74-.24.66-.26.9-.72.9-1.7v-14.94h-1.48zm-6.9.54v16.26h1.52v-16.26h-1.52zm13.28 1.26v1.34h4.68v10.38h-4.68v1.36h6.08v-13.08h-6.08zm-.9 0v14.68h1.4v-14.68h-1.4zm.8 5.56v1.34h5.52v-1.34h-5.52zm2.26-8.82c-.16 1.04-.54 2.56-.88 3.52l1.2.3c.4-.9.9-2.28 1.3-3.52l-1.62-.3zm6.76 3.2v1.4h6.14v-1.4h-6.14zm5.62 0v.32c-.28 8.82-.6 12.14-1.26 12.86-.22.26-.46.32-.86.32-.46 0-1.66-.02-2.96-.12.28.4.46 1.02.5 1.46 1.12.06 2.3.1 2.98.02.7-.06 1.16-.24 1.6-.82.8-.98 1.08-4.08 1.4-13.26v-.78h-1.4zm-5.2-3.24c-.64 2.78-1.74 5.54-3.1 7.3.36.2.98.62 1.24.86 1.38-1.9 2.56-4.84 3.3-7.82l-1.44-.34zm-.92 8.44c1.1 1.46 2.44 3.44 3.04 4.66l1.28-.8c-.64-1.18-2.02-3.12-3.16-4.54l-1.16.68zm10.74-2.3v1.2h5.92v-1.2h-5.92zm0 2.62v1.2h5.94v-1.2h-5.94zm-.84-5.28v1.26h7.62v-1.26h-7.62zm1.48 7.96v1.26h3.96v3.32h-3.96v1.26h5.3v-5.84h-5.3zm-.66 0v6.78h1.32v-6.78h-1.32zm1.36-10.84c.54.82 1.18 1.96 1.48 2.7l1.24-.72c-.32-.7-.98-1.76-1.56-2.58l-1.16.6zm7.44.22v1.4h5.18v-1.4h-5.18zm-2.22 8.1v1.42h8.82v-1.42h-8.82zm8.28 0v.26c-1.3 4.28-4.98 6.96-9.02 7.98.28.32.62.94.78 1.34 4.34-1.3 8.2-4.12 9.74-9.22l-.94-.42-.26.06h-.3zm-6.16 1.28l-1.28.44c1.7 3.92 4.84 6.68 9.18 7.82.2-.42.62-1.04.94-1.36-4.22-.94-7.36-3.48-8.84-6.9zm-.2-9.38v2.2c0 1.42-.32 3.06-2.48 4.3.26.22.78.8.96 1.1 2.4-1.42 2.92-3.56 2.92-5.36v-2.24h-1.4zm4.74 0v4.62c0 1.52.28 2.08 1.6 2.08h1.32c.36 0 .76-.02.98-.12-.06-.34-.1-.9-.12-1.28-.24.06-.62.1-.86.1h-1.22c-.26 0-.3-.2-.3-.76v-4.64h-1.4zm7.16 5.32v1.2h6.54v-1.2h-6.54zm0 2.62v1.2h6.5v-1.2h-6.5zm-.9-5.28v1.26h8.28v-1.26h-8.28zm1.68 7.96v1.26h4.42v3.32h-4.42v1.26h5.74v-5.84h-5.74zm-.64 0v6.78h1.3v-6.78h-1.3zm1.34-10.84c.54.82 1.2 1.96 1.5 2.7l1.2-.72c-.32-.7-.96-1.76-1.52-2.58l-1.18.6zm5.88 6.42v1.48h9.58v-1.48h-9.58zm3.92-6.56v18.02h1.54v-18.02h-1.54zm7.84 2.96v1.34h7.12v-1.34h-7.12zm-.42 4.62v1.38h7.94v-1.38h-7.94zm3.3-7.74v6.92c0 3.1-.14 7.5-3.42 9.94.34.28.82.78 1.02 1.1 3.52-2.84 3.84-7.52 3.84-11.06v-6.9h-1.44zm1.1 10.14l-.92.72c.8.86 2.8 3.3 3.5 4.34l1.02-1.12c-.54-.64-2.92-3.32-3.6-3.94zm5.68-5h5.72v1.98h-5.72v-1.98zm0 3.22h5.72v2h-5.72v-2zm0-6.44h5.72v1.96h-5.72v-1.96zm-1.42-1.34v11.14h8.58v-11.14h-8.58zm4.8 10.54v4.86c0 1.42.32 1.86 1.68 1.86h1.64c1.2 0 1.56-.68 1.68-3.42-.38-.1-.98-.32-1.26-.58-.06 2.36-.14 2.66-.56 2.66h-1.28c-.44 0-.48-.06-.48-.54v-4.84h-1.42zm-3.16.28c-.28 2.64-1.06 4.6-4.26 5.64.3.26.7.8.86 1.12 3.52-1.26 4.48-3.56 4.84-6.76h-1.44zm10.18-5.66v1.14h9.18v-1.14h-9.18zm-.4 8.64v1.16h9.72v-1.16h-9.72zm11-8.98v1.32h5.18v-1.32h-5.18zm-6.56-.86v13.64h1.3v-13.64h-1.3zm5.96.86v10c0 1.82.54 2.28 2.32 2.28h3.32c1.64 0 2.06-.78 2.24-3.46-.42-.08-1-.32-1.34-.56-.08 2.2-.22 2.66-1 2.66h-3.06c-.88 0-1.04-.16-1.04-.92v-10h-1.44zm5 0v5.96c0 .22-.06.3-.34.32-.3 0-1.2 0-2.3-.02.2.4.44.98.52 1.4 1.38 0 2.28-.02 2.84-.26.58-.24.72-.68.72-1.42v-5.98h-1.44zm-13.06 5.66h5.38v1.26h-5.38v-1.26zm0-2.2h5.38v1.24h-5.38v-1.24zm-1.22-1v5.48h7.88v-5.48h-7.88zm1.4-6.66v1.22h6.4v-1.22h-6.4zm8.32.02v1.2h7.32v-1.2h-7.32zm-7.86-1.58c-.66 1.66-1.8 3.3-3.02 4.4.32.24.84.74 1.06 1 1.24-1.24 2.52-3.12 3.3-5.02l-1.34-.38zm8.24 0c-.56 1.68-1.56 3.3-2.74 4.36.34.2.9.64 1.16.88 1.2-1.18 2.34-3 2.96-4.9l-1.38-.34zm-7.2 3.36c.72.62 1.62 1.5 2.06 2.06l.98-.88c-.46-.52-1.38-1.36-2.12-1.94l-.92.76zm8.72.12c.7.56 1.56 1.38 2 1.92l1-.9c-.44-.5-1.32-1.28-2.02-1.82l-.98.8zm80.994-61.28v1.2h6.14v-1.2h-6.14zm0 2.62v1.2h6.12v-1.2h-6.12zm-.88-5.28v1.26h7.64v-1.26h-7.64zm1.56 7.96v1.26h4.04v3.32h-4.04v1.26h5.38v-5.84h-5.38zm-.68 0v6.78h1.32v-6.78h-1.32zm1.36-10.84c.54.82 1.2 1.96 1.5 2.7l1.22-.72c-.32-.7-.96-1.76-1.54-2.58l-1.18.6zm5.8 1.18v1.46h10.24v-1.46h-10.24zm5.64.42v14.02c0 .38-.14.5-.54.52-.44.04-1.94.04-3.48-.02.26.42.52 1.14.62 1.56 1.94 0 3.2-.02 3.94-.28.72-.24.96-.74.96-1.76v-14.04h-1.5zm10.8 4.06v1.44h11.66v-1.44h-11.66zm5.76 4.72v1.42h6.74v-1.42h-6.74zm-.8-4.04v9.92l1.56.2v-10.12h-1.56zm-4.7 2.38c-.44 3.64-1.52 6.5-3.76 8.22.36.24.98.74 1.22 1 2.26-1.98 3.5-5.02 4.06-9.06l-1.52-.16zm.94 2.56l-1.22.48c1.72 4.88 4.98 5.8 9.74 5.8h4.68c.08-.44.34-1.14.58-1.52-.98.04-4.44.04-5.18.04-4.06-.02-7.18-.72-8.6-4.8zm-3.78-9.54v4.38h1.48v-2.94h13.7v2.94h1.54v-4.38h-16.72zm6.86-1.96c.48.8.94 1.86 1.12 2.52l1.56-.48c-.2-.68-.72-1.7-1.2-2.46l-1.48.42zm24.34 7.78v7.72c0 1.74.48 2.26 2.3 2.26h2.88c1.76 0 2.16-.94 2.32-4.38-.4-.12-1.06-.38-1.4-.66-.08 3.08-.2 3.6-1.02 3.6h-2.6c-.78 0-.94-.12-.94-.82v-7.72h-1.54zm-10.46-.9v1.46h17.66v-1.46h-17.66zm1.74-5.62v1.46h14.22v-1.46h-14.22zm3.38 6.74c-.3 3.9-.94 7.22-5.36 8.88.34.28.78.82.94 1.18 4.78-1.9 5.66-5.58 6-10.06h-1.58zm28.34 2.92c1.4.92 3.1 2.28 3.9 3.22l1.16-.82c-.84-.92-2.56-2.24-3.96-3.1l-1.1.7zm-.72 3.86c1.68.84 3.84 2.14 4.88 3.02l1.16-.94c-1.12-.88-3.3-2.1-4.94-2.9l-1.1.82zm-6.88-.82c-1.2 1.1-3.14 2.16-4.92 2.86.34.22.9.74 1.14 1.02 1.74-.8 3.8-2.06 5.16-3.34l-1.38-.54zm3.38-14.28v7.12h1.5v-7.12h-1.5zm-7.14 1.5v1.14h15.96v-1.14h-15.96zm1.12 2.42v1.16h13.66v-1.16H779.6zm-2.12 2.46v1.2h17.9v-1.2h-17.9zm1.22 7.76c0-.28.98-.54.98-.54v-.06c3.82-1 7.78-2.46 11.52-4.48l-1.06-.96c-3.26 1.9-7.74 3.58-9.04 4-1.2.42-2.08.66-2.76.72.14.38.32 1.02.36 1.32zm0 0c.72-.24 1.8-.3 14.1-.98-.1-.26-.2-.72-.24-1.06l-12.92.64-.94.48v.92zm1.54-3.18c0-.3.9-.62.9-.62v-.04c1.74-.54 3.5-1.34 5.14-2.36l-1.06-.84c-1.44 1.06-3.4 1.92-3.98 2.16-.54.22-.98.36-1.4.42.16.34.34 1 .4 1.28zm0 0c.46-.18 1.18-.24 7.72-.6.04-.24.16-.7.26-1.02l-7.22.34-.76.4v.88zm5.72 1.82v3.9c0 .22-.08.3-.4.3-.32.02-1.4.02-2.62-.02.22.4.48.96.56 1.4 1.48 0 2.46-.02 3.1-.24.66-.22.82-.62.82-1.4v-3.94h-1.46zm23.16-.64l1.36-1.16c-1.24-1.46-3.04-3.28-4.48-4.44l-1.3 1.14c1.42 1.16 3.14 2.88 4.42 4.46zm21.32-4.04v7.72c0 1.74.48 2.26 2.3 2.26h2.88c1.76 0 2.16-.94 2.32-4.38-.4-.12-1.06-.38-1.4-.66-.08 3.08-.2 3.6-1.02 3.6h-2.6c-.78 0-.94-.12-.94-.82v-7.72h-1.54zm-10.46-.9v1.46h17.66v-1.46h-17.66zm1.74-5.62v1.46h14.22v-1.46h-14.22zm3.38 6.74c-.3 3.9-.94 7.22-5.36 8.88.34.28.78.82.94 1.18 4.78-1.9 5.66-5.58 6-10.06h-1.58zm26.98-8.04v18.14h1.5v-18.14h-1.5zm-3.46.76c-.46 2.6-1.3 5.18-2.46 6.86.38.16 1 .52 1.3.74 1.14-1.78 2.06-4.52 2.6-7.32l-1.44-.28zm.2 3.08l-.38 1.48h9.72v-1.48h-9.34zm-2.5 5.88v1.48h12.72v-1.48h-12.72zm-.98-9.9c-1.06 3.04-2.84 6.04-4.72 7.98.28.36.72 1.14.86 1.48 2.08-2.26 4.02-5.64 5.28-9.02l-1.42-.44zm-2.02 5.16v13.14h1.44v-14.54l-.02-.02-1.42 1.42zm29.4 6.88l1.36-1.16c-1.24-1.46-3.04-3.28-4.48-4.44l-1.3 1.14c1.42 1.16 3.14 2.88 4.42 4.46zm16.46.58v1.26h12.08v-1.26h-12.08zm2.7-4.24h6.96v1.44h-6.96v-1.44zm0-2.5h6.96v1.42h-6.96v-1.42zm-1.4-1.12v6.2h9.82v-6.2h-9.82zm4.1 6c-.36 3.32-1.28 5.38-5.9 6.38.28.3.66.86.8 1.2 5.02-1.2 6.16-3.64 6.58-7.58h-1.48zm-5-9.18v1.26h5.46v-1.26h-5.46zm2.48-1.64v4.32h1.36v-4.32h-1.36zm5.38 0v4.32h1.34v-4.32h-1.34zm-1.72 1.62v1.26h5.78v-1.26h-5.78zm-.34 13.4c1.76.98 4.12 2.42 5.3 3.28l.94-1.1c-1.24-.84-3.6-2.2-5.36-3.12l-.88.94zm-11.84-11.16v1.38h6.22v-1.38h-6.22zm2.56-3.88v18.38h1.38v-18.38h-1.38zm0 4.78c-.52 2.72-1.8 6.22-3.04 8 .26.36.62 1.02.78 1.46 1.32-2.04 2.56-6 3.14-9.12l-.88-.34zm1.3 1.16l-.74.58c.5.88 1.76 3.42 2.18 4.52l.92-1.08c-.34-.64-1.94-3.42-2.36-4.02zm-166.58 42.68v1.38h11.14v-1.38h-11.14zm2.76-10.5v1.38h6.12v-1.38h-6.12zm0 5.22v1.34h6.12v-1.34h-6.12zm-.98-10.32v16.3h1.38v-14.92h5.2v14.92h1.44v-16.3h-8.02zm-3.62 6.88c.54 1.38 1.08 3.16 1.28 4.26l1.26-.42c-.22-1.06-.82-2.84-1.36-4.18l-1.18.34zm-2.04 5.14c.22 1.38.44 3.18.5 4.36l1.26-.24c-.06-1.2-.3-2.96-.56-4.34l-1.2.22zm-2.4-.16c-.2 1.62-.48 3.42-.96 4.64.32.1.94.3 1.24.46.42-1.26.8-3.14 1-4.88l-1.28-.22zm-.5-5.38c0-.3.94-.76.94-.76v-.04c1.4-1.6 2.82-3.92 3.94-6.18l-1.36-.58c-.9 2.2-2.38 4.5-2.82 5.1-.46.6-.82 1.02-1.16 1.1.16.38.38 1.06.46 1.36zm0 0c.34-.16.9-.28 4.28-.66.02-.3.06-.84.12-1.2l-3.72.3-.7.46.02 1.1zm.14 4.5c0-.3.96-.74.96-.74v-.04c2.02-1.94 4.06-4.66 5.72-7.4l-1.3-.76c-1.42 2.7-3.62 5.5-4.32 6.22-.64.72-1.12 1.22-1.54 1.32.16.38.4 1.1.48 1.4zm0 0c.4-.22 1.08-.36 6.18-1.12-.02-.28.02-.82.06-1.2l-5.56.72-.72.5.04 1.1zm4.98.66c.38 1.1.84 2.54.98 3.48l1.22-.4c-.2-.92-.64-2.36-1.06-3.44l-1.14.36zm23.2.38c2.1-.72 3.46-2.36 3.46-4.52 0-1.4-.6-2.32-1.72-2.32-.8 0-1.52.5-1.52 1.44s.68 1.44 1.5 1.44c.38 0 .78-.1 1.06-.46l-1.08-1.52.38 1.68c0 1.52-.9 2.54-2.54 3.2l.46 1.06zm18.78-9.28v1.4h12.92v-1.4h-12.92zm5.5.48c-1.52 2.76-4.1 5.3-6.7 6.88.32.28.84.92 1.04 1.24 2.64-1.8 5.34-4.58 7.08-7.6l-1.42-.52zm6.48 2.88c-1.1 1.18-3.02 2.82-4.4 3.76l.86.84c1.4-.88 3.26-2.34 4.66-3.56l-1.12-1.04zm-5.38-1.98l-1.3.32c1.22 5.34 3.52 10.08 7.06 12.38.26-.38.76-.94 1.12-1.22-3.42-2-5.76-6.58-6.88-11.48zm-1.62-4.62c.54 1.02 1.16 2.36 1.4 3.2l1.4-.54c-.26-.82-.88-2.12-1.48-3.08l-1.32.42zm-2.92 17.94c.42-.32 1.06-.6 5.48-2.24-.08-.3-.2-.9-.22-1.3l-4.72 1.66-.68.58.14 1.3zm-2.68-18.42c-1.06 3.04-2.82 6.02-4.68 7.98.26.34.7 1.12.86 1.48 2.06-2.26 4-5.66 5.24-9.04l-1.42-.42zm-2.12 5.24v13.14h1.44v-14.54l-.04-.02-1.4 1.42zm4.8 13.2c0-.56 1.66-1.74 1.66-1.74v-8h-1.46v6.88c0 .92-.62 1.46-.98 1.72.24.26.66.8.78 1.14zm19.56-17.58v1.16h12.5v-1.16h-12.5zm2.26 3.92v.78h7.96v-.78h-7.96zm0 1.66v.78h7.96v-.78h-7.96zm-.8-3.38v5.54h1.38v-4.66h6.7v4.66h1.4v-5.54h-9.48zm-1.98 5.04v2.7h1.32v-1.74h10.66v1.74h1.36v-2.7h-13.34zm2.74 1.56c-.46.74-1.22 1.58-2.04 2.04l.88.72c.9-.54 1.62-1.46 2.12-2.24l-.96-.52zm1.04 0v1.22c0 1.1.4 1.34 1.92 1.34h2.78c1.02 0 1.36-.3 1.48-1.46-.32-.06-.78-.2-1.02-.34-.08.78-.18.88-.64.88h-2.48c-.68 0-.8-.06-.8-.42v-1.22h-1.24zm1.66-.16c.7.4 1.52 1.02 1.94 1.46l.86-.62c-.44-.42-1.28-1.02-1.96-1.38l-.84.54zm4.04.64c.86.7 1.84 1.7 2.3 2.36l.88-.58c-.48-.68-1.48-1.64-2.32-2.32l-.86.54zm-4.68 1.66c-.98 1.18-2.7 2.5-5 3.44.28.2.68.6.88.9 2.44-1.14 4.24-2.56 5.48-4.06l-1.36-.28zm5.18 1.28v.24c-1.34 1.9-5.06 3.38-10.44 3.96.28.32.6.8.74 1.12 5.64-.72 9.5-2.34 11.22-4.86l-.94-.52-.28.06h-.3zm-7.76-.18l-1.14.42c2.2 2.92 6.46 4.5 11.38 5.06.18-.36.52-.88.78-1.18-4.82-.44-9.08-1.82-11.02-4.3zm1.82.18l-1 1h7.36v-1h-6.36zm1.8-11.68c-.08.58-.3 1.4-.48 2.04l1.3.2c.24-.54.52-1.3.82-2.06l-1.64-.18zm-7.1-1.32c-.9 3.08-2.36 6.14-4.02 8.16.26.38.66 1.18.8 1.54 1.88-2.34 3.54-5.88 4.62-9.32l-1.4-.38zm-1.48 4.9v13.38h1.42v-14.72l-.04-.04-1.38 1.38zm29.92 4.64v6.28c0 1.66.44 2.16 2.22 2.16h2.82c1.62 0 2.06-.8 2.22-3.84-.42-.1-1.06-.34-1.4-.6-.08 2.6-.18 3-.92 3h-2.54c-.76 0-.9-.1-.9-.7v-6.3h-1.5zm-10.6-1.04v1.44h17.58v-1.44h-17.58zm3.28-5.5v1.46h12.86v-1.46H802.1zm1.98 6.6c-.34 3.48-1.16 6.16-5.54 7.52.34.3.78.88.96 1.28 4.7-1.62 5.74-4.72 6.14-8.8h-1.56zm-1.58-9.24c-.48 2.08-1.5 4.76-2.86 6.44.36.16.96.48 1.3.72 1.4-1.78 2.46-4.58 3.08-6.86l-1.52-.3zm4.34-.46v9.06h1.52v-9.06h-1.52zm18.16 7.86c.6 1.34 1.2 3.1 1.4 4.18l1.18-.48c-.2-1.04-.86-2.76-1.48-4.08l-1.1.38zm-2.06 5.14c.22 1.28.42 2.96.46 4.06l1.18-.28c-.06-1.08-.3-2.72-.54-4l-1.1.22zm-2.18-.14c-.2 1.62-.5 3.42-.96 4.64.32.1.9.3 1.16.44.44-1.24.8-3.14 1.02-4.86l-1.22-.22zm-.46-5.38c0-.32.94-.78.94-.78v-.04c1.34-1.6 2.7-3.92 3.74-6.14l-1.42-.6c-.82 2.18-2.22 4.46-2.64 5.04-.42.62-.76 1.02-1.12 1.1.18.4.42 1.1.5 1.42zm0-.02c.3-.14.88-.26 4.04-.62 0-.3.06-.84.12-1.22l-3.5.3-.7.44.04 1.1zm.12 4.52c0-.3.96-.76.96-.76v-.04c1.94-1.96 3.88-4.72 5.44-7.46l-1.3-.78c-1.3 2.72-3.42 5.56-4.08 6.3-.62.74-1.06 1.24-1.5 1.34.18.38.4 1.1.48 1.4zm0 0c.4-.22 1.06-.38 6.02-1.18-.02-.3 0-.84.04-1.2l-5.4.76-.72.48.06 1.14zm4.7.64c.38 1.04.8 2.42.96 3.3l1.14-.38c-.2-.86-.64-2.22-1.04-3.26l-1.06.34zm2.24-11.68v1.42h7.32v-1.42h-7.32zm6.96 0v.18c-.18 1.36-.6 4.02-1 5.92l1.4.14c.38-1.88.78-4.34 1.02-6.16l-1.02-.14-.24.06h-.16zm-4.38 5.72l-.26 1.36h6.68v-1.36h-6.42zm6 0v.3c-.92 4.92-3.62 8.66-6.8 10.3.34.26.76.78.96 1.14 3.46-1.96 6.28-5.74 7.34-11.46l-.96-.34-.26.06h-.28zm-6.6-5.18c-.02 6.94-.38 12.44-3.1 15.84.34.2 1.06.7 1.3.94 2.76-3.84 3.16-9.3 3.28-16.76l-1.48-.02zm2.24 6.04l-1.24.26c1.1 4.8 3.18 8.72 6.72 10.5.24-.38.7-.96 1.04-1.24-3.44-1.5-5.54-5.22-6.52-9.52zm15-3.14v1.2h12.32v-1.2h-12.32zm1 5.5v1.14h10.4v-1.14h-10.4zm-.86 2.74v1.2h12v-1.2h-12zm4.9-12.62v15.8h1.42v-15.8h-1.42zm-3.74 1.7v1.2h8.28v4.24h-8.42v1.2h9.78v-6.64h-9.64zm-6.62-.46v1.34h4.58v-1.34h-4.58zm1.46 5.72l-.18 1.32h3.24v-1.32h-3.06zm2.56 0v.28c-.52 5.06-2.08 8.38-4.56 10.14.34.2.88.72 1.12 1 2.5-1.92 4.22-5.56 4.84-11.24l-.86-.22-.26.04h-.28zm-2.6 2.96l-1.14.42c1.88 6.34 5.74 7.56 11.5 7.56h5.62c.08-.4.34-1.06.58-1.38-1.04.02-5.36.02-6.16.02-5.1 0-8.8-1.02-10.4-6.62zm-.76-1c0-.3 1.08-.76 1.08-.76v-.02c1.24-1.64 2.58-4.02 3.74-6.5l-.96-.64-.56.26v.1c-.82 2.2-2.22 4.54-2.64 5.14-.4.64-.9 1.12-1.26 1.2.2.32.5.92.6 1.22zm21.2-5.16v1.5h16.2v-1.5h-16.2zm-.86 12.28v1.5h17.86v-1.5h-17.86zm3.64-9.34c.76 2.66 1.6 6.18 1.9 8.46l1.58-.38c-.34-2.32-1.18-5.74-2-8.44l-1.48.36zm9.12-.34c-.7 3.04-2 7.44-3.14 10l1.48.32c1.1-2.54 2.44-6.74 3.34-10.04l-1.68-.28zm-5.26-6.1c.38 1.04.8 2.4.96 3.28l1.54-.46c-.2-.88-.64-2.18-1.06-3.2l-1.44.38zm24.28 7.8v7.72c0 1.74.48 2.26 2.3 2.26h2.88c1.76 0 2.16-.94 2.32-4.38-.4-.12-1.06-.38-1.4-.66-.08 3.08-.2 3.6-1.02 3.6h-2.6c-.78 0-.94-.12-.94-.82v-7.72h-1.54zm-10.46-.9v1.46h17.66v-1.46h-17.66zm1.74-5.62v1.46h14.22v-1.46h-14.22zm3.38 6.74c-.3 3.9-.94 7.22-5.36 8.88.34.28.78.82.94 1.18 4.78-1.9 5.66-5.58 6-10.06h-1.58zm-163.82 23.96v18.14h1.5v-18.14h-1.5zm-3.46.76c-.46 2.6-1.3 5.18-2.46 6.86.38.16 1 .52 1.3.74 1.14-1.78 2.06-4.52 2.6-7.32l-1.44-.28zm.2 3.08l-.38 1.48h9.72v-1.48h-9.34zm-2.5 5.88v1.48h12.72v-1.48h-12.72zm-.98-9.9c-1.06 3.04-2.84 6.04-4.72 7.98.28.36.72 1.14.86 1.48 2.08-2.26 4.02-5.64 5.28-9.02l-1.42-.44zm-2.02 5.16v13.14h1.44v-14.54l-.02-.02-1.42 1.42zm21.58-.46v1.18h13.56v-1.18H737.7zm-.88 9.98v1.26h15.08v-1.26h-15.08zm6.68-11.24v14.78h1.44v-14.78h-1.44zm-3.72 7.26h9.04v1.54h-9.04v-1.54zm0-2.48h9.04v1.5h-9.04v-1.5zm-1.32-1.04v6.08h11.76v-6.08h-11.76zm-2.6-5.48v1.3h15.9v-1.3h-15.9zm-.7 0v6.26c0 2.88-.16 6.78-1.74 9.56.32.14.94.56 1.2.84 1.7-2.92 1.96-7.32 1.96-10.4v-6.26h-1.42zm7.06-1.36c.5.72 1.04 1.72 1.24 2.36l1.46-.48c-.24-.66-.76-1.6-1.32-2.3l-1.38.42zm23.76.6v1.32h3.7v-1.32h-3.7zm-4.64.98v1.28h3.9v-1.28h-3.9zm4.82 2.86v1.28h3.46v-1.28h-3.46zm-.12 3.76v1.28h3.4v-1.28h-3.4zm-9.88-3.82v1.28h3.4v-1.28h-3.4zm.1 3.74v1.28h3.36v-1.28h-3.36zm12.6-7.52c.02 3.7-.16 8.9-.36 11.84h1.4c.2-2.9.32-8.06.36-11.84h-1.4zm-9.76-.9c-.98.5-2.48 1.1-3.74 1.54.16.32.34.78.4 1.08 1.28-.38 2.84-.88 4.06-1.4l-.72-1.22zm1.52.02v6.5h3.94v-1.22h-2.64v-5.28h-1.3zm-6.9 12.16v1.4h18.16v-1.4h-18.16zm11 2.68c2.1 1.02 4.32 2.36 5.68 3.34l1-1.14c-1.4-.96-3.72-2.24-5.86-3.24l-.82 1.04zm-5.12-.96c-1.28 1.08-3.7 2.44-5.62 3.22.3.32.68.82.88 1.14 1.96-.86 4.38-2.2 6.02-3.46l-1.28-.9zm-4.24-12.36l.4 11.12h1.36l-.36-10.72-1.4-.4zm5.9 5.86c-.18 1.22-.48 2.44-1.1 3.3.28.14.82.46 1.02.64.62-.94 1.04-2.34 1.26-3.74l-1.18-.2zm2.56-2.08v5.32c0 .18-.06.24-.26.24-.2.02-.8.02-1.52 0 .16.3.32.7.38 1.02.98 0 1.68 0 2.12-.18.44-.18.56-.46.56-1.08v-5.32h-1.28zm10.76.62v1.2h5.92v-1.2h-5.92zm0 2.62v1.2h5.94v-1.2h-5.94zm-.84-5.28v1.26h7.62v-1.26h-7.62zm1.48 7.96v1.26h3.96v3.32h-3.96v1.26h5.3v-5.84h-5.3zm-.66 0v6.78h1.32v-6.78h-1.32zm1.36-10.84c.54.82 1.18 1.96 1.48 2.7l1.24-.72c-.32-.7-.98-1.76-1.56-2.58l-1.16.6zm7.44.22v1.4h5.18v-1.4h-5.18zm-2.22 8.1v1.42h8.82v-1.42h-8.82zm8.28 0v.26c-1.3 4.28-4.98 6.96-9.02 7.98.28.32.62.94.78 1.34 4.34-1.3 8.2-4.12 9.74-9.22l-.94-.42-.26.06h-.3zm-6.16 1.28l-1.28.44c1.7 3.92 4.84 6.68 9.18 7.82.2-.42.62-1.04.94-1.36-4.22-.94-7.36-3.48-8.84-6.9zm-.2-9.38v2.2c0 1.42-.32 3.06-2.48 4.3.26.22.78.8.96 1.1 2.4-1.42 2.92-3.56 2.92-5.36v-2.24h-1.4zm4.74 0v4.62c0 1.52.28 2.08 1.6 2.08h1.32c.36 0 .76-.02.98-.12-.06-.34-.1-.9-.12-1.28-.24.06-.62.1-.86.1h-1.22c-.26 0-.3-.2-.3-.76v-4.64h-1.4zm7.16 5.32v1.2h6.54v-1.2h-6.54zm0 2.62v1.2h6.5v-1.2h-6.5zm-.9-5.28v1.26h8.28v-1.26h-8.28zm1.68 7.96v1.26h4.42v3.32h-4.42v1.26h5.74v-5.84h-5.74zm-.64 0v6.78h1.3v-6.78h-1.3zm1.34-10.84c.54.82 1.2 1.96 1.5 2.7l1.2-.72c-.32-.7-.96-1.76-1.52-2.58l-1.18.6zm5.88 6.42v1.48h9.58v-1.48h-9.58zm3.92-6.56v18.02h1.54v-18.02h-1.54zm12.28 12.4c-1.04 1.42-2.72 2.9-4.3 3.84.38.22 1.02.72 1.32.98 1.52-1.04 3.28-2.68 4.48-4.28l-1.5-.54zm7.02.6c1.6 1.22 3.58 2.98 4.52 4.06l1.28-.88c-1.02-1.1-3.02-2.78-4.62-3.96l-1.18.78zm-3.32-2.42v5.6c0 .24-.08.3-.4.32-.34.04-1.42.04-2.64-.02.24.42.5 1.06.58 1.5 1.46 0 2.48-.02 3.14-.26.66-.24.84-.66.84-1.52v-5.62h-1.52zm4.84-10.94c-2.88 1.34-8.02 2.6-12.56 3.44.18.32.4.86.46 1.24 4.6-.82 9.84-2 13.2-3.5l-1.1-1.18zm-11.68 12.52c0-.28 1.08-.62 1.08-.62v-.04c3.72-1.44 7.62-3.42 11.32-6.02l-1.16-.98c-3.3 2.48-7.6 4.68-8.94 5.26-1.22.56-2.12.88-2.76.96.16.4.4 1.14.46 1.44zm0 0c.76-.28 1.9-.38 13.94-1.26 0-.32 0-.9.04-1.3l-12.98.88-1.04.54.04 1.14zm1.08-4.2c0-.28 1.02-.68 1.02-.68v-.04c2.04-.86 4.18-2.16 6.18-3.7l-1.34-.84c-1.68 1.5-3.96 2.86-4.68 3.22-.66.34-1.18.56-1.62.6.16.4.38 1.14.44 1.44zm0 0c.52-.18 1.32-.26 8.18-.68.02-.3.1-.86.18-1.24l-7.5.38-.88.46.02 1.08zm9.6-.24c1.48 1.4 3.22 3.36 4.06 4.58l1.28-.78c-.86-1.2-2.58-3.04-4.1-4.42l-1.24.62zm21.72-2.8c1.02 1.56 2.2 3.7 2.72 4.96l1.34-.66c-.54-1.28-1.78-3.3-2.82-4.84l-1.24.54zm-6.66-2.76v1.42h10.6v-1.42h-10.6zm5.7 5.96v7.6c0 1.52.34 1.96 1.74 1.96h1.74c1.22 0 1.58-.72 1.72-3.4-.42-.12-1-.34-1.34-.6-.02 2.3-.1 2.66-.54 2.66h-1.4c-.42 0-.5-.1-.5-.62v-7.6h-1.42zm-3.32.4c-.1 4.52-.5 7-3.8 8.42.34.28.76.8.94 1.16 3.62-1.66 4.16-4.56 4.3-9.58h-1.44zm-2 .96c.54-.24 1.4-.36 8.88-1.2-.06-.3-.12-.88-.14-1.26l-7.92.78-.86.52.04 1.16zm0 0c0-.32 1.08-.84 1.08-.84v-.04c1.72-2.2 3.54-5.36 4.92-8.5l-1.62-.48c-1.1 2.96-2.92 6.08-3.52 6.88-.54.84-.98 1.38-1.38 1.5.2.4.44 1.16.52 1.48zm-3.16-1.98c.6 1.28 1.16 3 1.36 4.04l1.16-.46c-.2-1.02-.8-2.68-1.42-3.96l-1.1.38zm-1.8 5.14c.24 1.36.44 3.12.5 4.28l1.18-.28c-.06-1.16-.3-2.9-.54-4.24l-1.14.24zm-2.16-.14c-.18 1.62-.48 3.42-.96 4.64.32.1.92.3 1.18.44.4-1.24.8-3.14 1.02-4.86l-1.24-.22zm-.46-5.38c0-.32.94-.78.94-.78v-.04c1.34-1.6 2.72-3.92 3.78-6.16l-1.38-.6c-.84 2.18-2.26 4.5-2.7 5.08-.42.6-.78 1.02-1.12 1.1.16.38.4 1.08.48 1.4zm0 0c.3-.16.84-.26 4.06-.62-.02-.3.04-.8.1-1.14l-3.52.3-.66.42.02 1.04zm.12 4.5c0-.3.96-.76.96-.76v-.02c1.94-2 3.88-4.8 5.44-7.58l-1.3-.74c-1.3 2.74-3.42 5.62-4.08 6.36-.6.74-1.06 1.24-1.48 1.34.16.4.4 1.1.46 1.4zm0 0c.4-.2 1.02-.36 5.86-1.16-.04-.28-.04-.8.02-1.16l-5.26.78-.66.46.04 1.08zm4.72.62c.42 1.16.88 2.66 1.06 3.66l1.14-.4c-.22-.96-.7-2.46-1.14-3.62l-1.06.36zm117.58-72.86v1.4h12.92v-1.4h-12.92zm5.5.48c-1.52 2.76-4.1 5.3-6.7 6.88.32.28.84.92 1.04 1.24 2.64-1.8 5.34-4.58 7.08-7.6l-1.42-.52zm6.48 2.88c-1.1 1.18-3.02 2.82-4.4 3.76l.86.84c1.4-.88 3.26-2.34 4.66-3.56l-1.12-1.04zm-5.38-1.98l-1.3.32c1.22 5.34 3.52 10.08 7.06 12.38.26-.38.76-.94 1.12-1.22-3.42-2-5.76-6.58-6.88-11.48zm-1.62-4.62c.54 1.02 1.16 2.36 1.4 3.2l1.4-.54c-.26-.82-.88-2.12-1.48-3.08l-1.32.42zm-2.92 17.94c.42-.32 1.06-.6 5.48-2.24-.08-.3-.2-.9-.22-1.3l-4.72 1.66-.68.58.14 1.3zm-2.68-18.42c-1.06 3.04-2.82 6.02-4.68 7.98.26.34.7 1.12.86 1.48 2.06-2.26 4-5.66 5.24-9.04l-1.42-.42zm-2.12 5.24v13.14h1.44v-14.54l-.04-.02-1.4 1.42zm4.8 13.2c0-.56 1.66-1.74 1.66-1.74v-8h-1.46v6.88c0 .92-.62 1.46-.98 1.72.24.26.66.8.78 1.14zm15.04-17.6v12.46h1.42v-12.46h-1.42zm.76 0v1.34h3.68v8.74h-3.68v1.38h5.08v-11.46h-5.08zm-.02 4.84v1.34h4.42v-1.34h-4.42zm5.96-4.88v1.34h8.96v-1.34h-8.96zm8.48 0v.2c-.14 2.74-.3 3.76-.6 4.06-.14.14-.32.18-.62.18-.32 0-1.14-.02-2-.1.2.36.34.88.38 1.26.92.04 1.8.04 2.26 0 .52-.04.88-.14 1.18-.46.44-.46.62-1.66.82-4.56.02-.2.02-.58.02-.58h-1.44zm-5 .42c-.26 2.36-1.06 3.92-4.12 4.76.32.26.7.78.84 1.12 3.44-1.04 4.42-2.96 4.78-5.88h-1.5zm-1.46 7.42H988v3.04h-5.84v-3.04zm-1.42-1.26v5.56h8.74v-5.56h-8.74zm-2.34 6.9c.24 1.3.4 3 .4 4.02l1.48-.22c-.02-1-.24-2.66-.5-3.96l-1.38.16zm4.28-.06c.52 1.28 1.02 3 1.2 4.02l1.48-.32c-.2-1.04-.74-2.72-1.28-3.96l-1.4.26zm4.08-.12c.94 1.34 2.06 3.18 2.52 4.3l1.44-.64c-.5-1.12-1.66-2.9-2.62-4.2l-1.34.54zm-11.68-.4c-.68 1.46-1.72 3.12-2.64 4.14l1.44.62c.92-1.14 1.92-2.86 2.62-4.36l-1.42-.4zm24.08-12.84v1.16h12.5v-1.16h-12.5zm2.26 3.92v.78h7.96v-.78h-7.96zm0 1.66v.78h7.96v-.78h-7.96zm-.8-3.38v5.54h1.38v-4.66h6.7v4.66h1.4v-5.54h-9.48zm-1.98 5.04v2.7h1.32v-1.74h10.66v1.74h1.36v-2.7h-13.34zm2.74 1.56c-.46.74-1.22 1.58-2.04 2.04l.88.72c.9-.54 1.62-1.46 2.12-2.24l-.96-.52zm1.04 0v1.22c0 1.1.4 1.34 1.92 1.34h2.78c1.02 0 1.36-.3 1.48-1.46-.32-.06-.78-.2-1.02-.34-.08.78-.18.88-.64.88h-2.48c-.68 0-.8-.06-.8-.42v-1.22h-1.24zm1.66-.16c.7.4 1.52 1.02 1.94 1.46l.86-.62c-.44-.42-1.28-1.02-1.96-1.38l-.84.54zm4.04.64c.86.7 1.84 1.7 2.3 2.36l.88-.58c-.48-.68-1.48-1.64-2.32-2.32l-.86.54zm-4.68 1.66c-.98 1.18-2.7 2.5-5 3.44.28.2.68.6.88.9 2.44-1.14 4.24-2.56 5.48-4.06l-1.36-.28zm5.18 1.28v.24c-1.34 1.9-5.06 3.38-10.44 3.96.28.32.6.8.74 1.12 5.64-.72 9.5-2.34 11.22-4.86l-.94-.52-.28.06h-.3zm-7.76-.18l-1.14.42c2.2 2.92 6.46 4.5 11.38 5.06.18-.36.52-.88.78-1.18-4.82-.44-9.08-1.82-11.02-4.3zm1.82.18l-1 1h7.36v-1h-6.36zm1.8-11.68c-.08.58-.3 1.4-.48 2.04l1.3.2c.24-.54.52-1.3.82-2.06l-1.64-.18zm-7.1-1.32c-.9 3.08-2.36 6.14-4.02 8.16.26.38.66 1.18.8 1.54 1.88-2.34 3.54-5.88 4.62-9.32l-1.4-.38zm-1.48 4.9v13.38h1.42v-14.72l-.04-.04-1.38 1.38zm29.92 4.64v6.28c0 1.66.44 2.16 2.22 2.16h2.82c1.62 0 2.06-.8 2.22-3.84-.42-.1-1.06-.34-1.4-.6-.08 2.6-.18 3-.92 3h-2.54c-.76 0-.9-.1-.9-.7v-6.3h-1.5zm-10.6-1.04v1.44h17.58v-1.44h-17.58zm3.28-5.5v1.46h12.86v-1.46h-12.86zm1.98 6.6c-.34 3.48-1.16 6.16-5.54 7.52.34.3.78.88.96 1.28 4.7-1.62 5.74-4.72 6.14-8.8h-1.56zm-1.58-9.24c-.48 2.08-1.5 4.76-2.86 6.44.36.16.96.48 1.3.72 1.4-1.78 2.46-4.58 3.08-6.86l-1.52-.3zm4.34-.46v9.06h1.52v-9.06h-1.52zm18.16 7.86c.6 1.34 1.2 3.1 1.4 4.18l1.18-.48c-.2-1.04-.86-2.76-1.48-4.08l-1.1.38zm-2.06 5.14c.22 1.28.42 2.96.46 4.06l1.18-.28c-.06-1.08-.3-2.72-.54-4l-1.1.22zm-2.18-.14c-.2 1.62-.5 3.42-.96 4.64.32.1.9.3 1.16.44.44-1.24.8-3.14 1.02-4.86l-1.22-.22zm-.46-5.38c0-.32.94-.78.94-.78v-.04c1.34-1.6 2.7-3.92 3.74-6.14l-1.42-.6c-.82 2.18-2.22 4.46-2.64 5.04-.42.62-.76 1.02-1.12 1.1.18.4.42 1.1.5 1.42zm0-.02c.3-.14.88-.26 4.04-.62 0-.3.06-.84.12-1.22l-3.5.3-.7.44.04 1.1zm.12 4.52c0-.3.96-.76.96-.76v-.04c1.94-1.96 3.88-4.72 5.44-7.46l-1.3-.78c-1.3 2.72-3.42 5.56-4.08 6.3-.62.74-1.06 1.24-1.5 1.34.18.38.4 1.1.48 1.4zm0 0c.4-.22 1.06-.38 6.02-1.18-.02-.3 0-.84.04-1.2l-5.4.76-.72.48.06 1.14zm4.7.64c.38 1.04.8 2.42.96 3.3l1.14-.38c-.2-.86-.64-2.22-1.04-3.26l-1.06.34zm2.24-11.68v1.42h7.32v-1.42h-7.32zm6.96 0v.18c-.18 1.36-.6 4.02-1 5.92l1.4.14c.38-1.88.78-4.34 1.02-6.16l-1.02-.14-.24.06h-.16zm-4.38 5.72l-.26 1.36h6.68v-1.36h-6.42zm6 0v.3c-.92 4.92-3.62 8.66-6.8 10.3.34.26.76.78.96 1.14 3.46-1.96 6.28-5.74 7.34-11.46l-.96-.34-.26.06h-.28zm-6.6-5.18c-.02 6.94-.38 12.44-3.1 15.84.34.2 1.06.7 1.3.94 2.76-3.84 3.16-9.3 3.28-16.76l-1.48-.02zm2.24 6.04l-1.24.26c1.1 4.8 3.18 8.72 6.72 10.5.24-.38.7-.96 1.04-1.24-3.44-1.5-5.54-5.22-6.52-9.52zm17.68-4.22h-.14l-1.24 1.32v9.88h1.38v-9.94h9.16v-1.26h-9.16zm-.72 3.28v1.2h9.34v-1.2h-9.34zm.04 3.28v1.2h9.3v-1.2h-9.3zm-.04 3.36v1.28h10.34v-1.28h-10.34zm4.22-9.4v10.04h1.34v-10.04h-1.34zm-3.3-3.7c-.9 2.62-2.36 5.24-3.96 6.96.26.28.68.9.84 1.18 1.74-1.92 3.36-4.86 4.4-7.78l-1.28-.36zm2.76.52c.58 1.02 1.22 2.38 1.46 3.2l1.32-.42c-.26-.84-.92-2.16-1.54-3.14l-1.24.36zm-10.56.04c.88.98 2 2.38 2.54 3.22l1.16-.82c-.56-.82-1.66-2.1-2.58-3.06l-1.12.66zm-.72 3.92v1.26h4.38v-1.26h-4.38zm3.56 9.18l-1 .46c1.5 3.3 4.12 3.86 8.8 3.86 2.2 0 4.72-.06 6.6-.16.08-.42.28-1.12.5-1.44-2.04.16-4.98.26-7.08.26-3.98 0-6.58-.36-7.82-2.98zm.28-4.18v.26c-.56 3.66-2.1 6.2-4.22 7.54.28.22.78.72.98 1.04 2.24-1.5 3.9-4.32 4.6-8.6l-.76-.28-.26.04h-.34zm-3.56 1.5c.14-.16.66-.28 1.18-.28h2.86l.02-1.22h-3.34l-.72.36v1.14zm0 0c0-.38 1.12-.94 1.12-.94 1.18-1.28 3.04-3.82 4.02-5.18l-1-.48-.46.2v.06c-.68 1.06-2.64 3.76-3.28 4.38-.34.4-.66.52-.96.6.16.32.46 1.02.56 1.36zm28.68-9.9v1.44h9.82v-1.44h-9.82zm5.84 5.96v9.28c0 .34-.12.42-.52.44-.36.02-1.7.02-3.12-.02.22.44.42 1.06.48 1.48 1.96 0 3.1-.02 3.78-.24.68-.24.9-.7.9-1.64v-9.3h-1.52zm-6.72-.44v1.42h11.28v-1.42h-11.28zm-4 1.54v10.18h1.5v-11.4l-.18-.08-1.32 1.3zm2.32-4c-1.38 2.3-3.58 4.62-5.66 6.1.32.28.84.94 1.06 1.24 2.1-1.68 4.46-4.26 6.02-6.8l-1.42-.54zm-.82-4.28c-1.02 1.44-2.96 3.24-4.62 4.36.26.3.66.88.88 1.2 1.78-1.28 3.84-3.22 5.18-4.98l-1.44-.58zm17.66 6.06v1.2h5.92v-1.2h-5.92zm0 2.62v1.2h5.94v-1.2h-5.94zm-.84-5.28v1.26h7.62v-1.26h-7.62zm1.48 7.96v1.26h3.96v3.32h-3.96v1.26h5.3v-5.84h-5.3zm-.66 0v6.78h1.32v-6.78h-1.32zm1.36-10.84c.54.82 1.18 1.96 1.48 2.7l1.24-.72c-.32-.7-.98-1.76-1.56-2.58l-1.16.6zm7.44.22v1.4h5.18v-1.4h-5.18zm-2.22 8.1v1.42h8.82v-1.42h-8.82zm8.28 0v.26c-1.3 4.28-4.98 6.96-9.02 7.98.28.32.62.94.78 1.34 4.34-1.3 8.2-4.12 9.74-9.22l-.94-.42-.26.06h-.3zm-6.16 1.28l-1.28.44c1.7 3.92 4.84 6.68 9.18 7.82.2-.42.62-1.04.94-1.36-4.22-.94-7.36-3.48-8.84-6.9zm-.2-9.38v2.2c0 1.42-.32 3.06-2.48 4.3.26.22.78.8.96 1.1 2.4-1.42 2.92-3.56 2.92-5.36v-2.24h-1.4zm4.74 0v4.62c0 1.52.28 2.08 1.6 2.08h1.32c.36 0 .76-.02.98-.12-.06-.34-.1-.9-.12-1.28-.24.06-.62.1-.86.1h-1.22c-.26 0-.3-.2-.3-.76v-4.64h-1.4zm8.36 5.32v1.2h6.54v-1.2h-6.54zm0 2.62v1.2h6.5v-1.2h-6.5zm-.9-5.28v1.26h8.28v-1.26h-8.28zm1.68 7.96v1.26h4.42v3.32h-4.42v1.26h5.74v-5.84h-5.74zm-.64 0v6.78h1.3v-6.78h-1.3zm1.34-10.84c.54.82 1.2 1.96 1.5 2.7l1.2-.72c-.32-.7-.96-1.76-1.52-2.58l-1.18.6zm5.88 6.42v1.48h9.58v-1.48h-9.58zm3.92-6.56v18.02h1.54v-18.02h-1.54zm-177.32 44.4c-1.04 1.42-2.72 2.9-4.3 3.84.38.22 1.02.72 1.32.98 1.52-1.04 3.28-2.68 4.48-4.28l-1.5-.54zm7.02.6c1.6 1.22 3.58 2.98 4.52 4.06l1.28-.88c-1.02-1.1-3.02-2.78-4.62-3.96l-1.18.78zm-3.32-2.42v5.6c0 .24-.08.3-.4.32-.34.04-1.42.04-2.64-.02.24.42.5 1.06.58 1.5 1.46 0 2.48-.02 3.14-.26.66-.24.84-.66.84-1.52v-5.62h-1.52zm4.84-10.94c-2.88 1.34-8.02 2.6-12.56 3.44.18.32.4.86.46 1.24 4.6-.82 9.84-2 13.2-3.5l-1.1-1.18zm-11.68 12.52c0-.28 1.08-.62 1.08-.62v-.04c3.72-1.44 7.62-3.42 11.32-6.02l-1.16-.98c-3.3 2.48-7.6 4.68-8.94 5.26-1.22.56-2.12.88-2.76.96.16.4.4 1.14.46 1.44zm0 0c.76-.28 1.9-.38 13.94-1.26 0-.32 0-.9.04-1.3l-12.98.88-1.04.54.04 1.14zm1.08-4.2c0-.28 1.02-.68 1.02-.68v-.04c2.04-.86 4.18-2.16 6.18-3.7l-1.34-.84c-1.68 1.5-3.96 2.86-4.68 3.22-.66.34-1.18.56-1.62.6.16.4.38 1.14.44 1.44zm0 0c.52-.18 1.32-.26 8.18-.68.02-.3.1-.86.18-1.24l-7.5.38-.88.46.02 1.08zm9.6-.24c1.48 1.4 3.22 3.36 4.06 4.58l1.28-.78c-.86-1.2-2.58-3.04-4.1-4.42l-1.24.62zm21.72-2.8c1.02 1.56 2.2 3.7 2.72 4.96l1.34-.66c-.54-1.28-1.78-3.3-2.82-4.84l-1.24.54zm-6.66-2.76v1.42h10.6v-1.42h-10.6zm5.7 5.96v7.6c0 1.52.34 1.96 1.74 1.96h1.74c1.22 0 1.58-.72 1.72-3.4-.42-.12-1-.34-1.34-.6-.02 2.3-.1 2.66-.54 2.66h-1.4c-.42 0-.5-.1-.5-.62v-7.6h-1.42zm-3.32.4c-.1 4.52-.5 7-3.8 8.42.34.28.76.8.94 1.16 3.62-1.66 4.16-4.56 4.3-9.58h-1.44zm-2 .96c.54-.24 1.4-.36 8.88-1.2-.06-.3-.12-.88-.14-1.26l-7.92.78-.86.52.04 1.16zm0 0c0-.32 1.08-.84 1.08-.84v-.04c1.72-2.2 3.54-5.36 4.92-8.5l-1.62-.48c-1.1 2.96-2.92 6.08-3.52 6.88-.54.84-.98 1.38-1.38 1.5.2.4.44 1.16.52 1.48zm-3.16-1.98c.6 1.28 1.16 3 1.36 4.04l1.16-.46c-.2-1.02-.8-2.68-1.42-3.96l-1.1.38zm-1.8 5.14c.24 1.36.44 3.12.5 4.28l1.18-.28c-.06-1.16-.3-2.9-.54-4.24l-1.14.24zm-2.16-.14c-.18 1.62-.48 3.42-.96 4.64.32.1.92.3 1.18.44.4-1.24.8-3.14 1.02-4.86l-1.24-.22zm-.46-5.38c0-.32.94-.78.94-.78v-.04c1.34-1.6 2.72-3.92 3.78-6.16l-1.38-.6c-.84 2.18-2.26 4.5-2.7 5.08-.42.6-.78 1.02-1.12 1.1.16.38.4 1.08.48 1.4zm0 0c.3-.16.84-.26 4.06-.62-.02-.3.04-.8.1-1.14l-3.52.3-.66.42.02 1.04zm.12 4.5c0-.3.96-.76.96-.76v-.02c1.94-2 3.88-4.8 5.44-7.58l-1.3-.74c-1.3 2.74-3.42 5.62-4.08 6.36-.6.74-1.06 1.24-1.48 1.34.16.4.4 1.1.46 1.4zm0 0c.4-.2 1.02-.36 5.86-1.16-.04-.28-.04-.8.02-1.16l-5.26.78-.66.46.04 1.08zm4.72.62c.42 1.16.88 2.66 1.06 3.66l1.14-.4c-.22-.96-.7-2.46-1.14-3.62l-1.06.36zm19.06-3.76v1.24h9.92v-1.24h-9.92zm-.38 3.42v1.28h10.72v-1.28h-10.72zm6.66-3.02v8.78h1.36v-8.78h-1.36zm-4.1.06v3.64c0 1.1-.42 3.22-2.44 4.46.34.2.8.62 1 .9 2.26-1.52 2.74-4.14 2.74-5.36v-3.64h-1.3zm-4.66-5.68v1.08h5.62v-1.08h-5.62zm9.22 0v1.08h5.66v-1.08h-5.66zm5.08-2.78v15.6c0 .3-.1.42-.42.42-.32.02-1.4.02-2.5-.02.22.42.42 1.12.48 1.52 1.52 0 2.52-.02 3.12-.28.6-.26.8-.74.8-1.64v-15.6h-1.48zm-14.18 0v1.16h5v4.44h-5v1.14h6.42v-6.74h-6.42zm14.9 0h-6.72v6.76h6.72v-1.14h-5.28v-4.46h5.28v-1.16zm-15.8 0v17.56h1.48v-17.56h-1.48zm28.98 5.16v1.18h4.16v-1.18h-4.16zm-1.48 5.8v1.08h6.92v-1.08h-6.92zm-6.5-10.96v1.22h5.6v-1.22h-5.6zm5.18 0v.24c-1.22 2.72-4.4 4.86-7.4 5.76.28.26.64.78.82 1.12 3.24-1.12 6.54-3.36 8.04-6.72l-.94-.46-.26.06h-.26zm3.16-.82l-1.22.38c1.62 3.5 4.68 6.14 8.5 7.32.22-.36.6-.88.92-1.18-3.72-.98-6.76-3.42-8.2-6.52zm4.08.1c-.72.82-2.04 1.94-2.96 2.62l.88.7c.96-.66 2.22-1.62 3.2-2.54l-1.12-.78zm2.4 2.02c-.74.78-2.1 1.9-3.06 2.56l.92.7c.98-.62 2.28-1.58 3.24-2.5l-1.1-.76zm-13.98 3.92v1.2h3.34v3.28h1.36v-4.48h-4.7zm-.66 3.3c-.16 1.42-.44 3.24-.7 4.42h1.3c.22-1.14.48-2.94.66-4.42h-1.26zm4 3.26v.2c-.2 2.6-.42 3.66-.78 3.96-.16.16-.36.18-.74.18s-1.46-.02-2.56-.12c.22.36.4.9.44 1.3 1.08.06 2.14.08 2.66.04.6-.04.98-.16 1.34-.5.48-.48.72-1.68.98-4.46.02-.2.04-.6.04-.6h-1.38zm3.26-6.62v1.56c0 .96-.26 2.06-1.86 2.92.28.18.76.66.96.94 1.78-1.04 2.2-2.54 2.2-3.84v-1.58h-1.3zm5.66 5.8v.2c-1.16 2.86-4.24 4.6-7.54 5.3.24.28.54.78.68 1.1 3.62-.9 6.84-2.78 8.22-6.32l-.86-.34-.24.06h-.26zm-12.34-2.44l-.2 1.18h4.12v-1.18h-3.92zm-.6 3.26l-.22 1.16h4.62v-1.16h-4.4zm-.7-9.4c.94.58 2.04 1.44 2.56 2.06l.92-.92c-.54-.58-1.68-1.42-2.6-1.96l-.88.82zm12 2.78v3.14c0 1.22.26 1.68 1.46 1.68h1.68c.4 0 .8 0 1.02-.08-.04-.3-.08-.74-.08-1.06-.24.06-.7.08-.98.08h-1.48c-.28 0-.34-.14-.34-.6v-3.16h-1.28zm-4.96 7.88c2.44 1.38 5.68 3.38 7.3 4.56l.78-.98c-1.68-1.18-4.94-3.1-7.34-4.4l-.74.82zm12.34-9.88v1.48h16.84v-1.48H1032zm-.54 11.98v1.54h17.88v-1.54h-17.88zm6.02-11v11.8h1.48v-11.8h-1.48zm4.24 0v11.82h1.5v-11.82h-1.5zm4.68 2.22c-.48 2-1.42 4.82-2.22 6.54l1.34.38c.82-1.68 1.76-4.32 2.48-6.52l-1.6-.4zm-1.64-7.2c-.46 1.12-1.34 2.7-2.04 3.7l1.34.48c.72-.96 1.6-2.4 2.32-3.7l-1.62-.48zm-11.82 7.76c.94 2 1.72 4.62 1.92 6.34l1.44-.36c-.22-1.74-1.02-4.34-2.02-6.34l-1.34.36zm1.72-7.2c.8 1.04 1.64 2.52 1.96 3.5l1.4-.62c-.36-.94-1.2-2.36-2.04-3.42l-1.32.54zm25.14 5.9v1.5h8.22v-1.5h-8.22zm-8.38 9.48v1.5h17.96v-1.5h-17.96zm7.52-15.66v16.46h1.58v-16.46h-1.58zm24.26-.3c-.18.74-.54 1.84-.86 2.58l1.26.34c.38-.64.84-1.64 1.28-2.58l-1.68-.34zm-2.36 6.2h6.28v1.78h-6.28v-1.78zm0-2.88h6.28v1.76h-6.28v-1.76zm-1.4-1.18v7.04h9.14v-7.04h-9.14zm4 6.54v8.06c0 .24-.06.3-.32.32-.26.02-1.12.02-2.06-.02.2.4.38.98.44 1.38 1.3 0 2.16 0 2.7-.24.52-.24.68-.66.68-1.42v-8.08h-1.44zm-4.74 2.18v1.26h3.26v-1.26h-3.26zm2.94 0v.22c-.58 2.42-2.22 4.42-4.02 5.32.28.26.68.74.86 1.06 2.06-1.14 3.8-3.3 4.52-6.34l-.88-.32-.24.06h-.24zm6.44-.96c-.7.88-1.98 2.12-2.88 2.84l.84.74c.96-.68 2.16-1.74 3.18-2.68l-1.14-.9zm-3.28-.24l-1.04.28c.88 3.24 2.58 6.16 4.92 7.6.24-.38.68-.92 1-1.18-2.3-1.18-4.04-3.82-4.88-6.7zm-8.98-1.76c.48 1.4.92 3.24 1.08 4.34l1.22-.38c-.16-1.06-.66-2.86-1.16-4.24l-1.14.28zm-1.8 5.14c.22 1.36.42 3.14.46 4.32l1.18-.22c-.06-1.18-.26-2.92-.5-4.3l-1.14.2zm-1.96-.16c-.18 1.66-.48 3.48-.96 4.72.32.1.9.3 1.16.44.42-1.26.82-3.2 1.04-4.96l-1.24-.2zm-.48-5.38c0-.3.94-.78.94-.78v-.04c1.28-1.58 2.6-3.9 3.6-6.12l-1.4-.58c-.78 2.16-2.12 4.44-2.54 5.04-.4.6-.74 1.02-1.08 1.1.16.38.4 1.08.48 1.38zm0 0c.32-.16.86-.28 4.04-.64 0-.3.06-.82.12-1.22l-3.48.32-.72.42.04 1.12zm.12 4.5c0-.3.98-.76.98-.76v-.04c1.88-1.96 3.82-4.7 5.32-7.42l-1.32-.78c-1.28 2.7-3.36 5.54-3.98 6.24-.62.74-1.06 1.26-1.48 1.36.16.38.4 1.1.48 1.4zm0 0c.4-.2 1.02-.34 5.48-1-.02-.3 0-.84.06-1.2l-4.86.62-.72.46.04 1.12zm4.2.66c.36 1.04.78 2.4.92 3.28l1.12-.36c-.18-.88-.6-2.2-1-3.24l-1.04.32z" fill="#1C1C1E"/></svg>