<svg width="960" height="173" fill="none" xmlns="http://www.w3.org/2000/svg"><path d="M960 78.05L0 .05v78h960z" fill="#E5EFFD"/><path d="M16.3 32.792l-.52.14H1.9v2.34h11.54c-1.32 1.18-3.04 2.46-4.6 3.28v8.86c0 .34-.16.46-.6.46-.44 0-2.08.02-3.5-.04.38.64.84 1.7.96 2.4 1.92.02 3.34-.04 4.34-.4.98-.36 1.3-1 1.3-2.36v-7.72c2.5-1.48 5.04-3.6 6.88-5.56l-1.92-1.4zm13.4 5.5c.38.4.78.96.96 1.36.14-.06.28-.14.42-.2-.24 1.42-.72 2.88-1.38 3.9v-5.06zm-3.08 4.94v-1.66h1.14v1.66h-1.14zm-2.7-1.66h1.14v1.66H23.9c.02-.46.02-.9.02-1.32v-.34zm2.1-6.38c-.18.5-.36 1.02-.56 1.46h-1.72c.24-.46.46-.96.68-1.46h1.6zm.6 3.2h1.14v1.5h-1.14v-1.5zm-2.7 0h1.14v1.5h-1.14v-1.5zm15.46 6.4h-3.4v-1.8h3v-2h-3v-1.8h-2.26v1.8h-.98c.12-.42.2-.86.28-1.28l-1.78-.36c2.04-1.12 2.8-2.78 3.14-4.86h2.32c-.08 1.66-.18 2.34-.36 2.56-.14.18-.3.22-.54.22-.28 0-.82-.02-1.44-.08.3.5.5 1.3.54 1.92.8.02 1.58 0 2.02-.06.5-.08.88-.24 1.22-.66.44-.52.6-1.9.7-5.08.02-.26.04-.76.04-.76H30v1.94h2.24c-.28 1.46-.88 2.62-2.54 3.38v-1.22h-2.24c.42-.82.82-1.74 1.1-2.52l-1.36-.84-.3.1h-1.82c.16-.46.3-.94.42-1.42l-2.1-.44c-.54 2.34-1.6 4.68-2.96 6.14.42.28 1.16.88 1.56 1.28v2.96c0 2.24-.1 5.22-1.44 7.28.44.2 1.3.74 1.64 1.06.92-1.44 1.38-3.38 1.58-5.26h3.98v2.88c0 .26-.1.34-.34.34-.24 0-1.02 0-1.82-.04.3.54.62 1.44.68 2.02 1.22 0 2.04-.06 2.66-.4.6-.34.76-.94.76-1.88v-4.22c.5.22 1.22.6 1.56.84.3-.44.56-.96.8-1.54h1.66v1.8h-3.7v2.04h3.7v3.3h2.26v-3.3h3.4v-2.04zm14.12-7.5h-7v-2.7h7v2.7zm2.42-4.98H44.2v7.24h11.72v-7.24zm-9.24 11.18v3.44H43.7v-3.44h2.98zm-5.24 6.72h2.26v-1h2.98v.9h2.38v-8.9h-7.62v9zm11.6-3.28v-3.44h3.18v3.44h-3.18zm-2.28-5.72v9h2.28v-1h3.18v.92h2.4v-8.92h-7.86zm14.7-4.42h-1.44v-4.74h-2.14v7.44c0 2.78-.18 7.14-1.36 10.04.58.14 1.6.46 2.08.66.78-2.02 1.16-4.66 1.32-7.12h1.26v7.16h2.18v-9.18H64c.02-.54.02-1.08.02-1.58v-.68h3.4v-7.24h-1.96v5.24zm5.12 3.14v-1.38h1.72c-.08.42-.18.88-.38 1.38h-1.34zm0-4.48h1.78v1.34h-1.78v-1.34zm5.62 1.34h-1.74v-1.34h1.74v1.34zm0 3.14h-2.16c.16-.52.28-.98.34-1.38h1.82v1.38zm3.12 4.36H76.3v-2.06h-2.12v2.06h-2.82c.82-.76 1.44-1.62 1.9-2.48h5.22v-8.24h-4.8c.3-.5.62-1.06.94-1.66l-2.64-.36c-.18.6-.48 1.36-.8 2.02H68.4v8.24h2.48c-.5.66-1.16 1.28-2 1.84.24.16.56.4.82.64h-1.88v2.1h6.36v3.8h2.12v-3.8h3l.02-2.1zm5.3-9.72h14.34v-2.16H82.28v5.78c0 3.08-.14 7.42-1.8 10.4.6.22 1.64.8 2.1 1.18 1.76-3.22 2.04-8.24 2.04-11.58v-3.62zm2.54 9.84c-.76 1.3-2 2.8-3.14 3.78.58.3 1.52.92 2 1.28 1.06-1.06 2.44-2.82 3.4-4.34l-2.26-.72zm1.1-3.68h6.88v1.3h-6.88v-1.3zm0-2.94h6.88v1.28h-6.88v-1.28zm9.34 6.02v-7.8h-5.36c.24-.34.48-.72.72-1.08l-2.86-.34c-.14.42-.36.92-.62 1.42h-3.54v7.8h4.64v4c0 .24-.08.3-.38.3-.26 0-1.24 0-2.12-.02.28.6.58 1.46.66 2.1 1.42 0 2.46 0 3.2-.34.76-.32.96-.9.96-1.98v-4.06h4.7zm-3.76 1.56c1.08 1.32 2.56 3.12 3.26 4.18l2.04-1.16c-.78-1.08-2.34-2.8-3.4-4l-1.9.98zm17.62-11.42v11.26h2.3v-11.26h-2.3zm4.7-2.02v15.4c0 .36-.16.48-.54.48-.42 0-1.7 0-3-.04.34.66.7 1.76.82 2.46 1.82 0 3.16-.08 3.98-.46.82-.38 1.1-1.04 1.1-2.44v-15.4h-2.36zm-13.08 13.46c-.54 1.28-1.52 2.58-2.56 3.46.56.3 1.54 1 2 1.4 1.04-1 2.22-2.64 2.88-4.22l-2.32-.64zm3.24.88c.86 1.1 1.76 2.62 2.14 3.62l2.18-1.02c-.42-1-1.34-2.42-2.24-3.46l-2.08.86zm-2.28-8.36h3.54v1.66h-3.54v-1.66zm0 3.54h3.54v1.66h-3.54v-1.66zm0-7.04h3.54v1.62h-3.54v-1.62zm-2.26-2.1v12.92h8.16v-12.92h-8.16zm112.04 3.36h2.32v-1.12h4.34v-2h-4.34v-1h-2.32v1h-1.86v2h1.86v1.12zm-6.9-.02h2.32v-1.12h2.1v-2h-2.1v-.98h-2.32v.98h-4.16v2h4.16v1.12zm-.26 5.16h3.62v1.12h-3.62v-1.12zm0-2.68h3.62v1.12h-3.62v-1.12zm9.84 1.12h-3.82v-1.12h3.82v1.12zm0 2.68h-3.82v-1.12h3.82v1.12zm0 3.12c.14.3.3.66.44 1l-1.38.1c.42-.62.86-1.36 1.14-2.06l-1.72-.4c-.2.94-.7 1.86-.84 2.14-.18.24-.38.42-.6.48.22.32.48.98.58 1.24.3-.1.8-.18 3.3-.4.06.16.12.32.16.44l1.26-.48c-.14.68-.44.84-1.04.84h-3.12c-1.06 0-1.24-.1-1.24-.72v-3.62h5.5v-7.14h-6.74c.22-.4.48-.84.74-1.32l-2.5-.32c-.1.48-.3 1.08-.5 1.64h-5.6v7.14h3.64c-.32 2.5-1.16 3.92-5.72 4.7.46.46 1.06 1.44 1.24 2.04 5.28-1.14 6.48-3.3 6.86-6.74h.82v3.64c0 2.02.7 2.64 3.24 2.64h3.56c2.2 0 2.82-.82 3.08-3.94-.6-.16-1.54-.48-2.02-.86-.04.9-.08 1.54-.18 1.96-.24-.64-.74-1.66-1.12-2.4l-1.24.4zm14.72-8.92h-4.04v-.84h4.04v.84zm0 2.34h-4.04v-.8h4.04v.8zm0 2.42h-4.04v-.88h4.04v.88zm-6.4 2.34h2.36v-.54h12.9v-1.8h-6.58v-.88h5.22v-1.54h-5.22v-.8h5.2v-1.54h-5.2v-.84h6.1v-1.82h-5.68c-.24-.66-.6-1.44-.96-2.06l-2.24.62c.22.44.44.94.62 1.44h-3.08c.34-.5.66-1 .96-1.5l-2.42-.46c-.9 1.72-2.52 3.78-4.74 5.36.54.3 1.3 1.06 1.68 1.56.36-.3.72-.6 1.08-.92v5.72zm3.12 2.94c-1.24.74-3.62 1.4-5.66 1.68.48.44 1.14 1.28 1.48 1.82 2.1-.48 4.54-1.54 5.96-2.68l-1.78-.82zm12.64-.38v-1.9h-7.84v-1.02h-2.36v1.02h-7.76v1.9h7.76v4.38h2.36v-4.38h7.84zm-7.12 1.58c1.84.68 4.42 1.72 5.7 2.34l1.46-1.56c-1.38-.64-4.02-1.58-5.78-2.16l-1.38 1.38zm17.04-15.54v2.22h3.18c.7 1.68 1.72 3.36 3.02 4.78h-10.36c1.3-1.7 2.4-3.78 3.14-6.02l-2.5-.6c-.92 3-2.7 5.68-4.96 7.3.56.4 1.58 1.28 2 1.76.52-.44 1.02-.92 1.5-1.44v1.32h3.38c-.4 2.9-1.44 5.54-5.96 7 .58.54 1.28 1.52 1.58 2.2 5.18-1.94 6.48-5.36 6.98-9.2h3.94c-.18 4.16-.4 5.94-.8 6.38-.22.24-.44.28-.8.28-.5 0-1.54-.02-2.64-.1.42.68.74 1.68.78 2.4 1.18.04 2.34.04 3.02-.06.78-.1 1.32-.3 1.82-.96.7-.82.94-3.12 1.16-9.02.48.42 1 .82 1.52 1.16.38-.68 1.2-1.7 1.68-2.2-2.78-1.44-4.82-4.28-5.74-7.2h-4.94zm27.44 6.84h-3.86v-1.22h3.86v1.22zm0 2.88h-3.86v-1.24h3.86v1.24zm0 2.88h-3.86v-1.24h3.86v1.24zm-6-8.76v10.54h8.24v-10.54h-3.52c.16-.42.32-.86.48-1.32h3.64v-2.04h-9.44v2.04h3.3c-.08.44-.18.88-.28 1.32h-2.42zm-2.76-3.34c-.2.76-.58 1.84-.9 2.58l1.52.5c.38-.66.86-1.64 1.34-2.58l-1.96-.5zm-3.76 2.32c-.14-.68-.6-1.66-1.08-2.4l-1.6.58c.44.78.88 1.8 1 2.48l1.68-.66zm.5 6.5h2.06v-2.04c.7.62 1.86 1.74 2.36 2.34l1.26-1.5c-.42-.32-2.08-1.52-2.62-1.84l-1 .74v-1.2h3.24v-1.88h-3.24v-4.1h-2.06v4.1h-3.46v1.88h3.46v3.5zm-1.56-3.1c-.48.94-1.42 1.96-2.34 2.5.44.3 1.04 1 1.36 1.48.98-.76 1.9-2.18 2.4-3.46l-1.42-.52zm6.62 9.72c-.76-.6-2.24-1.5-3.4-2.14.04-.18.08-.34.1-.52h3.62v-1.96h-.94l.66-.48c-.28-.42-.9-1.08-1.44-1.5l-1.28.86c.36.32.72.74 1.04 1.12h-1.54v-1.6h-2.04v1.6h-3.26v1.96h3.08c-.34 1.18-1.22 2.4-3.52 3.26.42.4.98 1.22 1.2 1.7 1.8-.72 2.92-1.68 3.56-2.7 1.08.68 2.24 1.48 2.88 2.04l1.28-1.64zm2.88-1.46c-.7.84-2.1 1.94-3.3 2.5.48.42 1.14 1.08 1.52 1.5 1.28-.6 2.82-1.76 3.72-2.76l-1.94-1.24zm2.4 1.2c1.08.8 2.54 1.98 3.2 2.72l1.8-1.28c-.74-.76-2.22-1.86-3.32-2.6l-1.68 1.16zM418 44.872c-.36.52-.78.98-1.26 1.4-.9-.5-1.82-.96-2.66-1.4H418zm1.42-1.64l-.36.06h-6.5v1.58h.48l-.8.96c.86.46 1.8 1 2.78 1.54-1.04.52-2.26.9-3.56 1.12.38.44.8 1.2 1 1.72 1.66-.38 3.2-.94 4.46-1.72 1.08.64 2.04 1.26 2.72 1.74l1.2-1.58c-.6-.4-1.42-.9-2.32-1.4.96-.94 1.7-2.1 2.2-3.56l-1.3-.46zm1.04-9.6c-.54.64-1.46 1.48-2.22 2.08-.36-.28-.72-.58-1.06-.9.76-.54 1.62-1.26 2.44-1.94l-1.7-1.22c-.48.56-1.22 1.28-1.88 1.84-.46-.56-.84-1.2-1.14-1.88l-1.9.56c.96 2.14 2.3 3.92 4.04 5.3h-3.82v1.42c0 .9-.18 1.86-1.42 2.68v-3.98h-2.62c1.62-1.22 2.96-2.78 3.76-4.74l-1.46-.72-.4.1h-5.22v1.86h3.94c-.34.46-.74.88-1.16 1.28-.58-.44-1.42-.92-2.1-1.26l-1.36 1.26c.6.34 1.32.8 1.86 1.2-1.04.66-2.18 1.2-3.36 1.54.42.42 1 1.22 1.28 1.74.62-.22 1.22-.48 1.82-.78v.32h2.9v1.4h-3.54c-.18 1.58-.5 3.56-.78 4.86h4.2c-.14 1.36-.32 2-.56 2.22-.18.18-.4.2-.72.2-.44 0-1.42-.02-2.42-.1.36.54.64 1.36.68 1.98 1.06.04 2.1.04 2.64-.02.7-.04 1.18-.2 1.6-.66.52-.52.76-1.82.98-4.52.02-.28.04-.82.04-.82h-4.16c.06-.44.12-.92.2-1.38h3.96v-.6c.4.36.98.94 1.2 1.28 1.66-1.06 2.14-2.56 2.2-3.96h1.84v1.16c0 1.62.32 2.3 2 2.3h1.24c.42 0 .88-.02 1.16-.12-.08-.46-.12-1.14-.16-1.62-.26.08-.74.1-1.02.1h-.98c-.26 0-.3-.16-.3-.64v-1.72c.72.38 1.46.7 2.28.96.32-.58.92-1.42 1.42-1.88a14.42 14.42 0 01-2.86-1.12c.74-.52 1.6-1.16 2.36-1.84l-1.72-1.22zm15.06 6.6h3.68v1.2h-3.68v-1.2zm0-2.9h3.68v1.16h-3.68v-1.16zm0-2.92h3.68v1.16h-3.68v-1.16zm-4.2 9.66c.9.84 2.08 2.06 2.64 2.78l1.72-1.44c-.48-.56-1.34-1.4-2.12-2.12h7.92v-10.76h-8.12v10.58l-.4-.36-1.64 1.32zm-3.82-.54h2.26v-4.18c.72.66 1.46 1.38 1.92 1.88l1.24-1.9c-.46-.38-2.36-1.74-3.16-2.2v-.74h2.82v-2.02h-2.82v-2.82h-2.26v2.82h-3.28v2.02h2.9c-.78 1.74-2.08 3.48-3.4 4.46.48.38 1.18 1.12 1.52 1.64.82-.72 1.58-1.72 2.26-2.9v3.94zm-1.46 5.58c.7-1.16 1.28-2.94 1.68-4.36l-2.12-.84c-.34 1.42-1.02 3.06-1.74 4.12l2.18 1.08zm6.04-1.4c-1.08 0-1.28-.08-1.28-.68v-2.7h-2.34v2.74c0 2.08.68 2.74 3.4 2.74h3.6c2.2 0 2.86-.7 3.16-3.56-.66-.12-1.66-.46-2.14-.84-.12 2.02-.26 2.3-1.2 2.3h-3.2zm5.98-3.1c.78 1.34 1.88 3.1 2.36 4.16l2.22-1.14c-.54-1.04-1.7-2.74-2.5-3.98l-2.08.96zm15.76-3.02c0 .18-.06.22-.24.22-.18.02-.76.02-1.28-.02.2.42.44 1 .52 1.46.98 0 1.76 0 2.28-.24.54-.26.7-.6.7-1.42v-5.06h-.76v-.04h-2.22v-1.46h3.14v-1.96h-3.14v-1.36h-2.02v6.64h3.02v3.24zm-2.74-2.76c-.08 1.06-.24 2.08-.74 2.82.42.22 1.2.68 1.5.94.56-.84.88-2.16 1.02-3.46l-1.78-.3zm11.32 4.6h-1.74c.16-3 .26-7.46.26-11.02h-4.48v2.04h2.3c-.02.58-.02 1.14-.02 1.72h-2.08v1.96h2.02l-.06 1.72h-2.1v1.96h2.02c-.04.58-.06 1.1-.1 1.62h-10.44l-.06-1.68h2.16v-1.94h-2.22l-.06-1.72h2.22v-1.94h-2.28l-.06-1.8c.9-.24 1.84-.48 2.68-.78l-1.02-1.94c-1.02.48-2.56 1.08-3.82 1.48l.34 10.32h-1.8v2.2h5.46c-1.34.98-3.64 2.12-5.4 2.78.44.5 1.02 1.28 1.32 1.78 1.96-.78 4.46-2.04 6.18-3.18l-1.68-1.38h5.94l-1.06 1.38c1.98.96 4.18 2.24 5.46 3.12l1.58-1.82c-1.22-.76-3.22-1.8-5.1-2.68h5.64v-2.2zm16.58-5.94c-.32 2.04-.82 3.82-1.56 5.34-.8-1.44-1.44-3.08-1.9-4.8.06-.18.14-.36.2-.54h3.26zm3.56 0v-2.26h-6.1c.28-1.06.5-2.18.7-3.3l-2.42-.4c-.48 3.22-1.4 6.26-2.96 8.2v-7.88h-2.36v10.96l-2.12.64v-9.76h-2.34v9.64c0 .82-.36 1.2-.74 1.42.36.52.76 1.6.92 2.18.44-.36 1.1-.72 4.28-1.84v5.16h2.36v-10.04c.5.52 1.18 1.4 1.44 1.86.36-.44.72-.92 1.04-1.44.5 1.6 1.14 3.06 1.9 4.36-1.08 1.42-2.42 2.52-4.16 3.36.48.44 1.26 1.44 1.54 1.94 1.58-.88 2.9-1.96 3.96-3.28 1.02 1.28 2.2 2.34 3.58 3.14.36-.64 1.1-1.54 1.62-1.96-1.5-.76-2.76-1.84-3.82-3.18 1.18-2.06 1.96-4.56 2.48-7.52h1.2zm5.32-1.48c.44-.48.86-.98 1.24-1.5.72.48 1.46 1 2.14 1.5h-3.38zm-1.14 1.8h5.16v-1.28c.38.3.7.58.96.84l1.28-1.72c-.88-.8-2.5-1.9-3.98-2.78.12-.22.22-.46.34-.68l-1.96-.7c-.98 2.04-2.88 3.92-4.74 5.02.56.44 1.2 1.16 1.54 1.7.46-.32.94-.7 1.4-1.1v.7zm-.64 2.4h1.02v2.04h-1.02v-2.04zm3.1 6.42c-.36-.48-1.1-1.16-1.76-1.66.08-.38.14-.78.2-1.2h1.04v-5.08h-4.06v5.08h1.08c-.24 2.06-.84 3.84-1.96 4.98.42.3 1.12 1 1.42 1.34.82-.88 1.44-2.02 1.84-3.34.42.38.8.8 1.02 1.14l1.18-1.26zm9.82-10.54c-.18 2.02-.46 3.8-.92 5.38-.56-1.66-.96-3.48-1.26-5.38H499zm-8.46 4.12h1.06v2.04h-1.06v-2.04zm11.7-4.12v-2.04h-4.76c.2-.74.4-1.48.56-2.24l-2.1-.44c-.54 2.86-1.54 5.62-2.98 7.32h-3.92v5.08h1.08c-.24 2.14-.84 3.86-2.2 4.96.42.3 1.14 1.02 1.4 1.36 1-.86 1.68-2 2.12-3.4.52.46.98.94 1.26 1.32l1.32-1.24c-.44-.54-1.3-1.32-2.1-1.94.06-.32.12-.68.16-1.06h1.08v-4.88c.46.4 1.06 1.02 1.34 1.38.32-.38.6-.82.88-1.26.42 1.9.92 3.68 1.58 5.26-1 1.84-2.48 3.26-4.56 4.28.46.42 1.22 1.34 1.46 1.8 1.8-1.02 3.16-2.26 4.22-3.8.84 1.42 1.86 2.64 3.12 3.58.34-.58 1.04-1.4 1.54-1.8-1.4-.96-2.54-2.32-3.44-4.02.98-2.24 1.54-4.94 1.86-8.22h1.08zm106.36-.2h12.3v2.76h2.46v-5h-6.94c-.22-.72-.64-1.62-1.04-2.32l-2.4.66c.26.52.5 1.1.7 1.66h-7.42v5h2.34v-2.76zm7.44 8.64h5.48v-2.24h-5.48v-2.36h4.26v-2.28h-11v2.28h4.26v6.78c-1.16-.6-2.08-1.56-2.68-3.2.16-.76.32-1.58.42-2.42l-2.42-.22c-.36 3.4-1.36 6.18-3.52 7.8.54.32 1.56 1.16 1.94 1.58 1.14-.98 2.02-2.28 2.68-3.84 1.82 2.9 4.56 3.52 8.3 3.52h4.98c.12-.72.5-1.86.86-2.42-1.36.04-4.66.04-5.72.04-.84 0-1.62-.04-2.36-.14v-2.88zm24.42.14c-.4.46-.9.9-1.46 1.28a7.6 7.6 0 01-.62-1.28h2.08zm-8.38-1.74v-1.04c1-.14 1.94-.3 2.76-.48l-1.3-1.34h5.92l-1.24 1.3c1 .36 2.14 1 2.92 1.56h-3.3c-.18-.82-.3-1.68-.34-2.6h-2.28c.06.9.16 1.78.32 2.6h-3.46zm8.74 1.74h3v-1.74h-1.96l1.06-1.18c-.72-.56-2.06-1.26-3.16-1.68h3.96v-1.8h-7.74v-.74h5.8v-1.64h-5.8v-.72h6.86v-1.76h-3.46c.32-.4.68-.9 1.04-1.42l-2.64-.5c-.18.56-.54 1.32-.88 1.92h-4.02c-.22-.56-.72-1.34-1.22-1.86l-2.08.66c.28.36.54.78.76 1.2h-3.54v1.76h6.74v.72h-5.68v1.64h5.68v.74h-7.64v1.8h7.34c-1.76.4-4.6.68-7.04.82.2.4.42 1.02.5 1.42.98-.02 2.06-.08 3.12-.18v.8h-3.96v1.74h3.96v.88c-1.52.08-2.92.14-4.02.18l.18 1.82c1.12-.08 2.44-.16 3.84-.28v.8c0 .26-.1.34-.4.34-.3.02-1.4.04-2.26-.02.28.52.56 1.26.68 1.82 1.48 0 2.5-.02 3.28-.3.74-.26.96-.72.96-1.78v-1.02l2.98-.24.02-1.6-3 .16v-.76h3.9c.26.88.6 1.68 1 2.38-1.24.54-2.64.96-4.02 1.26.38.46.94 1.4 1.16 1.88 1.38-.38 2.78-.9 4.06-1.54.96.98 2.1 1.54 3.42 1.54 1.58 0 2.24-.48 2.56-2.72-.54-.16-1.28-.5-1.74-.92-.1 1.12-.22 1.48-.7 1.48-.52 0-1.02-.2-1.5-.58.9-.64 1.72-1.36 2.34-2.18l-1.74-.6zm11.76-7.06h-6.12v1.8h6.12v-.98c.46.4 1.08 1.1 1.3 1.48 2.5-1.34 3.06-3.58 3.06-5.52v-.02h2.4v2.14c0 1.98.36 2.82 2.24 2.82h1.04c.4 0 .84-.02 1.12-.14-.06-.56-.12-1.38-.16-1.98-.26.08-.7.14-.98.14h-.8c-.24 0-.28-.24-.28-.82v-4.36h-6.74v2.14c0 1.3-.24 2.68-2.2 3.76v-.46zm.82-2.78h-3.8l1.34-.72c-.3-.74-.92-1.84-1.46-2.66l-1.86.86c.46.76.98 1.76 1.28 2.52h-3.3v1.88h7.8v-1.88zm-.78 5.46h-6.16v1.8h6.16v-1.8zm7.68 2.1a9.408 9.408 0 01-2.14 2.84c-.98-.82-1.78-1.76-2.36-2.84h4.5zm-9.76 4.8h-2.04v-2.24h2.04v2.24zm11.3-7.12l-.4.1h-8.34v2.22h1.86l-1.3.46c.7 1.42 1.58 2.68 2.62 3.72-1.1.64-2.34 1.1-3.68 1.42v-4.94h-6.12v6.9h2.02v-.84h4.1v-.72c.36.56.72 1.28.92 1.78 1.72-.46 3.28-1.14 4.64-2.02 1.34.88 2.88 1.54 4.64 1.96.32-.64.96-1.66 1.46-2.14-1.54-.3-2.92-.8-4.14-1.44 1.44-1.46 2.54-3.36 3.2-5.82l-1.48-.64zm12.56-5.24h-4.22l1.32-.72c-.3-.74-.92-1.84-1.46-2.66l-1.86.86c.46.76.98 1.76 1.28 2.52h-3.48v1.88h8.42v-1.88zm-.84 4.58v-1.8h-6.7v1.8h6.7zm-.04.88h-6.66v1.8h6.66v-1.8zm-1.98 4.66v2.24h-2.6v-2.24h2.6zm2.06-1.9h-6.66v6.9h2v-.84h4.66v-6.06zm10.4-4.88h-3.7v-6.28h-2.48v6.28h-3.5v2.34h3.5v9.7h2.48v-9.7h3.7v-2.34zm126.7 6.14c.04-.46.06-.88.06-1.3h3.28v1.3h-3.34zm3.34-4.44v1.38h-3.28v-1.38h3.28zm2.3-1.86h-7.72v4.58c0 1.96-.12 4.48-1.36 6.28.48.24 1.42.96 1.78 1.34.8-1.14 1.26-2.64 1.48-4.16h3.52v1.78c0 .24-.08.32-.32.32-.26.02-1.06.02-1.8-.02.3.54.64 1.42.76 2.02 1.22 0 2.14-.04 2.78-.38.68-.34.88-.9.88-1.92v-9.84zm5.7 9.54c0 .28-.1.36-.42.36-.34.02-1.38.02-2.4-.02.36.62.74 1.6.86 2.24 1.44.02 2.52-.04 3.28-.4.8-.38 1.02-.96 1.02-2.14v-9.94h-2.34v9.9zm-1.8-9.34h-2.18v8.16h2.18v-8.16zm1.14-3.72c.5-.7 1.04-1.48 1.52-2.26l-2.58-.76c-.4.92-1.04 2.1-1.64 3.02h-5.56l1.1-.38c-.34-.76-1.14-1.84-1.86-2.6l-2.26.78c.56.66 1.14 1.52 1.5 2.2h-4.26v2.14h18.1v-2.14h-4.06zm23.6-1.98h-2.26v3.06h-1.92v-3.96h-2.28v3.96h-1.82v-3.06h-2.18v5.1h10.46v-5.1zM834 35.032h-3.14l1.48-.48c-.24-.78-.76-1.94-1.28-2.8l-1.96.54c.4.84.88 1.94 1.1 2.74h-2.92v2.18H834v-2.18zm-3.8 9.56c-.06-1.82-.34-4.5-.7-6.62l-1.74.3c.32 2.1.58 4.8.58 6.64l1.86-.32zm2.28.36c.38-1.98.82-4.58 1.12-6.78l-2-.3c-.16 2.24-.5 5.38-.88 7.44-1.4.3-2.68.56-3.68.74l.48 2.36c1.88-.46 4.28-1.02 6.5-1.56l-.24-2.2-1.3.3zm10.68 3.24c0 .16-.04.22-.22.22-.12 0-.5 0-.88-.02v-4.46h1.1v4.26zm2.46-7.48v-2.1h-11.8v2.1h4.38c-.06.42-.14.84-.24 1.24h-3.72v8.24h2.12v-6.26h1.04v6.12h1.8v-6.12h1.08v6.1h1.78v-1.5c.22.52.44 1.2.52 1.72.86 0 1.5-.02 2-.34.54-.32.66-.82.66-1.7v-6.26h-4.86l.52-1.24h4.72zm7.86-6.72v1.02h-3.14v-1.02h3.14zm-3.14 3.66v-1.1h3.14v1.1h-3.14zm5.38 1.72v-7.08h-7.7v17.92h2.32v-10.84h5.38zm-.32 4.4v-1.5h1.86v1.5h-1.86zm6.14 1.94v-1.94h-2.2v-1.5h1.88v-1.88h-9.66v1.88h1.82v1.5h-2.1v1.94h2.02c-.2 1.02-.76 2.32-2.04 3.12.46.32 1.18.94 1.52 1.36 1.7-1.16 2.36-3.1 2.56-4.48h1.92v4.12h2.08v-4.12h2.2zm-2.24-8.02v-1.14h3.24v1.14h-3.24zm3.24-3.7v1.02h-3.24v-1.02h3.24zm2.34-1.7h-7.84v7.12h5.5v8c0 .28-.1.4-.42.4-.3.02-1.28.02-2.18-.02.32.62.64 1.7.72 2.36 1.52 0 2.56-.06 3.28-.46.72-.38.94-1.04.94-2.26v-15.14zm16.32 12.58c-.36.52-.78.98-1.26 1.4-.9-.5-1.82-.96-2.66-1.4h3.92zm1.42-1.64l-.36.06h-6.5v1.58h.48l-.8.96c.86.46 1.8 1 2.78 1.54-1.04.52-2.26.9-3.56 1.12.38.44.8 1.2 1 1.72 1.66-.38 3.2-.94 4.46-1.72 1.08.64 2.04 1.26 2.72 1.74l1.2-1.58c-.6-.4-1.42-.9-2.32-1.4.96-.94 1.7-2.1 2.2-3.56l-1.3-.46zm1.04-9.6c-.54.64-1.46 1.48-2.22 2.08-.36-.28-.72-.58-1.06-.9.76-.54 1.62-1.26 2.44-1.94l-1.7-1.22c-.48.56-1.22 1.28-1.88 1.84-.46-.56-.84-1.2-1.14-1.88l-1.9.56c.96 2.14 2.3 3.92 4.04 5.3h-3.82v1.42c0 .9-.18 1.86-1.42 2.68v-3.98h-2.62c1.62-1.22 2.96-2.78 3.76-4.74l-1.46-.72-.4.1h-5.22v1.86H873c-.34.46-.74.88-1.16 1.28-.58-.44-1.42-.92-2.1-1.26l-1.36 1.26c.6.34 1.32.8 1.86 1.2-1.04.66-2.18 1.2-3.36 1.54.42.42 1 1.22 1.28 1.74.62-.22 1.22-.48 1.82-.78v.32h2.9v1.4h-3.54c-.18 1.58-.5 3.56-.78 4.86h4.2c-.14 1.36-.32 2-.56 2.22-.18.18-.4.2-.72.2-.44 0-1.42-.02-2.42-.1.36.54.64 1.36.68 1.98 1.06.04 2.1.04 2.64-.02.7-.04 1.18-.2 1.6-.66.52-.52.76-1.82.98-4.52.02-.28.04-.82.04-.82h-4.16c.06-.44.12-.92.2-1.38H875v-.6c.4.36.98.94 1.2 1.28 1.66-1.06 2.14-2.56 2.2-3.96h1.84v1.16c0 1.62.32 2.3 2 2.3h1.24c.42 0 .88-.02 1.16-.12-.08-.46-.12-1.14-.16-1.62-.26.08-.74.1-1.02.1h-.98c-.26 0-.3-.16-.3-.64v-1.72c.72.38 1.46.7 2.28.96.32-.58.92-1.42 1.42-1.88a14.42 14.42 0 01-2.86-1.12c.74-.52 1.6-1.16 2.36-1.84l-1.72-1.22z" fill="#1C1C1E"/><path d="M960 78.472l-10-5.774v11.547l10-5.773zm-960 1h951v-2H0v2z" fill="#2F80ED"/><circle cx="6" cy="78.472" r="6" fill="#2F80ED"/><circle cx="257" cy="78.472" r="6" fill="#2F80ED"/><circle cx="508" cy="78.472" r="6" fill="#2F80ED"/><circle cx="759" cy="78.472" r="6" fill="#2F80ED"/><path d="M13.312 107.248l-.288.08H1.6v1.168h10.288c-1.2 1.136-2.912 2.384-4.448 3.136v7.504c0 .288-.096.368-.432.384-.368.016-1.6.032-2.928-.016.192.32.416.848.48 1.184 1.616 0 2.672-.016 3.28-.208.624-.176.832-.528.832-1.344v-6.912c1.984-1.072 4.16-2.736 5.568-4.288l-.928-.688zm8.976 8.336v-1.872h1.44v1.872h-1.44zm-2.304-1.872h1.44v1.872h-1.472c.032-.432.032-.864.032-1.248v-.624zm2.4-5.264c-.192.56-.464 1.184-.704 1.664h-1.84c.288-.512.56-1.072.8-1.664h1.744zm-.096 2.608h1.44v1.76h-1.44v-1.76zm-2.304 0h1.44v1.76h-1.44v-1.76zm11.024-3.152c-.096 1.856-.24 2.592-.416 2.8-.112.144-.24.16-.448.144-.224 0-.816 0-1.44-.064.144.272.24.688.272.992.656.032 1.312.048 1.648.016.416-.032.656-.144.864-.4.352-.384.48-1.408.608-4.048.016-.144.016-.448.016-.448H25.2v1.008h2.16c-.304 1.504-.944 2.768-2.624 3.504v-1.296h-2c.368-.688.736-1.504 1.008-2.208l-.704-.448-.176.048h-1.872c.128-.384.256-.784.368-1.184l-1.104-.24c-.48 1.952-1.36 3.84-2.496 5.056.256.16.72.528.896.72a9.48 9.48 0 00.336-.416v2.896c0 1.792-.112 4.16-1.184 5.84.24.112.688.368.848.544.752-1.152 1.088-2.72 1.232-4.208h3.84v2.88c0 .208-.08.272-.304.288-.208.016-.928.016-1.76-.016.16.272.336.736.384 1.008 1.104 0 1.744-.016 2.144-.192.416-.176.544-.512.544-1.088v-7.968c.224.192.512.544.64.8 1.968-.896 2.736-2.432 3.072-4.32h2.56zm1.536 8.688h-3.04v-1.968h2.768V113.6h-2.768v-1.632h-1.136v1.632h-1.392c.128-.416.24-.848.336-1.28l-1.008-.208c-.288 1.36-.768 2.672-1.472 3.584.272.128.736.352.928.496.304-.432.592-.976.832-1.568h1.776v1.968h-3.36v1.024h3.36v2.992h1.136v-2.992h3.04v-1.024zm6.496-5.024c1.36-.304 2.88-.672 4.32-1.136 1.296.4 2.464.784 3.392 1.136H39.04zm7.056-3.04c-.72.384-1.648.736-2.672 1.072-1.36-.4-2.768-.768-4.016-1.072h6.688zm3.36 4.032v-.992h-2.32l.64-.592c-.8-.288-1.888-.64-3.056-.992.912-.32 1.744-.688 2.448-1.072l-.64-.384h2.432v-.976H43.6c-.304-.496-.8-1.136-1.216-1.616l-.848.432c.288.352.592.784.864 1.184h-5.904v.976h2.56l-.704.576c1.136.256 2.384.576 3.6.928a51.127 51.127 0 01-4.096.944c.16.144.416.384.576.592h-2.016v3.36c0 1.6-.16 3.664-1.456 5.152.256.144.72.544.896.768 1.44-1.648 1.712-4.096 1.712-5.904v-2.384h11.888zm-5.2 6.624v-1.616h3.952v-.96h-3.952v-1.424h4.304v-.976h-4.304v-1.36h-1.168v1.36h-2.8c.16-.368.304-.72.448-1.088l-1.024-.288c-.464 1.28-1.232 2.512-2.112 3.344.208.208.512.768.624.976.544-.512 1.072-1.2 1.52-1.968h3.344v1.424H39.36v.96h3.728v1.616h-5.232v.992h11.856v-.992h-5.456zm18.544-8.256h-6.352v-3.024H62.8v3.024zm1.2-4.16h-8.704v5.296H64v-5.296zm-6.544 8.128v3.792h-3.344v-3.792h3.344zm-4.48 5.808h1.136v-.864h3.344v.72h1.168v-6.816h-5.648v6.96zm8.544-2.016v-3.792h3.632v3.792H61.52zm-1.152-4.944v6.96h1.152v-.864h3.632v.752h1.168v-6.848h-5.952zM80 110.928h-6.352v-3.024H80v3.024zm1.2-4.16h-8.704v5.296H81.2v-5.296zm-6.544 8.128v3.792h-3.344v-3.792h3.344zm-4.48 5.808h1.136v-.864h3.344v.72h1.168v-6.816h-5.648v6.96zm8.544-2.016v-3.792h3.632v3.792H78.72zm-1.152-4.944v6.96h1.152v-.864h3.632v.752h1.168v-6.848h-5.952zm11.248-2.192h2.704v-5.44h-1.008v4.4h-1.696v-4.08h-1.088v6.08c0 2.32-.144 5.52-1.12 7.792.336.096.816.272 1.072.4.688-1.712.976-3.856 1.072-5.856h1.664v5.84h1.12v-6.88H88.8c.016-.448.016-.864.016-1.296v-.96zm4.976 1.552v-1.744h2.224a6.555 6.555 0 01-.512 1.744h-1.712zm0-4.384h2.288v1.712h-2.288v-1.712zm5.568 1.712h-2.208v-1.712h2.208v1.712zm0 2.672h-2.752c.256-.656.4-1.248.48-1.744h2.272v1.744zm1.92 3.264h-2.816v-1.904H97.36v1.904h-3.136a7.286 7.286 0 001.936-2.288h4.368v-6.352h-4.304c.224-.416.48-.928.704-1.424l-1.328-.208c-.128.464-.416 1.12-.656 1.632h-2.272v6.352h2.288a6.795 6.795 0 01-1.84 1.792c.16.112.432.304.624.496h-1.712v1.072h5.328v3.248h1.104v-3.248h2.816v-1.072zm7.44-9.216c-.224 1.008-.72 2.512-1.088 3.408l.768.272c.416-.832.928-2.224 1.344-3.328l-1.024-.352zm-2.912 3.36c-.16-.912-.544-2.288-.896-3.36l-.88.208c.336 1.072.704 2.464.864 3.376l.912-.224zm-.48 2.96c-.288 1.424-.992 3.2-1.648 4.128.192.304.464.832.576 1.168.832-1.104 1.52-3.296 1.856-5.04l-.784-.256zm4-.928v-1.104h-1.968v-5.328h-1.072v5.312h-2.336v1.12h2.336v8.16h1.072v-8.16h1.968zm-1.776 1.392c.32.624 1.168 2.528 1.44 3.312l.816-.88c-.224-.48-1.312-2.464-1.6-2.88l-.656.448zm4.064 3.312c.032-.416.048-.816.048-1.184h4.8v1.184h-4.848zm4.848-3.216v1.184h-4.8v-1.184h4.8zm1.12-.944h-7.008v2.944c0 1.264-.112 2.88-1.056 4.08.24.128.656.56.832.784.656-.784.976-1.792 1.152-2.8h4.96v1.36c0 .176-.048.24-.256.24-.192.016-.848.016-1.568-.016.144.288.288.688.336.992 1.008 0 1.664 0 2.064-.176.432-.176.544-.464.544-1.04v-6.368zm-3.008-1.856v-1.088h3.488v-.864h-3.488v-.976h3.776v-.912h-3.776v-1.296h-1.168v1.296h-3.6v.912h3.6v.976h-3.2v.864h3.2v1.088h-3.776v.912h8.88v-.912h-3.936zm10.768-3.104c-.304-.544-.928-1.392-1.488-2.032l-.912.544c.528.64 1.152 1.536 1.44 2.096l.96-.608zm.784.656l-.208.048h-4.624v1.088h4.032c-.976 1.968-2.704 3.888-4.368 4.944.176.208.432.8.528 1.136.656-.464 1.344-1.072 2-1.744v6.416h1.088v-6.864a29.436 29.436 0 011.648 2l.688-.96a47.845 47.845 0 00-2.096-2.16c.768-1.072 1.44-2.24 1.92-3.456l-.608-.448zm5.616 6.416v-2.24h2.272v2.24h-2.272zm-3.408 0v-2.24h2.24v2.24h-2.24zm2.24-5.52v2.208h-2.24v-2.208h2.24zm3.44 0v2.208h-2.272v-2.208h2.272zm-2.272-1.072v-2.528h-1.168v2.528h-3.328v8.416h1.088v-.752h2.24v4.4h1.168v-4.4h2.272v.64h1.136v-8.304h-3.408zm12.592 2.64l-1.04.912c1.136.928 2.496 2.288 3.536 3.552l1.088-.912c-.992-1.184-2.448-2.624-3.584-3.552zM3.744 142.352v-2.624h8.368v2.624H3.744zm8.368-6.384v2.624H3.744v-2.624h8.368zm0-3.728v2.592H3.744v-2.592h8.368zm-9.536-1.152v13.52h1.168v-1.088h8.368v1.088h1.232v-13.52H2.576zM27.2 132.88h-1.44v-1.072h1.44v1.072zm2.464.912v1.904h-1.568v-1.904h1.568zm-3.904 0h1.44v1.904h-1.44v-1.904zm-2.336 0h1.424v1.904h-1.424v-1.904zm1.424-.912h-2.416v3.728h8.288v-3.728h-2.624v-1.072h2.896v-.976h-8.928v.976h2.784v1.072zm5.12 5.52v-.944H23.12v.944h6.848zm-7.792-.448c-.256-.448-1.472-2.336-1.872-2.864v-.816h1.76v-1.12h-1.76v-3.072h-1.088v3.072h-2.24v1.12h2.064c-.48 2.112-1.488 4.64-2.48 5.952.208.288.512.8.64 1.152.752-1.12 1.472-2.912 2.016-4.752v8.064h1.088v-8.16c.432.8.944 1.76 1.152 2.272l.72-.848zm1.52 3.072c-.512.96-1.328 1.936-2.208 2.592.288.144.72.448.928.624a11.198 11.198 0 002.336-2.912l-1.056-.304zm7.36-.544v-.976h-8.96v.976h3.824v4.208h1.072v-4.208h4.064zm-2.928 1.024c.816.816 1.696 1.936 2.112 2.688l.928-.56c-.432-.736-1.344-1.808-2.176-2.624l-.864.496zm16.96-11.472c-2.736.592-7.632 1.008-11.728 1.184.112.272.256.704.272 1.008 4.144-.16 9.088-.56 12.288-1.232l-.832-.96zm-4.256 4.272c-.112-.608-.464-1.584-.848-2.32l-1.072.24c.368.736.704 1.728.8 2.352l1.12-.272zm-6.512 1.424h11.328v2.192h1.168v-3.248H44.08c.48-.704 1.04-1.568 1.472-2.352l-1.2-.368c-.352.816-.96 1.92-1.488 2.72h-6.96l.944-.304c-.192-.576-.672-1.44-1.136-2.096l-1.024.288c.416.656.864 1.536 1.056 2.112H33.2v3.248h1.12v-2.192zm8.768 2.912c-.736 1.136-1.792 2.032-3.04 2.752-1.296-.736-2.368-1.648-3.136-2.752h6.176zm.992-1.152l-.24.048h-8.72v1.104h.688l-.16.064c.816 1.296 1.92 2.4 3.232 3.296-1.76.8-3.84 1.296-6.016 1.6.24.24.576.768.704 1.056 2.304-.368 4.528-.992 6.448-1.984 1.824.992 3.968 1.648 6.384 1.984.144-.32.464-.848.72-1.104-2.224-.272-4.224-.784-5.92-1.552 1.568-1.008 2.832-2.32 3.664-4.016l-.784-.496zm17.024-3.648h-2.752v-2.08h2.752v2.08zm-3.856 0H54.56v-2.08h2.688v2.08zm-3.792 0h-2.608v-2.08h2.608v2.08zm8.832-3.136H49.712v4.208h12.576v-4.208zm-10.352 7.312c-.352 1.568-1.136 3.888-3.424 5.024.24.176.576.608.736.864 1.392-.752 2.288-1.872 2.896-3.072.8.672 1.68 1.488 2.112 2.032l.64-.832c-.464-.608-1.488-1.472-2.368-2.096a13.44 13.44 0 00.576-1.92h-1.168zm9.76-2.384c-2.96.48-8.256.752-12.288.688.24.272.544.832.704 1.12 1.6-.032 3.456-.096 5.296-.208v7.664h1.168v-7.728c2.24-.16 4.368-.384 6-.656l-.88-.88zm-1.952 2.08c-.304 1.696-.992 4.048-3.168 5.248.256.192.608.608.768.896 1.232-.752 2.048-1.808 2.592-2.944.64.96 1.568 2.128 2.544 2.816.176-.272.528-.656.784-.864-1.184-.72-2.288-2.096-2.848-3.088a14.3 14.3 0 00.496-2.064h-1.168zm17.248-1.2c-.624 1.808-1.632 3.264-2.928 4.384a11.19 11.19 0 01-2.976-4.384h5.904zM69.504 132h4.304a57.883 57.883 0 01-.864 3.392H69.44c.048-.688.064-1.344.064-1.952V132zm8.224 3.328l-.224.064h-3.28c.352-1.296.768-3.088 1.088-4.56h-9.808V132h2.8v1.44c0 2.832-.272 6.816-3.664 9.968.256.224.688.688.864 1.008 2.592-2.448 3.52-5.312 3.84-7.904h.592c.736 2.032 1.776 3.776 3.168 5.136-1.424 1.008-3.072 1.68-4.8 2.08.24.24.528.752.672 1.088 1.84-.496 3.584-1.232 5.072-2.336 1.264 1.008 2.752 1.744 4.496 2.224.176-.352.544-.848.816-1.12-1.648-.4-3.104-1.04-4.32-1.904 1.616-1.456 2.848-3.392 3.52-5.984l-.832-.368zm11.6-3.552h2.656v2.56c0 1.2.224 1.648 1.264 1.648h1.04c.304 0 .624-.016.784-.08-.016-.272-.064-.72-.08-1.024a3.39 3.39 0 01-.704.08h-.944c-.224 0-.256-.144-.256-.592v-3.712h-4.864v1.76c0 1.136-.272 2.448-1.984 3.424.208.176.608.624.768.864 1.904-1.12 2.32-2.816 2.32-4.256v-.672zm-4.64.304c-.256-.576-.768-1.408-1.232-2.064l-.928.464c.448.672.96 1.568 1.2 2.144l.96-.544zm2.16.72H80.8v.976h6.048v-.976zm-5.36 5.12h4.72v-.944h-4.72v.944zm0-3.024v.944h4.704v-.944h-4.704zm11.44 3.328c-.528 1.216-1.312 2.224-2.256 3.056a8.893 8.893 0 01-2.256-3.056h4.512zm-7.792 4.512h-2.624v-2.64h2.624v2.64zm8.56-5.68l-.208.048h-6.816v1.12h1.392l-.688.24A10.936 10.936 0 0089.76 142a11.612 11.612 0 01-3.568 1.616v-4.512h-4.72v5.376h1.04v-.752h3.648c.208.272.432.688.544.992 1.44-.432 2.784-1.072 3.968-1.952 1.136.864 2.464 1.504 3.968 1.904.16-.336.496-.816.736-1.072-1.424-.32-2.688-.864-3.776-1.6 1.264-1.168 2.256-2.672 2.848-4.608l-.752-.336zm7.408-4.976c-.24-.56-.752-1.392-1.232-2.048l-.896.464c.432.656.944 1.552 1.168 2.128l.96-.544zm2.544.72h-6.576v.976h6.576v-.976zm-.72 4.176h-5.152v.944h5.152v-.944zm-1.008 3.12v2.64h-2.976v-2.64h2.976zm1.056-.992h-5.072v5.376h1.04v-.752h4.032v-4.624zm-5.2-3.264h5.2v-.944h-5.2v.944zm13.456-.24h-3.28v-5.216h-1.2v5.216h-3.136v1.168h3.136v7.936h1.2v-7.936h3.28V135.6zm6.736 4.672c-.72 1.072-1.776 2.272-2.72 3.072.288.176.768.496 1.008.672.896-.864 2-2.208 2.816-3.36l-1.104-.384zm-.048-3.216h6.64v1.488h-6.64v-1.488zm0-2.384h6.64v1.488h-6.64v-1.488zm7.84 4.816v-5.76h-4.608c.224-.4.464-.832.704-1.264l-1.376-.208c-.144.416-.368.992-.608 1.472h-3.12v5.76h3.904v3.888c0 .192-.064.256-.32.272-.24 0-1.056 0-1.984-.016.144.304.32.736.368 1.056 1.216 0 2 0 2.48-.192.48-.176.608-.48.608-1.104v-3.904h3.952zm-2.608 1.312c.96 1.04 2.224 2.448 2.816 3.312l.992-.64c-.64-.816-1.92-2.176-2.864-3.168l-.944.496zm3.872-9.824h-12.88v4.512c0 2.432-.144 5.856-1.536 8.288.304.112.8.4 1.024.592 1.472-2.544 1.68-6.32 1.68-8.88v-3.424h11.712v-1.088zm10.48 1.024v8.8h1.168V132h-1.168zm3.904-1.6v12.72c0 .304-.128.4-.416.4a31.51 31.51 0 01-2.432-.016c.176.336.368.88.432 1.2 1.456 0 2.352-.016 2.88-.208.496-.208.72-.576.72-1.376V130.4h-1.184zm-10.688 10.8a8.092 8.092 0 01-2.112 2.784c.304.176.768.528.992.736.848-.784 1.744-2 2.272-3.2l-1.152-.32zm2.736.448c.704.864 1.456 2.048 1.776 2.816l1.088-.544c-.352-.752-1.104-1.872-1.824-2.704l-1.04.432zm-2.736-6.944h3.888v1.984h-3.888v-1.984zm0 2.96h3.888v2.016h-3.888v-2.016zm0-5.888h3.888v1.952h-3.888v-1.952zm-1.136-1.072v10.032h6.176v-10.032h-6.176zm77.504-16.752c-.24-.416-1.248-2.064-1.648-2.64v-1.04h1.456v-.192c.24.208.576.544.72.752a14.983 14.983 0 001.712-1.12v.928h4.768v-.96h-4.72a13.195 13.195 0 002.176-2.032c1.344 1.184 3.264 2.368 4.912 3.072.096-.304.336-.784.528-1.072-1.632-.576-3.632-1.664-4.832-2.752.128-.176.24-.368.352-.544l-1.152-.368c-.864 1.456-2.576 3.008-4.464 4.016v-.848h-1.456v-3.072h-.976v3.072h-1.904v1.12h1.744c-.4 2.112-1.216 4.544-2.032 5.824.176.304.416.832.528 1.168.608-1.056 1.216-2.752 1.664-4.512v7.936h.976v-8.032c.4.768.88 1.696 1.072 2.192l.576-.896zm6.08-1.28h1.76v2.096h-1.76v-2.096zm-.928 2.96h3.664v-3.84h-3.664v3.84zm-3.648-2.96h1.712v2.096h-1.712v-2.096zm-.912 2.96h3.568v-3.84h-3.568v3.84zm1.36.368c-.512 1.728-1.6 3.104-3.056 3.968.256.192.64.576.816.784a8.27 8.27 0 002.384-2.544c.64.464 1.296.992 1.632 1.376l.64-.8c-.4-.4-1.152-.976-1.808-1.392.176-.384.32-.768.448-1.184L209.04 116zm4.448-.016c-.336 1.728-1.2 3.088-2.496 3.936.24.192.656.576.8.784a6.348 6.348 0 001.952-2.256c.928.64 1.92 1.456 2.464 2.016l.72-.816c-.608-.608-1.76-1.472-2.768-2.112.176-.448.304-.912.416-1.408l-1.088-.144zm10.304-7.84c-.272-.576-.912-1.408-1.504-2l-.88.56c.56.608 1.184 1.488 1.456 2.08l.928-.64zm1.808 6.72c-.336-.352-1.568-1.632-2.192-2.224.8-1.056 1.504-2.208 1.984-3.392l-.624-.464-.224.048h-4.832v1.088h4.208c-1.024 1.984-2.88 3.904-4.64 4.96.176.208.448.816.544 1.136a13.327 13.327 0 002.208-1.84v6.512h1.168v-6.848c.608.672 1.328 1.52 1.648 1.984l.752-.96zm1.84-2.048h4.672v1.616h-4.672v-1.616zm0-2.528h4.672v1.6h-4.672v-1.6zm0-2.512h4.672v1.568h-4.672v-1.568zm4.304 11.792c-.336 0-.384-.048-.384-.416v-3.744h1.888v-8.624h-6.912v8.624h1.456c-.208 2.208-.8 3.68-3.344 4.464.224.208.544.608.656.88 2.784-.976 3.504-2.72 3.776-5.344h1.36v3.76c0 1.136.256 1.456 1.344 1.456h1.328c.928 0 1.232-.512 1.328-2.576-.32-.08-.768-.272-1.008-.448-.048 1.76-.096 1.968-.432 1.968h-1.056zm15.712-3.456v2.848h-6.992v-2.848h6.992zm-8.176 4.656h1.184v-.736h6.992v.688h1.232v-5.712h-9.408v5.76zm2-11.952h5.904c-.8.96-1.888 1.84-3.104 2.592-1.152-.72-2.16-1.552-2.928-2.448l.128-.144zm6.992-1.12l-.208.064h-5.888c.352-.448.672-.928.96-1.408l-1.136-.4c-1.12 1.968-3.056 3.76-5.056 4.848.272.208.72.656.912.88.864-.528 1.728-1.2 2.544-1.968.736.848 1.632 1.616 2.624 2.32a25.79 25.79 0 01-6.496 2.336c.208.256.48.752.576 1.072 2.304-.544 4.784-1.456 6.992-2.704a22.492 22.492 0 006.576 2.64c.176-.32.496-.816.768-1.088-2.208-.432-4.384-1.216-6.24-2.224 1.584-1.072 2.96-2.336 3.888-3.808l-.816-.56zm8.768-1.536c-.8 2.416-2.08 4.816-3.504 6.368.208.288.528.944.624 1.2.544-.608 1.056-1.328 1.552-2.112v9.088h1.136v-11.136c.496-.992.928-2.048 1.28-3.104l-1.088-.304zm7.68 10.304h-2.704v-2.48h2.704v2.48zm1.568-5.136v-.912h-2.464v-1.808h-.976v1.808h-2.4v.912h2.4v1.76h-1.744v4.256h4.56v-4.256h-1.84v-1.76h2.464zm-6.496 7.344v-10.576h7.04v10.576h-7.04zm-1.104-11.616v13.616h1.104v-.944h7.04v.816h1.136v-13.488h-9.28zm18.656 7.856c-.848.224-1.728.464-2.56.688v-6.496h2.32v-1.136h-5.824v1.136h2.336v6.816c-.976.24-1.856.464-2.56.624l.304 1.216c1.68-.464 3.968-1.104 6.128-1.744l-.144-1.104zm3.728-5.2c.032-1.088.048-2.208.048-3.36h-1.184c0 1.168-.016 2.288-.048 3.36h-2.672v1.152h2.624c-.24 3.872-1.12 7.104-4.512 8.912.288.208.688.64.848.944 3.648-2.048 4.576-5.616 4.832-9.856h3.2c-.24 5.664-.496 7.808-.944 8.32-.176.192-.368.24-.672.24-.352 0-1.264 0-2.24-.096.208.336.352.832.368 1.168.896.064 1.84.08 2.352.032.56-.064.88-.192 1.232-.624.608-.736.816-3.024 1.072-9.584.016-.16.016-.608.016-.608h-4.32zm20.128 3.264c.576 0 1.152-.032 1.424-.096-.048-.272-.096-.72-.128-1.04-.304.08-.944.096-1.328.096h-2.944c-.512 0-.64-.192-.64-.768v-1.808h4.304v-1.056h-4.304v-2.208h-1.168v5.04c0 1.344.384 1.84 1.792 1.84h2.992zm-10.56 1.296c.864.528 1.968 1.264 2.528 1.728l.64-.656c-.576-.448-1.696-1.168-2.544-1.664l-.624.592zm-.128-1.504h3.312V116c-1.28.64-2.544 1.28-3.44 1.68.096-.704.128-1.408.128-2.016v-2.896zm4.448-1.024h-5.552v3.904c0 1.36-.096 3.04-1.008 4.256.24.16.656.576.816.832.672-.832.992-1.936 1.152-2.992l.416.96a244.96 244.96 0 003.04-1.76v2.464c0 .208-.048.272-.272.272-.208 0-.864.016-1.632-.016.16.288.32.688.384.992.992 0 1.696-.016 2.096-.192.432-.176.56-.448.56-1.056v-7.664zm-1.984-4.128c.336.496.672 1.04.992 1.584l-3.28.224c.784-.832 1.552-1.904 2.224-2.944l-1.184-.4c-.672 1.296-1.728 2.592-2.032 2.928-.32.336-.592.576-.848.624.144.288.32.88.384 1.12.368-.176.928-.24 5.264-.592.208.4.384.768.512 1.088l1.024-.464c-.4-.944-1.312-2.448-2.096-3.536l-.96.368zm5.504 11.888c-.752 0-.896-.096-.896-.624v-2.4h4.48v-1.072h-4.48v-1.904h-1.168v5.376c0 1.312.4 1.68 1.952 1.68h2.832c1.328 0 1.68-.544 1.824-2.624-.32-.08-.784-.256-1.056-.448-.08 1.712-.192 2.016-.864 2.016h-2.624zm7.2.736h14.272v-.848H305.68v.848zm11.328-3.808h-3.712v-.816h3.712v.816zm0 1.52h-3.712v-.848h3.712v.848zm-8.368-.848h3.552v.848h-3.552v-.848zm0-1.488h3.552v.816h-3.552v-.816zm-1.136-.688v3.712h10.704v-3.712h-10.704zm5.824-5.552h3.664v.88h-3.664v-.88zm0-1.568h3.664v.816h-3.664v-.816zm0 5.584v-.832h5.472v-.752h-5.472v-.816h4.848v-1.616h1.728v-.752h-1.728v-1.552h-4.848v-.992h-1.184v.992h-4.752v.736h4.752v.816h-6.432v.752h6.432v.88h-4.848v.736h4.848v.816h-5.232v.752h5.232v.832h-6.464v.832h14.272v-.832h-6.624zm21.76 5.36h-2.4v-7.36h2.4v7.36zm-10.224-7.36h2.272v7.36h-2.272v-7.36zm6.736 1.76h-3.376v-1.76h3.376v1.76zm-3.376 3.744h3.376v1.856h-3.376v-1.856zm3.376-.976h-3.376v-1.792h3.376v1.792zm5.456-7.632v-1.136h-14.064v1.136h6.128a24.398 24.398 0 01-.464 2h-4.944v10.416h1.152v-.848h10.224v.848h1.2v-10.416h-6.416c.208-.608.432-1.328.624-2h6.56zm8.832 8.176c1.68-.592 2.768-1.904 2.768-3.632 0-1.12-.48-1.84-1.36-1.84-.656 0-1.216.4-1.216 1.152 0 .752.544 1.136 1.2 1.136.096 0 .176 0 .272-.016-.08 1.088-.784 1.84-2.016 2.352l.352.848zm-137.44 17.968h2.224v8.368h-2.224v-8.368zm3.392 8.368v-8.368h4.448v-1.152h-3.68c.56-.768 1.216-1.84 1.744-2.8l-1.264-.384a18.877 18.877 0 01-1.632 2.944l.656.24h-5.424l1.008-.448c-.256-.768-.928-1.872-1.6-2.72l-1.04.416c.624.816 1.28 1.984 1.536 2.752h-3.664v1.152h4.352v8.368h-4.768v1.2h14.192v-1.2h-4.864zm-8.144-6.544c.752 1.584 1.376 3.664 1.52 5.04l1.136-.288c-.192-1.376-.816-3.456-1.6-5.04l-1.056.288zm9.984 5.072c.624-1.36 1.392-3.456 1.936-5.2l-1.248-.304c-.384 1.584-1.136 3.824-1.76 5.184l1.072.32zm8.288-6.656h-1.936v-3.952h-1.056v4.992h2.992v2.352h-3.664v1.056h.864v.352c0 1.232-.128 3.216-1.008 4.688.288.096.704.368.912.576.976-1.6 1.152-3.856 1.152-5.232v-.384h1.744v5.584h1.104v-14.592h-1.104v4.56zm8.912-2.352c-.416.784-.992 1.472-1.664 2.08-.48-.656-1.28-1.44-2.032-2.064l.016-.016h3.68zm.736-.928l-.208.048h-3.232c.352-.336.656-.672.912-1.024l-1.152-.336c-.912 1.296-2.688 2.624-4.576 3.392.208.192.56.544.736.736a14.794 14.794 0 002.352-1.328c.768.64 1.568 1.488 2.016 2.144-1.408 1.072-3.136 1.824-4.816 2.224.208.224.48.608.592.88 3.36-.928 6.704-2.912 8.096-6.368l-.72-.368zm-4.56 3.04c-1.296.16-2.48.32-3.392.4l.208.896c.976-.144 2.08-.288 3.248-.464l-.064-.832zm-2.288 5.808c.8.8 1.68 1.888 2.048 2.624l.976-.608c-.4-.72-1.296-1.808-2.112-2.56l-.912.544zm8.096-1.984H230.8V136h-1.136v2.256h-6.048v1.056h6.048v3.808c0 .224-.08.288-.336.288a27.57 27.57 0 01-2.064 0c.176.336.336.8.384 1.136 1.264 0 2.048-.016 2.528-.208s.624-.528.624-1.2v-3.824h2.064v-1.056zm15.456-5.584c-.48-.656-1.472-1.6-2.352-2.256l-.832.592c.88.672 1.872 1.664 2.32 2.336l.864-.672zm-11.456 8.784h2.272v1.088h-2.272v-1.088zm2.272-2.704h-2.272v-1.024h2.272v1.024zm0 1.904h-2.272v-1.104h2.272v1.104zm7.744-4.688a17.627 17.627 0 01-1.696 4.032c-.32-1.36-.576-3.056-.72-5.008h4.272v-1.024h-4.352a59.731 59.731 0 01-.08-3.856h-1.168c.016 1.328.048 2.624.112 3.856h-3.968v-1.392h2.88v-1.008h-2.88v-1.472h-1.152v1.472h-2.96v1.008h2.96v1.392h-3.648v1.024h8.832c.192 2.464.512 4.624 1.024 6.272a10.966 10.966 0 01-1.872 1.968v-.688h-2.336v-1.088h2.08v-.8h-2.08v-1.104h2.08v-.8h-2.08v-1.024h2.368v-.928h-2.032c-.16-.448-.56-1.136-.944-1.616l-.88.352c.256.368.528.848.72 1.264h-2.224c.224-.448.464-.912.656-1.36l-1.008-.272c-.56 1.392-1.504 2.768-2.528 3.68.24.16.64.496.832.672.256-.24.496-.512.736-.816v5.664h1.04v-.848h5.248c-.176.128-.336.256-.512.368.288.192.656.56.832.816.88-.624 1.664-1.36 2.368-2.208.576 1.296 1.36 2.032 2.368 2.032 1.136 0 1.504-.72 1.712-3.12-.288-.096-.688-.352-.944-.592-.08 1.84-.256 2.56-.656 2.56-.672 0-1.232-.704-1.68-1.952 1.008-1.52 1.808-3.28 2.368-5.136l-1.088-.32zm9.728 3.216h1.888v.928h-1.888v-.928zm-.736 1.552h3.392v-2.176h-3.392v2.176zm-1.024-2.864h5.44v3.552h-5.44v-3.552zm-.928 4.304h7.344v-5.04h-7.344v5.04zm1.504-8.976h4.304v1.056h-4.304V133.2zm2.624 2.496v-.72h2.704v-2.48h-6.32v2.48h2.608v.72h-4.208v.752h9.584v-.752h-4.368zm-5.968 7.328v-11.28h11.04v11.28h-11.04zm-1.104-12.288v13.936h1.104v-.624h11.04v.624h1.136v-13.936h-13.28zm19.36-.112c-.768 2.496-2.224 4.608-4.112 5.92.288.192.784.64.992.88 1.872-1.504 3.456-3.776 4.352-6.496l-1.232-.304zm-1.712 5.472v1.152h3.264c-.368 2.72-1.248 5.232-5.024 6.496.288.256.624.72.768 1.04 4.064-1.488 5.104-4.368 5.52-7.536h4.128c-.192 4.032-.416 5.632-.832 6.032-.16.176-.336.208-.672.208-.384 0-1.36-.016-2.4-.112.224.352.368.832.384 1.2.992.048 2 .08 2.512.032.576-.064.912-.176 1.248-.576.544-.608.768-2.448.992-7.36.016-.16.032-.576.032-.576h-9.92zm4.208-5.728v1.12h2.832c.912 2.384 2.56 4.624 4.544 5.904a7.15 7.15 0 01.848-1.072c-2.032-1.152-3.744-3.44-4.544-5.952h-3.68zm22.272 5.488h-3.952v-1.52h3.952v1.52zm0 2.432h-3.952v-1.536h3.952v1.536zm0 2.448h-3.952v-1.552h3.952v1.552zm-5.04-7.344v8.288h6.176v-8.288h-3.152c.16-.448.336-.992.496-1.504h3.264v-1.04h-7.408v1.04h2.88c-.112.48-.24 1.04-.368 1.504h-1.888zm-2.048-2.72c-.208.592-.592 1.472-.912 2.016l.8.288c.352-.512.736-1.264 1.104-1.984l-.992-.32zm-3.424 1.872c-.128-.512-.528-1.296-.96-1.888l-.832.336c.4.592.784 1.392.912 1.936l.88-.384zm.784 5.056h1.056v-2.992h2.784v-.992h-2.784v-3.456h-1.056v3.456h-2.928v.992h2.928v2.992zm1.328-1.984c.48.384 1.664 1.552 2.048 2.032l.672-.784c-.32-.304-1.712-1.456-2.096-1.728l-.624.48zm-2.496-.544c-.416.896-1.232 1.888-2.032 2.352.224.176.544.528.704.768.832-.608 1.664-1.76 2.096-2.832l-.768-.288zm4.816 8.048c-.64-.56-1.856-1.392-2.832-2.016.064-.24.096-.464.112-.704h3.072v-1.008h-1.056l.528-.352c-.224-.368-.688-.912-1.104-1.296l-.688.432c.352.352.768.832 1.008 1.216h-1.712v-1.456h-1.04v1.456h-2.88v1.008h2.816c-.16 1.168-.8 2.384-3.024 3.328.208.208.496.608.608.864 1.68-.72 2.56-1.616 3.024-2.56.912.64 1.936 1.408 2.496 1.904l.672-.816zm2.688-1.12c-.56.688-1.728 1.504-2.768 1.936.24.224.608.576.8.8 1.04-.48 2.272-1.328 3.008-2.144l-1.04-.592zm1.776.624c.944.608 2.112 1.504 2.672 2.08l.928-.656c-.624-.592-1.824-1.44-2.736-2.016l-.864.592zm10.592-3.424c-.176-.816-.64-2.144-1.136-3.168l-.864.32c.224.464.416.992.608 1.52l-2.608.368c1.328-1.488 2.608-3.36 3.648-5.248l-1.008-.592a28.592 28.592 0 01-1.28 2.272l-1.68.16c.912-1.232 1.84-2.8 2.56-4.336l-1.088-.464c-.672 1.728-1.808 3.568-2.16 4.032-.336.48-.624.816-.88.88.112.288.304.848.368 1.088.208-.112.544-.176 2.24-.368-.576.832-1.072 1.504-1.328 1.776-.48.592-.848.992-1.184 1.072.128.304.32.864.368 1.104.304-.176.784-.288 4.304-.88.08.304.144.592.192.816l.928-.352zm-5.136 1.104c-.16 1.28-.4 2.688-.768 3.68.24.08.72.24.912.352.336-.992.64-2.496.8-3.856l-.944-.176zm1.696.112c.192 1.072.368 2.48.4 3.392l.928-.224c-.048-.912-.24-2.288-.432-3.36l-.896.192zm3.488 2.288c-.16-.784-.528-1.952-.896-2.88l-.832.288c.336.896.704 2.112.848 2.88l.88-.288zm6.208.656c-.352 0-.4-.08-.4-.496v-5.712l1.216-.144c.24.448.432.88.576 1.216l1.056-.512c-.416-1.008-1.424-2.64-2.24-3.84l-.976.432c.352.528.72 1.152 1.072 1.76l-4.704.464c.704-.96 1.392-2.096 2.048-3.296h4.688v-1.12h-4.112c.272-.528.544-1.088.784-1.632l-1.28-.384c-.256.672-.56 1.36-.88 2.016h-2.912v1.12h2.368c-.592 1.104-1.12 1.984-1.376 2.336-.432.656-.784 1.088-1.104 1.168.16.336.336.928.416 1.184.224-.096.512-.176 1.568-.32-.096 3.296-.48 5.168-2.992 6.24.272.208.592.624.736.928 2.8-1.312 3.28-3.536 3.408-7.312l1.504-.176v5.6c0 1.184.272 1.536 1.392 1.536h1.376c.96 0 1.248-.56 1.36-2.704-.336-.096-.784-.256-1.04-.464-.032 1.808-.112 2.112-.448 2.112h-1.104zM316 133.6h1.728v1.168H316V133.6zm4.368 0v1.168h-1.584V133.6h1.584zm-2.64 4.72h1.056v-2.048c.752.4 1.632.976 2.096 1.392l.528-.704c-.496-.416-1.408-.992-2.176-1.344l-.448.544v-.592h2.608v-2.752h-2.608V132h3.008v-.912h-3.008v-1.008h-1.056v1.008h-3.168V132h3.168v.816h-2.704v2.752h2.32c-.752.864-1.968 1.696-3.056 2.096.224.192.528.56.688.784.944-.432 1.984-1.216 2.752-2.048v1.92zm4.448 3.616h4.576v-.928h-4.576v-1.248h5.632v-.992h-12.336v.992h5.536v3.488h-2.832v-2.64h-1.136v2.64h-2.624v1.024h14.416v-1.024h-6.656v-1.312zm1.68-9.056l2.768-.016a6.665 6.665 0 01-1.28 2.432 8.31 8.31 0 01-1.488-2.416zm4.928-.016v-.992h-4.448c.224-.496.4-1.008.56-1.536l-1.088-.24c-.432 1.6-1.232 3.104-2.272 4.048.224.192.64.592.8.8.32-.32.64-.704.944-1.104.32.72.784 1.456 1.376 2.144-.832.72-1.872 1.264-3.104 1.664.208.192.56.64.688.848 1.2-.448 2.256-1.008 3.12-1.76a8.732 8.732 0 002.912 1.808c.128-.256.448-.704.672-.912-1.136-.384-2.096-.944-2.864-1.616.736-.848 1.296-1.888 1.68-3.152h1.024zm83.856-20.976c-.448-1.088-1.472-2.656-2.528-3.824l-1.056.528c1.008 1.168 2.032 2.8 2.464 3.904l1.12-.608zm-2.272 3.104c-1.056.448-2.128.912-3.152 1.344l-.24-9.44-1.216.048.272 9.888c-.832.352-1.584.656-2.208.896l.432 1.232a429.78 429.78 0 006.384-2.832l-.272-1.136zm8.304 4.736c-.816-1.184-2.512-2.96-3.936-4.4 1.12-2.144 1.728-4.864 2.112-8.288l-1.296-.128c-.704 6.912-2.4 10.784-7.888 12.8.288.24.784.784.944 1.024 2.496-1.04 4.24-2.432 5.488-4.32 1.36 1.44 2.848 3.12 3.584 4.224l.992-.912zm10.153-3.456c-.72 1.072-1.776 2.272-2.72 3.072.288.176.768.496 1.008.672.896-.864 2-2.208 2.816-3.36l-1.104-.384zm-.048-3.216h6.64v1.488h-6.64v-1.488zm0-2.384h6.64v1.488h-6.64v-1.488zm7.84 4.816v-5.76h-4.608c.224-.4.464-.832.704-1.264l-1.376-.208c-.144.416-.368.992-.608 1.472h-3.12v5.76h3.904v3.888c0 .192-.064.256-.32.272-.24 0-1.056 0-1.984-.016.144.304.32.736.368 1.056 1.216 0 2 0 2.48-.192.48-.176.608-.48.608-1.104v-3.904h3.952zm-2.608 1.312c.96 1.04 2.224 2.448 2.816 3.312l.992-.64c-.64-.816-1.92-2.176-2.864-3.168l-.944.496zm3.872-9.824h-12.88v4.512c0 2.432-.144 5.856-1.536 8.288.304.112.8.4 1.024.592 1.472-2.544 1.68-6.32 1.68-8.88v-3.424h11.712v-1.088zm15.833 3.952h-6.352v-3.024h6.352v3.024zm1.2-4.16h-8.704v5.296h8.704v-5.296zm-6.544 8.128v3.792h-3.344v-3.792h3.344zm-4.48 5.808h1.136v-.864h3.344v.72h1.168v-6.816h-5.648v6.96zm8.544-2.016v-3.792h3.632v3.792h-3.632zm-1.152-4.944v6.96h1.152v-.864h3.632v.752h1.168v-6.848h-5.952zm13.705-2.192h2.704v-5.44h-1.008v4.4h-1.696v-4.08h-1.088v6.08c0 2.32-.144 5.52-1.12 7.792.336.096.816.272 1.072.4.688-1.712.976-3.856 1.072-5.856h1.664v5.84h1.12v-6.88h-2.736c.016-.448.016-.864.016-1.296v-.96zm4.976 1.552v-1.744h2.224a6.555 6.555 0 01-.512 1.744h-1.712zm0-4.384h2.288v1.712h-2.288v-1.712zm5.568 1.712h-2.208v-1.712h2.208v1.712zm0 2.672h-2.752c.256-.656.4-1.248.48-1.744h2.272v1.744zm1.92 3.264h-2.816v-1.904h-1.104v1.904h-3.136a7.286 7.286 0 001.936-2.288h4.368v-6.352h-4.304c.224-.416.48-.928.704-1.424l-1.328-.208c-.128.464-.416 1.12-.656 1.632h-2.272v6.352h2.288a6.795 6.795 0 01-1.84 1.792c.16.112.432.304.624.496h-1.712v1.072h5.328v3.248h1.104v-3.248h2.816v-1.072zm11.402 1.248c-.368-.512-2.048-2.544-2.672-3.216.032-.304.064-.608.096-.896h2.592v-1.088h-2.544c.016-.352.016-.704.016-1.024v-1.584h2.224v-1.072h-2.224v-2.48h-1.12v2.48h-2.304v1.072h2.304v1.584c0 .32 0 .672-.016 1.024h-2.624v1.088h2.576c-.16 2.144-.72 4.56-2.672 6.144.288.208.672.592.832.832 1.504-1.344 2.288-3.072 2.656-4.848.704.928 1.68 2.224 2.064 2.864l.816-.88zm1.712-4.72h4.56v1.584h-4.56v-1.584zm0-2.56h4.56v1.584h-4.56v-1.584zm0-2.544h4.56v1.552h-4.56v-1.552zm4.192 11.568c-.336 0-.384-.048-.384-.384v-3.424h1.904v-8.848h-6.816v8.848h1.52c-.256 1.968-.944 3.44-3.36 4.24.24.192.544.624.672.896 2.688-.976 3.52-2.72 3.824-5.136h1.152v3.424c0 1.12.256 1.44 1.344 1.44h1.328c.848 0 1.168-.4 1.28-1.904-.32-.08-.784-.256-.992-.432-.032 1.12-.112 1.28-.4 1.28h-1.072zm18.345-11.184l-.688.56c.56.464 1.232 1.104 1.584 1.52l.8-.704c-.352-.384-1.008-.96-1.536-1.376h3.456v-.944h-4.816c.144-.336.272-.656.384-.992l-1.104-.256c-.416 1.344-1.216 2.608-2.16 3.456.272.16.72.512.912.688a8.549 8.549 0 001.472-1.952h1.696zm-8.928 7.872v-1.008h1.664v1.008h-1.664zm0-2.768h1.664v.992h-1.664v-.992zm4.256 0v.992h-1.568v-.992h1.568zm0 2.768h-1.568v-1.008h1.568v1.008zm-1.568.8h2.592v-4.352h-2.592v-.784h3.04v-.912h-3.04v-.848c.112.112.208.224.272.32l.768-.688c-.32-.384-.96-.976-1.52-1.408h3.008v-.96h-4.096c.16-.32.304-.624.432-.944l-1.056-.288c-.528 1.328-1.424 2.608-2.4 3.488.256.192.656.592.832.784.576-.544 1.152-1.28 1.648-2.08h1.328l-.592.464c.432.368.928.832 1.296 1.232h-.944v.928h-3.216v.912h3.216v.784h-2.64v4.352h2.64v.816h-3.536v.928h3.536v2.096h1.024v-2.096h3.168v-.928h-3.168v-.816zm5.648 2.352c-.704 0-.832-.112-.832-.72v-6.896h2.848v3.68c0 .192-.064.24-.288.256-.224.016-.944.016-1.808 0 .16.304.336.768.4 1.104 1.088 0 1.808-.016 2.272-.208.432-.192.56-.528.56-1.12v-4.752h-5.104v7.936c0 1.44.432 1.808 1.84 1.808h2.64c1.28 0 1.632-.608 1.776-2.736a3.48 3.48 0 01-1.056-.464c-.08 1.76-.176 2.112-.8 2.112h-2.448zm10.921 1.328c1.072-.832 1.6-2.256 1.936-3.584l-1.008-.32c-.288 1.248-.88 2.56-1.856 3.296l.928.608zm2.992-3.44c.272.944.432 2.144.384 2.928l1.056-.144c0-.768-.16-1.984-.464-2.912l-.976.128zm2.432-.176c.384.832.72 1.92.832 2.608l.992-.256c-.144-.704-.48-1.776-.896-2.576l-.928.224zm4.8-4.128a59.327 59.327 0 01-.336 1.856h-6.96c.592-.576 1.12-1.2 1.632-1.856h5.664zm-1.296-2.848c-.112.64-.24 1.296-.384 1.824h-3.264c.4-.592.768-1.2 1.104-1.824h2.544zm3.664 4.704h-1.616c.176-.848.352-1.952.512-2.88h-1.84c.192-.832.384-1.936.544-2.88h-3.28c.384-.8.72-1.632 1.024-2.464l-1.168-.336a20.949 20.949 0 01-1.136 2.8h-2.864l.88-.384c-.208-.64-.784-1.616-1.312-2.336l-1.008.4c.496.72 1.008 1.68 1.232 2.32h-3.168v1.056h5.68c-1.552 2.72-3.776 5.12-6.736 6.656.208.24.496.704.64.992a16.494 16.494 0 002.8-1.888h9.584c-.256 2.496-.512 3.504-.848 3.824-.144.144-.304.16-.56.16-.304 0-1.024 0-1.792-.08.176.288.288.752.304 1.056.8.048 1.568.064 1.968.016.448-.032.752-.128 1.024-.416.496-.512.8-1.808 1.088-5.104l.048-.512zm-2.784 3.76c-.208-.56-.704-1.456-1.216-2.096l-.832.304c.496.672.976 1.568 1.184 2.176l.864-.384zm16.121-.832h3.344v-.976h-3.344v-1.344h-1.184v1.344h-3.264v.976h3.264v1.68h-5.36v1.008h12.064v-1.008h-5.52v-1.68zm-3.44-4.976h5.808v1.136h-5.808v-1.136zm5.808-3.968v1.072h-5.808v-1.072h5.808zm-5.808 1.968h5.808v1.104h-5.808v-1.104zm10.096 4.144v-1.008h-3.088v-5.104h2.4v-.992h-2.4v-1.536h-1.2v1.536h-5.808v-1.536h-1.168v1.536h-2.432v.992h2.432v5.104h-3.168v1.008h3.456c-.912 1.136-2.288 2.144-3.616 2.672.272.224.592.624.768.912 1.552-.72 3.168-2.096 4.176-3.584h5.008c.96 1.408 2.512 2.736 4.064 3.376.176-.272.512-.688.784-.912-1.344-.48-2.704-1.408-3.6-2.464h3.392zm-140.592 22.016h1.024v-3.168c.528.8 1.2 1.904 1.472 2.432l.736-.832c-.272-.416-1.376-1.824-1.936-2.496h1.712v-.992h-1.984v-1.6h-1.024v1.6h-1.616v.992h1.424c-.448 1.136-1.216 2.288-2.016 2.88.208.192.464.576.576.8.608-.512 1.184-1.28 1.632-2.128v2.512zm-4.496 0h1.008V134c.352.496.736 1.04.912 1.36l.656-.768c-.224-.288-1.216-1.376-1.568-1.728v-.176h1.52v-.976h-1.52v-1.616h-1.008v1.616h-1.872v.976h1.552c-.464 1.04-1.216 2.096-1.904 2.704.208.176.464.576.592.832.56-.56 1.168-1.392 1.632-2.256v2.784zm-3.232 4.832h-1.728v-4.656h1.728v4.656zm.896 1.12v-6.896h-2.576a29.1 29.1 0 00.992-3.744h1.808v-1.152h-4.768v1.152h1.84c-.432 2.4-1.168 4.64-2.256 6.128.192.32.448.976.512 1.264.32-.4.608-.88.88-1.36v5.872h.944v-1.264h2.624zm5.664-1.52h3.632v-1.024h-3.632v-1.84h2.64c-.128.4-.288.8-.432 1.104l.944.352c.304-.592.656-1.488.928-2.288l-.784-.272-.192.064h-8.272v1.04h4.016v4.688c-.96-.352-1.664-1.056-2.096-2.416.08-.448.128-.896.176-1.36l-1.04-.176c-.192 2.032-.656 3.888-2.032 4.88l.848.768c.864-.64 1.376-1.552 1.696-2.608.944 1.808 2.4 2.256 4.592 2.256h3.008c.048-.304.208-.816.384-1.072-.56.016-2.944.016-3.344.016-.368 0-.72-.016-1.04-.048v-2.064zm11.632-.72c1.68-.592 2.768-1.904 2.768-3.632 0-1.12-.48-1.84-1.36-1.84-.656 0-1.216.4-1.216 1.152 0 .752.544 1.136 1.2 1.136.096 0 .176 0 .272-.016-.08 1.088-.784 1.84-2.016 2.352l.352.848zm13.024-10.288c-.704 2.448-1.888 4.896-3.184 6.496.192.288.512.928.624 1.2.48-.592.944-1.296 1.376-2.064v8.896h1.136v-11.152c.432-.992.816-2.032 1.136-3.072l-1.088-.304zm4.208 11.12h4.192c-.56.48-1.328.944-2.288 1.312a8.883 8.883 0 01-2.128-1.12l.224-.192zm5.168-.848l-.208.048h-4.032a6.4 6.4 0 00.64-.688h1.92c.832 0 1.104-.24 1.2-1.152-.256-.048-.624-.144-.816-.272-.048.624-.128.704-.496.704h-1.984c-.528 0-.624-.048-.624-.352v-.928h-.992v.928c0 .608.144.88.608.992-.352.4-.816.784-1.344 1.168a3.774 3.774 0 01-.48-.544l-.928.352c.192.24.384.48.608.704-.48.288-1.04.56-1.632.816.24.144.544.464.704.704.592-.288 1.152-.576 1.648-.896.48.384 1.024.72 1.616 1.024-1.184.336-2.592.608-4.176.784.224.24.48.624.608.896 1.872-.256 3.52-.624 4.896-1.12 1.424.528 3.056.896 4.768 1.104a4.83 4.83 0 01.624-.944c-1.44-.128-2.832-.368-4.064-.72 1.184-.592 2.096-1.328 2.672-2.176l-.736-.432zm-6.208-2.64c-.352.56-.976 1.248-1.632 1.616l.704.56c.704-.448 1.28-1.168 1.68-1.776l-.752-.4zm7.872 1.76c-.384-.512-1.168-1.28-1.84-1.808l-.672.4c.672.56 1.456 1.344 1.808 1.888l.704-.48zm-7.392-3.712h5.328v.688h-5.328v-.688zm5.328-2.624v.688h-5.328v-.688h5.328zm0 2h-5.328v-.688h5.328v.688zm1.12 1.312v-4h-3.632c.112-.256.224-.544.336-.832h4.528v-.912h-9.92v.912h4.144c-.064.272-.128.56-.208.832h-2.784v4h-1.568v2.144h1.04v-1.376h3.808l-.528.352c.544.304 1.2.816 1.552 1.152l.672-.48c-.32-.32-.912-.736-1.424-1.024h4.4v1.376h1.072v-2.144h-1.488zm7.2-6.4c-1.024 2.448-2.736 4.832-4.48 6.336.208.288.544.896.672 1.184a19.117 19.117 0 002.16-2.432v9.472h1.152v-11.168a23.72 23.72 0 001.6-3.024l-1.104-.368zm4.96 12.928c-.832 0-1.008-.192-1.008-1.04v-6.192h5.68v-1.152h-5.68v-4.352h-1.152V142c0 1.696.496 2.16 2.08 2.16h3.04c1.68 0 2-1.024 2.192-3.984a3.23 3.23 0 01-1.104-.544c-.128 2.736-.256 3.44-1.152 3.44h-2.896zm12.88-8.64h2.224v8.368h-2.224v-8.368zm3.392 8.368v-8.368h4.448v-1.152h-3.68c.56-.768 1.216-1.84 1.744-2.8l-1.264-.384a18.877 18.877 0 01-1.632 2.944l.656.24h-5.424l1.008-.448c-.256-.768-.928-1.872-1.6-2.72l-1.04.416c.624.816 1.28 1.984 1.536 2.752h-3.664v1.152h4.352v8.368h-4.768v1.2h14.192v-1.2h-4.864zm-8.144-6.544c.752 1.584 1.376 3.664 1.52 5.04l1.136-.288c-.192-1.376-.816-3.456-1.6-5.04l-1.056.288zm9.984 5.072c.624-1.36 1.392-3.456 1.936-5.2l-1.248-.304c-.384 1.584-1.136 3.824-1.76 5.184l1.072.32zm18.944-.656h-3.536v-4.128h3.168v-1.104h-3.168v-3.408c1.216-.192 2.384-.432 3.312-.72l-.768-.96c-1.76.592-4.896.976-7.6 1.184.128.288.272.704.32 1.008a56.725 56.725 0 003.552-.352v8.48h-2v-6.8h-1.136v6.8h-1.088v1.104h8.944v-1.104zm-10.208-5.2l-.192.032h-1.648c.8-1.376 1.792-3.184 2.544-4.656h-4.736v1.088h3.04a62.831 62.831 0 01-2.576 4.56h3.072c-.192 1.552-.528 2.896-1.008 3.984-.608-.672-1.104-1.536-1.488-2.608l-.912.432c.512 1.328 1.152 2.368 1.904 3.2-.608 1.008-1.36 1.76-2.256 2.256.24.24.544.704.688 1.008.96-.592 1.776-1.408 2.416-2.48 2.144 1.696 4.976 2.048 8.08 2.048h3.248c.064-.336.272-.88.464-1.184-.832.032-3.04.032-3.664.032-2.864-.016-5.6-.288-7.616-1.872.672-1.472 1.104-3.328 1.312-5.68l-.672-.16zm15.744-5.328c-.912 2.432-2.384 4.816-3.952 6.352.224.272.544.88.672 1.168a16.837 16.837 0 001.6-1.952v8.96h1.152v-10.768c.624-1.088 1.2-2.24 1.648-3.424l-1.12-.336zm6.208 8.976v-2.384h2.736v2.384h-2.736zm-3.84 0v-2.384h2.64v2.384h-2.64zm2.64-5.792v2.32h-2.64v-2.32h2.64zm3.936 0v2.32h-2.736v-2.32h2.736zm-2.736-1.104v-2.128h-1.2v2.128h-3.744v8.864h1.104v-.864h2.64v4.48h1.2v-4.48h2.736v.784h1.136v-8.784h-3.872zm7.76.8h10.896v2.336h1.2v-3.472h-5.696c-.192-.528-.592-1.312-.944-1.904l-1.152.336c.256.464.544 1.072.736 1.568h-6.208v3.472h1.168v-2.336zm6.064 6.832h4.736v-1.12h-4.736v-2.608h4.08v-1.136h-9.264v1.136h3.968v6.608c-1.296-.496-2.32-1.424-2.928-3.12.144-.64.272-1.328.368-2.064l-1.184-.128c-.352 2.88-1.216 5.152-2.992 6.512.288.176.768.592.96.816 1.056-.912 1.84-2.128 2.384-3.616 1.456 2.72 3.84 3.296 7.168 3.296h3.696c.064-.352.256-.896.448-1.2-.768.032-3.504.032-4.08.032-.944 0-1.824-.048-2.624-.208v-3.2zm22.48-4.256h-6.496v-1.024h4.976v-.896h-4.976v-.976h5.824v-.928h-3.296c.288-.4.64-.912.96-1.392l-1.264-.336c-.208.496-.608 1.232-.912 1.728h-3.824l.112-.048c-.192-.48-.656-1.152-1.12-1.632l-1.024.352c.32.4.656.896.88 1.328h-3.28v.928h5.744v.976h-4.896v.896h4.896v1.024h-6.432v.944h14.128v-.944zm-.864 2.576c-.56-.48-1.68-1.072-2.592-1.408l-.64.704c.912.384 2.016 1.008 2.544 1.488l.688-.784zm-1.344 2.08a7.224 7.224 0 01-1.712 1.52 8.654 8.654 0 01-.8-1.728h4.768v-.928h-5.024c-.16-.72-.272-1.504-.304-2.336h-1.152c.048.816.144 1.6.304 2.336h-3.488v-1.232c.96-.112 1.856-.272 2.592-.448l-.72-.752c-1.424.368-4.032.656-6.208.784.112.208.24.544.272.784a66.87 66.87 0 002.928-.224v1.088h-3.392v.928h3.392v1.168c-1.312.096-2.512.176-3.456.24l.112.96 3.344-.304v1.376c0 .224-.08.272-.32.272-.24.016-1.072.016-1.936-.016.128.272.304.672.368.944 1.2 0 1.952 0 2.416-.16.448-.128.608-.4.608-1.008v-1.504c.944-.096 1.904-.176 2.864-.272v-.848l-2.864.224v-1.072h3.728c.256.864.592 1.632.992 2.288-1.104.576-2.368 1.04-3.616 1.36.192.224.496.72.624.944 1.216-.384 2.448-.88 3.568-1.488.832.976 1.84 1.536 2.976 1.536 1.008-.016 1.424-.448 1.6-2.144a2.733 2.733 0 01-.912-.464c-.08 1.136-.208 1.504-.64 1.52-.72.016-1.424-.368-2.048-1.04.848-.56 1.584-1.216 2.144-1.952l-1.008-.352zM408.96 167.68c2.4 0 4.224-1.28 4.224-5.056v-6.88h-1.424v6.928c0 2.832-1.232 3.712-2.8 3.712-1.52 0-2.72-.88-2.72-3.712v-6.928h-1.488v6.88c0 3.776 1.824 5.056 4.208 5.056zm7.371-.208h1.488v-11.728h-1.488v11.728zm10.426.848c.912-.752 1.488-1.968 1.872-3.072l-.96-.352c-.336 1.024-.944 2.176-1.824 2.848l.912.576zm4.704-.72c-.672 0-.784-.064-.784-.416v-2.224h-1.088v2.24c0 1.088.352 1.376 1.776 1.376h2.56c1.088 0 1.44-.384 1.552-1.968-.288-.064-.736-.208-.976-.384-.048 1.216-.16 1.376-.688 1.376h-2.352zm2.848-2.208c-.576-.496-1.712-1.152-2.656-1.584l-.672.656c.928.464 2.048 1.168 2.592 1.664l.736-.736zm.672-.224c.896.944 1.856 2.24 2.24 3.104l.96-.496c-.416-.88-1.408-2.128-2.304-3.04l-.896.432zm-1.104-5.632h-2.464v-.864h2.464v.864zm0 1.568h-2.464v-.88h2.464v.88zm0 1.632h-2.464v-.928h2.464v.928zm-3.488 1.28h1.024v-.48h6.496v-.8h-3.024v-.928h2.384v-.704h-2.384v-.88h2.336v-.688h-2.336v-.864h2.752v-.784h-2.944l.384-.192a7.07 7.07 0 00-1.024-1.328l-.832.368c.304.336.624.784.832 1.152h-2.384c.208-.384.416-.784.592-1.184l-1.008-.272c-.576 1.36-1.536 2.752-2.56 3.68.24.16.656.496.832.656.288-.272.576-.608.864-.96v4.208zm2.032-8.672a9.483 9.483 0 00-.96-1.552l-1.024.352c.272.352.528.8.752 1.2h-6.4v4.768c0 2.32-.096 5.584-1.248 7.888.24.128.72.496.896.704 1.2-2.336 1.44-5.744 1.456-8.192.208.176.464.448.592.592.384-.368.8-.784 1.184-1.248v4.16h1.024v-5.536c.384-.56.72-1.136 1.024-1.728l-1.008-.288c-.656 1.376-1.712 2.752-2.816 3.728v-3.856h12.288v-.992h-5.76zm15.248 7.344v-2.656h4.304v2.656h-4.304zm-5.072 0c.048-.592.064-1.184.064-1.712v-.944h3.824v2.656h-3.888zm3.888-6.336v2.56h-3.824v-2.56h3.824zm5.488 2.56h-4.304v-2.56h4.304v2.56zm1.168-3.696h-11.648v5.76c0 2.224-.16 5.04-1.92 7.024.256.144.736.544.912.784 1.216-1.36 1.76-3.184 2-4.96h4v4.72h1.184v-4.72h4.304v3.248c0 .304-.112.4-.432.416-.288 0-1.376.016-2.496-.032.16.32.352.832.4 1.152 1.504.016 2.432 0 2.976-.192.512-.208.72-.56.72-1.328v-11.872zm7.744 5.84h-3.36v-3.344h3.36v3.344zm-3.36 4.896v-3.84h3.36v3.84h-3.36zm1.344-11.904c-.112.752-.4 1.824-.64 2.592h-1.792v11.648h1.088v-1.264h4.448V156.64h-2.656c.272-.688.56-1.568.832-2.352l-1.28-.24zm10.928 2.544h-4.784c.272-.752.496-1.52.688-2.304l-1.136-.272c-.512 2.192-1.376 4.4-2.448 5.808.256.16.768.48.976.672.56-.752 1.056-1.728 1.504-2.8h4.064c-.208 6.368-.448 8.8-.976 9.36-.16.208-.336.24-.656.24-.368 0-1.328 0-2.368-.096.224.336.368.816.4 1.168.896.048 1.808.08 2.368.016.544-.048.912-.192 1.264-.64.64-.784.848-3.248 1.104-10.544v-.608zm-2.528 7.2c-.512-.944-1.616-2.48-2.512-3.616l-.928.544c.88 1.152 1.952 2.736 2.432 3.696l1.008-.624zm10.752 1.824c-.368-.512-2.048-2.544-2.672-3.216.032-.304.064-.608.096-.896h2.592v-1.088h-2.544c.016-.352.016-.704.016-1.024v-1.584h2.224v-1.072h-2.224v-2.48h-1.12v2.48h-2.304v1.072h2.304v1.584c0 .32 0 .672-.016 1.024h-2.624v1.088h2.576c-.16 2.144-.72 4.56-2.672 6.144.288.208.672.592.832.832 1.504-1.344 2.288-3.072 2.656-4.848.704.928 1.68 2.224 2.064 2.864l.816-.88zm1.712-4.72h4.56v1.584h-4.56v-1.584zm0-2.56h4.56v1.584h-4.56v-1.584zm0-2.544h4.56v1.552h-4.56v-1.552zm4.192 11.568c-.336 0-.384-.048-.384-.384v-3.424h1.904v-8.848h-6.816v8.848h1.52c-.256 1.968-.944 3.44-3.36 4.24.24.192.544.624.672.896 2.688-.976 3.52-2.72 3.824-5.136h1.152v3.424c0 1.12.256 1.44 1.344 1.44h1.328c.848 0 1.168-.4 1.28-1.904-.32-.08-.784-.256-.992-.432-.032 1.12-.112 1.28-.4 1.28h-1.072zm14.688-11.184l-.688.56c.56.464 1.232 1.104 1.584 1.52l.8-.704c-.352-.384-1.008-.96-1.536-1.376h3.456v-.944h-4.816c.144-.336.272-.656.384-.992l-1.104-.256c-.416 1.344-1.216 2.608-2.16 3.456.272.16.72.512.912.688a8.549 8.549 0 001.472-1.952h1.696zm-8.928 7.872v-1.008h1.664v1.008h-1.664zm0-2.768h1.664v.992h-1.664v-.992zm4.256 0v.992h-1.568v-.992h1.568zm0 2.768h-1.568v-1.008h1.568v1.008zm-1.568.8h2.592v-4.352h-2.592v-.784h3.04v-.912h-3.04v-.848c.112.112.208.224.272.32l.768-.688c-.32-.384-.96-.976-1.52-1.408h3.008v-.96h-4.096c.16-.32.304-.624.432-.944l-1.056-.288c-.528 1.328-1.424 2.608-2.4 3.488.256.192.656.592.832.784.576-.544 1.152-1.28 1.648-2.08h1.328l-.592.464c.432.368.928.832 1.296 1.232h-.944v.928h-3.216v.912h3.216v.784h-2.64v4.352h2.64v.816h-3.536v.928h3.536v2.096h1.024v-2.096h3.168v-.928h-3.168v-.816zm5.648 2.352c-.704 0-.832-.112-.832-.72v-6.896h2.848v3.68c0 .192-.064.24-.288.256-.224.016-.944.016-1.808 0 .16.304.336.768.4 1.104 1.088 0 1.808-.016 2.272-.208.432-.192.56-.528.56-1.12v-4.752h-5.104v7.936c0 1.44.432 1.808 1.84 1.808h2.64c1.28 0 1.632-.608 1.776-2.736a3.48 3.48 0 01-1.056-.464c-.08 1.76-.176 2.112-.8 2.112h-2.448zm117.755-58.592c-.208-.656-.72-1.68-1.184-2.448l-1.04.336c.432.8.928 1.872 1.104 2.528l1.12-.416zm-6.672-2.496c-.848 2.416-2.24 4.784-3.712 6.336.192.288.544.896.672 1.168.448-.512.912-1.088 1.344-1.696v8.8h1.136v-10.624c.64-1.168 1.216-2.4 1.68-3.664l-1.12-.32zm10.016 5.616a22.354 22.354 0 01-2.928 2.56 23.414 23.414 0 01-1.36-4.032l.048-.08h4.976v-1.12H609.6v1.12h3.936c-1.232 1.904-3.056 3.616-4.896 4.736.256.224.656.72.832.976.64-.448 1.28-.96 1.904-1.52v4.112c0 .736-.48 1.168-.768 1.376.208.192.512.64.608.896.336-.272.848-.496 4.352-1.792a8.485 8.485 0 01-.176-1.024l-2.848 1.008v-5.712c.528-.576 1.056-1.168 1.504-1.824 1.04 3.856 2.784 7.152 5.36 8.832.208-.288.592-.736.88-.96-1.472-.864-2.688-2.336-3.648-4.112 1.056-.704 2.352-1.728 3.344-2.624l-.864-.816zm6.592-5.552c-.704 2.448-1.888 4.896-3.184 6.496.192.288.512.928.624 1.2.48-.592.944-1.296 1.376-2.064v8.896h1.136v-11.152c.432-.992.816-2.032 1.136-3.072l-1.088-.304zm4.208 11.12h4.192c-.56.48-1.328.944-2.288 1.312a8.883 8.883 0 01-2.128-1.12l.224-.192zm5.168-.848l-.208.048h-4.032a6.4 6.4 0 00.64-.688h1.92c.832 0 1.104-.24 1.2-1.152-.256-.048-.624-.144-.816-.272-.048.624-.128.704-.496.704h-1.984c-.528 0-.624-.048-.624-.352v-.928h-.992v.928c0 .608.144.88.608.992-.352.4-.816.784-1.344 1.168-.176-.176-.352-.352-.48-.544l-.928.352c.192.24.384.48.608.704-.48.288-1.04.56-1.632.816.24.144.544.464.704.704.592-.288 1.152-.576 1.648-.896.48.384 1.024.72 1.616 1.024-1.184.336-2.592.608-4.176.784.224.24.48.624.608.896 1.872-.256 3.52-.624 4.896-1.12 1.424.528 3.056.896 4.768 1.104a4.83 4.83 0 01.624-.944c-1.44-.128-2.832-.368-4.064-.72 1.184-.592 2.096-1.328 2.672-2.176l-.736-.432zm-6.208-2.64c-.352.56-.976 1.248-1.632 1.616l.704.56c.704-.448 1.28-1.168 1.68-1.776l-.752-.4zm7.872 1.76c-.384-.512-1.168-1.28-1.84-1.808l-.672.4c.672.56 1.456 1.344 1.808 1.888l.704-.48zm-7.392-3.712h5.328v.688h-5.328v-.688zm5.328-2.624v.688h-5.328v-.688h5.328zm0 2h-5.328v-.688h5.328v.688zm1.12 1.312v-4h-3.632c.112-.256.224-.544.336-.832h4.528v-.912h-9.92v.912h4.144c-.064.272-.128.56-.208.832h-2.784v4h-1.568v2.144h1.04v-1.376h3.808l-.528.352c.544.304 1.2.816 1.552 1.152l.672-.48c-.32-.32-.912-.736-1.424-1.024h4.4v1.376h1.072v-2.144h-1.488zm14.736 6.768c-.608 0-.72-.08-.72-.56v-4.688h4.368v-1.152h-6.4v-3.2h5.248v-1.136h-5.248v-2.48h-1.184v2.48h-2.832c.224-.64.432-1.264.592-1.872l-1.2-.24c-.384 1.664-1.184 3.776-2.288 5.12.304.128.768.368 1.04.56.528-.672 1.008-1.52 1.392-2.432h3.296v3.2h-6.368v1.152h4.144c-.272 2.624-.992 4.672-4.368 5.712.272.224.624.704.752 1.008 3.632-1.264 4.528-3.6 4.848-6.72h3.024v4.688c0 1.296.352 1.696 1.76 1.696h2.272c1.264 0 1.616-.624 1.744-3.04-.336-.08-.832-.288-1.104-.496-.064 2.064-.16 2.4-.736 2.4h-2.032zm12.88-4.032c-.16-.832-.656-2.192-1.184-3.248l-.848.304c.192.448.4.96.592 1.456l-2.752.4c1.296-1.472 2.544-3.312 3.6-5.152l-1.024-.608c-.368.72-.784 1.456-1.216 2.144l-1.68.16c.88-1.216 1.76-2.736 2.464-4.24l-1.12-.464c-.656 1.728-1.76 3.552-2.096 4.016-.336.48-.624.816-.896.88.128.288.32.864.384 1.088.224-.096.56-.176 2.256-.384-.576.864-1.088 1.52-1.344 1.808-.48.576-.848.976-1.184 1.04.128.32.304.88.368 1.12.32-.176.816-.304 4.512-.88.112.352.192.656.24.928l.928-.368zm-5.392 1.024c-.16 1.28-.4 2.704-.768 3.68.24.08.72.24.912.352.336-.992.656-2.496.816-3.856l-.96-.176zm1.712.112c.176 1.024.336 2.352.384 3.216l.912-.208c-.048-.88-.24-2.176-.432-3.184l-.864.176zm1.728-.304c.304.832.656 1.92.768 2.624l.896-.304c-.144-.688-.496-1.744-.816-2.576l-.848.256zm8.432-3.648c-.368 1.456-.928 2.768-1.632 3.888-.688-1.136-1.2-2.464-1.568-3.888h3.2zm-1.248-4.496c-.16 1.024-.384 2.352-.592 3.424h-2.192c.064-1.072.096-2.224.128-3.424h2.656zm1.856 3.376l-.208.048h-1.12c.288-1.424.56-3.168.736-4.48l-.816-.128-.192.064h-5.648v1.12h1.568c-.048 5.184-.384 9.28-2.48 11.888.288.144.848.544 1.04.736 1.44-2.016 2.064-4.592 2.368-7.776.432 1.68 1.024 3.232 1.808 4.528-.848 1.072-1.84 1.904-2.896 2.464.272.192.592.608.752.896 1.04-.576 2-1.376 2.832-2.368.752.96 1.648 1.744 2.72 2.288.176-.32.544-.768.816-.992-1.12-.496-2.048-1.264-2.816-2.24 1.04-1.536 1.84-3.456 2.272-5.792l-.736-.256zm16-2.928v1.168h-2.4v-1.168h2.4zm0 3.328h-2.4v-1.184h2.4v1.184zm-3.52-2.16h-4.112v.976h4.112v1.184h-3.184v.96h3.184v1.2h-3.296v.912h3.296v1.296h-3.968v.976h3.968v1.584h1.12v-1.584h4.368v-.976h-4.368v-1.296h3.776v-.912h-3.776v-1.2h3.472v-2.144h1.104v-.976h-1.104v-2.112h-3.472v-1.312h-1.12v1.312h-3.072v.944h3.072v1.168zm-4.704 1.904l-.208.032h-1.136a127.113 127.113 0 002.224-4.432h-4.496v1.056h2.8c-.72 1.536-1.6 3.264-2.288 4.432h2.592c-.208 1.44-.528 2.688-.96 3.76-.416-.64-.768-1.424-1.04-2.368l-.88.352c.384 1.264.848 2.272 1.44 3.072-.576 1.008-1.28 1.824-2.096 2.4.272.16.688.576.88.816.752-.592 1.408-1.36 1.984-2.336 1.648 1.616 3.968 2.032 6.928 2.032h4.464c.064-.32.272-.832.448-1.104-.816.016-4.256.016-4.88.016-2.72 0-4.928-.352-6.48-1.92.656-1.488 1.12-3.344 1.376-5.616l-.672-.192zm21.36-2.928c-.16-.688-.512-1.728-.832-2.544l-1.152.304c.304.816.64 1.904.768 2.592l1.216-.352zm5.6.544H692.4v1.168h12.848v-1.168zm-7.872 8.736c-.288-1.84-.96-4.56-1.584-6.704l-1.184.288c.608 2.096 1.28 4.896 1.504 6.72l1.264-.304zm3.36.992c.816-2.016 1.776-5.056 2.432-7.44l-1.344-.256c-.512 2.336-1.504 5.648-2.368 7.696h-7.744v1.184h14.176v-1.184h-5.152zm20.944-11.488h-11.264v1.136h11.264v-1.136zm-2.4 11.936c-.624 0-.752-.112-.752-.656v-5.68h4.496v-1.152h-14v1.152h4.048c-.24 2.992-.832 5.488-4.24 6.784.272.208.608.64.752.928 3.68-1.488 4.448-4.288 4.752-7.712h2.992v5.696c0 1.36.384 1.776 1.808 1.776h2.288c1.392 0 1.712-.752 1.84-3.472-.32-.096-.832-.304-1.104-.528-.08 2.448-.176 2.864-.816 2.864h-2.064zm10.24-13.136c-.848 2.416-2.256 4.8-3.744 6.352.208.272.56.88.672 1.168a18.137 18.137 0 001.472-1.872v8.88h1.136v-10.72a28.023 28.023 0 001.584-3.456l-1.12-.352zm10.848 7.872h-4.336v-3.504h3.648v-1.168h-3.648v-3.056h-1.184v3.056h-2.128c.208-.72.384-1.472.528-2.224l-1.12-.24c-.368 2.064-1.024 4.144-1.968 5.456.304.144.8.432 1.024.608.432-.672.816-1.504 1.152-2.432h2.512v3.504h-4.56v1.168h4.56v5.52h1.184v-5.52h4.336v-1.168zm17.152-5.488v-1.04h-5.6a8.229 8.229 0 00-.88-1.408l-1.104.32c.24.336.464.704.656 1.088h-6.256v4.976c0 2.272-.112 5.392-1.36 7.584.24.112.736.464.944.688 1.344-2.336 1.552-5.824 1.552-8.272v-3.936h12.048zm-9.52 7.344v-1.232h2.96v1.232H748zm0-3.216h2.96v1.2H748v-1.2zm7.2 0v1.2h-3.104v-1.2h3.104zm0 3.216h-3.104v-1.232h3.104v1.232zm2.432 1.92h-5.536v-1.12h4.208v-4.816h-4.208v-1.04h5.04v-.944h-5.04v-1.008h-1.136v1.008h-4.608v.944h4.608v1.04h-4.016v4.816h4.016v1.12h-5.28v.992h5.28v1.84h1.136v-1.84h5.536v-.992zm-144.016 20.832c0 .144-.032.208-.208.208-.16.016-.64.016-1.2-.016.128.24.256.56.304.816.768 0 1.328 0 1.68-.144.352-.16.448-.368.448-.864v-4.208h-.432v-.016h-2.096v-1.712h2.64v-1.008h-2.64v-1.488h-1.04v5.168h2.544v3.264zm-2.032-2.576c-.144.976-.384 1.936-.88 2.64.24.112.656.368.832.512.48-.768.816-1.872.976-2.992l-.928-.16zm-1.328 5.168c-1.008.88-2.928 1.936-4.448 2.56.224.256.544.656.704.896 1.552-.672 3.456-1.744 4.768-2.736l-1.024-.72zm4.08.768c1.664.816 3.44 1.872 4.528 2.64l.784-.896c-1.136-.768-2.96-1.76-4.656-2.56l-.656.816zm4.144-2.128c.144-2.368.224-6.16.24-8.96h-3.392v1.04h2.304c0 .64-.016 1.312-.032 2h-2.128v1.024h2.112c-.032.672-.048 1.328-.08 1.968h-2.112v1.008h2.08c-.032.688-.08 1.36-.112 1.92h-9.072l-.064-1.968h2.064v-1.024h-2.112l-.064-1.952h2.112v-1.024h-2.144l-.064-1.872c.816-.256 1.696-.56 2.432-.864l-.576-.976c-.768.4-1.968.88-2.96 1.232l.304 8.448H605.6v1.104h14.416v-1.104h-1.536zm11.648-8.08h2.656v2.56c0 1.2.224 1.648 1.264 1.648h1.04c.304 0 .624-.016.784-.08-.016-.272-.064-.72-.08-1.024a3.39 3.39 0 01-.704.08h-.944c-.224 0-.256-.144-.256-.592v-3.712h-4.864v1.76c0 1.136-.272 2.448-1.984 3.424.208.176.608.624.768.864 1.904-1.12 2.32-2.816 2.32-4.256v-.672zm-4.64.304c-.256-.576-.768-1.408-1.232-2.064l-.928.464c.448.672.96 1.568 1.2 2.144l.96-.544zm2.16.72H621.6v.976h6.048v-.976zm-5.36 5.12h4.72v-.944h-4.72v.944zm0-3.024v.944h4.704v-.944h-4.704zm11.44 3.328c-.528 1.216-1.312 2.224-2.256 3.056a8.893 8.893 0 01-2.256-3.056h4.512zm-7.792 4.512h-2.624v-2.64h2.624v2.64zm8.56-5.68l-.208.048h-6.816v1.12h1.392l-.688.24A10.936 10.936 0 00630.56 142a11.612 11.612 0 01-3.568 1.616v-4.512h-4.72v5.376h1.04v-.752h3.648c.208.272.432.688.544.992 1.44-.432 2.784-1.072 3.968-1.952 1.136.864 2.464 1.504 3.968 1.904.16-.336.496-.816.736-1.072-1.424-.32-2.688-.864-3.776-1.6 1.264-1.168 2.256-2.672 2.848-4.608l-.752-.336zm7.408-4.976c-.24-.56-.752-1.392-1.232-2.048l-.896.464c.432.656.944 1.552 1.168 2.128l.96-.544zm2.544.72h-6.576v.976h6.576v-.976zm-.72 4.176h-5.152v.944h5.152v-.944zm-1.008 3.12v2.64h-2.976v-2.64h2.976zm1.056-.992h-5.072v5.376h1.04v-.752h4.032v-4.624zm-5.2-3.264h5.2v-.944h-5.2v.944zm13.456-.24h-3.28v-5.216h-1.2v5.216h-3.136v1.168h3.136v7.936h1.2v-7.936h3.28V135.6zm5.392 4.64c-.816 1.12-2.16 2.272-3.408 3.04.304.176.8.56 1.024.768 1.2-.832 2.608-2.128 3.568-3.392l-1.184-.416zm8.352-1.2c.32.416.624.8.848 1.12l1.008-.624c-.672-.944-2.048-2.416-3.264-3.504l-.96.496c.48.464 1.008 1.008 1.52 1.568l-6.816.448a40.61 40.61 0 006.656-3.792l-.928-.784c-.576.432-1.184.864-1.824 1.248l-3.92.208a24.417 24.417 0 003.376-2.208l-1.008-.64c1.728-.464 3.328-.96 4.608-1.536l-.88-.928c-2.272 1.072-6.368 2.064-9.952 2.72.144.272.288.688.352.992a75.615 75.615 0 005.824-1.248c-1.344 1.184-3.12 2.24-3.696 2.512-.528.288-.928.464-1.296.496.144.304.304.896.368 1.12.336-.112.88-.192 4.48-.4-1.552.896-2.912 1.584-3.52 1.84-.96.448-1.664.704-2.192.768.128.32.304.88.352 1.136.448-.176 1.088-.272 5.44-.592v3.776c0 .192-.048.24-.32.256-.256.032-1.12.032-2.08-.016.192.32.4.832.448 1.168 1.168 0 1.984-.016 2.48-.208.528-.176.672-.512.672-1.184v-3.888l4.224-.32zm-2.784 1.664c1.28.976 2.832 2.368 3.6 3.216l.992-.704c-.816-.848-2.4-2.192-3.664-3.12l-.928.608zm12.288-1.504c-.176-.816-.64-2.144-1.136-3.168l-.864.32c.224.464.416.992.608 1.52l-2.608.368c1.328-1.488 2.608-3.36 3.648-5.248l-1.008-.592a28.592 28.592 0 01-1.28 2.272l-1.68.16c.912-1.232 1.84-2.8 2.56-4.336l-1.088-.464c-.672 1.728-1.808 3.568-2.16 4.032-.336.48-.624.816-.88.88.112.288.304.848.368 1.088.208-.112.544-.176 2.24-.368-.576.832-1.072 1.504-1.328 1.776-.48.592-.848.992-1.184 1.072.128.304.32.864.368 1.104.304-.176.784-.288 4.304-.88.08.304.144.592.192.816l.928-.352zm-5.136 1.104c-.16 1.28-.4 2.688-.768 3.68.24.08.72.24.912.352.336-.992.64-2.496.8-3.856l-.944-.176zm1.696.112c.192 1.072.368 2.48.4 3.392l.928-.224c-.048-.912-.24-2.288-.432-3.36l-.896.192zm3.488 2.288c-.16-.784-.528-1.952-.896-2.88l-.832.288c.336.896.704 2.112.848 2.88l.88-.288zm6.208.656c-.352 0-.4-.08-.4-.496v-5.712l1.216-.144c.24.448.432.88.576 1.216l1.056-.512c-.416-1.008-1.424-2.64-2.24-3.84l-.976.432c.352.528.72 1.152 1.072 1.76l-4.704.464c.704-.96 1.392-2.096 2.048-3.296h4.688v-1.12h-4.112c.272-.528.544-1.088.784-1.632l-1.28-.384c-.256.672-.56 1.36-.88 2.016h-2.912v1.12h2.368c-.592 1.104-1.12 1.984-1.376 2.336-.432.656-.784 1.088-1.104 1.168.16.336.336.928.416 1.184.224-.096.512-.176 1.568-.32-.096 3.296-.48 5.168-2.992 6.24.272.208.592.624.736.928 2.8-1.312 3.28-3.536 3.408-7.312l1.504-.176v5.6c0 1.184.272 1.536 1.392 1.536h1.376c.96 0 1.248-.56 1.36-2.704-.336-.096-.784-.256-1.04-.464-.032 1.808-.112 2.112-.448 2.112h-1.104zm135.84-34.752c-.208-.656-.72-1.68-1.184-2.448l-1.04.336c.432.8.928 1.872 1.104 2.528l1.12-.416zm-6.672-2.496c-.848 2.416-2.24 4.784-3.712 6.336.192.288.544.896.672 1.168.448-.512.912-1.088 1.344-1.696v8.8h1.136v-10.624c.64-1.168 1.216-2.4 1.68-3.664l-1.12-.32zm10.016 5.616a22.354 22.354 0 01-2.928 2.56 23.414 23.414 0 01-1.36-4.032l.048-.08h4.976v-1.12H811.2v1.12h3.936c-1.232 1.904-3.056 3.616-4.896 4.736.256.224.656.72.832.976.64-.448 1.28-.96 1.904-1.52v4.112c0 .736-.48 1.168-.768 1.376.208.192.512.64.608.896.336-.272.848-.496 4.352-1.792a8.485 8.485 0 01-.176-1.024l-2.848 1.008v-5.712c.528-.576 1.056-1.168 1.504-1.824 1.04 3.856 2.784 7.152 5.36 8.832.208-.288.592-.736.88-.96-1.472-.864-2.688-2.336-3.648-4.112 1.056-.704 2.352-1.728 3.344-2.624l-.864-.816zm7.936-3.888v2.784h-2.4v-2.784h2.4zm-2.4 6.96v-3.12h2.4v3.12h-2.4zm0 1.072h3.504v-9.104h-4.624v9.92h1.12v-.816zm-.784 4.896c.736-.896 1.536-2.272 2.08-3.456l-1.12-.32c-.544 1.168-1.376 2.464-2.096 3.264l1.136.512zm3.584-3.312c.208 1.04.336 2.384.336 3.184l1.168-.176c-.016-.784-.192-2.096-.4-3.12l-1.104.112zm8.08-9.648c-.112 1.504-.24 2.128-.432 2.336-.096.112-.256.144-.496.144a20 20 0 01-1.6-.08c.176.288.288.688.32.976.72.048 1.424.048 1.792.016.416-.016.688-.112.928-.368.352-.368.496-1.312.64-3.616.016-.16.032-.464.032-.464h-7.856v1.056h2.656c-.32 1.488-1.072 2.496-3.152 3.056.224.208.528.64.64.896 2.448-.736 3.312-2.016 3.68-3.952h2.848zm-.432 7.584h-4.656v-2.432h4.656v2.432zm1.168-3.408h-6.944v4.4h6.944v-4.4zm-5.408 5.424c.416 1.008.816 2.384.976 3.2l1.168-.288c-.16-.816-.608-2.128-1.04-3.136l-1.104.224zm3.248-.096c.752 1.056 1.632 2.528 2 3.408l1.136-.496c-.416-.912-1.312-2.32-2.08-3.36l-1.056.448zm8.8-11.136c-.704 2.448-1.888 4.896-3.184 6.496.192.288.512.928.624 1.2.48-.592.944-1.296 1.376-2.064v8.896h1.136v-11.152c.432-.992.816-2.032 1.136-3.072l-1.088-.304zm4.208 11.12h4.192c-.56.48-1.328.944-2.288 1.312a8.883 8.883 0 01-2.128-1.12l.224-.192zm5.168-.848l-.208.048h-4.032a6.4 6.4 0 00.64-.688h1.92c.832 0 1.104-.24 1.2-1.152-.256-.048-.624-.144-.816-.272-.048.624-.128.704-.496.704h-1.984c-.528 0-.624-.048-.624-.352v-.928h-.992v.928c0 .608.144.88.608.992-.352.4-.816.784-1.344 1.168a3.774 3.774 0 01-.48-.544l-.928.352c.192.24.384.48.608.704-.48.288-1.04.56-1.632.816.24.144.544.464.704.704.592-.288 1.152-.576 1.648-.896.48.384 1.024.72 1.616 1.024-1.184.336-2.592.608-4.176.784.224.24.48.624.608.896 1.872-.256 3.52-.624 4.896-1.12 1.424.528 3.056.896 4.768 1.104a4.83 4.83 0 01.624-.944c-1.44-.128-2.832-.368-4.064-.72 1.184-.592 2.096-1.328 2.672-2.176l-.736-.432zm-6.208-2.64c-.352.56-.976 1.248-1.632 1.616l.704.56c.704-.448 1.28-1.168 1.68-1.776l-.752-.4zm7.872 1.76c-.384-.512-1.168-1.28-1.84-1.808l-.672.4c.672.56 1.456 1.344 1.808 1.888l.704-.48zm-7.392-3.712h5.328v.688h-5.328v-.688zm5.328-2.624v.688h-5.328v-.688h5.328zm0 2h-5.328v-.688h5.328v.688zm1.12 1.312v-4h-3.632c.112-.256.224-.544.336-.832h4.528v-.912h-9.92v.912h4.144c-.064.272-.128.56-.208.832h-2.784v4h-1.568v2.144h1.04v-1.376h3.808l-.528.352c.544.304 1.2.816 1.552 1.152l.672-.48c-.32-.32-.912-.736-1.424-1.024h4.4v1.376h1.072v-2.144h-1.488zm14.736 6.768c-.608 0-.72-.08-.72-.56v-4.688h4.368v-1.152h-6.4v-3.2h5.248v-1.136h-5.248v-2.48h-1.184v2.48h-2.832c.224-.64.432-1.264.592-1.872l-1.2-.24c-.384 1.664-1.184 3.776-2.288 5.12.304.128.768.368 1.04.56.528-.672 1.008-1.52 1.392-2.432h3.296v3.2h-6.368v1.152h4.144c-.272 2.624-.992 4.672-4.368 5.712.272.224.624.704.752 1.008 3.632-1.264 4.528-3.6 4.848-6.72h3.024v4.688c0 1.296.352 1.696 1.76 1.696h2.272c1.264 0 1.616-.624 1.744-3.04-.336-.08-.832-.288-1.104-.496-.064 2.064-.16 2.4-.736 2.4h-2.032zm12.88-4.032c-.16-.832-.656-2.192-1.184-3.248l-.848.304c.192.448.4.96.592 1.456l-2.752.4c1.296-1.472 2.544-3.312 3.6-5.152l-1.024-.608c-.368.72-.784 1.456-1.216 2.144l-1.68.16c.88-1.216 1.76-2.736 2.464-4.24l-1.12-.464c-.656 1.728-1.76 3.552-2.096 4.016-.336.48-.624.816-.896.88.128.288.32.864.384 1.088.224-.096.56-.176 2.256-.384-.576.864-1.088 1.52-1.344 1.808-.48.576-.848.976-1.184 1.04.128.32.304.88.368 1.12.32-.176.816-.304 4.512-.88.112.352.192.656.24.928l.928-.368zm-5.392 1.024c-.16 1.28-.4 2.704-.768 3.68.24.08.72.24.912.352.336-.992.656-2.496.816-3.856l-.96-.176zm1.712.112c.176 1.024.336 2.352.384 3.216l.912-.208c-.048-.88-.24-2.176-.432-3.184l-.864.176zm1.728-.304c.304.832.656 1.92.768 2.624l.896-.304c-.144-.688-.496-1.744-.816-2.576l-.848.256zm8.432-3.648c-.368 1.456-.928 2.768-1.632 3.888-.688-1.136-1.2-2.464-1.568-3.888h3.2zm-1.248-4.496c-.16 1.024-.384 2.352-.592 3.424h-2.192c.064-1.072.096-2.224.128-3.424h2.656zm1.856 3.376l-.208.048h-1.12c.288-1.424.56-3.168.736-4.48l-.816-.128-.192.064h-5.648v1.12h1.568c-.048 5.184-.384 9.28-2.48 11.888.288.144.848.544 1.04.736 1.44-2.016 2.064-4.592 2.368-7.776.432 1.68 1.024 3.232 1.808 4.528-.848 1.072-1.84 1.904-2.896 2.464.272.192.592.608.752.896 1.04-.576 2-1.376 2.832-2.368.752.96 1.648 1.744 2.72 2.288.176-.32.544-.768.816-.992-1.12-.496-2.048-1.264-2.816-2.24 1.04-1.536 1.84-3.456 2.272-5.792l-.736-.256zm13.36-.032h-2.992v-1.552h2.992v1.552zm0 2.592h-2.992v-1.584h2.992v1.584zm0 2.672h-2.992v-1.664h2.992v1.664zm-4.144 1.952h1.152v-.928h7.84v-1.024h-3.712v-1.664h2.88v-1.008h-2.88v-1.584h2.912v-1.008h-2.912v-1.552h3.44v-1.04h-2.8c-.24-.672-.72-1.584-1.168-2.288l-1.088.32c.336.608.72 1.36.96 1.968h-3.184c.4-.736.752-1.52 1.04-2.304l-1.088-.304c-.72 2.016-1.92 3.92-3.312 5.136.224.24.592.784.736 1.024.4-.4.8-.848 1.184-1.344v7.6zm-2.608-9.776c-.192-.688-.56-1.744-.848-2.576l-1.04.32c.256.832.624 1.92.816 2.624l1.072-.368zm.544 4.752l-.208.048h-1.104c.432-1.104.928-2.448 1.328-3.6h-3.28v1.072h1.776c-.432 1.264-.928 2.624-1.376 3.568h2.096c-.256 1.152-.672 2.416-1.152 3.328-.48.32-1.04.976-1.6 1.776l.816 1.072c.464-1.008 1.008-2.016 1.36-2.016.368 0 .96.544 1.6.928 1.184.704 2.576.88 4.688.88 1.888 0 4.928-.096 6.112-.176.032-.352.208-.912.368-1.232-1.792.176-4.384.336-6.432.336-1.904 0-3.344-.112-4.48-.8-.592-.352-.976-.656-1.28-.832.544-1.168 1.008-2.72 1.312-4.128l-.544-.224zm27.904-6.448h-7.808v1.12h7.808v-1.12zm-10.48-.976c-.8 1.136-2.336 2.576-3.664 3.472.208.224.528.688.704.944 1.424-1.008 3.056-2.56 4.096-3.968l-1.136-.448zm.656 3.408c-1.104 1.808-2.832 3.648-4.48 4.816.24.24.656.752.832.992.592-.464 1.2-1.04 1.808-1.664v7.104h1.184v-8.416c.656-.784 1.264-1.6 1.76-2.416l-1.104-.416zm10.288 1.936h-8.96v1.136h5.344v6.592c0 .272-.096.336-.4.352-.304.016-1.36.016-2.496-.016.176.336.336.832.384 1.152 1.568 0 2.464 0 3.008-.176.528-.192.704-.56.704-1.296v-6.608h2.416v-1.136zm11.296-3.648h2.656v2.56c0 1.2.224 1.648 1.264 1.648h1.04c.304 0 .624-.016.784-.08-.016-.272-.064-.72-.08-1.024a3.39 3.39 0 01-.704.08h-.944c-.224 0-.256-.144-.256-.592v-3.712h-4.864v1.76c0 1.136-.272 2.448-1.984 3.424.208.176.608.624.768.864 1.904-1.12 2.32-2.816 2.32-4.256v-.672zm-4.64.304c-.256-.576-.768-1.408-1.232-2.064l-.928.464c.448.672.96 1.568 1.2 2.144l.96-.544zm2.16.72H927.6v.976h6.048v-.976zm-5.36 5.12h4.72v-.944h-4.72v.944zm0-3.024v.944h4.704v-.944h-4.704zm11.44 3.328c-.528 1.216-1.312 2.224-2.256 3.056a8.893 8.893 0 01-2.256-3.056h4.512zm-7.792 4.512h-2.624v-2.64h2.624v2.64zm8.56-5.68l-.208.048h-6.816v1.12h1.392l-.688.24A10.936 10.936 0 00936.56 118a11.612 11.612 0 01-3.568 1.616v-4.512h-4.72v5.376h1.04v-.752h3.648c.208.272.432.688.544.992 1.44-.432 2.784-1.072 3.968-1.952 1.136.864 2.464 1.504 3.968 1.904.16-.336.496-.816.736-1.072-1.424-.32-2.688-.864-3.776-1.6 1.264-1.168 2.256-2.672 2.848-4.608l-.752-.336zm8.608-4.976c-.24-.56-.752-1.392-1.232-2.048l-.896.464c.432.656.944 1.552 1.168 2.128l.96-.544zm2.544.72h-6.576v.976h6.576v-.976zm-.72 4.176h-5.152v.944h5.152v-.944zm-1.008 3.12v2.64h-2.976v-2.64h2.976zm1.056-.992h-5.072v5.376h1.04v-.752h4.032v-4.624zm-5.2-3.264h5.2v-.944h-5.2v.944zm13.456-.24h-3.28v-5.216h-1.2v5.216h-3.136v1.168h3.136v7.936h1.2v-7.936h3.28V111.6zm-148.208 28.64c-.816 1.12-2.16 2.272-3.408 3.04.304.176.8.56 1.024.768 1.2-.832 2.608-2.128 3.568-3.392l-1.184-.416zm8.352-1.2c.32.416.624.8.848 1.12l1.008-.624c-.672-.944-2.048-2.416-3.264-3.504l-.96.496c.48.464 1.008 1.008 1.52 1.568l-6.816.448a40.61 40.61 0 006.656-3.792l-.928-.784c-.576.432-1.184.864-1.824 1.248l-3.92.208a24.417 24.417 0 003.376-2.208l-1.008-.64c1.728-.464 3.328-.96 4.608-1.536l-.88-.928c-2.272 1.072-6.368 2.064-9.952 2.72.144.272.288.688.352.992a75.615 75.615 0 005.824-1.248c-1.344 1.184-3.12 2.24-3.696 2.512-.528.288-.928.464-1.296.496.144.304.304.896.368 1.12.336-.112.88-.192 4.48-.4-1.552.896-2.912 1.584-3.52 1.84-.96.448-1.664.704-2.192.768.128.32.304.88.352 1.136.448-.176 1.088-.272 5.44-.592v3.776c0 .192-.048.24-.32.256-.256.032-1.12.032-2.08-.016.192.32.4.832.448 1.168 1.168 0 1.984-.016 2.48-.208.528-.176.672-.512.672-1.184v-3.888l4.224-.32zm-2.784 1.664c1.28.976 2.832 2.368 3.6 3.216l.992-.704c-.816-.848-2.4-2.192-3.664-3.12l-.928.608zm12.288-1.504c-.176-.816-.64-2.144-1.136-3.168l-.864.32c.224.464.416.992.608 1.52l-2.608.368c1.328-1.488 2.608-3.36 3.648-5.248l-1.008-.592a28.592 28.592 0 01-1.28 2.272l-1.68.16c.912-1.232 1.84-2.8 2.56-4.336l-1.088-.464c-.672 1.728-1.808 3.568-2.16 4.032-.336.48-.624.816-.88.88.112.288.304.848.368 1.088.208-.112.544-.176 2.24-.368-.576.832-1.072 1.504-1.328 1.776-.48.592-.848.992-1.184 1.072.128.304.32.864.368 1.104.304-.176.784-.288 4.304-.88.08.304.144.592.192.816l.928-.352zm-5.136 1.104c-.16 1.28-.4 2.688-.768 3.68.24.08.72.24.912.352.336-.992.64-2.496.8-3.856l-.944-.176zm1.696.112c.192 1.072.368 2.48.4 3.392l.928-.224c-.048-.912-.24-2.288-.432-3.36l-.896.192zm3.488 2.288c-.16-.784-.528-1.952-.896-2.88l-.832.288c.336.896.704 2.112.848 2.88l.88-.288zm6.208.656c-.352 0-.4-.08-.4-.496v-5.712l1.216-.144c.24.448.432.88.576 1.216l1.056-.512c-.416-1.008-1.424-2.64-2.24-3.84l-.976.432c.352.528.72 1.152 1.072 1.76l-4.704.464c.704-.96 1.392-2.096 2.048-3.296h4.688v-1.12h-4.112c.272-.528.544-1.088.784-1.632l-1.28-.384c-.256.672-.56 1.36-.88 2.016h-2.912v1.12h2.368c-.592 1.104-1.12 1.984-1.376 2.336-.432.656-.784 1.088-1.104 1.168.16.336.336.928.416 1.184.224-.096.512-.176 1.568-.32-.096 3.296-.48 5.168-2.992 6.24.272.208.592.624.736.928 2.8-1.312 3.28-3.536 3.408-7.312l1.504-.176v5.6c0 1.184.272 1.536 1.392 1.536h1.376c.96 0 1.248-.56 1.36-2.704-.336-.096-.784-.256-1.04-.464-.032 1.808-.112 2.112-.448 2.112h-1.104zm9.408-11.68v1.296h-3.504v-1.296h3.504zm-3.504 3.52v-1.376h3.504v1.376h-3.504zm4.624.912v-5.344h-5.792v13.936h1.168v-8.592h4.624zm-.448 3.712v-1.728h2.24v1.728h-2.24zm5.472 1.008v-1.008h-2.176v-1.728h1.824v-.976h-7.888v.976h1.728v1.728h-2.032v1.008h2c-.096.928-.544 2.256-1.888 3.072.256.16.608.496.784.704 1.536-1.04 2.048-2.704 2.144-3.776h2.272v3.568h1.056v-3.568h2.176zm-2.48-5.616v-1.392h3.632v1.392h-3.632zm3.632-3.536v1.296h-3.632v-1.296h3.632zm1.168-.912h-5.936v5.36h4.768v7.008c0 .256-.08.352-.336.352-.24.016-1.104.016-1.984-.016.176.32.352.88.384 1.184 1.2.016 2-.016 2.48-.208.464-.208.624-.592.624-1.296v-12.384zm4.432 9.344c.08-.512.16-1.088.24-1.648h3.376v-3.552h-2.48c1.424-.96 2.656-2.224 3.36-3.824l-.736-.384-.208.048h-4.336v.976h3.712a8.02 8.02 0 01-1.536 1.696c-.464-.48-1.248-1.04-1.904-1.424l-.688.656c.608.368 1.328.928 1.808 1.376a11.862 11.862 0 01-3.152 1.504c.224.208.512.624.64.88.608-.192 1.2-.448 1.776-.752v.192h2.672v1.68h-3.168a53.954 53.954 0 01-.56 3.504h3.664c-.144 1.52-.32 2.176-.56 2.384-.128.128-.288.144-.576.144a25 25 0 01-2.048-.096c.176.288.336.704.352 1.024.864.048 1.712.064 2.112.032.464-.032.784-.128 1.056-.4.384-.368.592-1.312.784-3.536.032-.144.048-.48.048-.48h-3.648zm10.032-.704l-.192.048h-5.456v.864h4.896a6.317 6.317 0 01-1.552 1.712c-.944-.544-1.92-1.104-2.768-1.568l-.576.656c.784.432 1.664.96 2.528 1.472-.976.576-2.112.992-3.28 1.248.208.208.432.608.544.88 1.328-.336 2.576-.832 3.664-1.552.928.576 1.776 1.136 2.352 1.568l.592-.768c-.544-.4-1.312-.88-2.16-1.392a7.172 7.172 0 002.064-2.896l-.656-.272zm.96-7.616c-.528.56-1.44 1.328-2.16 1.856a7.864 7.864 0 01-1.168-.976c.72-.512 1.616-1.2 2.304-1.856l-.88-.624c-.496.544-1.328 1.296-2.016 1.856a8.676 8.676 0 01-1.248-1.936l-.944.288a10.707 10.707 0 003.808 4.448h-3.552v1.248c0 .768-.224 1.632-1.488 2.32.224.144.608.528.768.736 1.408-.816 1.744-2 1.744-3.024v-.32h2.176v1.552c0 .944.192 1.328 1.168 1.328h1.312c.32 0 .64 0 .816-.064a7.28 7.28 0 01-.064-.832c-.208.032-.56.048-.768.048h-1.184c-.24 0-.272-.096-.272-.464v-2.112c.704.384 1.472.72 2.288.96.176-.272.464-.704.72-.912a11.517 11.517 0 01-2.736-1.152c.736-.48 1.6-1.136 2.256-1.76l-.88-.608zm8.816 2.64h2.224v8.368h-2.224v-8.368zm3.392 8.368v-8.368h4.448v-1.152h-3.68c.56-.768 1.216-1.84 1.744-2.8l-1.264-.384a18.877 18.877 0 01-1.632 2.944l.656.24h-5.424l1.008-.448c-.256-.768-.928-1.872-1.6-2.72l-1.04.416c.624.816 1.28 1.984 1.536 2.752h-3.664v1.152h4.352v8.368h-4.768v1.2h14.192v-1.2h-4.864zm-8.144-6.544c.752 1.584 1.376 3.664 1.52 5.04l1.136-.288c-.192-1.376-.816-3.456-1.6-5.04l-1.056.288zm9.984 5.072c.624-1.36 1.392-3.456 1.936-5.2l-1.248-.304c-.384 1.584-1.136 3.824-1.76 5.184l1.072.32zm12.016 1.424v-6.336h5.952v-1.184h-5.952v-4.896h-1.248v12.416h-5.968v1.184h14.256v-1.184h-7.04zm14.112-3.248c-.128-.848-.544-2.288-.928-3.392l-.912.24c.176.496.336 1.04.48 1.584l-2.304.304c1.28-1.472 2.544-3.328 3.568-5.168l-1.056-.608c-.352.72-.752 1.456-1.184 2.128l-1.664.16c.864-1.184 1.728-2.736 2.416-4.224l-1.104-.464c-.624 1.712-1.696 3.536-2.048 4-.304.496-.576.816-.848.88.128.304.32.848.384 1.088.224-.112.56-.176 2.192-.384-.56.848-1.072 1.504-1.312 1.776-.48.592-.832.976-1.168 1.056.128.32.32.88.384 1.136.288-.16.784-.272 3.968-.736.064.32.128.64.16.912l.976-.288zm-4.816.8c-.144 1.328-.384 2.768-.768 3.76.256.08.704.224.912.336.352-1.008.64-2.528.816-3.936l-.96-.16zm1.552.128c.176 1.088.336 2.496.352 3.424l.944-.176c-.048-.928-.224-2.32-.4-3.408l-.896.16zm1.488-.304c.288.816.624 1.904.752 2.608l.88-.288c-.144-.688-.48-1.744-.8-2.56l-.832.24zm4.96-1.472l-.192.048h-2.528v.992h2.064c-.576 1.552-1.712 2.8-2.928 3.408a3.9 3.9 0 01.688.848c1.616-.912 3.008-2.624 3.584-5.04l-.688-.256zm-1.024-3.648h4.976v1.424h-4.976v-1.424zm0-2.288h4.976v1.392h-4.976v-1.392zm5.744 5.216c-.432.544-1.168 1.28-1.792 1.856-.32-.592-.56-1.2-.752-1.84v-.576h2.928v-5.6h-3.6c.208-.432.448-.944.672-1.424l-1.328-.272a11.5 11.5 0 01-.544 1.696h-2.448v5.6h3.184v6c0 .192-.064.24-.272.256-.192.016-.864.016-1.616-.016.16.32.288.768.352 1.104 1.024 0 1.696-.016 2.112-.208.432-.192.56-.512.56-1.12v-3.008c.752 1.552 1.76 2.848 3.024 3.632.192-.304.528-.736.784-.944-1.024-.528-1.92-1.408-2.608-2.496.704-.528 1.52-1.264 2.24-1.92l-.896-.72z" fill="#646470"/></svg>