<svg width="904" height="381" fill="none" xmlns="http://www.w3.org/2000/svg"><path d="M76 39.738a300 300 0 01300 300H76v-300z" fill="#E5EFFD"/><path d="M76 139.738a200.001 200.001 0 01200 200H76v-200z" fill="#8BB8F5"/><path d="M76 239.738a100.005 100.005 0 0192.388 61.732A100.006 100.006 0 01176 339.738H76v-100z" fill="#2F80ED"/><path d="M76 19.738l-2.887 5h5.774l-2.887-5zm0 320h-.5v.5h.5v-.5zm320 0l-5-2.886v5.773l5-2.887zM75.5 24.238v315.5h1v-315.5h-1zm.5 316h315.5v-1H76v1z" fill="#646470"/><path d="M97.264 308.738v-14.545h3.075v6.001h6.243v-6.001h3.069v14.545h-3.069v-6.008h-6.243v6.008h-3.075zm14.865 0v-10.909h3.026v10.909h-3.026zm1.52-12.315c-.45 0-.836-.149-1.158-.448a1.45 1.45 0 01-.475-1.086c0-.417.158-.774.475-1.073a1.63 1.63 0 011.158-.454c.45 0 .833.151 1.151.454.322.299.483.656.483 1.073 0 .421-.161.783-.483 1.086a1.618 1.618 0 01-1.151.448zm8.844 16.633c-.98 0-1.82-.134-2.521-.404-.696-.266-1.25-.628-1.662-1.087a3.347 3.347 0 01-.803-1.548l2.799-.377c.085.218.22.422.405.611.184.189.428.341.731.455.308.118.682.177 1.122.177.658 0 1.201-.161 1.627-.483.431-.317.646-.85.646-1.598v-1.996h-.128a2.87 2.87 0 01-.596.86c-.266.27-.606.49-1.023.66-.417.171-.914.256-1.492.256a4.475 4.475 0 01-2.237-.568c-.667-.384-1.2-.968-1.598-1.754-.393-.791-.589-1.79-.589-2.998 0-1.235.201-2.268.603-3.096.403-.829.938-1.449 1.605-1.861a4.15 4.15 0 012.209-.618c.611 0 1.122.104 1.534.313.412.203.744.459.995.767.255.303.452.601.589.895h.114v-1.833h3.004v11.016c0 .928-.227 1.704-.682 2.329-.454.625-1.084 1.094-1.889 1.407-.8.317-1.721.475-2.763.475zm.064-6.747c.488 0 .9-.12 1.236-.362.341-.246.601-.597.781-1.051.185-.459.277-1.009.277-1.648s-.09-1.193-.27-1.662c-.18-.473-.44-.84-.781-1.101-.341-.26-.755-.39-1.243-.39-.497 0-.916.135-1.257.405-.341.265-.599.634-.774 1.108-.175.473-.263 1.02-.263 1.64 0 .63.088 1.174.263 1.634.18.454.438.807.774 1.058.341.246.76.369 1.257.369zm10.703-3.878v6.307h-3.025v-14.545h2.94v5.561h.128a3.09 3.09 0 011.193-1.513c.549-.369 1.238-.554 2.067-.554.757 0 1.418.166 1.981.497a3.313 3.313 0 011.321 1.414c.318.61.474 1.342.469 2.194v6.946h-3.025v-6.406c.004-.672-.166-1.196-.512-1.57-.341-.374-.819-.561-1.434-.561-.412 0-.777.088-1.094.263a1.86 1.86 0 00-.739.767c-.175.332-.265.732-.27 1.2zm20.004-69.238h3.793l4.005 9.773h.171l4.006-9.773h3.792v14.545h-2.983v-9.467h-.12l-3.765 9.396h-2.031l-3.764-9.432h-.121v9.503h-2.983v-14.545zm23.216 14.758c-1.122 0-2.088-.227-2.898-.681a4.677 4.677 0 01-1.861-1.946c-.435-.843-.653-1.84-.653-2.991 0-1.122.218-2.107.653-2.954a4.833 4.833 0 011.84-1.982c.795-.473 1.728-.71 2.798-.71.72 0 1.39.116 2.01.348a4.457 4.457 0 011.633 1.03c.469.459.834 1.037 1.094 1.733.261.691.391 1.501.391 2.429v.831h-9.212v-1.875h6.364c0-.436-.095-.822-.284-1.158a2.033 2.033 0 00-.789-.788 2.247 2.247 0 00-1.157-.291c-.46 0-.867.106-1.222.319a2.25 2.25 0 00-.824.845 2.39 2.39 0 00-.305 1.172v1.783c0 .54.099 1.006.298 1.399.204.393.49.696.86.909.369.213.807.32 1.313.32.337 0 .644-.048.924-.142.279-.095.518-.237.717-.426.199-.19.35-.422.455-.696l2.798.184a3.815 3.815 0 01-.874 1.762c-.435.497-.999.885-1.69 1.164-.687.275-1.48.412-2.379.412zm11.001-.035a4.119 4.119 0 01-2.251-.639c-.668-.431-1.198-1.063-1.591-1.897-.388-.838-.583-1.865-.583-3.082 0-1.25.202-2.289.604-3.118.403-.833.938-1.456 1.605-1.868a4.113 4.113 0 012.209-.625c.611 0 1.12.104 1.527.313.412.203.743.459.994.767.256.303.45.601.583.895h.092v-5.469h3.019v14.545h-2.983v-1.747h-.128a3.908 3.908 0 01-.604.902 2.994 2.994 0 01-1.001.732c-.408.194-.905.291-1.492.291zm.959-2.408c.488 0 .9-.132 1.236-.398.341-.269.601-.646.781-1.129.185-.483.277-1.049.277-1.697 0-.649-.09-1.212-.27-1.691-.18-.478-.44-.847-.781-1.108-.341-.26-.755-.39-1.243-.39-.497 0-.916.135-1.257.405-.341.27-.599.644-.774 1.122-.175.478-.263 1.032-.263 1.662 0 .634.088 1.195.263 1.683.18.483.438.862.774 1.136.341.27.76.405 1.257.405zm7.736 2.23v-10.909h3.026v10.909h-3.026zm1.52-12.315c-.45 0-.836-.149-1.158-.448a1.45 1.45 0 01-.476-1.086c0-.417.159-.774.476-1.073a1.63 1.63 0 011.158-.454c.45 0 .833.151 1.151.454.322.299.483.656.483 1.073 0 .421-.161.783-.483 1.086a1.618 1.618 0 01-1.151.448zm10.925 7.67v-6.264h3.026v10.909h-2.905v-1.981h-.114a3.223 3.223 0 01-1.228 1.541c-.569.388-1.262.582-2.081.582-.73 0-1.371-.165-1.925-.497a3.417 3.417 0 01-1.3-1.413c-.308-.611-.464-1.343-.469-2.195v-6.946h3.026v6.406c.005.644.177 1.153.518 1.527.341.374.798.562 1.371.562.365 0 .706-.083 1.023-.249.317-.171.573-.421.767-.753.199-.331.296-.741.291-1.229zm5.446 4.645v-10.909h2.883v1.925h.128a3.026 3.026 0 011.136-1.513c.531-.369 1.165-.554 1.904-.554.748 0 1.385.187 1.91.561.526.37.876.871 1.052 1.506h.113a2.904 2.904 0 011.208-1.499c.587-.378 1.28-.568 2.081-.568 1.018 0 1.844.324 2.478.973.639.644.959 1.558.959 2.742v7.336h-3.018v-6.74c0-.606-.161-1.06-.483-1.363-.322-.303-.725-.455-1.208-.455-.549 0-.978.175-1.285.526-.308.345-.462.802-.462 1.37v6.662h-2.933v-6.804c0-.535-.154-.961-.462-1.278-.303-.317-.703-.476-1.2-.476-.336 0-.639.085-.909.256a1.75 1.75 0 00-.632.703c-.157.298-.235.649-.235 1.051v6.548h-3.025z" fill="#fff"/><path d="M251.264 186.738v-14.545h3.075v12.01h6.236v2.535h-9.311zm16.22.213c-1.103 0-2.057-.234-2.862-.703a4.81 4.81 0 01-1.854-1.974c-.435-.848-.653-1.83-.653-2.948 0-1.127.218-2.111.653-2.954a4.76 4.76 0 011.854-1.975c.805-.473 1.759-.71 2.862-.71 1.103 0 2.055.237 2.855.71a4.744 4.744 0 011.861 1.975c.436.843.653 1.827.653 2.954 0 1.118-.217 2.1-.653 2.948a4.795 4.795 0 01-1.861 1.974c-.8.469-1.752.703-2.855.703zm.014-2.343c.502 0 .921-.142 1.257-.427.337-.288.59-.681.76-1.179.175-.497.263-1.062.263-1.697 0-.634-.088-1.2-.263-1.697-.17-.498-.423-.891-.76-1.179-.336-.289-.755-.434-1.257-.434-.506 0-.933.145-1.278.434-.341.288-.599.681-.774 1.179-.171.497-.256 1.063-.256 1.697 0 .635.085 1.2.256 1.697.175.498.433.891.774 1.179.345.285.772.427 1.278.427zm9.201 2.13l-2.969-10.909h3.062l1.69 7.33h.099l1.762-7.33h3.004l1.79 7.287h.092l1.662-7.287h3.054l-2.962 10.909h-3.203l-1.875-6.861h-.135l-1.875 6.861h-3.196z" fill="#8BB8F5"/><path d="M355.75 363.738h-2.693v-8.727h2.812c.847 0 1.571.175 2.174.524a3.434 3.434 0 011.385 1.496c.321.648.481 1.423.481 2.327 0 .909-.162 1.691-.486 2.348a3.462 3.462 0 01-1.414 1.508c-.62.35-1.373.524-2.259.524zm-1.636-.937h1.568c.721 0 1.319-.139 1.794-.418a2.575 2.575 0 001.061-1.189c.233-.514.349-1.126.349-1.836 0-.705-.115-1.311-.345-1.82a2.55 2.55 0 00-1.031-1.176c-.457-.276-1.027-.413-1.709-.413h-1.687v6.852zm7.431.937v-6.545h1.006v6.545h-1.006zm.512-7.636a.717.717 0 01-.507-.2.645.645 0 01-.209-.482c0-.187.07-.348.209-.481a.713.713 0 01.507-.201.7.7 0 01.503.201.636.636 0 01.213.481.639.639 0 01-.213.482.704.704 0 01-.503.2zm5.251 1.091v.852h-3.529v-.852h3.529zm-2.472 6.545v-7.449c0-.375.088-.687.264-.937.177-.25.405-.438.687-.563.281-.125.578-.187.89-.187.247 0 .449.02.605.06.157.039.273.076.35.11l-.29.87a4.204 4.204 0 00-.213-.064 1.275 1.275 0 00-.35-.039c-.332 0-.572.084-.72.252-.145.167-.217.413-.217.737v7.21h-1.006zm6.796-6.545v.852h-3.528v-.852h3.528zm-2.471 6.545v-7.449c0-.375.088-.687.264-.937.176-.25.405-.438.686-.563.281-.125.578-.187.89-.187.248 0 .449.02.606.06.156.039.272.076.349.11l-.29.87a4.204 4.204 0 00-.213-.064 1.267 1.267 0 00-.349-.039c-.333 0-.573.084-.72.252-.145.167-.218.413-.218.737v7.21h-1.005zm3.881 0v-6.545h1.005v6.545h-1.005zm.511-7.636a.717.717 0 01-.507-.2.645.645 0 01-.209-.482c0-.187.07-.348.209-.481a.713.713 0 01.507-.201.7.7 0 01.503.201.636.636 0 01.213.481.639.639 0 01-.213.482.702.702 0 01-.503.2zm4.995 7.773c-.613 0-1.142-.145-1.585-.435a2.84 2.84 0 01-1.023-1.197c-.238-.509-.358-1.09-.358-1.743 0-.665.123-1.252.367-1.76a2.895 2.895 0 011.031-1.198c.443-.29.96-.434 1.551-.434.46 0 .875.085 1.245.255.369.171.671.409.907.716s.382.665.439 1.074h-1.006a1.561 1.561 0 00-.511-.793c-.261-.233-.614-.349-1.057-.349-.392 0-.735.102-1.031.307a2 2 0 00-.686.856c-.162.367-.243.797-.243 1.292 0 .505.08.946.239 1.321.162.375.389.666.682.873.295.208.642.311 1.039.311.262 0 .499-.045.712-.136.213-.091.393-.222.541-.392.148-.171.253-.375.315-.614h1.006a2.32 2.32 0 01-1.304 1.777c-.363.179-.787.269-1.27.269zm8.169-2.813v-3.869h1.006v6.545h-1.006v-1.108h-.068a2.14 2.14 0 01-.716.848c-.324.23-.733.346-1.227.346-.409 0-.773-.09-1.091-.269a1.885 1.885 0 01-.75-.818c-.182-.367-.273-.828-.273-1.385v-4.159h1.006v4.091c0 .477.134.858.401 1.142.269.284.613.426 1.031.426.25 0 .504-.064.763-.192.261-.128.48-.324.656-.588.179-.264.268-.601.268-1.01zm3.854-6.051v8.727h-1.006v-8.727h1.006zm4.688 2.182v.852h-3.392v-.852h3.392zm-2.403-1.568h1.006v6.238c0 .284.041.497.123.639a.64.64 0 00.324.282c.133.045.274.068.422.068.111 0 .202-.006.273-.017l.17-.034.205.903a2.09 2.09 0 01-.286.077 2.122 2.122 0 01-.464.043c-.285 0-.563-.062-.836-.184a1.656 1.656 0 01-.673-.558c-.176-.25-.264-.565-.264-.946v-6.511zM14.057 336.738v-8.727h5.233v.938h-4.176v2.948h3.784v.938h-3.784v3.903h-1.057zm6.836 0v-6.545h.972v.988h.068c.12-.323.335-.586.648-.788a1.904 1.904 0 011.056-.302c.074 0 .167.001.277.004.111.003.195.007.252.013v1.022a3.329 3.329 0 00-.235-.038 2.284 2.284 0 00-.379-.03c-.318 0-.602.067-.852.2a1.47 1.47 0 00-.801 1.334v4.142h-1.006zm7.01.137c-.63 0-1.175-.14-1.632-.418a2.8 2.8 0 01-1.053-1.176c-.244-.506-.366-1.094-.366-1.764 0-.671.122-1.262.366-1.773a2.897 2.897 0 011.032-1.202c.443-.29.96-.434 1.55-.434.342 0 .678.056 1.01.17.333.114.636.298.908.554.273.253.49.588.652 1.006.162.417.243.932.243 1.542v.426h-5.045v-.869h4.023c0-.369-.074-.699-.222-.988a1.673 1.673 0 00-.622-.687 1.747 1.747 0 00-.946-.251c-.4 0-.747.099-1.04.298a1.96 1.96 0 00-.669.767 2.257 2.257 0 00-.234 1.015v.579c0 .494.085.913.255 1.257.174.341.414.601.72.78.307.176.664.264 1.07.264.264 0 .503-.037.716-.111.216-.076.402-.19.558-.34.157-.154.277-.344.362-.571l.972.272c-.102.33-.274.62-.516.87-.241.247-.54.44-.895.579a3.327 3.327 0 01-1.197.205zm8.706 2.318v-3.46h-.085a6.617 6.617 0 01-.316.451c-.136.179-.33.34-.583.482-.253.139-.59.209-1.01.209a2.56 2.56 0 01-1.445-.414c-.418-.278-.744-.67-.98-1.176-.236-.508-.354-1.109-.354-1.802 0-.688.118-1.284.354-1.79s.564-.896.984-1.172c.42-.276.907-.413 1.458-.413.426 0 .763.071 1.01.213.25.139.44.298.57.477.134.176.238.321.312.435h.12v-1.04h.97v9H36.61zm-1.858-3.222c.404 0 .744-.105 1.023-.315.278-.213.49-.507.635-.882a3.64 3.64 0 00.217-1.308c0-.489-.071-.917-.213-1.283a1.871 1.871 0 00-.63-.861c-.28-.207-.623-.311-1.032-.311-.426 0-.781.109-1.065.328a1.96 1.96 0 00-.635.882 3.51 3.51 0 00-.209 1.245c0 .465.071.889.213 1.269.145.378.358.679.64.904.283.221.636.332 1.056.332zm8.83-1.909v-3.869h1.005v6.545h-1.005v-1.108h-.069a2.143 2.143 0 01-.715.848c-.324.23-.733.346-1.228.346a2.18 2.18 0 01-1.09-.269 1.884 1.884 0 01-.75-.818c-.182-.367-.273-.828-.273-1.385v-4.159h1.005v4.091c0 .477.134.858.4 1.142.27.284.614.426 1.032.426.25 0 .504-.064.763-.192.261-.128.48-.324.656-.588.18-.264.269-.601.269-1.01zm5.592 2.813c-.631 0-1.175-.14-1.633-.418a2.8 2.8 0 01-1.052-1.176c-.244-.506-.367-1.094-.367-1.764 0-.671.123-1.262.367-1.773.247-.514.59-.915 1.031-1.202.443-.29.96-.434 1.551-.434.341 0 .678.056 1.01.17.333.114.635.298.908.554.273.253.49.588.652 1.006.162.417.243.932.243 1.542v.426h-5.046v-.869h4.023c0-.369-.074-.699-.221-.988a1.673 1.673 0 00-.623-.687 1.747 1.747 0 00-.946-.251c-.4 0-.747.099-1.04.298-.29.196-.512.452-.669.767a2.259 2.259 0 00-.234 1.015v.579c0 .494.085.913.256 1.257.173.341.413.601.72.78.307.176.663.264 1.07.264.264 0 .502-.037.715-.111.216-.076.403-.19.559-.34.156-.154.277-.344.362-.571l.972.272c-.103.33-.275.62-.516.87-.242.247-.54.44-.895.579a3.326 3.326 0 01-1.197.205zm5.245-4.074v3.937h-1.005v-6.545h.971v1.023h.085c.154-.333.387-.6.7-.802.312-.204.715-.306 1.21-.306.443 0 .83.091 1.163.272.332.179.59.452.776.819.184.363.276.823.276 1.38v4.159H57.59v-4.091c0-.514-.134-.914-.4-1.201-.268-.29-.634-.435-1.1-.435-.321 0-.608.07-.861.209-.25.139-.447.342-.592.609-.145.267-.218.591-.218.972zm8.86-2.608v.852h-3.391v-.852h3.392zm-2.403-1.568h1.006v6.238c0 .284.041.497.124.639.085.14.193.233.323.282.134.045.275.068.422.068.111 0 .202-.006.273-.017l.17-.034.205.903a2.043 2.043 0 01-.285.077 2.125 2.125 0 01-.465.043c-.284 0-.562-.062-.835-.184a1.657 1.657 0 01-.673-.558c-.177-.25-.265-.565-.265-.946v-6.511zM39.057 31.738v-8.727h2.949c.681 0 1.241.117 1.679.35.437.23.761.546.971.95.21.403.316.862.316 1.376 0 .514-.105.97-.316 1.368-.21.398-.532.71-.967.938-.435.224-.99.336-1.666.336h-2.387v-.954h2.353c.466 0 .84-.069 1.125-.205.287-.136.494-.33.622-.58.13-.252.196-.553.196-.903s-.066-.655-.196-.916a1.337 1.337 0 00-.627-.605c-.287-.145-.666-.218-1.137-.218h-1.858v7.79h-1.057zm4.108-3.92l2.148 3.92h-1.228l-2.113-3.92h1.193zm5.357 4.074a2.66 2.66 0 01-1.129-.235 1.938 1.938 0 01-.805-.686c-.2-.3-.299-.665-.299-1.09 0-.376.074-.68.222-.913.148-.235.345-.42.592-.554.247-.133.52-.233.819-.298.3-.068.603-.122.907-.162.398-.05.72-.09.968-.115.25-.028.431-.075.545-.14.117-.066.175-.18.175-.341v-.035c0-.42-.115-.747-.346-.98-.227-.233-.572-.349-1.035-.349-.48 0-.857.105-1.13.315-.272.21-.464.435-.575.674l-.954-.341c.17-.398.398-.708.682-.93.287-.224.6-.38.937-.468.341-.09.676-.136 1.006-.136.21 0 .452.025.724.076.276.049.541.15.797.303.259.153.473.385.644.695.17.31.255.724.255 1.244v4.312h-1.005v-.886h-.051a1.77 1.77 0 01-.341.456c-.16.162-.371.3-.635.413-.265.114-.587.17-.968.17zm.154-.904c.398 0 .733-.078 1.005-.234a1.595 1.595 0 00.836-1.385v-.92c-.043.05-.137.098-.282.14-.142.04-.306.075-.494.107a22.809 22.809 0 01-.963.127c-.261.035-.506.09-.733.167a1.265 1.265 0 00-.545.336c-.137.148-.205.35-.205.605 0 .35.13.614.388.793.261.176.592.264.993.264zm4.682.75v-6.545h.972v.988h.068c.119-.323.335-.586.647-.788a1.906 1.906 0 011.057-.302c.074 0 .167.001.277.004.111.003.195.007.252.013v1.022a2.982 2.982 0 00-.235-.038 2.284 2.284 0 00-.379-.03 1.78 1.78 0 00-.852.2 1.47 1.47 0 00-.801 1.334v4.142h-1.006zm7.01.137c-.63 0-1.175-.14-1.632-.418a2.803 2.803 0 01-1.053-1.176c-.244-.506-.366-1.094-.366-1.764 0-.67.122-1.262.366-1.773a2.89 2.89 0 011.032-1.202c.443-.29.96-.434 1.55-.434.341 0 .678.056 1.01.17a2.5 2.5 0 01.908.554c.273.253.49.588.652 1.006.162.417.243.931.243 1.542v.427h-5.045v-.87h4.022c0-.37-.074-.699-.221-.989a1.67 1.67 0 00-.622-.686 1.742 1.742 0 00-.946-.251c-.4 0-.747.1-1.04.298a1.97 1.97 0 00-.67.767 2.255 2.255 0 00-.234 1.015v.58c0 .493.086.913.256 1.256.173.341.413.601.72.78a2.11 2.11 0 001.07.264 2.2 2.2 0 00.716-.11c.216-.077.402-.19.558-.341.156-.154.277-.344.362-.572l.972.273c-.102.33-.274.62-.516.87-.241.247-.54.44-.895.58a3.318 3.318 0 01-1.197.204zM81.83 357.193a1.339 1.339 0 00-.623-1.006c-.363-.238-.81-.358-1.338-.358-.386 0-.724.063-1.014.188a1.625 1.625 0 00-.673.515c-.16.219-.239.468-.239.746 0 .233.056.433.166.601.114.165.259.302.435.413.176.108.36.198.554.269.193.068.37.123.533.166l.886.239c.227.059.48.142.759.247.28.105.55.248.805.43.258.179.472.409.64.69.167.282.25.627.25 1.036 0 .472-.123.898-.37 1.278-.245.381-.602.684-1.074.908-.469.224-1.038.337-1.709.337-.625 0-1.166-.101-1.623-.303a2.589 2.589 0 01-1.074-.844 2.402 2.402 0 01-.44-1.257h1.092c.028.33.139.603.332.818.196.214.443.373.742.478.3.102.625.153.971.153.404 0 .766-.065 1.087-.196a1.87 1.87 0 00.763-.554c.187-.238.28-.517.28-.835 0-.29-.08-.526-.242-.707a1.787 1.787 0 00-.64-.444 6.783 6.783 0 00-.856-.298l-1.074-.307c-.681-.196-1.221-.476-1.619-.839-.398-.364-.596-.84-.596-1.428 0-.488.132-.915.396-1.278a2.621 2.621 0 011.074-.852 3.62 3.62 0 011.512-.307c.563 0 1.063.101 1.5.302a2.6 2.6 0 011.04.818c.259.347.395.74.41 1.181H81.83zm2.743 6.545v-6.545h1.006v6.545h-1.006zm.511-7.636a.717.717 0 01-.507-.2.644.644 0 01-.209-.482.64.64 0 01.21-.481.713.713 0 01.506-.201.7.7 0 01.503.201.637.637 0 01.213.481.639.639 0 01-.213.482.702.702 0 01-.503.2zm2.337 7.636v-6.545h.971v1.023h.085a1.65 1.65 0 01.66-.814c.305-.196.67-.294 1.096-.294.432 0 .791.098 1.078.294.29.193.516.464.678.814h.068a1.9 1.9 0 01.754-.806c.335-.202.737-.302 1.206-.302.585 0 1.064.183 1.436.549.372.364.558.931.558 1.701v4.38h-1.005v-4.38c0-.483-.132-.829-.397-1.036a1.47 1.47 0 00-.933-.311c-.46 0-.817.139-1.07.418-.252.275-.379.625-.379 1.048v4.261h-1.023v-4.483c0-.372-.12-.672-.362-.899-.241-.23-.552-.345-.933-.345-.261 0-.506.07-.733.209a1.575 1.575 0 00-.545.579 1.712 1.712 0 00-.205.848v4.091h-1.005zm10.43 2.455v-9h.97v1.04h.12c.074-.114.176-.259.307-.435.133-.179.324-.338.57-.477.251-.142.589-.213 1.015-.213.551 0 1.037.137 1.457.413.421.276.749.666.985 1.172.236.506.354 1.102.354 1.79 0 .693-.118 1.294-.354 1.802-.236.506-.563.898-.98 1.176a2.56 2.56 0 01-1.445.414c-.42 0-.757-.07-1.01-.209a1.873 1.873 0 01-.584-.482 6.546 6.546 0 01-.315-.451h-.085v3.46H97.85zm.988-5.727c0 .494.072.93.217 1.308.145.375.357.669.635.882.278.21.619.315 1.023.315.42 0 .771-.111 1.052-.332.284-.225.497-.526.64-.904a3.56 3.56 0 00.217-1.269c0-.461-.071-.875-.213-1.245a1.923 1.923 0 00-.635-.882c-.281-.219-.635-.328-1.061-.328-.409 0-.753.104-1.031.311a1.872 1.872 0 00-.631.861c-.142.366-.213.794-.213 1.283zm7.329-5.455v8.727h-1.005v-8.727h1.005zm4.587 8.864c-.631 0-1.175-.14-1.632-.418a2.797 2.797 0 01-1.053-1.176c-.244-.506-.367-1.094-.367-1.764 0-.671.123-1.262.367-1.773a2.894 2.894 0 011.031-1.202c.443-.29.96-.434 1.551-.434.341 0 .678.056 1.01.17.333.114.635.298.908.554.273.253.49.588.652 1.006.162.417.243.932.243 1.542v.426h-5.046v-.869h4.023c0-.369-.074-.699-.221-.988a1.675 1.675 0 00-.623-.687 1.746 1.746 0 00-.946-.251c-.4 0-.747.099-1.039.298a1.96 1.96 0 00-.669.767 2.249 2.249 0 00-.235 1.015v.579c0 .494.085.913.256 1.257.173.341.413.601.72.78.307.176.663.264 1.07.264.264 0 .502-.037.716-.111.215-.076.402-.19.558-.34.156-.154.277-.344.362-.571l.972.272c-.103.33-.275.62-.516.87-.242.247-.54.44-.895.579a3.324 3.324 0 01-1.197.205zm365.952-172.799a.999.999 0 000-1.414l-6.364-6.364a1 1 0 00-1.414 1.414l5.657 5.657-5.657 5.657a.999.999 0 101.414 1.414l6.364-6.364zm-48.707.293h48v-2h-48v2z" fill="#646470"/><path d="M560 39.738a300 300 0 01300 300H560v-300z" fill="#E5EFFD"/><path d="M560 139.738a200.001 200.001 0 01200 200H560v-200z" fill="#8BB8F5"/><path d="M560 239.738a100.006 100.006 0 0192.388 61.732A100.006 100.006 0 01660 339.738H560v-100z" fill="#2F80ED"/><path d="M560 19.738l-2.887 5h5.774l-2.887-5zm0 320h-.5v.5h.5v-.5zm320 0l-5-2.886v5.773l5-2.887zm-320.5-315.5v315.5h1v-315.5h-1zm.5 316h315.5v-1H560v1zm279.75 23.5h-2.693v-8.727h2.812c.847 0 1.571.175 2.174.524a3.434 3.434 0 011.385 1.496c.321.648.481 1.423.481 2.327 0 .909-.162 1.691-.486 2.348a3.462 3.462 0 01-1.414 1.508c-.62.35-1.373.524-2.259.524zm-1.636-.937h1.568c.721 0 1.319-.139 1.794-.418a2.575 2.575 0 001.061-1.189c.233-.514.349-1.126.349-1.836 0-.705-.115-1.311-.345-1.82a2.55 2.55 0 00-1.031-1.176c-.457-.276-1.027-.413-1.709-.413h-1.687v6.852zm7.431.937v-6.545h1.006v6.545h-1.006zm.512-7.636a.717.717 0 01-.507-.2.645.645 0 01-.209-.482c0-.187.07-.348.209-.481a.713.713 0 01.507-.201.7.7 0 01.503.201.636.636 0 01.213.481.639.639 0 01-.213.482.704.704 0 01-.503.2zm5.251 1.091v.852h-3.529v-.852h3.529zm-2.472 6.545v-7.449c0-.375.088-.687.264-.937.177-.25.405-.438.687-.563.281-.125.578-.187.89-.187.247 0 .449.02.605.06.157.039.273.076.35.11l-.29.87a4.204 4.204 0 00-.213-.064 1.275 1.275 0 00-.35-.039c-.332 0-.572.084-.72.252-.145.167-.217.413-.217.737v7.21h-1.006zm6.796-6.545v.852h-3.528v-.852h3.528zm-2.471 6.545v-7.449c0-.375.088-.687.264-.937.176-.25.405-.438.686-.563.281-.125.578-.187.89-.187.248 0 .449.02.606.06.156.039.272.076.349.11l-.29.87a4.204 4.204 0 00-.213-.064 1.267 1.267 0 00-.349-.039c-.333 0-.573.084-.72.252-.145.167-.218.413-.218.737v7.21h-1.005zm3.881 0v-6.545h1.005v6.545h-1.005zm.511-7.636a.717.717 0 01-.507-.2.645.645 0 01-.209-.482c0-.187.07-.348.209-.481a.713.713 0 01.507-.201.7.7 0 01.503.201.636.636 0 01.213.481.639.639 0 01-.213.482.702.702 0 01-.503.2zm4.995 7.773c-.613 0-1.142-.145-1.585-.435a2.84 2.84 0 01-1.023-1.197c-.238-.509-.358-1.09-.358-1.743 0-.665.123-1.252.367-1.76a2.895 2.895 0 011.031-1.198c.443-.29.96-.434 1.551-.434.46 0 .875.085 1.245.255.369.171.671.409.907.716s.382.665.439 1.074h-1.006a1.561 1.561 0 00-.511-.793c-.261-.233-.614-.349-1.057-.349-.392 0-.735.102-1.031.307a2 2 0 00-.686.856c-.162.367-.243.797-.243 1.292 0 .505.08.946.239 1.321.162.375.389.666.682.873.295.208.642.311 1.039.311.262 0 .499-.045.712-.136.213-.091.393-.222.541-.392.148-.171.253-.375.315-.614h1.006a2.32 2.32 0 01-1.304 1.777c-.363.179-.787.269-1.27.269zm8.169-2.813v-3.869h1.006v6.545h-1.006v-1.108h-.068a2.14 2.14 0 01-.716.848c-.324.23-.733.346-1.227.346-.409 0-.773-.09-1.091-.269a1.885 1.885 0 01-.75-.818c-.182-.367-.273-.828-.273-1.385v-4.159h1.006v4.091c0 .477.134.858.401 1.142.269.284.613.426 1.031.426.25 0 .504-.064.763-.192.261-.128.48-.324.656-.588.179-.264.268-.601.268-1.01zm3.854-6.051v8.727h-1.006v-8.727h1.006zm4.688 2.182v.852h-3.392v-.852h3.392zm-2.403-1.568h1.006v6.238c0 .284.041.497.123.639a.64.64 0 00.324.282c.133.045.274.068.422.068.111 0 .202-.006.273-.017l.17-.034.205.903a2.09 2.09 0 01-.286.077 2.122 2.122 0 01-.464.043c-.285 0-.563-.062-.836-.184a1.656 1.656 0 01-.673-.558c-.176-.25-.264-.565-.264-.946v-6.511zm-378.799-18.887v-8.727h5.233v.938h-4.176v2.948h3.784v.938h-3.784v3.903h-1.057zm6.836 0v-6.545h.972v.988h.068c.119-.323.335-.586.648-.788a1.9 1.9 0 011.056-.302c.074 0 .167.001.277.004.111.003.195.007.252.013v1.022a3.27 3.27 0 00-.235-.038 2.284 2.284 0 00-.379-.03c-.318 0-.602.067-.852.2a1.47 1.47 0 00-.801 1.334v4.142h-1.006zm7.01.137c-.631 0-1.175-.14-1.632-.418a2.804 2.804 0 01-1.053-1.176c-.244-.506-.366-1.094-.366-1.764 0-.671.122-1.262.366-1.773a2.897 2.897 0 011.032-1.202c.443-.29.96-.434 1.551-.434.341 0 .677.056 1.01.17.332.114.635.298.907.554.273.253.49.588.652 1.006.162.417.243.932.243 1.542v.426h-5.045v-.869h4.023c0-.369-.074-.699-.222-.988a1.673 1.673 0 00-.622-.687 1.749 1.749 0 00-.946-.251c-.401 0-.747.099-1.04.298a1.96 1.96 0 00-.669.767 2.261 2.261 0 00-.234 1.015v.579c0 .494.085.913.255 1.257.174.341.414.601.72.78.307.176.664.264 1.07.264.264 0 .503-.037.716-.111.216-.076.402-.19.558-.34.156-.154.277-.344.362-.571l.972.272c-.102.33-.274.62-.516.87a2.5 2.5 0 01-.895.579 3.324 3.324 0 01-1.197.205zm8.706 2.318v-3.46h-.085a6.455 6.455 0 01-.316.451c-.136.179-.331.34-.583.482-.253.139-.59.209-1.01.209a2.56 2.56 0 01-1.445-.414c-.418-.278-.744-.67-.98-1.176-.236-.508-.354-1.109-.354-1.802 0-.688.118-1.284.354-1.79s.564-.896.984-1.172c.421-.276.907-.413 1.458-.413.426 0 .763.071 1.01.213.25.139.44.298.571.477.133.176.237.321.311.435h.119v-1.04h.972v9h-1.006zm-1.858-3.222c.403 0 .744-.105 1.023-.315.278-.213.49-.507.635-.882.145-.378.217-.814.217-1.308 0-.489-.071-.917-.213-1.283a1.868 1.868 0 00-.631-.861c-.278-.207-.622-.311-1.031-.311-.426 0-.781.109-1.065.328a1.96 1.96 0 00-.635.882c-.139.37-.209.784-.209 1.245 0 .465.071.889.213 1.269.145.378.358.679.639.904.284.221.637.332 1.057.332zm8.83-1.909v-3.869h1.005v6.545h-1.005v-1.108h-.069a2.145 2.145 0 01-.715.848c-.324.23-.733.346-1.228.346a2.19 2.19 0 01-1.091-.269 1.885 1.885 0 01-.75-.818c-.181-.367-.272-.828-.272-1.385v-4.159h1.005v4.091c0 .477.134.858.401 1.142.27.284.613.426 1.031.426.25 0 .504-.064.763-.192.261-.128.48-.324.656-.588.179-.264.269-.601.269-1.01zm5.592 2.813c-.631 0-1.175-.14-1.633-.418a2.802 2.802 0 01-1.052-1.176c-.244-.506-.367-1.094-.367-1.764 0-.671.123-1.262.367-1.773a2.894 2.894 0 011.031-1.202c.443-.29.96-.434 1.551-.434.341 0 .678.056 1.01.17.333.114.635.298.908.554.273.253.49.588.652 1.006.162.417.243.932.243 1.542v.426h-5.046v-.869h4.023c0-.369-.074-.699-.222-.988a1.666 1.666 0 00-.622-.687 1.746 1.746 0 00-.946-.251c-.4 0-.747.099-1.039.298a1.96 1.96 0 00-.669.767 2.249 2.249 0 00-.235 1.015v.579c0 .494.085.913.256 1.257.173.341.413.601.72.78.307.176.663.264 1.07.264.264 0 .502-.037.715-.111.216-.076.402-.19.559-.34.156-.154.277-.344.362-.571l.972.272c-.103.33-.275.62-.516.87-.242.247-.54.44-.895.579a3.324 3.324 0 01-1.197.205zm5.245-4.074v3.937h-1.005v-6.545h.971v1.023h.085c.154-.333.387-.6.699-.802.313-.204.716-.306 1.211-.306.443 0 .831.091 1.163.272.332.179.591.452.775.819.185.363.277.823.277 1.38v4.159h-1.005v-4.091c0-.514-.134-.914-.401-1.201-.267-.29-.633-.435-1.099-.435-.321 0-.608.07-.861.209-.25.139-.447.342-.592.609-.145.267-.218.591-.218.972zm8.861-2.608v.852h-3.392v-.852h3.392zm-2.404-1.568h1.006v6.238c0 .284.041.497.124.639.085.14.193.233.323.282.134.045.275.068.422.068.111 0 .202-.006.273-.017l.171-.034.204.903a2.03 2.03 0 01-.285.077 2.132 2.132 0 01-.465.043c-.284 0-.562-.062-.835-.184a1.656 1.656 0 01-.673-.558c-.177-.25-.265-.565-.265-.946v-6.511zM523.057 31.738v-8.727h2.949c.682 0 1.241.117 1.679.35.437.23.761.546.971.95.21.403.316.862.316 1.376 0 .514-.106.97-.316 1.368-.21.398-.532.71-.967.938-.435.224-.99.336-1.666.336h-2.387v-.954h2.353c.466 0 .841-.069 1.125-.205.287-.136.494-.33.622-.58.13-.252.196-.553.196-.903s-.066-.655-.196-.916a1.34 1.34 0 00-.627-.605c-.287-.145-.666-.218-1.137-.218h-1.858v7.79h-1.057zm4.108-3.92l2.147 3.92h-1.227l-2.113-3.92h1.193zm5.357 4.074a2.66 2.66 0 01-1.129-.235 1.938 1.938 0 01-.805-.686c-.199-.3-.299-.665-.299-1.09 0-.376.074-.68.222-.913.148-.235.345-.42.592-.554a3.11 3.11 0 01.819-.298c.301-.068.603-.122.907-.162.398-.05.72-.09.968-.115.25-.028.431-.075.545-.14.116-.066.175-.18.175-.341v-.035c0-.42-.115-.747-.345-.98-.228-.233-.573-.349-1.036-.349-.48 0-.857.105-1.129.315-.273.21-.465.435-.576.674l-.954-.341c.17-.398.398-.708.682-.93.287-.224.599-.38.937-.468.341-.09.676-.136 1.006-.136.21 0 .452.025.724.076.276.049.542.15.797.303.259.153.473.385.644.695.17.31.255.724.255 1.244v4.312h-1.005v-.886h-.051a1.791 1.791 0 01-.341.456c-.159.162-.371.3-.635.413-.265.114-.587.17-.968.17zm.154-.904c.398 0 .733-.078 1.005-.234a1.6 1.6 0 00.836-1.385v-.92c-.043.05-.137.098-.282.14a4.71 4.71 0 01-.494.107 23.243 23.243 0 01-.963.127c-.261.035-.506.09-.733.167a1.264 1.264 0 00-.545.336c-.137.148-.205.35-.205.605 0 .35.129.614.388.793.261.176.592.264.993.264zm4.682.75v-6.545h.972v.988h.068c.119-.323.335-.586.647-.788a1.908 1.908 0 011.057-.302c.074 0 .166.001.277.004.111.003.195.007.252.013v1.022a3.026 3.026 0 00-.235-.038 2.295 2.295 0 00-.379-.03 1.78 1.78 0 00-.852.2 1.47 1.47 0 00-.801 1.334v4.142h-1.006zm7.01.137c-.631 0-1.175-.14-1.632-.418a2.8 2.8 0 01-1.053-1.176c-.244-.506-.366-1.094-.366-1.764 0-.67.122-1.262.366-1.773a2.892 2.892 0 011.031-1.202c.444-.29.961-.434 1.552-.434.341 0 .677.056 1.01.17.332.114.635.298.907.554.273.253.49.588.652 1.006.162.417.243.931.243 1.542v.427h-5.045v-.87h4.022c0-.37-.073-.699-.221-.989a1.67 1.67 0 00-.622-.686 1.744 1.744 0 00-.946-.251c-.401 0-.748.1-1.04.298a1.96 1.96 0 00-.669.767 2.258 2.258 0 00-.235 1.015v.58c0 .493.086.913.256 1.256.173.341.413.601.72.78.307.176.664.264 1.07.264a2.2 2.2 0 00.716-.11c.216-.077.402-.19.558-.341.156-.154.277-.344.362-.572l.972.273c-.102.33-.274.62-.516.87-.241.247-.54.44-.895.58a3.316 3.316 0 01-1.197.204zm21.462 325.318a1.341 1.341 0 00-.623-1.006c-.363-.238-.809-.358-1.338-.358-.386 0-.724.063-1.014.188a1.624 1.624 0 00-.673.515 1.239 1.239 0 00-.239.746c0 .233.056.433.166.601.114.165.259.302.435.413.176.108.361.198.554.269.193.068.371.123.533.166l.886.239c.227.059.48.142.759.247.281.105.549.248.805.43.258.179.472.409.639.69.168.282.252.627.252 1.036 0 .472-.124.898-.371 1.278-.244.381-.602.684-1.074.908-.469.224-1.038.337-1.709.337-.625 0-1.166-.101-1.623-.303a2.583 2.583 0 01-1.074-.844 2.397 2.397 0 01-.439-1.257h1.091c.028.33.139.603.332.818.196.214.443.373.742.478.301.102.625.153.971.153.404 0 .766-.065 1.087-.196.321-.133.575-.318.763-.554.187-.238.281-.517.281-.835 0-.29-.081-.526-.243-.707a1.788 1.788 0 00-.639-.444 6.767 6.767 0 00-.857-.298l-1.074-.307c-.681-.196-1.221-.476-1.619-.839-.398-.364-.597-.84-.597-1.428 0-.488.133-.915.397-1.278a2.62 2.62 0 011.074-.852 3.616 3.616 0 011.512-.307c.563 0 1.063.101 1.5.302.438.199.785.472 1.04.818.259.347.395.74.409 1.181h-1.022zm2.743 6.545v-6.545h1.005v6.545h-1.005zm.511-7.636a.717.717 0 01-.507-.2.645.645 0 01-.209-.482c0-.187.07-.348.209-.481a.713.713 0 01.507-.201.7.7 0 01.503.201.636.636 0 01.213.481.639.639 0 01-.213.482.702.702 0 01-.503.2zm2.336 7.636v-6.545h.972v1.023h.085c.137-.35.357-.621.661-.814.304-.196.669-.294 1.095-.294.432 0 .791.098 1.078.294.29.193.516.464.678.814h.068a1.9 1.9 0 01.754-.806c.335-.202.737-.302 1.206-.302.585 0 1.064.183 1.436.549.372.364.558.931.558 1.701v4.38h-1.005v-4.38c0-.483-.132-.829-.397-1.036a1.468 1.468 0 00-.933-.311c-.46 0-.817.139-1.069.418-.253.275-.38.625-.38 1.048v4.261h-1.022v-4.483c0-.372-.121-.672-.363-.899-.241-.23-.552-.345-.933-.345-.261 0-.506.07-.733.209a1.576 1.576 0 00-.545.579 1.706 1.706 0 00-.205.848v4.091h-1.006zm10.43 2.455v-9h.972v1.04h.119c.074-.114.176-.259.307-.435a1.79 1.79 0 01.571-.477c.25-.142.588-.213 1.014-.213.551 0 1.037.137 1.457.413.421.276.749.666.985 1.172.236.506.354 1.102.354 1.79 0 .693-.118 1.294-.354 1.802-.236.506-.563.898-.98 1.176a2.56 2.56 0 01-1.445.414c-.42 0-.757-.07-1.01-.209a1.878 1.878 0 01-.584-.482 6.743 6.743 0 01-.315-.451h-.085v3.46h-1.006zm.989-5.727c0 .494.072.93.217 1.308.145.375.357.669.635.882.278.21.619.315 1.023.315.42 0 .771-.111 1.052-.332.284-.225.497-.526.64-.904a3.56 3.56 0 00.217-1.269c0-.461-.071-.875-.213-1.245a1.923 1.923 0 00-.635-.882c-.281-.219-.635-.328-1.061-.328-.409 0-.753.104-1.031.311a1.868 1.868 0 00-.631.861c-.142.366-.213.794-.213 1.283zm7.329-5.455v8.727h-1.005v-8.727h1.005zm4.587 8.864c-.631 0-1.175-.14-1.632-.418a2.797 2.797 0 01-1.053-1.176c-.244-.506-.367-1.094-.367-1.764 0-.671.123-1.262.367-1.773a2.894 2.894 0 011.031-1.202c.443-.29.96-.434 1.551-.434.341 0 .678.056 1.01.17.333.114.635.298.908.554.273.253.49.588.652 1.006.162.417.243.932.243 1.542v.426h-5.046v-.869h4.023c0-.369-.074-.699-.221-.988a1.675 1.675 0 00-.623-.687 1.746 1.746 0 00-.946-.251c-.4 0-.747.099-1.039.298a1.96 1.96 0 00-.669.767 2.249 2.249 0 00-.235 1.015v.579c0 .494.085.913.256 1.257.173.341.413.601.72.78.307.176.663.264 1.07.264.264 0 .502-.037.716-.111.215-.076.402-.19.558-.34.156-.154.277-.344.362-.571l.972.272c-.103.33-.275.62-.516.87-.242.247-.54.44-.895.579a3.324 3.324 0 01-1.197.205z" fill="#646470"/><path d="M582.466 315.556v10.182h-1.233v-10.182h1.233zm5.415 10.341c-.716 0-1.332-.169-1.849-.507a3.297 3.297 0 01-1.193-1.397c-.279-.593-.418-1.271-.418-2.033 0-.776.143-1.46.428-2.053a3.367 3.367 0 011.203-1.397c.517-.338 1.12-.508 1.809-.508.537 0 1.021.1 1.452.299.431.199.784.477 1.059.835.275.358.446.776.512 1.253h-1.173c-.09-.348-.289-.656-.597-.925-.305-.272-.716-.408-1.233-.408-.457 0-.858.12-1.203.358-.341.236-.608.569-.8 1-.189.427-.284.929-.284 1.506 0 .59.093 1.104.279 1.541.189.438.454.778.795 1.019.345.242.749.363 1.213.363.305 0 .582-.053.83-.159.249-.106.46-.258.632-.457s.295-.438.368-.716h1.173a2.71 2.71 0 01-1.521 2.073c-.424.209-.918.313-1.482.313zm7.821 0c-.69 0-1.295-.164-1.815-.492a3.338 3.338 0 01-1.213-1.377c-.289-.59-.433-1.279-.433-2.068 0-.796.144-1.49.433-2.083a3.327 3.327 0 011.213-1.382c.52-.328 1.125-.493 1.815-.493.689 0 1.292.165 1.809.493a3.28 3.28 0 011.213 1.382c.292.593.438 1.287.438 2.083 0 .789-.146 1.478-.438 2.068a3.29 3.29 0 01-1.213 1.377c-.517.328-1.12.492-1.809.492zm0-1.054c.523 0 .954-.134 1.292-.402.338-.269.588-.622.751-1.059.162-.438.243-.912.243-1.422 0-.511-.081-.986-.243-1.427a2.411 2.411 0 00-.751-1.069c-.338-.272-.769-.408-1.292-.408-.524 0-.955.136-1.293.408a2.411 2.411 0 00-.751 1.069 4.104 4.104 0 00-.243 1.427c0 .51.081.984.243 1.422.163.437.413.79.751 1.059.338.268.769.402 1.293.402zm6.424-3.698v4.593h-1.173v-7.636h1.133v1.193h.1a2.18 2.18 0 01.815-.935c.365-.238.835-.358 1.412-.358.517 0 .969.107 1.357.319.388.208.69.527.905.954.216.424.323.961.323 1.611v4.852h-1.173v-4.772c0-.6-.156-1.068-.467-1.402-.312-.339-.74-.508-1.283-.508a2.05 2.05 0 00-1.004.244 1.736 1.736 0 00-.691.711c-.169.312-.254.689-.254 1.134zm18.107 4.593v-10.182h3.56c.709 0 1.294.123 1.755.368.46.242.803.569 1.029.98.225.407.338.86.338 1.357 0 .438-.078.799-.234 1.084-.152.285-.355.51-.606.676a2.77 2.77 0 01-.811.368v.099c.312.02.625.13.94.328.315.199.578.484.79.856.212.371.318.825.318 1.362 0 .51-.116.969-.348 1.377-.232.408-.598.731-1.098.969-.501.239-1.152.358-1.954.358h-3.679zm1.233-1.093h2.446c.805 0 1.377-.156 1.715-.468.342-.315.512-.696.512-1.143 0-.345-.088-.663-.263-.955a1.91 1.91 0 00-.751-.706c-.325-.179-.709-.268-1.153-.268h-2.506v3.54zm0-4.614h2.287c.371 0 .706-.073 1.004-.219.302-.146.54-.351.716-.616a1.63 1.63 0 00.268-.935c0-.447-.155-.827-.467-1.138-.311-.315-.805-.473-1.481-.473h-2.327v3.381zm12.526 2.585v-4.514h1.173v7.636h-1.173v-1.292h-.08a2.51 2.51 0 01-.835.989c-.378.268-.855.403-1.432.403-.477 0-.901-.105-1.272-.313a2.194 2.194 0 01-.875-.955c-.213-.428-.319-.966-.319-1.616v-4.852h1.174v4.773c0 .556.155 1.001.467 1.332.315.331.716.497 1.203.497.292 0 .588-.074.89-.224.305-.149.56-.377.766-.686.208-.308.313-.701.313-1.178zm6.643-4.514v.994h-3.957v-.994h3.957zm-2.804-1.83h1.173v7.279c0 .331.048.58.145.746a.75.75 0 00.377.328c.156.053.32.079.493.079.129 0 .235-.006.318-.02l.199-.039.238 1.054c-.079.029-.19.059-.333.089-.142.033-.323.05-.542.05a2.37 2.37 0 01-.974-.214 1.946 1.946 0 01-.786-.651c-.205-.292-.308-.66-.308-1.104v-7.597zm7.89 1.83v.994h-3.957v-.994h3.957zm-2.804-1.83h1.173v7.279c0 .331.048.58.145.746a.75.75 0 00.377.328c.156.053.32.079.493.079.129 0 .235-.006.318-.02l.199-.039.238 1.054c-.079.029-.19.059-.333.089-.142.033-.323.05-.542.05a2.37 2.37 0 01-.974-.214 1.946 1.946 0 01-.786-.651c-.205-.292-.308-.66-.308-1.104v-7.597zm7.589 9.625c-.689 0-1.294-.164-1.814-.492a3.338 3.338 0 01-1.213-1.377c-.289-.59-.433-1.279-.433-2.068 0-.796.144-1.49.433-2.083a3.327 3.327 0 011.213-1.382c.52-.328 1.125-.493 1.814-.493.69 0 1.293.165 1.81.493.52.328.925.788 1.213 1.382.292.593.437 1.287.437 2.083 0 .789-.145 1.478-.437 2.068a3.296 3.296 0 01-1.213 1.377c-.517.328-1.12.492-1.81.492zm0-1.054c.524 0 .955-.134 1.293-.402.338-.269.588-.622.751-1.059.162-.438.243-.912.243-1.422 0-.511-.081-.986-.243-1.427a2.411 2.411 0 00-.751-1.069c-.338-.272-.769-.408-1.293-.408-.523 0-.954.136-1.292.408a2.403 2.403 0 00-.751 1.069 4.081 4.081 0 00-.244 1.427c0 .51.081.984.244 1.422.162.437.413.79.751 1.059.338.268.769.402 1.292.402zm6.425-3.698v4.593h-1.174v-7.636h1.134v1.193h.099c.179-.388.451-.699.816-.935.364-.238.835-.358 1.412-.358.517 0 .969.107 1.357.319.388.208.689.527.905.954.215.424.323.961.323 1.611v4.852h-1.173v-4.772c0-.6-.156-1.068-.468-1.402-.311-.339-.739-.508-1.282-.508-.375 0-.71.082-1.005.244a1.742 1.742 0 00-.691.711c-.169.312-.253.689-.253 1.134zm-52.505-90.407h-1.233a2.55 2.55 0 00-.383-.934 2.547 2.547 0 00-.656-.677 2.794 2.794 0 00-.85-.417 3.388 3.388 0 00-.974-.139c-.617 0-1.175.155-1.676.467-.497.312-.893.771-1.188 1.377-.292.607-.438 1.351-.438 2.232 0 .882.146 1.626.438 2.233.295.606.691 1.065 1.188 1.377a3.113 3.113 0 001.676.467c.338 0 .662-.046.974-.139.312-.093.595-.23.85-.413a2.593 2.593 0 001.039-1.616h1.233a4.112 4.112 0 01-.507 1.397c-.245.411-.55.761-.915 1.049a3.978 3.978 0 01-1.228.652c-.45.149-.933.223-1.446.223-.869 0-1.641-.212-2.317-.636-.676-.424-1.208-1.027-1.596-1.81-.388-.782-.582-1.71-.582-2.784 0-1.073.194-2.002.582-2.784.388-.782.92-1.385 1.596-1.809.676-.425 1.448-.637 2.317-.637.513 0 .996.075 1.446.224.454.149.864.368 1.228.656.365.285.67.633.915 1.044.245.408.414.874.507 1.397zm3.007 2.407v4.593h-1.174v-10.182h1.174v3.739h.099c.179-.394.448-.708.806-.94.361-.235.841-.353 1.441-.353.521 0 .976.105 1.367.314a2.1 2.1 0 01.91.949c.219.425.328.965.328 1.621v4.852h-1.173v-4.772c0-.607-.157-1.076-.472-1.407-.312-.335-.744-.503-1.298-.503-.384 0-.729.082-1.034.244-.301.162-.54.399-.716.711-.172.312-.258.689-.258 1.134zm10.3 4.752c-.736 0-1.371-.162-1.905-.487a3.273 3.273 0 01-1.228-1.372c-.285-.59-.427-1.276-.427-2.058 0-.782.142-1.472.427-2.068.289-.6.69-1.068 1.204-1.402.517-.338 1.12-.508 1.809-.508.398 0 .791.067 1.179.199.387.133.74.348 1.058.647.319.295.572.686.761 1.173.189.487.284 1.087.284 1.8v.497h-5.887v-1.014h4.693a2.51 2.51 0 00-.258-1.154 1.943 1.943 0 00-.726-.8c-.312-.196-.679-.294-1.104-.294-.467 0-.871.116-1.213.348a2.288 2.288 0 00-.78.895 2.623 2.623 0 00-.274 1.184v.676c0 .576.1 1.065.299 1.466.202.398.482.701.84.91.358.206.774.308 1.248.308.308 0 .586-.043.835-.129.252-.089.469-.222.651-.398a1.82 1.82 0 00.423-.666l1.133.318c-.119.385-.32.723-.601 1.015a2.95 2.95 0 01-1.044.676c-.415.159-.88.238-1.397.238zm8.049 0c-.716 0-1.333-.169-1.85-.507a3.297 3.297 0 01-1.193-1.397c-.278-.593-.418-1.271-.418-2.033 0-.776.143-1.46.428-2.053a3.367 3.367 0 011.203-1.397c.517-.338 1.12-.508 1.81-.508.537 0 1.021.1 1.451.299.431.199.784.477 1.059.835.275.358.446.776.512 1.253h-1.173c-.089-.348-.288-.656-.596-.925-.305-.272-.716-.408-1.233-.408-.458 0-.859.12-1.204.358-.341.236-.608.569-.8 1-.189.427-.283.929-.283 1.506 0 .59.092 1.104.278 1.541.189.438.454.778.796 1.019.344.242.749.363 1.213.363.305 0 .581-.053.83-.159a1.71 1.71 0 00.631-.457 1.75 1.75 0 00.368-.716h1.173a2.71 2.71 0 01-1.521 2.073c-.424.209-.918.313-1.481.313zm5.811-2.943l-.019-1.452h.238l3.341-3.4h1.452l-3.56 3.599h-.099l-1.353 1.253zm-1.093 2.784v-10.182h1.173v10.182H630.5zm4.852 0l-2.983-3.778.835-.815 3.639 4.593h-1.491zm2.922 0v-10.182h1.173v3.759h.1c.086-.133.205-.302.358-.507.155-.209.377-.395.666-.557.292-.166.686-.249 1.183-.249.643 0 1.21.161 1.7.483.491.321.874.777 1.149 1.367s.412 1.286.412 2.088c0 .809-.137 1.51-.412 2.103-.275.59-.656 1.047-1.144 1.372-.487.322-1.049.482-1.685.482-.491 0-.883-.081-1.178-.243a2.184 2.184 0 01-.681-.562 7.523 7.523 0 01-.368-.527h-.14v1.173h-1.133zm1.153-3.818c0 .577.085 1.086.254 1.526.169.438.416.781.741 1.029.325.246.722.368 1.193.368.49 0 .9-.129 1.228-.387.331-.262.58-.614.746-1.054.169-.444.253-.938.253-1.482 0-.537-.083-1.021-.248-1.452a2.252 2.252 0 00-.741-1.029c-.328-.255-.741-.383-1.238-.383-.477 0-.878.121-1.203.363-.325.239-.57.574-.736 1.005-.166.427-.249.926-.249 1.496zm10.485 3.977c-.689 0-1.294-.164-1.814-.492a3.338 3.338 0 01-1.213-1.377c-.289-.59-.433-1.279-.433-2.068 0-.796.144-1.49.433-2.083a3.327 3.327 0 011.213-1.382c.52-.328 1.125-.493 1.814-.493.69 0 1.293.165 1.81.493.52.328.925.788 1.213 1.382.292.593.438 1.287.438 2.083 0 .789-.146 1.478-.438 2.068a3.296 3.296 0 01-1.213 1.377c-.517.328-1.12.492-1.81.492zm0-1.054c.524 0 .955-.134 1.293-.402.338-.269.588-.622.751-1.059.162-.438.243-.912.243-1.422 0-.511-.081-.986-.243-1.427a2.411 2.411 0 00-.751-1.069c-.338-.272-.769-.408-1.293-.408-.523 0-.954.136-1.292.408a2.411 2.411 0 00-.751 1.069 4.104 4.104 0 00-.243 1.427c0 .51.081.984.243 1.422.163.437.413.79.751 1.059.338.268.769.402 1.292.402zm5.812-6.741l1.83 3.122 1.829-3.122h1.353l-2.466 3.818 2.466 3.818h-1.353l-1.829-2.963-1.83 2.963h-1.352l2.426-3.818-2.426-3.818h1.352zm-59.491-21.364v-10.182h3.44c.796 0 1.449.136 1.959.408.511.269.888.638 1.134 1.109.245.47.368 1.006.368 1.606 0 .6-.123 1.131-.368 1.596-.246.464-.622.828-1.129 1.093-.507.262-1.155.393-1.944.393h-2.784v-1.114h2.744c.544 0 .981-.079 1.313-.238.335-.159.577-.385.726-.676.152-.295.228-.647.228-1.054 0-.408-.076-.764-.228-1.069a1.557 1.557 0 00-.731-.706c-.335-.169-.777-.254-1.327-.254h-2.168v9.088h-1.233zm4.793-4.574l2.505 4.574h-1.432l-2.465-4.574h1.392zm6.25 4.753c-.484 0-.923-.091-1.317-.273a2.263 2.263 0 01-.94-.801c-.232-.351-.348-.775-.348-1.272 0-.438.086-.792.259-1.064.172-.275.402-.491.691-.647.288-.155.606-.271.954-.348.351-.079.704-.142 1.059-.188.464-.06.84-.105 1.129-.135.291-.033.503-.088.636-.164.136-.076.204-.209.204-.398v-.039c0-.491-.134-.872-.403-1.144-.265-.272-.668-.407-1.208-.407-.56 0-.999.122-1.317.367-.319.246-.542.508-.672.786l-1.113-.398c.199-.464.464-.825.795-1.084.335-.261.7-.444 1.094-.546.398-.106.789-.16 1.173-.16.246 0 .527.03.845.09.322.056.632.174.93.353.302.179.552.449.751.81.199.362.298.845.298 1.452v5.031h-1.173v-1.034h-.06a2.042 2.042 0 01-.398.532c-.185.189-.432.35-.74.482-.309.133-.685.199-1.129.199zm.179-1.054c.464 0 .855-.091 1.173-.273.322-.182.564-.418.726-.706.166-.288.249-.592.249-.91V204.9c-.05.06-.159.115-.328.164a5.516 5.516 0 01-.577.125 24.454 24.454 0 01-1.124.149c-.305.039-.59.104-.855.194a1.473 1.473 0 00-.636.392c-.159.173-.239.408-.239.706 0 .408.151.716.453.925.305.206.691.308 1.158.308zm8.346 1.034c-.636 0-1.198-.16-1.685-.482-.487-.325-.869-.782-1.144-1.372-.275-.593-.412-1.294-.412-2.103 0-.802.137-1.498.412-2.088.275-.59.658-1.046 1.149-1.367.49-.322 1.057-.483 1.7-.483.497 0 .89.083 1.178.249.292.162.514.348.666.557.156.205.277.374.363.507h.1v-3.759h1.173v10.182h-1.133v-1.173h-.14a7.456 7.456 0 01-.367.527 2.2 2.2 0 01-.682.562c-.295.162-.687.243-1.178.243zm.159-1.054c.471 0 .869-.122 1.193-.368.325-.248.572-.591.741-1.029.169-.44.254-.949.254-1.526 0-.57-.083-1.069-.249-1.496-.166-.431-.411-.766-.736-1.005-.324-.242-.725-.363-1.203-.363-.497 0-.911.128-1.243.383a2.287 2.287 0 00-.74 1.029 4.08 4.08 0 00-.244 1.452c0 .544.083 1.038.249 1.482.169.44.417.792.745 1.054.332.258.743.387 1.233.387zm5.653.895v-7.636h1.173v7.636h-1.173zm.597-8.909a.838.838 0 01-.592-.233.75.75 0 01-.244-.562.75.75 0 01.244-.562.834.834 0 01.592-.234c.228 0 .424.078.586.234a.744.744 0 01.249.562.745.745 0 01-.249.562.819.819 0 01-.586.233zm5.827 9.068c-.689 0-1.294-.164-1.814-.492a3.338 3.338 0 01-1.213-1.377c-.289-.59-.433-1.279-.433-2.068 0-.796.144-1.49.433-2.083a3.327 3.327 0 011.213-1.382c.52-.328 1.125-.493 1.814-.493.69 0 1.293.165 1.81.493.52.328.925.788 1.213 1.382.292.593.438 1.287.438 2.083 0 .789-.146 1.478-.438 2.068a3.296 3.296 0 01-1.213 1.377c-.517.328-1.12.492-1.81.492zm0-1.054c.524 0 .955-.134 1.293-.402.338-.269.588-.622.751-1.059.162-.438.243-.912.243-1.422 0-.511-.081-.986-.243-1.427a2.411 2.411 0 00-.751-1.069c-.338-.272-.769-.408-1.293-.408-.523 0-.954.136-1.292.408a2.411 2.411 0 00-.751 1.069 4.104 4.104 0 00-.243 1.427c0 .51.081.984.243 1.422.163.437.413.79.751 1.059.338.268.769.402 1.292.402zm-26.236 51.259a1.558 1.558 0 00-.726-1.173c-.424-.279-.944-.418-1.561-.418-.451 0-.845.073-1.183.219a1.892 1.892 0 00-.786.601 1.449 1.449 0 00-.278.87c0 .272.065.506.194.701.133.193.302.353.507.483.206.126.421.23.646.313.226.079.433.144.622.194l1.034.278c.265.07.56.166.885.288.328.123.641.29.939.503.302.208.551.477.746.805.196.328.294.731.294 1.208 0 .55-.145 1.047-.433 1.492-.285.444-.703.797-1.253 1.059-.547.261-1.211.392-1.993.392-.73 0-1.361-.117-1.895-.353-.53-.235-.948-.563-1.252-.984a2.809 2.809 0 01-.513-1.467h1.273c.033.385.163.703.388.955.229.248.517.434.865.557a3.51 3.51 0 001.134.179c.47 0 .893-.077 1.267-.229.375-.156.671-.371.89-.646.219-.279.328-.604.328-.975 0-.338-.094-.613-.283-.825a2.078 2.078 0 00-.746-.517 7.687 7.687 0 00-.999-.348l-1.253-.358c-.795-.229-1.425-.555-1.889-.98-.464-.424-.696-.979-.696-1.665 0-.57.154-1.067.462-1.491a3.075 3.075 0 011.253-.995 4.24 4.24 0 011.765-.358c.656 0 1.24.118 1.75.353.51.232.915.55 1.213.955.302.404.461.863.477 1.377h-1.193zm6.402 7.795c-.735 0-1.37-.162-1.904-.487a3.273 3.273 0 01-1.228-1.372c-.285-.59-.427-1.276-.427-2.058 0-.782.142-1.472.427-2.068.289-.6.69-1.068 1.203-1.402.517-.338 1.121-.508 1.81-.508.398 0 .79.067 1.178.199.388.133.741.348 1.059.647.318.295.572.686.761 1.173.189.487.283 1.087.283 1.8v.497h-5.886v-1.014h4.693a2.51 2.51 0 00-.258-1.154 1.95 1.95 0 00-.726-.8c-.312-.196-.68-.294-1.104-.294-.467 0-.872.116-1.213.348a2.298 2.298 0 00-.781.895 2.636 2.636 0 00-.273 1.184v.676c0 .576.099 1.065.298 1.466.202.398.482.701.84.91.358.206.774.308 1.248.308.309 0 .587-.043.836-.129.251-.089.469-.222.651-.398.182-.179.323-.401.422-.666l1.134.318a2.51 2.51 0 01-.602 1.015 2.932 2.932 0 01-1.044.676c-.414.159-.88.238-1.397.238zm6.12-10.341v10.182h-1.173v-10.182h1.173zm5.351 10.341c-.736 0-1.37-.162-1.904-.487a3.267 3.267 0 01-1.228-1.372c-.285-.59-.428-1.276-.428-2.058 0-.782.143-1.472.428-2.068.288-.6.689-1.068 1.203-1.402.517-.338 1.12-.508 1.81-.508.397 0 .79.067 1.178.199.388.133.741.348 1.059.647.318.295.572.686.761 1.173.188.487.283 1.087.283 1.8v.497h-5.886v-1.014h4.693c0-.431-.086-.816-.259-1.154a1.943 1.943 0 00-.726-.8c-.311-.196-.679-.294-1.103-.294-.468 0-.872.116-1.213.348a2.29 2.29 0 00-.781.895 2.636 2.636 0 00-.273 1.184v.676c0 .576.099 1.065.298 1.466.202.398.482.701.84.91.358.206.774.308 1.248.308.308 0 .587-.043.835-.129.252-.089.469-.222.652-.398.182-.179.323-.401.422-.666l1.134.318a2.52 2.52 0 01-.602 1.015 2.95 2.95 0 01-1.044.676c-.414.159-.88.238-1.397.238zm8.049 0c-.716 0-1.332-.169-1.849-.507a3.306 3.306 0 01-1.194-1.397c-.278-.593-.417-1.271-.417-2.033 0-.776.142-1.46.427-2.053.289-.597.69-1.063 1.203-1.397.518-.338 1.121-.508 1.81-.508.537 0 1.021.1 1.452.299.431.199.784.477 1.059.835.275.358.446.776.512 1.253h-1.173c-.09-.348-.289-.656-.597-.925-.305-.272-.716-.408-1.233-.408-.457 0-.858.12-1.203.358-.341.236-.608.569-.801 1-.188.427-.283.929-.283 1.506 0 .59.093 1.104.278 1.541.189.438.455.778.796 1.019.345.242.749.363 1.213.363.305 0 .582-.053.83-.159.249-.106.459-.258.632-.457.172-.199.295-.438.368-.716h1.173a2.71 2.71 0 01-1.521 2.073c-.425.209-.919.313-1.482.313zm8.039-7.795v.994h-3.957v-.994h3.957zm-2.804-1.83h1.173v7.279c0 .331.048.58.145.746a.75.75 0 00.377.328c.156.053.32.079.493.079.129 0 .235-.006.318-.02l.199-.039.238 1.054c-.079.029-.19.059-.333.089-.142.033-.323.05-.542.05a2.37 2.37 0 01-.974-.214 1.946 1.946 0 01-.786-.651c-.205-.292-.308-.66-.308-1.104v-7.597zm-51.725 40.466v-10.182h1.233v9.089h4.733v1.093h-5.966zm9.963.179c-.484 0-.923-.091-1.317-.273a2.263 2.263 0 01-.94-.801c-.232-.351-.348-.775-.348-1.272 0-.438.086-.792.258-1.064.173-.275.403-.491.691-.647a3.7 3.7 0 01.955-.348c.351-.079.704-.142 1.059-.188.464-.06.84-.105 1.129-.135.291-.033.503-.088.636-.164.136-.076.204-.209.204-.398v-.039c0-.491-.135-.872-.403-1.144-.265-.272-.668-.407-1.208-.407-.56 0-.999.122-1.318.367-.318.246-.541.508-.671.786l-1.113-.398c.199-.464.464-.825.795-1.084a2.979 2.979 0 011.094-.546c.398-.106.789-.16 1.173-.16.245 0 .527.03.845.09.322.056.632.174.93.353.302.179.552.449.751.81.199.362.298.845.298 1.452v5.031h-1.173v-1.034h-.06a2.042 2.042 0 01-.398.532c-.185.189-.432.35-.74.482-.309.133-.685.199-1.129.199zm.179-1.054c.464 0 .855-.091 1.173-.273.322-.182.564-.418.726-.706.166-.288.249-.592.249-.91V293.9c-.05.06-.159.115-.328.164a5.516 5.516 0 01-.577.125 25.086 25.086 0 01-1.124.149c-.305.039-.59.104-.855.194a1.473 1.473 0 00-.636.392c-.159.173-.239.408-.239.706 0 .408.151.716.453.925.305.206.691.308 1.158.308zm5.622.875v-10.182h1.173v3.759h.099c.087-.133.206-.302.358-.507a2.09 2.09 0 01.667-.557c.291-.166.686-.249 1.183-.249.643 0 1.209.161 1.7.483.491.321.873.777 1.148 1.367.276.59.413 1.286.413 2.088 0 .809-.137 1.51-.413 2.103-.275.59-.656 1.047-1.143 1.372-.487.322-1.049.482-1.685.482-.491 0-.884-.081-1.179-.243a2.184 2.184 0 01-.681-.562 7.881 7.881 0 01-.368-.527h-.139v1.173h-1.133zm1.153-3.818c0 .577.085 1.086.254 1.526.169.438.416.781.74 1.029.325.246.723.368 1.194.368.49 0 .899-.129 1.228-.387.331-.262.58-.614.745-1.054.169-.444.254-.938.254-1.482 0-.537-.083-1.021-.249-1.452a2.238 2.238 0 00-.741-1.029c-.328-.255-.74-.383-1.237-.383-.478 0-.879.121-1.204.363-.324.239-.57.574-.735 1.005-.166.427-.249.926-.249 1.496zm10.585 3.977c-.736 0-1.371-.162-1.905-.487a3.273 3.273 0 01-1.228-1.372c-.285-.59-.427-1.276-.427-2.058 0-.782.142-1.472.427-2.068.289-.6.69-1.068 1.204-1.402.517-.338 1.12-.508 1.809-.508.398 0 .791.067 1.179.199.387.133.74.348 1.058.647.319.295.572.686.761 1.173.189.487.283 1.087.283 1.8v.497h-5.886v-1.014h4.693a2.51 2.51 0 00-.258-1.154 1.943 1.943 0 00-.726-.8c-.312-.196-.68-.294-1.104-.294-.467 0-.871.116-1.213.348a2.288 2.288 0 00-.78.895 2.623 2.623 0 00-.274 1.184v.676c0 .576.1 1.065.298 1.466.203.398.483.701.841.91.358.206.774.308 1.248.308.308 0 .586-.043.835-.129.252-.089.469-.222.651-.398a1.82 1.82 0 00.423-.666l1.133.318c-.119.385-.32.723-.601 1.015a2.95 2.95 0 01-1.044.676c-.415.159-.88.238-1.397.238zm6.12-10.341v10.182h-1.174v-10.182h1.174zm29.821 1.725v-1.094h7.636v1.094h-3.201v9.088h-1.233v-9.088h-3.202zm10.588 9.267c-.484 0-.923-.091-1.317-.273a2.263 2.263 0 01-.94-.801c-.232-.351-.348-.775-.348-1.272 0-.438.086-.793.259-1.064.172-.275.402-.491.691-.647.288-.155.606-.271.954-.348.352-.079.705-.142 1.059-.189.464-.059.841-.104 1.129-.134.292-.033.504-.088.636-.164.136-.076.204-.209.204-.398v-.039c0-.491-.134-.872-.403-1.144-.265-.272-.667-.408-1.208-.408-.56 0-.999.123-1.317.368-.318.246-.542.507-.671.786l-1.114-.398c.199-.464.464-.825.795-1.084.335-.262.7-.444 1.094-.547a4.547 4.547 0 011.174-.159c.245 0 .527.03.845.09.321.056.631.174.929.353.302.179.552.449.751.81.199.361.298.845.298 1.452v5.031h-1.173v-1.034h-.06a2.059 2.059 0 01-.397.532c-.186.189-.433.35-.741.482-.308.133-.684.199-1.129.199zm.179-1.054c.464 0 .855-.091 1.174-.273.321-.183.563-.418.726-.706.165-.289.248-.592.248-.91v-1.074c-.05.06-.159.114-.328.164a5.287 5.287 0 01-.577.124 24.54 24.54 0 01-1.123.15c-.305.039-.59.104-.855.193a1.494 1.494 0 00-.637.393c-.159.173-.238.408-.238.706 0 .408.15.716.452.925.305.205.691.308 1.158.308zm5.622.875v-10.182h1.173v3.759h.1c.086-.133.205-.302.358-.507.155-.209.378-.395.666-.557.292-.166.686-.249 1.183-.249.643 0 1.21.161 1.7.483.491.321.874.777 1.149 1.367s.412 1.286.412 2.088c0 .809-.137 1.51-.412 2.103-.275.59-.656 1.047-1.144 1.372-.487.321-1.049.482-1.685.482-.491 0-.883-.081-1.178-.243a2.184 2.184 0 01-.681-.562 7.523 7.523 0 01-.368-.527h-.139v1.173h-1.134zm1.153-3.818c0 .577.085 1.085.254 1.526.169.438.416.781.741 1.029.325.246.722.368 1.193.368.49 0 .9-.129 1.228-.388.331-.261.58-.613.746-1.054.169-.444.253-.937.253-1.481 0-.537-.083-1.021-.248-1.452a2.252 2.252 0 00-.741-1.029c-.328-.255-.741-.383-1.238-.383-.477 0-.878.121-1.203.363-.325.239-.57.574-.736 1.005-.166.427-.249.926-.249 1.496zm35.015 21.187v-10.182h1.233v9.089h4.733v1.093h-5.966zm7.716 0v-7.636h1.173v7.636h-1.173zm.596-8.909a.837.837 0 01-.591-.233.75.75 0 01-.244-.562.75.75 0 01.244-.562.834.834 0 01.591-.234c.229 0 .425.078.587.234a.744.744 0 01.249.562.745.745 0 01-.249.562.82.82 0 01-.587.233zm8.135 2.983l-1.054.298a1.97 1.97 0 00-.293-.512 1.417 1.417 0 00-.517-.417c-.219-.11-.499-.164-.84-.164-.468 0-.857.107-1.169.323-.308.212-.462.482-.462.81 0 .292.106.522.318.691.212.169.544.31.994.423l1.134.278c.683.166 1.192.42 1.526.761.335.338.502.774.502 1.307 0 .438-.126.829-.377 1.174-.249.344-.597.616-1.044.815-.448.199-.968.298-1.562.298-.778 0-1.423-.169-1.933-.507-.511-.338-.834-.832-.97-1.481l1.114-.279c.106.411.306.72.601.925.299.206.688.308 1.169.308.546 0 .981-.116 1.302-.348.325-.235.487-.517.487-.845a.886.886 0 00-.278-.666c-.186-.182-.471-.318-.855-.408l-1.273-.298c-.699-.166-1.213-.423-1.541-.771-.325-.351-.487-.79-.487-1.317 0-.431.121-.812.363-1.144a2.47 2.47 0 01.999-.78 3.508 3.508 0 011.442-.284c.755 0 1.349.166 1.78.498.434.331.742.769.924 1.312zm5.227-1.71v.994h-3.958v-.994h3.958zm-2.804-1.83h1.173v7.279c0 .331.048.58.144.746.1.162.225.271.378.328.156.053.32.079.492.079.129 0 .235-.006.318-.02l.199-.039.239 1.054a2.59 2.59 0 01-.875.139c-.332 0-.656-.072-.975-.214a1.95 1.95 0 01-.785-.651c-.206-.292-.308-.66-.308-1.104v-7.597zm-21.677-75.534h-1.233a2.55 2.55 0 00-.383-.934 2.547 2.547 0 00-.656-.677 2.794 2.794 0 00-.85-.417 3.388 3.388 0 00-.974-.139c-.617 0-1.175.155-1.676.467-.497.312-.893.771-1.188 1.377-.292.607-.438 1.351-.438 2.232 0 .882.146 1.626.438 2.233.295.606.691 1.065 1.188 1.377a3.113 3.113 0 001.676.467c.338 0 .662-.046.974-.139.312-.093.595-.23.85-.413a2.593 2.593 0 001.039-1.616h1.233a4.112 4.112 0 01-.507 1.397c-.245.411-.55.761-.915 1.049a3.978 3.978 0 01-1.228.652c-.45.149-.933.223-1.446.223-.869 0-1.641-.212-2.317-.636-.676-.424-1.208-1.027-1.596-1.81-.388-.782-.582-1.71-.582-2.784 0-1.073.194-2.002.582-2.784.388-.782.92-1.385 1.596-1.809.676-.425 1.448-.637 2.317-.637.513 0 .996.075 1.446.224.454.149.864.368 1.228.656.365.285.67.633.915 1.044.245.408.414.874.507 1.397zm4.081 7.179c-.484 0-.923-.091-1.318-.273a2.269 2.269 0 01-.94-.801c-.232-.351-.348-.775-.348-1.272 0-.438.087-.792.259-1.064.172-.275.403-.491.691-.647.288-.155.607-.271.955-.348.351-.079.704-.142 1.059-.188.464-.06.84-.105 1.128-.135.292-.033.504-.088.636-.164.136-.076.204-.209.204-.398v-.039c0-.491-.134-.872-.402-1.144-.266-.272-.668-.407-1.209-.407-.56 0-.999.122-1.317.367-.318.246-.542.508-.671.786l-1.114-.398c.199-.464.464-.825.796-1.084a2.975 2.975 0 011.093-.546 4.55 4.55 0 011.174-.16c.245 0 .527.03.845.09.321.056.631.174.93.353.301.179.551.449.75.81.199.362.299.845.299 1.452v5.031h-1.174v-1.034h-.059c-.08.166-.213.343-.398.532-.186.189-.433.35-.741.482-.308.133-.684.199-1.128.199zm.179-1.054c.464 0 .855-.091 1.173-.273a1.87 1.87 0 00.726-.706c.165-.288.248-.592.248-.91V233.9c-.049.06-.159.115-.328.164a5.516 5.516 0 01-.577.125 23.852 23.852 0 01-1.123.149c-.305.039-.59.104-.855.194a1.482 1.482 0 00-.637.392c-.159.173-.238.408-.238.706 0 .408.151.716.452.925.305.206.691.308 1.159.308zm5.462.875v-7.636h1.134v1.153h.079c.139-.378.391-.684.756-.919a2.216 2.216 0 011.233-.353 10.33 10.33 0 01.616.019v1.194a3.506 3.506 0 00-.273-.045 2.715 2.715 0 00-.443-.035c-.371 0-.702.078-.994.234a1.714 1.714 0 00-.935 1.556v4.832h-1.173zm7.86.159c-.636 0-1.198-.16-1.685-.482-.487-.325-.869-.782-1.144-1.372-.275-.593-.412-1.294-.412-2.103 0-.802.137-1.498.412-2.088.275-.59.658-1.046 1.149-1.367.49-.322 1.057-.483 1.7-.483.497 0 .89.083 1.178.249.292.162.514.348.667.557.155.205.276.374.362.507h.1v-3.759h1.173v10.182h-1.133v-1.173h-.14a7.456 7.456 0 01-.367.527 2.2 2.2 0 01-.682.562c-.295.162-.687.243-1.178.243zm.159-1.054c.471 0 .869-.122 1.193-.368.325-.248.572-.591.741-1.029.169-.44.254-.949.254-1.526 0-.57-.083-1.069-.249-1.496-.166-.431-.411-.766-.736-1.005-.324-.242-.725-.363-1.203-.363-.497 0-.911.128-1.243.383a2.287 2.287 0 00-.74 1.029 4.08 4.08 0 00-.244 1.452c0 .544.083 1.038.249 1.482.169.44.417.792.745 1.054.332.258.743.387 1.233.387zm62.259 22.895h-1.233a2.55 2.55 0 00-.383-.934 2.547 2.547 0 00-.656-.677 2.794 2.794 0 00-.85-.417 3.388 3.388 0 00-.974-.139c-.617 0-1.175.155-1.676.467-.497.312-.893.771-1.188 1.377-.292.607-.438 1.351-.438 2.232 0 .882.146 1.626.438 2.233.295.606.691 1.065 1.188 1.377a3.113 3.113 0 001.676.467c.338 0 .662-.046.974-.139.312-.093.595-.23.85-.413a2.593 2.593 0 001.039-1.616h1.233a4.112 4.112 0 01-.507 1.397c-.245.411-.55.761-.915 1.049a3.978 3.978 0 01-1.228.652c-.45.149-.933.223-1.446.223-.869 0-1.641-.212-2.317-.636-.676-.424-1.208-1.027-1.596-1.81-.388-.782-.582-1.71-.582-2.784 0-1.073.194-2.002.582-2.784.388-.782.92-1.385 1.596-1.809.676-.425 1.448-.637 2.317-.637.513 0 .996.075 1.446.224.454.149.864.368 1.228.656.365.285.67.633.915 1.044.245.408.414.874.507 1.397zm4.081 7.179c-.484 0-.923-.091-1.318-.273a2.269 2.269 0 01-.94-.801c-.232-.351-.348-.775-.348-1.272 0-.438.087-.792.259-1.064.172-.275.403-.491.691-.647.288-.155.607-.271.955-.348.351-.079.704-.142 1.059-.188.464-.06.84-.105 1.128-.135.292-.033.504-.088.636-.164.136-.076.204-.209.204-.398v-.039c0-.491-.134-.872-.402-1.144-.266-.272-.668-.407-1.209-.407-.56 0-.999.122-1.317.367-.318.246-.542.508-.671.786l-1.114-.398c.199-.464.464-.825.796-1.084a2.975 2.975 0 011.093-.546 4.55 4.55 0 011.174-.16c.245 0 .527.03.845.09.321.056.631.174.93.353.301.179.551.449.75.81.199.362.299.845.299 1.452v5.031h-1.174v-1.034h-.059c-.08.166-.213.343-.398.532-.186.189-.433.35-.741.482-.308.133-.684.199-1.128.199zm.179-1.054c.464 0 .855-.091 1.173-.273a1.87 1.87 0 00.726-.706c.165-.288.248-.592.248-.91V262.9c-.049.06-.159.115-.328.164a5.516 5.516 0 01-.577.125 23.852 23.852 0 01-1.123.149c-.305.039-.59.104-.855.194a1.482 1.482 0 00-.637.392c-.159.173-.238.408-.238.706 0 .408.151.716.452.925.305.206.691.308 1.159.308zm5.462.875v-7.636h1.134v1.153h.079c.139-.378.391-.684.756-.919a2.216 2.216 0 011.233-.353 10.33 10.33 0 01.616.019v1.194a3.506 3.506 0 00-.273-.045 2.715 2.715 0 00-.443-.035c-.371 0-.702.078-.994.234a1.714 1.714 0 00-.935 1.556v4.832h-1.173zm8.079.159c-.689 0-1.294-.164-1.815-.492a3.345 3.345 0 01-1.213-1.377c-.288-.59-.432-1.279-.432-2.068 0-.796.144-1.49.432-2.083a3.334 3.334 0 011.213-1.382c.521-.328 1.126-.493 1.815-.493.689 0 1.293.165 1.81.493.52.328.924.788 1.213 1.382.291.593.437 1.287.437 2.083 0 .789-.146 1.478-.437 2.068a3.303 3.303 0 01-1.213 1.377c-.517.328-1.121.492-1.81.492zm0-1.054c.524 0 .954-.134 1.293-.402.338-.269.588-.622.75-1.059.163-.438.244-.912.244-1.422 0-.511-.081-.986-.244-1.427a2.401 2.401 0 00-.75-1.069c-.339-.272-.769-.408-1.293-.408-.524 0-.955.136-1.293.408a2.401 2.401 0 00-.75 1.069 4.081 4.081 0 00-.244 1.427c0 .51.081.984.244 1.422.162.437.412.79.75 1.059.338.268.769.402 1.293.402zm10.064-2.227v-4.514h1.173v7.636h-1.173v-1.292h-.08a2.51 2.51 0 01-.835.989c-.378.268-.855.403-1.432.403-.477 0-.901-.105-1.273-.313a2.2 2.2 0 01-.875-.955c-.212-.428-.318-.966-.318-1.616v-4.852h1.173v4.773c0 .556.156 1.001.468 1.332.315.331.716.497 1.203.497.292 0 .588-.074.89-.224.305-.149.56-.377.765-.686.209-.308.314-.701.314-1.178zm8.731-2.804l-1.054.298a1.97 1.97 0 00-.293-.512 1.425 1.425 0 00-.517-.417c-.219-.11-.499-.164-.841-.164-.467 0-.856.107-1.168.323-.308.212-.462.482-.462.81 0 .292.106.522.318.691.212.169.544.31.994.423l1.134.278c.683.166 1.191.42 1.526.761.335.338.502.774.502 1.307 0 .438-.126.829-.378 1.174-.248.344-.596.616-1.044.815-.447.199-.967.298-1.561.298-.779 0-1.423-.169-1.934-.507-.51-.338-.833-.832-.969-1.481l1.113-.279c.107.411.307.72.602.925.298.206.688.308 1.168.308.547 0 .981-.116 1.303-.348.325-.235.487-.517.487-.845a.89.89 0 00-.278-.666c-.186-.182-.471-.318-.855-.408l-1.273-.298c-.699-.166-1.213-.423-1.541-.771-.325-.351-.488-.79-.488-1.317 0-.431.121-.812.363-1.144a2.48 2.48 0 011-.78 3.506 3.506 0 011.441-.284c.756 0 1.349.166 1.78.498.434.331.743.769.925 1.312zm5.107 6.085c-.736 0-1.37-.162-1.904-.487a3.267 3.267 0 01-1.228-1.372c-.285-.59-.428-1.276-.428-2.058 0-.782.143-1.472.428-2.068.288-.6.689-1.068 1.203-1.402.517-.338 1.12-.508 1.81-.508.397 0 .79.067 1.178.199.388.133.741.348 1.059.647.318.295.572.686.761 1.173.189.487.283 1.087.283 1.8v.497h-5.886v-1.014h4.693c0-.431-.086-.816-.259-1.154a1.943 1.943 0 00-.726-.8c-.311-.196-.679-.294-1.103-.294-.468 0-.872.116-1.213.348a2.29 2.29 0 00-.781.895 2.636 2.636 0 00-.273 1.184v.676c0 .576.099 1.065.298 1.466.202.398.482.701.84.91.358.206.774.308 1.248.308.308 0 .587-.043.835-.129.252-.089.469-.222.652-.398.182-.179.323-.401.422-.666l1.134.318a2.52 2.52 0 01-.602 1.015 2.95 2.95 0 01-1.044.676c-.414.159-.88.238-1.397.238zm6.12-10.341v10.182h-1.173v-10.182h1.173zm-195.016-77.818v-10.182h3.56c.709 0 1.294.123 1.755.368.46.242.803.569 1.029.98.225.407.338.86.338 1.357 0 .438-.078.799-.234 1.084-.152.285-.355.51-.606.676a2.77 2.77 0 01-.811.368v.099c.312.02.625.13.94.328.315.199.578.484.79.856.212.371.318.825.318 1.362 0 .51-.116.969-.348 1.377-.232.408-.598.731-1.098.969-.501.239-1.152.358-1.954.358h-3.679zm1.233-1.093h2.446c.805 0 1.377-.156 1.715-.468.342-.315.512-.696.512-1.143 0-.345-.088-.663-.263-.955a1.91 1.91 0 00-.751-.706c-.325-.179-.709-.268-1.153-.268h-2.506v3.54zm0-4.614h2.287c.371 0 .706-.073 1.004-.219.302-.146.54-.351.716-.616a1.63 1.63 0 00.268-.935c0-.447-.155-.827-.467-1.138-.311-.315-.805-.473-1.481-.473h-2.327v3.381zm7.713 5.707v-7.636h1.134v1.153h.079c.14-.378.391-.684.756-.919a2.22 2.22 0 011.233-.353 10.33 10.33 0 01.617.019v1.194a3.474 3.474 0 00-.274-.045 2.712 2.712 0 00-.442-.035c-.372 0-.703.078-.995.234a1.759 1.759 0 00-.686.636 1.714 1.714 0 00-.248.92v4.832h-1.174zm8.179.159c-.736 0-1.371-.162-1.905-.487a3.273 3.273 0 01-1.228-1.372c-.285-.59-.427-1.276-.427-2.058 0-.782.142-1.472.427-2.068.289-.6.69-1.068 1.204-1.402.517-.338 1.12-.508 1.809-.508.398 0 .791.067 1.179.199.387.133.74.348 1.058.647.319.295.572.686.761 1.173.189.487.284 1.087.284 1.8v.497h-5.887v-1.014h4.693a2.51 2.51 0 00-.258-1.154 1.943 1.943 0 00-.726-.8c-.312-.196-.679-.294-1.104-.294-.467 0-.871.116-1.213.348a2.288 2.288 0 00-.78.895 2.623 2.623 0 00-.274 1.184v.676c0 .576.1 1.065.299 1.466.202.398.482.701.84.91.358.206.774.308 1.248.308.308 0 .586-.043.835-.129.252-.089.469-.222.651-.398a1.82 1.82 0 00.423-.666l1.133.318c-.119.385-.32.723-.601 1.015a2.95 2.95 0 01-1.044.676c-.415.159-.88.238-1.397.238zm7.193.02c-.483 0-.923-.091-1.317-.273a2.269 2.269 0 01-.94-.801c-.232-.351-.348-.775-.348-1.272 0-.438.087-.792.259-1.064.172-.275.403-.491.691-.647.288-.155.606-.271.954-.348.352-.079.705-.142 1.059-.188a47.8 47.8 0 011.129-.135c.292-.033.504-.088.636-.164.136-.076.204-.209.204-.398v-.039c0-.491-.134-.872-.403-1.144-.265-.272-.667-.407-1.208-.407-.56 0-.999.122-1.317.367-.318.246-.542.508-.671.786l-1.114-.398c.199-.464.464-.825.796-1.084a2.975 2.975 0 011.093-.546 4.55 4.55 0 011.174-.16c.245 0 .527.03.845.09.321.056.631.174.929.353.302.179.552.449.751.81.199.362.298.845.298 1.452v5.031h-1.173v-1.034h-.059c-.08.166-.213.343-.398.532-.186.189-.433.35-.741.482-.308.133-.684.199-1.129.199zm.179-1.054c.464 0 .856-.091 1.174-.273a1.87 1.87 0 00.726-.706c.165-.288.248-.592.248-.91V174.9c-.05.06-.159.115-.328.164a5.516 5.516 0 01-.577.125 24.454 24.454 0 01-1.123.149c-.305.039-.59.104-.855.194a1.482 1.482 0 00-.637.392c-.159.173-.238.408-.238.706 0 .408.15.716.452.925.305.206.691.308 1.158.308zm8.347 1.034c-.637 0-1.199-.16-1.686-.482-.487-.325-.868-.782-1.143-1.372-.275-.593-.413-1.294-.413-2.103 0-.802.138-1.498.413-2.088.275-.59.658-1.046 1.148-1.367.491-.322 1.057-.483 1.7-.483.498 0 .89.083 1.179.249.291.162.513.348.666.557.156.205.277.374.363.507h.099v-3.759h1.174v10.182h-1.134v-1.173h-.139a7.523 7.523 0 01-.368.527 2.184 2.184 0 01-.681.562c-.295.162-.688.243-1.178.243zm.159-1.054c.47 0 .868-.122 1.193-.368.325-.248.572-.591.741-1.029.169-.44.253-.949.253-1.526 0-.57-.083-1.069-.248-1.496-.166-.431-.411-.766-.736-1.005-.325-.242-.726-.363-1.203-.363-.498 0-.912.128-1.243.383a2.296 2.296 0 00-.741 1.029 4.102 4.102 0 00-.244 1.452c0 .544.083 1.038.249 1.482.169.44.418.792.746 1.054.331.258.742.387 1.233.387zm8.755 1.054c-.716 0-1.333-.169-1.85-.507a3.297 3.297 0 01-1.193-1.397c-.278-.593-.418-1.271-.418-2.033 0-.776.143-1.46.428-2.053a3.367 3.367 0 011.203-1.397c.517-.338 1.12-.508 1.81-.508.537 0 1.021.1 1.451.299.431.199.784.477 1.059.835.275.358.446.776.512 1.253h-1.173c-.089-.348-.288-.656-.596-.925-.305-.272-.716-.408-1.233-.408-.458 0-.859.12-1.204.358-.341.236-.608.569-.8 1-.189.427-.283.929-.283 1.506 0 .59.092 1.104.278 1.541.189.438.454.778.796 1.019.344.242.749.363 1.213.363.305 0 .581-.053.83-.159a1.71 1.71 0 00.631-.457 1.75 1.75 0 00.368-.716h1.173a2.71 2.71 0 01-1.521 2.073c-.424.209-.918.313-1.481.313zm4.718-.159v-7.636h1.133v1.153h.08a1.83 1.83 0 01.755-.919 2.22 2.22 0 011.233-.353 10.287 10.287 0 01.617.019v1.194a3.474 3.474 0 00-.274-.045 2.703 2.703 0 00-.442-.035c-.371 0-.703.078-.994.234a1.714 1.714 0 00-.935 1.556v4.832h-1.173zm10.021-3.122v-4.514h1.173v7.636h-1.173v-1.292h-.079a2.512 2.512 0 01-.836.989c-.377.268-.855.403-1.431.403-.478 0-.902-.105-1.273-.313a2.2 2.2 0 01-.875-.955c-.212-.428-.318-.966-.318-1.616v-4.852h1.173v4.773c0 .556.156 1.001.467 1.332.315.331.716.497 1.203.497.292 0 .589-.074.89-.224.305-.149.56-.377.766-.686.209-.308.313-.701.313-1.178zm3.322 3.122v-7.636h1.134v1.193h.099c.159-.408.416-.724.771-.949.355-.229.78-.344 1.278-.344.503 0 .923.115 1.257.344.339.225.602.541.791.949h.079c.196-.394.489-.708.88-.94.392-.235.861-.353 1.407-.353.683 0 1.242.214 1.676.642.434.424.651 1.085.651 1.983v5.111h-1.173v-5.111c0-.563-.154-.966-.463-1.208a1.71 1.71 0 00-1.088-.363c-.537 0-.953.163-1.248.488-.295.321-.443.729-.443 1.223v4.971h-1.193v-5.23c0-.434-.141-.784-.422-1.049-.282-.268-.645-.403-1.089-.403-.305 0-.59.082-.855.244a1.844 1.844 0 00-.637.676 1.998 1.998 0 00-.238.99v4.772h-1.174zm12.327 0v-10.182h1.174v3.759h.099c.086-.133.206-.302.358-.507.156-.209.378-.395.666-.557.292-.166.686-.249 1.184-.249.643 0 1.209.161 1.7.483.49.321.873.777 1.148 1.367.275.59.413 1.286.413 2.088 0 .809-.138 1.51-.413 2.103-.275.59-.656 1.047-1.143 1.372-.487.322-1.049.482-1.686.482-.49 0-.883-.081-1.178-.243a2.184 2.184 0 01-.681-.562 7.523 7.523 0 01-.368-.527h-.139v1.173h-1.134zm1.154-3.818c0 .577.084 1.086.253 1.526.169.438.416.781.741 1.029.325.246.723.368 1.193.368.491 0 .9-.129 1.228-.387.332-.262.58-.614.746-1.054.169-.444.254-.938.254-1.482 0-.537-.083-1.021-.249-1.452a2.238 2.238 0 00-.741-1.029c-.328-.255-.74-.383-1.238-.383-.477 0-.878.121-1.203.363-.325.239-.57.574-.736 1.005-.165.427-.248.926-.248 1.496zm-118.882-25.182h-1.293l3.739-10.182h1.272l3.739 10.182h-1.293l-3.042-8.571h-.08l-3.042 8.571zm.477-3.977h5.21v1.094h-5.21v-1.094zm13.694-3.659l-2.824 7.636h-1.193l-2.824-7.636h1.273l2.108 6.085h.079l2.108-6.085h1.273zm3.563 7.815c-.483 0-.923-.091-1.317-.273a2.269 2.269 0 01-.94-.801c-.232-.351-.348-.775-.348-1.272 0-.438.087-.792.259-1.064.172-.275.403-.491.691-.647.288-.155.606-.271.954-.348.352-.079.705-.142 1.059-.188a47.8 47.8 0 011.129-.135c.292-.033.504-.088.636-.164.136-.076.204-.209.204-.398v-.039c0-.491-.134-.872-.403-1.144-.265-.272-.667-.407-1.208-.407-.56 0-.999.122-1.317.367-.318.246-.542.508-.671.786l-1.114-.398c.199-.464.464-.825.796-1.084a2.975 2.975 0 011.093-.546 4.55 4.55 0 011.174-.16c.245 0 .527.03.845.09.321.056.631.174.929.353.302.179.552.449.751.81.199.362.298.845.298 1.452v5.031h-1.173v-1.034h-.059c-.08.166-.213.343-.398.532-.186.189-.433.35-.741.482-.308.133-.684.199-1.129.199zm.179-1.054c.464 0 .856-.091 1.174-.273a1.87 1.87 0 00.726-.706c.165-.288.248-.592.248-.91V145.9c-.05.06-.159.115-.328.164a5.516 5.516 0 01-.577.125 24.454 24.454 0 01-1.123.149c-.305.039-.59.104-.855.194a1.482 1.482 0 00-.637.392c-.159.173-.238.408-.238.706 0 .408.15.716.452.925.305.206.691.308 1.158.308zm8.784-6.761v.994h-3.957v-.994h3.957zm-2.804-1.83h1.173v7.279c0 .331.048.58.145.746a.75.75 0 00.377.328c.156.053.32.079.493.079.129 0 .235-.006.318-.02l.199-.039.238 1.054c-.079.029-.19.059-.333.089-.142.033-.323.05-.542.05a2.37 2.37 0 01-.974-.214 1.946 1.946 0 01-.786-.651c-.205-.292-.308-.66-.308-1.104v-7.597zm7.689 9.625c-.736 0-1.371-.162-1.905-.487a3.273 3.273 0 01-1.228-1.372c-.285-.59-.427-1.276-.427-2.058 0-.782.142-1.472.427-2.068.289-.6.69-1.068 1.204-1.402.517-.338 1.12-.508 1.809-.508.398 0 .791.067 1.179.199.387.133.74.348 1.058.647.319.295.572.686.761 1.173.189.487.284 1.087.284 1.8v.497h-5.887v-1.014h4.693a2.51 2.51 0 00-.258-1.154 1.943 1.943 0 00-.726-.8c-.312-.196-.679-.294-1.104-.294-.467 0-.871.116-1.213.348a2.288 2.288 0 00-.78.895 2.623 2.623 0 00-.274 1.184v.676c0 .576.1 1.065.299 1.466.202.398.482.701.84.91.358.206.774.308 1.248.308.308 0 .586-.043.835-.129.252-.089.469-.222.651-.398a1.82 1.82 0 00.423-.666l1.133.318c-.119.385-.32.723-.601 1.015a2.95 2.95 0 01-1.044.676c-.415.159-.88.238-1.397.238zm4.946-.159v-7.636h1.134v1.153h.079c.14-.378.391-.684.756-.919a2.22 2.22 0 011.233-.353 10.33 10.33 0 01.617.019v1.194a3.474 3.474 0 00-.274-.045 2.712 2.712 0 00-.442-.035c-.372 0-.703.078-.995.234a1.759 1.759 0 00-.686.636 1.714 1.714 0 00-.248.92v4.832h-1.174zM600.676 85.65v-1.094h7.636v1.094h-3.201v9.088h-1.233V85.65h-3.202zm11.375 9.247c-.689 0-1.294-.164-1.814-.492a3.342 3.342 0 01-1.214-1.377c-.288-.59-.432-1.28-.432-2.068 0-.796.144-1.49.432-2.083.292-.593.696-1.054 1.214-1.382.52-.329 1.125-.493 1.814-.493.69 0 1.293.165 1.81.493.52.328.925.788 1.213 1.382.292.593.437 1.287.437 2.083 0 .789-.145 1.478-.437 2.068a3.298 3.298 0 01-1.213 1.377c-.517.328-1.12.492-1.81.492zm0-1.054c.524 0 .955-.134 1.293-.402a2.37 2.37 0 00.75-1.06 4.04 4.04 0 00.244-1.421c0-.51-.081-.986-.244-1.427a2.401 2.401 0 00-.75-1.069c-.338-.272-.769-.407-1.293-.407-.524 0-.954.135-1.292.407a2.395 2.395 0 00-.751 1.069c-.163.44-.244.916-.244 1.427 0 .51.081.984.244 1.422.162.437.412.79.751 1.059.338.268.768.402 1.292.402zm8.354 1.054c-.69 0-1.295-.164-1.815-.492a3.346 3.346 0 01-1.213-1.377c-.288-.59-.433-1.28-.433-2.068 0-.796.145-1.49.433-2.083a3.34 3.34 0 011.213-1.382c.52-.329 1.125-.493 1.815-.493.689 0 1.292.165 1.809.493a3.28 3.28 0 011.213 1.382c.292.593.438 1.287.438 2.083 0 .789-.146 1.478-.438 2.068a3.291 3.291 0 01-1.213 1.377c-.517.328-1.12.492-1.809.492zm0-1.054c.523 0 .954-.134 1.292-.402.338-.269.589-.622.751-1.06.162-.437.244-.91.244-1.421 0-.51-.082-.986-.244-1.427a2.403 2.403 0 00-.751-1.069c-.338-.272-.769-.407-1.292-.407-.524 0-.955.135-1.293.407a2.41 2.41 0 00-.751 1.069 4.1 4.1 0 00-.243 1.427c0 .51.081.984.243 1.422.163.437.413.79.751 1.059.338.268.769.402 1.293.402zm6.424-9.287v10.182h-1.173V84.557h1.173zm5.47 2.546v.994h-3.957v-.994h3.957zm-2.804-1.83h1.174v7.279c0 .331.048.58.144.745a.743.743 0 00.378.329c.155.053.319.08.492.08.129 0 .235-.007.318-.02l.199-.04.238 1.053c-.079.03-.19.06-.333.09-.142.033-.323.05-.542.05a2.36 2.36 0 01-.974-.214 1.938 1.938 0 01-.786-.651c-.205-.292-.308-.66-.308-1.104v-7.597zm4.569 9.466v-7.636h1.173v7.636h-1.173zm.597-8.909a.835.835 0 01-.592-.233.753.753 0 01-.244-.562c0-.219.082-.406.244-.562a.835.835 0 01.592-.234c.228 0 .424.078.586.234a.743.743 0 01.249.562.743.743 0 01-.249.561.816.816 0 01-.586.234zm2.725 11.773v-10.5h1.134v1.213h.139c.086-.133.206-.302.358-.507.156-.209.378-.395.666-.557.292-.166.686-.249 1.183-.249.643 0 1.21.161 1.701.483.49.321.873.777 1.148 1.367.275.59.413 1.286.413 2.088 0 .809-.138 1.51-.413 2.103-.275.59-.656 1.047-1.143 1.372-.487.322-1.049.482-1.686.482-.49 0-.883-.08-1.178-.243a2.183 2.183 0 01-.681-.562 7.5 7.5 0 01-.368-.527h-.099v4.037h-1.174zm1.154-6.682c0 .577.084 1.086.253 1.526.169.438.416.78.741 1.03.325.245.723.367 1.193.367.491 0 .9-.129 1.228-.387a2.37 2.37 0 00.746-1.054c.169-.445.254-.938.254-1.482 0-.537-.083-1.02-.249-1.452a2.237 2.237 0 00-.741-1.029c-.328-.255-.741-.382-1.238-.382-.477 0-.878.12-1.203.362-.325.239-.57.574-.736 1.005-.165.427-.248.926-.248 1.496zm12.787-2.108l-1.054.298a1.96 1.96 0 00-.294-.512 1.42 1.42 0 00-.517-.417c-.218-.11-.498-.164-.84-.164-.467 0-.857.107-1.168.323-.308.212-.463.482-.463.81 0 .292.107.522.319.691.212.17.543.31.994.423l1.134.278c.682.166 1.191.42 1.526.76.335.339.502.775.502 1.308 0 .438-.126.829-.378 1.174-.249.344-.597.616-1.044.815-.447.199-.968.298-1.561.298-.779 0-1.424-.169-1.934-.507-.51-.338-.834-.832-.969-1.481l1.113-.279c.106.411.307.72.602.925.298.205.687.308 1.168.308.547 0 .981-.116 1.303-.348.324-.235.487-.517.487-.845a.887.887 0 00-.279-.666c-.185-.182-.47-.318-.855-.408l-1.272-.298c-.7-.166-1.213-.423-1.542-.77-.324-.352-.487-.791-.487-1.318 0-.431.121-.812.363-1.144a2.47 2.47 0 01.999-.78 3.51 3.51 0 011.442-.284c.756 0 1.349.166 1.78.498.434.331.742.769.925 1.312zm73.906 106.926v-10.182h3.44c.799 0 1.452.145 1.959.433a2.71 2.71 0 011.134 1.158c.245.488.368 1.031.368 1.631 0 .6-.123 1.145-.368 1.636a2.74 2.74 0 01-1.124 1.173c-.507.288-1.157.433-1.949.433h-2.466v-1.094h2.426c.547 0 .986-.095 1.318-.284.331-.189.572-.444.721-.765.152-.325.228-.691.228-1.099a2.53 2.53 0 00-.228-1.094 1.63 1.63 0 00-.726-.755c-.335-.186-.779-.279-1.332-.279h-2.168v9.088h-1.233zm10.975.179c-.484 0-.923-.091-1.318-.273a2.266 2.266 0 01-.939-.801c-.232-.351-.348-.775-.348-1.272 0-.438.086-.792.258-1.064.172-.275.403-.491.691-.647a3.7 3.7 0 01.955-.348c.351-.079.704-.142 1.059-.188.464-.06.84-.105 1.128-.135.292-.033.504-.088.637-.164.136-.076.203-.209.203-.398v-.039c0-.491-.134-.872-.402-1.144-.265-.272-.668-.407-1.208-.407-.56 0-1 .122-1.318.367-.318.246-.542.508-.671.786l-1.114-.398c.199-.464.464-.825.796-1.084a2.979 2.979 0 011.094-.546c.397-.106.788-.16 1.173-.16.245 0 .527.03.845.09a2.7 2.7 0 01.93.353c.301.179.552.449.75.81.199.362.299.845.299 1.452v5.031h-1.174v-1.034h-.059c-.08.166-.212.343-.398.532-.186.189-.432.35-.741.482-.308.133-.684.199-1.128.199zm.179-1.054c.464 0 .855-.091 1.173-.273a1.863 1.863 0 00.974-1.616V191.9c-.049.06-.159.115-.328.164a5.493 5.493 0 01-.576.125 24.519 24.519 0 01-1.124.149c-.305.039-.59.104-.855.194a1.473 1.473 0 00-.636.392c-.16.173-.239.408-.239.706 0 .408.151.716.452.925.305.206.691.308 1.159.308zm8.545 3.898c-.567 0-1.054-.073-1.462-.219a3.078 3.078 0 01-1.661-1.312l.935-.656c.106.139.24.298.403.477.162.182.384.34.666.472.285.136.658.204 1.119.204.616 0 1.125-.149 1.526-.448.401-.298.601-.765.601-1.402v-1.551h-.099a6.09 6.09 0 01-.368.517c-.156.203-.381.383-.676.542-.292.156-.686.234-1.183.234-.617 0-1.17-.146-1.661-.438-.487-.291-.873-.715-1.158-1.272-.282-.557-.423-1.233-.423-2.029 0-.782.138-1.463.413-2.043.275-.583.658-1.034 1.148-1.352.491-.322 1.058-.483 1.701-.483.497 0 .891.083 1.183.249.295.162.52.348.676.557.159.205.282.374.368.507h.119v-1.213h1.134v7.855c0 .656-.149 1.19-.448 1.601a2.552 2.552 0 01-1.193.91 4.513 4.513 0 01-1.66.293zm-.04-4.196c.471 0 .868-.108 1.193-.323.325-.216.572-.525.741-.93.169-.404.253-.888.253-1.452 0-.55-.082-1.035-.248-1.456a2.19 2.19 0 00-.736-.99c-.325-.238-.726-.358-1.203-.358-.497 0-.912.126-1.243.378-.328.252-.575.59-.741 1.015a3.924 3.924 0 00-.243 1.411c0 .531.082 1 .248 1.407.169.405.418.723.746.955.331.229.742.343 1.233.343zm5.489 1.173v-7.636h1.173v7.636h-1.173zm.596-8.909a.838.838 0 01-.592-.233.754.754 0 01-.243-.562c0-.219.081-.406.243-.562a.834.834 0 01.592-.234c.229 0 .424.078.587.234a.746.746 0 01.248.562.748.748 0 01-.248.562.821.821 0 01-.587.233zm3.899 4.316v4.593h-1.173v-7.636h1.133v1.193h.1a2.18 2.18 0 01.815-.935c.365-.238.835-.358 1.412-.358.517 0 .969.107 1.357.319.388.208.69.527.905.954.216.424.323.961.323 1.611v4.852h-1.173v-4.772c0-.6-.156-1.068-.467-1.402-.312-.339-.74-.508-1.283-.508a2.05 2.05 0 00-1.004.244 1.736 1.736 0 00-.691.711c-.169.312-.254.689-.254 1.134zm9.263 4.772c-.484 0-.923-.091-1.317-.273a2.263 2.263 0 01-.94-.801c-.232-.351-.348-.775-.348-1.272 0-.438.086-.792.259-1.064.172-.275.402-.491.691-.647.288-.155.606-.271.954-.348.352-.079.705-.142 1.059-.188a47.8 47.8 0 011.129-.135c.292-.033.504-.088.636-.164.136-.076.204-.209.204-.398v-.039c0-.491-.134-.872-.403-1.144-.265-.272-.667-.407-1.208-.407-.56 0-.999.122-1.317.367-.318.246-.542.508-.671.786l-1.114-.398c.199-.464.464-.825.795-1.084.335-.261.7-.444 1.094-.546a4.55 4.55 0 011.174-.16c.245 0 .527.03.845.09.321.056.631.174.929.353.302.179.552.449.751.81.199.362.298.845.298 1.452v5.031h-1.173v-1.034h-.06a2.059 2.059 0 01-.397.532c-.186.189-.433.35-.741.482-.308.133-.684.199-1.129.199zm.179-1.054c.464 0 .855-.091 1.174-.273a1.87 1.87 0 00.726-.706c.165-.288.248-.592.248-.91V191.9c-.05.06-.159.115-.328.164a5.516 5.516 0 01-.577.125 24.454 24.454 0 01-1.123.149c-.305.039-.59.104-.855.194a1.482 1.482 0 00-.637.392c-.159.173-.238.408-.238.706 0 .408.15.716.452.925.305.206.691.308 1.158.308zm8.784-6.761v.994h-3.957v-.994h3.957zm-2.804-1.83h1.173v7.279c0 .331.048.58.144.746.1.162.226.271.378.328.156.053.32.079.492.079.13 0 .236-.006.319-.02l.198-.039.239 1.054c-.079.029-.19.059-.333.089-.142.033-.323.05-.542.05a2.37 2.37 0 01-.974-.214 1.946 1.946 0 01-.786-.651c-.205-.292-.308-.66-.308-1.104v-7.597zm4.569 9.466v-7.636h1.173v7.636h-1.173zm.596-8.909a.837.837 0 01-.591-.233.75.75 0 01-.244-.562.75.75 0 01.244-.562.834.834 0 01.591-.234c.229 0 .425.078.587.234a.744.744 0 01.249.562.745.745 0 01-.249.562.82.82 0 01-.587.233zm5.828 9.068c-.689 0-1.294-.164-1.814-.492a3.338 3.338 0 01-1.213-1.377c-.289-.59-.433-1.279-.433-2.068 0-.796.144-1.49.433-2.083a3.327 3.327 0 011.213-1.382c.52-.328 1.125-.493 1.814-.493.69 0 1.293.165 1.81.493.52.328.925.788 1.213 1.382.292.593.438 1.287.438 2.083 0 .789-.146 1.478-.438 2.068a3.296 3.296 0 01-1.213 1.377c-.517.328-1.12.492-1.81.492zm0-1.054c.524 0 .955-.134 1.293-.402.338-.269.588-.622.751-1.059.162-.438.243-.912.243-1.422 0-.511-.081-.986-.243-1.427a2.411 2.411 0 00-.751-1.069c-.338-.272-.769-.408-1.293-.408-.523 0-.954.136-1.292.408a2.403 2.403 0 00-.751 1.069 4.104 4.104 0 00-.244 1.427c0 .51.082.984.244 1.422.162.437.413.79.751 1.059.338.268.769.402 1.292.402zm6.425-3.698v4.593h-1.173v-7.636h1.133v1.193h.1a2.18 2.18 0 01.815-.935c.364-.238.835-.358 1.412-.358.517 0 .969.107 1.357.319.388.208.689.527.905.954.215.424.323.961.323 1.611v4.852h-1.173v-4.772c0-.6-.156-1.068-.468-1.402-.311-.339-.739-.508-1.282-.508-.375 0-.71.082-1.004.244a1.738 1.738 0 00-.692.711c-.169.312-.253.689-.253 1.134zM680.801 87.102a1.56 1.56 0 00-.726-1.173c-.424-.279-.944-.418-1.561-.418-.451 0-.845.073-1.183.219a1.89 1.89 0 00-.786.601 1.445 1.445 0 00-.278.87c0 .272.065.506.194.701.133.193.302.353.507.483.206.125.421.23.646.313.226.08.433.144.622.194l1.034.278c.265.07.56.166.885.288.328.123.641.29.939.503.302.208.551.477.746.805.196.328.294.73.294 1.208 0 .55-.145 1.047-.433 1.492-.285.444-.703.797-1.253 1.059-.547.261-1.211.392-1.993.392-.73 0-1.361-.117-1.895-.353-.53-.235-.948-.563-1.252-.984a2.808 2.808 0 01-.513-1.467h1.273c.033.385.163.703.388.955.229.248.517.434.865.557a3.51 3.51 0 001.134.179c.47 0 .893-.077 1.267-.23.375-.155.671-.37.89-.645a1.53 1.53 0 00.328-.975c0-.338-.094-.613-.283-.825a2.083 2.083 0 00-.746-.517 7.823 7.823 0 00-.999-.348l-1.253-.358c-.795-.229-1.425-.555-1.889-.98-.464-.424-.696-.979-.696-1.665 0-.57.154-1.067.462-1.492a3.072 3.072 0 011.253-.994 4.23 4.23 0 011.765-.358c.656 0 1.24.118 1.75.353.51.232.915.55 1.213.955.302.404.461.863.477 1.377h-1.193zm6.402 7.795c-.735 0-1.37-.162-1.904-.487a3.277 3.277 0 01-1.228-1.372c-.285-.59-.427-1.276-.427-2.058 0-.782.142-1.472.427-2.068.289-.6.69-1.068 1.203-1.402.517-.339 1.121-.508 1.81-.508.398 0 .79.067 1.178.2.388.132.741.347 1.059.646.318.295.572.686.761 1.173.189.487.283 1.087.283 1.8v.497h-5.886v-1.014h4.693a2.51 2.51 0 00-.258-1.154 1.954 1.954 0 00-.726-.8c-.312-.196-.68-.293-1.104-.293-.467 0-.872.115-1.213.347a2.297 2.297 0 00-.781.895 2.632 2.632 0 00-.273 1.184v.676c0 .576.099 1.065.298 1.466.202.398.482.701.84.91.358.206.774.308 1.248.308.309 0 .587-.043.836-.129.251-.09.469-.222.651-.398.182-.179.323-.4.422-.666l1.134.318a2.51 2.51 0 01-.602 1.015 2.919 2.919 0 01-1.044.676 3.87 3.87 0 01-1.397.238zm8.029 2.864c-.566 0-1.054-.073-1.461-.219a3.091 3.091 0 01-1.019-.567 3.09 3.09 0 01-.642-.745l.935-.657c.106.14.24.299.403.478.162.182.384.34.666.472.285.136.658.204 1.118.204.617 0 1.126-.15 1.527-.448.401-.298.601-.765.601-1.401v-1.552h-.099a6.09 6.09 0 01-.368.517 2.088 2.088 0 01-.676.542c-.292.156-.686.234-1.183.234-.617 0-1.17-.146-1.661-.438-.487-.291-.873-.715-1.158-1.272-.282-.557-.423-1.233-.423-2.029 0-.782.138-1.463.413-2.043.275-.583.658-1.034 1.148-1.352.491-.322 1.057-.483 1.7-.483.498 0 .892.083 1.184.25.295.162.52.347.676.556.159.205.282.374.368.507h.119v-1.213h1.134v7.855c0 .656-.15 1.19-.448 1.6a2.55 2.55 0 01-1.193.91 4.504 4.504 0 01-1.661.294zm-.039-4.196c.47 0 .868-.108 1.193-.323.325-.216.572-.526.741-.93.169-.404.253-.888.253-1.452 0-.55-.083-1.035-.248-1.456a2.187 2.187 0 00-.736-.99c-.325-.238-.726-.358-1.203-.358-.498 0-.912.126-1.243.378-.328.252-.575.59-.741 1.014a3.93 3.93 0 00-.244 1.412c0 .53.083 1 .249 1.407.169.405.418.723.746.955.331.229.742.343 1.233.343zm5.488 1.173v-7.636h1.134v1.193h.099a1.92 1.92 0 01.771-.95c.354-.228.78-.343 1.278-.343.503 0 .923.115 1.257.344.338.225.602.541.791.95h.079a2.22 2.22 0 01.88-.94c.391-.236.86-.353 1.407-.353.683 0 1.242.213 1.676.64.434.425.651 1.086.651 1.984v5.111h-1.173v-5.11c0-.564-.154-.967-.463-1.209a1.71 1.71 0 00-1.088-.362c-.537 0-.953.162-1.248.487-.295.321-.443.729-.443 1.223v4.971h-1.193v-5.23c0-.434-.141-.784-.423-1.049-.281-.268-.644-.403-1.088-.403-.305 0-.59.082-.855.244a1.845 1.845 0 00-.637.676 1.997 1.997 0 00-.238.99v4.772h-1.174zm15.37.16c-.736 0-1.371-.163-1.904-.488a3.27 3.27 0 01-1.228-1.372c-.285-.59-.428-1.276-.428-2.058 0-.782.143-1.472.428-2.068.288-.6.689-1.068 1.203-1.402.517-.339 1.12-.508 1.81-.508.397 0 .79.067 1.178.2.388.132.741.347 1.059.646.318.295.572.686.761 1.173.188.487.283 1.087.283 1.8v.497h-5.886v-1.014h4.693c0-.431-.086-.816-.259-1.154a1.947 1.947 0 00-.726-.8c-.311-.196-.679-.293-1.103-.293-.468 0-.872.115-1.213.347a2.289 2.289 0 00-.781.895 2.632 2.632 0 00-.273 1.184v.676c0 .576.099 1.065.298 1.466.202.398.482.701.84.91.358.206.774.308 1.248.308.308 0 .587-.043.835-.129.252-.09.469-.222.651-.398.183-.179.324-.4.423-.666l1.134.318a2.52 2.52 0 01-.602 1.015 2.95 2.95 0 01-1.044.676 3.87 3.87 0 01-1.397.238zm6.12-4.754v4.594h-1.173v-7.636h1.133v1.193h.1c.179-.388.45-.7.815-.935.365-.238.835-.358 1.412-.358.517 0 .969.107 1.357.319.388.209.69.527.905.954.215.424.323.961.323 1.611v4.852h-1.173v-4.772c0-.6-.156-1.068-.467-1.402-.312-.338-.74-.507-1.283-.507-.375 0-.709.08-1.004.243a1.74 1.74 0 00-.691.711c-.169.312-.254.69-.254 1.133zm10.337-3.042v.994h-3.957v-.994h3.957zm-2.804-1.83h1.173v7.279c0 .331.049.58.145.745a.743.743 0 00.378.329c.155.053.319.08.492.08.129 0 .235-.007.318-.02l.199-.04.238 1.053c-.079.03-.19.06-.333.09-.142.033-.323.05-.542.05a2.36 2.36 0 01-.974-.214 1.938 1.938 0 01-.786-.651c-.205-.292-.308-.66-.308-1.104v-7.597zm7.689 9.625c-.736 0-1.371-.162-1.904-.487a3.264 3.264 0 01-1.228-1.372c-.285-.59-.428-1.276-.428-2.058 0-.782.143-1.472.428-2.068.288-.6.689-1.068 1.203-1.402.517-.339 1.12-.508 1.809-.508.398 0 .791.067 1.179.2.387.132.74.347 1.059.646.318.295.571.686.76 1.173.189.487.284 1.087.284 1.8v.497h-5.887v-1.014h4.694a2.51 2.51 0 00-.259-1.154 1.947 1.947 0 00-.726-.8c-.311-.196-.679-.293-1.104-.293-.467 0-.871.115-1.213.347a2.286 2.286 0 00-.78.895 2.633 2.633 0 00-.274 1.184v.676c0 .576.1 1.065.299 1.466.202.398.482.701.84.91.358.206.774.308 1.248.308.308 0 .586-.043.835-.129.252-.09.469-.222.651-.398.183-.179.323-.4.423-.666l1.133.318a2.505 2.505 0 01-.601 1.015 2.95 2.95 0 01-1.044.676c-.415.159-.88.238-1.397.238zm7.83 0c-.636 0-1.198-.16-1.685-.482-.488-.325-.869-.782-1.144-1.372-.275-.593-.412-1.294-.412-2.103 0-.802.137-1.498.412-2.088.275-.59.658-1.046 1.149-1.367.49-.322 1.057-.483 1.7-.483.497 0 .89.083 1.178.25.292.162.514.347.666.556.156.205.277.374.363.507h.1v-3.758h1.173v10.181h-1.134v-1.173h-.139a7.5 7.5 0 01-.368.527 2.183 2.183 0 01-.681.562c-.295.162-.687.243-1.178.243zm.159-1.054c.471 0 .868-.122 1.193-.368.325-.248.572-.591.741-1.029.169-.44.254-.95.254-1.526 0-.57-.083-1.069-.249-1.496-.166-.431-.411-.766-.736-1.005-.325-.242-.726-.362-1.203-.362-.497 0-.911.127-1.243.382a2.295 2.295 0 00-.741 1.03 4.1 4.1 0 00-.243 1.451c0 .544.083 1.037.248 1.482.169.44.418.792.746 1.054.332.258.743.387 1.233.387zm-111.956 27.895h-1.233a2.55 2.55 0 00-.383-.934 2.547 2.547 0 00-.656-.677 2.794 2.794 0 00-.85-.417 3.388 3.388 0 00-.974-.139c-.617 0-1.175.155-1.676.467-.497.312-.893.771-1.188 1.377-.292.607-.438 1.351-.438 2.232 0 .882.146 1.626.438 2.233.295.606.691 1.065 1.188 1.377a3.113 3.113 0 001.676.467c.338 0 .662-.046.974-.139.312-.093.595-.23.85-.413a2.593 2.593 0 001.039-1.616h1.233a4.112 4.112 0 01-.507 1.397c-.245.411-.55.761-.915 1.049a3.978 3.978 0 01-1.228.652c-.45.149-.933.223-1.446.223-.869 0-1.641-.212-2.317-.636-.676-.424-1.208-1.027-1.596-1.81-.388-.782-.582-1.71-.582-2.784 0-1.073.194-2.002.582-2.784.388-.782.92-1.385 1.596-1.809.676-.425 1.448-.637 2.317-.637.513 0 .996.075 1.446.224.454.149.864.368 1.228.656.365.285.67.633.915 1.044.245.408.414.874.507 1.397zm4.936 7.159c-.69 0-1.295-.164-1.815-.492a3.345 3.345 0 01-1.213-1.377c-.288-.59-.433-1.279-.433-2.068 0-.796.145-1.49.433-2.083a3.334 3.334 0 011.213-1.382c.52-.328 1.125-.493 1.815-.493.689 0 1.292.165 1.809.493a3.28 3.28 0 011.213 1.382c.292.593.438 1.287.438 2.083 0 .789-.146 1.478-.438 2.068a3.29 3.29 0 01-1.213 1.377c-.517.328-1.12.492-1.809.492zm0-1.054c.523 0 .954-.134 1.292-.402.338-.269.589-.622.751-1.059.162-.438.244-.912.244-1.422 0-.511-.082-.986-.244-1.427a2.403 2.403 0 00-.751-1.069c-.338-.272-.769-.408-1.292-.408-.524 0-.955.136-1.293.408a2.411 2.411 0 00-.751 1.069 4.104 4.104 0 00-.243 1.427c0 .51.081.984.243 1.422.163.437.413.79.751 1.059.338.268.769.402 1.293.402zm6.424-9.287v10.182h-1.173v-10.182h1.173zm3.322 0v10.182h-1.173v-10.182h1.173zm4.397 10.361c-.484 0-.923-.091-1.318-.273a2.266 2.266 0 01-.939-.801c-.232-.351-.348-.775-.348-1.272 0-.438.086-.792.258-1.064.172-.275.403-.491.691-.647.288-.155.607-.271.955-.348.351-.079.704-.142 1.059-.188.464-.06.84-.105 1.128-.135.292-.033.504-.088.636-.164.136-.076.204-.209.204-.398v-.039c0-.491-.134-.872-.402-1.144-.266-.272-.668-.407-1.208-.407-.561 0-1 .122-1.318.367-.318.246-.542.508-.671.786l-1.114-.398c.199-.464.464-.825.796-1.084a2.975 2.975 0 011.093-.546 4.55 4.55 0 011.174-.16c.245 0 .527.03.845.09.321.056.631.174.93.353.301.179.551.449.75.81.199.362.299.845.299 1.452v5.031h-1.174v-1.034h-.059c-.08.166-.212.343-.398.532-.186.189-.433.35-.741.482-.308.133-.684.199-1.128.199zm.179-1.054c.464 0 .855-.091 1.173-.273a1.87 1.87 0 00.726-.706c.165-.288.248-.592.248-.91V124.9c-.049.06-.159.115-.328.164a5.516 5.516 0 01-.577.125 23.852 23.852 0 01-1.123.149c-.305.039-.59.104-.855.194a1.482 1.482 0 00-.637.392c-.159.173-.238.408-.238.706 0 .408.151.716.452.925.305.206.691.308 1.159.308zm5.462 3.739v-10.5h1.134v1.213h.139c.086-.133.205-.302.358-.507.156-.209.378-.395.666-.557.292-.166.686-.249 1.183-.249.643 0 1.21.161 1.701.483.49.321.873.777 1.148 1.367.275.59.413 1.286.413 2.088 0 .809-.138 1.51-.413 2.103-.275.59-.656 1.047-1.144 1.372-.487.322-1.049.482-1.685.482-.49 0-.883-.081-1.178-.243a2.184 2.184 0 01-.681-.562 7.523 7.523 0 01-.368-.527h-.1v4.037h-1.173zm1.154-6.682c0 .577.084 1.086.253 1.526.169.438.416.781.741 1.029.325.246.722.368 1.193.368.491 0 .9-.129 1.228-.387.331-.262.58-.614.746-1.054.169-.444.253-.938.253-1.482 0-.537-.083-1.021-.248-1.452a2.252 2.252 0 00-.741-1.029c-.328-.255-.741-.383-1.238-.383-.477 0-.878.121-1.203.363-.325.239-.57.574-.736 1.005-.166.427-.248.926-.248 1.496zm12.786-2.108l-1.054.298a1.97 1.97 0 00-.293-.512 1.417 1.417 0 00-.517-.417c-.219-.11-.499-.164-.84-.164-.467 0-.857.107-1.168.323-.309.212-.463.482-.463.81 0 .292.106.522.318.691.213.169.544.31.995.423l1.133.278c.683.166 1.192.42 1.527.761.334.338.502.774.502 1.307 0 .438-.126.829-.378 1.174-.249.344-.597.616-1.044.815-.448.199-.968.298-1.561.298-.779 0-1.424-.169-1.934-.507-.511-.338-.834-.832-.97-1.481l1.114-.279c.106.411.307.72.602.925.298.206.687.308 1.168.308.547 0 .981-.116 1.302-.348.325-.235.488-.517.488-.845a.887.887 0 00-.279-.666c-.185-.182-.47-.318-.855-.408l-1.273-.298c-.699-.166-1.213-.423-1.541-.771-.325-.351-.487-.79-.487-1.317 0-.431.121-.812.363-1.144a2.47 2.47 0 01.999-.78 3.508 3.508 0 011.442-.284c.756 0 1.349.166 1.78.498.434.331.742.769.924 1.312zm5.108 6.085c-.736 0-1.371-.162-1.905-.487a3.273 3.273 0 01-1.228-1.372c-.285-.59-.427-1.276-.427-2.058 0-.782.142-1.472.427-2.068.289-.6.69-1.068 1.204-1.402.517-.338 1.12-.508 1.809-.508.398 0 .791.067 1.178.199.388.133.741.348 1.059.647.319.295.572.686.761 1.173.189.487.283 1.087.283 1.8v.497h-5.886v-1.014h4.693a2.51 2.51 0 00-.258-1.154 1.943 1.943 0 00-.726-.8c-.312-.196-.68-.294-1.104-.294-.467 0-.871.116-1.213.348a2.288 2.288 0 00-.78.895 2.623 2.623 0 00-.274 1.184v.676c0 .576.1 1.065.298 1.466.203.398.483.701.841.91.358.206.774.308 1.248.308.308 0 .586-.043.835-.129.252-.089.469-.222.651-.398a1.82 1.82 0 00.423-.666l1.133.318c-.119.385-.32.723-.601 1.015a2.95 2.95 0 01-1.044.676c-.415.159-.88.238-1.397.238zm28.039 10.659h1.472l3.46 8.452h.119l3.46-8.452h1.472v10.182h-1.154v-7.736h-.099l-3.182 7.736h-1.113l-3.182-7.736h-.1v7.736h-1.153v-10.182zm15.398 10.341c-.689 0-1.294-.164-1.814-.492a3.338 3.338 0 01-1.213-1.377c-.289-.59-.433-1.279-.433-2.068 0-.796.144-1.49.433-2.083a3.327 3.327 0 011.213-1.382c.52-.328 1.125-.493 1.814-.493.69 0 1.293.165 1.81.493.52.328.925.788 1.213 1.382.292.593.437 1.287.437 2.083 0 .789-.145 1.478-.437 2.068a3.296 3.296 0 01-1.213 1.377c-.517.328-1.12.492-1.81.492zm0-1.054c.524 0 .955-.134 1.293-.402.338-.269.588-.622.751-1.059.162-.438.243-.912.243-1.422 0-.511-.081-.986-.243-1.427a2.411 2.411 0 00-.751-1.069c-.338-.272-.769-.408-1.293-.408-.523 0-.954.136-1.292.408a2.403 2.403 0 00-.751 1.069 4.081 4.081 0 00-.244 1.427c0 .51.081.984.244 1.422.162.437.413.79.751 1.059.338.268.769.402 1.292.402zm8.135 1.054c-.636 0-1.198-.16-1.685-.482-.488-.325-.869-.782-1.144-1.372-.275-.593-.412-1.294-.412-2.103 0-.802.137-1.498.412-2.088.275-.59.658-1.046 1.149-1.367.49-.322 1.057-.483 1.7-.483.497 0 .89.083 1.178.249.292.162.514.348.666.557.156.205.277.374.363.507h.1v-3.759h1.173v10.182h-1.134v-1.173h-.139a7.523 7.523 0 01-.368.527 2.184 2.184 0 01-.681.562c-.295.162-.687.243-1.178.243zm.159-1.054c.471 0 .868-.122 1.193-.368.325-.248.572-.591.741-1.029.169-.44.254-.949.254-1.526 0-.57-.083-1.069-.249-1.496-.166-.431-.411-.766-.736-1.005-.325-.242-.726-.363-1.203-.363-.497 0-.911.128-1.243.383a2.296 2.296 0 00-.741 1.029 4.102 4.102 0 00-.243 1.452c0 .544.083 1.038.248 1.482.169.44.418.792.746 1.054.332.258.743.387 1.233.387zm7.9 1.074c-.484 0-.923-.091-1.318-.273a2.266 2.266 0 01-.939-.801c-.232-.351-.348-.775-.348-1.272 0-.438.086-.792.258-1.064.173-.275.403-.491.691-.647a3.7 3.7 0 01.955-.348c.351-.079.704-.142 1.059-.188.464-.06.84-.105 1.128-.135.292-.033.504-.088.637-.164.136-.076.204-.209.204-.398v-.039c0-.491-.135-.872-.403-1.144-.265-.272-.668-.407-1.208-.407-.56 0-.999.122-1.318.367-.318.246-.542.508-.671.786l-1.113-.398c.198-.464.464-.825.795-1.084a2.979 2.979 0 011.094-.546c.397-.106.789-.16 1.173-.16.245 0 .527.03.845.09.322.056.632.174.93.353.302.179.552.449.751.81.198.362.298.845.298 1.452v5.031h-1.173v-1.034h-.06c-.08.166-.212.343-.398.532a2.27 2.27 0 01-.741.482c-.308.133-.684.199-1.128.199zm.179-1.054c.464 0 .855-.091 1.173-.273.322-.182.564-.418.726-.706.166-.288.249-.592.249-.91V145.9c-.05.06-.159.115-.328.164a5.516 5.516 0 01-.577.125 24.519 24.519 0 01-1.124.149c-.305.039-.59.104-.855.194a1.473 1.473 0 00-.636.392c-.159.173-.239.408-.239.706 0 .408.151.716.453.925.304.206.691.308 1.158.308zm6.636-9.307v10.182h-1.174v-10.182h1.174zm32.735-61.818h-3.142V67.557h3.281c.988 0 1.833.203 2.536.611a4.002 4.002 0 011.615 1.745c.375.756.562 1.66.562 2.715 0 1.06-.189 1.973-.566 2.739a4.043 4.043 0 01-1.651 1.76c-.723.407-1.601.611-2.635.611zm-1.909-1.094h1.829c.842 0 1.54-.162 2.093-.487a2.996 2.996 0 001.238-1.387c.272-.6.408-1.314.408-2.142 0-.823-.134-1.53-.403-2.123a2.965 2.965 0 00-1.203-1.373c-.533-.321-1.198-.482-1.993-.482h-1.969v7.994zm10.918 1.273c-.484 0-.924-.09-1.318-.273a2.264 2.264 0 01-.94-.8c-.232-.352-.348-.776-.348-1.273 0-.438.087-.793.259-1.064.172-.275.403-.49.691-.647.288-.155.607-.271.955-.348.351-.08.704-.142 1.058-.189.464-.06.841-.104 1.129-.134.292-.033.504-.088.636-.164.136-.076.204-.209.204-.398v-.04c0-.49-.134-.871-.402-1.143-.266-.272-.668-.407-1.209-.407-.56 0-.999.122-1.317.367-.318.246-.542.508-.671.786l-1.114-.398c.199-.464.464-.825.796-1.084a2.974 2.974 0 011.093-.546c.398-.107.789-.16 1.174-.16.245 0 .527.03.845.09.321.056.631.174.93.353.301.179.551.45.75.81.199.362.299.846.299 1.452v5.031h-1.174v-1.034h-.059c-.08.166-.213.343-.398.532-.186.19-.433.35-.741.482-.308.133-.684.2-1.128.2zm.178-1.054c.465 0 .856-.09 1.174-.273a1.87 1.87 0 00.726-.706c.165-.288.248-.592.248-.91V73.9c-.049.06-.159.115-.328.164a5.554 5.554 0 01-.577.125 26.906 26.906 0 01-1.123.149c-.305.04-.59.104-.855.194a1.479 1.479 0 00-.637.392c-.159.173-.238.408-.238.706 0 .408.151.716.452.925.305.205.691.308 1.158.308zm8.784-6.761v.994h-3.957v-.994h3.957zm-2.804-1.83h1.173v7.279c0 .331.048.58.145.745a.745.745 0 00.377.329c.156.053.32.08.493.08.129 0 .235-.007.318-.02l.199-.04.238 1.053c-.079.03-.19.06-.333.09-.142.033-.323.05-.542.05a2.36 2.36 0 01-.974-.214 1.938 1.938 0 01-.786-.651c-.205-.292-.308-.66-.308-1.104v-7.597zm7.689 9.625c-.736 0-1.371-.162-1.904-.487a3.264 3.264 0 01-1.228-1.372c-.285-.59-.428-1.276-.428-2.058 0-.782.143-1.472.428-2.068.288-.6.689-1.068 1.203-1.402.517-.339 1.12-.508 1.809-.508.398 0 .791.067 1.179.2.387.132.74.347 1.059.646.318.295.571.686.76 1.173.189.487.284 1.087.284 1.8v.497h-5.887v-1.014h4.693a2.51 2.51 0 00-.258-1.154 1.947 1.947 0 00-.726-.8c-.312-.196-.679-.293-1.104-.293-.467 0-.871.115-1.213.347a2.286 2.286 0 00-.78.895 2.62 2.62 0 00-.274 1.184v.676c0 .576.1 1.065.299 1.466.202.398.482.701.84.91.358.206.774.308 1.248.308.308 0 .586-.043.835-.129.252-.09.469-.222.651-.398.182-.179.323-.4.423-.666l1.133.318c-.119.385-.32.723-.601 1.015a2.95 2.95 0 01-1.044.676c-.415.159-.88.238-1.397.238zm5.105-.159V67.557h3.441c.799 0 1.452.144 1.959.432.51.285.888.671 1.133 1.158.245.488.368 1.031.368 1.631 0 .6-.123 1.145-.368 1.636-.242.49-.616.881-1.123 1.173-.508.288-1.157.432-1.949.432h-2.466v-1.093h2.426c.547 0 .986-.095 1.317-.284.332-.188.572-.444.721-.765.153-.325.229-.691.229-1.099 0-.408-.076-.772-.229-1.094a1.63 1.63 0 00-.726-.755c-.334-.186-.778-.279-1.332-.279h-2.168v9.088h-1.233zm8.728 0v-7.636h1.173v7.636h-1.173zm.597-8.909a.835.835 0 01-.592-.233.753.753 0 01-.244-.562c0-.219.082-.406.244-.562a.835.835 0 01.592-.234c.228 0 .424.078.586.234a.743.743 0 01.249.562.743.743 0 01-.249.561.816.816 0 01-.586.234zm5.828 9.068c-.716 0-1.333-.169-1.85-.507a3.302 3.302 0 01-1.193-1.397c-.278-.593-.418-1.27-.418-2.033 0-.776.143-1.46.428-2.053a3.374 3.374 0 011.203-1.397c.517-.339 1.12-.508 1.81-.508.537 0 1.021.1 1.451.299.431.199.784.477 1.059.835.275.358.446.776.512 1.253h-1.173c-.089-.348-.288-.656-.596-.925-.305-.272-.716-.407-1.233-.407-.458 0-.859.119-1.203.357-.342.236-.609.569-.801 1-.189.427-.283.93-.283 1.506 0 .59.093 1.104.278 1.541.189.438.454.778.796 1.02.344.241.749.362 1.213.362.305 0 .581-.053.83-.159a1.71 1.71 0 00.631-.457 1.75 1.75 0 00.368-.716h1.173a2.712 2.712 0 01-1.521 2.073c-.424.209-.918.313-1.481.313zm5.811-2.943l-.019-1.451h.238l3.341-3.401h1.452l-3.56 3.6h-.099l-1.353 1.252zm-1.093 2.784V67.557h1.173v10.181h-1.173zm4.852 0l-2.983-3.778.835-.816 3.639 4.594h-1.491zm5.65.16c-.736 0-1.37-.163-1.904-.488a3.27 3.27 0 01-1.228-1.372c-.285-.59-.427-1.276-.427-2.058 0-.782.142-1.472.427-2.068.288-.6.689-1.068 1.203-1.402.517-.339 1.12-.508 1.81-.508.398 0 .79.067 1.178.2.388.132.741.347 1.059.646.318.295.572.686.761 1.173.189.487.283 1.087.283 1.8v.497h-5.886v-1.014h4.693c0-.431-.086-.816-.259-1.154a1.951 1.951 0 00-.725-.8c-.312-.196-.68-.293-1.104-.293-.467 0-.872.115-1.213.347a2.297 2.297 0 00-.781.895 2.632 2.632 0 00-.273 1.184v.676c0 .576.099 1.065.298 1.466.202.398.482.701.84.91.358.206.774.308 1.248.308.308 0 .587-.043.835-.129.252-.09.469-.222.652-.398.182-.179.323-.4.422-.666l1.134.318a2.52 2.52 0 01-.602 1.015 2.95 2.95 0 01-1.044.676 3.87 3.87 0 01-1.397.238zm4.947-.16v-7.636h1.133v1.153h.08c.139-.377.391-.684.756-.92a2.222 2.222 0 011.233-.352 10.373 10.373 0 01.616.019v1.194a3.492 3.492 0 00-.273-.045 2.703 2.703 0 00-.443-.035c-.371 0-.702.078-.994.234a1.712 1.712 0 00-.935 1.556v4.832h-1.173z" fill="#1C1C1E"/></svg>