<svg width="960" height="49" fill="none" xmlns="http://www.w3.org/2000/svg"><path d="M3.492 39.273h3.96V26.781c0-2.88-.324-5.94-.54-8.676h.18l2.772 5.544 8.784 15.624h4.284V12.777h-3.96v12.348c0 2.88.324 6.084.54 8.82h-.18L16.56 28.33 7.776 12.777H3.492v26.496zm31.873.468c2.736 0 4.68-1.368 6.48-3.456h.108l.325 2.988h3.383v-19.8h-4.14v13.752c-1.656 2.088-2.916 2.952-4.752 2.952-2.34 0-3.311-1.332-3.311-4.752V19.473h-4.14V31.93c0 5.04 1.835 7.812 6.047 7.812zm16.529-.468h4.104v-14.04c1.656-1.8 3.132-2.7 4.464-2.7 2.268 0 3.312 1.368 3.312 4.788v11.952h4.14v-14.04c1.656-1.8 3.096-2.7 4.464-2.7 2.232 0 3.312 1.368 3.312 4.788v11.952h4.14V26.817c0-5.04-1.944-7.848-6.084-7.848-2.484 0-4.5 1.548-6.444 3.636-.864-2.268-2.52-3.636-5.472-3.636-2.448 0-4.428 1.476-6.12 3.276h-.108l-.324-2.772h-3.384v19.8zm43.142.468c4.463 0 8.532-3.888 8.532-10.692 0-6.084-2.844-10.08-7.849-10.08-2.087 0-4.212 1.116-5.903 2.592l.108-3.384v-7.596h-4.105v28.692h3.24l.397-2.052h.108c1.692 1.62 3.672 2.52 5.472 2.52zm-.793-3.42c-1.224 0-2.807-.468-4.32-1.8v-9.684c1.656-1.62 3.168-2.412 4.716-2.412 3.313 0 4.645 2.556 4.645 6.696 0 4.644-2.16 7.2-5.04 7.2zm22.461 3.42c2.592 0 4.86-.864 6.696-2.088l-1.44-2.628c-1.44.936-2.952 1.476-4.716 1.476-3.42 0-5.796-2.268-6.12-6.048h12.852c.108-.468.18-1.296.18-2.088 0-5.616-2.808-9.396-8.064-9.396-4.644 0-9.036 3.996-9.036 10.44 0 6.516 4.284 10.332 9.648 10.332zm-5.616-12.132c.396-3.492 2.592-5.4 5.076-5.4 2.88 0 4.428 1.98 4.428 5.4h-9.504zm17.728 11.664h4.104V26.925c1.26-3.132 3.204-4.248 4.824-4.248.792 0 1.296.108 1.98.324l.756-3.6c-.612-.288-1.26-.432-2.232-.432-2.124 0-4.212 1.512-5.616 4.068h-.108l-.324-3.564h-3.384v19.8zm30.736.468c4.896 0 9.324-3.78 9.324-10.332 0-6.624-4.428-10.44-9.324-10.44s-9.324 3.816-9.324 10.44c0 6.552 4.428 10.332 9.324 10.332zm0-3.384c-3.096 0-5.04-2.772-5.04-6.948 0-4.212 1.944-7.02 5.04-7.02 3.132 0 5.076 2.808 5.076 7.02 0 4.176-1.944 6.948-5.076 6.948zm24.633-25.56c-.9-.396-2.16-.684-3.492-.684-4.428 0-6.264 2.808-6.264 6.876v2.484l-2.7.216v3.096h2.7v16.488h4.14V22.785h3.996v-3.312h-3.996v-2.52c0-2.412.864-3.564 2.628-3.564.684 0 1.44.18 2.16.504l.828-3.096zm20.748 28.944c3.42 0 6.12-1.368 8.244-3.816l-2.232-2.628c-1.584 1.728-3.456 2.808-5.868 2.808-4.68 0-7.632-3.852-7.632-10.152 0-6.228 3.168-10.044 7.74-10.044 2.16 0 3.816.972 5.184 2.376l2.268-2.664c-1.62-1.764-4.212-3.348-7.524-3.348-6.696 0-11.952 5.184-11.952 13.824 0 8.676 5.112 13.644 11.772 13.644zm20.502 0c4.896 0 9.324-3.78 9.324-10.332 0-6.624-4.428-10.44-9.324-10.44s-9.324 3.816-9.324 10.44c0 6.552 4.428 10.332 9.324 10.332zm0-3.384c-3.096 0-5.04-2.772-5.04-6.948 0-4.212 1.944-7.02 5.04-7.02 3.132 0 5.076 2.808 5.076 7.02 0 4.176-1.944 6.948-5.076 6.948zm14.193 2.916h4.104v-14.04c1.656-1.8 3.132-2.7 4.464-2.7 2.268 0 3.312 1.368 3.312 4.788v11.952h4.14v-14.04c1.656-1.8 3.096-2.7 4.464-2.7 2.232 0 3.312 1.368 3.312 4.788v11.952h4.14V26.817c0-5.04-1.944-7.848-6.084-7.848-2.484 0-4.5 1.548-6.444 3.636-.864-2.268-2.52-3.636-5.472-3.636-2.448 0-4.428 1.476-6.12 3.276h-.108l-.324-2.772h-3.384v19.8zm33.926 8.028h4.104v-6.408l-.108-3.384c1.692 1.44 3.456 2.232 5.22 2.232 4.464 0 8.532-3.888 8.532-10.692 0-6.084-2.808-10.08-7.848-10.08-2.196 0-4.356 1.224-6.084 2.664h-.108l-.324-2.16h-3.384v27.828zm8.424-10.98c-1.224 0-2.772-.468-4.32-1.8v-9.684c1.692-1.62 3.168-2.412 4.716-2.412 3.312 0 4.644 2.556 4.644 6.696 0 4.644-2.16 7.2-5.04 7.2zm22.172 3.42c4.896 0 9.324-3.78 9.324-10.332 0-6.624-4.428-10.44-9.324-10.44s-9.324 3.816-9.324 10.44c0 6.552 4.428 10.332 9.324 10.332zm0-3.384c-3.096 0-5.04-2.772-5.04-6.948 0-4.212 1.944-7.02 5.04-7.02 3.132 0 5.076 2.808 5.076 7.02 0 4.176-1.944 6.948-5.076 6.948zm14.193 2.916h4.104v-14.04c1.764-1.764 3.024-2.7 4.86-2.7 2.34 0 3.348 1.368 3.348 4.788v11.952h4.14V26.817c0-5.04-1.872-7.848-6.084-7.848-2.7 0-4.716 1.476-6.552 3.24h-.108l-.324-2.736h-3.384v19.8zm30.709.468c2.592 0 4.86-.864 6.696-2.088l-1.44-2.628c-1.44.936-2.952 1.476-4.716 1.476-3.42 0-5.796-2.268-6.12-6.048h12.852c.108-.468.18-1.296.18-2.088 0-5.616-2.808-9.396-8.064-9.396-4.644 0-9.036 3.996-9.036 10.44 0 6.516 4.284 10.332 9.648 10.332zm-5.616-12.132c.396-3.492 2.592-5.4 5.076-5.4 2.88 0 4.428 1.98 4.428 5.4h-9.504zm17.727 11.664h4.104v-14.04c1.764-1.764 3.024-2.7 4.86-2.7 2.34 0 3.348 1.368 3.348 4.788v11.952h4.14V26.817c0-5.04-1.872-7.848-6.084-7.848-2.7 0-4.716 1.476-6.552 3.24h-.108l-.324-2.736h-3.384v19.8zm29.125.468c1.44 0 2.772-.36 3.888-.72l-.756-3.06c-.576.252-1.44.468-2.124.468-2.052 0-2.88-1.224-2.88-3.6V22.785h5.148v-3.312h-5.148v-5.472h-3.492l-.468 5.472-3.06.216v3.096h2.88v10.008c0 4.176 1.548 6.948 6.012 6.948zm12.591 0c4.896 0 7.524-2.7 7.524-6.012 0-3.744-3.06-4.968-5.832-6.012-2.16-.792-4.212-1.44-4.212-3.132 0-1.368 1.008-2.448 3.168-2.448 1.656 0 3.06.72 4.428 1.728l1.944-2.556c-1.62-1.26-3.78-2.34-6.444-2.34-4.356 0-7.02 2.484-7.02 5.796 0 3.348 3.024 4.752 5.652 5.76 2.16.828 4.392 1.62 4.392 3.42 0 1.512-1.116 2.664-3.492 2.664-2.124 0-3.852-.864-5.616-2.268l-1.944 2.664c1.908 1.584 4.716 2.736 7.452 2.736z" fill="#1C1C1E"/><path d="M436.835 10.182v29.091h-4.403V14.586h-.171l-6.96 4.545v-4.204l7.259-4.745h4.275zm17.997 29.574c-2.244-.01-4.162-.6-5.752-1.775-1.591-1.174-2.808-2.884-3.651-5.128s-1.264-4.948-1.264-8.11c0-3.154.421-5.848 1.264-8.083.852-2.235 2.074-3.94 3.665-5.114 1.6-1.174 3.513-1.761 5.738-1.761 2.226 0 4.134.592 5.725 1.775 1.591 1.175 2.808 2.88 3.65 5.114.853 2.225 1.279 4.915 1.279 8.068 0 3.172-.422 5.88-1.264 8.125-.843 2.235-2.06 3.944-3.651 5.128-1.591 1.174-3.504 1.761-5.739 1.761zm0-3.792c1.97 0 3.509-.961 4.617-2.884 1.117-1.922 1.676-4.701 1.676-8.338 0-2.415-.256-4.455-.767-6.122-.502-1.676-1.226-2.945-2.173-3.807-.938-.871-2.055-1.307-3.353-1.307-1.96 0-3.499.966-4.616 2.898-1.118 1.932-1.681 4.711-1.69 8.338 0 2.424.251 4.475.752 6.15.512 1.667 1.236 2.932 2.174 3.793.937.853 2.064 1.279 3.38 1.279zm25.821 3.792c-2.245-.01-4.162-.6-5.753-1.775-1.591-1.174-2.808-2.884-3.651-5.128s-1.264-4.948-1.264-8.11c0-3.154.421-5.848 1.264-8.083.853-2.235 2.074-3.94 3.665-5.114 1.6-1.174 3.513-1.761 5.739-1.761 2.225 0 4.133.592 5.724 1.775 1.591 1.175 2.808 2.88 3.651 5.114.852 2.225 1.278 4.915 1.278 8.068 0 3.172-.421 5.88-1.264 8.125-.843 2.235-2.06 3.944-3.651 5.128-1.591 1.174-3.503 1.761-5.738 1.761zm0-3.792c1.969 0 3.508-.961 4.616-2.884 1.118-1.922 1.676-4.701 1.676-8.338 0-2.415-.255-4.455-.767-6.122-.502-1.676-1.226-2.945-2.173-3.807-.938-.871-2.055-1.307-3.352-1.307-1.961 0-3.499.966-4.617 2.898-1.117 1.932-1.681 4.711-1.69 8.338 0 2.424.251 4.475.753 6.15.511 1.667 1.236 2.932 2.173 3.793.938.853 2.064 1.279 3.381 1.279zm24.3-1.577V15.182h3.821v19.205h-3.821zm-7.685-7.699v-3.807h19.205v3.807h-19.205z" fill="#2F80ED"/><path d="M548.492 39.273h16.056v-3.528h-11.88v-8.568h9.72V23.65h-9.72v-7.38h11.484v-3.492h-15.66v26.496zm33.826-19.8h-7.776v-2.052c0-2.376 1.08-3.636 2.844-3.636 1.008 0 1.764.18 2.556.54l.828-3.096c-1.008-.432-2.376-.72-3.816-.72-4.5 0-6.552 2.772-6.552 6.876v2.088l-2.7.216v3.096h2.7v16.488h4.14V22.785h7.776v16.488h4.14V22.785h3.996v-3.312h-3.996v-2.52c0-2.412.9-3.564 2.628-3.564.684 0 1.476.18 2.196.504l.828-3.096c-.9-.396-2.16-.684-3.528-.684-4.392 0-6.264 2.808-6.264 6.876v2.484zm13.824-3.708c1.512 0 2.664-1.008 2.664-2.448 0-1.476-1.152-2.448-2.664-2.448-1.512 0-2.664.972-2.664 2.448 0 1.44 1.152 2.448 2.664 2.448zm-2.088 23.508h4.176v-19.8h-4.176v19.8zm18.427.468a9.647 9.647 0 006.408-2.448l-1.692-2.736c-1.188 1.008-2.664 1.8-4.32 1.8-3.312 0-5.58-2.772-5.58-6.948 0-4.212 2.376-7.02 5.688-7.02 1.368 0 2.484.576 3.564 1.548l2.052-2.7c-1.44-1.26-3.276-2.268-5.796-2.268-5.22 0-9.792 3.816-9.792 10.44 0 6.552 4.104 10.332 9.468 10.332zm10.534-.468h4.104v-19.8h-4.104v19.8zm2.052-23.508c1.512 0 2.664-1.008 2.664-2.448 0-1.476-1.152-2.448-2.664-2.448-1.512 0-2.628.972-2.628 2.448 0 1.44 1.116 2.448 2.628 2.448zm16.528 23.976c2.592 0 4.86-.864 6.696-2.088l-1.44-2.628c-1.44.936-2.952 1.476-4.716 1.476-3.42 0-5.796-2.268-6.12-6.048h12.852c.108-.468.18-1.296.18-2.088 0-5.616-2.808-9.396-8.064-9.396-4.644 0-9.036 3.996-9.036 10.44 0 6.516 4.284 10.332 9.648 10.332zm-5.616-12.132c.396-3.492 2.592-5.4 5.076-5.4 2.88 0 4.428 1.98 4.428 5.4h-9.504zm17.727 11.664h4.104v-14.04c1.764-1.764 3.024-2.7 4.86-2.7 2.34 0 3.348 1.368 3.348 4.788v11.952h4.14V26.817c0-5.04-1.872-7.848-6.084-7.848-2.7 0-4.716 1.476-6.552 3.24h-.108l-.324-2.736h-3.384v19.8zm30.529.468a9.647 9.647 0 006.408-2.448l-1.692-2.736c-1.188 1.008-2.664 1.8-4.32 1.8-3.312 0-5.58-2.772-5.58-6.948 0-4.212 2.376-7.02 5.688-7.02 1.368 0 2.484.576 3.564 1.548l2.052-2.7c-1.44-1.26-3.276-2.268-5.796-2.268-5.22 0-9.792 3.816-9.792 10.44 0 6.552 4.104 10.332 9.468 10.332zm26.729-20.268h-4.032l-3.168 10.188-1.548 5.58h-.18c-.612-1.836-1.224-3.816-1.8-5.58l-3.672-10.188h-4.248l7.848 19.656-.396 1.368c-.72 2.124-1.98 3.708-4.14 3.708-.504 0-1.08-.18-1.44-.288l-.792 3.24c.684.252 1.476.396 2.484.396 4.176 0 6.264-2.844 7.812-7.092l7.272-20.988zm22.844 20.268c3.636 0 6.624-1.332 8.388-3.096V25.161h-9.036v3.42h5.256v6.228c-.936.828-2.556 1.296-4.176 1.296-5.472 0-8.388-3.852-8.388-10.152 0-6.228 3.276-10.044 8.208-10.044 2.556 0 4.176 1.044 5.472 2.376l2.268-2.664c-1.62-1.692-4.14-3.348-7.884-3.348-7.02 0-12.348 5.184-12.348 13.824 0 8.676 5.148 13.644 12.24 13.644zm18.762 0c2.376 0 4.5-1.188 6.3-2.736h.108l.36 2.268h3.384V27.357c0-5.256-2.268-8.388-7.2-8.388-3.168 0-5.94 1.296-7.992 2.592l1.548 2.808c1.692-1.08 3.636-2.016 5.724-2.016 2.916 0 3.744 2.016 3.78 4.32-8.244.9-11.844 3.096-11.844 7.344 0 3.492 2.412 5.724 5.832 5.724zm1.26-3.276c-1.764 0-3.096-.792-3.096-2.736 0-2.232 1.98-3.708 7.848-4.428v4.86c-1.62 1.476-3.024 2.304-4.752 2.304zm14.767 2.808h4.104v-19.8h-4.104v19.8zm2.052-23.508c1.512 0 2.664-1.008 2.664-2.448 0-1.476-1.152-2.448-2.664-2.448-1.512 0-2.628.972-2.628 2.448 0 1.44 1.116 2.448 2.628 2.448zm8.284 23.508h4.104v-14.04c1.764-1.764 3.024-2.7 4.86-2.7 2.34 0 3.348 1.368 3.348 4.788v11.952h4.14V26.817c0-5.04-1.872-7.848-6.084-7.848-2.7 0-4.716 1.476-6.552 3.24h-.108l-.324-2.736h-3.384v19.8z" fill="#1C1C1E"/><path d="M812.798 39.273v-3.181l9.844-10.2a54.098 54.098 0 002.599-2.911c.692-.843 1.208-1.643 1.549-2.4a5.815 5.815 0 00.511-2.415c0-.966-.227-1.8-.682-2.5a4.45 4.45 0 00-1.86-1.634c-.786-.388-1.672-.582-2.657-.582-1.041 0-1.95.213-2.727.639a4.38 4.38 0 00-1.79 1.804c-.416.776-.625 1.685-.625 2.727h-4.19c0-1.77.407-3.32 1.221-4.645.815-1.326 1.932-2.353 3.353-3.082 1.42-.739 3.035-1.108 4.844-1.108 1.827 0 3.437.364 4.829 1.094 1.402.72 2.495 1.704 3.281 2.954.786 1.24 1.179 2.642 1.179 4.205a8.54 8.54 0 01-.611 3.167c-.397 1.033-1.093 2.183-2.088 3.452-.994 1.26-2.376 2.789-4.147 4.588l-5.782 6.051v.213h13.097v3.764h-19.148zm25.512 0l12.699-25.113v-.213h-14.688v-3.764h19.233v3.892l-12.656 25.198h-4.588zm37.368-5.454v-1.534c0-1.099.228-2.102.682-3.012a5.441 5.441 0 012.017-2.201c.89-.559 1.965-.838 3.225-.838 1.287 0 2.367.274 3.238.823a5.28 5.28 0 011.975 2.202c.454.919.681 1.927.681 3.026v1.534c0 1.098-.227 2.107-.681 3.025a5.47 5.47 0 01-2.003 2.202c-.871.55-1.941.824-3.21.824-1.279 0-2.358-.275-3.239-.824a5.464 5.464 0 01-2.003-2.202c-.454-.918-.682-1.927-.682-3.025zm3.31-1.534v1.534c0 .814.194 1.553.582 2.216.389.663 1.066.994 2.032.994.956 0 1.624-.331 2.002-.994a4.385 4.385 0 00.569-2.216v-1.534c0-.815-.185-1.553-.554-2.216-.36-.663-1.033-.994-2.017-.994-.947 0-1.62.331-2.017.994a4.222 4.222 0 00-.597 2.216zm-17.94-15.114v-1.534c0-1.098.227-2.107.681-3.026a5.447 5.447 0 012.017-2.201c.891-.55 1.965-.824 3.225-.824 1.288 0 2.367.275 3.239.824a5.276 5.276 0 011.974 2.201c.445.92.668 1.928.668 3.026v1.534c0 1.099-.228 2.107-.682 3.026a5.36 5.36 0 01-1.989 2.201c-.871.55-1.941.824-3.21.824-1.288 0-2.372-.274-3.253-.824a5.5 5.5 0 01-1.989-2.201c-.454-.919-.681-1.927-.681-3.026zm3.323-1.534v1.534c0 .815.19 1.553.569 2.216.388.663 1.065.994 2.031.994.947 0 1.61-.331 1.989-.994a4.305 4.305 0 00.582-2.216v-1.534a4.48 4.48 0 00-.554-2.216c-.369-.663-1.042-.994-2.017-.994-.947 0-1.619.331-2.017.994a4.306 4.306 0 00-.583 2.216zm-1.974 23.636l20-29.09h3.395l-20 29.09h-3.395z" fill="#2F80ED"/></svg>