<svg width="1140" height="198" fill="none" xmlns="http://www.w3.org/2000/svg"><path d="M8.259 26.384c-1.466-.006-2.728-.367-3.785-1.083-1.05-.716-1.86-1.753-2.429-3.11-.562-1.359-.84-2.992-.835-4.901 0-1.904.281-3.526.844-4.867.568-1.34 1.378-2.36 2.429-3.06C5.54 8.66 6.798 8.308 8.259 8.308c1.46 0 2.715.352 3.767 1.057 1.056.704 1.869 1.727 2.437 3.068.568 1.335.85 2.954.844 4.858 0 1.915-.284 3.55-.853 4.909-.562 1.358-1.369 2.395-2.42 3.11-1.051.717-2.31 1.075-3.775 1.075zm0-3.06c1 0 1.798-.503 2.394-1.509.597-1.005.893-2.514.887-4.525 0-1.324-.137-2.426-.41-3.307-.266-.88-.647-1.543-1.141-1.986a2.49 2.49 0 00-1.73-.665c-.995 0-1.79.497-2.387 1.492-.596.994-.898 2.483-.903 4.466 0 1.34.133 2.46.4 3.358.273.892.657 1.562 1.15 2.011a2.521 2.521 0 001.74.665zM25.532 8.545V26h-3.69V12.048h-.103l-3.997 2.506v-3.273l4.321-2.736h3.469z" fill="#D1D1D6"/><path d="M19.56 47.184l-.624.168H2.28v2.808h13.848c-1.584 1.416-3.648 2.952-5.52 3.936v10.632c0 .408-.192.552-.72.552s-2.496.024-4.2-.048c.456.768 1.008 2.04 1.152 2.88 2.304.024 4.008-.048 5.208-.48 1.176-.432 1.56-1.2 1.56-2.832v-9.264c3-1.776 6.048-4.32 8.256-6.672l-2.304-1.68zm16.08 6.6c.456.48.936 1.152 1.152 1.632.168-.072.336-.168.504-.24-.288 1.704-.864 3.456-1.656 4.68v-6.072zm-3.696 5.928V57.72h1.368v1.992h-1.368zm-3.24-1.992h1.368v1.992H28.68c.024-.552.024-1.08.024-1.584v-.408zm2.52-7.656c-.216.6-.432 1.224-.672 1.752h-2.064c.288-.552.552-1.152.816-1.752h1.92zm.72 3.84h1.368v1.8h-1.368v-1.8zm-3.24 0h1.368v1.8h-1.368v-1.8zm18.552 7.68h-4.08v-2.16h3.6v-2.4h-3.6v-2.16h-2.712v2.16h-1.176c.144-.504.24-1.032.336-1.536l-2.136-.432c2.448-1.344 3.36-3.336 3.768-5.832h2.784c-.096 1.992-.216 2.808-.432 3.072-.168.216-.36.264-.648.264-.336 0-.984-.024-1.728-.096.36.6.6 1.56.648 2.304.96.024 1.896 0 2.424-.072.6-.096 1.056-.288 1.464-.792.528-.624.72-2.28.84-6.096.024-.312.048-.912.048-.912H36v2.328h2.688c-.336 1.752-1.056 3.144-3.048 4.056v-1.464h-2.688c.504-.984.984-2.088 1.32-3.024l-1.632-1.008-.36.12h-2.184c.192-.552.36-1.128.504-1.704l-2.52-.528c-.648 2.808-1.92 5.616-3.552 7.368a15.461 15.461 0 011.872 1.536v3.552c0 2.688-.12 6.264-1.728 8.736.528.24 1.56.888 1.968 1.272 1.104-1.728 1.656-4.056 1.896-6.312h4.776v3.456c0 .312-.12.408-.408.408s-1.224 0-2.184-.048c.36.648.744 1.728.816 2.424 1.464 0 2.448-.072 3.192-.48.72-.408.912-1.128.912-2.256v-5.064c.6.264 1.464.72 1.872 1.008.36-.528.672-1.152.96-1.848h1.992v2.16h-4.44v2.448h4.44v3.96h2.712v-3.96h4.08v-2.448zm14.424-3.192V55.44h5.064v2.952H61.68zm-7.464 0c.048-.888.072-1.752.072-2.52v-.432H58.8v2.952h-4.584zm4.584-8.4v2.784h-4.512v-2.784H58.8zm7.944 2.784H61.68v-2.784h5.064v2.784zm2.832-5.496h-18.12v8.568c0 3.36-.216 7.632-2.832 10.512.648.336 1.8 1.32 2.256 1.848 1.728-1.872 2.592-4.512 3.024-7.128H58.8v6.696h2.88V61.08h5.064v3.6c0 .432-.168.576-.624.576-.432 0-2.016.024-3.36-.048.36.744.816 1.968.912 2.736 2.16.024 3.624-.024 4.608-.504.96-.432 1.296-1.2 1.296-2.736V47.28zm9.24 10.872c.096-1.152.144-2.28.144-3.264v-.24h10.584v3.504H78.816zm.144-6.144v-1.992c4.464-.432 9.288-1.152 12.96-2.16l-2.256-2.16c-3.264.96-8.736 1.776-13.584 2.208v6.96c0 3.504-.288 8.232-3.408 11.4.6.36 1.776 1.392 2.208 1.944 1.992-1.968 3.024-4.704 3.552-7.416h11.112v1.2h2.928v-9.984H78.96zm33.264 10.272v-1.296h3.12v1.296h-3.12zm-5.688 0v-1.296h3.072v1.296h-3.072zm3.072-4.488v1.224h-3.072v-1.224h3.072zm5.736 1.224h-3.12v-1.224h3.12v1.224zm2.664-3.288h-3.936a13.536 13.536 0 00-.84-.432c1.584-.888 3.168-1.92 4.44-2.904l-1.608-1.464-.6.144h-10.776v1.968h8.28c-.624.456-1.32.888-1.968 1.248-1.056-.432-2.16-.888-3.12-1.224l-1.584 1.512c.912.312 1.896.72 2.856 1.152h-5.232V68.04h2.616v-3.792h3.072v3.504h2.616v-3.504h3.12v1.392c0 .264-.096.36-.408.36-.264 0-1.176 0-1.968-.024.288.576.624 1.392.72 2.04 1.464 0 2.544-.024 3.288-.36.792-.36 1.032-.84 1.032-2.016v-9.912zm-6.552-7.992a15.297 15.297 0 00-1.368-2.304l-2.76.72c.312.456.624 1.032.888 1.584h-7.968v5.76c-.336-1.128-.936-2.544-1.536-3.696l-2.088 1.056c.672 1.464 1.368 3.384 1.56 4.584l2.064-1.08v.984c0 .6 0 1.248-.024 1.872-1.416.744-2.76 1.392-3.744 1.8l.816 2.64c.864-.504 1.752-1.032 2.64-1.584-.384 2.184-1.104 4.32-2.688 6 .576.336 1.632 1.368 2.016 1.92 3.144-3.288 3.648-8.832 3.648-12.648v-5.16h16.056v-2.448h-7.512zm12.312 1.752c.336 1.08.576 2.424.624 3.336l1.272-.384c-.072-.936-.384-2.352-.768-3.456l-1.128.336v-1.008h2.016v5.208h-2.016v-4.032zm5.808-.12l-1.152-.408c-.168.96-.576 2.352-.912 3.312v-3.96h2.064v1.056zm-2.064 4.152v-1.032l.984.36c.312-.696.696-1.728 1.08-2.736v3.408h-2.064zm-6.336 8.808c2.904-.12 7.008-.336 10.896-.576l.048-2.208c-1.392.048-2.832.12-4.224.168v-1.056h3.84v-2.16h-3.84V55.44h3.888v-9.048h-10.152v9.048h3.744v1.056h-3.696v2.16h3.696v1.152c-1.608.048-3.072.096-4.272.12l.072 2.4zm1.248 5.76c1.008-1.104 1.416-2.928 1.704-4.632l-1.92-.576c-.216 1.584-.768 3.24-1.632 4.248l1.848.96zm1.872-5.064c.264 1.344.456 3.072.408 4.2l1.848-.216c-.024-1.152-.216-2.856-.504-4.2l-1.752.216zm2.4-.096c.456 1.272.864 2.928.984 4.008l1.752-.36c-.144-1.104-.576-2.712-1.032-3.984l-1.704.336zm2.328-.216c.744 1.2 1.464 2.784 1.752 3.84l1.8-.744c-.312-1.056-1.08-2.592-1.848-3.72l-1.704.624zm10.632 1.848h-4.44v-5.016h4.44v5.016zm3.528-11.304v-2.64h-4.632v-4.92h-2.784v11.256h-3.144v11.112h2.592v-.936h4.44v.84h2.736V56.952h-3.84v-3.696h4.632z" fill="#2F80ED"/><path d="M305.259 26.384c-1.466-.006-2.728-.367-3.785-1.083-1.051-.716-1.86-1.753-2.429-3.11-.562-1.359-.84-2.992-.835-4.901 0-1.904.281-3.526.844-4.867.568-1.34 1.378-2.36 2.429-3.06 1.057-.704 2.315-1.056 3.776-1.056 1.46 0 2.715.352 3.767 1.057 1.056.704 1.869 1.727 2.437 3.068.568 1.335.85 2.954.844 4.858 0 1.915-.284 3.55-.852 4.909-.563 1.358-1.37 2.395-2.421 3.11-1.051.717-2.31 1.075-3.775 1.075zm0-3.06c1 0 1.798-.503 2.394-1.509.597-1.005.892-2.514.887-4.525 0-1.324-.137-2.426-.409-3.307-.267-.88-.648-1.543-1.142-1.986a2.492 2.492 0 00-1.73-.665c-.995 0-1.79.497-2.387 1.492-.596.994-.898 2.483-.903 4.466 0 1.34.133 2.46.4 3.358.273.892.657 1.562 1.151 2.011a2.521 2.521 0 001.739.665zM314.938 26v-2.66l6.213-5.752c.529-.511.972-.972 1.33-1.38.363-.41.639-.81.827-1.202.187-.398.281-.827.281-1.287 0-.512-.117-.952-.35-1.321a2.296 2.296 0 00-.954-.861 2.994 2.994 0 00-1.372-.307c-.534 0-1 .108-1.398.324a2.232 2.232 0 00-.921.929c-.215.403-.323.883-.323 1.44h-3.503c0-1.142.258-2.133.775-2.974.517-.841 1.242-1.492 2.174-1.952.931-.46 2.005-.69 3.221-.69 1.25 0 2.338.221 3.264.665.932.437 1.657 1.045 2.174 1.824.517.778.775 1.67.775 2.676 0 .659-.13 1.31-.392 1.951-.255.642-.713 1.355-1.372 2.14-.659.778-1.588 1.713-2.787 2.803l-2.548 2.498v.119h7.329V26h-12.443z" fill="#D1D1D6"/><path d="M301.56 49.904h14.76v3.312h2.952v-6h-8.328c-.264-.864-.768-1.944-1.248-2.784l-2.88.792c.312.624.6 1.32.84 1.992h-8.904v6h2.808v-3.312zm8.928 10.368h6.576v-2.688h-6.576v-2.832h5.112v-2.736h-13.2v2.736h5.112v8.136c-1.392-.72-2.496-1.872-3.216-3.84a33.15 33.15 0 00.504-2.904l-2.904-.264c-.432 4.08-1.632 7.416-4.224 9.36.648.384 1.872 1.392 2.328 1.896 1.368-1.176 2.424-2.736 3.216-4.608 2.184 3.48 5.472 4.224 9.96 4.224h5.976c.144-.864.6-2.232 1.032-2.904-1.632.048-5.592.048-6.864.048-1.008 0-1.944-.048-2.832-.168v-3.456zm29.304.168a9.136 9.136 0 01-1.752 1.536c-.288-.456-.528-.984-.744-1.536h2.496zm-10.056-2.088v-1.248c1.2-.168 2.328-.36 3.312-.576l-1.56-1.608h7.104l-1.488 1.56c1.2.432 2.568 1.2 3.504 1.872h-3.96a18.144 18.144 0 01-.408-3.12h-2.736c.072 1.08.192 2.136.384 3.12h-4.152zm10.488 2.088h3.6v-2.088h-2.352l1.272-1.416c-.864-.672-2.472-1.512-3.792-2.016h4.752v-2.16h-9.288v-.888h6.96v-1.968h-6.96v-.864h8.232v-2.112h-4.152a32 32 0 001.248-1.704l-3.168-.6c-.216.672-.648 1.584-1.056 2.304h-4.824c-.264-.672-.864-1.608-1.464-2.232l-2.496.792c.336.432.648.936.912 1.44H323.4v2.112h8.088v.864h-6.816v1.968h6.816v.888h-9.168v2.16h8.808c-2.112.48-5.52.816-8.448.984.24.48.504 1.224.6 1.704a51.906 51.906 0 003.744-.216v.96h-4.752v2.088h4.752v1.056c-1.824.096-3.504.168-4.824.216l.216 2.184c1.344-.096 2.928-.192 4.608-.336v.96c0 .312-.12.408-.48.408-.36.024-1.68.048-2.712-.024a9.25 9.25 0 01.816 2.184c1.776 0 3-.024 3.936-.36.888-.312 1.152-.864 1.152-2.136v-1.224l3.576-.288.024-1.92-3.6.192v-.912h4.68a13.44 13.44 0 001.2 2.856c-1.488.648-3.168 1.152-4.824 1.512.456.552 1.128 1.68 1.392 2.256a27.137 27.137 0 004.872-1.848c1.152 1.176 2.52 1.848 4.104 1.848 1.896 0 2.688-.576 3.072-3.264-.648-.192-1.536-.6-2.088-1.104-.12 1.344-.264 1.776-.84 1.776-.624 0-1.224-.24-1.8-.696 1.08-.768 2.064-1.632 2.808-2.616l-2.088-.72zm13.248-12.672v1.296H349.8v-1.296h3.672zm-3.672 4.584v-1.368h3.672v1.368H349.8zm6.336 2.16v-8.928h-9.168v21.504h2.832V54.512h6.336zm2.76 4.008v2.832h-3.96V58.52h3.96zm2.664 5.184v-7.536h-9.288v8.88h2.664v-1.344h6.624zm-1.056-11.328v-1.392h3.792v1.392h-3.792zm3.792-4.632v1.32h-3.792v-1.32h3.792zm2.904-2.16h-9.408v8.952h6.504v9.096c0 .432-.168.576-.624.576-.456.024-2.088.048-3.48-.048.408.768.864 2.112.96 2.928 2.208 0 3.72-.072 4.704-.552 1.008-.456 1.344-1.272 1.344-2.856V45.584zm21.216 6.408h-4.368v-1.104h4.368v1.104zm0 2.952h-4.368V53.84h4.368v1.104zm0 2.976h-4.368v-1.152h4.368v1.152zm-6.912-8.952v10.896h9.552V48.968h-4.08l.576-1.296h4.2V45.68H380.76v1.992h4.224c-.144.432-.264.888-.408 1.296h-3.072zm5.304 11.952c1.2.84 2.688 2.256 3.432 3.192l2.04-1.2c-.744-.912-2.232-2.184-3.504-3.024l-1.968 1.032zm-3.36-.888c-.84 1.008-2.28 1.944-3.696 2.592.504.384 1.416 1.2 1.824 1.656 1.488-.792 3.168-2.16 4.2-3.504l-2.328-.744zm-6.288-11.4h-3.432v-1.128h3.432v1.128zm0 2.976h-3.432v-1.176h3.432v1.176zm2.64-6h-8.616v7.92h8.616v-7.92zm-2.856 15.384h3.456v-2.064h-3.456V56.96h3.912v-2.064h-10.752v2.064h4.44v5.472c-.48-.504-.888-1.128-1.224-1.896.072-.864.12-1.728.144-2.616h-2.28c-.072 2.88-.312 5.712-1.656 7.368.576.432 1.296 1.344 1.656 1.944.816-.984 1.344-2.256 1.68-3.696 1.92 2.616 4.896 3.072 9.408 3.072h9.24c.144-.696.528-1.8.912-2.352-1.968.096-8.52.096-10.152.096-2.136 0-3.888-.096-5.328-.528v-2.832zm34.296-5.88c-.744 1.92-1.824 3.576-3.192 4.944-1.416-1.392-2.52-3.072-3.312-4.944h6.504zm-9.36-6.672h4.8a86.922 86.922 0 01-.984 3.96h-3.864c.024-.744.048-1.44.048-2.112V48.44zm11.16 3.84l-.528.12h-3.6c.456-1.992.96-4.536 1.344-6.744h-15.168v2.784h3.792v1.824c0 3.888-.48 9.936-5.232 13.992.624.552 1.656 1.728 2.064 2.472 3.84-3.336 5.304-7.704 5.856-11.616h.36c1.008 2.64 2.256 4.92 3.888 6.792-1.896 1.32-4.128 2.256-6.552 2.832.6.648 1.32 1.848 1.656 2.664 2.664-.792 5.088-1.848 7.128-3.36 1.752 1.392 3.816 2.4 6.264 3.12.456-.816 1.32-2.064 1.992-2.712-2.256-.528-4.2-1.344-5.88-2.448 2.16-2.232 3.768-5.112 4.704-8.832l-2.088-.888zm10.272 10.272V59.72h11.112v2.832h-11.112zm11.112-8.352v2.832h-11.112V54.2h11.112zm0-5.448v2.76h-11.112v-2.76h11.112zm-13.992-2.784v20.856h2.88v-1.488h11.112v1.488h3.024V45.968h-17.016zm37.056 2.928h-1.272v-1.08h1.272v1.08zm3.408 2.016v1.8h-1.368v-1.8h1.368zm-4.68 0h1.272v1.8h-1.272v-1.8zm-3.312 0h1.296v1.8h-1.296v-1.8zm1.296-2.016h-3.6v5.832h12.768v-5.832h-3.84v-1.08h4.272V45.56h-13.656v2.256h4.056v1.08zm8.184 8.832v-2.16h-10.776v2.16h10.776zm-11.808-.6c-.408-.672-2.208-3.48-2.832-4.296v-1.056h2.328v-2.64h-2.328v-4.464h-2.592v4.464h-3v2.64h2.64c-.648 2.712-1.92 6.048-3.24 7.896.408.744 1.032 2.064 1.32 2.904.864-1.368 1.632-3.36 2.28-5.52v10.008h2.592V56.408c.48.96.912 1.968 1.176 2.664l1.656-1.944zm1.608 4.296c-.648 1.344-1.8 2.76-3.024 3.696.6.36 1.656 1.08 2.136 1.512 1.2-1.104 2.544-2.832 3.36-4.512l-2.472-.696zm11.664-.504v-2.232h-13.68v2.232h5.448v6.144h2.544V60.92h5.688zm-4.8 1.584c1.08 1.2 2.328 2.88 2.856 3.96l2.208-1.296c-.624-1.032-1.872-2.592-3-3.72l-2.064 1.056z" fill="#2F80ED"/><path d="M602.259 26.384c-1.466-.006-2.728-.367-3.785-1.083-1.051-.716-1.86-1.753-2.429-3.11-.562-1.359-.84-2.992-.835-4.901 0-1.904.281-3.526.844-4.867.568-1.34 1.378-2.36 2.429-3.06 1.057-.704 2.315-1.056 3.776-1.056 1.46 0 2.715.352 3.767 1.057 1.056.704 1.869 1.727 2.437 3.068.568 1.335.85 2.954.844 4.858 0 1.915-.284 3.55-.852 4.909-.563 1.358-1.37 2.395-2.421 3.11-1.051.717-2.31 1.075-3.775 1.075zm0-3.06c1 0 1.798-.503 2.394-1.509.597-1.005.892-2.514.887-4.525 0-1.324-.137-2.426-.409-3.307-.267-.88-.648-1.543-1.142-1.986a2.492 2.492 0 00-1.73-.665c-.995 0-1.79.497-2.387 1.492-.596.994-.898 2.483-.903 4.466 0 1.34.133 2.46.4 3.358.273.892.657 1.562 1.151 2.011a2.521 2.521 0 001.739.665zm16.131 2.915c-1.273 0-2.406-.22-3.401-.657-.988-.443-1.77-1.05-2.343-1.823-.569-.779-.861-1.677-.878-2.694h3.716c.022.426.162.801.417 1.125.262.319.608.566 1.04.742.432.176.918.264 1.457.264.563 0 1.06-.1 1.492-.298.432-.2.77-.475 1.014-.827s.367-.759.367-1.219c0-.466-.131-.878-.392-1.236-.256-.363-.625-.647-1.108-.852-.478-.204-1.046-.307-1.705-.307h-1.628v-2.71h1.628c.557 0 1.048-.096 1.474-.29.432-.193.768-.46 1.006-.8a2.08 2.08 0 00.358-1.211 2.094 2.094 0 00-1.185-1.935c-.369-.187-.801-.28-1.295-.28-.5 0-.957.09-1.372.272a2.397 2.397 0 00-.997.758c-.25.33-.384.716-.401 1.16h-3.537c.017-1.006.304-1.893.861-2.66.557-.767 1.307-1.366 2.25-1.798.949-.437 2.02-.656 3.213-.656 1.205 0 2.259.219 3.162.656.903.438 1.605 1.028 2.105 1.773.506.738.756 1.568.75 2.488.006.978-.298 1.793-.912 2.447-.608.653-1.4 1.068-2.378 1.244v.136c1.284.165 2.262.61 2.932 1.338.676.722 1.012 1.625 1.006 2.71.006.995-.281 1.878-.861 2.651-.574.773-1.366 1.38-2.378 1.824-1.011.443-2.17.665-3.477.665z" fill="#D1D1D6"/><path d="M611.76 61.68a9.126 9.126 0 01-1.512 1.68c-1.08-.6-2.184-1.152-3.192-1.68h4.704zm1.704-1.968l-.432.072h-7.8v1.896h.576l-.96 1.152c1.032.552 2.16 1.2 3.336 1.848-1.248.624-2.712 1.08-4.272 1.344.456.528.96 1.44 1.2 2.064 1.992-.456 3.84-1.128 5.352-2.064a51.153 51.153 0 013.264 2.088l1.44-1.896c-.72-.48-1.704-1.08-2.784-1.68 1.152-1.128 2.04-2.52 2.64-4.272l-1.56-.552zm1.248-11.52c-.648.768-1.752 1.776-2.664 2.496a17.815 17.815 0 01-1.272-1.08c.912-.648 1.944-1.512 2.928-2.328l-2.04-1.464c-.576.672-1.464 1.536-2.256 2.208a9.76 9.76 0 01-1.368-2.256l-2.28.672c1.152 2.568 2.76 4.704 4.848 6.36h-4.584v1.704c0 1.08-.216 2.232-1.704 3.216v-4.776h-3.144c1.944-1.464 3.552-3.336 4.512-5.688l-1.752-.864-.48.12h-6.264v2.232h4.728c-.408.552-.888 1.056-1.392 1.536-.696-.528-1.704-1.104-2.52-1.512l-1.632 1.512c.72.408 1.584.96 2.232 1.44-1.248.792-2.616 1.44-4.032 1.848.504.504 1.2 1.464 1.536 2.088a19.282 19.282 0 002.184-.936v.384h3.48v1.68h-4.248c-.216 1.896-.6 4.272-.936 5.832h5.04c-.168 1.632-.384 2.4-.672 2.664-.216.216-.48.24-.864.24-.528 0-1.704-.024-2.904-.12.432.648.768 1.632.816 2.376 1.272.048 2.52.048 3.168-.024.84-.048 1.416-.24 1.92-.792.624-.624.912-2.184 1.176-5.424.024-.336.048-.984.048-.984h-4.992c.072-.528.144-1.104.24-1.656h4.752v-.72c.48.432 1.176 1.128 1.44 1.536 1.992-1.272 2.568-3.072 2.64-4.752h2.208v1.392c0 1.944.384 2.76 2.4 2.76h1.488c.504 0 1.056-.024 1.392-.144-.096-.552-.144-1.368-.192-1.944-.312.096-.888.12-1.224.12h-1.176c-.312 0-.36-.192-.36-.768v-2.064c.864.456 1.752.84 2.736 1.152.384-.696 1.104-1.704 1.704-2.256a17.303 17.303 0 01-3.432-1.344c.888-.624 1.92-1.392 2.832-2.208l-2.064-1.464zm18.072 7.92h4.416v1.44h-4.416v-1.44zm0-3.48h4.416v1.392h-4.416v-1.392zm0-3.504h4.416v1.392h-4.416v-1.392zm-5.04 11.592c1.08 1.008 2.496 2.472 3.168 3.336l2.064-1.728c-.576-.672-1.608-1.68-2.544-2.544h9.504V46.872h-9.744v12.696l-.48-.432-1.968 1.584zm-4.584-.648h2.712v-5.016c.864.792 1.752 1.656 2.304 2.256l1.488-2.28c-.552-.456-2.832-2.088-3.792-2.64v-.888h3.384V49.08h-3.384v-3.384h-2.712v3.384h-3.936v2.424h3.48c-.936 2.088-2.496 4.176-4.08 5.352.576.456 1.416 1.344 1.824 1.968.984-.864 1.896-2.064 2.712-3.48v4.728zm-1.752 6.696c.84-1.392 1.536-3.528 2.016-5.232l-2.544-1.008c-.408 1.704-1.224 3.672-2.088 4.944l2.616 1.296zm7.248-1.68c-1.296 0-1.536-.096-1.536-.816v-3.24h-2.808v3.288c0 2.496.816 3.288 4.08 3.288h4.32c2.64 0 3.432-.84 3.792-4.272-.792-.144-1.992-.552-2.568-1.008-.144 2.424-.312 2.76-1.44 2.76h-3.84zm7.176-3.72c.936 1.608 2.256 3.72 2.832 4.992l2.664-1.368c-.648-1.248-2.04-3.288-3-4.776l-2.496 1.152zm17.808-7.584c.456.48.936 1.152 1.152 1.632.168-.072.336-.168.504-.24-.288 1.704-.864 3.456-1.656 4.68v-6.072zm-3.696 5.928V57.72h1.368v1.992h-1.368zm-3.24-1.992h1.368v1.992h-1.392c.024-.552.024-1.08.024-1.584v-.408zm2.52-7.656c-.216.6-.432 1.224-.672 1.752h-2.064c.288-.552.552-1.152.816-1.752h1.92zm.72 3.84h1.368v1.8h-1.368v-1.8zm-3.24 0h1.368v1.8h-1.368v-1.8zm18.552 7.68h-4.08v-2.16h3.6v-2.4h-3.6v-2.16h-2.712v2.16h-1.176c.144-.504.24-1.032.336-1.536l-2.136-.432c2.448-1.344 3.36-3.336 3.768-5.832h2.784c-.096 1.992-.216 2.808-.432 3.072-.168.216-.36.264-.648.264-.336 0-.984-.024-1.728-.096.36.6.6 1.56.648 2.304.96.024 1.896 0 2.424-.072.6-.096 1.056-.288 1.464-.792.528-.624.72-2.28.84-6.096.024-.312.048-.912.048-.912H654v2.328h2.688c-.336 1.752-1.056 3.144-3.048 4.056v-1.464h-2.688c.504-.984.984-2.088 1.32-3.024l-1.632-1.008-.36.12h-2.184c.192-.552.36-1.128.504-1.704l-2.52-.528c-.648 2.808-1.92 5.616-3.552 7.368a15.461 15.461 0 011.872 1.536v3.552c0 2.688-.12 6.264-1.728 8.736.528.24 1.56.888 1.968 1.272 1.104-1.728 1.656-4.056 1.896-6.312h4.776v3.456c0 .312-.12.408-.408.408s-1.224 0-2.184-.048c.36.648.744 1.728.816 2.424 1.464 0 2.448-.072 3.192-.48.72-.408.912-1.128.912-2.256v-5.064c.6.264 1.464.72 1.872 1.008.36-.528.672-1.152.96-1.848h1.992v2.16h-4.44v2.448h4.44v3.96h2.712v-3.96h4.08v-2.448zm9.168-13.224c-1.008-.84-3.048-1.872-4.56-2.448l-1.584 2.136c1.584.648 3.552 1.8 4.488 2.64l1.656-2.328zm-1.464 6.504c-1.032-.816-3.048-1.8-4.608-2.376l-1.464 2.16c1.536.648 3.552 1.752 4.464 2.592l1.608-2.376zm-.696 3.456c-1.44 2.784-3.264 5.76-4.536 7.56l2.424 1.92c1.416-2.328 2.928-5.064 4.224-7.536l-2.112-1.944zm9.576-6.288h2.76v4.344h-2.832a40.67 40.67 0 00.072-2.4v-1.944zm7.344 7.032v-2.688h-1.8v-7.032h-5.544v-3.648h-2.856v3.648h-4.2v2.688h4.2v1.944c0 .816-.024 1.608-.072 2.4h-5.328v2.688h4.896c-.696 2.664-2.28 5.112-5.88 7.008.72.432 1.848 1.416 2.376 2.04 4.176-2.352 5.832-5.592 6.48-9.048h7.728zm-7.152 1.272c1.608 2.448 3.792 5.784 4.776 7.752l2.544-1.464c-1.056-1.92-3.36-5.16-4.968-7.488l-2.352 1.2zm30.696-8.016v-2.808h-9.84l1.656-.72c-.36-.912-1.08-2.352-1.728-3.432l-2.808 1.056c.48.96 1.056 2.16 1.44 3.096H691.32v2.808h6.048c-.24 5.064-.696 10.464-6.456 13.512.768.6 1.656 1.584 2.088 2.376 4.32-2.496 6.096-6.24 6.912-10.248h7.56c-.336 4.296-.768 6.36-1.392 6.888-.336.264-.648.312-1.176.312-.72 0-2.4-.024-4.032-.192.552.792.96 1.992 1.008 2.808 1.632.072 3.216.096 4.152 0 1.08-.12 1.848-.336 2.568-1.128.984-1.032 1.488-3.696 1.92-10.2.072-.384.096-1.248.096-1.248H700.32c.12-.96.168-1.92.24-2.88h12.168zm15.6 1.632c-.528.528-1.152.96-1.848 1.344a95.379 95.379 0 00-3.936-.744c.216-.192.408-.384.6-.6h5.184zm8.352 3.984c-1.8-.624-4.152-1.296-6.744-1.92a8.991 8.991 0 001.824-2.064h4.896V51.72h-3.768c.12-.288.24-.6.336-.912l-2.784-.552c-.168.504-.36 1.008-.576 1.464h-4.632c.456-.528.84-1.056 1.224-1.56l-1.728-.528h8.808v1.32h2.76V47.28h-8.568a16.714 16.714 0 00-.936-1.608l-3.024.6c.168.312.336.648.504 1.008h-8.52v3.672h2.64v-1.32h5.208a25.022 25.022 0 01-1.512 2.088h-6.744v2.232h4.776a25.38 25.38 0 01-1.992 1.968c1.416.216 2.76.456 4.104.72-1.968.336-4.296.528-7.056.6.408.6.768 1.488.984 2.352 4.728-.264 8.304-.768 10.992-1.872 2.736.672 5.112 1.368 6.816 2.064l2.712-1.848zm.24 2.424h-9.552v-1.656h-2.856v1.656h-9.36v2.352h5.232c-1.104 1.248-3.24 2.4-5.28 3.072.672.456 1.848 1.344 2.4 1.896 2.04-.912 4.392-2.4 5.784-4.032l-2.808-.936h4.032v5.376h2.856v-5.376h2.76l-1.632 1.368c2.088 1.08 4.776 2.736 6.048 3.888l2.232-1.992c-1.248-1.008-3.528-2.328-5.4-3.264h5.544V60.36z" fill="#2F80ED"/><path d="M899.259 26.384c-1.466-.006-2.728-.367-3.785-1.083-1.051-.716-1.86-1.753-2.429-3.11-.562-1.359-.84-2.992-.835-4.901 0-1.904.281-3.526.844-4.867.568-1.34 1.378-2.36 2.429-3.06 1.057-.704 2.315-1.056 3.776-1.056 1.46 0 2.715.352 3.767 1.057 1.056.704 1.869 1.727 2.437 3.068.568 1.335.85 2.954.844 4.858 0 1.915-.284 3.55-.852 4.909-.563 1.358-1.37 2.395-2.421 3.11-1.051.717-2.31 1.075-3.775 1.075zm0-3.06c1 0 1.798-.503 2.394-1.509.597-1.005.892-2.514.887-4.525 0-1.324-.137-2.426-.409-3.307-.267-.88-.648-1.543-1.142-1.986a2.492 2.492 0 00-1.73-.665c-.995 0-1.79.497-2.387 1.492-.596.994-.898 2.483-.903 4.466 0 1.34.133 2.46.4 3.358.273.892.657 1.562 1.151 2.011a2.521 2.521 0 001.739.665zm9.415-.392v-2.906l7.287-11.48h2.506v4.022h-1.483l-4.594 7.27v.136h10.355v2.958h-14.071zM917.052 26v-3.954l.068-1.287V8.545h3.46V26h-3.528z" fill="#D1D1D6"/><path d="M900.336 52.968h-7.344v2.16h7.344v-1.176c.552.48 1.296 1.32 1.56 1.776 3-1.608 3.672-4.296 3.672-6.624v-.024h2.88v2.568c0 2.376.432 3.384 2.688 3.384h1.248c.48 0 1.008-.024 1.344-.168a68.152 68.152 0 01-.192-2.376c-.312.096-.84.168-1.176.168h-.96c-.288 0-.336-.288-.336-.984V46.44h-8.088v2.568c0 1.56-.288 3.216-2.64 4.512v-.552zm.984-3.336h-4.56l1.608-.864c-.36-.888-1.104-2.208-1.752-3.192l-2.232 1.032c.552.912 1.176 2.112 1.536 3.024h-3.96v2.256h9.36v-2.256zm-.936 6.552h-7.392v2.16h7.392v-2.16zm9.216 2.52a11.29 11.29 0 01-2.568 3.408c-1.176-.984-2.136-2.112-2.832-3.408h5.4zm-11.712 5.76h-2.448v-2.688h2.448v2.688zm13.56-8.544l-.48.12H900.96v2.664h2.232l-1.56.552c.84 1.704 1.896 3.216 3.144 4.464-1.32.768-2.808 1.32-4.416 1.704v-5.928h-7.344v8.28h2.424v-1.008h4.92v-.864a14.01 14.01 0 011.104 2.136c2.064-.552 3.936-1.368 5.568-2.424 1.608 1.056 3.456 1.848 5.568 2.352.384-.768 1.152-1.992 1.752-2.568a18.107 18.107 0 01-4.968-1.728c1.728-1.752 3.048-4.032 3.84-6.984l-1.776-.768zm15.072-6.288h-5.064l1.584-.864c-.36-.888-1.104-2.208-1.752-3.192l-2.232 1.032c.552.912 1.176 2.112 1.536 3.024h-4.176v2.256h10.104v-2.256zm-1.008 5.496v-2.16h-8.04v2.16h8.04zm-.048 1.056h-7.992v2.16h7.992v-2.16zm-2.376 5.592v2.688h-3.12v-2.688h3.12zm2.472-2.28h-7.992v8.28h2.4v-1.008h5.592v-7.272zm12.48-5.856h-4.44v-7.536h-2.976v7.536h-4.2v2.808h4.2v11.64h2.976v-11.64h4.44V53.64zm17.808-.72h1.656c-.024 2.592-.024 5.136.072 7.368a17.712 17.712 0 00-2.04-1.896c.24-1.848.312-3.648.312-5.256v-.216zm-8.664 1.176c-.216.912-.6 2.208-.96 3.12h-2.76l1.104-.432c-.144-.744-.624-1.8-1.104-2.688h3.72zm8.664-3.816v-4.56h-2.664v4.56h-2.304v2.616h2.304v.192c0 1.056-.024 2.232-.144 3.408-.528-.384-1.032-.744-1.536-1.032l-1.416 1.824v-.072h-1.584c.336-.768.696-1.656 1.056-2.568l-2.184-.552h3.168v-2.4h-3.792V50.16h3.144v-2.352h-3.144v-2.136h-2.64v2.136H940.8v2.352h3.312v1.536h-4.056v2.4h2.52l-1.248.456c.408.816.816 1.872 1.032 2.664h-1.608v2.4h3.456v1.656h-4.176v2.4h4.176v4.344h2.64v-4.344h3.912v-2.4h-3.912v-1.656h3.24v-2.112c.816.576 1.704 1.224 2.52 1.92-.552 2.544-1.656 5.04-3.768 6.984.672.336 1.704 1.2 2.184 1.704 1.992-1.848 3.192-4.2 3.864-6.672.552.552 1.032 1.056 1.368 1.512l1.368-1.824c.24 3.552.792 6.192 2.112 6.72 1.512.624 2.712-.264 2.904-4.152-.408-.336-1.128-1.32-1.56-1.992-.024 1.728-.144 3.456-.264 3.432-.816-.288-.792-8.544-.6-14.856h-4.368zm29.544-3.24h-11.664v2.712h11.664V47.04zm-16.272-1.368c-1.152 1.68-3.432 3.84-5.424 5.112.504.552 1.224 1.704 1.584 2.328 2.28-1.584 4.872-4.056 6.6-6.312l-2.76-1.128zm.912 5.184c-1.536 2.712-4.152 5.496-6.6 7.176.576.6 1.536 1.896 1.944 2.472a32.073 32.073 0 001.968-1.776v9.384h2.856V55.584c.96-1.2 1.848-2.448 2.568-3.672l-2.736-1.056zm15.96 2.784H972.72v2.712h7.08v8.352c0 .36-.168.456-.6.456-.432.024-2.016.024-3.384-.048.384.816.744 2.064.864 2.904 2.136 0 3.672-.048 4.68-.48 1.056-.432 1.344-1.224 1.344-2.76v-8.424h3.288V53.64z" fill="#2F80ED"/><path d="M1140 104l-10-5.773v11.547l10-5.774zM0 105h1131v-2H0v2z" fill="#1C1C1E"/><circle cx="6" cy="104" r="5" fill="#fff" stroke="#1C1C1E" stroke-width="2"/><circle cx="302" cy="104" r="5" fill="#fff" stroke="#1C1C1E" stroke-width="2"/><circle cx="598" cy="104" r="5" fill="#fff" stroke="#1C1C1E" stroke-width="2"/><circle cx="894" cy="104" r="5" fill="#fff" stroke="#1C1C1E" stroke-width="2"/><path d="M9.26 145.52h-.14l-1.24 1.32v9.88h1.38v-9.94h9.16v-1.26H9.26zm-.72 3.28v1.2h9.34v-1.2H8.54zm.04 3.28v1.2h9.3v-1.2h-9.3zm-.04 3.36v1.28h10.34v-1.28H8.54zm4.22-9.4v10.04h1.34v-10.04h-1.34zm-3.3-3.7c-.9 2.62-2.36 5.24-3.96 6.96.26.28.68.9.84 1.18 1.74-1.92 3.36-4.86 4.4-7.78l-1.28-.36zm2.76.52c.58 1.02 1.22 2.38 1.46 3.2l1.32-.42c-.26-.84-.92-2.16-1.54-3.14l-1.24.36zm-10.56.04c.88.98 2 2.38 2.54 3.22l1.16-.82c-.56-.82-1.66-2.1-2.58-3.06l-1.12.66zm-.72 3.92v1.26h4.38v-1.26H.94zM4.5 156l-1 .46c1.5 3.3 4.12 3.86 8.8 3.86 2.2 0 4.72-.06 6.6-.16.08-.42.28-1.12.5-1.44-2.04.16-4.98.26-7.08.26-3.98 0-6.58-.36-7.82-2.98zm.28-4.18v.26c-.56 3.66-2.1 6.2-4.22 7.54.28.22.78.72.98 1.04 2.24-1.5 3.9-4.32 4.6-8.6l-.76-.28-.26.04h-.34zm-3.56 1.5c.14-.16.66-.28 1.18-.28h2.86l.02-1.22H1.94l-.72.36v1.14zm0 0c0-.38 1.12-.94 1.12-.94 1.18-1.28 3.04-3.82 4.02-5.18l-1-.48-.46.2v.06c-.68 1.06-2.64 3.76-3.28 4.38-.34.4-.66.52-.96.6.16.32.46 1.02.56 1.36zm28.298-9.9v1.44h9.82v-1.44h-9.82zm5.84 5.96v9.28c0 .34-.12.42-.52.44-.36.02-1.7.02-3.12-.02.22.44.42 1.06.48 1.48 1.96 0 3.1-.02 3.78-.24.68-.24.9-.7.9-1.64v-9.3h-1.52zm-6.72-.44v1.42h11.28v-1.42h-11.28zm-4 1.54v10.18h1.5v-11.4l-.18-.08-1.32 1.3zm2.32-4c-1.38 2.3-3.58 4.62-5.66 6.1.32.28.84.94 1.06 1.24 2.1-1.68 4.46-4.26 6.02-6.8l-1.42-.54zm-.82-4.28c-1.02 1.44-2.96 3.24-4.62 4.36.26.3.66.88.88 1.2 1.78-1.28 3.84-3.22 5.18-4.98l-1.44-.58zm19.398 1.42v1.44h12.94v-1.44h-12.94zm0 4.66v1.42h12.92v-1.42h-12.92zm-.1 4.78v1.42h13.06v-1.42h-13.06zm-.74-9.44v7.24c0 2.82-.22 6.38-2.42 8.86.32.2.92.7 1.16 1 2.38-2.66 2.74-6.8 2.74-9.84v-7.26h-1.48zm13.18 0v14.94c0 .38-.14.5-.52.52-.38 0-1.74.02-3.16-.04.22.4.46 1.06.52 1.46 1.9.02 3.06 0 3.74-.24.66-.26.9-.72.9-1.7v-14.94h-1.48zm-6.9.54v16.26h1.52v-16.26h-1.52zm15.799 8.66v1.4h11.54v-1.4h-11.54zm.14-5.4v1.4h10.78v6.48h1.5v-7.88h-12.28zm10.46-5.16c-2.62.84-7.34 1.6-11.38 2.06.16.32.34.88.4 1.24 4.16-.46 9-1.2 12.2-2.16l-1.22-1.14zm-11.38 2.06v6.1c0 2.88-.26 6.62-2.84 9.22.34.2.92.74 1.16 1.04 2.76-2.8 3.18-7.14 3.18-10.26v-6.1h-1.5zm25.898 1.36v1.42h10.38v-1.42h-10.38zm3.3 4.48v1.4h5.16v-1.4h-5.16zm4.76 0v.28c-.2 5.76-.48 7.9-.92 8.4-.18.22-.36.26-.72.24-.36 0-1.34 0-2.36-.1.24.4.4 1 .44 1.44.98.06 1.98.08 2.52.02.6-.06.98-.2 1.34-.66.6-.72.84-2.88 1.1-8.94.02-.2.02-.68.02-.68h-1.42zm-5.32-3.66c-.12 5.22-.36 10.42-4.18 13.1.34.24.8.7 1 1.04 4.06-2.98 4.44-8.48 4.6-14.14h-1.42zm1.14-3.8c.42 1.02.82 2.38.96 3.2l1.36-.42c-.16-.82-.6-2.12-1.04-3.12l-1.28.34zm-10.78 5.56v1.2h5.56v-1.2h-5.56zm0 2.62v1.2h5.56v-1.2h-5.56zm-.78-5.28v1.26h7.14v-1.26h-7.14zm1.36 7.96v1.26h3.74v3.32h-3.74v1.26h4.98v-5.84h-4.98zm-.6 0v6.78h1.2v-6.78h-1.2zm1.3-10.84c.5.82 1.1 1.96 1.36 2.7l1.14-.72c-.3-.7-.88-1.76-1.44-2.58l-1.06.6zm30.258 4.72c1.9 1.12 4.26 2.82 5.4 3.96l.88-1.18c-1.18-1.12-3.56-2.74-5.46-3.82l-.82 1.04zm.28-5.22c-.1 4.98-.56 6.9-4.88 7.98.3.3.68.86.82 1.22 4.68-1.3 5.34-3.7 5.44-9.2h-1.38zm4.42 1.26c-.46.98-1.28 2.42-1.94 3.28l1.1.5c.66-.82 1.5-2.08 2.24-3.2l-1.4-.58zm-.02 8.64c-.44 1.04-1.3 2.56-1.96 3.48l1.06.48c.7-.88 1.56-2.26 2.28-3.44l-1.38-.52zm-4.6-1.58v2.14c0 1.9-.36 4.84-5.18 6.9.34.26.78.74.98 1.04 5.14-2.36 5.64-5.6 5.64-7.94v-2.14h-1.44zm1.34 2.48l-1.24.18c.82 3.66 2.5 6.22 5.64 7.36.22-.4.62-.96.94-1.26-2.96-.88-4.62-3.16-5.34-6.28zm-5.56-8.88c.78 1.14 1.72 2.7 2.18 3.62l1.12-.8c-.48-.86-1.44-2.36-2.24-3.5l-1.06.68zm-.28 8.56c.8 1.2 1.78 2.84 2.26 3.8l1.12-.78c-.48-.9-1.5-2.46-2.3-3.64l-1.08.62zm-6.44-4.44v1.2h5.72v-1.2h-5.72zm0 2.62v1.2h5.72v-1.2h-5.72zm-.78-5.26v1.24h7.28v-1.24h-7.28zm1.5 7.94v1.26h3.74v3.32h-3.74v1.26h5.1v-5.84h-5.1zm-.66 0v6.78h1.34v-6.78h-1.34zm1.32-10.9c.48.82 1.02 1.96 1.24 2.66l1.3-.54c-.26-.68-.8-1.78-1.32-2.58l-1.22.46zm19.298 2.34v1.46h17.26V145h-17.26zm7.72-2.78v18.38h1.56v-18.38h-1.56zm.18 8.88c-1.8 3.04-5.26 5.96-8.6 7.32.34.3.82.9 1.06 1.28 3.38-1.58 6.84-4.68 8.8-8.1l-1.26-.5zm1.3.04l-1.26.52c1.94 3.42 5.34 6.54 8.78 8.08.26-.42.74-1.02 1.12-1.34-3.46-1.32-6.88-4.2-8.64-7.26zm-6.54-1.08c.96.84 2.16 2.04 2.78 2.76l1.02-1.02c-.62-.72-1.86-1.86-2.8-2.66l-1 .92zm.84-3.12c-.6 2.58-1.86 4.76-3.68 6.12.36.24.94.72 1.18.98 1.86-1.54 3.26-3.92 3.96-6.84l-1.46-.26zm8.78 3.16c1.36 1.1 3.16 2.64 4.02 3.6l1.06-1.04c-.9-.92-2.74-2.42-4.08-3.44l-1 .88zm.7-3.16c-.44 2.24-1.4 4.2-2.86 5.42.36.18 1 .6 1.28.84 1.42-1.4 2.5-3.5 3.02-6.02l-1.44-.24zm12.658 5.14v1.36h12.46v-1.36h-12.46zm.34-8.78v3.62h1.38v-2.3h8.96v2.22h1.46v-3.54h-11.8zm5.04 6.6v10.7h1.46v-10.7h-1.46zm2.04 2.8l-1.18.44c1.26 2.46 3.54 4.84 5.78 6.06.22-.38.7-.9 1.02-1.16-2.18-1.04-4.46-3.16-5.62-5.34zm-2.62-.12c-1.1 2.34-3.36 4.5-5.78 5.5.32.28.78.84 1.02 1.2 2.48-1.22 4.78-3.56 6.02-6.3l-1.26-.4zm-9.3-9.02c1.14.64 2.6 1.62 3.28 2.32l.94-1.16c-.74-.68-2.2-1.6-3.32-2.18l-.9 1.02zm-1.04 5.44c1.12.58 2.56 1.52 3.26 2.2l.9-1.2c-.74-.64-2.18-1.52-3.32-2.06l-.84 1.06zm.52 10.2l1.28.96c1-1.84 2.2-4.32 3.1-6.42l-1.14-.94c-1 2.26-2.32 4.88-3.24 6.4zm8.84-14.02c-.2 2.38-.96 3.52-4.32 4.12.28.26.66.82.76 1.16 3.76-.8 4.68-2.34 4.94-5.28h-1.38zm3.18 0v2.76c0 1.48.36 1.96 1.86 1.96h2.54c.52 0 1.06 0 1.32-.1-.04-.32-.1-.92-.12-1.28-.32.08-.88.1-1.24.1h-2.54c-.4 0-.46-.16-.46-.66v-2.78h-1.36zm12.098-1.76v1.52h5.66v-1.52h-5.66zm4.9 0c0 3.76.66 12.28 8.66 17.12.28-.36.88-1 1.22-1.26-7.9-4.68-8.34-12.28-8.34-15.86h-1.54zm-.56 3.92c-1.22 5.66-3.72 9.7-8.16 12.02.4.28 1.08.9 1.36 1.22 4.42-2.6 7.06-6.82 8.5-12.92l-1.7-.32zm21.219 1.86v9.44c0 .36-.14.46-.56.48-.46.02-2 .04-3.68-.02.24.42.52 1.08.6 1.5 2.04.02 3.38 0 4.16-.24.78-.24 1.04-.68 1.04-1.7v-9.46h-1.56zm-7.36-5.42v1.46h14.46v-1.46h-14.46zm14 0v.36c-1.34 1.62-4.2 3.84-6.64 5.06.3.24.76.72 1 1.04 2.64-1.32 5.66-3.6 7.56-5.7l-1.16-.86-.34.1h-.42zm7.658 3.5v1.18h5.78v-1.18h-5.78zm0 3.4v1.14h5.78v-1.14h-5.78zm0 3.48v1.18h5.78v-1.18h-5.78zm8.52-2.48v1.3h7.62v-1.3h-7.62zm-7.48-7.68v1.18h3.32V144h-3.32zm6.2-.78v1.28h7.82v-1.28h-7.82zm-.24 12.2v1.34h9.48v-1.34h-9.48zm4.22-5.8v10.9h1.44v-10.9h-1.44zm-8.74-1.76v6.8h1.08v-6.8h-1.08zm12.1-4.64v.2c-.14 3.14-.3 4.3-.56 4.6-.12.16-.3.2-.58.18-.28 0-1 0-1.8-.08.18.34.32.86.34 1.26.84.04 1.68.04 2.08 0 .52-.04.82-.16 1.1-.5.42-.46.62-1.76.76-5.1.02-.18.02-.56.02-.56h-1.36zm-5.98 6.58c-.34 1.7-.96 3.38-1.82 4.5.32.16.92.46 1.18.64.84-1.2 1.54-3.02 1.94-4.88l-1.3-.26zm-7.6-7.6c-.6 2.46-1.72 4.84-3.14 6.38.32.2.9.66 1.14.9 1.42-1.7 2.64-4.28 3.38-6.98l-1.38-.3zm-1.58 5.08v5.32c0 2.26-.14 5.24-1.5 7.36.3.14.86.48 1.08.68 1.42-2.22 1.66-5.6 1.66-8.04v-5.32h-1.24zm5.96 0v11.68c0 .26-.12.34-.38.36-.28.02-1.18.02-2.2-.02.18.36.4.94.46 1.28 1.38 0 2.2-.02 2.7-.24.52-.22.68-.64.68-1.38v-11.68h-1.26zm4.7-3.64c-.28 2.26-1 4.24-3.46 5.28.3.22.66.7.84 1.02 2.8-1.26 3.66-3.54 4-6.3h-1.38zm-6.08.36v.24c-.3 1-.86 2.44-1.36 3.34.28.12.72.38.96.58.6-.94 1.36-2.42 1.78-3.66l-.88-.58-.2.08h-.3zm17.958-.38v1.44h12.94v-1.44H232.9zm0 4.66v1.42h12.92v-1.42H232.9zm-.1 4.78v1.42h13.06v-1.42H232.8zm-.74-9.44v7.24c0 2.82-.22 6.38-2.42 8.86.32.2.92.7 1.16 1 2.38-2.66 2.74-6.8 2.74-9.84v-7.26h-1.48zm13.18 0v14.94c0 .38-.14.5-.52.52-.38 0-1.74.02-3.16-.04.22.4.46 1.06.52 1.46 1.9.02 3.06 0 3.74-.24.66-.26.9-.72.9-1.7v-14.94h-1.48zm-6.9.54v16.26h1.52v-16.26h-1.52zM4.32 184.82v1.4h11.54v-1.4H4.32zm.14-5.4v1.4h10.78v6.48h1.5v-7.88H4.46zm10.46-5.16c-2.62.84-7.34 1.6-11.38 2.06.16.32.34.88.4 1.24 4.16-.46 9-1.2 12.2-2.16l-1.22-1.14zm-11.38 2.06v6.1c0 2.88-.26 6.62-2.84 9.22.34.2.92.74 1.16 1.04 2.76-2.8 3.18-7.14 3.18-10.26v-6.1h-1.5zm18.84-1.26v1.14h15.18v-1.14H22.38zm6.8.38v7.84h1.48v-7.84h-1.48zm-7.68 2.24V182h1.44v-3.14H37V182h1.5v-4.32h-17zm1.8 4.62l.44 1.16c1.3-.24 2.82-.56 4.38-.88l-.04-.96c-1.8.28-3.52.54-4.78.68zm.5-2.28c1.32.26 3 .78 3.88 1.16l.44-.9c-.9-.4-2.58-.84-3.88-1.06l-.44.8zm11.74-.9c-.96.36-2.66.96-3.8 1.22l.54.78c1.16-.26 2.78-.64 3.94-1.14l-.68-.86zm-4.06 3.32c1.58.22 3.62.7 4.72 1.08l.32-1.02c-1.1-.38-3.12-.82-4.68-.98l-.36.92zm-10.2 1.44v1.22h17.48v-1.22H21.28zm5.94 3.44v5.14h1.4v-5.14h-1.4zm4.44 0v5.14h1.38v-5.14h-1.38zm-8.82-.78v6.04h1.42v-4.8h12.3v-1.24H22.84zm13.34 0v4.56c0 .18-.06.24-.28.26-.22.02-.9.02-1.7 0 .18.36.4.88.46 1.24 1.1 0 1.84.02 2.34-.22.52-.22.62-.58.62-1.26v-4.58h-1.44zm-6.96-2.2c-.14.82-.5 2.02-.8 2.84l1.32.14c.34-.74.76-1.84 1.12-2.92l-1.64-.06zm12.06-6.78v1.46h17.5v-1.46h-17.5zm9.32 1.3l-1.18.36c1.64 5.18 4.6 9.68 8.8 11.72.26-.42.74-1 1.1-1.32-4.14-1.76-7.22-6.04-8.72-10.76zm6.02 1.08c-1.06 1.46-2.94 3.4-4.3 4.54l1.06.82c1.4-1.12 3.22-2.92 4.54-4.44l-1.3-.92zm-4.04-4.66c1.26.66 2.86 1.68 3.64 2.4l.96-1.08c-.84-.68-2.44-1.64-3.7-2.26l-.9.94zM42.32 181c1.28 1.14 2.7 2.74 3.32 3.84l1.22-.9c-.64-1.08-2.12-2.64-3.38-3.72l-1.16.78zm6.86-6.74v16.32c0 .38-.14.48-.5.5-.4.02-1.7.02-3.1-.02.24.46.48 1.16.56 1.58 1.76 0 2.96-.02 3.64-.3.66-.24.94-.7.94-1.76v-16.32h-1.54zm-8.34 14.98l.96 1.34a343 343 0 008.24-4.94l-.44-1.26c-3.14 1.8-6.64 3.76-8.76 4.86zm269.34-46.02v1.32h3.7v-1.32h-3.7zm-4.64.98v1.28h3.9v-1.28h-3.9zm4.82 2.86v1.28h3.46v-1.28h-3.46zm-.12 3.76v1.28h3.4v-1.28h-3.4zm-9.88-3.82v1.28h3.4V147h-3.4zm.1 3.74v1.28h3.36v-1.28h-3.36zm12.6-7.52c.02 3.7-.16 8.9-.36 11.84h1.4c.2-2.9.32-8.06.36-11.84h-1.4zm-9.76-.9c-.98.5-2.48 1.1-3.74 1.54.16.32.34.78.4 1.08 1.28-.38 2.84-.88 4.06-1.4l-.72-1.22zm1.52.02v6.5h3.94v-1.22h-2.64v-5.28h-1.3zm-6.9 12.16v1.4h18.16v-1.4h-18.16zm11 2.68c2.1 1.02 4.32 2.36 5.68 3.34l1-1.14c-1.4-.96-3.72-2.24-5.86-3.24l-.82 1.04zm-5.12-.96c-1.28 1.08-3.7 2.44-5.62 3.22.3.32.68.82.88 1.14 1.96-.86 4.38-2.2 6.02-3.46l-1.28-.9zm-4.24-12.36l.4 11.12h1.36l-.36-10.72-1.4-.4zm5.9 5.86c-.18 1.22-.48 2.44-1.1 3.3.28.14.82.46 1.02.64.62-.94 1.04-2.34 1.26-3.74l-1.18-.2zm2.56-2.08v5.32c0 .18-.06.24-.26.24-.2.02-.8.02-1.52 0 .16.3.32.7.38 1.02.98 0 1.68 0 2.12-.18.44-.18.56-.46.56-1.08v-5.32h-1.28zm13.2-2.08v.96h11.48v-.96h-11.48zm-.24 8.56v.94H333v-.94h-12.02zm2.14 1.54c.66.56 1.4 1.36 1.74 1.9l1.02-.58c-.34-.54-1.12-1.32-1.8-1.82l-.96.5zm.08-5.94h7.56v.88h-7.56v-.88zm0-1.6h7.56v.84h-7.56v-.84zm-1.2-.78v4.06h10v-4.06h-10zm6.84 6.04v3.5c0 .2-.06.26-.28.26-.22.02-.98.02-1.8 0 .14.26.3.58.36.88 1.2 0 1.96 0 2.4-.16.48-.14.6-.34.6-.94v-3.54h-1.28zm-7.58-.96l.08.96c2.58-.04 6.28-.16 9.88-.28l.04-.8c-3.72.08-7.52.12-10 .12zm8.28-.5c.76.58 1.72 1.48 2.18 2.08l.86-.66c-.46-.56-1.4-1.4-2.22-1.98l-.82.56zm-3.28-7.28v8.16l1.28-.08v-8.08h-1.28zm-7.34-1.52v17.5h1.38v-16.3h13.36v16.2h1.44v-17.4h-16.18zm.68 15.24v1.2h14.68v-1.2H319.6zm35.04-10.46c-1.1 1-2.98 2.34-4.34 3.1l.8.88c1.38-.76 3.18-1.92 4.52-3l-.98-.98zm-8.8-4.84c.92.76 1.92 1.88 2.38 2.62l1.18-.82c-.48-.74-1.48-1.78-2.44-2.52l-1.12.72zm-1.62 2.52v1.32l11.8.02v-1.34h-11.8zm5.48 4.56c-1.14 1.1-3.38 2.4-5.02 3.04.3.26.66.76.86 1.1 1.64-.84 3.92-2.32 5.12-3.48l-.96-.66zm.86 2.7c-1.38 1.56-4.2 3.26-6.52 3.98.32.28.68.76.88 1.1 2.32-.9 5.16-2.72 6.64-4.4l-1-.68zm2.22-10.62c-.5 1.04-1.44 2.5-2.18 3.4l1.22.44c.74-.84 1.66-2.18 2.4-3.36l-1.44-.48zm-14.18.86v17.54h1.36v-16.18h3.36v-1.36h-4.72zm4.26 0v.4c-.42 1.38-1.16 3.76-1.88 5.58 1.44 1.56 1.8 2.92 1.8 4 0 .6-.1 1.14-.42 1.36-.16.12-.38.18-.62.18-.32.04-.7.02-1.16-.02.22.38.34.96.36 1.32.46.02.96.02 1.36-.02.4-.06.76-.18 1.04-.36.56-.4.78-1.24.78-2.32 0-1.24-.32-2.64-1.8-4.3.68-1.6 1.42-3.66 2-5.3l-.96-.58-.24.06h-.26zm6.6 2.98c-1.26 1.6-3.46 3.02-5.56 3.88.3.26.74.82.9 1.1 2.12-1.04 4.48-2.68 5.92-4.5l-1.26-.48zm3.46 4.62l-1.16.4c.8 2.52 2.26 5.28 3.68 6.74.24-.32.7-.76 1-.98-1.38-1.3-2.8-3.82-3.52-6.16zm-4.94-2.64c3.4 3.56 3.08 9.44 1.84 10.52-.34.36-.68.44-1.16.44-.38 0-1.06-.02-1.7-.1.24.4.36.98.38 1.38.54.04 1.22.06 1.58.06.86-.02 1.42-.22 1.98-.8 1.76-1.48 1.94-8.26-1.82-12.1l-1.1.6zm9.9 2.34v1.64h18.3v-1.64h-18.3zm24.06-3.62v1.32h10.18v-1.32h-10.18zm1.02 3.42V158h1.4v-7.82h-1.4zm.76 0v1.26h5.92v3.8h-5.92v1.3h7.32v-6.36h-7.32zm-4.98-6.94v17.4h1.46v-15.96h14.52v-1.44h-15.98zm15.06 0v15.46c0 .34-.12.46-.48.48-.34.02-1.52.02-2.78-.02.24.4.48 1.06.54 1.46 1.74.02 2.74-.02 3.34-.28.62-.24.86-.7.86-1.64v-15.46h-1.48zm7.42 5.14v1.44h11.66v-1.44h-11.66zm5.76 4.72v1.42h6.74v-1.42h-6.74zm-.8-4.04v9.92l1.56.2v-10.12h-1.56zm-4.7 2.38c-.44 3.64-1.52 6.5-3.76 8.22.36.24.98.74 1.22 1 2.26-1.98 3.5-5.02 4.06-9.06l-1.52-.16zm.94 2.56l-1.22.48c1.72 4.88 4.98 5.8 9.74 5.8h4.68c.08-.44.34-1.14.58-1.52-.98.04-4.44.04-5.18.04-4.06-.02-7.18-.72-8.6-4.8zm-3.78-9.54v4.38h1.48v-2.94h13.7v2.94h1.54v-4.38h-16.72zm6.86-1.96c.48.8.94 1.86 1.12 2.52l1.56-.48c-.2-.68-.72-1.7-1.2-2.46l-1.48.42zm13.46 1.82v1.18h16.1v-1.18h-16.1zm1.08 2.42v1.12h13.94v-1.12h-13.94zm-1.94 2.4v1.2h17.8v-1.2h-17.8zm-.02 4.46v1.18h17.88v-1.18h-17.88zm8.12-8.7v4.84h1.54v-4.84h-1.54zm4.32-2.74c-.28.64-.78 1.58-1.2 2.18l1.26.4c.44-.54 1.02-1.36 1.52-2.16l-1.58-.42zM418 156.54l.14 1.22c2.44-.22 5.9-.54 9.24-.86v-1.08c-3.48.3-7.06.56-9.38.72zm4.34-5.12v7.66c0 .28-.1.36-.4.36-.28.02-1.34.02-2.44-.02.18.34.38.84.46 1.2 1.52 0 2.46-.02 3.06-.2.58-.18.78-.52.78-1.3v-7.7h-1.46zm3.8-.88c-1.8.44-5.08.8-7.82.96.14.28.32.7.36 1 2.8-.14 6.18-.5 8.38-1.02l-.92-.94zm1.66.12c.3 5.7 2.92 9.94 6.38 9.94 1.3 0 1.82-.56 2.04-2.68-.36-.12-.84-.34-1.16-.62-.1 1.44-.24 1.9-.8 1.92-2.5.04-4.78-3.58-5.02-8.56h-1.44zm5.3 4.36c-1.6 2.06-4.8 3.52-7.94 4.32.26.3.66.92.8 1.22 3.22-1 6.6-2.68 8.44-5.1l-1.3-.44zm-2.36-3.48c1.14.46 2.52 1.26 3.22 1.86l.86-1c-.72-.62-2.12-1.34-3.26-1.78l-.82.92zm-8.74-8.86c.54.64 1.1 1.56 1.32 2.14l1.38-.56c-.26-.58-.82-1.44-1.42-2.04l-1.28.46zm28.9 13.86c1.46 1.16 3.32 2.82 4.22 3.86l1.14-1c-.94-1.02-2.84-2.62-4.3-3.72l-1.06.86zm1.78-8.5c-1.38 2.72-4.36 5.42-7.72 6.96.28.3.66.82.84 1.16 3.54-1.72 6.58-4.56 8.32-7.64l-1.44-.48zm1.48 3.56c-1.74 3.4-5.56 6.28-10.2 7.78.26.32.7.9.86 1.24 4.86-1.66 8.74-4.7 10.88-8.46l-1.54-.56zm-9.16-6.66v1.4h11.14v-1.4H445zm.76 6.8c0-.44 1.84-.96 1.84-.96.88-1.2 2.44-3.76 3.24-5.08h-1.62c-.54.92-2.12 3.52-2.58 4.02-.32.36-.9.48-1.3.58.14.34.36 1.06.42 1.44zm0 0c.42-.18 1.12-.28 5.98-.62.08-.3.28-.88.46-1.26l-5.64.3-.82.46.02 1.12zm3.5-9.18c.48.88.94 2.06 1.1 2.82l1.48-.52c-.16-.74-.68-1.88-1.18-2.74l-1.4.44zm-11.1 3.52v1.38h6.38v-1.38h-6.38zm2.68-3.88v18.38h1.44V142.2h-1.44zm.02 4.78c-.56 2.82-1.88 6.3-3.22 8.1.28.36.64 1.02.8 1.44 1.4-2.02 2.72-6 3.32-9.22l-.9-.32zm1.32 1.16l-.72.58c.52.8 1.82 3.18 2.24 4.18l.92-1.06c-.36-.62-2-3.14-2.44-3.7zm20.72-.34v9.9c0 2 .62 2.54 2.8 2.54h4.04c2.24 0 2.72-1.12 2.92-4.92-.4-.12-1.06-.38-1.42-.66-.16 3.46-.34 4.16-1.58 4.16h-3.84c-1.14 0-1.38-.18-1.38-1.1v-9.92h-1.54zm-3.2 1.48c-.3 2.38-.96 5.52-1.82 7.58l1.5.64c.82-2.16 1.44-5.56 1.76-7.92l-1.44-.3zm12.52.02c1.12 2.38 2.22 5.54 2.6 7.6l1.5-.58c-.44-2.08-1.56-5.16-2.72-7.54l-1.38.52zm-8.38-5.4c1.9 1.34 4.26 3.32 5.36 4.56l1.08-1.12c-1.16-1.26-3.56-3.14-5.42-4.42l-1.02.98zm19.98 8.02v1.26h5.44v3.34h-5.44v1.26h6.84v-5.86h-6.84zm-.66 0v7.06h1.4v-7.06h-1.4zm-3.62-5.96v1.12h5.56v-1.12h-5.56zm9.22 0v1.12h5.66v-1.12h-5.66zm5-2.9v15.52c0 .38-.12.5-.5.5-.38.02-1.7.04-3.02-.02.22.42.48 1.12.54 1.54 1.76 0 2.92-.02 3.6-.26.64-.26.88-.74.88-1.74v-15.54h-1.5zm-14.1 0v1.22h4.98v4.62h-4.98v1.22h6.4v-7.06h-6.4zm14.88 0h-6.68v7.06h6.68v-1.2h-5.24v-4.66h5.24v-1.2zm-15.72 0v17.56h1.48v-17.56h-1.48zm21.62 3.64h3.9v1.52h-3.9v-1.52zm0-2.56h3.9v1.5h-3.9v-1.5zm-1.34-1.08v6.28h6.64v-6.28h-6.64zm-1.2 7.76v1.16h9.02v-1.16h-9.02zm8.9-7.62v1.12h9.12v-1.12h-9.12zm-4.9 7.98V158l1.28.8v-7.62h-1.28zm.68 2.96v1.14h4v-1.14h-4zm8.18-10.66c-.18.86-.52 2.1-.84 2.92l1.12.26c.36-.74.76-1.88 1.14-2.9l-1.42-.28zm-1.82 6.06h4.78v1.5h-4.78v-1.5zm0 2.54h4.78v1.54h-4.78v-1.54zm0-5.1h4.78v1.48h-4.78v-1.48zm-1.36-1.1v8.84h7.54v-8.84h-7.54zm1.66 9.2c-.76.92-2.06 1.82-3.3 2.4.28.22.78.7 1 .92 1.24-.68 2.7-1.82 3.58-2.94l-1.28-.38zm-9.94-2c-.1 2.46-.42 5.16-1.64 6.62.32.22.76.66.96.96 1.42-1.7 1.82-4.7 1.94-7.58h-1.26zm.94 1.96l-.94.34c1.66 4.14 4.88 4.8 9.98 4.8h6.5c.08-.4.32-.98.54-1.3-1.18.04-6.14.04-7.04.04-4.5 0-7.62-.44-9.04-3.88zm11.8.58c1.08.74 2.42 1.9 3.06 2.7l1.1-.7c-.66-.76-1.98-1.88-3.14-2.58l-1.02.58zm13.32-.38c2.1-.72 3.46-2.36 3.46-4.52 0-1.4-.6-2.32-1.72-2.32-.8 0-1.52.5-1.52 1.44s.68 1.44 1.5 1.44c.38 0 .78-.1 1.06-.46l-1.08-1.52.38 1.68c0 1.52-.9 2.54-2.54 3.2l.46 1.06zM298.6 178.22v1.48h16.84v-1.48H298.6zm-.54 11.98v1.54h17.88v-1.54h-17.88zm6.02-11V191h1.48v-11.8h-1.48zm4.24 0v11.82h1.5V179.2h-1.5zm4.68 2.22c-.48 2-1.42 4.82-2.22 6.54l1.34.38c.82-1.68 1.76-4.32 2.48-6.52l-1.6-.4zm-1.64-7.2c-.46 1.12-1.34 2.7-2.04 3.7l1.34.48c.72-.96 1.6-2.4 2.32-3.7l-1.62-.48zm-11.82 7.76c.94 2 1.72 4.62 1.92 6.34l1.44-.36c-.22-1.74-1.02-4.34-2.02-6.34l-1.34.36zm1.72-7.2c.8 1.04 1.64 2.52 1.96 3.5l1.4-.62c-.36-.94-1.2-2.36-2.04-3.42l-1.32.54zm16.4 10.02l.44 1.44c1.92-.54 4.44-1.3 6.78-2l-.18-1.38c-2.54.74-5.24 1.5-7.04 1.94zm.24-6.56v1.42h6.78v-1.42h-6.78zm2.88-4.02v16.48c0 .28-.12.38-.4.38-.26 0-1.12.02-2.06-.02.18.4.4 1.02.46 1.4 1.38 0 2.2-.04 2.74-.28.5-.22.72-.64.72-1.48v-16.48h-1.46zm4.14 5.64l.16 1.44 10.74-1.16-.16-1.4-10.74 1.12zm5.58-4.42c.98.88 2.18 2.14 2.7 2.98l1.2-.86c-.56-.82-1.76-2.04-2.76-2.88l-1.14.76zm-2.88-1.16c.48 10.2 2.06 17.9 6.52 18.24 1.02.06 1.82-.94 2.28-4.2-.32-.14-.98-.52-1.28-.82-.2 2.2-.52 3.3-1.06 3.26-2.98-.3-4.6-7.5-4.94-16.48h-1.52zm5.94 7.42c-1.66 3.78-5.26 7.46-9.24 9.04.42.3.9.78 1.18 1.18 3.9-1.76 7.5-5.54 9.3-9.46l-1.24-.76zm12.58-7.48v16.42h1.64v-16.42h-1.64zm7.12 9.98v8.36h1.64v-8.36h-1.64zm-13.28-8.18v6.9h14.12v-6.9h-1.62v5.44h-10.94v-5.44h-1.56zm-.9 8.18v7.24h14.98v-1.5h-13.34v-5.74h-1.64zm22.1-4.02v1.42h11.58v-1.42h-11.58zm0 4.74v1.42h11.58v-1.42h-11.58zm0 4.76v1.46h11.58v-1.46h-11.58zm-1.04-14.24v17.06h1.5v-15.58h10.52v15.58h1.56v-17.06h-13.58zm27.92.38v6.06h1.14v-6.06h-1.14zm2.96 0v6.06h1.14v-6.06h-1.14zm1.18 12.78c1 1 2.14 2.44 2.66 3.38l1.16-.72c-.54-.92-1.68-2.28-2.74-3.28l-1.08.62zm-5.6-.6c-.62 1.2-1.68 2.4-2.76 3.24.34.18.9.58 1.16.8 1.06-.9 2.18-2.3 2.94-3.66l-1.34-.38zm-2.04-12.86v1.24h11.22v-1.24h-11.22zm1.32 8.34v1.2h8.64v-1.2h-8.64zm-1.28 2.6v1.22h11.28v-1.22H384.6zm1.66-7.2h7.86v2.38h-7.86v-2.38zm-1.26-1.16v4.7h10.44v-4.7H385zm4.4 8.98v5.9h1.38v-5.9h-1.38zm-11.26-8.62v1.38h6.42v-1.38h-6.42zm2.82-3.88v18.38h1.38V174.2h-1.38zm-.1 4.78c-.58 2.74-1.92 6.22-3.24 8 .26.36.64 1.02.8 1.46 1.36-2.04 2.7-5.98 3.32-9.12l-.88-.34zm1.4 1.46l-.72.56c.52.82 1.82 3.2 2.26 4.2l.92-1.08c-.38-.6-2-3.14-2.46-3.68zm27.92-5.22v1.32h3.7v-1.32h-3.7zm-4.64.98v1.28h3.9v-1.28h-3.9zm4.82 2.86v1.28h3.46v-1.28h-3.46zm-.12 3.76v1.28h3.4v-1.28h-3.4zm-9.88-3.82v1.28h3.4V179h-3.4zm.1 3.74v1.28h3.36v-1.28h-3.36zm12.6-7.52c.02 3.7-.16 8.9-.36 11.84h1.4c.2-2.9.32-8.06.36-11.84h-1.4zm-9.76-.9c-.98.5-2.48 1.1-3.74 1.54.16.32.34.78.4 1.08 1.28-.38 2.84-.88 4.06-1.4l-.72-1.22zm1.52.02v6.5h3.94v-1.22h-2.64v-5.28h-1.3zm-6.9 12.16v1.4h18.16v-1.4h-18.16zm11 2.68c2.1 1.02 4.32 2.36 5.68 3.34l1-1.14c-1.4-.96-3.72-2.24-5.86-3.24l-.82 1.04zm-5.12-.96c-1.28 1.08-3.7 2.44-5.62 3.22.3.32.68.82.88 1.14 1.96-.86 4.38-2.2 6.02-3.46l-1.28-.9zm-4.24-12.36l.4 11.12h1.36l-.36-10.72-1.4-.4zm5.9 5.86c-.18 1.22-.48 2.44-1.1 3.3.28.14.82.46 1.02.64.62-.94 1.04-2.34 1.26-3.74l-1.18-.2zm2.56-2.08v5.32c0 .18-.06.24-.26.24-.2.02-.8.02-1.52 0 .16.3.32.7.38 1.02.98 0 1.68 0 2.12-.18.44-.18.56-.46.56-1.08v-5.32h-1.28zm15.14-4.42v1.16H436v-1.16h-12.84zm1.82 3.34H434v1.92h-9.02v-1.92zm-1.34-1v3.9h11.76v-3.9h-11.76zm3.46-1.96v5.26h1.24v-5.26h-1.24zm3.46 0v5.26h1.24v-5.26h-1.24zm-5.1 9.86h8.24v1.14h-8.24v-1.14zm0 2.08h8.24v1.18h-8.24v-1.18zm0-4.16h8.24v1.14h-8.24v-1.14zm-1.4-.96v7.26h11.1v-7.26h-11.1zm6.5 8.26c1.72.6 3.5 1.38 4.52 1.98l1.3-.88c-1.16-.6-3.1-1.38-4.84-1.96l-.98.86zm-3.28-.88c-1.06.68-3 1.42-4.74 1.82.28.26.64.72.84 1.02 1.78-.44 3.76-1.2 4.98-2.08l-1.08-.76zm-5.64-15.48c-.96 3.08-2.54 6.16-4.3 8.16.26.38.66 1.18.8 1.54 1.98-2.34 3.76-5.86 4.9-9.32l-1.4-.38zm-1.6 4.9v13.38h1.42v-14.72l-.04-.04-1.38 1.38zm23.54-2.96v1.32h11.98v-1.32h-11.98zm-.86 14.48v1.28h13.44v-1.28h-13.44zm1.92-11.28v11.64H446v-10.48h6.98v10.48h1.38v-11.64h-9.72zm.94 2.86v1.12h7.72v-1.12h-7.72zm-.04 2.82v1.1h8.06v-1.1h-8.06zm0 2.82v1.12h7.8v-1.12h-7.8zm3.42-13.74c-.16 1.68-.58 4.12-.96 5.6l1.32.14c.42-1.4.9-3.74 1.24-5.64l-1.6-.1zm-6.7.02c-1.06 3.04-2.78 6.02-4.64 7.98.26.34.7 1.12.84 1.48 2.06-2.26 3.96-5.66 5.2-9.04l-1.4-.42zm-2.1 5.24v13.12h1.4v-14.52l-.02-.02-1.38 1.42zm18.88-1.28v1.48h15.9v-1.48h-15.9zm.92 5.88v1.46h14.14v-1.46h-14.14zm-1.84 6.38v1.48h17.82v-1.48h-17.82zm8.06-11.08v11.84h1.62v-11.84h-1.62zm-1.72-4.26c1.32.98 2.9 2.4 3.62 3.34l1.3-.94c-.78-.96-2.4-2.32-3.7-3.24l-1.22.84zm22.26.02v1.24h8.84v-1.24h-8.84zm-.08 2.8v1.14h8.16v-1.14h-8.16zm-2.2 5.5v1.3h11.52v-1.3h-11.52zm1.64-8.3v9.14h1.46v-9.14h-1.46zm8.22 10.16c-.72.8-2.02 1.94-2.96 2.58l.84.78c.96-.6 2.22-1.56 3.24-2.42l-1.12-.94zm-4.5-1.12l-1.18.38c1.36 3.3 3.84 6.3 6.7 7.76.24-.38.7-.92 1.04-1.2-2.8-1.22-5.32-3.98-6.56-6.94zm-3.1-3.54v1.14h8.12v-1.14h-8.12zm-1.02 12.02c.36-.26.92-.54 4.74-1.9-.06-.3-.12-.86-.12-1.24l-4.1 1.36-.62.54.1 1.24zm-3.14-8.58v.24c-.22 4.5-.44 6.2-.82 6.6-.2.2-.38.24-.72.24-.38 0-1.32-.02-2.32-.12.26.42.42 1.02.46 1.48.98.04 1.94.04 2.44.02.6-.06.98-.2 1.3-.6.56-.64.82-2.44 1.04-7.2.02-.22.04-.66.04-.66h-1.42zm-3.9-4.52c.02 1.88-.08 4.32-.22 5.86h1.38c.1-1.48.18-3.92.18-5.86h-1.34zm.42 4.52l-.14 1.34h3.92v-1.34h-3.78zm-.06-4.52v1.38h4.9v-5.78h-5.66v1.34h4.28v3.06H479zm6.68 13.1c0-.5 1.38-1.26 1.38-1.26v-7.16h-1.42v5.94c0 .76-.32 1.04-.6 1.2.22.3.56.94.64 1.28zm112.54-47.1v.96h11.48v-.96h-11.48zm-.24 8.56v.94H610v-.94h-12.02zm2.14 1.54c.66.56 1.4 1.36 1.74 1.9l1.02-.58c-.34-.54-1.12-1.32-1.8-1.82l-.96.5zm.08-5.94h7.56v.88h-7.56v-.88zm0-1.6h7.56v.84h-7.56v-.84zm-1.2-.78v4.06h10v-4.06h-10zm6.84 6.04v3.5c0 .2-.06.26-.28.26-.22.02-.98.02-1.8 0 .14.26.3.58.36.88 1.2 0 1.96 0 2.4-.16.48-.14.6-.34.6-.94v-3.54h-1.28zm-7.58-.96l.08.96c2.58-.04 6.28-.16 9.88-.28l.04-.8c-3.72.08-7.52.12-10 .12zm8.28-.5c.76.58 1.72 1.48 2.18 2.08l.86-.66c-.46-.56-1.4-1.4-2.22-1.98l-.82.56zm-3.28-7.28v8.16l1.28-.08v-8.08h-1.28zm-7.34-1.52v17.5h1.38v-16.3h13.36v16.2h1.44v-17.4h-16.18zm.68 15.24v1.2h14.68v-1.2H596.6zm35.858-10.46c-1.1 1-2.98 2.34-4.34 3.1l.8.88c1.38-.76 3.18-1.92 4.52-3l-.98-.98zm-8.8-4.84c.92.76 1.92 1.88 2.38 2.62l1.18-.82c-.48-.74-1.48-1.78-2.44-2.52l-1.12.72zm-1.62 2.52v1.32l11.8.02v-1.34h-11.8zm5.48 4.56c-1.14 1.1-3.38 2.4-5.02 3.04.3.26.66.76.86 1.1 1.64-.84 3.92-2.32 5.12-3.48l-.96-.66zm.86 2.7c-1.38 1.56-4.2 3.26-6.52 3.98.32.28.68.76.88 1.1 2.32-.9 5.16-2.72 6.64-4.4l-1-.68zm2.22-10.62c-.5 1.04-1.44 2.5-2.18 3.4l1.22.44c.74-.84 1.66-2.18 2.4-3.36l-1.44-.48zm-14.18.86v17.54h1.36v-16.18h3.36v-1.36h-4.72zm4.26 0v.4c-.42 1.38-1.16 3.76-1.88 5.58 1.44 1.56 1.8 2.92 1.8 4 0 .6-.1 1.14-.42 1.36-.16.12-.38.18-.62.18-.32.04-.7.02-1.16-.02.22.38.34.96.36 1.32.46.02.96.02 1.36-.02.4-.06.76-.18 1.04-.36.56-.4.78-1.24.78-2.32 0-1.24-.32-2.64-1.8-4.3.68-1.6 1.42-3.66 2-5.3l-.96-.58-.24.06h-.26zm6.6 2.98c-1.26 1.6-3.46 3.02-5.56 3.88.3.26.74.82.9 1.1 2.12-1.04 4.48-2.68 5.92-4.5l-1.26-.48zm3.46 4.62l-1.16.4c.8 2.52 2.26 5.28 3.68 6.74.24-.32.7-.76 1-.98-1.38-1.3-2.8-3.82-3.52-6.16zm-4.94-2.64c3.4 3.56 3.08 9.44 1.84 10.52-.34.36-.68.44-1.16.44-.38 0-1.06-.02-1.7-.1.24.4.36.98.38 1.38.54.04 1.22.06 1.58.06.86-.02 1.42-.22 1.98-.8 1.76-1.48 1.94-8.26-1.82-12.1l-1.1.6zm13.238 1.66v1.4h4.98v-1.4h-4.98zm4.38 0v.26c-.06 4.32-.16 5.82-.46 6.18-.14.18-.34.2-.62.2-.34 0-1.22 0-2.12-.08.22.38.38.96.42 1.4.98.04 1.88.06 2.4 0 .56-.06.88-.2 1.2-.56.42-.56.54-2.24.64-6.76v-.64h-1.46zm5.64-6.48c1.26.66 2.8 1.68 3.56 2.38l.94-1.02c-.78-.7-2.36-1.66-3.6-2.3l-.9.94zm2.86 5.42c-1.5 4.82-4.32 8.48-8.38 10.64.32.3.88.92 1.1 1.22 4.1-2.42 7.08-6.28 8.78-11.5l-1.5-.36zm-12.76-3.04v1.48h15.48v-1.48h-15.48zm-.96 0v5.62c0 2.62-.18 6.06-1.84 8.52.36.18 1 .7 1.26 1 1.82-2.62 2.14-6.66 2.14-9.5v-5.64h-1.56zm8.3-3.36c.08 9.58 1.88 18.22 5.96 18.22 1.52 0 2.08-.98 2.36-4.4-.4-.14-.96-.48-1.3-.82-.12 2.66-.38 3.7-.94 3.7-2.6 0-4.56-7.5-4.52-16.7h-1.56zm15.239 1.96h9.5v2.06h-9.5v-2.06zm-1.5-1.22v4.52h12.58v-4.52h-12.58zm.64 9.26h11.2v1.42h-11.2v-1.42zm0 2.48h11.2v1.44h-11.2v-1.44zm0-4.94h11.2v1.4h-11.2v-1.4zm-1.5-1.12v8.6h14.24v-8.6h-14.24zm3.82 8.58c-1.26.82-3.88 1.78-5.98 2.28.36.3.86.78 1.12 1.1 2.06-.52 4.66-1.48 6.26-2.46l-1.4-.92zm4.88 1.04c2.12.62 4.84 1.66 6.32 2.36l1.3-1.08c-1.56-.66-4.24-1.64-6.32-2.26l-1.3.98zm10.078-7.9v1.64h18.3v-1.64h-18.3zm30.818-6.86v11.14c0 1.9.56 2.36 2.42 2.36h3.62c1.66 0 2.08-.74 2.26-3.16-.4-.08-1-.32-1.34-.58-.08 1.96-.22 2.36-1 2.36h-3.38c-.96 0-1.14-.16-1.14-.98v-11.14h-1.44zm.58 0v1.36h5.22v4.32h-5.22v1.34h6.7v-7.02h-6.7zm-9.98.94v1.36h8.02v-1.36h-8.02zm-.52 3.88v1.36h9.04v-1.36h-9.04zm4.88 4.32V154h3.98v-1.34h-3.98zm-1.02-10.42v6.8h1.42v-6.8h-1.42zm.34 7.02v9.18h1.4v-9.18h-1.4zm-2.06 4.36l-1.1.36c1.3 5.04 3.68 6.12 9.1 6.12h7.68c.1-.44.38-1.14.62-1.48-1.24.04-7.36.04-8.34.04-4.64 0-6.88-.86-7.96-5.04zm-1.12-2.34c-.08 3.56-.3 6.78-1.46 8.78.34.16 1 .52 1.26.72 1.2-2.24 1.48-5.56 1.6-9.4l-1.4-.1zm29.578-3.06v1.18h4.16v-1.18h-4.16zm-1.48 5.8v1.08h6.92v-1.08h-6.92zm-6.5-10.96v1.22h5.6v-1.22h-5.6zm5.18 0v.24c-1.22 2.72-4.4 4.86-7.4 5.76.28.26.64.78.82 1.12 3.24-1.12 6.54-3.36 8.04-6.72l-.94-.46-.26.06h-.26zm3.16-.82l-1.22.38c1.62 3.5 4.68 6.14 8.5 7.32.22-.36.6-.88.92-1.18-3.72-.98-6.76-3.42-8.2-6.52zm4.08.1c-.72.82-2.04 1.94-2.96 2.62l.88.7c.96-.66 2.22-1.62 3.2-2.54l-1.12-.78zm2.4 2.02c-.74.78-2.1 1.9-3.06 2.56l.92.7c.98-.62 2.28-1.58 3.24-2.5l-1.1-.76zm-13.98 3.92v1.2h3.34v3.28h1.36v-4.48h-4.7zm-.66 3.3c-.16 1.42-.44 3.24-.7 4.42h1.3c.22-1.14.48-2.94.66-4.42h-1.26zm4 3.26v.2c-.2 2.6-.42 3.66-.78 3.96-.16.16-.36.18-.74.18s-1.46-.02-2.56-.12c.22.36.4.9.44 1.3 1.08.06 2.14.08 2.66.04.6-.04.98-.16 1.34-.5.48-.48.72-1.68.98-4.46.02-.2.04-.6.04-.6h-1.38zm3.26-6.62v1.56c0 .96-.26 2.06-1.86 2.92.28.18.76.66.96.94 1.78-1.04 2.2-2.54 2.2-3.84v-1.58h-1.3zm5.66 5.8v.2c-1.16 2.86-4.24 4.6-7.54 5.3.24.28.54.78.68 1.1 3.62-.9 6.84-2.78 8.22-6.32l-.86-.34-.24.06h-.26zm-12.34-2.44l-.2 1.18h4.12v-1.18h-3.92zm-.6 3.26l-.22 1.16h4.62v-1.16h-4.4zm-.7-9.4c.94.58 2.04 1.44 2.56 2.06l.92-.92c-.54-.58-1.68-1.42-2.6-1.96l-.88.82zm12 2.78v3.14c0 1.22.26 1.68 1.46 1.68h1.68c.4 0 .8 0 1.02-.08-.04-.3-.08-.74-.08-1.06-.24.06-.7.08-.98.08h-1.48c-.28 0-.34-.14-.34-.6v-3.16h-1.28zm-4.96 7.88c2.44 1.38 5.68 3.38 7.3 4.56l.78-.98c-1.68-1.18-4.94-3.1-7.34-4.4l-.74.82zm17.198-1.08v3.2c0 1.56.58 1.96 2.76 1.96h4.18c1.82 0 2.28-.6 2.48-3.12-.42-.1-1.04-.3-1.38-.56-.08 2.04-.24 2.32-1.22 2.32h-3.96c-1.18 0-1.38-.08-1.38-.62v-3.18h-1.48zm2.64-.7c.94.92 2.14 2.22 2.74 2.98l1.08-.9c-.62-.76-1.84-1.98-2.78-2.86l-1.04.78zm7.04.66c.82 1.32 1.86 3.1 2.34 4.14l1.38-.7c-.5-1.02-1.58-2.74-2.4-4.02l-1.32.58zm-12.52-.2c-.38 1.34-1.06 3.04-1.88 4.1l1.32.68c.82-1.12 1.46-2.92 1.88-4.26l-1.32-.52zm-1.72-9.58v1.3h8.28v-1.3h-8.28zm3.68-2.94v11.66h1.42v-11.66h-1.42zm-.06 3.74c-.84 2.2-2.48 4.54-4.06 5.68.3.24.74.72.98 1.06 1.6-1.34 3.24-3.9 4.12-6.38l-1.04-.36zm1.36 1.56l-.8.74c.8.6 2.74 2.26 3.44 2.96l.82-1.2c-.56-.44-2.8-2.1-3.46-2.5zm5.56-.02h5v1.88h-5v-1.88zm0 3.04h5v1.9h-5v-1.9zm0-6.08h5v1.84h-5v-1.84zm-1.38-1.24v10.46h7.82v-10.46h-7.82zm25.498.82v14.34c0 .42-.14.56-.58.58-.48.02-2.1.04-3.72-.04.24.44.54 1.18.64 1.62 1.98 0 3.38-.02 4.18-.28.78-.24 1.04-.76 1.04-1.84v-14.38h-1.56zm-11.76 4v9.06h1.46v-9.06h-1.46zm.62 0v1.42h6.08v4.6h-6.08v1.44h7.58v-7.46h-7.58zm-2.68-4.46v1.52h17.84v-1.52h-17.84zm27.479 5.7v9.66c0 .26-.06.34-.34.34s-1.12.02-2.06-.02c.18.36.4.88.48 1.24 1.26 0 2.12-.02 2.66-.22.52-.22.68-.58.68-1.34v-9.66h-1.42zm-4.86 0v1.3h5.62v-1.3h-5.62zm8.12 2.22v6.78c0 1.66.52 2.12 2.46 2.12h3.58c1.66 0 2.1-.7 2.28-3.32-.4-.08-1-.32-1.34-.56-.1 2.18-.24 2.54-1.06 2.54h-3.3c-.96 0-1.14-.12-1.14-.8v-6.76h-1.48zm-4.34-7.4c.98 1.42 2.1 3.36 2.56 4.56l1.28-.58c-.5-1.18-1.64-3.08-2.62-4.46l-1.22.48zm5.2.86v1.32h6.04V145h-6.04zm.02 8.94v1.36h6.24v-1.36h-6.24zm-9.94-5.86c0-.3.94-.76.94-.76v-.02c1.24-1.12 2.62-2.86 3.72-4.6l-1.52-.5c-.84 1.62-2.16 3.24-2.58 3.68-.4.44-.72.72-1.04.78.16.38.4 1.12.48 1.42zm0 0c.48-.2 1.24-.3 7.32-.82-.1-.3-.22-.82-.28-1.2l-6.28.42-.8.48.04 1.12zm.22 1.24v4.92c0 1.72-.12 3.82-1.26 5.36.3.2.84.74 1.04 1.04 1.38-1.76 1.62-4.4 1.62-6.38v-4.94h-1.4zm1.2 7.5l.54 1.28c1.36-.76 2.98-1.72 4.56-2.66l-.3-.98c-1.76.9-3.58 1.82-4.8 2.36zm.36-4.3c1.08.64 2.48 1.58 3.18 2.18l.8-.86c-.72-.56-2.12-1.44-3.2-2.08l-.78.76zm7.28-10.3v6.32c0 1.72.5 2.32 2.28 2.32h3.76c.72 0 1.44-.02 1.78-.1-.06-.36-.12-.92-.16-1.32-.38.1-1.18.12-1.66.12h-3.7c-.66 0-.82-.24-.82-.98v-6.36h-1.48zm12.418 3.2v1.34h4.68v10.38h-4.68v1.36h6.08v-13.08h-6.08zm-.9 0v14.68h1.4v-14.68h-1.4zm.8 5.56v1.34h5.52v-1.34h-5.52zm2.26-8.82c-.16 1.04-.54 2.56-.88 3.52l1.2.3c.4-.9.9-2.28 1.3-3.52l-1.62-.3zm6.76 3.2v1.4h6.14v-1.4h-6.14zm5.62 0v.32c-.28 8.82-.6 12.14-1.26 12.86-.22.26-.46.32-.86.32-.46 0-1.66-.02-2.96-.12.28.4.46 1.02.5 1.46 1.12.06 2.3.1 2.98.02.7-.06 1.16-.24 1.6-.82.8-.98 1.08-4.08 1.4-13.26v-.78h-1.4zm-5.2-3.24c-.64 2.78-1.74 5.54-3.1 7.3.36.2.98.62 1.24.86 1.38-1.9 2.56-4.84 3.3-7.82l-1.44-.34zm-.92 8.44c1.1 1.46 2.44 3.44 3.04 4.66l1.28-.8c-.64-1.18-2.02-3.12-3.16-4.54l-1.16.68zm12.538-3.28v1.18h5.78v-1.18h-5.78zm0 3.4v1.14h5.78v-1.14h-5.78zm0 3.48v1.18h5.78v-1.18h-5.78zm8.52-2.48v1.3h7.62v-1.3h-7.62zM826.8 144v1.18h3.32V144h-3.32zm6.2-.78v1.28h7.82v-1.28H833zm-.24 12.2v1.34h9.48v-1.34h-9.48zm4.22-5.8v10.9h1.44v-10.9h-1.44zm-8.74-1.76v6.8h1.08v-6.8h-1.08zm12.1-4.64v.2c-.14 3.14-.3 4.3-.56 4.6-.12.16-.3.2-.58.18-.28 0-1 0-1.8-.08.18.34.32.86.34 1.26.84.04 1.68.04 2.08 0 .52-.04.82-.16 1.1-.5.42-.46.62-1.76.76-5.1.02-.18.02-.56.02-.56h-1.36zm-5.98 6.58c-.34 1.7-.96 3.38-1.82 4.5.32.16.92.46 1.18.64.84-1.2 1.54-3.02 1.94-4.88l-1.3-.26zm-7.6-7.6c-.6 2.46-1.72 4.84-3.14 6.38.32.2.9.66 1.14.9 1.42-1.7 2.64-4.28 3.38-6.98l-1.38-.3zm-1.58 5.08v5.32c0 2.26-.14 5.24-1.5 7.36.3.14.86.48 1.08.68 1.42-2.22 1.66-5.6 1.66-8.04v-5.32h-1.24zm5.96 0v11.68c0 .26-.12.34-.38.36-.28.02-1.18.02-2.2-.02.18.36.4.94.46 1.28 1.38 0 2.2-.02 2.7-.24.52-.22.68-.64.68-1.38v-11.68h-1.26zm4.7-3.64c-.28 2.26-1 4.24-3.46 5.28.3.22.66.7.84 1.02 2.8-1.26 3.66-3.54 4-6.3h-1.38zm-6.08.36v.24c-.3 1-.86 2.44-1.36 3.34.28.12.72.38.96.58.6-.94 1.36-2.42 1.78-3.66l-.88-.58-.2.08h-.3zm-228.52 33.42v1.42h8.82v5.22h1.48v-6.64h-10.3zm-1.12 5.94v1.44h13.08v-1.44h-13.08zm5.16-9.12v6.84c0 3.94-.54 7.78-5.74 10.46.38.26.94.76 1.2 1.08 5.42-2.92 6.04-7.24 6.04-11.54v-6.84h-1.5zm-9.36 1.28c1.34.58 2.96 1.52 3.76 2.26l.88-1.26c-.82-.7-2.5-1.58-3.82-2.1l-.82 1.1zm-1.1 5.52c1.32.54 2.92 1.48 3.7 2.16l.84-1.24c-.82-.68-2.44-1.54-3.72-2.04l-.82 1.12zm.68 10.28l1.26 1.02c1.18-1.86 2.58-4.36 3.64-6.48l-1.08-.98c-1.16 2.28-2.74 4.92-3.82 6.44zm12.08-5.38c1.52 2.12 3.44 5 4.36 6.64l1.34-.74c-.96-1.66-2.96-4.46-4.46-6.5l-1.24.6zm7.78-8.26v1.44h17.34v-1.44h-17.34zm6.24 4.66v1.46h8v-1.46h-8zm7.6 0v.26c-.36 5.38-.78 7.6-1.4 8.18-.24.18-.5.22-.94.22-.54 0-1.94-.02-3.4-.14.3.4.52 1.02.54 1.48 1.36.08 2.66.1 3.38.06.78-.06 1.26-.2 1.72-.7.8-.8 1.2-2.98 1.6-8.64.04-.22.06-.72.06-.72h-1.56zm-8.36-3.8c-.22 4.72-.56 10.24-5.92 12.92.38.3.86.82 1.1 1.2 5.64-2.98 6.2-8.9 6.46-14.12h-1.64zm1.96-3.9c.5.98 1.12 2.26 1.38 3.08l1.52-.66c-.3-.8-.9-2.04-1.46-2.98l-1.44.56zm20.38 10.1v7.86h1.52v-7.86h-1.52zm-7.58-9.04v2.9h1.4v-1.62h14.04v1.62h1.44v-2.9H635.6zm-.34 3.58v1.22h17.52v-1.22h-17.52zm-.22 7.12v1.3h17.94v-1.3h-17.94zm13.14-8.52c-1.42 4.36-5.18 5.84-12.94 6.16.22.34.42.84.54 1.28 8.12-.5 12.22-2.14 13.86-7.08l-1.46-.36zm-10.4 4.58c5.4.84 10.38 1.98 13.28 3.06l1.48-1c-3.2-1.06-8.42-2.24-13.52-2.98l-1.24.92zm4.84-7.92c.4.62.9 1.48 1.14 2.02l1.56-.46c-.26-.52-.78-1.34-1.22-1.94l-1.48.38zm-4.84 7.92h1.66c1.32-1.14 3.26-3.1 4.46-4.82l-1.46-.46c-1.12 1.74-3.12 3.92-4.66 5.28zm2.28 5.66c-1.06 1.16-2.96 2.2-4.76 2.86.36.24.94.74 1.22 1.02 1.76-.78 3.8-2.04 5.04-3.38l-1.5-.5zm6.2.74c1.84.88 4.12 2.26 5.24 3.24l1.1-1.1c-1.18-.96-3.5-2.28-5.32-3.1l-1.02.96zm252.22-36.38v1.34h11.66v-1.34h-11.66zm4.56-8.58l-.68 1.1h5.86l.36-1.1h-5.54zm3.06 5.76v8.98c0 .26-.08.34-.4.34-.34.02-1.42.04-2.6 0 .2.42.4 1.02.46 1.44 1.6 0 2.6-.02 3.18-.26.62-.24.8-.68.8-1.52v-8.98h-1.44zm-2.16-7.48c-1.16 1.64-3.38 3.32-5.78 4.28.28.24.72.68.94.94 2.46-1.12 4.86-2.88 6.3-4.78l-1.46-.44zm-4 12.8c1 1 2.12 2.4 2.6 3.32l1.22-.78c-.5-.9-1.66-2.24-2.66-3.2l-1.16.66zm1.76-9.56c1.22.98 2.54 2.38 3.12 3.34l1.02-.74c-.62-.98-1.98-2.34-3.18-3.26l-.96.66zm-8.42 2.56v1.32h3.84v-1.32h-3.84zm-1.48 4.28v1.32h5.26v-1.32h-5.26zm4.62-10.04v18.38h1.4v-18.38h-1.4zm-3.76.78v6.3H894V143h-1.34zm.24 9.76v1.26c0 1.56-.18 4.06-1.28 5.9.36.14.9.48 1.16.72 1.24-2 1.44-4.84 1.44-6.58v-1.3h-1.32zm15.14-8.86v.26c-1.5 3.7-5.56 6.12-9.5 7.04.26.3.6.8.74 1.14 4.24-1.18 8.44-3.68 10.22-8.04l-.92-.46-.26.06h-.28zm-9.46 4.28l.24 1.12c1.22-.16 2.62-.36 4.08-.58l-.08-1.06c-1.62.22-3.12.42-4.24.52zm13.798 4.66l.4 1.46c1.86-.54 4.26-1.3 6.54-2.02l-.18-1.36c-2.48.72-5.04 1.48-6.76 1.92zm.26-6.6v1.4h6.48v-1.4h-6.48zm2.78-4.02v16.66c0 .28-.1.38-.38.38-.24 0-1.08 0-1.98-.02.18.4.4 1 .44 1.36 1.34.02 2.14-.02 2.66-.26.52-.22.72-.64.72-1.46v-16.66h-1.46zm4.4 4.6v13.72h1.42v-12.3h7.9v12.18h1.5v-13.6h-10.82zm.86 5.34v1.42h8.9v-1.42h-8.9zm.04 5.54v1.44h8.9v-1.44h-8.9zm3.7-15.46v16.34h1.42v-16.34h-1.42zm15.398 9.24c4.48 2.64 4.96 6.4 3.44 7.38-.42.3-.88.34-1.44.34-.44 0-1.16 0-1.88-.08.24.38.4.96.42 1.38.64.02 1.28.04 1.72.04.88 0 1.46-.14 2.12-.6 2.26-1.44 1.78-6.28-3.38-9.24l-1 .78zm2.24.94c-1.76 1.24-5.14 2.44-7.84 2.96.28.28.66.76.86 1.1 2.66-.66 6.12-2.02 8.04-3.5l-1.06-.56zm1.18 1.9c-2.08 1.72-6.1 3.36-9.34 4.08.28.28.66.8.86 1.16 3.24-.88 7.32-2.68 9.56-4.66l-1.08-.58zm-4.34-10.78v1.2h5.9v-1.2h-5.9zm-1.66 3.92h10.9v2.16h-10.9v-2.16zm-1.42-1.16v4.48h13.8v-4.48h-13.8zm3.64-4.16c-1.1 1.64-3.12 3.62-5.8 5.06.34.22.8.7 1.02 1.04 2.82-1.66 4.88-3.76 6.34-5.78l-1.56-.32zm4.78 1.4v.3c-.4.82-1.28 2.06-2.08 2.78.34.18.82.5 1.1.7.88-.78 1.92-2.06 2.56-3.18l-1-.66-.24.06h-.34zm-2.38 3.34v3.24h1.38v-3.24h-1.38zm-.2 3.16c-1.64 1.06-4.78 2.12-7.16 2.6.28.26.62.72.82 1.02 2.32-.58 5.54-1.82 7.3-3.06l-.96-.56zm6.98 1.04c-1.34.86-3.64 2.02-5.3 2.64l.94.84c1.68-.6 3.92-1.58 5.58-2.54l-1.22-.94zm-1.94 1.68l-1.14.7c.76 2.06 2.5 4.82 5.18 6.14.2-.38.68-1 1-1.26-2.64-1.14-4.34-3.62-5.04-5.58zm19.019-9.44v1.3h6.74v-1.3h-6.74zm-4.96 3.62v1.14h3.58v-1.14h-3.58zm2.36 6.26c.7 1.3 1.52 3.04 1.86 4.1l1.06-.6c-.36-1-1.2-2.7-1.94-3.98l-.98.48zm-2.38-9.84v1.26h3.02v5.92h-3.02v1.24h4.18v-8.42h-4.18zm8.24.34v1c0 4-.28 10.4-5.16 15.22.36.16.84.52 1.1.76 4.96-5.06 5.3-11.78 5.3-15.98v-1h-1.24zm-.22 8.9v6.06c0 .88.08 1.16.36 1.42.26.22.64.3 1.02.3h.86c.32 0 .68-.08.9-.22.24-.16.4-.42.5-.8.1-.38.14-1.52.16-2.52-.3-.1-.68-.28-.9-.48.02.98 0 1.84-.04 2.2-.04.26-.14.42-.22.5-.1.06-.26.1-.44.1h-.54c-.16 0-.28-.04-.36-.12-.08-.06-.12-.18-.12-.32v-6.12h-1.18zm-8.62 6.26c.28-.34.78-.74 4.74-3.16a5.96 5.96 0 01-.36-1.06l-4.12 2.36-.46.6.2 1.26zm0 0c0-.52 1.24-1.66 1.24-1.66v-13.84h-1.2v12.66c0 .92-.52 1.56-.82 1.82.24.22.64.74.78 1.02zm6.1-8.56v1.26h6.36v-1.26h-6.36zm.34-6.02c-.18 2.28-.52 5.42-.84 7.28h1.18c.3-1.8.66-4.86.88-7.18l-1.22-.1zm-12.08 2.18v1.38h5.18v-1.38h-5.18zm2.12-4.26v18.38h1.34V142.2h-1.34zm.04 5.12c-.42 2.82-1.48 6.38-2.62 8.26.26.32.62.88.78 1.28 1.26-2.08 2.3-6.14 2.8-9.26l-.96-.28zm1.24 1.18l-.68.72c.42.78 1.5 2.98 1.86 3.96l.86-1.24c-.3-.54-1.68-2.92-2.04-3.44zm19.858.94v1.28h11.36v-1.28h-11.36zm10.92 0v.26c-.64 1.24-1.98 2.98-3.14 4.04.36.18.86.5 1.16.72 1.2-1.12 2.68-2.94 3.52-4.48l-1-.62-.24.08h-.3zm-4.04-6.9l-1.24.64c2.18 2.36 5.96 4.64 9.06 5.76.22-.38.7-.96 1.04-1.28-3.14-.96-6.92-3.06-8.86-5.12zm-.8-.66c-1.56 2.62-4.9 4.68-8.86 5.98.32.28.76.86.96 1.2 4.08-1.44 7.44-3.64 9.28-6.66l-1.38-.52zm-4.14 12.36v3.92c0 1.64.62 2.08 2.96 2.08h4.66c1.94 0 2.44-.62 2.64-3.16-.42-.1-1.06-.32-1.4-.56-.1 2.04-.28 2.34-1.34 2.34h-4.48c-1.3 0-1.52-.12-1.52-.72v-3.9h-1.52zm2.32-.94c1.08 1.24 2.46 2.94 3.12 3.94l1.32-.76c-.72-1-2.14-2.64-3.22-3.84l-1.22.66zm7.1.78c.86 1.74 1.98 4.12 2.48 5.46l1.5-.54c-.58-1.36-1.74-3.66-2.6-5.38l-1.38.46zm-11.76.14c-.44 1.54-1.2 3.62-2.02 4.96l1.38.62c.78-1.38 1.48-3.54 1.94-5.1l-1.3-.48zm3.14-7.52v1.26h7.44v-1.26h-7.44zm23.797-3.02v1.18h9.76v-1.18h-9.76zm-.22 11.22v1.16h10.22v-1.16h-10.22zm4.36-12.68V153h1.32v-10.78h-1.32zm-2.44 6.8h6.32v1.22h-6.32v-1.22zm0-2.14h6.32v1.22h-6.32v-1.22zm-1.24-.94v5.26h8.84v-5.26h-8.84zm-.66 6.62l.1 1.16c2.3-.06 5.66-.12 8.92-.22l.02-1.1c-3.4.08-6.8.14-9.04.16zm6.36 1.26v5.3c0 .22-.06.28-.34.3-.26.02-1.18.02-2.2-.02.18.36.38.86.44 1.24 1.36 0 2.22 0 2.8-.2.56-.2.7-.56.7-1.3v-5.32h-1.4zm-5.2 3.04c.76.7 1.54 1.72 1.88 2.44l1.12-.72c-.38-.7-1.18-1.66-1.98-2.34l-1.02.62zm5.76-5.3c.9.82 1.9 1.98 2.34 2.76l1.06-.62c-.48-.76-1.48-1.86-2.4-2.66l-1 .52zm-14.899-7.18v1.34h7.759v-1.34h-7.759zm-.26 11.4v1.34h8.299v-1.34h-8.299zm3.54-13.56v5.46h1.379v-5.46h-1.379zm.14 5.54v5.82h-.14v7.06h1.379v-7.06h-.14v-5.82h-1.099zm-1.82 3.44h4.779v1.84h-4.779v-1.84zm0-2.88h4.779v1.8h-4.779v-1.8zm-1.16-1.12v6.96h7.099v-6.96h-7.099zm19.979 5.62l.4 1.44c1.66-.58 3.76-1.34 5.76-2.06l-.24-1.36c-2.18.76-4.42 1.52-5.92 1.98zm.22-6.58v1.4h5.84v-1.4h-5.84zm2.36-4.04v16.54c0 .26-.08.34-.32.34s-.96 0-1.76-.02c.18.44.38 1.08.44 1.48 1.2 0 1.94-.06 2.42-.3.5-.26.68-.68.68-1.52V142.2h-1.46zm7.5 0c-.68 1.78-1.96 4.02-3.92 5.68.3.2.74.66.94.98 2.14-1.9 3.52-4.3 4.4-6.44l-1.42-.22zm.04 1.54l-.72 1.22h4.66v-1.22h-3.94zm-2.46 3.24V155h1.26v-6.78h7.04V155h1.3v-8.02h-9.6zm-1.7 7.58v1.26h12.58v-1.26h-12.58zm5.74-1.98c-.32 3.72-1.26 5.88-6.32 6.88.26.3.62.82.74 1.16 5.48-1.2 6.64-3.74 7.04-8.04h-1.46zm1.98-8.84v.26c-.36.94-1.06 2.32-1.74 3.14.3.16.76.44 1 .62.72-.88 1.6-2.3 2.14-3.5l-.88-.58-.24.06h-.28zm-1.44 4.42a8.362 8.362 0 01-3.08 3.72c.3.18.8.54 1.02.74 1.28-.96 2.54-2.5 3.22-4.16l-1.16-.3zm-.44 1.88c1.18.72 2.64 1.76 3.34 2.5l.74-.84c-.72-.72-2.18-1.74-3.36-2.4l-.72.74zm1.2 6.8c1.58 1.18 3.66 2.82 4.68 3.8l.98-.94c-1.08-.94-3.2-2.54-4.74-3.66l-.92.8zm10.6-7.14v1.4h4.98v-1.4h-4.98zm4.38 0v.26c-.06 4.32-.16 5.82-.46 6.18-.14.18-.34.2-.62.2-.34 0-1.22 0-2.12-.08.22.38.38.96.42 1.4.98.04 1.88.06 2.4 0 .56-.06.88-.2 1.2-.56.42-.56.54-2.24.64-6.76v-.64h-1.46zm5.64-6.48c1.26.66 2.8 1.68 3.56 2.38l.94-1.02c-.78-.7-2.36-1.66-3.6-2.3l-.9.94zm2.86 5.42c-1.5 4.82-4.32 8.48-8.38 10.64.32.3.88.92 1.1 1.22 4.1-2.42 7.08-6.28 8.78-11.5l-1.5-.36zm-12.76-3.04v1.48h15.48v-1.48h-15.48zm-.96 0v5.62c0 2.62-.18 6.06-1.84 8.52.36.18 1 .7 1.26 1 1.82-2.62 2.14-6.66 2.14-9.5v-5.64h-1.56zm8.3-3.36c.08 9.58 1.88 18.22 5.96 18.22 1.52 0 2.08-.98 2.36-4.4-.4-.14-.96-.48-1.3-.82-.12 2.66-.38 3.7-.94 3.7-2.6 0-4.56-7.5-4.52-16.7h-1.56zm22.06 15.08c2.2 1.04 4.54 2.34 5.92 3.32l1.2-1.14c-1.48-.94-3.92-2.22-6.16-3.24l-.96 1.06zm-11.08-2.5v1.38h17.98v-1.38h-17.98zm3.76-8.68v1.14h10.42v-1.14h-10.42zm0 2.84v1.14h10.42v-1.14h-10.42zm0 2.88V153h10.42v-1.14h-10.42zm1.76 4.48c-1.24 1.1-3.72 2.42-5.74 3.18.34.3.84.8 1.1 1.1 2.02-.8 4.48-2.12 6.06-3.36l-1.42-.92zm-2.32-13.16v12.3h1.44v-11.06h8.86v11.06h1.5v-12.3h-11.8zm25.59 7.7v1.14h10v-1.14h-10zm-.24 8.16v1.18h10.44v-1.18h-10.44zm3.14-16.82v2.32h1.22v-2.32h-1.22zm2.68 0v2.32h1.24v-2.32h-1.24zm-4 5.06h6.68v1.48h-6.68v-1.48zm0-2.44h6.68v1.44h-6.68v-1.44zm-1.18-1.1v6.08h9.08v-6.08h-9.08zm1.88 10.28h5.34v1.68h-5.34v-1.68zm-1.32-1.02v3.7h8.06V153h-8.06zm5.82 3.76c-.22.74-.66 1.86-1.02 2.56l1 .36c.42-.64.92-1.64 1.38-2.54l-1.36-.38zm-4.84.4c.34.78.72 1.82.88 2.48l1.2-.4c-.18-.64-.56-1.66-.92-2.44l-1.16.36zm1.18-12.88v5.08h1.02v-5.08h-1.02zm2.52 0v5.08h1.04v-5.08H1093zm-12.02 6.62v1.08h4.6v-1.08h-4.6zm3.84 0v8.16c0 .2-.06.28-.28.28-.2 0-.9 0-1.68-.02.16.34.34.84.4 1.16 1.14 0 1.82-.02 2.28-.2.44-.22.58-.56.58-1.2v-8.18h-1.3zm-4.58-7.98V149h1.2v-4.94h3.46V149h1.28v-6.08h-5.94zm-.84 5.56v2.88h1.16v-1.78h5.28v1.78h1.2v-2.88h-7.64zm3.3-3.12v3.54h.9v-2.58h2.1v-.96h-3zm-2.3 5.54v3.76c0 1.6-.12 3.68-1.18 5.22.3.14.84.54 1.06.8 1.18-1.72 1.38-4.2 1.38-6.02v-3.76h-1.26zm1.16 6.1l.58 1.06c1.08-.64 2.3-1.38 3.54-2.14l-.28-.84c-1.44.76-2.84 1.48-3.84 1.92zm.22-3.58c.76.5 1.68 1.28 2.14 1.78l.76-.84c-.48-.46-1.4-1.12-2.2-1.64l-.7.7zm32.32-9.34v14.34c0 .42-.14.56-.58.58-.48.02-2.1.04-3.72-.04.24.44.54 1.18.64 1.62 1.98 0 3.38-.02 4.18-.28.78-.24 1.04-.76 1.04-1.84v-14.38h-1.56zm-11.76 4v9.06h1.46v-9.06h-1.46zm.62 0v1.42h6.08v4.6h-6.08v1.44h7.58v-7.46h-7.58zm-2.68-4.46v1.52h17.84v-1.52h-17.84zm28.42-.2v1.44h9.82v-1.44h-9.82zm5.84 5.96v9.28c0 .34-.12.42-.52.44-.36.02-1.7.02-3.12-.02.22.44.42 1.06.48 1.48 1.96 0 3.1-.02 3.78-.24.68-.24.9-.7.9-1.64v-9.3h-1.52zm-6.72-.44v1.42h11.28v-1.42h-11.28zm-4 1.54v10.18h1.5v-11.4l-.18-.08-1.32 1.3zm2.32-4c-1.38 2.3-3.58 4.62-5.66 6.1.32.28.84.94 1.06 1.24 2.1-1.68 4.46-4.26 6.02-6.8l-1.42-.54zm-.82-4.28c-1.02 1.44-2.96 3.24-4.62 4.36.26.3.66.88.88 1.2 1.78-1.28 3.84-3.22 5.18-4.98l-1.44-.58zm-231.7 35.22v1.34h4.68v10.38h-4.68v1.36h6.08v-13.08h-6.08zm-.9 0v14.68h1.4v-14.68h-1.4zm.8 5.56v1.34h5.52v-1.34h-5.52zm2.26-8.82c-.16 1.04-.54 2.56-.88 3.52l1.2.3c.4-.9.9-2.28 1.3-3.52l-1.62-.3zm6.76 3.2v1.4h6.14v-1.4h-6.14zm5.62 0v.32c-.28 8.82-.6 12.14-1.26 12.86-.22.26-.46.32-.86.32-.46 0-1.66-.02-2.96-.12.28.4.46 1.02.5 1.46 1.12.06 2.3.1 2.98.02.7-.06 1.16-.24 1.6-.82.8-.98 1.08-4.08 1.4-13.26v-.78h-1.4zm-5.2-3.24c-.64 2.78-1.74 5.54-3.1 7.3.36.2.98.62 1.24.86 1.38-1.9 2.56-4.84 3.3-7.82l-1.44-.34zm-.92 8.44c1.1 1.46 2.44 3.44 3.04 4.66l1.28-.8c-.64-1.18-2.02-3.12-3.16-4.54l-1.16.68zm10.74-2.3v1.2h5.92v-1.2h-5.92zm0 2.62v1.2h5.94v-1.2h-5.94zm-.84-5.28v1.26h7.62v-1.26h-7.62zm1.48 7.96v1.26h3.96v3.32h-3.96v1.26h5.3v-5.84h-5.3zm-.66 0v6.78h1.32v-6.78h-1.32zm1.36-10.84c.54.82 1.18 1.96 1.48 2.7l1.24-.72c-.32-.7-.98-1.76-1.56-2.58l-1.16.6zm7.44.22v1.4h5.18v-1.4h-5.18zm-2.22 8.1v1.42h8.82v-1.42h-8.82zm8.28 0v.26c-1.3 4.28-4.98 6.96-9.02 7.98.28.32.62.94.78 1.34 4.34-1.3 8.2-4.12 9.74-9.22l-.94-.42-.26.06h-.3zm-6.16 1.28l-1.28.44c1.7 3.92 4.84 6.68 9.18 7.82.2-.42.62-1.04.94-1.36-4.22-.94-7.36-3.48-8.84-6.9zm-.2-9.38v2.2c0 1.42-.32 3.06-2.48 4.3.26.22.78.8.96 1.1 2.4-1.42 2.92-3.56 2.92-5.36v-2.24h-1.4zm4.74 0v4.62c0 1.52.28 2.08 1.6 2.08h1.32c.36 0 .76-.02.98-.12-.06-.34-.1-.9-.12-1.28-.24.06-.62.1-.86.1h-1.22c-.26 0-.3-.2-.3-.76v-4.64H926zm7.16 5.32v1.2h6.54v-1.2h-6.54zm0 2.62v1.2h6.5v-1.2h-6.5zm-.9-5.28v1.26h8.28v-1.26h-8.28zm1.68 7.96v1.26h4.42v3.32h-4.42v1.26h5.74v-5.84h-5.74zm-.64 0v6.78h1.3v-6.78h-1.3zm1.34-10.84c.54.82 1.2 1.96 1.5 2.7l1.2-.72c-.32-.7-.96-1.76-1.52-2.58l-1.18.6zm5.88 6.42v1.48h9.58v-1.48h-9.58zm3.92-6.56v18.02h1.54v-18.02h-1.54zm9.96 7.12v1.4h4.98v-1.4h-4.98zm4.38 0v.26c-.06 4.32-.16 5.82-.46 6.18-.14.18-.34.2-.62.2-.34 0-1.22 0-2.12-.08.22.38.38.96.42 1.4.98.04 1.88.06 2.4 0 .56-.06.88-.2 1.2-.56.42-.56.54-2.24.64-6.76v-.64h-1.46zm5.64-6.48c1.26.66 2.8 1.68 3.56 2.38l.94-1.02c-.78-.7-2.36-1.66-3.6-2.3l-.9.94zm2.86 5.42c-1.5 4.82-4.32 8.48-8.38 10.64.32.3.88.92 1.1 1.22 4.1-2.42 7.08-6.28 8.78-11.5l-1.5-.36zm-12.76-3.04v1.48H970v-1.48h-15.48zm-.96 0v5.62c0 2.62-.18 6.06-1.84 8.52.36.18 1 .7 1.26 1 1.82-2.62 2.14-6.66 2.14-9.5v-5.64h-1.56zm8.3-3.36c.08 9.58 1.88 18.22 5.96 18.22 1.52 0 2.08-.98 2.36-4.4-.4-.14-.96-.48-1.3-.82-.12 2.66-.38 3.7-.94 3.7-2.6 0-4.56-7.5-4.52-16.7h-1.56zm10.36 10.58v1.4h17.56v-1.4h-17.56zm7.98-9.16v16.94h1.58v-16.94h-1.58zm-.54 9.76c-1.68 2.2-4.98 4.32-7.94 5.3.32.3.8.86 1.02 1.22 3-1.14 6.32-3.42 8.18-5.98l-1.26-.54zm2.58-.06l-1.2.54c1.92 2.46 5.32 4.8 8.22 5.96.24-.38.7-.96 1.04-1.26-2.92-.98-6.32-3.1-8.06-5.24zm-6.54-5.62h10.64v2.1H975.7v-2.1zm0-3.28h10.64v2.06H975.7v-2.06zm-1.54-1.28v7.94h13.78v-7.94h-13.78z" fill="#1C1C1E"/></svg>