<svg width="603" height="269" fill="none" xmlns="http://www.w3.org/2000/svg"><path d="M108.259 14.473V5.745h3.494c.642 0 1.178.096 1.607.286.429.19.751.454.967.793.216.335.324.721.324 1.159 0 .34-.068.64-.204.899a1.77 1.77 0 01-.563.63 2.309 2.309 0 01-.81.346v.085a1.996 1.996 0 011.645 1.01c.182.31.273.679.273 1.108 0 .463-.115.876-.345 1.24-.227.36-.564.646-1.01.856-.446.21-.996.316-1.649.316h-3.729zm1.845-1.509h1.504c.515 0 .89-.098 1.125-.294a.985.985 0 00.354-.793 1.17 1.17 0 00-.175-.639 1.181 1.181 0 00-.498-.434 1.707 1.707 0 00-.763-.158h-1.547v2.318zm0-3.567h1.368c.253 0 .477-.044.673-.132.199-.09.355-.218.469-.383a.996.996 0 00.175-.593.956.956 0 00-.337-.762c-.221-.194-.537-.29-.946-.29h-1.402v2.16zm9.037 5.204c-.673 0-1.252-.137-1.738-.41a2.807 2.807 0 01-1.117-1.167c-.261-.506-.392-1.104-.392-1.794 0-.674.131-1.264.392-1.773.262-.508.63-.905 1.104-1.189.477-.284 1.037-.426 1.679-.426.432 0 .834.07 1.206.209.375.136.702.342.98.618.281.275.5.622.656 1.04.157.414.235.9.235 1.457v.498h-5.527V10.54h3.818c0-.26-.057-.492-.171-.694a1.215 1.215 0 00-.473-.473 1.345 1.345 0 00-.694-.175c-.276 0-.52.064-.733.192-.21.125-.375.294-.494.507-.12.21-.181.445-.184.703v1.07c0 .323.06.603.179.84.122.235.294.417.516.545.222.127.484.191.788.191.202 0 .387-.028.554-.085.168-.057.311-.142.431-.255a1.11 1.11 0 00.272-.418l1.679.11c-.085.404-.26.756-.524 1.058a2.626 2.626 0 01-1.014.698c-.412.165-.888.248-1.428.248zm7.709-6.674v1.364h-4.039V7.927h4.039zm-3.115 6.546V7.454c0-.474.093-.868.277-1.18.188-.313.443-.547.767-.703a2.51 2.51 0 011.104-.235c.278 0 .533.022.763.064.233.043.406.081.52.115l-.324 1.364a2.267 2.267 0 00-.264-.064 1.66 1.66 0 00-.316-.03c-.267 0-.453.063-.558.188-.105.122-.158.294-.158.515v6.985h-1.811zm6.947.127c-.662 0-1.234-.14-1.717-.421a2.885 2.885 0 01-1.112-1.185c-.262-.509-.392-1.098-.392-1.768 0-.677.13-1.268.392-1.773a2.85 2.85 0 011.112-1.185c.483-.284 1.055-.426 1.717-.426.662 0 1.233.142 1.713.426a2.85 2.85 0 011.117 1.185c.261.505.392 1.096.392 1.773 0 .67-.131 1.26-.392 1.768-.262.506-.634.9-1.117 1.185-.48.28-1.051.421-1.713.421zm.009-1.406c.301 0 .552-.085.754-.255.202-.174.354-.41.456-.708.105-.298.158-.638.158-1.018 0-.381-.053-.72-.158-1.019a1.581 1.581 0 00-.456-.707 1.117 1.117 0 00-.754-.26c-.304 0-.56.087-.767.26-.205.173-.36.409-.465.707a3.14 3.14 0 00-.153 1.019c0 .38.051.72.153 1.018.105.299.26.534.465.708.207.17.463.255.767.255zm4.393 1.279V7.927h1.76V9.07h.068c.12-.406.32-.713.601-.92.282-.21.605-.316.972-.316a2.74 2.74 0 01.571.064v1.611a2.359 2.359 0 00-.354-.068c-.15-.02-.288-.03-.413-.03-.267 0-.506.058-.716.175a1.287 1.287 0 00-.494.477c-.12.205-.179.44-.179.708v3.703h-1.816zm7.589.127c-.674 0-1.253-.136-1.739-.409a2.799 2.799 0 01-1.116-1.167c-.262-.506-.392-1.104-.392-1.794 0-.674.13-1.264.392-1.773a2.897 2.897 0 011.103-1.189c.478-.284 1.037-.426 1.679-.426.432 0 .834.07 1.206.209.375.136.702.342.98.618.282.275.5.622.657 1.04.156.414.234.9.234 1.457v.498h-5.527V10.54h3.818a1.4 1.4 0 00-.17-.694 1.228 1.228 0 00-.473-.473 1.352 1.352 0 00-.695-.175c-.275 0-.52.064-.733.192-.21.125-.375.294-.494.507-.119.21-.181.445-.183.703v1.07c0 .323.059.603.179.84.122.235.294.417.515.545.222.127.485.191.789.191.201 0 .386-.028.554-.085a1.16 1.16 0 00.43-.255c.119-.114.21-.253.273-.418l1.679.11a2.3 2.3 0 01-.525 1.058 2.626 2.626 0 01-1.014.698c-.412.165-.888.248-1.427.248z" fill="#000"/><path d="M121.011 148.459V28.473c18.679 0 37.1 4.361 53.796 12.737l-53.796 107.25z" fill="#D1D1D6"/><path d="M133.011 142.46l53.796-107.25c49.459 24.813 75.536 80.233 63.126 134.16l-116.922-26.91z" fill="#FFB03F"/><path d="M121.011 148.459l116.923 26.91c-14.861 64.579-79.256 104.883-143.83 90.021-42.123-9.695-75.775-41.298-88.095-82.732l115.002-34.199z" fill="#ABABB9"/><path d="M121.011 148.459L6.008 182.658C-12.878 119.14 23.3 52.337 86.814 33.45a119.97 119.97 0 0134.197-4.977v119.986z" fill="#BABAC6"/><path d="M121.543 48.296v-.955l5.659-2.744v1.3l-4.176 1.904.038-.076v.183l-.038-.072 4.176 1.9v1.304l-5.659-2.744zm13.878 3.895c-.585 0-1.108-.101-1.568-.303a2.673 2.673 0 01-1.087-.84 2.23 2.23 0 01-.426-1.252h1.338c.017.258.104.483.26.673.159.188.367.332.623.435.255.102.539.153.852.153.344 0 .648-.06.912-.179a1.49 1.49 0 00.626-.498 1.27 1.27 0 00.226-.746c0-.293-.075-.55-.226-.772a1.472 1.472 0 00-.652-.528c-.284-.128-.628-.192-1.031-.192h-.737v-1.074h.737c.324 0 .608-.058.852-.174.247-.117.441-.279.58-.486.139-.21.209-.456.209-.737 0-.27-.062-.505-.184-.703a1.225 1.225 0 00-.511-.473 1.661 1.661 0 00-.776-.17 2.02 2.02 0 00-.797.157c-.244.102-.443.25-.596.443-.154.19-.236.419-.247.686h-1.274c.014-.471.153-.886.417-1.244.267-.358.62-.638 1.057-.84a3.44 3.44 0 011.457-.302c.56 0 1.043.11 1.449.328.409.216.725.504.946.865.225.36.336.756.333 1.184.003.49-.134.904-.409 1.245-.273.34-.637.57-1.091.686v.068c.579.088 1.028.318 1.346.69.321.373.48.834.478 1.385.002.48-.131.91-.401 1.292-.267.38-.632.68-1.095.899-.463.216-.993.324-1.59.324zm7.577 0a3.286 3.286 0 01-1.44-.307 2.616 2.616 0 01-1.015-.852 2.256 2.256 0 01-.404-1.236h1.278c.031.375.197.683.499.924.301.242.662.363 1.082.363.335 0 .632-.077.891-.23.261-.157.466-.371.613-.644.151-.273.226-.584.226-.933a1.94 1.94 0 00-.23-.95 1.695 1.695 0 00-.635-.657 1.793 1.793 0 00-.92-.243c-.265 0-.53.046-.797.137-.267.09-.483.21-.648.358l-1.206-.18.49-4.397h4.798v1.13h-3.703l-.277 2.441h.051c.171-.165.397-.303.678-.413.284-.111.588-.166.912-.166a2.672 2.672 0 012.403 1.414c.242.435.361.935.358 1.5a2.92 2.92 0 01-.383 1.513 2.778 2.778 0 01-1.066 1.048c-.451.253-.97.38-1.555.38zm13.605-6.9c.144 4.236 1.524 7.74 3.528 7.74.792 0 1.104-.456 1.248-2.076a2.26 2.26 0 01-.696-.396c-.048 1.2-.168 1.68-.504 1.68-1.344.012-2.664-3.012-2.748-6.948h-.828zm1.644.432c.588.276 1.308.708 1.644 1.044l.48-.492c-.36-.324-1.08-.744-1.668-.996l-.456.444zm1.236 2.1a7.837 7.837 0 01-3.876 4.5c.18.144.492.468.612.636 1.824-1.068 3.288-2.724 4.08-4.944l-.816-.192zm-6.396 1.32c-.204.648-.54 1.284-.984 1.74.168.084.456.276.576.372.444-.48.852-1.224 1.08-1.98l-.672-.132zm-1.296-2.628v.768h9.324v-.768h-9.324zm.9 1.464v.66h3.828v-.66h-3.828zm-2.076-3.276v.768h10.572v-.768h-10.572zm5.46-1.68v.708h3.996v-.708h-3.996zm-4.752 3.492v2.016c0 1.212-.108 2.88-1.044 4.092.204.084.588.3.744.444.96-1.284 1.14-3.18 1.14-4.524v-2.028h-.84zm4.248-4.512v3.06h.876v-3.06h-.876zm-3.024.54v2.568h.852v-2.568h-.852zm1.764 5.82v2.34c0 .096-.036.12-.12.12a5.649 5.649 0 01-.66 0c.096.156.228.408.276.588.432 0 .732-.012.972-.12.228-.096.288-.228.288-.588v-2.34h-.756zm1.692.876c-.384 1.488-1.692 2.676-3.564 3.252.132.132.312.396.396.552 2.016-.636 3.396-1.98 3.9-3.684l-.732-.12zm-26.994 21.832l3.81-7.534v-.064h-4.407v-1.129h5.77v1.168l-3.797 7.56h-1.376zm6.012.081a.826.826 0 01-.601-.247.824.824 0 01-.252-.605c0-.233.084-.432.252-.597a.82.82 0 01.601-.251.82.82 0 01.601.251.808.808 0 01.251.597c0 .156-.04.3-.119.43a.883.883 0 01-.307.307.813.813 0 01-.426.115zm2.358-1.785V68.3l3.772-5.957h.839v1.568h-.532l-2.698 4.27v.068h5.169v1.117h-6.55zm4.138 1.704v-2.028l.009-.486v-6.213h1.248v8.727h-1.257zm8.453-1.636v-.46c0-.33.068-.631.204-.904.139-.275.341-.495.605-.66.267-.168.59-.252.968-.252.386 0 .71.083.971.247.262.165.459.385.593.661.136.276.204.578.204.908v.46c0 .33-.068.632-.204.908a1.645 1.645 0 01-.601.66c-.262.165-.583.247-.963.247-.384 0-.708-.082-.972-.247a1.645 1.645 0 01-.601-.66 2.023 2.023 0 01-.204-.908zm.992-.46v.46c0 .244.059.466.175.665.117.199.32.298.61.298.287 0 .487-.1.6-.298.114-.2.171-.42.171-.665v-.46a1.35 1.35 0 00-.166-.665c-.108-.199-.31-.298-.605-.298-.285 0-.486.1-.606.298a1.27 1.27 0 00-.179.665zm-5.382-4.534v-.46c0-.33.069-.633.205-.908.139-.276.341-.496.605-.66.267-.166.59-.248.967-.248.387 0 .711.082.972.247.261.165.459.385.592.66.134.276.201.579.201.908v.46c0 .33-.069.633-.205.908a1.6 1.6 0 01-.597.66c-.261.166-.582.248-.963.248-.386 0-.711-.082-.975-.247a1.642 1.642 0 01-.597-.66 2.023 2.023 0 01-.205-.908zm.998-.46v.46c0 .244.056.465.17.664.116.2.32.299.609.299.284 0 .483-.1.597-.299.116-.199.175-.42.175-.664v-.46c0-.245-.056-.467-.167-.665-.11-.2-.312-.299-.605-.299-.284 0-.485.1-.605.299a1.29 1.29 0 00-.174.664zm-.593 7.09l6-8.727h1.019l-6 8.727h-1.019zm23.86 42.754c-.848 0-1.604-.146-2.267-.438-.659-.295-1.18-.701-1.562-1.216a3.05 3.05 0 01-.585-1.795h2.477c.015.284.108.534.278.75.175.212.406.377.693.494.288.117.612.176.972.176.375 0 .707-.066.994-.199.288-.132.514-.316.677-.551.162-.235.244-.505.244-.812 0-.311-.087-.586-.262-.824a1.659 1.659 0 00-.738-.568c-.318-.137-.697-.205-1.137-.205h-1.085v-1.807h1.085c.372 0 .699-.064.983-.193.288-.129.512-.307.671-.534.159-.231.239-.5.239-.807a1.399 1.399 0 00-.79-1.29 1.884 1.884 0 00-.864-.187c-.333 0-.638.061-.915.182a1.597 1.597 0 00-.664.505c-.167.22-.256.478-.267.773h-2.358c.011-.67.202-1.261.573-1.773.372-.511.872-.911 1.5-1.198.633-.292 1.347-.438 2.142-.438.804 0 1.506.146 2.108.438.603.291 1.071.685 1.404 1.181.337.493.504 1.046.5 1.659.004.652-.199 1.196-.608 1.631-.405.436-.934.712-1.585.83v.091c.856.109 1.507.407 1.954.892.451.481.674 1.083.671 1.806a2.85 2.85 0 01-.574 1.768c-.383.515-.911.92-1.585 1.215-.675.296-1.447.444-2.319.444zm10.496 0c-.803 0-1.519-.148-2.148-.444a3.728 3.728 0 01-1.488-1.221 3.133 3.133 0 01-.574-1.784h2.386c.027.451.216.816.568 1.096.353.281.771.421 1.256.421.386 0 .727-.085 1.023-.256.299-.174.532-.415.699-.721.17-.311.255-.667.255-1.069 0-.409-.087-.769-.261-1.079a1.84 1.84 0 00-.71-.727 2.086 2.086 0 00-1.04-.268 2.47 2.47 0 00-.994.211c-.318.14-.567.331-.745.574l-2.187-.392.551-6.137h7.114v2.012h-5.086l-.301 2.914h.068c.205-.288.514-.526.927-.716a3.293 3.293 0 011.386-.284c.701 0 1.326.165 1.875.495.549.329.983.782 1.301 1.358.318.572.476 1.231.472 1.977.004.784-.178 1.481-.546 2.091a3.847 3.847 0 01-1.528 1.432c-.652.344-1.409.517-2.273.517zm11.523-6.938v1.921h-5.307v-1.921h5.307zm1.863 4.733v-1.937l4.858-7.654h1.671v2.682h-.989l-3.062 4.847v.09h6.903v1.972h-9.381zm5.586 2.046v-2.637l.045-.858v-8.142h2.307v11.637h-2.352zm5.258-2.046v-1.937l4.858-7.654h1.671v2.682h-.989l-3.062 4.847v.09h6.903v1.972h-9.381zm5.585 2.046v-2.637l.046-.858v-8.142h2.307v11.637h-2.353zm16.963-9.04c.192 5.536 1.84 10.464 4.64 10.464 1.28 0 1.84-.56 2.096-2.896a4.416 4.416 0 01-1.408-.832c-.064 1.472-.208 2.08-.576 2.08-1.44 0-2.928-4.112-3.008-8.816h-1.744zm2.496.656c.688.368 1.536.928 1.936 1.328l.992-.944c-.432-.4-1.296-.912-1.984-1.248l-.944.864zm1.2 2.688c-.816 2.608-2.56 4.656-4.896 5.824.384.304 1.04.976 1.296 1.312 2.4-1.424 4.304-3.728 5.344-6.752l-1.744-.384zm-8.256 1.904c-.24.816-.688 1.616-1.312 2.176.336.176.88.544 1.136.752.64-.64 1.216-1.632 1.52-2.656l-1.344-.272zm-1.504-3.888v1.568h12.368v-1.568h-12.368zm1.264 2.16v1.312h4.832v-1.312h-4.832zm-3.152-4.736v1.584h14.352v-1.584h-14.352zm7.568-2.208v1.408h5.424v-1.408h-5.424zm-6.672 4.784v2.768c0 1.632-.112 3.888-1.344 5.488.432.176 1.248.64 1.584.928 1.312-1.744 1.536-4.464 1.536-6.384v-2.8h-1.776zm5.6-5.92v4.144h1.872v-4.144h-1.872zm-4.096.72v3.456h1.792v-3.456h-1.792zm2.48 8.224v2.816c0 .128-.048.16-.16.16s-.448 0-.752-.016c.16.288.432.768.544 1.12.576 0 1.024-.016 1.424-.208.384-.176.48-.416.48-1.04v-2.832h-1.536zm2.272.96c-.496 1.888-2.176 3.376-4.656 4.064.256.256.64.784.816 1.088 2.704-.832 4.576-2.624 5.312-4.928l-1.472-.224zm-43.511 22.696v-1.33l3.107-2.876c.264-.256.486-.486.665-.691a2.61 2.61 0 00.413-.601c.094-.198.141-.413.141-.643a1.21 1.21 0 00-.175-.661 1.147 1.147 0 00-.477-.43 1.502 1.502 0 00-.686-.153c-.267 0-.5.054-.699.162a1.107 1.107 0 00-.46.464 1.507 1.507 0 00-.162.72h-1.752c0-.571.129-1.067.388-1.487.259-.42.621-.746 1.087-.976.466-.23 1.003-.345 1.61-.345.625 0 1.169.111 1.633.332.465.219.828.523 1.086.912.259.389.388.835.388 1.338 0 .33-.065.655-.196.976-.128.321-.357.678-.686 1.07-.33.389-.794.856-1.394 1.402l-1.274 1.248v.06h3.665v1.509h-6.222zm11.356-8.728v8.728h-1.845v-6.976h-.051l-1.999 1.253v-1.637l2.161-1.368h1.734zm2.684 8.838a.995.995 0 01-.725-.298.995.995 0 01-.298-.724c0-.279.099-.517.298-.716a.996.996 0 01.725-.299c.272 0 .511.1.715.299a.961.961 0 01.307.716.957.957 0 01-.145.515 1.094 1.094 0 01-.37.371.978.978 0 01-.507.136zm2.496-.11v-1.33l3.106-2.876c.264-.256.486-.486.665-.691a2.58 2.58 0 00.413-.601c.094-.198.141-.413.141-.643a1.21 1.21 0 00-.175-.661 1.141 1.141 0 00-.477-.43 1.499 1.499 0 00-.686-.153c-.267 0-.5.054-.699.162a1.107 1.107 0 00-.46.464 1.507 1.507 0 00-.162.72h-1.752c0-.571.13-1.067.388-1.487.259-.42.621-.746 1.087-.976.466-.23 1.003-.345 1.611-.345.625 0 1.169.111 1.632.332.466.219.828.523 1.086.912.259.389.388.835.388 1.338 0 .33-.065.655-.196.976-.128.321-.356.678-.686 1.07-.329.389-.794.856-1.393 1.402l-1.275 1.248v.06h3.665v1.509h-6.221zm12.335-1.637v-.46c0-.349.074-.671.222-.963.15-.296.368-.531.652-.708.287-.178.636-.268 1.048-.268.418 0 .769.088 1.053.264.287.176.502.412.647.708.148.292.222.615.222.967v.46c0 .35-.074.672-.222.967a1.725 1.725 0 01-.652.704c-.287.179-.636.268-1.048.268-.418 0-.768-.089-1.052-.268a1.735 1.735 0 01-.648-.704 2.125 2.125 0 01-.222-.967zm1.24-.46v.46c0 .202.049.392.145.571.1.179.279.269.537.269.259 0 .435-.088.528-.265a1.17 1.17 0 00.145-.575v-.46c0-.207-.045-.401-.136-.58-.091-.179-.27-.268-.537-.268-.256 0-.433.089-.533.268a1.181 1.181 0 00-.149.58zm-5.718-4.534v-.46c0-.353.075-.675.225-.968.151-.295.368-.531.652-.707.287-.176.634-.264 1.04-.264.421 0 .773.088 1.057.264.284.176.5.412.648.707.147.293.221.615.221.968v.46c0 .352-.075.675-.226.967a1.716 1.716 0 01-.652.703c-.284.174-.633.26-1.048.26-.415 0-.766-.088-1.052-.264a1.764 1.764 0 01-.648-.703 2.14 2.14 0 01-.217-.963zm1.248-.46v.46c0 .207.048.399.145.575.099.176.274.264.524.264.261 0 .439-.088.533-.264.096-.176.145-.368.145-.575v-.46c0-.208-.046-.401-.137-.58-.091-.179-.271-.268-.541-.268-.253 0-.427.091-.524.272a1.207 1.207 0 00-.145.576zm-.686 7.091l6-8.728h1.116l-6 8.728h-1.116zM94.47 198.584v-1.066l3.77-5.957h.84v1.568h-.533l-2.697 4.27v.068h5.169v1.117h-6.55zm4.137 1.704v-2.028l.008-.486v-6.213h1.25v8.727h-1.258zm6.778.119a3.3 3.3 0 01-1.441-.306 2.625 2.625 0 01-1.014-.853 2.244 2.244 0 01-.405-1.235h1.279c.031.375.197.683.498.924.301.242.662.362 1.083.362.335 0 .632-.076.89-.23.262-.156.466-.37.614-.643.151-.273.226-.584.226-.933 0-.355-.077-.672-.23-.951a1.704 1.704 0 00-.635-.656 1.797 1.797 0 00-.921-.243c-.264 0-.53.046-.797.137-.267.09-.483.21-.647.358l-1.206-.179.49-4.398h4.798v1.129h-3.703l-.277 2.442h.051c.171-.165.396-.303.678-.414.284-.11.588-.166.912-.166a2.671 2.671 0 012.403 1.415c.242.435.361.935.358 1.5a2.912 2.912 0 01-.384 1.513c-.255.443-.61.792-1.065 1.048-.452.253-.97.379-1.555.379zm8.434-5.037v1.108h-3.869v-1.108h3.869zm4.562 5.037a3.3 3.3 0 01-1.441-.306 2.625 2.625 0 01-1.014-.853 2.244 2.244 0 01-.405-1.235h1.279c.031.375.197.683.498.924.302.242.662.362 1.083.362.335 0 .632-.076.89-.23.262-.156.466-.37.614-.643.151-.273.226-.584.226-.933 0-.355-.077-.672-.23-.951a1.704 1.704 0 00-.635-.656 1.797 1.797 0 00-.921-.243c-.264 0-.529.046-.796.137-.268.09-.483.21-.648.358l-1.206-.179.49-4.398h4.798v1.129h-3.703l-.277 2.442h.051c.171-.165.397-.303.678-.414.284-.11.588-.166.912-.166a2.671 2.671 0 012.403 1.415c.242.435.361.935.358 1.5a2.92 2.92 0 01-.383 1.513 2.781 2.781 0 01-1.066 1.048c-.451.253-.97.379-1.555.379zm4.377-1.823v-1.066l3.772-5.957h.839v1.568h-.533l-2.697 4.27v.068h5.169v1.117h-6.55zm4.138 1.704v-2.028l.009-.486v-6.213h1.248v8.727h-1.257zm12.941-6.78c.144 4.236 1.524 7.74 3.528 7.74.792 0 1.104-.456 1.248-2.076a2.26 2.26 0 01-.696-.396c-.048 1.2-.168 1.68-.504 1.68-1.344.012-2.664-3.012-2.748-6.948h-.828zm1.644.432c.588.276 1.308.708 1.644 1.044l.48-.492c-.36-.324-1.08-.744-1.668-.996l-.456.444zm1.236 2.1a7.837 7.837 0 01-3.876 4.5c.18.144.492.468.612.636 1.824-1.068 3.288-2.724 4.08-4.944l-.816-.192zm-6.396 1.32c-.204.648-.54 1.284-.984 1.74.168.084.456.276.576.372.444-.48.852-1.224 1.08-1.98l-.672-.132zm-1.296-2.628v.768h9.324v-.768h-9.324zm.9 1.464v.66h3.828v-.66h-3.828zm-2.076-3.276v.768h10.572v-.768h-10.572zm5.46-1.68v.708h3.996v-.708h-3.996zm-4.752 3.492v2.016c0 1.212-.108 2.88-1.044 4.092.204.084.588.3.744.444.96-1.284 1.14-3.18 1.14-4.524v-2.028h-.84zm4.248-4.512v3.06h.876v-3.06h-.876zm-3.024.54v2.568h.852v-2.568h-.852zm1.764 5.82v2.34c0 .096-.036.12-.12.12a5.649 5.649 0 01-.66 0c.096.156.228.408.276.588.432 0 .732-.012.972-.12.228-.096.288-.228.288-.588v-2.34h-.756zm1.692.876c-.384 1.488-1.692 2.676-3.564 3.252.132.132.312.396.396.552 2.016-.636 3.396-1.98 3.9-3.684l-.732-.12zm-35.768 20.128v-1.066l3.772-5.957h.839v1.568h-.533l-2.697 4.27v.068h5.169v1.117h-6.55zm4.138 1.704v-2.028l.009-.486v-6.213h1.248v8.727h-1.257zm7.091-8.727v8.727h-1.321v-7.406h-.051l-2.088 1.363v-1.261l2.177-1.423h1.283zm2.713 8.808a.823.823 0 01-.6-.247.824.824 0 01-.252-.605c0-.233.084-.432.252-.597a.819.819 0 01.6-.251c.233 0 .434.084.601.251a.806.806 0 01.252.597.876.876 0 01-.427.737.805.805 0 01-.426.115zm5.198.038c-.611 0-1.15-.105-1.619-.315-.466-.21-.831-.5-1.095-.869a2.087 2.087 0 01-.392-1.262 2.225 2.225 0 01.86-1.798c.267-.21.566-.344.895-.4v-.052a1.767 1.767 0 01-1.044-.698 2.054 2.054 0 01-.388-1.245 2.051 2.051 0 01.354-1.193 2.48 2.48 0 01.993-.831 3.277 3.277 0 011.436-.303 3.2 3.2 0 011.423.307c.421.202.752.479.993.831.242.35.364.746.367 1.189a2.078 2.078 0 01-.401 1.245c-.264.36-.608.593-1.031.698v.052c.327.056.621.19.882.4.264.207.475.467.631.78.159.31.24.649.243 1.018a2.142 2.142 0 01-.401 1.262c-.264.369-.631.659-1.099.869-.466.21-1.002.315-1.607.315zm0-1.078c.361 0 .673-.059.938-.179a1.45 1.45 0 00.613-.507c.145-.219.219-.474.222-.767a1.44 1.44 0 00-.239-.805 1.595 1.595 0 00-.626-.55 1.992 1.992 0 00-.908-.2c-.344 0-.649.067-.916.2a1.596 1.596 0 00-.631.55 1.414 1.414 0 00-.226.805c-.002.293.067.548.209.767.145.216.351.385.618.507.267.12.583.179.946.179zm0-4.061c.29 0 .547-.058.771-.175a1.32 1.32 0 00.529-.485c.131-.208.197-.451.2-.729a1.35 1.35 0 00-.196-.716 1.252 1.252 0 00-.524-.473 1.697 1.697 0 00-.78-.17c-.301 0-.565.056-.792.17-.225.111-.4.269-.525.473a1.317 1.317 0 00-.183.716c-.003.278.06.521.188.729.127.207.304.369.528.485.227.117.489.175.784.175zm9.189 3.384v-.461c0-.329.068-.63.204-.903a1.63 1.63 0 01.605-.66c.267-.168.59-.252.968-.252.386 0 .71.083.971.247.262.165.459.385.593.661.136.275.204.578.204.907v.461c0 .329-.068.632-.204.907a1.647 1.647 0 01-.601.661c-.262.165-.583.247-.963.247-.384 0-.708-.082-.972-.247a1.647 1.647 0 01-.601-.661 2.02 2.02 0 01-.204-.907zm.993-.461v.461c0 .244.058.466.174.664.117.199.32.299.61.299.287 0 .487-.1.601-.299.113-.198.17-.42.17-.664v-.461c0-.244-.055-.465-.166-.664-.108-.199-.31-.299-.605-.299-.284 0-.486.1-.605.299a1.26 1.26 0 00-.179.664zm-5.382-4.534v-.46c0-.329.068-.632.204-.907.139-.276.341-.496.605-.661.267-.165.59-.247.968-.247.386 0 .71.082.971.247.261.165.459.385.592.661.134.275.201.578.201.907v.46c0 .33-.068.633-.205.908a1.607 1.607 0 01-.596.661c-.262.164-.583.247-.963.247-.387 0-.712-.083-.976-.247a1.644 1.644 0 01-.597-.661 2.02 2.02 0 01-.204-.908zm.997-.46v.46c0 .245.056.466.17.665.117.199.32.298.61.298.284 0 .482-.099.596-.298.117-.199.175-.42.175-.665v-.46c0-.244-.056-.466-.166-.665-.111-.198-.313-.298-.605-.298-.285 0-.486.1-.606.298a1.297 1.297 0 00-.174.665zm-.593 7.091l6-8.727h1.019l-6 8.727h-1.019zM54.045 101.724l-5.659 2.744v-1.304l4.176-1.9-.042.072v-.183l.042.077-4.176-1.905v-1.3l5.66 2.744v.955zm8.062 3.895a3.28 3.28 0 01-1.44-.307 2.613 2.613 0 01-1.015-.852 2.252 2.252 0 01-.404-1.236h1.278c.031.375.197.683.498.925.302.241.662.362 1.083.362.335 0 .632-.077.89-.23a1.65 1.65 0 00.614-.644c.15-.272.226-.584.226-.933 0-.355-.077-.672-.23-.95a1.693 1.693 0 00-.635-.656 1.776 1.776 0 00-.92-.243c-.265 0-.53.045-.797.136a1.85 1.85 0 00-.648.358l-1.206-.179.49-4.398h4.798v1.13h-3.703l-.277 2.441h.051c.17-.165.397-.302.678-.413.284-.11.588-.166.912-.166a2.671 2.671 0 012.403 1.414c.242.435.361.935.358 1.5a2.915 2.915 0 01-.383 1.513 2.784 2.784 0 01-1.066 1.049c-.451.252-.97.379-1.555.379zm7.441 0a3.28 3.28 0 01-1.44-.307 2.612 2.612 0 01-1.014-.852 2.252 2.252 0 01-.405-1.236h1.278c.032.375.198.683.499.925.301.241.662.362 1.082.362.335 0 .632-.077.89-.23a1.65 1.65 0 00.615-.644c.15-.272.225-.584.225-.933 0-.355-.076-.672-.23-.95a1.694 1.694 0 00-.635-.656 1.777 1.777 0 00-.92-.243c-.264 0-.53.045-.797.136a1.85 1.85 0 00-.648.358l-1.206-.179.49-4.398h4.799v1.13h-3.703l-.277 2.441h.05c.171-.165.397-.302.678-.413.284-.11.588-.166.912-.166a2.67 2.67 0 012.404 1.414c.241.435.36.935.358 1.5a2.915 2.915 0 01-.384 1.513 2.78 2.78 0 01-1.065 1.049c-.452.252-.97.379-1.556.379zm13.605-6.9c.144 4.237 1.524 7.741 3.528 7.741.792 0 1.104-.456 1.248-2.076a2.26 2.26 0 01-.696-.396c-.048 1.2-.168 1.68-.504 1.68-1.344.012-2.664-3.012-2.748-6.949h-.828zm1.644.433c.588.275 1.308.707 1.644 1.044l.48-.492c-.36-.325-1.08-.744-1.668-.996l-.456.444zm1.236 2.1a7.837 7.837 0 01-3.876 4.5c.18.144.492.468.612.636 1.824-1.068 3.288-2.724 4.08-4.944l-.816-.192zm-6.396 1.32c-.204.648-.54 1.284-.984 1.74.168.084.456.276.576.372.444-.48.852-1.224 1.08-1.98l-.672-.132zm-1.296-2.629v.769h9.324v-.769h-9.324zm.9 1.465v.66h3.828v-.66h-3.828zm-2.076-3.276v.767h10.572v-.767H77.165zm5.46-1.68v.707h3.996v-.708h-3.996zm-4.752 3.492v2.016c0 1.212-.108 2.88-1.044 4.092.204.084.588.3.744.444.96-1.284 1.14-3.18 1.14-4.524v-2.028h-.84zm4.248-4.513v3.06h.876v-3.06h-.876zm-3.024.54v2.569h.852v-2.57h-.852zm1.764 5.821v2.34c0 .096-.036.12-.12.12a5.649 5.649 0 01-.66 0c.096.156.228.408.276.588.432 0 .732-.012.972-.12.228-.096.288-.228.288-.588v-2.34h-.756zm1.692.876c-.384 1.488-1.692 2.676-3.564 3.252.132.132.312.396.396.552 2.016-.636 3.396-1.98 3.9-3.684l-.732-.12zM54.058 124.5v-.955l2.953-3.06c.316-.332.576-.623.78-.873.208-.253.362-.493.465-.72.102-.228.153-.469.153-.725 0-.29-.068-.54-.204-.75a1.34 1.34 0 00-.559-.49 1.782 1.782 0 00-.797-.175c-.312 0-.585.064-.818.192a1.314 1.314 0 00-.537.541 1.706 1.706 0 00-.187.818H54.05c0-.531.122-.995.366-1.393a2.49 2.49 0 011.006-.925 3.11 3.11 0 011.453-.332c.548 0 1.031.109 1.449.328.42.216.748.511.984.886.236.373.354.793.354 1.262 0 .324-.061.64-.183.95-.12.31-.328.655-.627 1.036-.298.377-.713.836-1.244 1.376l-1.734 1.815v.064h3.929v1.13h-5.745zm10.262-8.847c.389.003.772.074 1.15.213a2.71 2.71 0 011.023.682c.307.315.551.741.733 1.278.184.534.278 1.199.281 1.995 0 .764-.077 1.444-.23 2.041-.153.593-.374 1.095-.66 1.504a2.89 2.89 0 01-1.036.933 2.91 2.91 0 01-1.372.32c-.52 0-.982-.102-1.385-.307a2.64 2.64 0 01-.984-.848 2.804 2.804 0 01-.474-1.253h1.3c.085.375.259.679.52.912.264.23.605.345 1.023.345.639 0 1.138-.278 1.495-.835.359-.56.539-1.341.542-2.344h-.068a2.346 2.346 0 01-.554.631 2.506 2.506 0 01-.738.409 2.588 2.588 0 01-.873.145c-.503 0-.96-.124-1.372-.371a2.73 2.73 0 01-.985-1.018c-.244-.432-.366-.925-.366-1.479 0-.551.125-1.051.375-1.5a2.794 2.794 0 011.057-1.065c.454-.265.987-.394 1.598-.388zm.004 1.108c-.332 0-.632.082-.9.247a1.748 1.748 0 00-.626.661c-.153.275-.23.582-.23.92 0 .338.074.645.222.92.15.273.355.491.613.652.262.16.56.239.895.239.25 0 .483-.048.7-.145.215-.096.404-.23.566-.4.162-.174.288-.37.38-.588.09-.219.135-.449.135-.691 0-.321-.076-.619-.23-.895a1.79 1.79 0 00-.622-.664 1.626 1.626 0 00-.903-.256zm5.263 7.819a.826.826 0 01-.601-.247.823.823 0 01-.252-.605c0-.233.084-.432.252-.596a.819.819 0 01.6-.252.82.82 0 01.602.252.804.804 0 01.25.596.82.82 0 01-.118.431.88.88 0 01-.307.306.81.81 0 01-.426.115zm5.272.039a3.537 3.537 0 01-1.15-.213 2.707 2.707 0 01-1.023-.682c-.307-.318-.553-.746-.738-1.283-.181-.537-.272-1.207-.272-2.011 0-.761.075-1.438.226-2.028.153-.591.373-1.09.66-1.496.287-.409.634-.72 1.04-.933a2.89 2.89 0 011.368-.32c.52 0 .981.102 1.385.307a2.6 2.6 0 01.98.848c.253.361.413.771.481 1.231h-1.3a1.68 1.68 0 00-.523-.89c-.262-.23-.603-.346-1.023-.346-.64 0-1.138.279-1.496.836-.355.557-.534 1.331-.537 2.322h.064c.15-.247.335-.457.554-.631a2.599 2.599 0 011.61-.549c.506 0 .964.123 1.373.371.412.244.74.582.984 1.014.245.432.367.926.367 1.483a3.04 3.04 0 01-.38 1.512 2.78 2.78 0 01-1.056 1.074c-.455.262-.986.39-1.594.384zm-.004-1.108c.335 0 .635-.083.899-.247.264-.165.473-.387.626-.665.154-.278.23-.59.23-.933a1.88 1.88 0 00-.225-.916 1.705 1.705 0 00-.614-.657 1.634 1.634 0 00-.886-.243 1.711 1.711 0 00-1.266.546c-.162.17-.29.366-.384.588-.09.219-.136.45-.136.694 0 .327.075.63.226.908.153.279.362.503.626.673.267.168.569.252.904.252zm9.141-.648v-.46c0-.33.069-.631.205-.903.14-.276.34-.496.605-.661.267-.168.59-.251.967-.251.387 0 .71.082.972.247.261.165.459.385.592.66.137.276.205.578.205.908v.46c0 .33-.068.632-.205.908a1.632 1.632 0 01-.6.66c-.262.165-.583.247-.964.247-.383 0-.707-.082-.971-.247a1.632 1.632 0 01-.601-.66 2.019 2.019 0 01-.205-.908zm.993-.46v.46c0 .244.059.466.175.665.117.199.32.298.61.298.286 0 .487-.099.6-.298.114-.199.17-.421.17-.665v-.46c0-.244-.055-.466-.165-.665-.108-.199-.31-.298-.606-.298-.284 0-.485.099-.605.298a1.27 1.27 0 00-.179.665zm-5.382-4.534v-.46c0-.33.068-.633.205-.908.139-.276.34-.496.605-.661.267-.164.59-.247.967-.247.387 0 .71.083.972.247.261.165.459.385.592.661.134.275.2.578.2.908v.46c0 .329-.068.632-.204.908a1.614 1.614 0 01-.597.66c-.261.165-.582.247-.963.247-.386 0-.711-.082-.976-.247a1.654 1.654 0 01-.596-.66 2.022 2.022 0 01-.205-.908zm.997-.46v.46c0 .244.057.466.17.665.117.198.32.298.61.298.284 0 .483-.1.597-.298.116-.199.175-.421.175-.665v-.46a1.34 1.34 0 00-.167-.665c-.11-.199-.312-.298-.605-.298-.284 0-.486.099-.605.298a1.29 1.29 0 00-.175.665zm-.592 7.091l6-8.728h1.019l-6 8.728h-1.019z" fill="#1C1C1E"/><path d="M337.708 135.18a1 1 0 000-1.414l-6.364-6.364a1 1 0 10-1.415 1.414l5.657 5.657-5.657 5.657a1 1 0 001.415 1.414l6.364-6.364zm-48.708.293h48v-2h-48v2z" fill="#868694"/><path d="M474.048 14.473h-1.977l3.013-8.728h2.378l3.008 8.728h-1.977l-2.186-6.733h-.068l-2.191 6.733zm-.123-3.43h4.67v1.44h-4.67v-1.44zm10.964-3.116v1.364h-4.039V7.927h4.039zm-3.115 6.546V7.454c0-.474.093-.868.277-1.18.188-.313.443-.547.767-.703a2.51 2.51 0 011.104-.235c.278 0 .533.022.763.064.233.043.406.081.52.115l-.324 1.364a2.267 2.267 0 00-.264-.064 1.66 1.66 0 00-.316-.03c-.267 0-.453.063-.558.188-.105.122-.158.294-.158.515v6.985h-1.811zm7.706-6.546v1.364h-3.942V7.927h3.942zm-3.047-1.568h1.815v6.102c0 .168.026.299.077.392a.422.422 0 00.213.192.882.882 0 00.324.056c.085 0 .17-.008.256-.022l.196-.038.285 1.35a5.184 5.184 0 01-.383.099c-.165.04-.365.064-.601.072-.438.017-.821-.041-1.151-.175a1.61 1.61 0 01-.763-.622c-.181-.281-.271-.636-.268-1.065V6.359zm7.142 8.241c-.673 0-1.253-.136-1.739-.409a2.799 2.799 0 01-1.116-1.167c-.261-.506-.392-1.104-.392-1.794 0-.674.131-1.264.392-1.773a2.893 2.893 0 011.104-1.189c.477-.284 1.037-.426 1.679-.426.431 0 .833.07 1.206.209.375.136.701.342.98.618.281.275.5.622.656 1.04.156.414.234.9.234 1.457v.498h-5.527V10.54h3.819c0-.26-.057-.492-.171-.694a1.221 1.221 0 00-.473-.473 1.349 1.349 0 00-.695-.175 1.4 1.4 0 00-.733.192c-.21.125-.375.294-.494.507-.119.21-.18.445-.183.703v1.07c0 .323.06.603.179.84.122.235.294.417.516.545.221.127.484.191.788.191.202 0 .386-.028.554-.085a1.16 1.16 0 00.43-.255c.12-.114.21-.253.273-.418l1.679.11c-.085.404-.26.756-.524 1.058-.262.298-.6.53-1.014.698-.412.165-.888.248-1.428.248zm4.189-.127V7.927h1.76V9.07h.068c.119-.406.32-.713.601-.92a1.58 1.58 0 01.972-.316 2.77 2.77 0 01.571.064v1.611a2.412 2.412 0 00-.354-.068 3.177 3.177 0 00-.413-.03 1.45 1.45 0 00-.716.175 1.283 1.283 0 00-.495.477c-.119.205-.179.44-.179.708v3.703h-1.815z" fill="#1C1C1E"/><path d="M487.274 154.194H373c0-20.466 5.496-40.555 15.914-58.17l98.36 58.17z" fill="#D1D1D6"/><path d="M487.275 142.766l-98.36-58.171c32.126-54.323 102.207-72.317 156.53-40.19a114.274 114.274 0 0153.656 74.836l-111.826 23.525z" fill="#FFB03F"/><path d="M487.274 154.195L599.1 130.67c12.993 61.76-26.541 122.359-88.301 135.352-41.042 8.634-83.515-5.908-110.653-37.885l87.128-73.942z" fill="#ABABB9"/><path d="M487.274 154.194l-87.127 73.942A114.273 114.273 0 01373 154.194h114.274z" fill="#BABAC6"/><path d="M391.441 119.293v-.955l5.659-2.744v1.3l-4.176 1.904.039-.076v.183l-.039-.072 4.176 1.9v1.304l-5.659-2.744zm13.878 3.895c-.585 0-1.107-.101-1.568-.303a2.663 2.663 0 01-1.086-.839 2.218 2.218 0 01-.426-1.253h1.338c.017.258.103.483.26.673.159.188.366.332.622.435.255.102.539.153.852.153.344 0 .648-.06.912-.179.267-.119.476-.285.626-.498a1.27 1.27 0 00.226-.746c0-.293-.075-.55-.226-.771a1.465 1.465 0 00-.652-.529c-.284-.128-.628-.192-1.031-.192h-.737v-1.073h.737c.324 0 .608-.059.852-.175.248-.117.441-.279.58-.486.139-.21.209-.456.209-.737 0-.27-.061-.504-.184-.703a1.22 1.22 0 00-.511-.473 1.656 1.656 0 00-.775-.171c-.285 0-.55.053-.797.158-.245.102-.444.25-.597.443-.153.19-.236.419-.247.686h-1.274c.014-.471.153-.886.417-1.244.267-.358.62-.638 1.057-.84a3.452 3.452 0 011.458-.302c.559 0 1.042.109 1.448.328.41.216.725.504.946.865.225.361.336.756.333 1.185.003.488-.134.903-.409 1.244-.273.341-.637.57-1.091.686v.068c.579.088 1.028.318 1.346.691.321.372.481.833.478 1.384.003.481-.131.911-.401 1.292-.267.38-.632.68-1.095.899-.463.216-.993.324-1.59.324zm7.577 0a3.293 3.293 0 01-1.44-.307 2.624 2.624 0 01-1.014-.852 2.25 2.25 0 01-.405-1.236h1.278c.031.375.198.683.499.925.301.241.662.362 1.082.362.335 0 .632-.077.891-.23.261-.157.466-.371.613-.644.151-.273.226-.584.226-.933 0-.355-.076-.672-.23-.95a1.693 1.693 0 00-.635-.657 1.796 1.796 0 00-.92-.243c-.264 0-.53.046-.797.137-.267.091-.483.21-.648.358l-1.206-.179.49-4.398h4.799v1.129h-3.704l-.277 2.442h.052a2.03 2.03 0 01.677-.413c.284-.111.588-.166.912-.166a2.67 2.67 0 012.404 1.414c.241.435.36.935.357 1.5a2.918 2.918 0 01-.383 1.513 2.778 2.778 0 01-1.065 1.048c-.452.253-.971.38-1.556.38zm13.605-6.9c.144 4.236 1.524 7.74 3.528 7.74.792 0 1.104-.456 1.248-2.076a2.26 2.26 0 01-.696-.396c-.048 1.2-.168 1.68-.504 1.68-1.344.012-2.664-3.012-2.748-6.948h-.828zm1.644.432c.588.276 1.308.708 1.644 1.044l.48-.492c-.36-.324-1.08-.744-1.668-.996l-.456.444zm1.236 2.1a7.837 7.837 0 01-3.876 4.5c.18.144.492.468.612.636 1.824-1.068 3.288-2.724 4.08-4.944l-.816-.192zm-6.396 1.32c-.204.648-.54 1.284-.984 1.74.168.084.456.276.576.372.444-.48.852-1.224 1.08-1.98l-.672-.132zm-1.296-2.628v.768h9.324v-.768h-9.324zm.9 1.464v.66h3.828v-.66h-3.828zm-2.076-3.276v.768h10.572v-.768h-10.572zm5.46-1.68v.708h3.996v-.708h-3.996zm-4.752 3.492v2.016c0 1.212-.108 2.88-1.044 4.092.204.084.588.3.744.444.96-1.284 1.14-3.18 1.14-4.524v-2.028h-.84zm4.248-4.512v3.06h.876V113h-.876zm-3.024.54v2.568h.852v-2.568h-.852zm1.764 5.82v2.34c0 .096-.036.12-.12.12a5.649 5.649 0 01-.66 0c.096.156.228.408.276.588.432 0 .732-.012.972-.12.228-.096.288-.228.288-.588v-2.34h-.756zm1.692.876c-.384 1.488-1.692 2.676-3.564 3.252.132.132.312.396.396.552 2.016-.636 3.396-1.98 3.9-3.684l-.732-.12zm-24.839 21.952c-.611 0-1.151-.105-1.619-.316-.466-.21-.831-.5-1.095-.869a2.092 2.092 0 01-.393-1.261 2.24 2.24 0 01.226-1.019c.157-.312.368-.572.635-.78.267-.21.566-.343.895-.4v-.051a1.764 1.764 0 01-1.044-.699 2.054 2.054 0 01-.388-1.245 2.046 2.046 0 01.354-1.193c.242-.352.572-.629.993-.831.42-.201.899-.302 1.436-.302.531 0 1.006.102 1.423.307.421.201.752.478.993.831.242.349.364.745.367 1.188a2.078 2.078 0 01-.401 1.245 1.774 1.774 0 01-1.031.699v.051c.327.057.621.19.882.4.264.208.474.468.631.78.159.31.24.649.243 1.019a2.14 2.14 0 01-.401 1.261c-.264.369-.631.659-1.099.869-.466.211-1.002.316-1.607.316zm0-1.078c.361 0 .673-.06.938-.179.264-.123.468-.292.613-.508a1.38 1.38 0 00.222-.767 1.44 1.44 0 00-.239-.805 1.595 1.595 0 00-.626-.55 1.995 1.995 0 00-.908-.2c-.344 0-.649.067-.916.2a1.596 1.596 0 00-.631.55 1.407 1.407 0 00-.226.805c-.003.293.067.549.209.767.145.216.351.385.618.508.267.119.582.179.946.179zm0-4.062c.29 0 .547-.058.771-.174a1.329 1.329 0 00.729-1.215 1.353 1.353 0 00-.196-.716 1.252 1.252 0 00-.524-.473 1.716 1.716 0 00-.78-.17c-.301 0-.565.057-.793.17a1.252 1.252 0 00-.524.473 1.32 1.32 0 00-.183.716c-.003.279.06.522.188.729.127.207.304.369.528.486.227.116.489.174.784.174zm5.232 5.101a.827.827 0 01-.601-.247.821.821 0 01-.251-.605c0-.233.083-.432.251-.597a.823.823 0 01.601-.251c.233 0 .433.084.601.251a.81.81 0 01.251.597c0 .156-.04.3-.119.43a.876.876 0 01-.307.307.81.81 0 01-.426.115zm5.282.039a3.293 3.293 0 01-1.44-.307 2.628 2.628 0 01-1.015-.852 2.25 2.25 0 01-.404-1.236h1.278c.031.375.197.683.498.925.302.241.662.362 1.083.362.335 0 .632-.077.891-.23.261-.157.465-.371.613-.644.151-.273.226-.584.226-.933 0-.355-.077-.672-.23-.95a1.7 1.7 0 00-.635-.657 1.797 1.797 0 00-.921-.243c-.264 0-.529.046-.796.137-.267.091-.483.21-.648.358l-1.206-.179.49-4.398h4.798v1.129h-3.703l-.277 2.442h.051c.171-.165.397-.302.678-.413.284-.111.588-.166.912-.166a2.67 2.67 0 012.403 1.414c.242.435.361.935.358 1.5a2.918 2.918 0 01-.383 1.513 2.774 2.774 0 01-1.066 1.048c-.451.253-.97.38-1.555.38zm9.116-1.756v-.46c0-.33.068-.631.205-.904a1.63 1.63 0 01.605-.66c.267-.168.589-.252.967-.252.386 0 .71.083.972.248.261.164.458.385.592.66.136.276.204.578.204.908v.46c0 .33-.068.632-.204.908a1.637 1.637 0 01-.601.66c-.261.165-.582.247-.963.247-.384 0-.707-.082-.972-.247a1.635 1.635 0 01-.6-.66 2.011 2.011 0 01-.205-.908zm.993-.46v.46c0 .244.058.466.175.665.116.199.319.298.609.298.287 0 .487-.099.601-.298.113-.199.17-.421.17-.665v-.46a1.34 1.34 0 00-.166-.665c-.108-.199-.31-.298-.605-.298-.284 0-.486.099-.605.298a1.27 1.27 0 00-.179.665zm-5.382-4.534v-.461c0-.329.068-.632.204-.907a1.64 1.64 0 01.605-.661c.268-.165.59-.247.968-.247.386 0 .71.082.971.247.262.165.459.385.593.661.133.275.2.578.2.907v.461c0 .329-.068.632-.205.907a1.607 1.607 0 01-.596.661c-.262.165-.583.247-.963.247-.387 0-.712-.082-.976-.247a1.659 1.659 0 01-.597-.661 2.02 2.02 0 01-.204-.907zm.997-.461v.461c0 .244.057.466.17.664.117.199.32.299.61.299.284 0 .483-.1.596-.299.117-.198.175-.42.175-.664v-.461c0-.244-.055-.465-.166-.664-.111-.199-.313-.299-.605-.299-.284 0-.486.1-.605.299-.117.199-.175.42-.175.664zm-.592 7.091l6-8.727h1.018l-6 8.727h-1.018zm-17.885 26.904l-5.66 2.744v-1.304l4.177-1.9-.043.072v-.183l.043.077-4.177-1.905v-1.3l5.66 2.744v.955zm8.061 3.895a3.279 3.279 0 01-1.44-.307 2.61 2.61 0 01-1.015-.852 2.257 2.257 0 01-.404-1.236h1.278c.031.375.197.683.499.925.301.241.662.362 1.082.362.335 0 .632-.077.891-.23.261-.156.466-.371.613-.644a1.89 1.89 0 00.226-.933c0-.355-.077-.672-.23-.95a1.69 1.69 0 00-.635-.656 1.786 1.786 0 00-.92-.243c-.265 0-.53.045-.797.136-.267.091-.483.21-.648.358l-1.206-.179.49-4.398h4.798v1.13h-3.703l-.277 2.441h.051c.171-.164.397-.302.678-.413.284-.111.588-.166.912-.166a2.67 2.67 0 012.403 1.415c.242.434.361.934.358 1.5a2.917 2.917 0 01-.383 1.512 2.777 2.777 0 01-1.066 1.049c-.451.252-.97.379-1.555.379zm7.441 0a3.279 3.279 0 01-1.44-.307 2.615 2.615 0 01-1.014-.852 2.25 2.25 0 01-.405-1.236h1.278c.032.375.198.683.499.925.301.241.662.362 1.082.362.336 0 .632-.077.891-.23.261-.156.466-.371.614-.644a1.9 1.9 0 00.226-.933c0-.355-.077-.672-.231-.95a1.69 1.69 0 00-.635-.656 1.783 1.783 0 00-.92-.243c-.264 0-.53.045-.797.136-.267.091-.483.21-.648.358l-1.206-.179.49-4.398h4.799v1.13h-3.703l-.277 2.441h.051c.17-.164.396-.302.677-.413.284-.111.588-.166.912-.166a2.666 2.666 0 012.404 1.415c.241.434.36.934.358 1.5.002.565-.125 1.069-.384 1.512a2.78 2.78 0 01-1.065 1.049c-.452.252-.97.379-1.556.379zm13.605-6.899c.144 4.236 1.524 7.74 3.528 7.74.792 0 1.104-.456 1.248-2.076a2.26 2.26 0 01-.696-.396c-.048 1.2-.168 1.68-.504 1.68-1.344.012-2.664-3.012-2.748-6.948h-.828zm1.644.432c.588.276 1.308.708 1.644 1.044l.48-.492c-.36-.324-1.08-.744-1.668-.996l-.456.444zm1.236 2.1a7.837 7.837 0 01-3.876 4.5c.18.144.492.468.612.636 1.824-1.068 3.288-2.724 4.08-4.944l-.816-.192zm-6.396 1.32c-.204.648-.54 1.284-.984 1.74.168.084.456.276.576.372.444-.48.852-1.224 1.08-1.98l-.672-.132zm-1.296-2.628v.768h9.324v-.768h-9.324zm.9 1.464v.66h3.828v-.66h-3.828zm-2.076-3.276v.768h10.572v-.768h-10.572zm5.46-1.68v.708h3.996v-.708h-3.996zm-4.752 3.492v2.016c0 1.212-.108 2.88-1.044 4.092.204.084.588.3.744.444.96-1.284 1.14-3.18 1.14-4.524v-2.028h-.84zm4.248-4.512v3.06h.876v-3.06h-.876zm-3.024.54v2.568h.852v-2.568h-.852zm1.764 5.82v2.34c0 .096-.036.12-.12.12a5.649 5.649 0 01-.66 0c.096.156.228.408.276.588.432 0 .732-.012.972-.12.228-.096.288-.228.288-.588v-2.34h-.756zm1.692.876c-.384 1.488-1.692 2.676-3.564 3.252.132.132.312.396.396.552 2.016-.636 3.396-1.98 3.9-3.684l-.732-.12zm-26.184 13.104v8.728h-1.321v-7.407h-.051l-2.088 1.364v-1.261l2.178-1.424h1.282zm5.672 0v8.728h-1.321v-7.407h-.051l-2.088 1.364v-1.261l2.178-1.424h1.282zm2.714 8.809a.826.826 0 01-.601-.248.822.822 0 01-.252-.605c0-.233.084-.432.252-.596a.818.818 0 01.601-.252.82.82 0 01.601.252.805.805 0 01.251.596c0 .157-.04.3-.119.431a.882.882 0 01-.307.306.811.811 0 01-.426.116zm2.542-.081v-.955l2.953-3.06c.315-.332.575-.623.78-.873.207-.253.362-.493.464-.72.102-.228.153-.469.153-.725 0-.29-.068-.54-.204-.75a1.342 1.342 0 00-.558-.49 1.784 1.784 0 00-.797-.175 1.67 1.67 0 00-.818.192 1.314 1.314 0 00-.537.541 1.707 1.707 0 00-.188.819h-1.257c0-.532.122-.996.367-1.394a2.487 2.487 0 011.005-.925 3.111 3.111 0 011.453-.332c.549 0 1.032.109 1.449.328.421.216.749.511.985.886.235.373.353.793.353 1.262 0 .324-.061.64-.183.95-.119.31-.328.655-.626 1.036-.299.377-.713.836-1.245 1.376l-1.734 1.815v.064h3.929v1.13h-5.744zm11.914-1.637v-.46c0-.33.069-.631.205-.903.139-.276.341-.496.605-.661.267-.168.59-.251.967-.251.387 0 .711.082.972.247.261.165.459.385.592.66.137.276.205.578.205.908v.46c0 .33-.068.632-.205.908a1.624 1.624 0 01-.601.66c-.261.165-.582.248-.963.248-.383 0-.707-.083-.971-.248a1.631 1.631 0 01-.601-.66 2.025 2.025 0 01-.205-.908zm.993-.46v.46c0 .245.059.466.175.665.116.199.32.298.609.298.287 0 .488-.099.601-.298.114-.199.171-.42.171-.665v-.46c0-.244-.056-.466-.167-.665-.107-.199-.309-.298-.605-.298-.284 0-.485.099-.605.298a1.272 1.272 0 00-.179.665zm-5.382-4.534v-.46c0-.33.068-.632.205-.908.139-.276.341-.496.605-.661.267-.164.589-.247.967-.247.387 0 .71.083.972.247.261.165.459.385.592.661.134.276.2.578.2.908v.46c0 .329-.068.632-.204.908a1.62 1.62 0 01-.597.66c-.261.165-.582.247-.963.247-.386 0-.711-.082-.976-.247a1.653 1.653 0 01-.596-.66 2.014 2.014 0 01-.205-.908zm.997-.46v.46c0 .244.057.466.171.665.116.199.319.298.609.298.284 0 .483-.099.597-.298.116-.199.174-.421.174-.665v-.46a1.34 1.34 0 00-.166-.665c-.111-.199-.312-.298-.605-.298-.284 0-.486.099-.605.298-.116.199-.175.42-.175.665zm-.592 7.091l6-8.728h1.018l-6 8.728h-1.018zM470.652 74.66c-.848 0-1.604-.145-2.267-.437-.659-.295-1.18-.7-1.563-1.216a3.066 3.066 0 01-.585-1.795h2.478c.015.284.107.534.278.75.174.212.405.377.693.494.288.117.612.176.972.176.375 0 .706-.066.994-.199a1.63 1.63 0 00.676-.55 1.39 1.39 0 00.244-.813 1.36 1.36 0 00-.261-.824c-.17-.243-.417-.432-.739-.568-.318-.137-.696-.205-1.136-.205h-1.085v-1.807h1.085c.371 0 .699-.064.983-.193.288-.129.511-.307.671-.534.159-.231.238-.5.238-.807a1.396 1.396 0 00-.79-1.29 1.882 1.882 0 00-.863-.187c-.334 0-.638.06-.915.182a1.599 1.599 0 00-.665.505 1.34 1.34 0 00-.267.773h-2.358a3.04 3.04 0 01.574-1.773c.371-.511.871-.91 1.5-1.198.633-.292 1.347-.438 2.142-.438.803 0 1.506.146 2.108.438.602.291 1.07.685 1.403 1.181a2.83 2.83 0 01.5 1.66c.004.65-.198 1.195-.607 1.63-.406.436-.934.712-1.586.83v.09c.856.11 1.508.408 1.955.893.451.48.674 1.083.67 1.806a2.834 2.834 0 01-.574 1.767c-.382.516-.911.92-1.585 1.216-.674.296-1.447.444-2.318.444zm10.496 0c-.803 0-1.519-.147-2.148-.443a3.744 3.744 0 01-1.489-1.221 3.14 3.14 0 01-.573-1.784h2.386c.026.45.216.816.568 1.096.352.28.771.42 1.256.42a2 2 0 001.022-.255c.3-.174.533-.415.699-.722.171-.31.256-.666.256-1.068 0-.409-.087-.769-.261-1.08a1.853 1.853 0 00-.711-.727 2.087 2.087 0 00-1.039-.267c-.341 0-.673.07-.995.21-.318.14-.566.332-.744.575L477.188 69l.551-6.136h7.113v2.011h-5.085l-.301 2.915h.068c.205-.288.513-.526.926-.716.413-.19.875-.284 1.387-.284.7 0 1.325.165 1.875.495.549.33.983.782 1.301 1.358.318.572.475 1.23.471 1.977.004.784-.178 1.48-.545 2.09a3.845 3.845 0 01-1.529 1.433c-.651.344-1.409.517-2.272.517zm11.522-6.937v1.92h-5.306v-1.92h5.306zm1.864 4.733v-1.938l4.858-7.653h1.671v2.682h-.989l-3.063 4.847v.09h6.904v1.972h-9.381zm5.585 2.045v-2.636l.046-.858v-8.142h2.307v11.636h-2.353zm5.259-2.045v-1.938l4.858-7.653h1.67v2.682h-.988l-3.063 4.847v.09h6.904v1.972h-9.381zm5.585 2.045v-2.636l.046-.858v-8.142h2.306v11.636h-2.352zm16.963-9.04c.192 5.537 1.84 10.465 4.64 10.465 1.28 0 1.84-.56 2.096-2.897a4.416 4.416 0 01-1.408-.831c-.064 1.472-.208 2.08-.576 2.08-1.44 0-2.928-4.113-3.008-8.817h-1.744zm2.496.657c.688.368 1.536.928 1.936 1.328l.992-.945c-.432-.4-1.296-.912-1.984-1.248l-.944.865zm1.2 2.688c-.816 2.608-2.56 4.656-4.896 5.823.384.304 1.04.977 1.296 1.313 2.4-1.424 4.304-3.728 5.344-6.752l-1.744-.385zm-8.256 1.904c-.24.816-.688 1.616-1.312 2.175.336.176.88.544 1.136.752.64-.64 1.216-1.632 1.52-2.656l-1.344-.271zm-1.504-3.888v1.567h12.368v-1.567h-12.368zm1.264 2.16v1.311h4.832v-1.312h-4.832zm-3.152-4.736v1.584h14.352v-1.584h-14.352zm7.568-2.208v1.408h5.424v-1.408h-5.424zm-6.672 4.784v2.767c0 1.633-.112 3.889-1.344 5.489.432.175 1.248.64 1.584.927 1.312-1.743 1.536-4.463 1.536-6.383v-2.8h-1.776zm5.6-5.92v4.144h1.872V60.9h-1.872zm-4.096.72v3.456h1.792V61.62h-1.792zm2.48 8.224v2.816c0 .127-.048.16-.16.16s-.448 0-.752-.017c.16.288.432.768.544 1.12.576 0 1.024-.016 1.424-.207.384-.177.48-.416.48-1.04v-2.832h-1.536zm2.272.96c-.496 1.888-2.176 3.376-4.656 4.064.256.255.64.783.816 1.087 2.704-.831 4.576-2.623 5.312-4.927l-1.472-.225zM463.341 93.62c-.636 0-1.203-.109-1.7-.327-.495-.222-.885-.526-1.172-.912a2.289 2.289 0 01-.439-1.347h1.858a.97.97 0 00.209.563c.13.159.304.282.52.37.215.088.458.133.728.133.281 0 .53-.05.746-.15.216-.1.385-.237.507-.413s.183-.38.183-.61c0-.232-.065-.438-.196-.617a1.25 1.25 0 00-.554-.426 2.15 2.15 0 00-.852-.154h-.814v-1.355h.814c.278 0 .524-.048.737-.145.216-.096.384-.23.503-.4.119-.174.179-.375.179-.605a1.048 1.048 0 00-.592-.968 1.416 1.416 0 00-.648-.14c-.25 0-.479.045-.686.136a1.204 1.204 0 00-.499.38 1.001 1.001 0 00-.2.579h-1.768c.008-.503.152-.946.43-1.33a2.789 2.789 0 011.125-.899c.474-.219 1.01-.328 1.607-.328.602 0 1.129.11 1.58.328.452.219.803.514 1.053.886.253.37.378.784.375 1.245.003.488-.149.896-.456 1.223-.304.326-.7.534-1.189.622v.068c.642.082 1.131.305 1.466.67.338.36.506.812.503 1.354a2.13 2.13 0 01-.43 1.325c-.287.387-.684.69-1.189.912-.506.222-1.086.333-1.739.333zm7.94 0c-.656 0-1.24-.106-1.751-.319-.509-.216-.908-.51-1.198-.882a2.005 2.005 0 01-.435-1.266c0-.363.083-.697.248-1.001.167-.307.394-.561.681-.763.287-.204.608-.335.963-.392v-.06a1.894 1.894 0 01-1.133-.677c-.29-.36-.435-.78-.435-1.257 0-.452.132-.854.397-1.206a2.632 2.632 0 011.086-.835c.463-.205.989-.307 1.577-.307s1.112.102 1.572.307c.463.204.827.484 1.091.84.264.351.398.752.401 1.2a1.95 1.95 0 01-.443 1.258 1.907 1.907 0 01-1.125.677v.06c.349.057.666.188.95.392.287.202.514.456.682.763a2.053 2.053 0 01-.179 2.267c-.29.372-.691.666-1.202.882-.508.213-1.091.32-1.747.32zm0-1.354c.293 0 .548-.053.767-.158a1.26 1.26 0 00.511-.443c.125-.19.188-.41.188-.656 0-.253-.064-.476-.192-.67a1.318 1.318 0 00-.52-.46 1.613 1.613 0 00-.754-.17c-.281 0-.533.057-.754.17a1.304 1.304 0 00-.524.46 1.205 1.205 0 00-.188.67c0 .247.061.466.183.656.122.187.294.335.516.443.221.105.477.158.767.158zm0-3.9c.244 0 .462-.05.652-.149.19-.1.339-.237.447-.413.108-.176.162-.38.162-.61a1.09 1.09 0 00-.605-1c-.187-.1-.406-.15-.656-.15-.247 0-.466.05-.656.15a1.1 1.1 0 00-.448.404c-.105.17-.157.37-.157.597 0 .23.054.433.162.609.107.176.257.314.447.413.19.1.408.15.652.15zm5.51 5.246a.998.998 0 01-.725-.298.999.999 0 01-.298-.724c0-.279.1-.517.298-.716a.998.998 0 01.725-.299c.273 0 .511.1.716.299a.965.965 0 01.307.716.965.965 0 01-.145.515 1.109 1.109 0 01-.371.37.974.974 0 01-.507.137zm2.496-.11v-1.33l3.107-2.876c.264-.256.485-.486.664-.69a2.63 2.63 0 00.414-.602 1.5 1.5 0 00.14-.643c0-.256-.058-.476-.174-.66a1.15 1.15 0 00-.478-.431 1.493 1.493 0 00-.686-.153c-.267 0-.5.053-.699.161a1.114 1.114 0 00-.46.465 1.505 1.505 0 00-.162.72h-1.751c0-.57.129-1.067.388-1.487.258-.42.62-.746 1.086-.976.466-.23 1.003-.345 1.611-.345.625 0 1.169.11 1.632.332.466.219.828.523 1.087.912.258.39.388.835.388 1.338 0 .33-.066.655-.197.976-.127.321-.356.678-.686 1.07-.329.389-.794.856-1.393 1.402l-1.274 1.248v.06h3.665V93.5h-6.222zm12.336-1.637v-.46c0-.35.073-.67.221-.963.151-.296.368-.531.652-.708.287-.179.637-.268 1.048-.268.418 0 .769.088 1.053.264.287.176.503.412.648.707.147.293.221.616.221.968v.46c0 .35-.074.672-.221.967a1.727 1.727 0 01-.652.704c-.287.178-.637.268-1.049.268-.417 0-.768-.09-1.052-.268a1.742 1.742 0 01-.648-.704 2.128 2.128 0 01-.221-.967zm1.24-.46v.46c0 .202.048.392.145.571.099.18.278.269.536.269.259 0 .435-.088.529-.265a1.18 1.18 0 00.145-.575v-.46c0-.207-.046-.4-.137-.58-.091-.179-.27-.268-.537-.268-.255 0-.433.09-.532.268-.1.18-.149.373-.149.58zm-5.719-4.534v-.46c0-.353.075-.675.226-.968.15-.295.368-.531.652-.707.287-.176.633-.264 1.039-.264.421 0 .773.088 1.057.264.284.176.5.412.648.707.148.293.222.615.222.968v.46c0 .352-.076.675-.226.967a1.726 1.726 0 01-.652.703c-.284.174-.634.26-1.049.26-.414 0-.765-.088-1.052-.264a1.774 1.774 0 01-.648-.703 2.139 2.139 0 01-.217-.963zm1.248-.46v.46c0 .207.049.399.145.575.1.176.274.264.524.264.262 0 .439-.088.533-.264.097-.176.145-.368.145-.575v-.46a1.26 1.26 0 00-.136-.58c-.091-.179-.272-.269-.542-.269-.252 0-.427.091-.524.273a1.216 1.216 0 00-.145.576zm-.686 7.09l6-8.727h1.117l-6 8.727h-1.117zm12.647-4.363c0-1.057.141-2.03.422-2.92a8.048 8.048 0 011.3-2.47h1.734a5.255 5.255 0 00-.618 1.03c-.19.404-.356.847-.498 1.33-.143.483-.253.983-.333 1.5a10.063 10.063 0 00.085 3.571c.14.685.327 1.321.563 1.91.238.587.506 1.069.801 1.444h-1.734a8.048 8.048 0 01-1.3-2.472c-.281-.89-.422-1.864-.422-2.923zm7.101 3.034v-6.034h1.525v6.034h-1.525zm-2.255-2.254v-1.526h6.034v1.526h-6.034zm11.6-5.144v8.727h-1.845v-6.975h-.052l-1.998 1.252v-1.636l2.16-1.368h1.735zm2.419 8.727l3.618-7.159v-.06h-4.215v-1.508h6.124v1.53l-3.622 7.197h-1.905zm11.569-1.636v-.46c0-.35.073-.67.221-.963.151-.296.368-.531.652-.708.287-.179.637-.268 1.048-.268.418 0 .769.088 1.053.264.287.176.503.412.648.707.148.293.221.616.221.968v.46c0 .35-.073.672-.221.967a1.727 1.727 0 01-.652.704c-.287.178-.637.268-1.049.268-.417 0-.768-.09-1.052-.268a1.742 1.742 0 01-.648-.704 2.128 2.128 0 01-.221-.967zm1.24-.46v.46c0 .202.048.392.145.571.099.18.278.269.536.269.259 0 .435-.088.529-.265a1.18 1.18 0 00.145-.575v-.46c0-.207-.046-.4-.137-.58-.09-.179-.269-.268-.537-.268-.255 0-.433.09-.532.268-.1.18-.149.373-.149.58zm-5.719-4.534v-.46c0-.353.075-.675.226-.968.15-.295.368-.531.652-.707.287-.176.633-.264 1.04-.264.42 0 .772.088 1.056.264.284.176.5.412.648.707.148.293.222.615.222.968v.46c0 .352-.076.675-.226.967a1.726 1.726 0 01-.652.703c-.284.174-.634.26-1.048.26-.415 0-.766-.088-1.053-.264a1.774 1.774 0 01-.648-.703 2.139 2.139 0 01-.217-.963zm1.249-.46v.46c0 .207.048.399.144.575.1.176.275.264.525.264.261 0 .438-.088.532-.264.097-.176.145-.368.145-.575v-.46a1.26 1.26 0 00-.136-.58c-.091-.179-.272-.269-.541-.269-.253 0-.428.091-.525.273a1.215 1.215 0 00-.144.576zm-.687 7.09l6-8.727h1.117l-6 8.727h-1.117zm12.529-4.363c0 1.06-.142 2.034-.426 2.923a7.994 7.994 0 01-1.296 2.472h-1.734c.221-.282.427-.625.618-1.032.19-.406.356-.849.498-1.33.142-.482.253-.982.333-1.5.079-.516.119-1.028.119-1.533 0-.674-.07-1.352-.209-2.037a10.433 10.433 0 00-.562-1.91c-.236-.587-.502-1.069-.797-1.444h1.734a7.994 7.994 0 011.296 2.472c.284.889.426 1.862.426 2.919zm-53.478 109.933v-1.065l3.771-5.958h.839v1.568h-.532l-2.698 4.27v.068h5.169v1.117h-6.549zm4.137 1.704v-2.028l.009-.486v-6.213h1.249v8.727h-1.258zm6.778.12a3.293 3.293 0 01-1.44-.307 2.616 2.616 0 01-1.014-.852 2.25 2.25 0 01-.405-1.236h1.278c.031.375.198.683.499.925.301.241.662.362 1.082.362.335 0 .632-.077.891-.23.261-.157.466-.371.613-.644.151-.273.226-.584.226-.933 0-.355-.076-.672-.23-.95a1.693 1.693 0 00-.635-.657 1.785 1.785 0 00-.92-.242c-.264 0-.53.045-.797.136-.267.091-.483.21-.648.358l-1.206-.179.49-4.398h4.799v1.129h-3.704l-.277 2.442h.052a2.03 2.03 0 01.677-.413c.284-.111.588-.166.912-.166a2.67 2.67 0 012.403 1.414c.242.435.361.935.358 1.5a2.918 2.918 0 01-.383 1.513 2.778 2.778 0 01-1.065 1.048c-.452.253-.971.38-1.556.38zm8.434-5.037v1.108h-3.869v-1.108h3.869zm4.562 5.037a3.293 3.293 0 01-1.44-.307 2.623 2.623 0 01-1.014-.852 2.25 2.25 0 01-.405-1.236h1.278c.032.375.198.683.499.925.301.241.662.362 1.082.362.335 0 .632-.077.891-.23.261-.157.466-.371.613-.644.151-.273.226-.584.226-.933 0-.355-.076-.672-.23-.95a1.693 1.693 0 00-.635-.657 1.785 1.785 0 00-.92-.242c-.264 0-.53.045-.797.136-.267.091-.483.21-.648.358l-1.206-.179.49-4.398h4.799v1.129h-3.704l-.276 2.442h.051a2.03 2.03 0 01.677-.413c.284-.111.588-.166.912-.166a2.67 2.67 0 012.404 1.414c.241.435.36.935.357 1.5a2.918 2.918 0 01-.383 1.513 2.778 2.778 0 01-1.065 1.048c-.452.253-.971.38-1.556.38zm4.378-1.824v-1.065l3.771-5.958h.84v1.568h-.533l-2.698 4.27v.068h5.169v1.117h-6.549zm4.138 1.704v-2.028l.008-.486v-6.213h1.249v8.727h-1.257zm12.941-6.78c.144 4.236 1.524 7.74 3.528 7.74.792 0 1.104-.456 1.248-2.076a2.26 2.26 0 01-.696-.396c-.048 1.2-.168 1.68-.504 1.68-1.344.012-2.664-3.012-2.748-6.948h-.828zm1.644.432c.588.276 1.308.708 1.644 1.044l.48-.492c-.36-.324-1.08-.744-1.668-.996l-.456.444zm1.236 2.1a7.837 7.837 0 01-3.876 4.5c.18.144.492.468.612.636 1.824-1.068 3.288-2.724 4.08-4.944l-.816-.192zm-6.396 1.32c-.204.648-.54 1.284-.984 1.74.168.084.456.276.576.372.444-.48.852-1.224 1.08-1.98l-.672-.132zm-1.296-2.628v.768h9.324v-.768h-9.324zm.9 1.464v.66h3.828v-.66h-3.828zm-2.076-3.276v.768h10.572v-.768h-10.572zm5.46-1.68v.708h3.996v-.708h-3.996zm-4.752 3.492v2.016c0 1.212-.108 2.88-1.044 4.092.204.084.588.3.744.444.96-1.284 1.14-3.18 1.14-4.524v-2.028h-.84zm4.248-4.512v3.06h.876v-3.06h-.876zm-3.024.54v2.568h.852v-2.568h-.852zm1.764 5.82v2.34c0 .096-.036.12-.12.12a5.649 5.649 0 01-.66 0c.096.156.228.408.276.588.432 0 .732-.012.972-.12.228-.096.288-.228.288-.588v-2.34h-.756zm1.692.876c-.384 1.488-1.692 2.676-3.564 3.252.132.132.312.396.396.552 2.016-.636 3.396-1.98 3.9-3.684l-.732-.12zm-35.768 20.128v-1.065l3.771-5.958h.839v1.568h-.532l-2.698 4.27v.068h5.169v1.117h-6.549zm4.137 1.704v-2.028l.009-.486v-6.213h1.249v8.727h-1.258zm3.897 0v-.954l2.954-3.06c.315-.332.575-.623.779-.873.208-.253.363-.493.465-.721.102-.227.153-.468.153-.724 0-.29-.068-.54-.204-.75a1.348 1.348 0 00-.558-.49 1.77 1.77 0 00-.797-.175c-.313 0-.586.064-.819.192a1.318 1.318 0 00-.536.541 1.706 1.706 0 00-.188.818h-1.257c0-.531.122-.995.366-1.393.245-.398.58-.706 1.006-.925a3.111 3.111 0 011.453-.332c.549 0 1.031.109 1.449.328.421.216.749.511.984.886.236.372.354.793.354 1.262 0 .324-.061.64-.183.95-.119.31-.328.655-.627 1.035-.298.378-.713.837-1.244 1.377l-1.734 1.815v.064h3.929v1.129h-5.745zm8.216.081a.823.823 0 01-.6-.247.822.822 0 01-.252-.605c0-.233.084-.432.252-.597a.819.819 0 01.6-.251c.233 0 .434.084.601.251a.806.806 0 01.252.597.874.874 0 01-.426.737.811.811 0 01-.427.115zm4.799-8.808v8.727h-1.321v-7.406h-.051l-2.089 1.364v-1.262l2.178-1.423h1.283zm6.916 7.091v-.46c0-.33.068-.631.204-.904.14-.275.341-.495.606-.66.267-.168.589-.252.967-.252.386 0 .71.083.971.248.262.164.459.385.593.66.136.276.204.578.204.908v.46c0 .33-.068.632-.204.908a1.644 1.644 0 01-.601.66c-.261.165-.582.247-.963.247-.384 0-.708-.082-.972-.247a1.644 1.644 0 01-.601-.66 2.024 2.024 0 01-.204-.908zm.993-.46v.46c0 .244.058.466.174.665.117.199.32.298.61.298.287 0 .487-.099.601-.298.113-.199.17-.421.17-.665v-.46a1.34 1.34 0 00-.166-.665c-.108-.199-.31-.298-.605-.298-.284 0-.486.099-.605.298a1.26 1.26 0 00-.179.665zm-5.382-4.534v-.461c0-.329.068-.632.204-.907.139-.276.341-.496.605-.661.267-.164.59-.247.968-.247.386 0 .71.083.971.247.262.165.459.385.593.661.133.275.2.578.2.907v.461c0 .329-.068.632-.205.907a1.607 1.607 0 01-.596.661c-.262.165-.583.247-.963.247-.387 0-.712-.082-.976-.247a1.651 1.651 0 01-.597-.661 2.02 2.02 0 01-.204-.907zm.997-.461v.461c0 .244.057.466.17.664.117.199.32.299.61.299.284 0 .483-.1.596-.299.117-.198.175-.42.175-.664v-.461c0-.244-.055-.465-.166-.664-.111-.199-.313-.299-.605-.299-.284 0-.486.1-.605.299-.117.199-.175.42-.175.664zm-.593 7.091l6-8.727h1.019l-6 8.727h-1.019z" fill="#1C1C1E"/></svg>