<svg width="960" height="148" fill="none" xmlns="http://www.w3.org/2000/svg"><path d="M960 78.053c-341.5-9.5-746-49.5-960-78v78h960z" fill="#E5EFFD"/><path d="M16.3 32.32l-.52.14H1.9v2.34h11.54c-1.32 1.18-3.04 2.46-4.6 3.28v8.86c0 .34-.16.46-.6.46-.44 0-2.08.02-3.5-.04.38.64.84 1.7.96 2.4 1.92.02 3.34-.04 4.34-.4.98-.36 1.3-1 1.3-2.36v-7.72c2.5-1.48 5.04-3.6 6.88-5.56l-1.92-1.4zm13.4 5.5c.38.4.78.96.96 1.36.14-.06.28-.14.42-.2-.24 1.42-.72 2.88-1.38 3.9v-5.06zm-3.08 4.94V41.1h1.14v1.66h-1.14zm-2.7-1.66h1.14v1.66H23.9c.02-.46.02-.9.02-1.32v-.34zm2.1-6.38c-.18.5-.36 1.02-.56 1.46h-1.72c.24-.46.46-.96.68-1.46h1.6zm.6 3.2h1.14v1.5h-1.14v-1.5zm-2.7 0h1.14v1.5h-1.14v-1.5zm15.46 6.4h-3.4v-1.8h3v-2h-3v-1.8h-2.26v1.8h-.98c.12-.42.2-.86.28-1.28l-1.78-.36c2.04-1.12 2.8-2.78 3.14-4.86h2.32c-.08 1.66-.18 2.34-.36 2.56-.14.18-.3.22-.54.22-.28 0-.82-.02-1.44-.08.3.5.5 1.3.54 1.92.8.02 1.58 0 2.02-.06.5-.08.88-.24 1.22-.66.44-.52.6-1.9.7-5.08.02-.26.04-.76.04-.76H30v1.94h2.24c-.28 1.46-.88 2.62-2.54 3.38v-1.22h-2.24c.42-.82.82-1.74 1.1-2.52l-1.36-.84-.3.1h-1.82c.16-.46.3-.94.42-1.42l-2.1-.44c-.54 2.34-1.6 4.68-2.96 6.14.42.28 1.16.88 1.56 1.28v2.96c0 2.24-.1 5.22-1.44 7.28.44.2 1.3.74 1.64 1.06.92-1.44 1.38-3.38 1.58-5.26h3.98v2.88c0 .26-.1.34-.34.34-.24 0-1.02 0-1.82-.04.3.54.62 1.44.68 2.02 1.22 0 2.04-.06 2.66-.4.6-.34.76-.94.76-1.88v-4.22c.5.22 1.22.6 1.56.84.3-.44.56-.96.8-1.54h1.66v1.8h-3.7v2.04h3.7v3.3h2.26v-3.3h3.4v-2.04zm12.02-2.66V39.2h4.22v2.46H51.4zm-6.22 0c.04-.74.06-1.46.06-2.1v-.36H49v2.46h-3.82zm3.82-7v2.32h-3.76v-2.32H49zm6.62 2.32H51.4v-2.32h4.22v2.32zm2.36-4.58h-15.1v7.14c0 2.8-.18 6.36-2.36 8.76.54.28 1.5 1.1 1.88 1.54 1.44-1.56 2.16-3.76 2.52-5.94H49v5.58h2.4V43.9h4.22v3c0 .36-.14.48-.52.48-.36 0-1.68.02-2.8-.04.3.62.68 1.64.76 2.28 1.8.02 3.02-.02 3.84-.42.8-.36 1.08-1 1.08-2.28V32.4zm7.7 9.06c.08-.96.12-1.9.12-2.72v-.2h8.82v2.92h-8.94zm.12-5.12v-1.66c3.72-.36 7.74-.96 10.8-1.8l-1.88-1.8c-2.72.8-7.28 1.48-11.32 1.84v5.8c0 2.92-.24 6.86-2.84 9.5.5.3 1.48 1.16 1.84 1.62 1.66-1.64 2.52-3.92 2.96-6.18h9.26v1h2.44v-8.32H65.8zm27.72 8.56v-1.08h2.6v1.08h-2.6zm-4.74 0v-1.08h2.56v1.08h-2.56zm2.56-3.74v1.02h-2.56v-1.02h2.56zm4.78 1.02h-2.6v-1.02h2.6v1.02zm2.22-2.74h-3.28c-.22-.12-.44-.24-.7-.36 1.32-.74 2.64-1.6 3.7-2.42l-1.34-1.22-.5.12h-8.98v1.64h6.9c-.52.38-1.1.74-1.64 1.04-.88-.36-1.8-.74-2.6-1.02l-1.32 1.26c.76.26 1.58.6 2.38.96H86.6V49.7h2.18v-3.16h2.56v2.92h2.18v-2.92h2.6v1.16c0 .22-.08.3-.34.3-.22 0-.98 0-1.64-.02.24.48.52 1.16.6 1.7 1.22 0 2.12-.02 2.74-.3.66-.3.86-.7.86-1.68v-8.26zm-5.46-6.66c-.28-.6-.72-1.34-1.14-1.92l-2.3.6c.26.38.52.86.74 1.32h-6.64v4.8c-.28-.94-.78-2.12-1.28-3.08l-1.74.88c.56 1.22 1.14 2.82 1.3 3.82l1.72-.9v.82c0 .5 0 1.04-.02 1.56-1.18.62-2.3 1.16-3.12 1.5l.68 2.2c.72-.42 1.46-.86 2.2-1.32-.32 1.82-.92 3.6-2.24 5 .48.28 1.36 1.14 1.68 1.6 2.62-2.74 3.04-7.36 3.04-10.54v-4.3h13.38v-2.04h-6.26zm10.26 1.46c.28.9.48 2.02.52 2.78l1.06-.32c-.06-.78-.32-1.96-.64-2.88l-.94.28v-.84h1.68v4.34h-1.68v-3.36zm4.84-.1l-.96-.34c-.14.8-.48 1.96-.76 2.76v-3.3h1.72v.88zm-1.72 3.46v-.86l.82.3c.26-.58.58-1.44.9-2.28v2.84h-1.72zm-5.28 7.34c2.42-.1 5.84-.28 9.08-.48l.04-1.84c-1.16.04-2.36.1-3.52.14v-.88h3.2v-1.8h-3.2v-.88h3.24v-7.54h-8.46v7.54h3.12v.88h-3.08v1.8h3.08v.96c-1.34.04-2.56.08-3.56.1l.06 2zm1.04 4.8c.84-.92 1.18-2.44 1.42-3.86l-1.6-.48c-.18 1.32-.64 2.7-1.36 3.54l1.54.8zm1.56-4.22c.22 1.12.38 2.56.34 3.5l1.54-.18c-.02-.96-.18-2.38-.42-3.5l-1.46.18zm2-.08c.38 1.06.72 2.44.82 3.34l1.46-.3c-.12-.92-.48-2.26-.86-3.32l-1.42.28zm1.94-.18c.62 1 1.22 2.32 1.46 3.2l1.5-.62c-.26-.88-.9-2.16-1.54-3.1l-1.42.52zm8.86 1.54h-3.7v-4.18h3.7v4.18zm2.94-9.42v-2.2h-3.86v-4.1h-2.32v9.38h-2.62v9.26h2.16v-.78h3.7v.7h2.28v-9.18h-3.2v-3.08h3.86zm136.48-1.96h12.3v2.76h2.46v-5h-6.94c-.22-.72-.64-1.62-1.04-2.32l-2.4.66c.26.52.5 1.1.7 1.66h-7.42v5h2.34v-2.76zm7.44 8.64h5.48v-2.24h-5.48v-2.36h4.26v-2.28h-11v2.28h4.26v6.78c-1.16-.6-2.08-1.56-2.68-3.2.16-.76.32-1.58.42-2.42l-2.42-.22c-.36 3.4-1.36 6.18-3.52 7.8.54.32 1.56 1.16 1.94 1.58 1.14-.98 2.02-2.28 2.68-3.84 1.82 2.9 4.56 3.52 8.3 3.52h4.98c.12-.72.5-1.86.86-2.42-1.36.04-4.66.04-5.72.04-.84 0-1.62-.04-2.36-.14v-2.88zm24.42.14c-.4.46-.9.9-1.46 1.28a7.6 7.6 0 01-.62-1.28h2.08zm-8.38-1.74v-1.04c1-.14 1.94-.3 2.76-.48l-1.3-1.34h5.92l-1.24 1.3c1 .36 2.14 1 2.92 1.56h-3.3c-.18-.82-.3-1.68-.34-2.6h-2.28c.06.9.16 1.78.32 2.6h-3.46zm8.74 1.74h3v-1.74h-1.96l1.06-1.18c-.72-.56-2.06-1.26-3.16-1.68h3.96v-1.8h-7.74v-.74h5.8v-1.64h-5.8v-.72h6.86v-1.76h-3.46c.32-.4.68-.9 1.04-1.42l-2.64-.5c-.18.56-.54 1.32-.88 1.92h-4.02c-.22-.56-.72-1.34-1.22-1.86l-2.08.66c.28.36.54.78.76 1.2H274v1.76h6.74v.72h-5.68v1.64h5.68v.74h-7.64v1.8h7.34c-1.76.4-4.6.68-7.04.82.2.4.42 1.02.5 1.42.98-.02 2.06-.08 3.12-.18v.8h-3.96v1.74h3.96v.88c-1.52.08-2.92.14-4.02.18l.18 1.82c1.12-.08 2.44-.16 3.84-.28v.8c0 .26-.1.34-.4.34-.3.02-1.4.04-2.26-.02.28.52.56 1.26.68 1.82 1.48 0 2.5-.02 3.28-.3.74-.26.96-.72.96-1.78v-1.02l2.98-.24.02-1.6-3 .16v-.76h3.9c.26.88.6 1.68 1 2.38-1.24.54-2.64.96-4.02 1.26.38.46.94 1.4 1.16 1.88 1.38-.38 2.78-.9 4.06-1.54.96.98 2.1 1.54 3.42 1.54 1.58 0 2.24-.48 2.56-2.72-.54-.16-1.28-.5-1.74-.92-.1 1.12-.22 1.48-.7 1.48-.52 0-1.02-.2-1.5-.58.9-.64 1.72-1.36 2.34-2.18l-1.74-.6zm11.04-10.56v1.08H296v-1.08h3.06zM296 37.46v-1.14h3.06v1.14H296zm5.28 1.8v-7.44h-7.64v17.92H296V39.26h5.28zm2.3 3.34v2.36h-3.3V42.6h3.3zm2.22 4.32v-6.28h-7.74v7.4h2.22v-1.12h5.52zm-.88-9.44v-1.16h3.16v1.16h-3.16zm3.16-3.86v1.1h-3.16v-1.1h3.16zm2.42-1.8h-7.84v7.46h5.42v7.58c0 .36-.14.48-.52.48-.38.02-1.74.04-2.9-.04.34.64.72 1.76.8 2.44 1.84 0 3.1-.06 3.92-.46.84-.38 1.12-1.06 1.12-2.38V31.82zm17.68 5.34h-3.64v-.92h3.64v.92zm0 2.46h-3.64v-.92h3.64v.92zm0 2.48h-3.64v-.96h3.64v.96zm-5.76-7.46v9.08h7.96v-9.08h-3.4l.48-1.08h3.5V31.9h-9.16v1.66h3.52c-.12.36-.22.74-.34 1.08h-2.56zm4.42 9.96c1 .7 2.24 1.88 2.86 2.66l1.7-1c-.62-.76-1.86-1.82-2.92-2.52l-1.64.86zm-2.8-.74c-.7.84-1.9 1.62-3.08 2.16.42.32 1.18 1 1.52 1.38 1.24-.66 2.64-1.8 3.5-2.92l-1.94-.62zm-5.24-9.5h-2.86v-.94h2.86v.94zm0 2.48h-2.86v-.98h2.86v.98zm2.2-5h-7.18v6.6H321v-6.6zm-2.38 12.82h2.88v-1.72h-2.88V41.3h3.26v-1.72h-8.96v1.72h3.7v4.56c-.4-.42-.74-.94-1.02-1.58.06-.72.1-1.44.12-2.18h-1.9c-.06 2.4-.26 4.76-1.38 6.14.48.36 1.08 1.12 1.38 1.62.68-.82 1.12-1.88 1.4-3.08 1.6 2.18 4.08 2.56 7.84 2.56h7.7c.12-.58.44-1.5.76-1.96-1.64.08-7.1.08-8.46.08-1.78 0-3.24-.08-4.44-.44v-2.36zm28.58-4.9c-.62 1.6-1.52 2.98-2.66 4.12-1.18-1.16-2.1-2.56-2.76-4.12h5.42zm-7.8-5.56h4c-.26 1.14-.54 2.3-.82 3.3h-3.22c.02-.62.04-1.2.04-1.76V34.2zm9.3 3.2l-.44.1h-3c.38-1.66.8-3.78 1.12-5.62h-12.64v2.32h3.16v1.52c0 3.24-.4 8.28-4.36 11.66.52.46 1.38 1.44 1.72 2.06 3.2-2.78 4.42-6.42 4.88-9.68h.3c.84 2.2 1.88 4.1 3.24 5.66-1.58 1.1-3.44 1.88-5.46 2.36.5.54 1.1 1.54 1.38 2.22 2.22-.66 4.24-1.54 5.94-2.8 1.46 1.16 3.18 2 5.22 2.6.38-.68 1.1-1.72 1.66-2.26-1.88-.44-3.5-1.12-4.9-2.04 1.8-1.86 3.14-4.26 3.92-7.36l-1.74-.74zm8.56 8.56V43.6h9.26v2.36h-9.26zm9.26-6.96v2.36h-9.26V39h9.26zm0-4.54v2.3h-9.26v-2.3h9.26zm-11.66-2.32v17.38h2.4v-1.24h9.26v1.24h2.52V32.14h-14.18zm30.88 2.44h-1.06v-.9h1.06v.9zm2.84 1.68v1.5h-1.14v-1.5h1.14zm-3.9 0h1.06v1.5h-1.06v-1.5zm-2.76 0H383v1.5h-1.08v-1.5zm1.08-1.68h-3v4.86h10.64v-4.86h-3.2v-.9H391V31.8h-11.38v1.88H383v.9zm6.82 7.36v-1.8h-8.98v1.8h8.98zm-9.84-.5c-.34-.56-1.84-2.9-2.36-3.58v-.88h1.94v-2.2h-1.94v-3.72h-2.16v3.72h-2.5v2.2h2.2c-.54 2.26-1.6 5.04-2.7 6.58.34.62.86 1.72 1.1 2.42.72-1.14 1.36-2.8 1.9-4.6v8.34h2.16v-8.88c.4.8.76 1.64.98 2.22l1.38-1.62zm1.34 3.58c-.54 1.12-1.5 2.3-2.52 3.08.5.3 1.38.9 1.78 1.26 1-.92 2.12-2.36 2.8-3.76l-2.06-.58zm9.72-.42v-1.86h-11.4v1.86h4.54v5.12h2.12V44.6h4.74zm-4 1.32c.9 1 1.94 2.4 2.38 3.3l1.84-1.08c-.52-.86-1.56-2.16-2.5-3.1l-1.72.88zM518.8 44.4c-.36.52-.78.98-1.26 1.4-.9-.5-1.82-.96-2.66-1.4h3.92zm1.42-1.64l-.36.06h-6.5v1.58h.48l-.8.96c.86.46 1.8 1 2.78 1.54-1.04.52-2.26.9-3.56 1.12.38.44.8 1.2 1 1.72 1.66-.38 3.2-.94 4.46-1.72 1.08.64 2.04 1.26 2.72 1.74l1.2-1.58c-.6-.4-1.42-.9-2.32-1.4.96-.94 1.7-2.1 2.2-3.56l-1.3-.46zm1.04-9.6c-.54.64-1.46 1.48-2.22 2.08-.36-.28-.72-.58-1.06-.9.76-.54 1.62-1.26 2.44-1.94l-1.7-1.22c-.48.56-1.22 1.28-1.88 1.84-.46-.56-.84-1.2-1.14-1.88l-1.9.56c.96 2.14 2.3 3.92 4.04 5.3h-3.82v1.42c0 .9-.18 1.86-1.42 2.68v-3.98h-2.62c1.62-1.22 2.96-2.78 3.76-4.74l-1.46-.72-.4.1h-5.22v1.86h3.94c-.34.46-.74.88-1.16 1.28-.58-.44-1.42-.92-2.1-1.26l-1.36 1.26c.6.34 1.32.8 1.86 1.2-1.04.66-2.18 1.2-3.36 1.54.42.42 1 1.22 1.28 1.74.62-.22 1.22-.48 1.82-.78v.32h2.9v1.4h-3.54c-.18 1.58-.5 3.56-.78 4.86h4.2c-.14 1.36-.32 2-.56 2.22-.18.18-.4.2-.72.2-.44 0-1.42-.02-2.42-.1.36.54.64 1.36.68 1.98 1.06.04 2.1.04 2.64-.02.7-.04 1.18-.2 1.6-.66.52-.52.76-1.82.98-4.52.02-.28.04-.82.04-.82h-4.16c.06-.44.12-.92.2-1.38h3.96v-.6c.4.36.98.94 1.2 1.28 1.66-1.06 2.14-2.56 2.2-3.96h1.84v1.16c0 1.62.32 2.3 2 2.3h1.24c.42 0 .88-.02 1.16-.12-.08-.46-.12-1.14-.16-1.62-.26.08-.74.1-1.02.1h-.98c-.26 0-.3-.16-.3-.64v-1.72c.72.38 1.46.7 2.28.96.32-.58.92-1.42 1.42-1.88a14.42 14.42 0 01-2.86-1.12c.74-.52 1.6-1.16 2.36-1.84l-1.72-1.22zm15.06 6.6H540v1.2h-3.68v-1.2zm0-2.9H540v1.16h-3.68v-1.16zm0-2.92H540v1.16h-3.68v-1.16zm-4.2 9.66c.9.84 2.08 2.06 2.64 2.78l1.72-1.44c-.48-.56-1.34-1.4-2.12-2.12h7.92V32.06h-8.12v10.58l-.4-.36-1.64 1.32zm-3.82-.54h2.26v-4.18c.72.66 1.46 1.38 1.92 1.88l1.24-1.9c-.46-.38-2.36-1.74-3.16-2.2v-.74h2.82V33.9h-2.82v-2.82h-2.26v2.82h-3.28v2.02h2.9c-.78 1.74-2.08 3.48-3.4 4.46.48.38 1.18 1.12 1.52 1.64.82-.72 1.58-1.72 2.26-2.9v3.94zm-1.46 5.58c.7-1.16 1.28-2.94 1.68-4.36l-2.12-.84c-.34 1.42-1.02 3.06-1.74 4.12l2.18 1.08zm6.04-1.4c-1.08 0-1.28-.08-1.28-.68v-2.7h-2.34v2.74c0 2.08.68 2.74 3.4 2.74h3.6c2.2 0 2.86-.7 3.16-3.56-.66-.12-1.66-.46-2.14-.84-.12 2.02-.26 2.3-1.2 2.3h-3.2zm5.98-3.1c.78 1.34 1.88 3.1 2.36 4.16l2.22-1.14c-.54-1.04-1.7-2.74-2.5-3.98l-2.08.96zm14.84-6.32c.38.4.78.96.96 1.36.14-.06.28-.14.42-.2-.24 1.42-.72 2.88-1.38 3.9v-5.06zm-3.08 4.94V41.1h1.14v1.66h-1.14zm-2.7-1.66h1.14v1.66h-1.16c.02-.46.02-.9.02-1.32v-.34zm2.1-6.38c-.18.5-.36 1.02-.56 1.46h-1.72c.24-.46.46-.96.68-1.46h1.6zm.6 3.2h1.14v1.5h-1.14v-1.5zm-2.7 0h1.14v1.5h-1.14v-1.5zm15.46 6.4h-3.4v-1.8h3v-2h-3v-1.8h-2.26v1.8h-.98c.12-.42.2-.86.28-1.28l-1.78-.36c2.04-1.12 2.8-2.78 3.14-4.86h2.32c-.08 1.66-.18 2.34-.36 2.56-.14.18-.3.22-.54.22-.28 0-.82-.02-1.44-.08.3.5.5 1.3.54 1.92.8.02 1.58 0 2.02-.06.5-.08.88-.24 1.22-.66.44-.52.6-1.9.7-5.08.02-.26.04-.76.04-.76H554v1.94h2.24c-.28 1.46-.88 2.62-2.54 3.38v-1.22h-2.24c.42-.82.82-1.74 1.1-2.52l-1.36-.84-.3.1h-1.82c.16-.46.3-.94.42-1.42l-2.1-.44c-.54 2.34-1.6 4.68-2.96 6.14.42.28 1.16.88 1.56 1.28v2.96c0 2.24-.1 5.22-1.44 7.28.44.2 1.3.74 1.64 1.06.92-1.44 1.38-3.38 1.58-5.26h3.98v2.88c0 .26-.1.34-.34.34-.24 0-1.02 0-1.82-.04.3.54.62 1.44.68 2.02 1.22 0 2.04-.06 2.66-.4.6-.34.76-.94.76-1.88v-4.22c.5.22 1.22.6 1.56.84.3-.44.56-.96.8-1.54h1.66v1.8h-3.7v2.04h3.7v3.3h2.26v-3.3h3.4v-2.04zm7.64-11.02c-.84-.7-2.54-1.56-3.8-2.04l-1.32 1.78c1.32.54 2.96 1.5 3.74 2.2l1.38-1.94zm-1.22 5.42c-.86-.68-2.54-1.5-3.84-1.98l-1.22 1.8c1.28.54 2.96 1.46 3.72 2.16l1.34-1.98zm-.58 2.88c-1.2 2.32-2.72 4.8-3.78 6.3l2.02 1.6c1.18-1.94 2.44-4.22 3.52-6.28l-1.76-1.62zm7.98-5.24h2.3v3.62h-2.36c.04-.68.06-1.34.06-2v-1.62zm6.12 5.86v-2.24h-1.5v-5.86h-4.62v-3.04h-2.38v3.04h-3.5v2.24h3.5v1.62c0 .68-.02 1.34-.06 2h-4.44v2.24h4.08c-.58 2.22-1.9 4.26-4.9 5.84.6.36 1.54 1.18 1.98 1.7 3.48-1.96 4.86-4.66 5.4-7.54h6.44zm-5.96 1.06c1.34 2.04 3.16 4.82 3.98 6.46l2.12-1.22c-.88-1.6-2.8-4.3-4.14-6.24l-1.96 1zm25.58-6.68v-2.34h-8.2l1.38-.6c-.3-.76-.9-1.96-1.44-2.86l-2.34.88c.4.8.88 1.8 1.2 2.58h-8.44v2.34h5.04c-.2 4.22-.58 8.72-5.38 11.26.64.5 1.38 1.32 1.74 1.98 3.6-2.08 5.08-5.2 5.76-8.54h6.3c-.28 3.58-.64 5.3-1.16 5.74-.28.22-.54.26-.98.26-.6 0-2-.02-3.36-.16.46.66.8 1.66.84 2.34 1.36.06 2.68.08 3.46 0 .9-.1 1.54-.28 2.14-.94.82-.86 1.24-3.08 1.6-8.5.06-.32.08-1.04.08-1.04h-8.58c.1-.8.14-1.6.2-2.4h10.14zm13 1.36c-.44.44-.96.8-1.54 1.12-1.06-.22-2.18-.44-3.28-.62.18-.16.34-.32.5-.5h4.32zm6.96 3.32c-1.5-.52-3.46-1.08-5.62-1.6.56-.46 1.08-1.04 1.52-1.72h4.08V36.1h-3.14c.1-.24.2-.5.28-.76l-2.32-.46c-.14.42-.3.84-.48 1.22h-3.86c.38-.44.7-.88 1.02-1.3l-1.44-.44h7.34v1.1h2.3V32.4h-7.14c-.24-.46-.52-.96-.78-1.34l-2.52.5c.14.26.28.54.42.84h-7.1v3.06h2.2v-1.1H612c-.36.56-.78 1.14-1.26 1.74h-5.62v1.86h3.98c-.56.62-1.14 1.18-1.66 1.64 1.18.18 2.3.38 3.42.6-1.64.28-3.58.44-5.88.5.34.5.64 1.24.82 1.96 3.94-.22 6.92-.64 9.16-1.56 2.28.56 4.26 1.14 5.68 1.72l2.26-1.54zm.2 2.02h-7.96v-1.38h-2.38v1.38h-7.8v1.96h4.36c-.92 1.04-2.7 2-4.4 2.56.56.38 1.54 1.12 2 1.58 1.7-.76 3.66-2 4.82-3.36l-2.34-.78h3.36v4.48h2.38v-4.48h2.3l-1.36 1.14c1.74.9 3.98 2.28 5.04 3.24l1.86-1.66c-1.04-.84-2.94-1.94-4.5-2.72h4.62V43.3zm140.68-6.16h-6.12v1.8h6.12v-.98c.46.4 1.08 1.1 1.3 1.48 2.5-1.34 3.06-3.58 3.06-5.52v-.02h2.4v2.14c0 1.98.36 2.82 2.24 2.82h1.04c.4 0 .84-.02 1.12-.14-.06-.56-.12-1.38-.16-1.98-.26.08-.7.14-.98.14h-.8c-.24 0-.28-.24-.28-.82V31.7h-6.74v2.14c0 1.3-.24 2.68-2.2 3.76v-.46zm.82-2.78h-3.8l1.34-.72c-.3-.74-.92-1.84-1.46-2.66l-1.86.86c.46.76.98 1.76 1.28 2.52h-3.3v1.88h7.8v-1.88zm-.78 5.46h-6.16v1.8h6.16v-1.8zm7.68 2.1a9.408 9.408 0 01-2.14 2.84c-.98-.82-1.78-1.76-2.36-2.84h4.5zm-9.76 4.8h-2.04v-2.24h2.04v2.24zm11.3-7.12l-.4.1h-8.34v2.22h1.86l-1.3.46c.7 1.42 1.58 2.68 2.62 3.72-1.1.64-2.34 1.1-3.68 1.42v-4.94h-6.12v6.9h2.02v-.84h4.1v-.72c.36.56.72 1.28.92 1.78 1.72-.46 3.28-1.14 4.64-2.02 1.34.88 2.88 1.54 4.64 1.96.32-.64.96-1.66 1.46-2.14-1.54-.3-2.92-.8-4.14-1.44 1.44-1.46 2.54-3.36 3.2-5.82l-1.48-.64zm12.56-5.24h-4.22l1.32-.72c-.3-.74-.92-1.84-1.46-2.66l-1.86.86c.46.76.98 1.76 1.28 2.52h-3.48v1.88h8.42v-1.88zm-.84 4.58v-1.8h-6.7v1.8h6.7zm-.04.88h-6.66v1.8h6.66v-1.8zm-1.98 4.66v2.24h-2.6v-2.24h2.6zm2.06-1.9h-6.66v6.9h2v-.84h4.66v-6.06zm10.4-4.88h-3.7v-6.28h-2.48v6.28h-3.5v2.34h3.5v9.7h2.48v-9.7h3.7V37.7zm14.84-.6h1.38c-.02 2.16-.02 4.28.06 6.14-.46-.5-1.04-1.06-1.7-1.58.2-1.54.26-3.04.26-4.38v-.18zm-7.22.98c-.18.76-.5 1.84-.8 2.6h-2.3l.92-.36c-.12-.62-.52-1.5-.92-2.24h3.1zm7.22-3.18v-3.8h-2.22v3.8h-1.92v2.18h1.92v.16c0 .88-.02 1.86-.12 2.84-.44-.32-.86-.62-1.28-.86l-1.18 1.52v-.06h-1.32c.28-.64.58-1.38.88-2.14l-1.82-.46h2.64v-2h-3.16V34.8h2.62v-1.96h-2.62v-1.78h-2.2v1.78h-2.76v1.96h2.76v1.28h-3.38v2h2.1l-1.04.38c.34.68.68 1.56.86 2.22h-1.34v2h2.88v1.38h-3.48v2h3.48v3.62h2.2v-3.62h3.26v-2h-3.26v-1.38h2.7v-1.76c.68.48 1.42 1.02 2.1 1.6-.46 2.12-1.38 4.2-3.14 5.82.56.28 1.42 1 1.82 1.42 1.66-1.54 2.66-3.5 3.22-5.56.46.46.86.88 1.14 1.26l1.14-1.52c.2 2.96.66 5.16 1.76 5.6 1.26.52 2.26-.22 2.42-3.46-.34-.28-.94-1.1-1.3-1.66-.02 1.44-.12 2.88-.22 2.86-.68-.24-.66-7.12-.5-12.38h-3.64zm24.62-2.7h-9.72v2.26h9.72V32.2zm-13.56-1.14c-.96 1.4-2.86 3.2-4.52 4.26.42.46 1.02 1.42 1.32 1.94 1.9-1.32 4.06-3.38 5.5-5.26l-2.3-.94zm.76 4.32c-1.28 2.26-3.46 4.58-5.5 5.98.48.5 1.28 1.58 1.62 2.06.54-.44 1.08-.94 1.64-1.48v7.82H822V39.32c.8-1 1.54-2.04 2.14-3.06l-2.28-.88zm13.3 2.32H824.1v2.26h5.9v6.96c0 .3-.14.38-.5.38-.36.02-1.68.02-2.82-.04.32.68.62 1.72.72 2.42 1.78 0 3.06-.04 3.9-.4.88-.36 1.12-1.02 1.12-2.3v-7.02h2.74V37.7z" fill="#1C1C1E"/><path d="M960 78l-10-5.773v11.546L960 78zM0 79h951v-2H0v2z" fill="#2F80ED"/><circle cx="6" cy="78" r="6" fill="#2F80ED"/><circle cx="257" cy="78" r="6" fill="#2F80ED"/><circle cx="508" cy="78" r="6" fill="#2F80ED"/><circle cx="759" cy="78" r="6" fill="#2F80ED"/><path d="M10.272 110.84H7.28v-1.552h2.992v1.552zm0 2.592H7.28v-1.584h2.992v1.584zm0 2.672H7.28v-1.664h2.992v1.664zm-4.144 1.952H7.28v-.928h7.84v-1.024h-3.712v-1.664h2.88v-1.008h-2.88v-1.584h2.912v-1.008h-2.912v-1.552h3.44v-1.04h-2.8c-.24-.672-.72-1.584-1.168-2.288l-1.088.32c.336.608.72 1.36.96 1.968H7.568c.4-.736.752-1.52 1.04-2.304l-1.088-.304c-.72 2.016-1.92 3.92-3.312 5.136.224.24.592.784.736 1.024.4-.4.8-.848 1.184-1.344v7.6zM3.52 108.28c-.192-.688-.56-1.744-.848-2.576l-1.04.32c.256.832.624 1.92.816 2.624l1.072-.368zm.544 4.752l-.208.048H2.752c.432-1.104.928-2.448 1.328-3.6H.8v1.072h1.776c-.432 1.264-.928 2.624-1.376 3.568h2.096c-.256 1.152-.672 2.416-1.152 3.328-.48.32-1.04.976-1.6 1.776l.816 1.072c.464-1.008 1.008-2.016 1.36-2.016.368 0 .96.544 1.6.928 1.184.704 2.576.88 4.688.88 1.888 0 4.928-.096 6.112-.176.032-.352.208-.912.368-1.232-1.792.176-4.384.336-6.432.336-1.904 0-3.344-.112-4.48-.8-.592-.352-.976-.656-1.28-.832.544-1.168 1.008-2.72 1.312-4.128l-.544-.224zm27.795-6.448H24.05v1.12h7.808v-1.12zm-10.48-.976c-.8 1.136-2.336 2.576-3.664 3.472.208.224.528.688.704.944 1.424-1.008 3.056-2.56 4.096-3.968l-1.136-.448zm.656 3.408c-1.104 1.808-2.832 3.648-4.48 4.816.24.24.656.752.832.992.592-.464 1.2-1.04 1.808-1.664v7.104h1.184v-8.416c.656-.784 1.264-1.6 1.76-2.416l-1.104-.416zm10.288 1.936h-8.96v1.136h5.344v6.592c0 .272-.096.336-.4.352-.304.016-1.36.016-2.496-.016.176.336.336.832.384 1.152 1.568 0 2.464 0 3.008-.176.528-.192.704-.56.704-1.296v-6.608h2.416v-1.136zm10.53 3.264v-2.656h4.305v2.656h-4.304zm-5.071 0c.048-.592.064-1.184.064-1.712v-.944h3.824v2.656h-3.888zm3.888-6.336v2.56h-3.824v-2.56h3.824zm5.488 2.56h-4.304v-2.56h4.304v2.56zm1.168-3.696H36.678v5.76c0 2.224-.16 5.04-1.92 7.024.256.144.736.544.912.784 1.216-1.36 1.76-3.184 2-4.96h4v4.72h1.184v-4.72h4.304v3.248c0 .304-.112.4-.432.416-.288 0-1.376.016-2.496-.032.16.32.352.832.4 1.152 1.504.016 2.432 0 2.976-.192.512-.208.72-.56.72-1.328v-11.872zm6.93 7.296c.065-.672.08-1.296.08-1.888v-1.296h8.113v3.184h-8.192zm.08-4.288v-1.568c3.089-.384 6.497-.928 8.817-1.632l-.976-.896c-2.064.672-5.808 1.296-9.024 1.648v4.848c0 2.272-.208 5.248-2.24 7.312.272.144.72.576.912.8 1.392-1.392 2.016-3.28 2.304-5.104h8.32v.848h1.184v-6.256h-9.296zm17.46-2.144c-.224-.56-.704-1.392-1.136-2.048l-.848.464c.416.656.88 1.552 1.104 2.128l.88-.544zm2.048.72H69.18v.976h5.664v-.976zm-5.04 5.12h4.416v-.944h-4.416v.944zm0-3.024v.944h4.4v-.944h-4.4zm3.424 5.2v2.64h-2.496v-2.64h2.496zm.992 3.632v-4.624h-4.448v5.376h.96v-.752h3.488zm9.296-9.744v-1.136h-3.824l.496-.16c-.128-.64-.48-1.68-.832-2.48l-1.008.272c.304.752.608 1.712.736 2.368H75.26v1.136h2.16c-.096 3.968-.384 7.872-3.296 9.92.272.176.608.56.784.832 2.24-1.648 3.088-4.272 3.424-7.216h3.312c-.176 3.904-.384 5.424-.704 5.776-.144.176-.288.208-.56.192-.304 0-1.072 0-1.888-.08.192.32.32.784.352 1.136.784.048 1.584.064 2 .016.464-.048.768-.16 1.072-.528.464-.576.656-2.288.88-7.072 0-.16.016-.56.016-.56h-4.384c.064-.8.096-1.6.128-2.416h4.96zm15.618-2.864c-.368.768-1.023 1.904-1.535 2.592l.864.384c.528-.64 1.2-1.648 1.76-2.528l-1.088-.448zm1.249 5.328c-.88-.832-2.544-1.968-3.984-2.816.207-.96.287-2.112.32-3.536h-1.104c-.08 3.968-.432 5.488-3.872 6.352.24.224.544.656.656.96 2.031-.592 3.088-1.408 3.68-2.768 1.344.864 2.832 1.968 3.616 2.736l.688-.928zm-1.984 4.64c.543-.672 1.248-1.76 1.824-2.704l-1.088-.432c-.369.832-1.056 2.048-1.585 2.784l.849.352zm-3.84-.256c-.368-.72-1.168-1.968-1.808-2.912l-.849.512c.624.96 1.392 2.24 1.793 3.008l.864-.608zm.16-6.96c-.352-.688-1.136-1.872-1.76-2.768l-.849.512c.624.912 1.377 2.16 1.745 2.88l.864-.624zm-4.816-1.728c-.209-.544-.657-1.408-1.056-2.064l-.976.368c.4.656.816 1.552 1.008 2.112l1.023-.416zm2.047.656h-5.79v.976h5.791v-.976zm-.624 3.04v-.944h-4.543v.944h4.543zm0 1.136h-4.543v.944h4.543v-.944zm-.991 3.12v2.64h-2.448v-2.64h2.448zm1.056 3.632v-4.624h-4.56v5.376h1.055v-.752h3.505zm5.2-7.04h-1.12v1.696c0 1.52-.305 3.856-4.145 5.488.289.208.625.592.785.816 2.447-1.104 3.584-2.48 4.08-3.808.784 1.808 1.983 3.104 3.84 3.76.16-.304.48-.752.736-.976-2.288-.688-3.6-2.4-4.192-4.784.016-.176.016-.336.016-.496v-1.696zm17.474-2.848c-.352 1.776-1.12 3.328-2.272 4.32.288.128.768.464.992.64.544-.512 1.008-1.152 1.408-1.888.944.784 1.952 1.68 2.496 2.288l.848-.816c-.64-.656-1.872-1.68-2.88-2.464.224-.592.416-1.216.544-1.888l-1.136-.192zm-7.536 0c-.464 2.064-1.456 3.776-2.912 4.864.272.176.736.56.944.768.784-.656 1.472-1.504 2.016-2.512.576.56 1.168 1.152 1.488 1.552l.816-.816c-.4-.464-1.136-1.168-1.808-1.76.24-.592.464-1.216.624-1.888l-1.168-.208zm4.576-.368h6.352v-1.168h-6.352v-2.208h-1.216v2.208h-6.128V109h6.128v3.904c-1.472 2.32-4.112 4.528-6.688 5.584.272.24.656.704.832.992 2.128-.992 4.272-2.72 5.856-4.752v5.488h1.216v-5.536c1.552 2.08 3.728 3.872 5.936 4.848.192-.32.576-.8.88-1.056-2.72-1.024-5.392-3.28-6.816-5.68V109zm20.579 1.728c-.32 0-.368-.144-.368-.528v-2.224h-1.088v2.208c0 1.152.304 1.552 1.472 1.552h2.032c.416 0 .848-.016 1.04-.08a21.371 21.371 0 01-.08-1.008c-.256.048-.72.08-.992.08h-2.016zm-5.648-3.2h7.136v1.776h1.136v-2.816h-9.376v2.88h1.104v-1.84zm1.664.448c-.16 1.888-.752 2.784-3.424 3.28.224.192.512.64.608.912 2.96-.656 3.696-1.856 3.904-4.192H127.7zm-3.264-.368c-.576-.544-1.728-1.28-2.624-1.728l-.704.816c.896.496 2.048 1.28 2.608 1.824l.72-.912zm-.88 4.192c-.56-.512-1.728-1.216-2.608-1.632l-.672.816c.896.464 2.016 1.232 2.592 1.76l.688-.944zm-.304 2.224c-.784 1.792-1.84 3.872-2.56 5.088l.992.752c.816-1.472 1.744-3.424 2.464-5.088l-.896-.752zm11.312.512v-1.088h-4.448v-1.728h-1.168v1.728h-4.288v1.088h3.456c-.96 1.584-2.544 2.976-4.24 3.68.272.224.64.656.816.944 1.664-.8 3.216-2.256 4.256-3.984v5.04h1.168v-5.104c1.04 1.648 2.592 3.152 4.112 4 .176-.304.544-.72.8-.944-1.536-.72-3.136-2.112-4.112-3.632h3.648zm5.843-7.952v1.184h3.936c.032.608.096 1.312.208 2.048l-.704-.112c-.976 4.48-2.944 7.696-6.48 9.536.32.208.848.704 1.072.944 3.184-1.872 5.2-4.784 6.384-8.928.72 3.024 2.416 6.528 6.352 8.912.208-.288.688-.8.96-.992-6.272-3.728-6.64-9.76-6.64-12.592h-5.088zm26.723.192l-.288.08h-11.424v1.168h10.288c-1.2 1.136-2.912 2.384-4.448 3.136v7.504c0 .288-.096.368-.432.384-.368.016-1.6.032-2.928-.016.192.32.416.848.48 1.184 1.616 0 2.672-.016 3.28-.208.624-.176.832-.528.832-1.344v-6.912c1.984-1.072 4.16-2.736 5.568-4.288l-.928-.688zm8.867 8.336v-1.872h1.44v1.872h-1.44zm-2.304-1.872h1.44v1.872h-1.472c.032-.432.032-.864.032-1.248v-.624zm2.4-5.264c-.192.56-.464 1.184-.704 1.664h-1.84c.288-.512.56-1.072.8-1.664h1.744zm-.096 2.608h1.44v1.76h-1.44v-1.76zm-2.304 0h1.44v1.76h-1.44v-1.76zm11.024-3.152c-.096 1.856-.24 2.592-.416 2.8-.112.144-.24.16-.448.144-.224 0-.816 0-1.44-.064.144.272.24.688.272.992.656.032 1.312.048 1.648.016.416-.032.656-.144.864-.4.352-.384.48-1.408.608-4.048.016-.144.016-.448.016-.448h-6.912v1.008h2.16c-.304 1.504-.944 2.768-2.624 3.504v-1.296h-2c.368-.688.736-1.504 1.008-2.208l-.704-.448-.176.048h-1.872c.128-.384.256-.784.368-1.184l-1.104-.24c-.48 1.952-1.36 3.84-2.496 5.056.256.16.72.528.896.72.112-.128.224-.272.336-.416v2.896c0 1.792-.112 4.16-1.184 5.84.24.112.688.368.848.544.752-1.152 1.088-2.72 1.232-4.208h3.84v2.88c0 .208-.08.272-.304.288-.208.016-.928.016-1.76-.016.16.272.336.736.384 1.008 1.104 0 1.744-.016 2.144-.192.416-.176.544-.512.544-1.088v-7.968c.224.192.512.544.64.8 1.968-.896 2.736-2.432 3.072-4.32h2.56zm1.536 8.688h-3.04v-1.968h2.768v-1.024h-2.768v-1.632h-1.136v1.632h-1.392c.128-.416.24-.848.336-1.28l-1.008-.208c-.288 1.36-.768 2.672-1.472 3.584.272.128.736.352.928.496.304-.432.592-.976.832-1.568h1.776v1.968h-3.36v1.024h3.36v2.992h1.136v-2.992h3.04v-1.024zm10.419-1.904v-2.656h4.304v2.656h-4.304zm-5.072 0c.048-.592.064-1.184.064-1.712v-.944h3.824v2.656H191.6zm3.888-6.336v2.56h-3.824v-2.56h3.824zm5.488 2.56h-4.304v-2.56h4.304v2.56zm1.168-3.696h-11.648v5.76c0 2.224-.16 5.04-1.92 7.024.256.144.736.544.912.784 1.216-1.36 1.76-3.184 2-4.96h4v4.72h1.184v-4.72h4.304v3.248c0 .304-.112.4-.432.416-.288 0-1.376.016-2.496-.032.16.32.352.832.4 1.152 1.504.016 2.432 0 2.976-.192.512-.208.72-.56.72-1.328v-11.872zM3.984 138.04c.064-.672.08-1.296.08-1.888v-1.296h8.112v3.184H3.984zm.08-4.288v-1.568c3.088-.384 6.496-.928 8.816-1.632l-.976-.896c-2.064.672-5.808 1.296-9.024 1.648v4.848c0 2.272-.208 5.248-2.24 7.312.272.144.72.576.912.8 1.392-1.392 2.016-3.28 2.304-5.104h8.32v.848h1.184v-6.256H4.064zm14.336-.432h4.976v3.488h1.152v-3.488h5.056v2.48h1.168v-3.408h-6.224v-1.184h5.488v-.912H17.952v.912h5.424v1.184h-6.112v3.408H18.4v-2.48zm10.8 2.88c-.88-.304-2.496-.64-3.712-.768l-.288.72c1.232.16 2.864.544 3.728.848l.272-.8zm-.768-2.672c-.784.272-2.112.768-3.024.96l.416.608c.912-.176 2.208-.512 3.12-.88l-.512-.688zm-9.344.72c1.04.192 2.368.608 3.088.912l.336-.72c-.72-.304-2.064-.672-3.072-.832l-.352.64zm-.064 2.704c1.056-.192 2.24-.432 3.488-.688l-.032-.752c-1.44.208-2.8.416-3.792.528l.336.912zm11.952 1.312v-.976H17.072v.976h6.192c-.096.384-.224.784-.336 1.152H18.32v4.784h1.136v-3.808h2.368v3.712h1.088v-3.712h2.416v3.712h1.088v-3.712h2.496v2.64c0 .144-.048.192-.224.208-.176.016-.704.016-1.344 0 .128.288.304.688.368.992.864 0 1.456 0 1.84-.192.416-.176.512-.448.512-.992v-3.632h-6c.144-.352.288-.752.416-1.152h6.496zm14.288-4.096c-.72.992-1.92 2.256-2.912 3.168a17.755 17.755 0 01-1.776-3.68v-.208h6.4v-1.152h-1.968l.672-.768c-.64-.544-1.92-1.296-2.928-1.808l-.704.752c.96.512 2.16 1.264 2.816 1.824h-4.288v-2.64h-1.2v2.64h-6.288v1.152h6.288v4.432c-2.416 1.376-5.024 2.832-6.64 3.664l.768 1.072c1.632-.944 3.808-2.24 5.872-3.52v3.52c0 .304-.112.384-.4.4-.32.016-1.36.016-2.448-.016.16.352.352.912.416 1.248 1.408 0 2.352-.032 2.88-.24.528-.192.752-.56.752-1.392v-6.352c1.376 2.944 3.376 5.376 5.952 6.624.208-.32.592-.784.864-1.008-1.728-.752-3.248-2.064-4.448-3.664 1.088-.896 2.368-2.192 3.344-3.328l-1.024-.72zm-7.744 3.184c-.512-.864-1.68-2.096-2.688-2.96l-.896.624c1.008.896 2.128 2.176 2.624 3.04l.96-.704zm223.296-23.2c0 .144-.032.208-.208.208-.16.016-.64.016-1.2-.016.128.24.256.56.304.816.768 0 1.328 0 1.68-.144.352-.16.448-.368.448-.864v-4.208h-.432v-.016h-2.096v-1.712h2.64v-1.008h-2.64v-1.488h-1.04v5.168h2.544v3.264zm-2.032-2.576c-.144.976-.384 1.936-.88 2.64.24.112.656.368.832.512.48-.768.816-1.872.976-2.992l-.928-.16zm-1.328 5.168c-1.008.88-2.928 1.936-4.448 2.56.224.256.544.656.704.896 1.552-.672 3.456-1.744 4.768-2.736l-1.024-.72zm4.08.768c1.664.816 3.44 1.872 4.528 2.64l.784-.896c-1.136-.768-2.96-1.76-4.656-2.56l-.656.816zm4.144-2.128c.144-2.368.224-6.16.24-8.96h-3.392v1.04h2.304c0 .64-.016 1.312-.032 2h-2.128v1.024h2.112c-.032.672-.048 1.328-.08 1.968h-2.112v1.008h2.08c-.032.688-.08 1.36-.112 1.92h-9.072l-.064-1.968h2.064v-1.024h-2.112l-.064-1.952h2.112v-1.024h-2.144l-.064-1.872c.816-.256 1.696-.56 2.432-.864l-.576-.976c-.768.4-1.968.88-2.96 1.232l.304 8.448H252.8v1.104h14.416v-1.104h-1.536zm14.403-5.072V111h-2.544v-.688h2.544zm0 1.984h-2.544v-.704h2.544v.704zm-2.544 1.392v-.784h2.224l-.64.432c.128.096.256.192.384.304l-1.968.048zm-3.456-1.392v-.704h2.448v.704h-2.448zm0-1.984h2.448V111h-2.448v-.688zm2.448-.608h-3.392v3.2h3.392v.8c-1.52.016-2.928.032-3.984.032l.048.752c1.984-.048 4.848-.128 7.616-.224.256.256.48.496.64.704l.672-.496c-.352-.464-1.088-1.12-1.728-1.568h1.28v-3.2h-3.536v-.672h4.096v-.736h-4.096v-.752h-1.008v.752h-4.016v.736h4.016v.672zm-2.512 6.592c.512.448 1.12 1.072 1.376 1.52l.816-.48c-.272-.416-.896-1.04-1.424-1.44l-.768.4zm7.84-1.216h-2.288v-.592h-1.008v.592h-6.24v.736h6.24v1.456c0 .16-.048.208-.24.208-.16.016-.768.016-1.408 0 .112.192.24.448.288.672.96 0 1.552 0 1.904-.112.368-.096.464-.272.464-.736v-1.488h2.288v-.736zm-10.08 3.36v-11.152h10.608v11.152h-10.608zm-1.104-12.096v13.888h1.104v-.832h10.608v.752h1.136v-13.808h-12.848zm20.627-.096l-.192.048h-3.584v13.936h1.056v-12.848h2.096c-.336 1.088-.8 2.528-1.264 3.696 1.136 1.232 1.424 2.304 1.424 3.168 0 .464-.08.896-.336 1.072-.112.096-.288.144-.496.144-.256.032-.56.016-.928-.016.192.304.288.752.304 1.056.352.016.752 0 1.072-.032.32-.032.608-.128.832-.288.432-.304.624-.992.624-1.84 0-.96-.272-2.112-1.44-3.408.544-1.264 1.12-2.912 1.6-4.224l-.768-.464zm8.96 3.904c-.72.64-1.84 1.472-2.816 2.08a7.885 7.885 0 00-1.312-2.112c.272-.256.528-.496.736-.768h4.48v-1.04h-3.04c.528-.672 1.12-1.52 1.616-2.32l-1.136-.368c-.4.8-1.12 1.952-1.712 2.688l-1.792-.016.8-.56c-.384-.608-1.184-1.424-1.936-2.016l-.88.56c.688.576 1.44 1.424 1.84 2.016h-3.12v1.056h3.536c-1.024.992-2.448 1.856-3.792 2.432.224.208.576.624.72.848.976-.496 2.032-1.136 2.944-1.872.32.4.592.832.8 1.264-.928.848-2.624 1.808-3.856 2.304.256.224.544.624.672.864 1.104-.544 2.544-1.472 3.568-2.304.144.432.256.848.336 1.264-1.104 1.216-3.28 2.512-5.088 3.088.272.208.544.592.704.848 1.504-.592 3.312-1.664 4.56-2.784.112 1.568-.192 2.864-.672 3.296-.272.288-.528.352-.928.352-.288 0-.832-.016-1.328-.08.176.32.272.768.288 1.088.432.016.96.048 1.264.032.688 0 1.104-.16 1.568-.608.96-.816 1.328-3.616.48-6.288l.304-.176c.64 1.936 1.744 3.968 2.832 5.12.176-.272.544-.624.784-.8-1.072-1.008-2.224-2.976-2.784-4.816a28.727 28.727 0 002.112-1.504l-.752-.768zm3.779 1.968v1.296h14.528v-1.296h-14.528zm26.419.832v3.024h-4.192v-3.024h4.192zm1.12 4.048v-5.056h-6.416v6.208h1.104V117h5.312zm.848-7.76h-8.064v1.04h8.064v-1.04zm2.512-2.8h-13.12v13.824h1.152v-12.688h10.8v11.152c0 .256-.096.352-.384.368-.272.016-1.2.016-2.208-.016.192.32.384.832.432 1.168 1.376 0 2.176-.032 2.672-.224.48-.208.656-.56.656-1.296V106.44zm5.043 2.112h10.896v2.336h1.2v-3.472h-5.696c-.192-.528-.592-1.312-.944-1.904l-1.152.336c.256.464.544 1.072.736 1.568h-6.208v3.472h1.168v-2.336zm6.064 6.832h4.736v-1.12h-4.736v-2.608h4.08v-1.136h-9.264v1.136h3.968v6.608c-1.296-.496-2.32-1.424-2.928-3.12.144-.64.272-1.328.368-2.064l-1.184-.128c-.352 2.88-1.216 5.152-2.992 6.512.288.176.768.592.96.816 1.056-.912 1.84-2.128 2.384-3.616 1.456 2.72 3.84 3.296 7.168 3.296h3.696c.064-.352.256-.896.448-1.2-.768.032-3.504.032-4.08.032-.944 0-1.824-.048-2.624-.208v-3.2zm23.57-4.256h-6.496v-1.024h4.976v-.896h-4.976v-.976h5.824v-.928h-3.296c.288-.4.64-.912.96-1.392l-1.264-.336c-.208.496-.608 1.232-.912 1.728h-3.824l.112-.048c-.192-.48-.656-1.152-1.12-1.632l-1.024.352c.32.4.656.896.88 1.328h-3.28v.928h5.744v.976h-4.896v.896h4.896v1.024h-6.432v.944h14.128v-.944zm-.864 2.576c-.56-.48-1.68-1.072-2.592-1.408l-.64.704c.912.384 2.016 1.008 2.544 1.488l.688-.784zm-1.344 2.08a7.224 7.224 0 01-1.712 1.52 8.654 8.654 0 01-.8-1.728h4.768v-.928h-5.024c-.16-.72-.272-1.504-.304-2.336h-1.152c.048.816.144 1.6.304 2.336h-3.488v-1.232c.96-.112 1.856-.272 2.592-.448l-.72-.752c-1.424.368-4.032.656-6.208.784.112.208.24.544.272.784a66.87 66.87 0 002.928-.224v1.088h-3.392v.928h3.392v1.168c-1.312.096-2.512.176-3.456.24l.112.96 3.344-.304v1.376c0 .224-.08.272-.32.272-.24.016-1.072.016-1.936-.016.128.272.304.672.368.944 1.2 0 1.952 0 2.416-.16.448-.128.608-.4.608-1.008v-1.504c.944-.096 1.904-.176 2.864-.272v-.848l-2.864.224v-1.072h3.728c.256.864.592 1.632.992 2.288-1.104.576-2.368 1.04-3.616 1.36.192.224.496.72.624.944 1.216-.384 2.448-.88 3.568-1.488.832.976 1.84 1.536 2.976 1.536 1.008-.016 1.424-.448 1.6-2.144a2.733 2.733 0 01-.912-.464c-.08 1.136-.208 1.504-.64 1.52-.72.016-1.424-.368-2.048-1.04.848-.56 1.584-1.216 2.144-1.952l-1.008-.352zm16.755-5.552a8.89 8.89 0 01-.944 1.488l-2.72.16a117.2 117.2 0 001.888-2.992h4.512v-1.104h-3.584l.16-.064c-.128-.592-.528-1.504-.928-2.176l-1.104.336c.32.592.624 1.328.8 1.904h-4.176v1.104h3.04c-.544.928-1.44 2.368-1.744 2.688-.272.288-.72.4-1.024.464.096.256.288.848.32 1.12.304-.096.768-.192 3.632-.384a14.817 14.817 0 01-4.272 3.008c.224.224.544.64.672.896 2.816-1.344 5.232-3.616 6.592-6.048l-1.12-.4zm-6.4 3.024c-.272-.448-1.44-2.24-1.872-2.832v-.624h1.808v-1.12h-1.808v-3.072h-1.136v3.072h-2.128v1.12h2.048c-.48 2.176-1.472 4.704-2.464 6.032.224.288.512.8.624 1.152.72-1.024 1.408-2.672 1.92-4.4v7.632h1.136v-8.336c.432.784.928 1.712 1.152 2.208l.72-.832zm7.568-.176c-1.36 2.688-4.4 4.976-8.112 6.176.224.24.56.704.704.976 2-.688 3.792-1.664 5.28-2.864 1.056.88 2.272 1.984 2.88 2.688l.912-.784c-.64-.72-1.904-1.776-2.96-2.624 1.008-.944 1.856-1.984 2.512-3.136l-1.216-.432zm8.899-6.128c1.504 1.072 3.36 2.64 4.24 3.632l.848-.88c-.912-1.008-2.816-2.512-4.304-3.536l-.784.784zm6.64 4.304c.896 1.872 1.76 4.384 2.08 6.032l1.168-.464c-.336-1.648-1.216-4.096-2.144-6l-1.104.432zm-9.936-.016c-.224 1.872-.752 4.368-1.44 6l1.184.496c.656-1.696 1.152-4.4 1.408-6.272l-1.152-.224zm2.544-1.2v7.872c0 1.584.48 2.016 2.208 2.016h3.216c1.776 0 2.144-.88 2.32-3.904-.336-.096-.832-.304-1.12-.528-.128 2.752-.272 3.312-1.264 3.312h-3.056c-.912 0-1.104-.144-1.104-.88v-7.888h-1.2zm18.467-2.784v1.344h-3.44v-1.344h3.44zm-3.44 3.68v-1.456h3.44v1.456h-3.44zm4.576.96v-5.6h-5.744v13.936h1.168v-8.336h4.576zm2.544 2.432v2.64h-3.76v-2.64h3.76zm1.104 3.648v-4.656h-5.952v5.616h1.088v-.96h4.864zm-1.088-7.024v-1.472h3.552v1.472h-3.552zm3.552-3.712v1.36h-3.552v-1.36h3.552zm1.2-.944h-5.888v5.6h4.688v6.72c0 .304-.096.4-.384.4-.32.016-1.36.032-2.4-.016.16.32.352.88.416 1.216 1.392 0 2.304-.016 2.864-.208.512-.208.704-.608.704-1.392v-12.32zm15.859 4.304h-3.808v-1.2h3.808v1.2zm0 2.016h-3.808v-1.184h3.808v1.184zm0 2.048h-3.808v-1.2h3.808v1.2zm-4.88-6.144v7.024h5.984v-7.024h-2.96c.144-.368.304-.8.448-1.216h3.152v-.912h-7.232v.912h2.976c-.096.4-.224.832-.352 1.216h-2.016zm3.536 7.744c.88.592 1.92 1.504 2.448 2.144l.864-.56c-.528-.608-1.568-1.488-2.496-2.048l-.816.464zm-2.208-.448c-.608.736-1.632 1.456-2.64 1.92.24.16.624.56.8.752 1.008-.576 2.144-1.472 2.832-2.352l-.992-.32zm-3.872-7.472h-3.12v-1.184h3.12v1.184zm0 2.048h-3.12v-1.216h3.12v1.216zm1.088-4.112h-5.28v4.992h5.28v-4.992zm-2.032 9.712h2.704v-.912h-2.704v-1.712h2.976v-.928h-7.168v.928h3.168v4.256c-.48-.384-.88-.896-1.184-1.552.064-.592.096-1.216.128-1.824h-.992c-.08 1.952-.352 4.096-1.312 5.248.256.176.608.544.752.768.608-.736.992-1.76 1.216-2.912 1.44 2.144 3.824 2.528 7.28 2.528h5.136c.064-.32.256-.768.432-1.024-.928.032-4.864.032-5.568.032-1.968-.016-3.6-.112-4.864-.656v-2.24zm18.803 0c1.68-.592 2.768-1.904 2.768-3.632 0-1.12-.48-1.84-1.36-1.84-.656 0-1.216.4-1.216 1.152 0 .752.544 1.136 1.2 1.136.096 0 .176 0 .272-.016-.08 1.088-.784 1.84-2.016 2.352l.352.848zm-187.84 17.968h2.224v8.368h-2.224v-8.368zm3.392 8.368v-8.368h4.448v-1.152h-3.68c.56-.768 1.216-1.84 1.744-2.8l-1.264-.384a18.877 18.877 0 01-1.632 2.944l.656.24h-5.424l1.008-.448c-.256-.768-.928-1.872-1.6-2.72l-1.04.416c.624.816 1.28 1.984 1.536 2.752h-3.664v1.152h4.352v8.368h-4.768v1.2h14.192v-1.2h-4.864zm-8.144-6.544c.752 1.584 1.376 3.664 1.52 5.04l1.136-.288c-.192-1.376-.816-3.456-1.6-5.04l-1.056.288zm9.984 5.072c.624-1.36 1.392-3.456 1.936-5.2l-1.248-.304c-.384 1.584-1.136 3.824-1.76 5.184l1.072.32zm17.808-8.576c-.448-.64-1.424-1.6-2.208-2.272l-.88.592c.784.688 1.712 1.696 2.144 2.368l.944-.688zm-7.536 5.296l-.144-1.088c-.672.176-1.344.384-1.984.56v-3.104h1.952v-1.12h-1.952v-3.2h-1.152v3.2h-2.288v1.12h2.288v3.424c-.928.256-1.792.496-2.48.656l.352 1.152c.64-.192 1.36-.384 2.128-.624v4.16c0 .224-.096.304-.32.304-.192 0-.88.016-1.648-.016.16.32.32.8.368 1.104 1.104 0 1.76-.032 2.176-.224.416-.176.576-.496.576-1.168V138.2l2.128-.624zm6.864-2a13.45 13.45 0 01-2.272 3.488c-.336-1.184-.624-2.608-.832-4.208l4.896-.528-.128-1.088-4.896.496a74.716 74.716 0 01-.288-4.064h-1.184c.064 1.472.176 2.864.304 4.192l-2.448.256.112 1.12 2.448-.256c.256 1.952.576 3.68 1.056 5.088-1.216 1.136-2.624 2.096-4.096 2.672.336.24.704.624.928.928 1.264-.576 2.512-1.424 3.616-2.432.768 1.76 1.84 2.8 3.264 2.912.8.064 1.424-.736 1.792-3.328-.256-.096-.768-.384-1.008-.656-.16 1.776-.416 2.64-.848 2.608-.912-.096-1.664-.992-2.256-2.464 1.168-1.248 2.144-2.688 2.816-4.144l-.976-.592zm15.776 1.984v4.56h-4.384v-5.568h5.04v-5.488h-1.28v4.32h-3.76v-5.76h-1.28v5.76h-3.664v-4.304h-1.232v5.472h4.896v5.568h-4.32v-4.56h-1.28v5.728h11.264v.912h1.28v-6.64h-1.28zm6.752 4.32v-2.624h8.368v2.624h-8.368zm8.368-6.384v2.624h-8.368v-2.624h8.368zm0-3.728v2.592h-8.368v-2.592h8.368zm-9.536-1.152v13.52h1.168v-1.088h8.368v1.088h1.232v-13.52h-10.768zm24.624 1.792h-1.44v-1.072h1.44v1.072zm2.464.912v1.904h-1.568v-1.904h1.568zm-3.904 0h1.44v1.904h-1.44v-1.904zm-2.336 0h1.424v1.904h-1.424v-1.904zm1.424-.912h-2.416v3.728h8.288v-3.728h-2.624v-1.072h2.896v-.976h-8.928v.976h2.784v1.072zm5.12 5.52v-.944h-6.848v.944h6.848zm-7.792-.448c-.256-.448-1.472-2.336-1.872-2.864v-.816h1.76v-1.12h-1.76v-3.072h-1.088v3.072h-2.24v1.12h2.064c-.48 2.112-1.488 4.64-2.48 5.952.208.288.512.8.64 1.152.752-1.12 1.472-2.912 2.016-4.752v8.064h1.088v-8.16c.432.8.944 1.76 1.152 2.272l.72-.848zm1.52 3.072c-.512.96-1.328 1.936-2.208 2.592.288.144.72.448.928.624a11.198 11.198 0 002.336-2.912l-1.056-.304zm7.36-.544v-.976h-8.96v.976h3.824v4.208h1.072v-4.208h4.064zm-2.928 1.024c.816.816 1.696 1.936 2.112 2.688l.928-.56c-.432-.736-1.344-1.808-2.176-2.624l-.864.496zm12.688-2.88c0 .144-.032.208-.208.208-.16.016-.64.016-1.2-.016.128.24.256.56.304.816.768 0 1.328 0 1.68-.144.352-.16.448-.368.448-.864v-4.208h-.432v-.016h-2.096v-1.712h2.64v-1.008h-2.64v-1.488h-1.04v5.168h2.544v3.264zm-2.032-2.576c-.144.976-.384 1.936-.88 2.64.24.112.656.368.832.512.48-.768.816-1.872.976-2.992l-.928-.16zm-1.328 5.168c-1.008.88-2.928 1.936-4.448 2.56.224.256.544.656.704.896 1.552-.672 3.456-1.744 4.768-2.736l-1.024-.72zm4.08.768c1.664.816 3.44 1.872 4.528 2.64l.784-.896c-1.136-.768-2.96-1.76-4.656-2.56l-.656.816zm4.144-2.128c.144-2.368.224-6.16.24-8.96h-3.392v1.04h2.304c0 .64-.016 1.312-.032 2h-2.128v1.024h2.112c-.032.672-.048 1.328-.08 1.968h-2.112v1.008h2.08c-.032.688-.08 1.36-.112 1.92h-9.072l-.064-1.968h2.064v-1.024h-2.112l-.064-1.952h2.112v-1.024h-2.144l-.064-1.872c.816-.256 1.696-.56 2.432-.864l-.576-.976c-.768.4-1.968.88-2.96 1.232l.304 8.448H332.8v1.104h14.416v-1.104h-1.536zm13.152-7.104h-1.76v-.944h1.76v.944zm2.752.784v1.536h-1.76v-1.536h1.76zm-4.512 0h1.76v1.536h-1.76v-1.536zm-2.688 0h1.712v1.536h-1.712v-1.536zm1.712-.784h-2.752v3.088h9.312v-3.088h-2.832v-.944h3.328v-.912h-10.176v.912h3.12v.944zm-1.312 7.904h6.544v.944h-6.544v-.944zm0-1.648h6.544v.912h-6.544v-.912zm0-1.632h6.544v.896h-6.544v-.896zm7.696 4.976v-5.744h-8.8v5.744h8.8zm-10.72-12.176c-.768 2.464-2.032 4.896-3.408 6.496.192.288.512.912.624 1.2a16.296 16.296 0 001.504-2.144v8.96h1.136v-11.088c.48-1.008.896-2.064 1.248-3.12l-1.104-.304zm4.464 12.288c-.832.528-2.368 1.136-3.76 1.44.224.208.512.576.672.8 1.408-.336 2.976-.96 3.952-1.648l-.864-.592zm2.608.688c1.376.48 2.784 1.104 3.6 1.584l1.008-.704c-.912-.464-2.448-1.072-3.84-1.552l-.768.672zm9.424-13.04c-.832 2.416-2.208 4.784-3.68 6.336.192.288.544.896.656 1.168.464-.528.928-1.104 1.36-1.744v8.816h1.104v-10.592c.64-1.152 1.2-2.4 1.632-3.648l-1.072-.336zm2.944 11.776h5.552v1.312H371.2v-1.312zm5.552-6.704v1.344H371.2v-1.344h5.552zm0 3.584H371.2v-1.36h5.552v1.36zm-5.552.864h5.552v1.376H371.2v-1.376zm6.656 3.568v-8.944h-3.904c.128-.432.24-.96.368-1.488h4.48v-1.04h-4.272c.112-.528.208-1.072.304-1.552l-1.264-.08c-.048.48-.128 1.056-.208 1.632h-4.08v1.04h3.904c-.112.528-.208 1.056-.304 1.488h-2.752v8.944h-1.52v1.024h10.672v-1.024h-1.424zm10.768-.192v-3.92h5.024v-1.152h-5.024v-3.504h5.68v-1.168h-5.168l.752-.544c-.624-.752-1.904-1.84-2.928-2.576l-.96.672c.96.704 2.096 1.712 2.72 2.448h-7.024v1.168h5.664v3.504h-4.928v1.152h4.928v3.92h-6.4v1.168h14.144v-1.168h-6.48zm9.712-5.088c.032-.768.064-1.648.08-2.496h3.136v-4.592h-4.512v1.072h3.408v2.448h-3.072c0 1.472-.064 3.424-.176 4.64h3.232c-.176 2.928-.336 4.08-.624 4.368-.144.16-.304.192-.56.192-.304 0-1.056-.016-1.856-.096.224.336.352.8.384 1.168.768.048 1.536.048 1.936.016.464-.048.752-.16 1.024-.48.432-.496.64-1.936.832-5.712.016-.16.016-.512.016-.512l-3.248-.016zm11.472.976c-.48.528-1.28 1.248-1.952 1.776a11.277 11.277 0 01-1.424-2.208h4.688v-1.04h-6.688v-1.312h5.792v-.912h-5.792v-1.248h5.792v-.896h-5.792v-1.248h6.384v-.976h-7.536v6.592h-1.312v1.04h.96v4.304c0 .608-.256.832-.464.96.16.24.432.736.496 1.008.288-.208.736-.432 3.776-1.52a5.73 5.73 0 01-.096-.96l-2.592.864v-4.656h1.312c1.104 2.56 3.04 4.864 5.264 6 .176-.304.544-.72.816-.944-1.088-.48-2.128-1.232-3.008-2.16a29.46 29.46 0 002.272-1.728l-.896-.736zm105.184-28.112V111h-2.544v-.688h2.544zm0 1.984h-2.544v-.704h2.544v.704zm-2.544 1.392v-.784h2.224l-.64.432c.128.096.256.192.384.304l-1.968.048zm-3.456-1.392v-.704h2.448v.704h-2.448zm0-1.984h2.448V111h-2.448v-.688zm2.448-.608h-3.392v3.2h3.392v.8c-1.52.016-2.928.032-3.984.032l.048.752c1.984-.048 4.848-.128 7.616-.224.256.256.48.496.64.704l.672-.496c-.352-.464-1.088-1.12-1.728-1.568h1.28v-3.2h-3.536v-.672h4.096v-.736h-4.096v-.752h-1.008v.752h-4.016v.736h4.016v.672zm-2.512 6.592c.512.448 1.12 1.072 1.376 1.52l.816-.48c-.272-.416-.896-1.04-1.424-1.44l-.768.4zm7.84-1.216h-2.288v-.592h-1.008v.592h-6.24v.736h6.24v1.456c0 .16-.048.208-.24.208-.16.016-.768.016-1.408 0 .112.192.24.448.288.672.96 0 1.552 0 1.904-.112.368-.096.464-.272.464-.736v-1.488h2.288v-.736zm-10.08 3.36v-11.152h10.608v11.152h-10.608zm-1.104-12.096v13.888h1.104v-.832h10.608v.752h1.136v-13.808h-12.848zm20.627-.096l-.192.048h-3.584v13.936h1.056v-12.848h2.096c-.336 1.088-.8 2.528-1.264 3.696 1.136 1.232 1.424 2.304 1.424 3.168 0 .464-.08.896-.336 1.072-.112.096-.288.144-.496.144-.256.032-.56.016-.928-.016.192.304.288.752.304 1.056.352.016.752 0 1.072-.032.32-.032.608-.128.832-.288.432-.304.624-.992.624-1.84 0-.96-.272-2.112-1.44-3.408.544-1.264 1.12-2.912 1.6-4.224l-.768-.464zm8.96 3.904c-.72.64-1.84 1.472-2.816 2.08a7.885 7.885 0 00-1.312-2.112c.272-.256.528-.496.736-.768h4.48v-1.04h-3.04c.528-.672 1.12-1.52 1.616-2.32l-1.136-.368c-.4.8-1.12 1.952-1.712 2.688l-1.792-.016.8-.56c-.384-.608-1.184-1.424-1.936-2.016l-.88.56c.688.576 1.44 1.424 1.84 2.016h-3.12v1.056h3.536c-1.024.992-2.448 1.856-3.792 2.432.224.208.576.624.72.848.976-.496 2.032-1.136 2.944-1.872.32.4.592.832.8 1.264-.928.848-2.624 1.808-3.856 2.304.256.224.544.624.672.864 1.104-.544 2.544-1.472 3.568-2.304.144.432.256.848.336 1.264-1.104 1.216-3.28 2.512-5.088 3.088.272.208.544.592.704.848 1.504-.592 3.312-1.664 4.56-2.784.112 1.568-.192 2.864-.672 3.296-.272.288-.528.352-.928.352-.288 0-.832-.016-1.328-.08.176.32.272.768.288 1.088.432.016.96.048 1.264.032.688 0 1.104-.16 1.568-.608.96-.816 1.328-3.616.48-6.288l.304-.176c.64 1.936 1.744 3.968 2.832 5.12.176-.272.544-.624.784-.8-1.072-1.008-2.224-2.976-2.784-4.816a28.727 28.727 0 002.112-1.504l-.752-.768zm13.731-3.744c1.008.544 2.224 1.36 2.832 1.92l.736-.816c-.624-.56-1.872-1.328-2.864-1.824l-.704.72zm2.272 4.32c-.496 1.616-1.184 3.056-2.048 4.32-.432-1.52-.72-3.424-.88-5.552h5.088v-1.168h-5.168a48.668 48.668 0 01-.064-2.688h-1.232c.016.912.032 1.808.096 2.688h-6.672v4.464c0 2.064-.144 4.8-1.456 6.752.272.144.784.56.992.8 1.44-2.08 1.68-5.296 1.68-7.536v-.128h2.912c-.064 2.752-.144 3.76-.368 4-.096.144-.256.176-.48.176-.272 0-.96-.016-1.696-.08.192.304.32.752.336 1.12.784.032 1.504.032 1.904 0 .448-.048.72-.16.96-.464.336-.416.432-1.76.512-5.344v-.512h-4.08v-2.08h5.52c.208 2.576.592 4.928 1.168 6.736a12.768 12.768 0 01-3.68 2.96c.272.224.688.704.864.944a14.305 14.305 0 003.296-2.656c.736 1.648 1.696 2.624 2.928 2.624 1.216 0 1.648-.784 1.872-3.504-.32-.096-.752-.368-1.024-.64-.112 2.128-.304 2.96-.752 2.96-.816 0-1.552-.912-2.144-2.48 1.184-1.52 2.128-3.344 2.816-5.408l-1.2-.304zm15.923-1.872h-7.568v-1.664h7.568v1.664zm1.232-2.624h-9.984v3.584h9.984v-3.584zm-9.472 9.312h8.88v1.152h-8.88v-1.152zm0-1.968h8.88v1.12h-8.88v-1.12zm0-1.968h8.88v1.12h-8.88v-1.12zm10.096 5.968v-6.848h-11.28v6.848h2.976c-1.008.656-3.056 1.392-4.704 1.776.288.24.672.64.88.88 1.632-.416 3.696-1.184 4.976-1.968l-1.056-.688h8.208zm-4.384.8c1.68.496 3.824 1.312 5.024 1.872l1.024-.864c-1.248-.512-3.376-1.296-5.024-1.776l-1.024.768zm8.563-6.256v1.296h14.528v-1.296h-14.528zm29.603-4.688v3.664h-3.648v-3.664h3.648zm.176 10.192c1.408 0 1.744-.672 1.92-2.848-.336-.064-.8-.256-1.072-.464-.096 1.824-.208 2.224-.896 2.224h-2.832c-.8 0-.944-.144-.944-.832v-3.552h4.8v-5.776h-5.952v9.328c0 1.52.48 1.92 2 1.92h2.976zm-8.24-2.64h2.288v-1.056h-2.288v-2.368h2.432v-1.072h-2.688v-2.016h2.304v-1.056h-2.304v-1.776h-1.136v1.776h-2.592v1.056h2.592v2.016h-2.992v1.072h3.28v6c-.64-.544-1.104-1.328-1.456-2.448.048-.704.08-1.456.096-2.224l-1.12-.08c-.048 2.848-.224 5.376-1.152 6.976.272.128.784.432.992.576.48-.896.768-1.984.96-3.264 1.168 2.176 3.072 2.72 6.448 2.72h6.096c.08-.352.304-.896.496-1.184-.976.048-5.84.048-6.608.032-1.52 0-2.704-.112-3.648-.464v-3.216zm14.914.656c.08-.512.16-1.088.24-1.648h3.376v-3.552h-2.48c1.424-.96 2.656-2.224 3.36-3.824l-.736-.384-.208.048h-4.336v.976h3.712a8.02 8.02 0 01-1.536 1.696c-.464-.48-1.248-1.04-1.904-1.424l-.688.656c.608.368 1.328.928 1.808 1.376a11.862 11.862 0 01-3.152 1.504c.224.208.512.624.64.88.608-.192 1.2-.448 1.776-.752v.192h2.672v1.68h-3.168a53.954 53.954 0 01-.56 3.504h3.664c-.144 1.52-.32 2.176-.56 2.384-.128.128-.288.144-.576.144a25 25 0 01-2.048-.096c.176.288.336.704.352 1.024.864.048 1.712.064 2.112.032.464-.032.784-.128 1.056-.4.384-.368.592-1.312.784-3.536.032-.144.048-.48.048-.48h-3.648zm10.032-.704l-.192.048h-5.456v.864h4.896a6.317 6.317 0 01-1.552 1.712c-.944-.544-1.92-1.104-2.768-1.568l-.576.656c.784.432 1.664.96 2.528 1.472-.976.576-2.112.992-3.28 1.248.208.208.432.608.544.88 1.328-.336 2.576-.832 3.664-1.552.928.576 1.776 1.136 2.352 1.568l.592-.768c-.544-.4-1.312-.88-2.16-1.392a7.172 7.172 0 002.064-2.896l-.656-.272zm.96-7.616c-.528.56-1.44 1.328-2.16 1.856a7.864 7.864 0 01-1.168-.976c.72-.512 1.616-1.2 2.304-1.856l-.88-.624c-.496.544-1.328 1.296-2.016 1.856a8.676 8.676 0 01-1.248-1.936l-.944.288a10.707 10.707 0 003.808 4.448h-3.552v1.248c0 .768-.224 1.632-1.488 2.32.224.144.608.528.768.736 1.408-.816 1.744-2 1.744-3.024v-.32h2.176v1.552c0 .944.192 1.328 1.168 1.328h1.312c.32 0 .64 0 .816-.064a7.28 7.28 0 01-.064-.832c-.208.032-.56.048-.768.048h-1.184c-.24 0-.272-.096-.272-.464v-2.112c.704.384 1.472.72 2.288.96.176-.272.464-.704.72-.912a11.517 11.517 0 01-2.736-1.152c.736-.48 1.6-1.136 2.256-1.76l-.88-.608zm16.323 1.6h-3.968v-1.488h3.968v1.488zm0 2.432h-3.968v-1.504h3.968v1.504zm0 2.432h-3.968v-1.52h3.968v1.52zm1.136-7.328h-6.208v8.304h6.208v-8.304zm-7.76 8.784c.736.72 1.712 1.744 2.176 2.352l.864-.704c-.496-.592-1.472-1.584-2.208-2.256l-.832.608zm-4.8 4.144c.64-.88 1.152-2.304 1.504-3.376l-1.04-.4c-.32 1.04-.864 2.4-1.504 3.248l1.04.528zm3.136-4.464v-3.888c.704.592 1.6 1.376 2.016 1.776l.64-.96c-.416-.32-2.048-1.536-2.656-1.92v-.896h2.528v-1.04h-2.528v-2.336h-1.136v2.336h-2.912v1.04h2.704c-.704 1.632-1.888 3.28-3.056 4.112.24.192.576.56.768.832.896-.736 1.792-1.952 2.496-3.264v4.208h1.136zm1.84 3.888c-.928 0-1.088-.08-1.088-.496v-2.528h-1.168v2.544c0 1.232.448 1.552 2.176 1.552h3.312c1.44 0 1.808-.48 1.968-2.48-.336-.064-.816-.24-1.088-.448-.064 1.632-.192 1.856-.96 1.856h-3.152zm5.424-3.056c.64 1.056 1.472 2.448 1.84 3.28l1.104-.544c-.4-.816-1.264-2.192-1.92-3.2l-1.024.464zm12.755-4.336v3.648h-4.176v-3.648h4.176zm1.168 4.784v-5.936h-6.496v7.216h1.152v-1.28h5.344zm6.032-9.456h-14.16v1.184h10.976v10.576c0 .336-.112.448-.464.464-.368.016-1.68.032-2.96-.032.192.336.432.928.512 1.264 1.568 0 2.672 0 3.312-.224.608-.176.816-.592.816-1.456v-10.592h1.968v-1.184zm15.587 5.76c.576 0 1.152-.032 1.424-.096-.048-.272-.096-.72-.128-1.04-.304.08-.944.096-1.328.096h-2.944c-.512 0-.64-.192-.64-.768v-1.808h4.304v-1.056h-4.304v-2.208h-1.168v5.04c0 1.344.384 1.84 1.792 1.84h2.992zm-10.56 1.296c.864.528 1.968 1.264 2.528 1.728l.64-.656c-.576-.448-1.696-1.168-2.544-1.664l-.624.592zm-.128-1.504h3.312v3.232c-1.28.64-2.544 1.28-3.44 1.68.096-.704.128-1.408.128-2.016v-2.896zm4.448-1.024h-5.552v3.904c0 1.36-.096 3.04-1.008 4.256.24.16.656.576.816.832.672-.832.992-1.936 1.152-2.992l.416.96a244.96 244.96 0 003.04-1.76v2.464c0 .208-.048.272-.272.272-.208 0-.864.016-1.632-.016.16.288.32.688.384.992.992 0 1.696-.016 2.096-.192.432-.176.56-.448.56-1.056v-7.664zm-1.984-4.128c.336.496.672 1.04.992 1.584l-3.28.224c.784-.832 1.552-1.904 2.224-2.944l-1.184-.4c-.672 1.296-1.728 2.592-2.032 2.928-.32.336-.592.576-.848.624.144.288.32.88.384 1.12.368-.176.928-.24 5.264-.592.208.4.384.768.512 1.088l1.024-.464c-.4-.944-1.312-2.448-2.096-3.536l-.96.368zm5.504 11.888c-.752 0-.896-.096-.896-.624v-2.4h4.48v-1.072h-4.48v-1.904h-1.168v5.376c0 1.312.4 1.68 1.952 1.68h2.832c1.328 0 1.68-.544 1.824-2.624-.32-.08-.784-.256-1.056-.448-.08 1.712-.192 2.016-.864 2.016h-2.624zm12.099-6.448h-3.36v-3.344h3.36v3.344zm-3.36 4.896v-3.84h3.36v3.84h-3.36zm1.344-11.904c-.112.752-.4 1.824-.64 2.592h-1.792v11.648h1.088v-1.264h4.448v-10.384h-2.656c.272-.688.56-1.568.832-2.352l-1.28-.24zm10.928 2.544h-4.784c.272-.752.496-1.52.688-2.304l-1.136-.272c-.512 2.192-1.376 4.4-2.448 5.808.256.16.768.48.976.672.56-.752 1.056-1.728 1.504-2.8h4.064c-.208 6.368-.448 8.8-.976 9.36-.16.208-.336.24-.656.24-.368 0-1.328 0-2.368-.096.224.336.368.816.4 1.168.896.048 1.808.08 2.368.016.544-.048.912-.192 1.264-.64.64-.784.848-3.248 1.104-10.544v-.608zm-2.528 7.2c-.512-.944-1.616-2.48-2.512-3.616l-.928.544c.88 1.152 1.952 2.736 2.432 3.696l1.008-.624zm9.907-.208v-1.872h1.44v1.872h-1.44zm-2.304-1.872h1.44v1.872h-1.472c.032-.432.032-.864.032-1.248v-.624zm2.4-5.264c-.192.56-.464 1.184-.704 1.664h-1.84c.288-.512.56-1.072.8-1.664h1.744zm-.096 2.608h1.44v1.76h-1.44v-1.76zm-2.304 0h1.44v1.76h-1.44v-1.76zm11.024-3.152c-.096 1.856-.24 2.592-.416 2.8-.112.144-.24.16-.448.144-.224 0-.816 0-1.44-.064.144.272.24.688.272.992.656.032 1.312.048 1.648.016.416-.032.656-.144.864-.4.352-.384.48-1.408.608-4.048.016-.144.016-.448.016-.448H700v1.008h2.16c-.304 1.504-.944 2.768-2.624 3.504v-1.296h-2c.368-.688.736-1.504 1.008-2.208l-.704-.448-.176.048h-1.872c.128-.384.256-.784.368-1.184l-1.104-.24c-.48 1.952-1.36 3.84-2.496 5.056.256.16.72.528.896.72.112-.128.224-.272.336-.416v2.896c0 1.792-.112 4.16-1.184 5.84.24.112.688.368.848.544.752-1.152 1.088-2.72 1.232-4.208h3.84v2.88c0 .208-.08.272-.304.288-.208.016-.928.016-1.76-.016.16.272.336.736.384 1.008 1.104 0 1.744-.016 2.144-.192.416-.176.544-.512.544-1.088v-7.968c.224.192.512.544.64.8 1.968-.896 2.736-2.432 3.072-4.32h2.56zm1.536 8.688h-3.04v-1.968h2.768v-1.024h-2.768v-1.632h-1.136v1.632h-1.392c.128-.416.24-.848.336-1.28l-1.008-.208c-.288 1.36-.768 2.672-1.472 3.584.272.128.736.352.928.496.304-.432.592-.976.832-1.568h1.776v1.968h-3.36v1.024h3.36v2.992h1.136v-2.992h3.04v-1.024zm-198.08 15.344c-.656-.56-1.984-1.264-3.04-1.68l-.64.88c1.056.448 2.352 1.2 2.992 1.792l.688-.992zm-.944 4.32c-.656-.56-1.952-1.232-2.96-1.632l-.64.896c1.04.432 2.304 1.168 2.944 1.712l.656-.976zm-.048 2.32c-.912 1.808-2.16 3.904-3.024 5.104l1.008.8a61.978 61.978 0 002.88-5.12l-.864-.784zm5.92-4.816h2.64v3.616h-2.704c.048-.608.064-1.216.064-1.824v-1.792zm5.12 4.736v-1.12H518v-4.736h-3.808v-2.528h-1.168v2.528h-3.232v1.12h3.232v1.792c0 .608-.016 1.216-.08 1.824h-4.016v1.12h3.856c-.416 2.032-1.52 3.904-4.32 5.36.288.208.736.592.944.864 3.072-1.648 4.192-3.856 4.576-6.224h5.328zm-4.464.928c1.216 1.68 2.752 3.952 3.488 5.264l1.04-.592c-.768-1.296-2.336-3.552-3.552-5.184l-.976.512zm20.064-5.408v-1.168h-6.672l1.104-.48c-.224-.656-.72-1.616-1.152-2.368l-1.136.448c.416.736.88 1.76 1.088 2.4h-6.992v1.168h4.32c-.176 3.648-.592 7.744-4.672 9.776.304.224.672.64.864.96 3.008-1.6 4.208-4.24 4.72-7.056h5.696c-.272 3.6-.576 5.136-1.056 5.552-.176.144-.384.176-.752.176-.416 0-1.536-.016-2.672-.112.224.32.384.8.416 1.152 1.072.08 2.112.096 2.672.064.624-.048.992-.16 1.376-.56.624-.624.944-2.352 1.248-6.848.032-.176.048-.576.048-.576h-6.8c.112-.848.176-1.696.224-2.528h8.128zm3.536-1.712H549.6v1.28h1.152v-2.288h-5.856c-.224-.4-.56-.88-.8-1.232l-1.184.288c.176.288.384.608.576.944h-6.16v2.288h1.12v-1.28zm7.76 2.784c-.528.624-1.216 1.12-2.048 1.536a63.325 63.325 0 00-3.12-.56c.304-.304.64-.624.976-.976h4.192zm4.576 3.2c-1.328-.448-3.088-.912-5.04-1.344a6.33 6.33 0 001.888-1.856h3.36v-.976h-2.832c.128-.272.224-.528.32-.832l-1.152-.272a5.75 5.75 0 01-.48 1.104h-3.936c.368-.432.72-.88 1.008-1.296l-1.152-.352a16.58 16.58 0 01-1.248 1.648h-4.464v.976h3.6a28.305 28.305 0 01-1.584 1.552 86.87 86.87 0 013.376.576c-1.44.368-3.216.576-5.408.672.176.288.336.672.448 1.024 2.944-.192 5.216-.56 6.944-1.296 2.096.48 3.904.96 5.2 1.456l1.152-.784zm-9.888 2.848c-.848.912-2.368 1.744-3.808 2.272.288.176.768.592.976.816 1.408-.624 3.024-1.616 4-2.704l-1.168-.384zm4.912.592c1.456.688 3.28 1.792 4.176 2.576l.864-.864c-.944-.768-2.8-1.824-4.24-2.464l-.8.752zm-1.264-1.952v-1.328h-1.168v1.328h-6.48v1.008h6.48v3.904h1.168v-3.904h6.608v-1.008h-6.608zM760.368 110.2h-1.936v-3.952h-1.056v4.992h2.992v2.352h-3.664v1.056h.864V115c0 1.232-.128 3.216-1.008 4.688.288.096.704.368.912.576.976-1.6 1.152-3.856 1.152-5.232v-.384h1.744v5.584h1.104V105.64h-1.104v4.56zm8.912-2.352c-.416.784-.992 1.472-1.664 2.08-.48-.656-1.28-1.44-2.032-2.064l.016-.016h3.68zm.736-.928l-.208.048h-3.232c.352-.336.656-.672.912-1.024l-1.152-.336c-.912 1.296-2.688 2.624-4.576 3.392.208.192.56.544.736.736a14.794 14.794 0 002.352-1.328c.768.64 1.568 1.488 2.016 2.144-1.408 1.072-3.136 1.824-4.816 2.224.208.224.48.608.592.88 3.36-.928 6.704-2.912 8.096-6.368l-.72-.368zm-4.56 3.04c-1.296.16-2.48.32-3.392.4l.208.896c.976-.144 2.08-.288 3.248-.464l-.064-.832zm-2.288 5.808c.8.8 1.68 1.888 2.048 2.624l.976-.608c-.4-.72-1.296-1.808-2.112-2.56l-.912.544zm8.096-1.984H769.2v-2.256h-1.136v2.256h-6.048v1.056h6.048v3.808c0 .224-.08.288-.336.288a27.57 27.57 0 01-2.064 0c.176.336.336.8.384 1.136 1.264 0 2.048-.016 2.528-.208s.624-.528.624-1.2v-3.824h2.064v-1.056zm7.699-1.248c-.608.176-1.2.368-1.792.544v-3.152h1.776v-1.104h-1.776v-3.2h-1.152v3.2h-2.208v1.104h2.208v3.456c-.912.272-1.744.512-2.416.688l.32 1.152 2.096-.656v4.288c0 .224-.08.304-.304.304-.192 0-.864 0-1.584-.016.16.32.32.784.368 1.088 1.056 0 1.696-.032 2.096-.208.416-.192.576-.512.576-1.168v-4.64l1.952-.608-.16-1.072zm5.328 5.376v-3.264h2.64v3.264h-2.64zm-3.648-3.264h2.512v3.264h-2.512v-3.264zm2.512-4.24v3.12h-2.512v-3.12h2.512zm3.776 0v3.12h-2.64v-3.12h2.64zm-2.64-1.136v-3.632h-1.136v3.632h-3.648v10.912h1.136v-1.136h6.288v1.024h1.168v-10.8h-3.808zm9.619.512h3.68v1.728h-3.68v-1.728zm5.152-2.16c-.272.416-.624.88-.976 1.232h-4c.464-.4.928-.816 1.312-1.232h3.664zm3.488 3.888h-3.872v-1.728h3.872v1.728zm.4 1.168c-.928.576-2.4 1.344-3.648 1.856-.464-.624-1.104-1.216-1.904-1.76.208-.112.4-.24.576-.352h5.744v-3.568h-4.24c.448-.528.912-1.136 1.248-1.696l-.816-.528-.192.064h-3.488c.24-.304.464-.576.672-.88l-1.232-.256c-.864 1.312-2.464 2.88-4.608 4.032.272.16.624.56.8.816.32-.192.624-.368.928-.576v2.592h3.568c-1.36.624-3.168 1.184-4.64 1.472.224.208.512.576.672.816a23.729 23.729 0 004.048-1.44c.336.224.656.448.912.704-1.44.912-3.888 1.712-5.84 2.096.224.224.528.608.688.864 1.856-.432 4.224-1.328 5.792-2.352.208.24.416.48.576.736-1.68 1.328-4.784 2.592-7.312 3.152.224.224.528.64.688.912 2.336-.624 5.232-1.872 7.056-3.264.528 1.216.336 2.288-.304 2.72-.336.24-.704.272-1.136.272-.352 0-.928 0-1.504-.064.192.304.32.752.336 1.088.512.016.992.032 1.376.032.672 0 1.136-.112 1.664-.48 1.152-.72 1.392-2.544.384-4.384.256-.112.56-.224.864-.336.672 1.552 1.984 3.488 3.952 4.464.16-.32.528-.784.784-1.008-1.872-.784-3.152-2.448-3.808-3.872a28.498 28.498 0 002.32-1.152l-.976-.72zm9.523.672c-.192-.432-1.2-2.16-1.552-2.672v-.592h1.36V109h-1.36v-3.392h-1.056V109h-1.696v1.088h1.648c-.352 2.16-1.136 4.752-2 6.144.192.256.48.688.608 1.008.528-.896 1.04-2.272 1.44-3.744v6.72h1.056v-7.888c.352.72.72 1.52.896 1.984l.656-.96zm3.056-5.824v1.84h-1.904v-1.84h1.904zm-1.904 4.704v-1.968h1.904v1.968h-1.904zm3.712 4.896c-.288-.8-.96-2.144-1.552-3.152l-.768.384c.224.416.464.88.704 1.376l-2.096 1.184v-3.696h2.816v-6.672h-3.776V116.6c0 .72-.4 1.216-.64 1.424.208.192.496.592.608.832.224-.288.592-.592 3.44-2.32.192.384.336.768.432 1.056l.832-.464zm.848-5.088c.192-1.344.384-3.088.528-4.496h.96v.064c0 1.248-.032 2.784-.304 4.432h-1.184zm4.352.992v-.992h-2.208c.272-1.648.304-3.184.304-4.432v-.064h1.792v-1.04h-5.344v1.04h.656c-.144 1.776-.4 4.112-.624 5.488h2.048c-.512 2.256-1.536 4.624-3.584 6.656.272.112.672.416.864.592 1.488-1.52 2.448-3.216 3.072-4.928v3.328c0 .704.048.912.272 1.12.192.176.512.24.8.24h.688c.256 0 .544-.064.72-.176.176-.128.304-.32.384-.624.08-.32.112-1.216.128-2a1.887 1.887 0 01-.704-.384c.016.784-.016 1.472-.048 1.76-.032.176-.096.32-.16.384a.716.716 0 01-.352.08h-.432a.447.447 0 01-.288-.096c-.064-.048-.08-.144-.08-.256v-4.848h-.464c.064-.288.128-.56.192-.848h2.368zm3.827 6.544c.624-1.088 1.184-2.816 1.552-4.032l-1.04-.4c-.336 1.232-.928 2.88-1.6 3.936l1.088.496zm9.936-8.272l-.192.048h-8.912v1.024h8.192c-.56.848-1.328 1.776-2.016 2.4.272.128.672.384.912.56.944-.896 2.128-2.32 2.8-3.536l-.784-.496zm-5.728 3.12c.864.976 1.952 2.336 2.496 3.136l1.024-.608c-.56-.784-1.696-2.096-2.544-3.04l-.976.512zm.56 4.416c-1.024 0-1.2-.096-1.2-.56v-3.104h-1.184v3.104c0 1.296.48 1.648 2.336 1.648h3.696c1.552 0 1.92-.496 2.096-2.512-.352-.08-.832-.256-1.104-.432-.096 1.6-.224 1.856-1.072 1.856h-3.568zm5.072-3.808c.688 1.392 1.584 3.28 1.984 4.352l1.168-.448c-.464-1.072-1.36-2.88-2.064-4.24l-1.088.336zm-6.56-5.84a11.555 11.555 0 002.624-2.224 18.968 18.968 0 002.976 2.224h-5.6zm2.384-3.824c-1.216 2.08-3.888 3.712-7.024 4.752.24.224.592.672.752.944 1.312-.48 2.528-1.04 3.616-1.696v.816h5.92v-.96c1.184.72 2.448 1.344 3.584 1.76.176-.32.544-.784.816-1.024-2.368-.72-5.168-2.256-6.784-3.824.08-.112.16-.24.24-.368l-1.12-.4zm21.123 7.376h1.568l-.56.288c.24.208.48.464.704.704l-1.712.032v-1.024zm-2.976-.736v-.992h1.936v.992h-1.936zm0-2.688h1.936v.976h-1.936v-.976zm5.024 0v.976h-2.048v-.976h2.048zm0 2.688h-2.048v-.992h2.048v.992zm-6.448 2.736c1.76-.032 4.304-.096 6.816-.176.192.24.352.48.464.672l.832-.512c-.368-.56-1.072-1.376-1.792-1.984h1.12v-4.16h-3.04v-.864h3.424v-.944h-3.424v-1.152h-1.04v1.152h-3.28v.944h3.28v.864h-2.912v4.16h2.912v1.04c-1.312.032-2.512.032-3.44.048l.08.912zm.848 2.496c.592.544 1.216 1.36 1.504 1.936l.88-.576c-.304-.544-.944-1.312-1.584-1.84l-.8.48zm-6.016-4.496h1.488v1.456h-1.488v-1.456zm0-2.272h1.488v1.424h-1.488v-1.424zm3.824 1.424h-1.488v-1.424h1.488v1.424zm0 2.304h-1.488v-1.456h1.488v1.456zm7.424.624h-1.104v.848h-5.072v.72h-2.64v-1.296h2.304v-5.52h-2.304v-1.184h2.48v-1.04h-2.48v-1.728h-1.056v1.728h-2.624v1.04h2.624v1.184h-2.256v5.52h2.256v1.296h-2.832v1.056h2.832v2.784h1.056v-2.784h2.704v-.832h5.008v2.432c0 .176-.048.208-.272.224-.224.016-.944.016-1.744-.016.144.288.304.688.352.992 1.056 0 1.744 0 2.208-.176.432-.144.56-.432.56-1.008v-2.448h1.936v-.944h-1.936v-.848zm9.17-1.28l-.192-1.072-1.504.528v-3.072h1.616v-1.104h-1.616v-3.2h-1.136v3.2h-1.888v1.104h1.888v3.456c-.768.256-1.472.496-2.048.672l.304 1.136c.544-.176 1.12-.384 1.744-.608v4.16c0 .208-.064.272-.272.272-.176 0-.752 0-1.392-.016.144.352.304.848.352 1.184.944 0 1.552-.048 1.92-.256.384-.208.528-.528.528-1.2v-4.56l1.696-.624zm2.176 1.888v-5.04h2.624c-.496 1.184-1.376 2.224-2.4 2.928.208.112.608.4.768.56a8.702 8.702 0 001.728-1.776c.848.528 1.76 1.216 2.24 1.712l.576-.656c-.512-.512-1.504-1.216-2.384-1.744.16-.272.304-.56.416-.832l-.752-.192h2.784v5.04h-2.448c.096-.48.176-1.024.224-1.584h-1.152a11.014 11.014 0 01-.24 1.584h-1.984zm3.456-7.616c-.272.544-.624 1.152-.944 1.584h-2.544c.4-.512.768-1.04 1.072-1.584h2.416zm4.192 8.592v-.976h-1.024V109.4h-2.96c.448-.656.912-1.44 1.232-2.144l-.704-.464-.176.048h-2.448c.176-.368.336-.704.464-1.056l-1.104-.16c-.528 1.408-1.536 3.184-3.088 4.496.224.16.576.544.72.768.144-.128.304-.272.448-.416v4.96h-1.344v.976h4.032c-.592 1.44-1.808 2.368-4.496 2.912.208.24.496.656.592.928 3.104-.688 4.464-1.936 5.088-3.84h4.768zm-4.4.832c1.248.912 2.896 2.24 3.728 3.024l.768-.752c-.848-.768-2.528-2.032-3.776-2.896l-.72.624zm16.931-10.832c1.008.544 2.224 1.36 2.832 1.92l.736-.816c-.624-.56-1.872-1.328-2.864-1.824l-.704.72zm2.272 4.32c-.496 1.616-1.184 3.056-2.048 4.32-.432-1.52-.72-3.424-.88-5.552h5.088v-1.168h-5.168a48.668 48.668 0 01-.064-2.688h-1.232c.016.912.032 1.808.096 2.688h-6.672v4.464c0 2.064-.144 4.8-1.456 6.752.272.144.784.56.992.8 1.44-2.08 1.68-5.296 1.68-7.536v-.128h2.912c-.064 2.752-.144 3.76-.368 4-.096.144-.256.176-.48.176-.272 0-.96-.016-1.696-.08.192.304.32.752.336 1.12.784.032 1.504.032 1.904 0 .448-.048.72-.16.96-.464.336-.416.432-1.76.512-5.344v-.512h-4.08v-2.08h5.52c.208 2.576.592 4.928 1.168 6.736a12.768 12.768 0 01-3.68 2.96c.272.224.688.704.864.944a14.305 14.305 0 003.296-2.656c.736 1.648 1.696 2.624 2.928 2.624 1.216 0 1.648-.784 1.872-3.504-.32-.096-.752-.368-1.024-.64-.112 2.128-.304 2.96-.752 2.96-.816 0-1.552-.912-2.144-2.48 1.184-1.52 2.128-3.344 2.816-5.408l-1.2-.304zm8.563 3.456h7.2v1.44h-7.2v-1.44zm7.2-6.816v1.36h-7.2v-1.36h7.2zm0 4.528v1.392h-7.2v-1.392h7.2zm0-.912h-7.2v-1.344h7.2v1.344zm3.504 4.64h-2.272v-9.248h-9.6v9.248h-2.4v1.088h14.272v-1.088zm-9.904 1.216c-.96.88-2.928 1.904-4.56 2.496.272.224.656.624.848.88 1.616-.64 3.568-1.68 4.816-2.672l-1.104-.704zm4.416.768c1.744.8 3.552 1.808 4.64 2.56l.928-.88c-1.168-.72-3.072-1.712-4.832-2.48l-.736.8zm21.203-8.768h-1.296v-1.136h1.296v1.136zm0 1.984h-1.296v-1.184h1.296v1.184zm-5.328-1.184h1.232v1.184h-1.232v-1.184zm0-1.936h1.232v1.136h-1.232v-1.136zm3.232 1.936v1.184h-1.2v-1.184h1.2zm-1.2-.8v-1.136h1.2v1.136h-1.2zm4.256-1.984h-2.128v-1.216h-.976v1.216h-1.152v-1.216h-.976v1.216h-1.984v4.816h7.216v-4.816zm.4 5.648h-7.968v.896h7.968v-.896zm-6.128 2.48h4.24v1.344h-4.24v-1.344zm5.344 2.144v-2.96h-6.4v2.96h6.4zm-8.368-4.608h-4.192v-1.056h4.192v1.056zm-3.472-5.424h2.736v1.024h-1.744v2.48h-.992v-3.504zm1.696 3.504v-1.728h1.04v1.728h-1.04zm2.032-4.416h-4.704v4.416h-.656v2.288h.784v2.624c0 1.264-.096 2.912-.928 4.128.24.112.656.448.832.64.944-1.36 1.104-3.312 1.104-4.768v-2.144h2.512v2.704c-.976.512-1.904.992-2.592 1.28l.448.848c.672-.384 1.392-.832 2.144-1.296V119c0 .16-.048.224-.224.224-.16 0-.72 0-1.344-.016.128.272.288.656.336.912.896 0 1.44-.016 1.792-.16.352-.176.448-.432.448-.944v-6.128h.736V110.6h-.688v-4.416zm-1.184 9.088c-.368-.368-1.104-.896-1.744-1.296l-.544.544c.592.4 1.312 1.024 1.696 1.408l.592-.656zm7.808 3.712c.24-.448.528-1.008.8-1.504l-1.088-.32c-.16.512-.448 1.264-.688 1.824h-1.536a19.183 19.183 0 00-.688-1.776l-.928.272c.208.448.416 1.024.56 1.504h-2.288v.928h8.272v-.928h-2.416zm12.115-7.568v3.648h-4.176v-3.648h4.176zm1.168 4.784v-5.936h-6.496v7.216h1.152v-1.28h5.344zm6.032-9.456h-14.16v1.184h10.976v10.576c0 .336-.112.448-.464.464-.368.016-1.68.032-2.96-.032.192.336.432.928.512 1.264 1.568 0 2.672 0 3.312-.224.608-.176.816-.592.816-1.456v-10.592h1.968v-1.184zm16.755-.16h-7.808v1.12h7.808v-1.12zm-10.48-.976c-.8 1.136-2.336 2.576-3.664 3.472.208.224.528.688.704.944 1.424-1.008 3.056-2.56 4.096-3.968l-1.136-.448zm.656 3.408c-1.104 1.808-2.832 3.648-4.48 4.816.24.24.656.752.832.992.592-.464 1.2-1.04 1.808-1.664v7.104h1.184v-8.416c.656-.784 1.264-1.6 1.76-2.416l-1.104-.416zm10.288 1.936h-8.96v1.136h5.344v6.592c0 .272-.096.336-.4.352-.304.016-1.36.016-2.496-.016.176.336.336.832.384 1.152 1.568 0 2.464 0 3.008-.176.528-.192.704-.56.704-1.296v-6.608h2.416v-1.136zm-197.344 25.632h-3.36v-3.344h3.36v3.344zm-3.36 4.896v-3.84h3.36v3.84h-3.36zm1.344-11.904c-.112.752-.4 1.824-.64 2.592h-1.792v11.648h1.088v-1.264h4.448v-10.384h-2.656c.272-.688.56-1.568.832-2.352l-1.28-.24zm10.928 2.544h-4.784c.272-.752.496-1.52.688-2.304l-1.136-.272c-.512 2.192-1.376 4.4-2.448 5.808.256.16.768.48.976.672.56-.752 1.056-1.728 1.504-2.8h4.064c-.208 6.368-.448 8.8-.976 9.36-.16.208-.336.24-.656.24-.368 0-1.328 0-2.368-.096.224.336.368.816.4 1.168.896.048 1.808.08 2.368.016.544-.048.912-.192 1.264-.64.64-.784.848-3.248 1.104-10.544v-.608zm-2.528 7.2c-.512-.944-1.616-2.48-2.512-3.616l-.928.544c.88 1.152 1.952 2.736 2.432 3.696l1.008-.624zm13.056-8.016h2.656v2.56c0 1.2.224 1.648 1.264 1.648h1.04c.304 0 .624-.016.784-.08-.016-.272-.064-.72-.08-1.024a3.39 3.39 0 01-.704.08h-.944c-.224 0-.256-.144-.256-.592v-3.712h-4.864v1.76c0 1.136-.272 2.448-1.984 3.424.208.176.608.624.768.864 1.904-1.12 2.32-2.816 2.32-4.256v-.672zm-4.64.304c-.256-.576-.768-1.408-1.232-2.064l-.928.464c.448.672.96 1.568 1.2 2.144l.96-.544zm2.16.72H772.8v.976h6.048v-.976zm-5.36 5.12h4.72v-.944h-4.72v.944zm0-3.024v.944h4.704v-.944h-4.704zm11.44 3.328c-.528 1.216-1.312 2.224-2.256 3.056a8.893 8.893 0 01-2.256-3.056h4.512zm-7.792 4.512h-2.624v-2.64h2.624v2.64zm8.56-5.68l-.208.048h-6.816v1.12h1.392l-.688.24a10.936 10.936 0 002.384 3.536 11.612 11.612 0 01-3.568 1.616v-4.512h-4.72v5.376h1.04v-.752h3.648c.208.272.432.688.544.992 1.44-.432 2.784-1.072 3.968-1.952 1.136.864 2.464 1.504 3.968 1.904.16-.336.496-.816.736-1.072-1.424-.32-2.688-.864-3.776-1.6 1.264-1.168 2.256-2.672 2.848-4.608l-.752-.336zm7.408-4.976c-.24-.56-.752-1.392-1.232-2.048l-.896.464c.432.656.944 1.552 1.168 2.128l.96-.544zm2.544.72h-6.576v.976h6.576v-.976zm-.72 4.176h-5.152v.944h5.152v-.944zm-1.008 3.12v2.64h-2.976v-2.64h2.976zm1.056-.992h-5.072v5.376h1.04v-.752h4.032v-4.624zm-5.2-3.264h5.2v-.944h-5.2v.944zm13.456-.24h-3.28v-5.216h-1.2v5.216h-3.136v1.168h3.136v7.936h1.2v-7.936h3.28v-1.168zm11.488-4.72c1.008.544 2.224 1.36 2.832 1.92l.736-.816c-.624-.56-1.872-1.328-2.864-1.824l-.704.72zm2.272 4.32c-.496 1.616-1.184 3.056-2.048 4.32-.432-1.52-.72-3.424-.88-5.552h5.088v-1.168h-5.168a48.668 48.668 0 01-.064-2.688h-1.232c.016.912.032 1.808.096 2.688h-6.672v4.464c0 2.064-.144 4.8-1.456 6.752.272.144.784.56.992.8 1.44-2.08 1.68-5.296 1.68-7.536v-.128h2.912c-.064 2.752-.144 3.76-.368 4-.096.144-.256.176-.48.176-.272 0-.96-.016-1.696-.08.192.304.32.752.336 1.12.784.032 1.504.032 1.904 0 .448-.048.72-.16.96-.464.336-.416.432-1.76.512-5.344v-.512h-4.08v-2.08h5.52c.208 2.576.592 4.928 1.168 6.736a12.768 12.768 0 01-3.68 2.96c.272.224.688.704.864.944a14.305 14.305 0 003.296-2.656c.736 1.648 1.696 2.624 2.928 2.624 1.216 0 1.648-.784 1.872-3.504-.32-.096-.752-.368-1.024-.64-.112 2.128-.304 2.96-.752 2.96-.816 0-1.552-.912-2.144-2.48 1.184-1.52 2.128-3.344 2.816-5.408l-1.2-.304zm6.8.944v-1.648h3.6v1.648h-3.6zm0-4.256h3.6v1.632h-3.6v-1.632zm8.464 1.632h-3.632v-1.632h3.632v1.632zm0 2.624h-3.632v-1.648h3.632v1.648zm2.72 3.472v-1.104h-6.352v-1.344h4.896v-6.32h-10.928v6.32h4.8v1.344h-6.352v1.104h5.36c-1.408 1.52-3.68 2.896-5.76 3.568.256.24.64.704.8.976 2.08-.784 4.416-2.304 5.952-4.048v4.592h1.232v-4.672c1.568 1.696 3.92 3.248 5.952 4.064.176-.288.544-.752.816-.992-2.016-.672-4.304-2.016-5.776-3.488h5.36z" fill="#646470"/></svg>