<svg width="943" height="201" fill="none" xmlns="http://www.w3.org/2000/svg"><path d="M27.18 19.453c-.36 1.872-1.188 4.68-1.836 6.408l1.62.54c.72-1.62 1.548-4.212 2.268-6.372l-2.052-.576zm-7.344.504c.828 1.62 1.62 3.78 1.872 5.22l1.764-.648c-.288-1.404-1.08-3.564-1.944-5.148l-1.692.576zm-4.608-3.996v31.464h2.448V18.373h14.436V15.96H15.228zm16.02 0v28.368c0 .504-.144.648-.612.684-.468 0-1.944.036-3.492-.036.36.648.684 1.764.756 2.376 2.232.036 3.708-.036 4.608-.432.9-.432 1.188-1.116 1.188-2.592V15.96h-2.448zm-12.672 9.504v2.124h11.88v-2.124h-11.88zm.396 5.94v2.16h11.016v-2.16H18.972zm3.456-3.168c.612 1.044 1.26 2.52 1.548 3.456l1.98-.828c-.288-.9-1.008-2.304-1.62-3.348l-1.908.72zm-12.06.432c.936 2.268 1.98 5.256 2.34 7.056l2.052-.828c-.468-1.692-1.476-4.644-2.484-6.876l-1.908.648zm-3.564 9c.432 2.448.828 5.652.864 7.74l2.052-.468c-.108-2.124-.54-5.256-1.008-7.668l-1.908.396zm-3.78-.252c-.324 2.916-.864 6.156-1.692 8.352.54.144 1.548.504 2.016.756.72-2.232 1.404-5.616 1.764-8.748l-2.088-.36zm-.828-9.684c0-.54 1.548-1.332 1.548-1.332v-.036c2.34-2.88 4.716-7.092 6.516-11.088l-2.268-1.008c-1.44 3.924-3.888 8.064-4.644 9.144-.72 1.08-1.368 1.836-1.944 1.98.288.648.684 1.836.792 2.34zm0 0c.54-.288 1.476-.468 7.092-1.116.036-.504.108-1.404.216-2.052l-6.156.54-1.188.756.036 1.872zm.216 8.1c0-.504 1.584-1.26 1.584-1.26V34.5c3.312-3.6 6.732-8.676 9.396-13.644l-2.124-1.26C9 24.529 5.364 29.713 4.248 31.045c-1.08 1.368-1.872 2.304-2.592 2.448.288.648.684 1.836.756 2.34zm0 0c.684-.36 1.836-.648 10.692-2.016a12.777 12.777 0 01.036-2.016l-9.576 1.332-1.224.828.072 1.872zm8.316 1.116c.756 2.196 1.656 5.112 2.016 7.056l1.908-.684c-.396-1.872-1.296-4.752-2.124-6.984l-1.8.612zm9.576-4.5v4.644c0 2.376.54 3.24 2.916 3.24h4.68c.864 0 1.836 0 2.304-.144a32.3 32.3 0 01-.18-2.016c-.576.144-1.584.144-2.196.144H23.4c-.72 0-.864-.288-.864-1.188v-4.68h-2.232zm24.84-3.06h18.18V32.7h-18.18v-3.312zm0 5.4h18.18V38.1h-18.18v-3.312zm0-10.728h18.18v3.24h-18.18v-3.24zm-2.808-2.16v18.36h23.868V21.9H42.336zm14.328 20.736c4.212 1.44 8.496 3.348 11.052 4.752l2.52-1.836c-2.808-1.404-7.416-3.276-11.664-4.68l-1.908 1.764zM38.916 16.105v2.484h30.06v-2.484h-30.06zm13.716 1.044c-.216 1.656-.756 4.068-1.26 5.652l2.556.468c.576-1.476 1.26-3.672 1.872-5.724l-3.168-.396zm-3.708 23.544c-2.484 1.656-7.416 3.528-11.304 4.572.612.576 1.44 1.512 1.872 2.088 3.852-1.08 8.748-2.988 11.88-4.896l-2.448-1.764zm25.704-24.12c1.62 1.404 3.528 3.528 4.392 4.932l1.836-1.62c-.936-1.368-2.916-3.348-4.536-4.716l-1.692 1.404zm-1.44 9.684c1.692 1.224 3.78 3.06 4.752 4.32l1.692-1.692c-1.008-1.224-3.132-2.952-4.824-4.104l-1.62 1.476zm.756 18.576l2.052 1.368c1.476-3.168 3.24-7.488 4.572-11.124l-1.836-1.332c-1.404 3.852-3.384 8.424-4.788 11.088zm7.74-8.892v1.98h14.04v-1.98h-14.04zm2.844-4.14v1.908h8.748V31.8h-8.748zm-3.996 12.348l.36 2.16c4.032-.468 9.936-1.08 15.588-1.728v-2.016c-5.904.612-12.024 1.26-15.948 1.584zm2.232-4.896c.756 1.296 1.476 3.096 1.764 4.248l1.728-.756c-.324-1.116-1.08-2.844-1.872-4.14l-1.62.648zm10.116-.792c-.432 1.44-1.296 3.528-1.944 4.824l1.548.612c.684-1.224 1.512-3.06 2.196-4.752l-1.8-.684zm-4.032-22.716v1.944h6.408v-1.944h-6.408zm5.868 0v.396c-.252 5.976-.504 8.136-.864 8.676-.18.288-.36.36-.684.324-.288 0-.864 0-1.62-.072.252.468.396 1.332.432 1.872.72.072 1.476.072 1.944 0 .648-.072 1.08-.252 1.44-.792.612-.828.9-3.096 1.152-9.432v-.972h-1.8zm-7.74-1.512c-1.188.9-3.348 1.944-5.22 2.592.216.468.504 1.188.648 1.656 2.016-.648 4.356-1.584 6.084-2.7l-1.512-1.548zm-1.836 5.76c.792 1.8 1.584 4.176 1.8 5.76l1.728-.648c-.288-1.548-1.08-3.888-1.944-5.688l-1.584.576zm2.484 12.924v11.16h1.98v-11.16h-1.98zm-5.94-5.328c.432-.504 1.224-1.008 6.084-3.636-.216-.36-.576-1.08-.792-1.62l-4.824 2.376-.72.864.252 2.016zm7.092-1.908c-1.872 2.664-5.328 5.076-8.46 6.48.468.54 1.008 1.296 1.332 1.872 3.168-1.62 6.624-4.428 8.712-7.488l-1.584-.864zm-.828 2.664c2.7 1.368 6.048 3.528 7.704 5.04l1.188-1.656c-1.728-1.548-5.076-3.6-7.74-4.86l-1.152 1.476zm10.008-10.116v20.376h2.016V18.229h-2.016zm4.644-3.816V44.04c0 .54-.216.684-.684.684-.468.036-2.088.036-3.78-.036.288.72.54 1.764.612 2.34 2.448.036 3.96-.036 4.86-.396.864-.396 1.188-1.08 1.188-2.592V14.413H102.6zm-11.628 2.376c-.108 3.456-.576 6.444-2.376 8.136.468.252 1.008.864 1.26 1.296 2.16-2.052 2.772-5.436 2.952-9.432h-1.836zm-9.288 10.8c0-.72 1.98-1.764 1.98-1.764v-9h-1.908v7.056c0 1.332-.504 1.692-.936 1.908.324.432.72 1.296.864 1.8zm35.82 7.02h16.848v1.728h-16.848v-1.728zm0 3.312h16.848v1.764h-16.848V37.92zm0-6.588h16.848v1.692h-16.848v-1.692zm-2.556-1.656v11.628h22.068V29.677h-22.068zm13.176 10.656v3.528c0 2.448.9 3.06 4.392 3.06h6.192c2.664 0 3.456-.9 3.744-4.608-.72-.144-1.728-.504-2.304-.864-.108 2.952-.36 3.312-1.692 3.312h-5.724c-1.656 0-1.944-.108-1.944-.9v-3.528h-2.664zm-7.668.108c-.864 3.06-3.312 4.248-10.98 4.824.432.504 1.044 1.512 1.224 2.088 8.424-.864 11.376-2.628 12.42-6.912h-2.664zm9.036-20.808v1.728h10.728v-1.728h-10.728zm-.324-3.276v1.872h12.852v-1.872h-12.852zm-11.844-.144v3.384h2.196v-3.384h-2.196zm0 7.236v3.456h2.196v-3.456h-2.196zm-4.716-4.464v1.692h9.612v2.016h-9.612v1.656h11.952v-5.364h-11.952zm24.516 5.292h2.304v2.628h-2.304v-2.628zm-3.888 0h2.304v2.628h-2.304v-2.628zm-3.78 0h2.196v2.628h-2.196v-2.628zm-1.944-1.512v5.652h13.932v-5.652h-13.932zm1.836-8.496c-.72 2.016-2.088 4.32-4.32 6.084.576.288 1.404 1.008 1.836 1.548 2.484-2.124 3.96-4.716 4.896-7.272l-2.412-.36zm-3.78 1.188h-14.4v12.708h14.688v-1.728h-12.312V17.22h12.024v-1.764zm27.396 5.076h17.928v2.016h-17.928v-2.016zm0-3.492h17.928v1.944h-17.928V17.04zm-2.592-1.62v8.748h23.22V15.42h-23.22zm1.908 19.26h19.692v2.052H152.28V34.68zm0-3.636h19.692v2.016H152.28v-2.016zm-2.556-1.692v9.036h24.912v-9.036h-24.912zm10.872.612V45.48h2.664V29.965h-2.664zm-14.724-4.284v2.088h32.292V25.68h-32.292zm2.844 14.688v1.908h26.712v-1.908h-26.712zm-3.06 3.996v2.124h32.688v-2.124h-32.688z" fill="#000"/><path d="M201.8 25.673h-7.96v2.8h5.08v11.36h2.88v-14.16zm0 12.96h-2.6c-1.88 1.72-4.04 3.52-5.8 4.8l1.56 2.92c2-1.76 3.84-3.48 5.6-5.2 2.48 3.16 6.12 4.56 11.4 4.76 4.48.2 13.04.12 17.56-.08.12-.88.6-2.28.96-2.96-4.84.32-14.08.44-18.52.24-4.76-.16-8.28-1.52-10.16-4.48zm-7.6-26.08c2.44 1.96 5.2 4.76 6.32 6.76l2.48-1.88c-1.24-1.96-4.04-4.72-6.52-6.52l-2.28 1.64zm14.6 8.44c.84 1.28 1.6 3.04 1.8 4.2l2.76-.72c-.28-1.16-1.08-2.88-2-4.12l-2.56.64zm-2.44-8.04v2.24h20.84v-2.24h-20.84zm-.28 16.88v2.24h21.68v-2.24h-21.68zm-1.52-4.96v2.28h24.8v-2.28h-24.8zm-.88-6.68v2.32h26.24v-2.32h-26.24zm.4 16.88v2.32h25.52v-2.32h-25.52zm11-25.2v9.8h3v-9.8h-3zm0 16.04v15.28h3v-15.28h-3zm6.52-5.72c-.4 1.2-1.24 3.08-1.88 4.32l2.36.72c.72-1.08 1.6-2.68 2.44-4.24l-2.92-.8zm17.2 4.68v2.8h9.96v-2.8h-9.96zm8.76 0v.52c-.12 8.64-.32 11.64-.92 12.36-.28.36-.68.4-1.24.4-.68 0-2.44 0-4.24-.16.44.76.76 1.92.84 2.8 1.96.08 3.76.12 4.8 0 1.12-.12 1.76-.4 2.4-1.12.84-1.12 1.08-4.48 1.28-13.52v-1.28h-2.92zm11.28-12.96c2.52 1.32 5.6 3.36 7.12 4.76l1.88-2.04c-1.56-1.4-4.72-3.32-7.2-4.6l-1.8 1.88zm5.72 10.84c-3 9.64-8.64 16.96-16.76 21.28.64.6 1.76 1.84 2.2 2.44 8.2-4.84 14.16-12.56 17.56-23l-3-.72zm-25.52-6.08v2.96H270v-2.96h-30.96zm-1.92 0v11.24c0 5.24-.36 12.12-3.68 17.04.72.36 2 1.4 2.52 2 3.64-5.24 4.28-13.32 4.28-19v-11.28h-3.12zm16.6-6.72c.16 19.16 3.76 36.44 11.92 36.44 3.04 0 4.16-1.96 4.72-8.8-.8-.28-1.92-.96-2.6-1.64-.24 5.32-.76 7.4-1.88 7.4-5.2 0-9.12-15-9.04-33.4h-3.12zm36.6-.04v5.6h3.08v-5.6h-3.08zm0 22.84v14.08h3.08v-14.08h-3.08zm-16.2 3.12v2.76h35.76v-2.76h-35.76zm1.24-21.48v2.76h33.4v-2.76h-33.4zm30.24 3.84c-1.52 1.6-4.24 3.76-6.2 5.12l2.16 1.28c2.04-1.28 4.64-3.12 6.68-5l-2.64-1.4zm-15.92-1.72c-1 1.72-2.76 4.32-4.16 5.92l1.96.92c1.48-1.52 3.28-3.76 4.8-5.84l-2.6-1zm5.84 3.04c-2.56 3.6-6.88 8.56-10.28 11.56l1.8 1.04c3.4-2.88 7.76-7.56 10.88-11.44l-2.4-1.16zm-11.72 2.84c2.36 1.48 5.28 3.68 6.68 5.16l1.56-2c-1.44-1.44-4.44-3.52-6.72-4.88l-1.52 1.72zm-.48 7.76l.4 2.6c4.12-.28 9.6-.64 15.04-1.08v-2.2c-5.76.28-11.56.56-15.44.68zm10.72-3.6c1.96 2.24 4.08 5.4 4.96 7.44l2.32-1.2c-.92-2-3.12-5.04-5.12-7.24l-2.16 1zm-20.08 4.44l1.52 2.44c2.64-1.2 5.96-2.76 9.16-4.28l-.56-2.28c-3.72 1.56-7.56 3.16-10.12 4.12zm1.44-10.52c2.24 1.28 4.96 3.2 6.32 4.52l2.08-1.88c-1.4-1.28-4.2-3.12-6.4-4.28l-2 1.64zm23.24 7.64c3.12 1.6 7.12 4.08 9.08 5.72l2.2-1.92c-2.08-1.64-6.12-3.96-9.2-5.48l-2.08 1.68zm37.781-13.731v29.09h-4.403V18.786h-.171l-6.96 4.546v-4.205l7.259-4.744h4.275zm7.869 29.09v-3.181l9.844-10.199a54.605 54.605 0 002.6-2.912c.691-.843 1.207-1.643 1.548-2.4a5.815 5.815 0 00.511-2.415c0-.966-.227-1.8-.681-2.5a4.46 4.46 0 00-1.861-1.634c-.786-.388-1.672-.582-2.657-.582-1.041 0-1.95.213-2.727.639a4.386 4.386 0 00-1.79 1.804c-.416.777-.625 1.686-.625 2.727h-4.19c0-1.77.407-3.319 1.222-4.645.814-1.325 1.931-2.353 3.352-3.082 1.42-.739 3.035-1.108 4.844-1.108 1.827 0 3.437.365 4.829 1.094 1.402.72 2.495 1.704 3.281 2.954.786 1.24 1.179 2.642 1.179 4.205 0 1.08-.203 2.135-.61 3.168-.398 1.032-1.094 2.182-2.088 3.451-.995 1.26-2.377 2.789-4.148 4.588l-5.781 6.051v.214h13.096v3.764H344.29zm34.134.398c-1.78 0-3.381-.34-4.801-1.022-1.411-.692-2.538-1.639-3.381-2.841-.843-1.203-1.292-2.576-1.349-4.12h4.261c.104 1.25.658 2.278 1.662 3.083 1.004.805 2.206 1.207 3.608 1.207 1.117 0 2.107-.255 2.969-.767a5.501 5.501 0 002.045-2.145c.502-.909.753-1.946.753-3.11 0-1.184-.256-2.24-.767-3.168a5.663 5.663 0 00-2.116-2.188c-.891-.53-1.913-.8-3.069-.81-.88 0-1.766.152-2.656.455-.89.303-1.61.701-2.159 1.193l-4.02-.596 1.634-14.66h15.994v3.765h-12.344l-.923 8.14h.17c.569-.55 1.321-1.01 2.259-1.379a8.292 8.292 0 013.04-.554c1.77 0 3.347.422 4.73 1.264a8.984 8.984 0 013.281 3.452c.805 1.45 1.203 3.116 1.193 5 .01 1.885-.416 3.566-1.278 5.043a9.256 9.256 0 01-3.551 3.494c-1.506.843-3.234 1.264-5.185 1.264zm30.387-5.852v-1.534c0-1.099.227-2.102.682-3.011a5.44 5.44 0 012.017-2.202c.89-.559 1.965-.838 3.224-.838 1.288 0 2.368.274 3.239.824a5.277 5.277 0 011.974 2.201c.455.919.682 1.928.682 3.026v1.534c0 1.099-.227 2.107-.682 3.026a5.461 5.461 0 01-2.002 2.201c-.872.55-1.942.824-3.211.824-1.278 0-2.358-.274-3.238-.824a5.457 5.457 0 01-2.003-2.201c-.455-.919-.682-1.927-.682-3.026zm3.31-1.534v1.534c0 .815.194 1.553.582 2.216.388.663 1.065.994 2.031.994.957 0 1.624-.331 2.003-.994a4.384 4.384 0 00.568-2.216v-1.534c0-.814-.184-1.553-.554-2.216-.359-.663-1.032-.994-2.017-.994-.947 0-1.619.331-2.017.994a4.23 4.23 0 00-.596 2.216zM394.18 21.37v-1.534c0-1.098.228-2.107.682-3.025a5.448 5.448 0 012.017-2.202c.89-.55 1.965-.824 3.225-.824 1.288 0 2.367.275 3.238.824a5.273 5.273 0 011.975 2.202c.445.918.667 1.927.667 3.025v1.534c0 1.099-.227 2.107-.681 3.026a5.368 5.368 0 01-1.989 2.202c-.871.549-1.941.824-3.21.824-1.288 0-2.372-.275-3.253-.824a5.502 5.502 0 01-1.989-2.202c-.454-.919-.682-1.927-.682-3.026zm3.324-1.534v1.534c0 .815.19 1.553.568 2.216.389.663 1.066.995 2.032.995.947 0 1.61-.332 1.988-.995a4.296 4.296 0 00.583-2.216v-1.534a4.48 4.48 0 00-.554-2.216c-.37-.663-1.042-.994-2.017-.994-.947 0-1.62.331-2.017.994a4.296 4.296 0 00-.583 2.216zm-1.974 23.637l20-29.091h3.395l-20 29.09h-3.395z" fill="#2F80ED"/><path d="M462.052 21.217V23.7h9.828v-2.484h-9.828zm4.32-6.984v33.084h2.196V14.233h-2.196zm-.216 8.46c-.828 5.004-2.808 11.088-4.788 14.256.396.684.972 1.872 1.224 2.664 2.124-3.6 4.104-10.62 5.004-16.308l-1.44-.612zm2.196 3.06l-1.044 1.116c.828 1.404 2.988 5.508 3.672 7.236l1.332-2.016c-.612-1.044-3.24-5.364-3.96-6.336zm9.036-3.384v2.196h10.8v-2.196h-10.8zm-1.656 6.804h3.852v4.752h-3.852v-4.752zm-2.088-1.98v8.712h8.1v-8.712h-8.1zm12.42 1.98h4.032v4.752h-4.032v-4.752zm-2.124-1.98v8.712h8.316v-8.712h-8.316zm-7.236 9.504c-1.152 3.924-3.6 7.056-6.912 9 .576.432 1.476 1.296 1.872 1.764 3.348-2.268 6.12-5.796 7.488-10.26l-2.448-.504zm-.396 4.5c1.584 1.044 3.492 2.592 4.428 3.636l1.44-1.8c-.936-1.008-2.916-2.448-4.5-3.42l-1.368 1.584zm10.476-4.536c-.792 3.924-2.736 7.02-5.652 8.928.54.432 1.476 1.332 1.836 1.764 3.132-2.268 5.328-5.76 6.3-10.332l-2.484-.36zm-.756 4.68c2.412 1.584 5.436 3.96 6.912 5.508l1.656-1.872c-1.476-1.512-4.608-3.78-7.02-5.292l-1.548 1.656zm-4.032-27.36c-2.016 3.384-5.94 6.912-10.296 9.18.576.432 1.44 1.296 1.836 1.8 4.5-2.484 8.604-6.12 11.088-10.116l-2.628-.864zm.936 1.188l-1.908 1.26c2.88 3.096 8.172 6.408 12.528 8.316.216-.684.756-1.8 1.224-2.448-4.14-1.476-9.324-4.392-11.844-7.128zm26.64 9.756h5.724v4.5h-5.724v-4.5zm0 6.732h5.724v4.5h-5.724v-4.5zm0-13.392h5.724v4.428h-5.724v-4.428zm-2.34-2.412v22.716h10.512V15.853h-10.512zm6.372 24.48c1.476 1.764 3.24 4.248 4.032 5.76l2.16-1.332c-.828-1.476-2.664-3.852-4.14-5.58l-2.052 1.152zm-4.86-1.008c-1.08 2.448-2.952 4.968-4.86 6.66.612.36 1.656 1.08 2.16 1.512 1.908-1.836 3.96-4.716 5.184-7.524l-2.484-.648zm17.964-25.056v29.736c0 .612-.216.792-.828.792-.576.036-2.484.072-4.608 0 .36.72.684 1.872.828 2.556 2.952 0 4.644-.036 5.688-.504 1.008-.432 1.44-1.188 1.44-2.88v-29.7h-2.52zm-6.264 3.708v20.592h2.376V17.977h-2.376zm-21.528-1.404c2.016 1.008 4.5 2.664 5.652 3.888l1.62-2.196c-1.224-1.152-3.708-2.7-5.724-3.636l-1.548 1.944zm-1.584 9.684c2.124.936 4.68 2.448 5.94 3.564l1.548-2.196c-1.26-1.116-3.852-2.52-5.976-3.348l-1.512 1.98zm.756 19.224l2.412 1.44c1.584-3.348 3.384-7.776 4.752-11.52l-2.16-1.44c-1.476 4.032-3.528 8.748-5.004 11.52zm43.056-16.092h18.18V32.7h-18.18v-3.312zm0 5.4h18.18V38.1h-18.18v-3.312zm0-10.728h18.18v3.24h-18.18v-3.24zm-2.808-2.16v18.36h23.868V21.9h-23.868zm14.328 20.736c4.212 1.44 8.496 3.348 11.052 4.752l2.52-1.836c-2.808-1.404-7.416-3.276-11.664-4.68l-1.908 1.764zm-17.748-26.532v2.484h30.06v-2.484h-30.06zm13.716 1.044c-.216 1.656-.756 4.068-1.26 5.652l2.556.468c.576-1.476 1.26-3.672 1.872-5.724l-3.168-.396zm-3.708 23.544c-2.484 1.656-7.416 3.528-11.304 4.572.612.576 1.44 1.512 1.872 2.088 3.852-1.08 8.748-2.988 11.88-4.896l-2.448-1.764zm39.636-23.796v2.124h17.568v-2.124H584.56zm-.396 20.196v2.088h18.396v-2.088h-18.396zm7.848-22.824v19.404h2.376V14.269h-2.376zm-4.392 12.24h11.376v2.196H587.62v-2.196zm0-3.852h11.376v2.196H587.62v-2.196zm-2.232-1.692v9.468H601.3v-9.468h-15.912zM584.2 32.88l.18 2.088c4.14-.108 10.188-.216 16.056-.396l.036-1.98c-6.12.144-12.24.252-16.272.288zm11.448 2.268v9.54c0 .396-.108.504-.612.54-.468.036-2.124.036-3.96-.036.324.648.684 1.548.792 2.232 2.448 0 3.996 0 5.04-.36 1.008-.36 1.26-1.008 1.26-2.34v-9.576h-2.52zm-9.36 5.472c1.368 1.26 2.772 3.096 3.384 4.392l2.016-1.296c-.684-1.26-2.124-2.988-3.564-4.212l-1.836 1.116zm10.368-9.54c1.62 1.476 3.42 3.564 4.212 4.968l1.908-1.116c-.864-1.368-2.664-3.348-4.32-4.788l-1.8.936zm-26.82-12.924v2.412h13.968v-2.412h-13.968zm-.468 20.52v2.412h14.94v-2.412h-14.94zm6.372-24.408v9.828h2.484v-9.828h-2.484zm.252 9.972v10.476h-.252v12.708h2.484V34.717h-.252V24.24h-1.98zm-3.276 6.192h8.604v3.312h-8.604v-3.312zm0-5.184h8.604v3.24h-8.604v-3.24zm-2.088-2.016V35.76h12.78V23.233h-12.78zm34.488 10.116l.72 2.592c2.988-1.044 6.768-2.412 10.368-3.708l-.432-2.448c-3.924 1.368-7.956 2.736-10.656 3.564zm.396-11.844v2.52h10.512v-2.52h-10.512zm4.248-7.272v29.772c0 .468-.144.612-.576.612-.432 0-1.728 0-3.168-.036.324.792.684 1.944.792 2.664 2.16 0 3.492-.108 4.356-.54.9-.468 1.224-1.224 1.224-2.736V14.233h-2.628zm13.5 0c-1.224 3.204-3.528 7.236-7.056 10.224.54.36 1.332 1.188 1.692 1.764 3.852-3.42 6.336-7.74 7.92-11.592l-2.556-.396zm.072 2.772l-1.296 2.196h8.388v-2.196h-7.092zm-4.428 5.832v14.436h2.268V25.069h12.672v12.204h2.34V22.837h-17.28zm-3.06 13.644v2.268h22.644V36.48h-22.644zm10.332-3.564C625.6 39.613 623.908 43.5 614.8 45.3c.468.54 1.116 1.476 1.332 2.088 9.864-2.16 11.952-6.732 12.672-14.472h-2.628zm3.564-15.912v.468c-.648 1.692-1.908 4.176-3.132 5.652.54.288 1.368.792 1.8 1.116 1.296-1.584 2.88-4.14 3.852-6.3l-1.584-1.044-.432.108h-.504zm-2.592 7.956c-1.116 2.7-3.132 5.112-5.544 6.696.54.324 1.44.972 1.836 1.332 2.304-1.728 4.572-4.5 5.796-7.488l-2.088-.54zm-.792 3.384c2.124 1.296 4.752 3.168 6.012 4.5l1.332-1.512c-1.296-1.296-3.924-3.132-6.048-4.32l-1.296 1.332zm2.16 12.24c2.844 2.124 6.588 5.076 8.424 6.84l1.764-1.692c-1.944-1.692-5.76-4.572-8.532-6.588l-1.656 1.44zm28.044-6.336v13.104h2.844V34.249h-2.844zm-14.724 2.988v2.52h32.328v-2.52h-32.328zm.72-19.728v2.448h31.32v-2.448h-31.32zm27.252 3.816c-1.224 1.44-3.492 3.456-5.112 4.644l1.98 1.296a36.435 36.435 0 005.4-4.572l-2.268-1.368zm-9.972 7.236c1.62 1.872 3.348 4.536 4.032 6.192l2.16-.936c-.756-1.692-2.556-4.248-4.212-6.12l-1.98.864zm-17.82 3.78l1.332 2.196c2.412-1.188 5.328-2.736 8.1-4.248l-.54-2.016c-3.276 1.548-6.66 3.132-8.892 4.068zm1.044-9.396c1.944 1.188 4.32 3.024 5.436 4.212l1.944-1.656c-1.224-1.188-3.636-2.916-5.544-4.032l-1.836 1.476zm21.276 6.876c2.52 1.476 5.616 3.672 7.128 5.112l2.016-1.62c-1.62-1.476-4.788-3.564-7.2-4.968l-1.944 1.476zm-12.168-2.736c0-.54 1.548-1.224 1.548-1.224v-.072c1.836-1.656 3.852-4.14 5.436-6.696l-2.34-.936c-1.224 2.376-3.24 4.86-3.816 5.472-.576.648-1.116 1.08-1.62 1.188.288.612.648 1.764.792 2.268zm0 0c.576-.252 1.62-.432 7.848-.864.072-.576.288-1.548.468-2.196l-7.02.432-1.332.756.036 1.872zm-.72 7.2c0-.504 1.62-1.188 1.62-1.188v-.072c3.852-2.7 7.848-6.552 11.34-10.692l-2.16-1.26c-2.988 3.996-7.272 7.992-8.64 9.036-1.188 1.008-2.124 1.728-2.952 1.836.288.648.648 1.836.792 2.34zm0 0c.792-.324 2.052-.54 12.312-1.512-.072-.504-.036-1.44.036-2.088l-11.016.9-1.404.828.072 1.872zm4.176-19.62c.864 1.26 1.872 2.988 2.268 4.104l2.736-.864c-.468-1.08-1.44-2.7-2.34-3.924l-2.664.684z" fill="#000"/><path d="M697.8 25.673h-7.96v2.8h5.08v11.36h2.88v-14.16zm0 12.96h-2.6c-1.88 1.72-4.04 3.52-5.8 4.8l1.56 2.92c2-1.76 3.84-3.48 5.6-5.2 2.48 3.16 6.12 4.56 11.4 4.76 4.48.2 13.04.12 17.56-.08.12-.88.6-2.28.96-2.96-4.84.32-14.08.44-18.52.24-4.76-.16-8.28-1.52-10.16-4.48zm-7.6-26.08c2.44 1.96 5.2 4.76 6.32 6.76l2.48-1.88c-1.24-1.96-4.04-4.72-6.52-6.52l-2.28 1.64zm14.6 8.44c.84 1.28 1.6 3.04 1.8 4.2l2.76-.72c-.28-1.16-1.08-2.88-2-4.12l-2.56.64zm-2.44-8.04v2.24h20.84v-2.24h-20.84zm-.28 16.88v2.24h21.68v-2.24h-21.68zm-1.52-4.96v2.28h24.8v-2.28h-24.8zm-.88-6.68v2.32h26.24v-2.32h-26.24zm.4 16.88v2.32h25.52v-2.32h-25.52zm11-25.2v9.8h3v-9.8h-3zm0 16.04v15.28h3v-15.28h-3zm6.52-5.72c-.4 1.2-1.24 3.08-1.88 4.32l2.36.72c.72-1.08 1.6-2.68 2.44-4.24l-2.92-.8zm17.2 4.68v2.8h9.96v-2.8h-9.96zm8.76 0v.52c-.12 8.64-.32 11.64-.92 12.36-.28.36-.68.4-1.24.4-.68 0-2.44 0-4.24-.16.44.76.76 1.92.84 2.8 1.96.08 3.76.12 4.8 0 1.12-.12 1.76-.4 2.4-1.12.84-1.12 1.08-4.48 1.28-13.52v-1.28h-2.92zm11.28-12.96c2.52 1.32 5.6 3.36 7.12 4.76l1.88-2.04c-1.56-1.4-4.72-3.32-7.2-4.6l-1.8 1.88zm5.72 10.84c-3 9.64-8.64 16.96-16.76 21.28.64.6 1.76 1.84 2.2 2.44 8.2-4.84 14.16-12.56 17.56-23l-3-.72zm-25.52-6.08v2.96H766v-2.96h-30.96zm-1.92 0v11.24c0 5.24-.36 12.12-3.68 17.04.72.36 2 1.4 2.52 2 3.64-5.24 4.28-13.32 4.28-19v-11.28h-3.12zm16.6-6.72c.16 19.16 3.76 36.44 11.92 36.44 3.04 0 4.16-1.96 4.72-8.8-.8-.28-1.92-.96-2.6-1.64-.24 5.32-.76 7.4-1.88 7.4-5.2 0-9.12-15-9.04-33.4h-3.12zm36.6-.04v5.6h3.08v-5.6h-3.08zm0 22.84v14.08h3.08v-14.08h-3.08zm-16.2 3.12v2.76h35.76v-2.76h-35.76zm1.24-21.48v2.76h33.4v-2.76h-33.4zm30.24 3.84c-1.52 1.6-4.24 3.76-6.2 5.12l2.16 1.28c2.04-1.28 4.64-3.12 6.68-5l-2.64-1.4zm-15.92-1.72c-1 1.72-2.76 4.32-4.16 5.92l1.96.92c1.48-1.52 3.28-3.76 4.8-5.84l-2.6-1zm5.84 3.04c-2.56 3.6-6.88 8.56-10.28 11.56l1.8 1.04c3.4-2.88 7.76-7.56 10.88-11.44l-2.4-1.16zm-11.72 2.84c2.36 1.48 5.28 3.68 6.68 5.16l1.56-2c-1.44-1.44-4.44-3.52-6.72-4.88l-1.52 1.72zm-.48 7.76l.4 2.6c4.12-.28 9.6-.64 15.04-1.08v-2.2c-5.76.28-11.56.56-15.44.68zm10.72-3.6c1.96 2.24 4.08 5.4 4.96 7.44l2.32-1.2c-.92-2-3.12-5.04-5.12-7.24l-2.16 1zm-20.08 4.44l1.52 2.44c2.64-1.2 5.96-2.76 9.16-4.28l-.56-2.28c-3.72 1.56-7.56 3.16-10.12 4.12zm1.44-10.52c2.24 1.28 4.96 3.2 6.32 4.52l2.08-1.88c-1.4-1.28-4.2-3.12-6.4-4.28l-2 1.64zm23.24 7.64c3.12 1.6 7.12 4.08 9.08 5.72l2.2-1.92c-2.08-1.64-6.12-3.96-9.2-5.48l-2.08 1.68zm37.781-13.731v29.09h-4.403V18.786h-.171l-6.96 4.546v-4.205l7.259-4.744h4.275zm17.997 29.574c-2.244-.01-4.162-.602-5.753-1.776-1.59-1.174-2.807-2.883-3.65-5.128-.843-2.244-1.264-4.948-1.264-8.11 0-3.154.421-5.848 1.264-8.083.852-2.235 2.074-3.94 3.665-5.114 1.6-1.174 3.513-1.761 5.738-1.761 2.226 0 4.134.592 5.725 1.776 1.591 1.174 2.808 2.878 3.65 5.113.853 2.226 1.279 4.915 1.279 8.068 0 3.173-.422 5.881-1.264 8.125-.843 2.235-2.06 3.944-3.651 5.128-1.591 1.174-3.504 1.762-5.739 1.762zm0-3.793c1.97 0 3.509-.961 4.617-2.883 1.117-1.923 1.676-4.702 1.676-8.339 0-2.414-.256-4.455-.767-6.122-.502-1.676-1.226-2.945-2.173-3.807-.938-.87-2.055-1.306-3.353-1.306-1.96 0-3.499.966-4.616 2.897-1.118 1.932-1.681 4.711-1.69 8.338 0 2.425.25 4.475.752 6.151.512 1.667 1.236 2.93 2.174 3.793.937.852 2.064 1.278 3.38 1.278zm15.082-2.372V34.24l12.571-19.858h2.798v5.227h-1.775l-8.992 14.233v.227h17.23v3.722H865.5zm13.793 5.682V36.71l.028-1.619v-20.71h4.162v29.09h-4.19zm28.174-5.455v-1.534c0-1.099.228-2.102.682-3.011a5.447 5.447 0 012.017-2.202c.89-.559 1.965-.838 3.225-.838 1.288 0 2.367.274 3.238.824a5.279 5.279 0 011.975 2.201c.454.919.682 1.928.682 3.026v1.534c0 1.099-.228 2.107-.682 3.026a5.464 5.464 0 01-2.003 2.201c-.871.55-1.941.824-3.21.824-1.279 0-2.358-.274-3.239-.824a5.464 5.464 0 01-2.003-2.201c-.454-.919-.682-1.927-.682-3.026zm3.31-1.534v1.534c0 .815.194 1.553.582 2.216.389.663 1.066.994 2.032.994.956 0 1.624-.331 2.002-.994a4.385 4.385 0 00.569-2.216v-1.534a4.48 4.48 0 00-.554-2.216c-.36-.663-1.033-.994-2.017-.994-.947 0-1.62.331-2.017.994a4.222 4.222 0 00-.597 2.216zm-17.94-15.114v-1.534c0-1.098.227-2.107.681-3.025a5.444 5.444 0 012.018-2.202c.89-.55 1.964-.824 3.224-.824 1.288 0 2.367.275 3.239.824a5.277 5.277 0 011.974 2.202c.445.918.668 1.927.668 3.025v1.534c0 1.099-.228 2.107-.682 3.026a5.36 5.36 0 01-1.989 2.202c-.871.549-1.941.824-3.21.824-1.288 0-2.372-.275-3.253-.824a5.502 5.502 0 01-1.989-2.202c-.454-.919-.681-1.927-.681-3.026zm3.324-1.534v1.534c0 .815.189 1.553.568 2.216.388.663 1.065.995 2.031.995.947 0 1.61-.332 1.989-.995a4.305 4.305 0 00.582-2.216v-1.534a4.48 4.48 0 00-.554-2.216c-.369-.663-1.042-.994-2.017-.994-.947 0-1.619.331-2.017.994a4.305 4.305 0 00-.582 2.216zm-1.975 23.637l20-29.091h3.395l-20 29.09h-3.395z" fill="#2F80ED"/><path d="M2.052 93.217V95.7h9.828v-2.484H2.052zm4.32-6.984v33.084h2.196V86.233H6.372zm-.216 8.46c-.828 5.004-2.808 11.088-4.788 14.256.396.684.972 1.872 1.224 2.664 2.124-3.6 4.104-10.62 5.004-16.308l-1.44-.612zm2.196 3.06l-1.044 1.116c.828 1.404 2.988 5.508 3.672 7.236l1.332-2.016c-.612-1.044-3.24-5.364-3.96-6.336zm9.036-3.384v2.196h10.8v-2.196h-10.8zm-1.656 6.804h3.852v4.752h-3.852v-4.752zm-2.088-1.98v8.712h8.1v-8.712h-8.1zm12.42 1.98h4.032v4.752h-4.032v-4.752zm-2.124-1.98v8.712h8.316v-8.712H23.94zm-7.236 9.504c-1.152 3.924-3.6 7.056-6.912 9 .576.432 1.476 1.296 1.872 1.764 3.348-2.268 6.12-5.796 7.488-10.26l-2.448-.504zm-.396 4.5c1.584 1.044 3.492 2.592 4.428 3.636l1.44-1.8c-.936-1.008-2.916-2.448-4.5-3.42l-1.368 1.584zm10.476-4.536c-.792 3.924-2.736 7.02-5.652 8.928.54.432 1.476 1.332 1.836 1.764 3.132-2.268 5.328-5.76 6.3-10.332l-2.484-.36zm-.756 4.68c2.412 1.584 5.436 3.96 6.912 5.508l1.656-1.872c-1.476-1.512-4.608-3.78-7.02-5.292l-1.548 1.656zm-4.032-27.36c-2.016 3.384-5.94 6.912-10.296 9.18.576.432 1.44 1.296 1.836 1.8 4.5-2.484 8.604-6.12 11.088-10.116l-2.628-.864zm.936 1.188l-1.908 1.26c2.88 3.096 8.172 6.408 12.528 8.316.216-.684.756-1.8 1.224-2.448-4.14-1.476-9.324-4.392-11.844-7.128zm26.64 9.756h5.724v4.5h-5.724v-4.5zm0 6.732h5.724v4.5h-5.724v-4.5zm0-13.392h5.724v4.428h-5.724v-4.428zm-2.34-2.412v22.716h10.512V87.853H47.232zm6.372 24.48c1.476 1.764 3.24 4.248 4.032 5.76l2.16-1.332c-.828-1.476-2.664-3.852-4.14-5.58l-2.052 1.152zm-4.86-1.008c-1.08 2.448-2.952 4.968-4.86 6.66.612.36 1.656 1.08 2.16 1.512 1.908-1.836 3.96-4.716 5.184-7.524l-2.484-.648zm17.964-25.056v29.736c0 .612-.216.792-.828.792-.576.036-2.484.072-4.608 0 .36.72.684 1.872.828 2.556 2.952 0 4.644-.036 5.688-.504 1.008-.432 1.44-1.188 1.44-2.88v-29.7h-2.52zm-6.264 3.708v20.592h2.376V89.977h-2.376zm-21.528-1.404c2.016 1.008 4.5 2.664 5.652 3.888l1.62-2.196c-1.224-1.152-3.708-2.7-5.724-3.636l-1.548 1.944zm-1.584 9.684c2.124.936 4.68 2.448 5.94 3.564l1.548-2.196c-1.26-1.116-3.852-2.52-5.976-3.348l-1.512 1.98zm.756 19.224l2.412 1.44c1.584-3.348 3.384-7.776 4.752-11.52l-2.16-1.44c-1.476 4.032-3.528 8.748-5.004 11.52zm40.824-27.396h6.444v5.472h-6.444v-5.472zM76.5 87.853v9.936h11.34v-9.936H76.5zm17.82 2.232h6.696v5.472H94.32v-5.472zm-2.412-2.232v9.936h11.628v-9.936H91.908zm-18.072 13.356v2.34h32.328v-2.34H73.836zm4.608 14.724v2.232h8.748v-2.232h-8.748zm14.328 0v2.232h9.072v-2.232h-9.072zm-15.552-7.812v11.196h2.412v-9h6.156v8.82h2.484v-11.016H77.22zm14.4 0v11.196h2.376v-9h6.444v8.82h2.52v-11.016H91.62zm-3.996-10.98c-1.98 4.392-6.804 9.18-14.616 12.024.54.432 1.224 1.368 1.512 1.98 8.172-3.204 13.212-8.28 15.768-13.5l-2.664-.504zm6.516 1.872c1.8.684 4.032 1.872 5.148 2.772l1.404-1.512c-1.152-.9-3.42-2.016-5.22-2.628l-1.332 1.368zm-2.052 4.068c4.932 2.232 9.72 5.256 12.492 7.812l1.872-1.62c-2.88-2.592-7.956-5.58-12.924-7.776l-1.44 1.584zm40.464-8.928v2.484h10.008v-2.484h-10.008zm-5.94 21.06v2.448h12.996v-2.448h-12.996zm-1.332-11.664v15.804h2.52v-13.356h10.404v13.212h2.628v-15.66H125.28zm5.904-17.28V104.7h2.628V86.269h-2.628zm-17.892 24.768c-.864 2.556-2.34 5.112-4.104 6.804.612.36 1.692 1.116 2.16 1.548 1.8-1.908 3.492-4.788 4.5-7.74l-2.556-.612zm4.896.972c1.368 1.764 2.844 4.212 3.456 5.832l2.304-1.152c-.684-1.584-2.16-3.924-3.6-5.724l-2.16 1.044zm-4.608-15.408h6.66v4.644h-6.66v-4.644zm0 6.732h6.66v4.716h-6.66v-4.716zm0-13.464h6.66v4.608h-6.66v-4.608zm-2.52-2.232v22.644h11.772V87.637H111.06zm52.848 1.512v10.908h2.052V89.149h-2.052zm5.328 0v10.908h2.052V89.149h-2.052zm2.124 23.004c1.8 1.8 3.852 4.392 4.788 6.084l2.088-1.296c-.972-1.656-3.024-4.104-4.932-5.904l-1.944 1.116zm-10.08-1.08c-1.116 2.16-3.024 4.32-4.968 5.832.612.324 1.62 1.044 2.088 1.44 1.908-1.62 3.924-4.14 5.292-6.588l-2.412-.684zm-3.672-23.148v2.232h20.196v-2.232h-20.196zm2.376 15.012v2.16h15.552v-2.16h-15.552zm-2.304 4.68v2.196h20.304v-2.196H157.68zm2.988-12.96h14.148v4.284h-14.148v-4.284zm-2.268-2.088v8.46h18.792v-8.46H158.4zm7.92 16.164v10.62h2.484v-10.62h-2.484zm-20.268-15.516V95.7h11.556v-2.484h-11.556zm5.076-6.984v33.084h2.484V86.233h-2.484zm-.18 8.604c-1.044 4.932-3.456 11.196-5.832 14.4.468.648 1.152 1.836 1.44 2.628 2.448-3.672 4.86-10.764 5.976-16.416l-1.584-.612zm2.52 2.628l-1.296 1.008c.936 1.476 3.276 5.76 4.068 7.56l1.656-1.944c-.684-1.08-3.6-5.652-4.428-6.624zm28.296 2.952v2.088h32.508v-2.088h-32.508zm2.916 8.604v2.088h26.676v-2.088H184.68zm-2.304 4.356v2.16h31.32v-2.16h-31.32zm3.708-17.136v2.052h21.564v6.552h-21.852v2.052h24.624V96.241h-24.336zm10.404-1.98v25.092h2.772V94.261h-2.772zm-10.152-5.904v2.16h11.448v-2.16h-11.448zm14.58.036v2.16h13.5v-2.16h-13.5zm-13.86-2.412c-1.224 2.556-3.312 5.076-5.544 6.768.576.432 1.512 1.368 1.908 1.8 2.232-1.908 4.608-4.86 6.048-7.884l-2.412-.684zm14.436 0c-1.008 2.448-2.808 4.788-4.86 6.336.576.396 1.62 1.224 2.052 1.656 2.088-1.764 4.14-4.5 5.292-7.344l-2.484-.648zm-12.6 5.868c1.08 1.044 2.448 2.592 3.096 3.528l1.872-1.44c-.684-.9-2.088-2.34-3.168-3.384l-1.8 1.296zm15.732-.036c1.152 1.044 2.52 2.556 3.132 3.528l1.944-1.476c-.684-.9-2.088-2.304-3.204-3.312l-1.872 1.26zm34.524 1.548v2.448h11.412V93.36h-11.412zm1.224-7.128c-1.08 6.084-2.88 12.204-5.4 16.164.54.36 1.512 1.224 1.908 1.656 2.556-4.32 4.572-10.836 5.796-17.352l-2.304-.468zm5.112 8.604c-1.152 11.448-4.212 18.612-12.456 22.536.432.468 1.152 1.512 1.404 2.052 8.676-4.536 12.06-12.024 13.464-24.372l-2.412-.216zm-5.292 1.044l-1.98.288c1.512 10.512 4.428 19.044 10.872 23.04.396-.684 1.188-1.62 1.764-2.088-6.264-3.42-9.288-11.628-10.656-21.24zm-14.184-9.648v18.9h2.16v-18.9h-2.16zm-3.852 4.248h10.116v6.12h-10.116v-6.12zm-2.124-1.908v9.9h14.472v-9.9h-14.472zm1.476 13.212h11.34v2.412h-11.34v-2.412zm-2.304-1.728v5.868h16.02v-5.868h-16.02zm-1.656-7.74v2.088h3.384v-.108h12.024v.108h3.6v-2.088h-3.6v.108h-12.024v-.108h-3.384zm2.484 21.096l2.34.432c1.512-2.088 3.6-5.472 4.86-8.388l-2.268-.504c-1.152 2.808-3.24 6.228-4.932 8.46zm0 0c4.284 1.116 9.504 3.312 12.312 5.004l1.764-1.62c-2.916-1.62-8.1-3.78-12.276-4.896l-1.8 1.512zm10.368-6.624v1.188c0 2.88-1.008 7.164-13.104 9.54.432.468.972 1.296 1.188 1.8 12.816-2.628 14.148-7.56 14.148-11.268v-1.26H230.4zm-12.816 1.44v1.98h18.684v-1.98h-18.684z" fill="#000"/><path d="M273.8 97.673h-7.96v2.8h5.08v11.36h2.88v-14.16zm0 12.96h-2.6c-1.88 1.72-4.04 3.52-5.8 4.8l1.56 2.92c2-1.76 3.84-3.48 5.6-5.2 2.48 3.16 6.12 4.56 11.4 4.76 4.48.2 13.04.12 17.56-.08.12-.88.6-2.28.96-2.96-4.84.32-14.08.44-18.52.24-4.76-.16-8.28-1.52-10.16-4.48zm-7.6-26.08c2.44 1.96 5.2 4.76 6.32 6.76l2.48-1.88c-1.24-1.96-4.04-4.72-6.52-6.52l-2.28 1.64zm14.6 8.44c.84 1.28 1.6 3.04 1.8 4.2l2.76-.72c-.28-1.16-1.08-2.88-2-4.12l-2.56.64zm-2.44-8.04v2.24h20.84v-2.24h-20.84zm-.28 16.88v2.24h21.68v-2.24h-21.68zm-1.52-4.96v2.28h24.8v-2.28h-24.8zm-.88-6.68v2.32h26.24v-2.32h-26.24zm.4 16.88v2.32h25.52v-2.32h-25.52zm11-25.2v9.8h3v-9.8h-3zm0 16.04v15.28h3v-15.28h-3zm6.52-5.72c-.4 1.2-1.24 3.08-1.88 4.32l2.36.72c.72-1.08 1.6-2.68 2.44-4.24l-2.92-.8zm17.2 4.68v2.8h9.96v-2.8h-9.96zm8.76 0v.52c-.12 8.64-.32 11.64-.92 12.36-.28.36-.68.4-1.24.4-.68 0-2.44 0-4.24-.16.44.76.76 1.92.84 2.8 1.96.08 3.76.12 4.8 0 1.12-.12 1.76-.4 2.4-1.12.84-1.12 1.08-4.48 1.28-13.52v-1.28h-2.92zm11.28-12.96c2.52 1.32 5.6 3.36 7.12 4.76l1.88-2.04c-1.56-1.4-4.72-3.32-7.2-4.6l-1.8 1.88zm5.72 10.84c-3 9.64-8.64 16.96-16.76 21.28.64.6 1.76 1.84 2.2 2.44 8.2-4.84 14.16-12.56 17.56-23l-3-.72zm-25.52-6.08v2.96H342v-2.96h-30.96zm-1.92 0v11.24c0 5.24-.36 12.12-3.68 17.04.72.36 2 1.4 2.52 2 3.64-5.24 4.28-13.32 4.28-19v-11.28h-3.12zm16.6-6.72c.16 19.16 3.76 36.44 11.92 36.44 3.04 0 4.16-1.96 4.72-8.8-.8-.28-1.92-.96-2.6-1.64-.24 5.32-.76 7.4-1.88 7.4-5.2 0-9.12-15-9.04-33.4h-3.12zm36.6-.04v5.6h3.08v-5.6h-3.08zm0 22.84v14.08h3.08v-14.08h-3.08zm-16.2 3.12v2.76h35.76v-2.76h-35.76zm1.24-21.48v2.76h33.4v-2.76h-33.4zm30.24 3.84c-1.52 1.6-4.24 3.76-6.2 5.12l2.16 1.28c2.04-1.28 4.64-3.12 6.68-5l-2.64-1.4zm-15.92-1.72c-1 1.72-2.76 4.32-4.16 5.92l1.96.92c1.48-1.52 3.28-3.76 4.8-5.84l-2.6-1zm5.84 3.04c-2.56 3.6-6.88 8.56-10.28 11.56l1.8 1.04c3.4-2.88 7.76-7.56 10.88-11.44l-2.4-1.16zm-11.72 2.84c2.36 1.48 5.28 3.68 6.68 5.16l1.56-2c-1.44-1.44-4.44-3.52-6.72-4.88l-1.52 1.72zm-.48 7.76l.4 2.6c4.12-.28 9.6-.64 15.04-1.08v-2.2c-5.76.28-11.56.56-15.44.68zm10.72-3.6c1.96 2.24 4.08 5.4 4.96 7.44l2.32-1.2c-.92-2-3.12-5.04-5.12-7.24l-2.16 1zm-20.08 4.44l1.52 2.44c2.64-1.2 5.96-2.76 9.16-4.28l-.56-2.28c-3.72 1.56-7.56 3.16-10.12 4.12zm1.44-10.52c2.24 1.28 4.96 3.2 6.32 4.52l2.08-1.88c-1.4-1.28-4.2-3.12-6.4-4.28l-2 1.64zm23.24 7.64c3.12 1.6 7.12 4.08 9.08 5.72l2.2-1.92c-2.08-1.64-6.12-3.96-9.2-5.48l-2.08 1.68zm37.781-13.731v29.091h-4.403V90.785h-.171l-6.96 4.546v-4.205l7.259-4.744h4.275zm17.997 29.488c-1.95 0-3.693-.336-5.227-1.008-1.525-.672-2.732-1.605-3.622-2.798-.881-1.203-1.354-2.595-1.421-4.177h4.461c.056.862.345 1.61.866 2.245.53.625 1.222 1.108 2.074 1.449.852.341 1.799.511 2.841.511 1.146 0 2.159-.199 3.04-.597.89-.397 1.586-.951 2.088-1.662.502-.719.753-1.548.753-2.485 0-.976-.251-1.833-.753-2.571-.493-.748-1.217-1.336-2.174-1.762-.947-.426-2.092-.639-3.437-.639h-2.457v-3.58h2.457c1.08 0 2.026-.194 2.841-.582.824-.388 1.468-.928 1.932-1.62.464-.7.696-1.52.696-2.457 0-.9-.204-1.68-.611-2.343-.398-.673-.966-1.198-1.705-1.577-.729-.379-1.591-.568-2.585-.568-.947 0-1.832.175-2.656.525-.815.341-1.477.834-1.989 1.478-.511.634-.786 1.396-.824 2.287h-4.247c.048-1.572.512-2.955 1.392-4.148.89-1.193 2.065-2.126 3.523-2.798 1.458-.673 3.078-1.009 4.858-1.009 1.865 0 3.475.365 4.83 1.094 1.363.72 2.414 1.68 3.153 2.883a7.243 7.243 0 011.108 3.95c.009 1.628-.445 3.01-1.364 4.147-.909 1.136-2.121 1.899-3.636 2.287v.227c1.932.294 3.428 1.061 4.489 2.301 1.07 1.241 1.6 2.78 1.59 4.617.01 1.6-.435 3.035-1.335 4.304-.89 1.269-2.107 2.268-3.65 2.997-1.544.72-3.31 1.079-5.299 1.079zm25.256 0c-1.78 0-3.381-.341-4.801-1.022-1.411-.692-2.538-1.639-3.381-2.841-.843-1.203-1.292-2.576-1.349-4.12h4.261c.104 1.25.658 2.278 1.662 3.083 1.004.805 2.206 1.207 3.608 1.207 1.117 0 2.107-.255 2.969-.767a5.503 5.503 0 002.045-2.145c.502-.909.753-1.946.753-3.111 0-1.183-.256-2.239-.767-3.167a5.67 5.67 0 00-2.116-2.188c-.891-.53-1.913-.8-3.069-.81-.88 0-1.766.152-2.656.455-.89.303-1.61.701-2.159 1.193l-4.02-.596 1.634-14.66h15.994v3.765h-12.344l-.923 8.14h.17c.569-.55 1.321-1.01 2.259-1.379a8.292 8.292 0 013.04-.554c1.77 0 3.347.422 4.73 1.265a8.985 8.985 0 013.281 3.451c.805 1.449 1.203 3.116 1.193 5 .01 1.885-.416 3.566-1.278 5.043a9.256 9.256 0 01-3.551 3.494c-1.506.843-3.234 1.264-5.185 1.264zm30.387-5.852v-1.534c0-1.098.227-2.102.682-3.011a5.437 5.437 0 012.017-2.202c.89-.559 1.965-.838 3.224-.838 1.288 0 2.368.275 3.239.824a5.276 5.276 0 011.974 2.201c.455.919.682 1.928.682 3.026v1.534c0 1.099-.227 2.107-.682 3.026a5.455 5.455 0 01-2.002 2.201c-.872.55-1.942.824-3.211.824-1.278 0-2.358-.274-3.238-.824a5.45 5.45 0 01-2.003-2.201c-.455-.919-.682-1.927-.682-3.026zm3.31-1.534v1.534c0 .815.194 1.553.582 2.216.388.663 1.065.994 2.031.994.957 0 1.624-.331 2.003-.994a4.383 4.383 0 00.568-2.216v-1.534c0-.814-.184-1.553-.554-2.216-.359-.663-1.032-.994-2.017-.994-.947 0-1.619.331-2.017.994a4.232 4.232 0 00-.596 2.216zM467.43 93.37v-1.534c0-1.098.228-2.107.682-3.025a5.448 5.448 0 012.017-2.202c.89-.55 1.965-.824 3.225-.824 1.288 0 2.367.275 3.238.824a5.273 5.273 0 011.975 2.202c.445.918.667 1.927.667 3.025v1.534c0 1.099-.227 2.107-.681 3.026a5.368 5.368 0 01-1.989 2.202c-.871.549-1.941.823-3.21.823-1.288 0-2.372-.274-3.253-.823a5.502 5.502 0 01-1.989-2.202c-.454-.919-.682-1.927-.682-3.026zm3.324-1.534v1.534c0 .815.19 1.553.568 2.216.389.663 1.066.995 2.032.995.947 0 1.61-.332 1.988-.995a4.296 4.296 0 00.583-2.216v-1.534a4.48 4.48 0 00-.554-2.216c-.37-.663-1.042-.994-2.017-.994-.947 0-1.62.331-2.017.994a4.296 4.296 0 00-.583 2.216zm-1.974 23.637l20-29.091h3.395l-20 29.091h-3.395z" fill="#2F80ED"/><path d="M545.448 101.785v2.592h23.22v-2.592h-23.22zm1.116 13.608v2.592h21.276v-2.592h-21.276zm9.252-24.156V116.4h2.736V91.237h-2.736zM540.66 96.06v23.22h2.664V93.433l-.036-.036-2.628 2.664zm3.924-9.576c-2.268 5.652-5.976 11.16-9.864 14.724.504.648 1.332 2.016 1.656 2.664 4.212-4.032 8.28-10.26 10.836-16.56l-2.628-.828zm3.276 3.204v2.556h19.332v-2.556H547.86zm24.192-1.656v2.34h12.276v-2.34h-12.276zm13.896 18.396v2.34h15.624v-2.34h-15.624zm-14.292-7.524v2.412h13.536v-2.412h-13.536zm6.3.972v16.344c0 .396-.144.504-.54.54-.432 0-1.872 0-3.42-.036.36.72.72 1.836.792 2.52 2.232 0 3.636-.036 4.536-.432.972-.468 1.224-1.188 1.224-2.592V99.877h-2.592zm22.68 6.552v.432c-.54 6.3-1.188 8.82-1.944 9.54-.324.324-.648.36-1.224.36a42.91 42.91 0 01-3.564-.18c.396.72.648 1.8.72 2.52 1.62.108 3.204.108 4.032.036.972-.072 1.62-.288 2.268-.936 1.044-1.08 1.692-3.816 2.376-10.584.072-.396.108-1.188.108-1.188h-2.772zm-7.956-3.564c-.612 6.228-2.016 11.664-9.504 14.436.576.468 1.296 1.44 1.62 2.088 8.136-3.168 9.9-9.252 10.584-16.524h-2.7zm-19.368-8.82c3.06 1.368 6.732 3.636 8.532 5.292l1.8-1.98c-1.872-1.656-5.616-3.78-8.64-5.04l-1.692 1.728zm11.16 4.86v.468c-.576 2.592-1.476 5.796-2.412 7.776l1.908.936c1.116-2.232 2.196-5.688 2.952-8.712l-1.656-.576-.396.108h-.396zm14.436-7.776c-1.944 5.58-6.984 8.784-13.536 10.44.54.576 1.368 1.692 1.692 2.268 6.804-2.124 12.204-5.724 14.616-12.24l-2.772-.468zm-7.704-4.896c-1.44 3.456-4.068 6.732-6.912 8.856.684.36 1.764 1.116 2.232 1.584 2.772-2.304 5.544-5.904 7.236-9.756l-2.556-.684zm-.648 5.652l-2.232.756c2.88 5.544 8.28 9.576 14.868 11.34.36-.72 1.152-1.764 1.728-2.304-6.408-1.404-11.772-5.004-14.364-9.792zm-12.924 7.812c-1.188 4.14-3.744 8.856-6.336 11.304.468.648 1.116 1.764 1.404 2.52 2.808-2.808 5.4-8.388 6.768-13.14l-1.836-.684zm12.78-9.648l-1.116 2.304h14.868v-2.304h-13.752zm-6.732-2.016v.504c-1.188 1.944-3.708 4.572-6.012 6.084.54.324 1.368.9 1.836 1.332 2.484-1.656 5.292-4.392 6.948-6.912l-1.764-1.116-.432.108h-.576zm33.192 1.44v2.268h22.644v-2.268h-22.644zm0 19.296v2.304h23.148v-2.304h-23.148zm9.756-22.5v29.052h2.664V86.269h-2.664zm-5.544 14.904h13.932v2.916h-13.932v-2.916zm0-4.752h13.932v2.844h-13.932V96.42zm-2.484-2.016v11.7h19.044v-11.7H618.6zm-9.612-6.984c1.476 1.8 3.348 4.32 4.212 5.832l2.16-1.404c-.9-1.476-2.772-3.816-4.32-5.58l-2.052 1.152zm-1.332 7.128v2.268h7.596v-2.268h-7.596zm6.408 16.524l-1.8.828c2.736 5.94 7.452 6.876 15.912 6.876 3.96 0 8.496-.072 11.916-.288.144-.72.468-1.944.864-2.52-3.708.324-8.964.468-12.78.468-7.2 0-11.88-.648-14.112-5.364zm0-7.524v.468c-.9 6.48-3.42 11.088-6.984 13.536.54.396 1.44 1.332 1.8 1.872 3.744-2.772 6.516-7.884 7.668-15.444l-1.224-.504-.468.072h-.792zm-5.868 2.7c.252-.288 1.188-.504 2.124-.504h4.86v-2.196h-5.688l-1.296.648v2.052zm0-.036c0-.684 2.016-1.692 2.016-1.692 2.016-2.268 5.184-6.912 6.84-9.36l-1.764-.792-.792.324v.108c-1.188 1.908-4.5 6.84-5.58 7.92-.612.684-1.188.936-1.728 1.08.288.54.828 1.8 1.008 2.412zm56.844-19.98c-.324 1.332-.972 3.312-1.548 4.644l2.268.612c.684-1.152 1.512-2.952 2.304-4.644l-3.024-.612zm-4.248 11.16h11.304v3.204h-11.304v-3.204zm0-5.184h11.304v3.168h-11.304v-3.168zm-2.52-2.124v12.672h16.452V90.085h-16.452zm7.2 11.772v14.508c0 .432-.108.54-.576.576-.468.036-2.016.036-3.708-.036.36.72.684 1.764.792 2.484 2.34 0 3.888 0 4.86-.432.936-.432 1.224-1.188 1.224-2.556v-14.544h-2.592zm-8.532 3.924v2.268h5.868v-2.268h-5.868zm5.292 0v.396c-1.044 4.356-3.996 7.956-7.236 9.576.504.468 1.224 1.332 1.548 1.908 3.708-2.052 6.84-5.94 8.136-11.412l-1.584-.576-.432.108h-.432zm11.592-1.728c-1.26 1.584-3.564 3.816-5.184 5.112l1.512 1.332c1.728-1.224 3.888-3.132 5.724-4.824l-2.052-1.62zm-5.904-.432l-1.872.504c1.584 5.832 4.644 11.088 8.856 13.68.432-.684 1.224-1.656 1.8-2.124-4.14-2.124-7.272-6.876-8.784-12.06zm-16.164-3.168c.864 2.52 1.656 5.832 1.944 7.812l2.196-.684c-.288-1.908-1.188-5.148-2.088-7.632l-2.052.504zm-3.24 9.252c.396 2.448.756 5.652.828 7.776l2.124-.396c-.108-2.124-.468-5.256-.9-7.74l-2.052.36zm-3.528-.288c-.324 2.988-.864 6.264-1.728 8.496.576.18 1.62.54 2.088.792.756-2.268 1.476-5.76 1.872-8.928l-2.232-.36zm-.864-9.684c0-.54 1.692-1.404 1.692-1.404v-.072c2.304-2.844 4.68-7.02 6.48-11.016l-2.52-1.044c-1.404 3.888-3.816 7.992-4.572 9.072-.72 1.08-1.332 1.836-1.944 1.98.288.684.72 1.944.864 2.484zm0 0c.576-.288 1.548-.504 7.272-1.152 0-.54.108-1.476.216-2.196l-6.264.576-1.296.756.072 2.016zm.216 8.1c0-.54 1.764-1.368 1.764-1.368v-.072c3.384-3.528 6.876-8.46 9.576-13.356l-2.376-1.404c-2.304 4.86-6.048 9.972-7.164 11.232-1.116 1.332-1.908 2.268-2.664 2.448.288.684.72 1.98.864 2.52zm0 0c.72-.36 1.836-.612 9.864-1.8-.036-.54 0-1.512.108-2.16l-8.748 1.116-1.296.828.072 2.016zm7.56 1.188c.648 1.872 1.404 4.32 1.656 5.904l2.016-.648c-.324-1.584-1.08-3.96-1.8-5.832l-1.872.576z" fill="#000"/><path d="M699.8 97.673h-7.96v2.8h5.08v11.36h2.88v-14.16zm0 12.96h-2.6c-1.88 1.72-4.04 3.52-5.8 4.8l1.56 2.92c2-1.76 3.84-3.48 5.6-5.2 2.48 3.16 6.12 4.56 11.4 4.76 4.48.2 13.04.12 17.56-.08.12-.88.6-2.28.96-2.96-4.84.32-14.08.44-18.52.24-4.76-.16-8.28-1.52-10.16-4.48zm-7.6-26.08c2.44 1.96 5.2 4.76 6.32 6.76l2.48-1.88c-1.24-1.96-4.04-4.72-6.52-6.52l-2.28 1.64zm14.6 8.44c.84 1.28 1.6 3.04 1.8 4.2l2.76-.72c-.28-1.16-1.08-2.88-2-4.12l-2.56.64zm-2.44-8.04v2.24h20.84v-2.24h-20.84zm-.28 16.88v2.24h21.68v-2.24h-21.68zm-1.52-4.96v2.28h24.8v-2.28h-24.8zm-.88-6.68v2.32h26.24v-2.32h-26.24zm.4 16.88v2.32h25.52v-2.32h-25.52zm11-25.2v9.8h3v-9.8h-3zm0 16.04v15.28h3v-15.28h-3zm6.52-5.72c-.4 1.2-1.24 3.08-1.88 4.32l2.36.72c.72-1.08 1.6-2.68 2.44-4.24l-2.92-.8zm17.2 4.68v2.8h9.96v-2.8h-9.96zm8.76 0v.52c-.12 8.64-.32 11.64-.92 12.36-.28.36-.68.4-1.24.4-.68 0-2.44 0-4.24-.16.44.76.76 1.92.84 2.8 1.96.08 3.76.12 4.8 0 1.12-.12 1.76-.4 2.4-1.12.84-1.12 1.08-4.48 1.28-13.52v-1.28h-2.92zm11.28-12.96c2.52 1.32 5.6 3.36 7.12 4.76l1.88-2.04c-1.56-1.4-4.72-3.32-7.2-4.6l-1.8 1.88zm5.72 10.84c-3 9.64-8.64 16.96-16.76 21.28.64.6 1.76 1.84 2.2 2.44 8.2-4.84 14.16-12.56 17.56-23l-3-.72zm-25.52-6.08v2.96H768v-2.96h-30.96zm-1.92 0v11.24c0 5.24-.36 12.12-3.68 17.04.72.36 2 1.4 2.52 2 3.64-5.24 4.28-13.32 4.28-19v-11.28h-3.12zm16.6-6.72c.16 19.16 3.76 36.44 11.92 36.44 3.04 0 4.16-1.96 4.72-8.8-.8-.28-1.92-.96-2.6-1.64-.24 5.32-.76 7.4-1.88 7.4-5.2 0-9.12-15-9.04-33.4h-3.12zm36.6-.04v5.6h3.08v-5.6h-3.08zm0 22.84v14.08h3.08v-14.08h-3.08zm-16.2 3.12v2.76h35.76v-2.76h-35.76zm1.24-21.48v2.76h33.4v-2.76h-33.4zm30.24 3.84c-1.52 1.6-4.24 3.76-6.2 5.12l2.16 1.28c2.04-1.28 4.64-3.12 6.68-5l-2.64-1.4zm-15.92-1.72c-1 1.72-2.76 4.32-4.16 5.92l1.96.92c1.48-1.52 3.28-3.76 4.8-5.84l-2.6-1zm5.84 3.04c-2.56 3.6-6.88 8.56-10.28 11.56l1.8 1.04c3.4-2.88 7.76-7.56 10.88-11.44l-2.4-1.16zm-11.72 2.84c2.36 1.48 5.28 3.68 6.68 5.16l1.56-2c-1.44-1.44-4.44-3.52-6.72-4.88l-1.52 1.72zm-.48 7.76l.4 2.6c4.12-.28 9.6-.64 15.04-1.08v-2.2c-5.76.28-11.56.56-15.44.68zm10.72-3.6c1.96 2.24 4.08 5.4 4.96 7.44l2.32-1.2c-.92-2-3.12-5.04-5.12-7.24l-2.16 1zm-20.08 4.44l1.52 2.44c2.64-1.2 5.96-2.76 9.16-4.28l-.56-2.28c-3.72 1.56-7.56 3.16-10.12 4.12zm1.44-10.52c2.24 1.28 4.96 3.2 6.32 4.52l2.08-1.88c-1.4-1.28-4.2-3.12-6.4-4.28l-2 1.64zm23.24 7.64c3.12 1.6 7.12 4.08 9.08 5.72l2.2-1.92c-2.08-1.64-6.12-3.96-9.2-5.48l-2.08 1.68zm36.418-14.129c1.297.01 2.575.246 3.835.71 1.259.464 2.396 1.222 3.409 2.273 1.023 1.051 1.837 2.472 2.443 4.261.616 1.78.928 3.997.938 6.648 0 2.547-.256 4.815-.768 6.804-.511 1.979-1.245 3.651-2.201 5.014-.947 1.364-2.098 2.401-3.452 3.111-1.354.71-2.879 1.065-4.574 1.065-1.733 0-3.272-.341-4.616-1.022a8.793 8.793 0 01-3.282-2.827c-.842-1.212-1.368-2.604-1.576-4.176h4.332c.284 1.25.862 2.263 1.733 3.04.881.767 2.017 1.15 3.409 1.15 2.131 0 3.793-.928 4.986-2.784 1.193-1.865 1.795-4.47 1.804-7.812h-.227a7.862 7.862 0 01-1.847 2.102 8.285 8.285 0 01-2.457 1.363 8.659 8.659 0 01-2.912.483c-1.676 0-3.201-.412-4.574-1.235-1.373-.824-2.467-1.956-3.281-3.395-.815-1.44-1.222-3.083-1.222-4.93 0-1.836.417-3.503 1.25-5a9.328 9.328 0 013.523-3.55c1.515-.881 3.291-1.312 5.327-1.293zm.014 3.693c-1.108 0-2.107.275-2.997.824a5.829 5.829 0 00-2.088 2.202c-.512.918-.768 1.941-.768 3.068s.247 2.15.739 3.068a5.853 5.853 0 002.046 2.173c.871.531 1.865.796 2.983.796.833 0 1.609-.161 2.329-.483a5.905 5.905 0 001.889-1.335 6.5 6.5 0 001.264-1.96c.303-.73.455-1.497.455-2.302 0-1.07-.256-2.064-.767-2.983a5.973 5.973 0 00-2.074-2.216c-.881-.568-1.884-.852-3.011-.852zm25.87 26.279c-2.245-.01-4.162-.602-5.753-1.776-1.591-1.174-2.808-2.883-3.651-5.128-.842-2.244-1.264-4.948-1.264-8.111 0-3.153.422-5.847 1.264-8.082.853-2.235 2.074-3.94 3.665-5.114 1.601-1.174 3.513-1.761 5.739-1.761 2.225 0 4.133.592 5.724 1.776 1.591 1.174 2.808 2.878 3.651 5.113.852 2.226 1.278 4.915 1.278 8.068 0 3.173-.421 5.881-1.264 8.125-.843 2.235-2.06 3.945-3.651 5.128-1.591 1.174-3.503 1.762-5.738 1.762zm0-3.793c1.969 0 3.508-.961 4.616-2.884 1.118-1.922 1.676-4.701 1.676-8.338 0-2.414-.255-4.455-.767-6.122-.502-1.676-1.226-2.945-2.173-3.807-.937-.87-2.055-1.306-3.352-1.306-1.96 0-3.499.965-4.617 2.897-1.117 1.932-1.681 4.712-1.69 8.338 0 2.425.251 4.475.753 6.151.511 1.667 1.236 2.931 2.173 3.793.938.852 2.064 1.278 3.381 1.278zm30.877-2.145v-1.534c0-1.098.227-2.102.682-3.011a5.437 5.437 0 012.017-2.202c.89-.559 1.965-.838 3.224-.838 1.288 0 2.368.275 3.239.824a5.276 5.276 0 011.974 2.201c.455.919.682 1.928.682 3.026v1.534c0 1.099-.227 2.107-.682 3.026a5.45 5.45 0 01-2.003 2.201c-.871.55-1.941.824-3.21.824-1.278 0-2.358-.274-3.238-.824a5.45 5.45 0 01-2.003-2.201c-.455-.919-.682-1.927-.682-3.026zm3.31-1.534v1.534c0 .815.194 1.553.582 2.216.388.663 1.065.994 2.031.994.957 0 1.624-.331 2.003-.994a4.383 4.383 0 00.568-2.216v-1.534c0-.814-.184-1.553-.554-2.216-.36-.663-1.032-.994-2.017-.994-.947 0-1.619.331-2.017.994a4.223 4.223 0 00-.596 2.216zM875.188 93.37v-1.534c0-1.098.227-2.107.682-3.025a5.441 5.441 0 012.017-2.202c.89-.55 1.965-.824 3.225-.824 1.287 0 2.367.275 3.238.824a5.286 5.286 0 011.975 2.202c.445.918.667 1.927.667 3.025v1.534c0 1.099-.227 2.107-.682 3.026a5.365 5.365 0 01-1.988 2.202c-.871.549-1.942.823-3.21.823-1.288 0-2.373-.274-3.253-.823a5.494 5.494 0 01-1.989-2.202c-.455-.919-.682-1.927-.682-3.026zm3.324-1.534v1.534c0 .815.189 1.553.568 2.216.389.663 1.066.995 2.032.995.946 0 1.609-.332 1.988-.995a4.306 4.306 0 00.583-2.216v-1.534a4.48 4.48 0 00-.554-2.216c-.37-.663-1.042-.994-2.017-.994-.947 0-1.62.331-2.018.994a4.305 4.305 0 00-.582 2.216zm-1.974 23.637l20-29.091h3.395l-20 29.091h-3.395z" fill="#2F80ED"/><path d="M8.136 168.817v2.52H27.72v-2.52H8.136zm-6.12 6.696v2.556h31.932v-2.556H2.016zm9.756 1.62c-.396 7.056-1.656 10.368-10.224 12.024.54.54 1.224 1.584 1.44 2.232 9.396-1.98 11.088-6.12 11.52-14.256h-2.736zm9-.108v10.044c0 2.916.864 3.744 4.176 3.744h5.544c2.88 0 3.636-1.26 3.96-6.228-.756-.18-1.872-.612-2.484-1.08-.108 4.176-.36 4.788-1.692 4.788h-5.04c-1.512 0-1.764-.18-1.764-1.224v-10.044h-2.7zM2.916 162.373v7.992h2.7v-5.364h24.552v5.364h2.772v-7.992H2.916zm12.204-3.672c.972 1.656 1.98 3.852 2.376 5.184l2.88-.9c-.468-1.368-1.548-3.492-2.52-5.076l-2.736.792zm27 13.032v2.52h8.964v-2.52H42.12zm7.884 0v.468c-.108 7.776-.288 10.476-.828 11.124-.252.324-.612.36-1.116.36-.612 0-2.196 0-3.816-.144.396.684.684 1.728.756 2.52 1.764.072 3.384.108 4.32 0 1.008-.108 1.584-.36 2.16-1.008.756-1.008.972-4.032 1.152-12.168v-1.152h-2.628zm10.152-11.664c2.268 1.188 5.04 3.024 6.408 4.284l1.692-1.836c-1.404-1.26-4.248-2.988-6.48-4.14l-1.62 1.692zm5.148 9.756c-2.7 8.676-7.776 15.264-15.084 19.152.576.54 1.584 1.656 1.98 2.196 7.38-4.356 12.744-11.304 15.804-20.7l-2.7-.648zm-22.968-5.472v2.664H70.2v-2.664H42.336zm-1.728 0v10.116c0 4.716-.324 10.908-3.312 15.336.648.324 1.8 1.26 2.268 1.8 3.276-4.716 3.852-11.988 3.852-17.1v-10.152h-2.808zm14.94-6.048c.144 17.244 3.384 32.796 10.728 32.796 2.736 0 3.744-1.764 4.248-7.92-.72-.252-1.728-.864-2.34-1.476-.216 4.788-.684 6.66-1.692 6.66-4.68 0-8.208-13.5-8.136-30.06h-2.808zm23.616 15.732v2.304h24.084v-7.92H76.716v2.304h23.868v3.312h-21.42zm-1.152 0c-.288 2.592-.792 5.832-1.296 7.992h2.664c.396-2.052.864-5.292 1.224-7.992h-2.592zm.576 5.652l-.72 2.34h24.624v-2.34H78.588zm23.148 0v.36c-.396 4.644-.864 6.552-1.476 7.128-.288.288-.648.324-1.26.324-.648 0-2.34 0-4.14-.216.432.72.72 1.728.792 2.52 1.836.072 3.636.072 4.5 0 1.044-.036 1.728-.252 2.304-.864.936-.9 1.44-3.132 1.908-8.136.072-.396.108-1.116.108-1.116h-2.736zm-13.284-10.692v22.356h2.664v-22.356h-2.664zm-.756 11.376c-2.772 3.744-8.244 7.272-13.212 8.892.612.504 1.404 1.476 1.764 2.124 5.004-1.908 10.512-5.796 13.572-10.08l-2.124-.936zm-9.36-19.548v2.16h11.448v-2.16H78.336zm14.868.036v2.16h13.176v-2.16H93.204zm-14.148-2.88c-1.188 2.988-3.24 5.94-5.436 7.92.576.432 1.512 1.332 1.908 1.8 2.232-2.232 4.536-5.616 5.94-9.036l-2.412-.684zm14.832 0c-.936 2.592-2.592 5.076-4.572 6.732.612.36 1.62 1.188 2.088 1.62 1.98-1.836 3.888-4.752 4.968-7.74l-2.484-.612zm-12.96 6.12c1.224 1.116 2.736 2.664 3.492 3.708l1.764-1.548c-.756-.972-2.34-2.484-3.564-3.528l-1.692 1.368zm15.696.18c1.296 1.08 2.916 2.592 3.708 3.564l1.836-1.584c-.828-.972-2.484-2.412-3.78-3.384l-1.764 1.404zm12.96 8.676v2.952h32.94v-2.952h-32.94zm46.692-12.528v30.924h2.52v-28.512h15.948v28.224h2.592v-30.636h-21.06zm3.996 7.632v2.124h13.248v-2.124h-13.248zm-2.628 18.72v2.412h18.54v-2.412h-18.54zm8.1-22.788v11.412h2.196v-11.412h-2.196zm-1.872 12.168h6.084v5.58h-6.084v-5.58zm-2.088-2.016v9.648h10.332v-9.648h-10.332zm-9.252-15.732c-1.764 5.472-4.716 10.908-7.956 14.436.468.648 1.224 2.124 1.44 2.772 3.6-4.14 6.948-10.332 9-16.488l-2.484-.72zm-2.988 8.82v24.192h2.556v-26.712l-.036-.036-2.52 2.556zm41.904 6.552v2.592h23.22v-2.592h-23.22zm1.116 13.608v2.592h21.276v-2.592h-21.276zm9.252-24.156v25.164h2.736v-25.164h-2.736zm-15.156 4.824v23.22h2.664v-25.848l-.036-.036-2.628 2.664zm3.924-9.576c-2.268 5.652-5.976 11.16-9.864 14.724.504.648 1.332 2.016 1.656 2.664 4.212-4.032 8.28-10.26 10.836-16.56l-2.628-.828zm3.276 3.204v2.556h19.332v-2.556H193.86zm24.192-1.656v2.34h12.276v-2.34h-12.276zm13.896 18.396v2.34h15.624v-2.34h-15.624zm-14.292-7.524v2.412h13.536v-2.412h-13.536zm6.3.972v16.344c0 .396-.144.504-.54.54-.432 0-1.872 0-3.42-.036.36.72.72 1.836.792 2.52 2.232 0 3.636-.036 4.536-.432.972-.468 1.224-1.188 1.224-2.592v-16.344h-2.592zm22.68 6.552v.432c-.54 6.3-1.188 8.82-1.944 9.54-.324.324-.648.36-1.224.36a42.91 42.91 0 01-3.564-.18c.396.72.648 1.8.72 2.52 1.62.108 3.204.108 4.032.036.972-.072 1.62-.288 2.268-.936 1.044-1.08 1.692-3.816 2.376-10.584.072-.396.108-1.188.108-1.188h-2.772zm-7.956-3.564c-.612 6.228-2.016 11.664-9.504 14.436.576.468 1.296 1.44 1.62 2.088 8.136-3.168 9.9-9.252 10.584-16.524h-2.7zm-19.368-8.82c3.06 1.368 6.732 3.636 8.532 5.292l1.8-1.98c-1.872-1.656-5.616-3.78-8.64-5.04l-1.692 1.728zm11.16 4.86v.468c-.576 2.592-1.476 5.796-2.412 7.776l1.908.936c1.116-2.232 2.196-5.688 2.952-8.712l-1.656-.576-.396.108h-.396zm14.436-7.776c-1.944 5.58-6.984 8.784-13.536 10.44.54.576 1.368 1.692 1.692 2.268 6.804-2.124 12.204-5.724 14.616-12.24l-2.772-.468zm-7.704-4.896c-1.44 3.456-4.068 6.732-6.912 8.856.684.36 1.764 1.116 2.232 1.584 2.772-2.304 5.544-5.904 7.236-9.756l-2.556-.684zm-.648 5.652l-2.232.756c2.88 5.544 8.28 9.576 14.868 11.34.36-.72 1.152-1.764 1.728-2.304-6.408-1.404-11.772-5.004-14.364-9.792zm-12.924 7.812c-1.188 4.14-3.744 8.856-6.336 11.304.468.648 1.116 1.764 1.404 2.52 2.808-2.808 5.4-8.388 6.768-13.14l-1.836-.684zm12.78-9.648l-1.116 2.304h14.868v-2.304h-13.752zm-6.732-2.016v.504c-1.188 1.944-3.708 4.572-6.012 6.084.54.324 1.368.9 1.836 1.332 2.484-1.656 5.292-4.392 6.948-6.912l-1.764-1.116-.432.108h-.576zm42.192 12.744c-1.872 3.96-5.22 7.56-8.82 9.864.576.468 1.476 1.476 1.872 1.98 3.636-2.628 7.236-6.696 9.396-11.16l-2.448-.684zm6.372-4.428c2.124 2.484 4.68 5.904 5.832 8.028l2.196-1.296c-1.188-2.088-3.816-5.436-5.94-7.812l-2.088 1.08zm-11.592 8.388l-2.232.792c3.852 7.128 10.98 11.952 19.98 13.896.36-.72 1.08-1.764 1.656-2.34-8.856-1.656-15.984-6.084-19.404-12.348zm4.356.036l-1.98 2.268h12.6v-2.268h-10.62zm9.684 0v.432c-2.844 6.48-10.62 10.44-18.468 11.952.504.576 1.08 1.656 1.332 2.304 8.352-1.872 16.452-6.084 19.872-13.968l-1.728-.828-.468.108h-.54zm-19.08-11.196c-1.98 3.816-5.184 7.596-8.316 10.044.504.576 1.296 1.836 1.584 2.412 3.348-2.88 6.876-7.272 9.18-11.592l-2.448-.864zm-.828-7.308c-1.512 2.52-4.464 5.616-7.128 7.524.432.504 1.152 1.44 1.476 1.98 2.916-2.196 6.12-5.544 8.064-8.604l-2.412-.9zm-2.484 14.004v19.224h2.556v-21.276l-.36-.144-2.196 2.196zm6.876-3.852c0-.54 1.656-1.26 1.656-1.26v-.108c2.952-1.728 6.084-4.392 8.856-7.236l-2.664-1.224c-2.196 2.7-5.4 5.292-6.336 5.976-.936.648-1.692 1.152-2.376 1.26.288.72.72 2.016.864 2.592zm0 0c.684-.252 1.8-.432 9.828-.756.216-.504.648-1.476 1.044-2.124l-9.468.324-1.44.756.036 1.8zm-.828 6.444c0-.54 1.728-1.188 1.728-1.188v-.108c5.4-2.484 11.124-6.084 16.416-10.476l-2.448-1.368c-4.464 3.996-10.656 7.848-12.492 8.82-1.692 1.008-2.988 1.62-3.996 1.764.288.684.684 2.016.792 2.556zm0 0c1.044-.432 2.7-.54 18.756-1.512a12.516 12.516 0 01-.324-2.124l-16.884.936-1.584.792.036 1.908zm35.208-6.588v2.34h12.96v-2.34h-12.96zm-9.432 19.908v2.34h31.752v-2.34h-31.752zm1.512-28.548v2.268h11.376v-2.268h-11.376zm10.656 0v.504c-2.232 5.76-8.064 10.908-13.356 13.14.54.504 1.296 1.44 1.656 2.052 5.76-2.736 11.772-7.956 14.472-14.94l-1.8-.9-.504.144h-.468zm6.084-1.296l-2.34.756c3.096 6.984 8.604 12.96 15.084 15.912.468-.72 1.26-1.728 1.872-2.268-6.3-2.484-11.844-8.172-14.616-14.4zm-16.74 6.516c1.872 1.152 4.068 2.916 5.112 4.176l1.512-1.656c-1.008-1.26-3.24-2.952-5.148-4.032l-1.476 1.512zm23.976-6.3c-1.44 1.584-3.996 3.78-5.832 5.112l1.656 1.296c1.872-1.26 4.356-3.204 6.228-4.968l-2.052-1.44zm4.032 4.248c-1.512 1.62-4.176 3.816-6.12 5.112l1.656 1.296c1.98-1.224 4.572-3.168 6.48-4.968l-2.016-1.44zm-21.456 12.996H313.2v4.536h-15.012v-4.536zm-2.7-2.232v9h20.556v-9h-20.556zm2.556 10.08c.9 1.44 1.764 3.384 2.052 4.644l2.556-.9c-.36-1.26-1.26-3.132-2.196-4.536l-2.412.792zm13.392-.828c-.612 1.728-1.872 4.248-2.844 5.76l2.304.684c.972-1.476 2.124-3.708 3.168-5.76l-2.628-.684zm20.736-22.392v2.736h10.188v-2.736h-10.188zm8.82 0c0 6.768 1.188 22.104 15.588 30.816.504-.648 1.584-1.8 2.196-2.268-14.22-8.424-15.012-22.104-15.012-28.548h-2.772zm-1.008 7.056c-2.196 10.188-6.696 17.46-14.688 21.636.72.504 1.944 1.62 2.448 2.196 7.956-4.68 12.708-12.276 15.3-23.256l-3.06-.576z" fill="#000"/><path d="M381.8 169.673h-7.96v2.8h5.08v11.36h2.88v-14.16zm0 12.96h-2.6c-1.88 1.72-4.04 3.52-5.8 4.8l1.56 2.92c2-1.76 3.84-3.48 5.6-5.2 2.48 3.16 6.12 4.56 11.4 4.76 4.48.2 13.04.12 17.56-.08.12-.88.6-2.28.96-2.96-4.84.32-14.08.44-18.52.24-4.76-.16-8.28-1.52-10.16-4.48zm-7.6-26.08c2.44 1.96 5.2 4.76 6.32 6.76l2.48-1.88c-1.24-1.96-4.04-4.72-6.52-6.52l-2.28 1.64zm14.6 8.44c.84 1.28 1.6 3.04 1.8 4.2l2.76-.72c-.28-1.16-1.08-2.88-2-4.12l-2.56.64zm-2.44-8.04v2.24h20.84v-2.24h-20.84zm-.28 16.88v2.24h21.68v-2.24h-21.68zm-1.52-4.96v2.28h24.8v-2.28h-24.8zm-.88-6.68v2.32h26.24v-2.32h-26.24zm.4 16.88v2.32h25.52v-2.32h-25.52zm11-25.2v9.8h3v-9.8h-3zm0 16.04v15.28h3v-15.28h-3zm6.52-5.72c-.4 1.2-1.24 3.08-1.88 4.32l2.36.72c.72-1.08 1.6-2.68 2.44-4.24l-2.92-.8zm17.2 4.68v2.8h9.96v-2.8h-9.96zm8.76 0v.52c-.12 8.64-.32 11.64-.92 12.36-.28.36-.68.4-1.24.4-.68 0-2.44 0-4.24-.16.44.76.76 1.92.84 2.8 1.96.08 3.76.12 4.8 0 1.12-.12 1.76-.4 2.4-1.12.84-1.12 1.08-4.48 1.28-13.52v-1.28h-2.92zm11.28-12.96c2.52 1.32 5.6 3.36 7.12 4.76l1.88-2.04c-1.56-1.4-4.72-3.32-7.2-4.6l-1.8 1.88zm5.72 10.84c-3 9.64-8.64 16.96-16.76 21.28.64.6 1.76 1.84 2.2 2.44 8.2-4.84 14.16-12.56 17.56-23l-3-.72zm-25.52-6.08v2.96H450v-2.96h-30.96zm-1.92 0v11.24c0 5.24-.36 12.12-3.68 17.04.72.36 2 1.4 2.52 2 3.64-5.24 4.28-13.32 4.28-19v-11.28h-3.12zm16.6-6.72c.16 19.16 3.76 36.44 11.92 36.44 3.04 0 4.16-1.96 4.72-8.8-.8-.28-1.92-.96-2.6-1.64-.24 5.32-.76 7.4-1.88 7.4-5.2 0-9.12-15-9.04-33.4h-3.12zm36.6-.04v5.6h3.08v-5.6h-3.08zm0 22.84v14.08h3.08v-14.08h-3.08zm-16.2 3.12v2.76h35.76v-2.76h-35.76zm1.24-21.48v2.76h33.4v-2.76h-33.4zm30.24 3.84c-1.52 1.6-4.24 3.76-6.2 5.12l2.16 1.28c2.04-1.28 4.64-3.12 6.68-5l-2.64-1.4zm-15.92-1.72c-1 1.72-2.76 4.32-4.16 5.92l1.96.92c1.48-1.52 3.28-3.76 4.8-5.84l-2.6-1zm5.84 3.04c-2.56 3.6-6.88 8.56-10.28 11.56l1.8 1.04c3.4-2.88 7.76-7.56 10.88-11.44l-2.4-1.16zm-11.72 2.84c2.36 1.48 5.28 3.68 6.68 5.16l1.56-2c-1.44-1.44-4.44-3.52-6.72-4.88l-1.52 1.72zm-.48 7.76l.4 2.6c4.12-.28 9.6-.64 15.04-1.08v-2.2c-5.76.28-11.56.56-15.44.68zm10.72-3.6c1.96 2.24 4.08 5.4 4.96 7.44l2.32-1.2c-.92-2-3.12-5.04-5.12-7.24l-2.16 1zm-20.08 4.44l1.52 2.44c2.64-1.2 5.96-2.76 9.16-4.28l-.56-2.28c-3.72 1.56-7.56 3.16-10.12 4.12zm1.44-10.52c2.24 1.28 4.96 3.2 6.32 4.52l2.08-1.88c-1.4-1.28-4.2-3.12-6.4-4.28l-2 1.64zm23.24 7.64c3.12 1.6 7.12 4.08 9.08 5.72l2.2-1.92c-2.08-1.64-6.12-3.96-9.2-5.48l-2.08 1.68zm36.418-14.129a11.25 11.25 0 013.835.71c1.259.464 2.396 1.222 3.409 2.273 1.023 1.051 1.837 2.472 2.443 4.261.616 1.781.928 3.997.938 6.648 0 2.547-.256 4.815-.768 6.804-.511 1.979-1.245 3.651-2.201 5.014-.947 1.364-2.098 2.401-3.452 3.111-1.354.71-2.879 1.065-4.574 1.065-1.733 0-3.272-.341-4.616-1.022a8.793 8.793 0 01-3.282-2.827c-.842-1.212-1.368-2.604-1.576-4.176h4.332c.284 1.25.862 2.263 1.733 3.04.881.767 2.017 1.15 3.409 1.15 2.131 0 3.793-.928 4.986-2.784 1.193-1.865 1.795-4.47 1.804-7.812h-.227a7.862 7.862 0 01-1.847 2.102 8.285 8.285 0 01-2.457 1.363 8.659 8.659 0 01-2.912.483c-1.676 0-3.201-.412-4.574-1.235-1.373-.824-2.467-1.956-3.281-3.395-.815-1.44-1.222-3.083-1.222-4.929 0-1.837.417-3.504 1.25-5a9.327 9.327 0 013.523-3.551c1.515-.881 3.291-1.312 5.327-1.293zm.014 3.693c-1.108 0-2.107.275-2.997.824a5.833 5.833 0 00-2.088 2.202c-.512.918-.768 1.941-.768 3.068s.247 2.15.739 3.068a5.854 5.854 0 002.046 2.173c.871.531 1.865.796 2.983.796.833 0 1.609-.161 2.329-.483a5.909 5.909 0 001.889-1.335 6.497 6.497 0 001.264-1.961 5.936 5.936 0 00.455-2.301c0-1.07-.256-2.064-.767-2.983a5.98 5.98 0 00-2.074-2.216c-.881-.568-1.884-.852-3.011-.852zm15.941 25.796l12.699-25.114v-.213h-14.688v-3.764h19.233v3.892l-12.656 25.199h-4.588zm20.039.27a2.758 2.758 0 01-2.003-.824 2.749 2.749 0 01-.838-2.017c0-.777.279-1.44.838-1.989.559-.559 1.226-.838 2.003-.838.776 0 1.444.279 2.003.838a2.69 2.69 0 01.838 1.989c0 .52-.133.999-.398 1.434a2.947 2.947 0 01-1.023 1.023 2.703 2.703 0 01-1.42.384zm17.606.127c-1.78 0-3.38-.341-4.801-1.022-1.411-.692-2.538-1.639-3.38-2.841-.843-1.203-1.293-2.576-1.35-4.12h4.261c.105 1.25.659 2.278 1.662 3.083 1.004.805 2.207 1.207 3.608 1.207 1.118 0 2.107-.255 2.969-.767a5.512 5.512 0 002.046-2.145c.501-.909.752-1.946.752-3.111 0-1.183-.255-2.239-.767-3.167a5.662 5.662 0 00-2.116-2.188c-.89-.53-1.913-.8-3.068-.809-.881 0-1.766.151-2.657.454-.89.303-1.609.701-2.159 1.193l-4.02-.596 1.634-14.659h15.994v3.764h-12.343l-.924 8.139h.171c.568-.549 1.321-1.008 2.258-1.378a8.298 8.298 0 013.04-.554c1.771 0 3.348.422 4.73 1.265a8.979 8.979 0 013.281 3.451c.805 1.449 1.203 3.116 1.194 5 .009 1.885-.417 3.566-1.279 5.043a9.256 9.256 0 01-3.551 3.494c-1.506.843-3.234 1.264-5.185 1.264zm30.387-5.852v-1.534c0-1.098.228-2.102.682-3.011a5.444 5.444 0 012.017-2.202c.89-.559 1.965-.838 3.225-.838 1.288 0 2.367.275 3.238.824a5.272 5.272 0 011.975 2.201c.454.919.682 1.928.682 3.026v1.534c0 1.099-.228 2.107-.682 3.026a5.458 5.458 0 01-2.003 2.201c-.871.55-1.941.824-3.21.824-1.279 0-2.358-.274-3.239-.824a5.458 5.458 0 01-2.003-2.201c-.454-.919-.682-1.927-.682-3.026zm3.31-1.534v1.534c0 .815.194 1.553.583 2.216.388.663 1.065.994 2.031.994.956 0 1.624-.331 2.003-.994a4.393 4.393 0 00.568-2.216v-1.534a4.48 4.48 0 00-.554-2.216c-.36-.663-1.032-.994-2.017-.994-.947 0-1.62.331-2.017.994a4.224 4.224 0 00-.597 2.216zm-17.94-15.114v-1.534c0-1.098.227-2.107.682-3.025a5.437 5.437 0 012.017-2.202c.89-.549 1.965-.824 3.224-.824 1.288 0 2.367.275 3.239.824a5.273 5.273 0 011.974 2.202c.445.918.668 1.927.668 3.025v1.534c0 1.099-.228 2.107-.682 3.026a5.363 5.363 0 01-1.989 2.202c-.871.549-1.941.824-3.21.824-1.288 0-2.372-.275-3.253-.824a5.494 5.494 0 01-1.988-2.202c-.455-.919-.682-1.927-.682-3.026zm3.324-1.534v1.534c0 .815.189 1.553.568 2.216.388.663 1.065.995 2.031.995.947 0 1.61-.332 1.989-.995a4.304 4.304 0 00.582-2.216v-1.534a4.48 4.48 0 00-.554-2.216c-.369-.662-1.042-.994-2.017-.994-.947 0-1.619.332-2.017.994a4.307 4.307 0 00-.582 2.216zm-1.975 23.637l20-29.091h3.395l-20 29.091h-3.395z" fill="#2F80ED"/></svg>