<svg width="523" height="239" fill="none" xmlns="http://www.w3.org/2000/svg"><path d="M86.759 19.473v-8.728h3.494c.642 0 1.178.096 1.607.286.429.19.751.454.967.792.216.336.324.722.324 1.16 0 .34-.068.64-.204.899a1.765 1.765 0 01-.563.63 2.305 2.305 0 01-.81.346v.085a1.991 1.991 0 011.645 1.01c.182.31.273.679.273 1.108 0 .463-.115.876-.345 1.24-.228.36-.564.646-1.01.856-.446.21-.996.316-1.65.316H86.76zm1.845-1.509h1.504c.515 0 .89-.098 1.125-.294a.985.985 0 00.354-.793 1.17 1.17 0 00-.175-.639 1.187 1.187 0 00-.498-.434 1.708 1.708 0 00-.763-.158h-1.547v2.318zm0-3.567h1.368c.253 0 .477-.044.673-.132a1.12 1.12 0 00.47-.383 1 1 0 00.174-.593.958.958 0 00-.337-.762c-.221-.193-.537-.29-.946-.29h-1.402v2.16zm9.037 5.204c-.673 0-1.252-.137-1.738-.41a2.802 2.802 0 01-1.117-1.167c-.261-.506-.392-1.104-.392-1.794 0-.674.131-1.264.392-1.773.262-.509.63-.905 1.104-1.189.477-.284 1.037-.426 1.679-.426.432 0 .834.07 1.206.209.375.136.702.342.98.618.281.275.5.622.656 1.04.157.414.235.9.235 1.457v.498h-5.527V15.54h3.818a1.4 1.4 0 00-.17-.694 1.221 1.221 0 00-.474-.473 1.349 1.349 0 00-.694-.175c-.276 0-.52.064-.733.192-.21.125-.375.294-.494.507-.12.21-.18.445-.184.703v1.07c0 .323.06.603.18.84.122.235.293.417.515.545.222.128.484.191.788.191.202 0 .387-.028.554-.085a1.113 1.113 0 00.703-.673l1.679.11a2.29 2.29 0 01-.524 1.057c-.261.299-.6.532-1.014.7-.412.164-.888.247-1.428.247zm7.709-6.674v1.364h-4.039v-1.364h4.039zm-3.115 6.546v-7.019c0-.474.093-.868.277-1.18.188-.313.443-.547.767-.703a2.51 2.51 0 011.104-.235c.278 0 .533.022.763.064.233.043.406.081.52.115l-.324 1.364a2.278 2.278 0 00-.264-.064 1.66 1.66 0 00-.316-.03c-.267 0-.453.063-.558.188-.105.122-.158.294-.158.515v6.985h-1.811zm6.947.128c-.662 0-1.234-.141-1.717-.422a2.885 2.885 0 01-1.112-1.185c-.262-.509-.392-1.098-.392-1.768 0-.677.13-1.267.392-1.773a2.85 2.85 0 011.112-1.185c.483-.284 1.055-.426 1.717-.426.662 0 1.233.142 1.713.426a2.85 2.85 0 011.117 1.185c.261.506.392 1.096.392 1.773 0 .67-.131 1.26-.392 1.768-.262.506-.634.9-1.117 1.185-.48.28-1.051.422-1.713.422zm.009-1.407c.301 0 .552-.085.754-.255.202-.174.354-.41.456-.708.105-.298.158-.638.158-1.018 0-.381-.053-.72-.158-1.019a1.581 1.581 0 00-.456-.707 1.117 1.117 0 00-.754-.26c-.304 0-.56.087-.767.26-.205.173-.36.409-.465.707a3.14 3.14 0 00-.153 1.019c0 .38.051.72.153 1.018.105.298.26.534.465.708.207.17.463.255.767.255zm4.393 1.279v-6.546h1.76v1.142h.068c.12-.406.32-.713.601-.92.282-.21.605-.315.972-.315a2.732 2.732 0 01.571.063v1.611a2.357 2.357 0 00-.354-.068c-.15-.02-.288-.03-.413-.03-.267 0-.506.058-.716.175a1.287 1.287 0 00-.494.477c-.12.205-.179.44-.179.708v3.703h-1.816zm7.589.128c-.674 0-1.253-.137-1.739-.41a2.799 2.799 0 01-1.116-1.167c-.262-.506-.392-1.104-.392-1.794 0-.674.13-1.264.392-1.773a2.897 2.897 0 011.103-1.189c.478-.284 1.037-.426 1.679-.426.432 0 .834.07 1.206.209.375.136.702.342.98.618.282.275.5.622.657 1.04.156.414.234.9.234 1.457v.498h-5.527V15.54h3.818a1.4 1.4 0 00-.17-.694 1.228 1.228 0 00-.473-.473 1.351 1.351 0 00-.695-.175c-.275 0-.52.064-.733.192-.21.125-.375.294-.494.507-.119.21-.181.445-.183.703v1.07c0 .323.059.603.179.84.122.235.294.417.515.545.222.128.485.191.789.191.201 0 .386-.028.554-.085a1.113 1.113 0 00.703-.673l1.679.11a2.29 2.29 0 01-.525 1.057 2.626 2.626 0 01-1.014.7c-.412.164-.888.247-1.427.247z" fill="#000"/><path d="M100.509 133.462v-99.99a99.974 99.974 0 0144.83 10.615l-44.83 89.375z" fill="#D1D1D6"/><path d="M110.509 128.462l44.83-89.374c41.216 20.676 62.947 66.86 52.605 111.799l-97.435-22.425z" fill="#FFB03F" stroke="#ECECEC" stroke-width="4"/><path d="M100.509 133.461l97.435 22.425c-12.384 53.816-66.046 87.402-119.858 75.017-35.102-8.078-63.146-34.415-73.412-68.943l95.835-28.499z" fill="#ABABB9"/><path d="M100.509 133.462L4.674 161.96c-15.739-52.931 14.41-108.6 67.338-124.34a99.977 99.977 0 0128.497-4.147v99.989z" fill="#BABAC6"/><path d="M97.647 51.696v-.954l5.659-2.745v1.3l-4.176 1.905.038-.077v.183l-.038-.072 4.176 1.9v1.304l-5.659-2.744zm13.878 3.895c-.585 0-1.108-.1-1.568-.303a2.672 2.672 0 01-1.087-.839 2.231 2.231 0 01-.426-1.253h1.338c.017.259.104.483.26.673.159.188.367.333.623.435.255.102.539.154.852.154.344 0 .648-.06.912-.18.267-.119.476-.285.626-.498a1.27 1.27 0 00.226-.746c0-.292-.075-.55-.226-.771a1.472 1.472 0 00-.652-.529c-.284-.127-.628-.191-1.031-.191h-.737v-1.074h.737c.324 0 .608-.058.852-.175a1.39 1.39 0 00.58-.486c.139-.21.209-.456.209-.737 0-.27-.062-.504-.184-.703a1.225 1.225 0 00-.511-.473 1.661 1.661 0 00-.776-.17 2.02 2.02 0 00-.797.157c-.244.102-.443.25-.596.443-.154.19-.236.42-.247.686h-1.274c.014-.471.153-.886.417-1.244.267-.358.62-.638 1.057-.84a3.44 3.44 0 011.457-.302c.56 0 1.043.11 1.449.328.409.216.725.505.946.865.225.361.336.756.333 1.185.003.489-.134.903-.409 1.244-.273.341-.637.57-1.091.686v.069c.579.088 1.028.318 1.346.69.321.372.48.834.478 1.385.002.48-.131.91-.401 1.291-.267.38-.632.68-1.095.9-.463.215-.993.323-1.59.323zm7.577 0a3.286 3.286 0 01-1.44-.307 2.616 2.616 0 01-1.015-.852 2.256 2.256 0 01-.404-1.236h1.278c.031.375.197.683.499.925.301.241.662.362 1.082.362.335 0 .632-.077.891-.23.261-.156.466-.37.613-.644a1.89 1.89 0 00.226-.933 1.94 1.94 0 00-.23-.95 1.695 1.695 0 00-.635-.656 1.793 1.793 0 00-.92-.243c-.265 0-.53.045-.797.136-.267.091-.483.21-.648.358l-1.206-.179.49-4.398h4.798v1.13h-3.703l-.277 2.441h.051c.171-.164.397-.302.678-.413.284-.11.588-.166.912-.166a2.673 2.673 0 012.403 1.415c.242.434.361.934.358 1.5a2.92 2.92 0 01-.383 1.512 2.778 2.778 0 01-1.066 1.049c-.451.253-.97.379-1.555.379zm13.605-6.9c.144 4.237 1.524 7.74 3.528 7.74.792 0 1.104-.455 1.248-2.075a2.26 2.26 0 01-.696-.396c-.048 1.2-.168 1.68-.504 1.68-1.344.012-2.664-3.012-2.748-6.948h-.828zm1.644.433c.588.276 1.308.708 1.644 1.044l.48-.492c-.36-.324-1.08-.744-1.668-.996l-.456.444zm1.236 2.1a7.837 7.837 0 01-3.876 4.5c.18.144.492.468.612.636 1.824-1.068 3.288-2.724 4.08-4.944l-.816-.192zm-6.396 1.32c-.204.648-.54 1.284-.984 1.74.168.084.456.276.576.372.444-.48.852-1.224 1.08-1.98l-.672-.132zm-1.296-2.628v.768h9.324v-.768h-9.324zm.9 1.464v.66h3.828v-.66h-3.828zm-2.076-3.276v.768h10.572v-.768h-10.572zm5.46-1.68v.708h3.996v-.708h-3.996zm-4.752 3.492v2.016c0 1.212-.108 2.88-1.044 4.092.204.084.588.3.744.444.96-1.284 1.14-3.18 1.14-4.524v-2.028h-.84zm4.248-4.512v3.06h.876v-3.06h-.876zm-3.024.54v2.568h.852v-2.568h-.852zm1.764 5.82v2.34c0 .096-.036.12-.12.12a5.649 5.649 0 01-.66 0c.096.156.228.408.276.588.432 0 .732-.012.972-.12.228-.096.288-.228.288-.588v-2.34h-.756zm1.692.876c-.384 1.488-1.692 2.676-3.564 3.252.132.132.312.396.396.552 2.016-.636 3.396-1.98 3.9-3.684l-.732-.12zm-26.994 21.832l3.81-7.534v-.064h-4.407v-1.13h5.77v1.168l-3.797 7.56h-1.376zm6.012.08a.826.826 0 01-.601-.247.824.824 0 01-.252-.605c0-.233.084-.431.252-.596a.82.82 0 01.601-.252.82.82 0 01.601.252.808.808 0 01.251.596c0 .157-.04.3-.119.43a.883.883 0 01-.307.308.813.813 0 01-.426.115zm2.358-1.785v-1.065l3.772-5.958h.839v1.569h-.532l-2.698 4.27v.068h5.169v1.116h-6.55zm4.138 1.705v-2.029l.009-.486v-6.213h1.248v8.728h-1.257zm8.453-1.637v-.46c0-.33.068-.63.204-.903.139-.276.341-.496.605-.66.267-.168.59-.252.968-.252.386 0 .71.082.971.247.262.165.459.385.593.66.136.276.204.579.204.908v.46c0 .33-.068.632-.204.908a1.645 1.645 0 01-.601.66c-.262.165-.583.248-.963.248-.384 0-.708-.083-.972-.248a1.645 1.645 0 01-.601-.66 2.023 2.023 0 01-.204-.908zm.992-.46v.46c0 .245.059.466.175.665.117.199.32.298.61.298.287 0 .487-.099.6-.298.114-.199.171-.42.171-.665v-.46c0-.244-.056-.466-.166-.665-.108-.198-.31-.298-.605-.298-.285 0-.486.1-.606.298a1.27 1.27 0 00-.179.665zm-5.382-4.534v-.46c0-.33.069-.632.205-.908a1.63 1.63 0 01.605-.66c.267-.165.59-.248.967-.248.387 0 .711.083.972.248.261.164.459.385.592.66.134.276.201.578.201.908v.46c0 .33-.069.632-.205.908a1.6 1.6 0 01-.597.66c-.261.165-.582.247-.963.247-.386 0-.711-.082-.975-.247a1.642 1.642 0 01-.597-.66 2.024 2.024 0 01-.205-.908zm.998-.46v.46c0 .244.056.466.17.665.116.199.32.298.609.298.284 0 .483-.1.597-.298.116-.2.175-.42.175-.665v-.46a1.34 1.34 0 00-.167-.665c-.11-.199-.312-.298-.605-.298-.284 0-.485.1-.605.298-.116.199-.174.42-.174.665zm-.593 7.09l6-8.727h1.019l-6 8.728h-1.019zm14.156 33.154c-.848 0-1.604-.145-2.267-.437-.659-.296-1.18-.701-1.562-1.216a3.058 3.058 0 01-.586-1.795h2.478c.015.284.108.534.278.75.174.212.405.376.693.494.288.117.612.176.972.176.375 0 .706-.066.994-.199.288-.132.513-.316.676-.551.163-.235.245-.506.245-.813 0-.31-.088-.585-.262-.823-.17-.243-.417-.432-.738-.569-.319-.136-.697-.204-1.137-.204h-1.085v-1.807h1.085c.371 0 .699-.064.983-.193.288-.129.511-.307.671-.534.159-.231.238-.5.238-.807a1.396 1.396 0 00-.79-1.29 1.882 1.882 0 00-.863-.187c-.334 0-.638.06-.915.181a1.6 1.6 0 00-.665.506 1.34 1.34 0 00-.267.773h-2.358a3.04 3.04 0 01.574-1.773c.371-.511.871-.91 1.5-1.199.633-.291 1.347-.437 2.142-.437.803 0 1.506.146 2.108.437.602.292 1.07.686 1.404 1.182.337.493.503 1.046.5 1.66.003.65-.199 1.194-.608 1.63-.406.436-.934.712-1.586.829v.091c.856.11 1.508.408 1.955.892.451.482.674 1.084.67 1.807a2.833 2.833 0 01-.574 1.767c-.382.515-.911.921-1.585 1.216-.674.296-1.447.443-2.318.443zm10.496 0c-.803 0-1.519-.147-2.148-.443a3.738 3.738 0 01-1.489-1.221 3.14 3.14 0 01-.573-1.784h2.386c.026.45.216.816.568 1.096.352.28.771.421 1.256.421.386 0 .727-.086 1.023-.256.299-.174.532-.415.698-.722.171-.31.256-.666.256-1.068 0-.409-.087-.769-.261-1.079a1.85 1.85 0 00-.711-.728 2.092 2.092 0 00-1.039-.267c-.341 0-.673.07-.995.21a1.807 1.807 0 00-.744.574l-2.187-.392.551-6.136h7.113v2.011h-5.085l-.301 2.915h.068c.205-.288.513-.526.926-.716.413-.19.875-.284 1.387-.284.7 0 1.325.165 1.875.494.549.33.983.783 1.301 1.358.318.572.475 1.231.471 1.978.004.784-.178 1.481-.545 2.091a3.845 3.845 0 01-1.528 1.431c-.652.345-1.41.517-2.273.517zm11.523-6.937v1.92h-5.307v-1.92h5.307zm1.863 4.733v-1.938l4.858-7.653h1.671v2.682h-.989l-3.063 4.846v.091h6.904v1.972h-9.381zm5.585 2.045v-2.636l.046-.858V95.83h2.307v11.636h-2.353zm5.259-2.045v-1.938l4.858-7.653h1.67v2.682h-.988l-3.063 4.846v.091h6.904v1.972h-9.381zm5.585 2.045v-2.636l.046-.858V95.83h2.306v11.636h-2.352zm16.963-9.04c.192 5.536 1.84 10.464 4.64 10.464 1.28 0 1.84-.56 2.096-2.896a4.416 4.416 0 01-1.408-.832c-.064 1.472-.208 2.08-.576 2.08-1.44 0-2.928-4.112-3.008-8.816h-1.744zm2.496.656c.688.368 1.536.928 1.936 1.328l.992-.944c-.432-.4-1.296-.912-1.984-1.248l-.944.864zm1.2 2.688c-.816 2.608-2.56 4.656-4.896 5.824.384.304 1.04.976 1.296 1.312 2.4-1.424 4.304-3.728 5.344-6.752l-1.744-.384zm-8.256 1.904c-.24.816-.688 1.616-1.312 2.176.336.176.88.544 1.136.752.64-.64 1.216-1.632 1.52-2.656l-1.344-.272zm-1.504-3.888v1.568h12.368v-1.568h-12.368zm1.264 2.16v1.312h4.832v-1.312h-4.832zm-3.152-4.736v1.584h14.352V97.21h-14.352zm7.568-2.208v1.408h5.424v-1.408h-5.424zm-6.672 4.784v2.768c0 1.632-.112 3.888-1.344 5.488.432.176 1.248.64 1.584.928 1.312-1.744 1.536-4.464 1.536-6.384v-2.8h-1.776zm5.6-5.92v4.144h1.872v-4.144h-1.872zm-4.096.72v3.456h1.792v-3.456h-1.792zm2.48 8.224v2.816c0 .128-.048.16-.16.16s-.448 0-.752-.016c.16.288.432.768.544 1.12.576 0 1.024-.016 1.424-.208.384-.176.48-.416.48-1.04v-2.832h-1.536zm2.272.96c-.496 1.888-2.176 3.376-4.656 4.064.256.256.64.784.816 1.088 2.704-.832 4.576-2.624 5.312-4.928l-1.472-.224zm-43.511 22.696v-1.329l3.107-2.877c.264-.255.485-.485.664-.69.182-.205.32-.405.414-.601.094-.199.14-.413.14-.643 0-.256-.058-.476-.174-.661a1.15 1.15 0 00-.478-.43 1.496 1.496 0 00-.686-.154c-.267 0-.5.054-.699.162a1.12 1.12 0 00-.46.465 1.504 1.504 0 00-.162.72h-1.751c0-.571.129-1.067.388-1.487a2.58 2.58 0 011.086-.976c.466-.23 1.003-.345 1.611-.345.625 0 1.169.111 1.632.332.466.219.828.523 1.087.912.258.389.388.835.388 1.338 0 .33-.066.655-.196.976-.128.321-.357.678-.686 1.07-.33.389-.794.856-1.394 1.402l-1.274 1.248v.06h3.665v1.508h-6.222zm11.356-8.727v8.727h-1.846v-6.976h-.051l-1.998 1.253v-1.636l2.16-1.368h1.735zm2.683 8.838a.993.993 0 01-.724-.298.996.996 0 01-.299-.725c0-.278.1-.517.299-.716a.997.997 0 01.724-.298c.273 0 .512.1.716.298a.963.963 0 01.307.716c0 .188-.048.36-.145.516a1.106 1.106 0 01-.371.371.973.973 0 01-.507.136zm2.496-.111v-1.329l3.107-2.877c.264-.255.486-.485.665-.69.181-.205.319-.405.413-.601.094-.199.141-.413.141-.643 0-.256-.059-.476-.175-.661a1.153 1.153 0 00-.477-.43 1.503 1.503 0 00-.687-.154c-.267 0-.5.054-.698.162a1.117 1.117 0 00-.461.465 1.504 1.504 0 00-.162.72h-1.751c0-.571.129-1.067.388-1.487a2.586 2.586 0 011.086-.976c.466-.23 1.003-.345 1.611-.345.625 0 1.169.111 1.632.332a2.59 2.59 0 011.087.912c.259.389.388.835.388 1.338 0 .33-.066.655-.196.976-.128.321-.357.678-.686 1.07-.33.389-.794.856-1.394 1.402l-1.274 1.248v.06h3.665v1.508h-6.222zm12.336-1.636v-.46c0-.35.074-.671.221-.963.151-.296.368-.532.652-.708.287-.179.637-.268 1.049-.268.417 0 .768.088 1.052.264.287.176.503.412.648.707.148.293.222.615.222.968v.46c0 .349-.074.672-.222.967a1.723 1.723 0 01-.652.703c-.287.179-.636.269-1.048.269-.418 0-.769-.09-1.053-.269-.284-.176-.5-.41-.648-.703a2.14 2.14 0 01-.221-.967zm1.24-.46v.46c0 .202.048.392.145.571.099.179.278.268.537.268.258 0 .434-.088.528-.264.097-.176.145-.368.145-.575v-.46a1.26 1.26 0 00-.136-.58c-.091-.179-.27-.268-.537-.268-.256 0-.434.089-.533.268a1.179 1.179 0 00-.149.58zm-5.719-4.534v-.461c0-.352.075-.674.226-.967.151-.295.368-.531.652-.707.287-.176.634-.265 1.04-.265.42 0 .773.089 1.057.265.284.176.5.412.647.707.148.293.222.615.222.967v.461c0 .352-.075.674-.226.967a1.723 1.723 0 01-.652.703c-.284.173-.633.26-1.048.26-.415 0-.766-.088-1.053-.264a1.778 1.778 0 01-.648-.703 2.154 2.154 0 01-.217-.963zm1.249-.461v.461c0 .207.048.399.145.575.099.176.274.264.524.264.261 0 .439-.088.532-.264.097-.176.145-.368.145-.575v-.461c0-.207-.045-.4-.136-.579-.091-.179-.271-.269-.541-.269-.253 0-.428.091-.524.273a1.206 1.206 0 00-.145.575zm-.686 7.091l6-8.727h1.116l-6 8.727h-1.116zm-99.996 50.815v-1.066l3.771-5.957h.84v1.568h-.533l-2.697 4.27v.068h5.169v1.117h-6.55zm4.138 1.704v-2.028l.008-.486v-6.213h1.249v8.727h-1.257zm6.777.12a3.295 3.295 0 01-1.44-.307 2.63 2.63 0 01-1.014-.852 2.252 2.252 0 01-.405-1.236h1.278c.032.375.198.683.5.924.3.242.661.363 1.081.363.336 0 .633-.077.891-.23.261-.157.466-.371.614-.644a1.9 1.9 0 00.226-.933c0-.355-.077-.672-.23-.95a1.696 1.696 0 00-.635-.657 1.796 1.796 0 00-.92-.243c-.265 0-.53.046-.798.137-.267.091-.483.21-.648.358l-1.206-.179.49-4.398h4.799v1.129h-3.703l-.277 2.442h.05c.171-.165.397-.302.678-.413.285-.111.588-.166.912-.166a2.67 2.67 0 012.404 1.414c.241.435.36.935.358 1.5a2.915 2.915 0 01-.384 1.513c-.255.443-.61.793-1.065 1.048-.452.253-.97.38-1.556.38zm8.435-5.037v1.108h-3.87v-1.108h3.87zm4.562 5.037a3.295 3.295 0 01-1.44-.307 2.63 2.63 0 01-1.015-.852 2.252 2.252 0 01-.405-1.236h1.279c.03.375.197.683.498.924.301.242.662.363 1.083.363.335 0 .632-.077.89-.23.262-.157.466-.371.614-.644a1.9 1.9 0 00.226-.933c0-.355-.077-.672-.23-.95a1.696 1.696 0 00-.635-.657 1.796 1.796 0 00-.92-.243c-.265 0-.53.046-.798.137-.267.091-.483.21-.647.358l-1.206-.179.49-4.398h4.798v1.129h-3.703l-.277 2.442h.051a2.03 2.03 0 01.677-.413 2.49 2.49 0 01.912-.166 2.67 2.67 0 012.404 1.414c.241.435.361.935.358 1.5a2.91 2.91 0 01-.384 1.513c-.255.443-.61.793-1.065 1.048-.452.253-.97.38-1.555.38zm4.377-1.824v-1.066l3.771-5.957h.84v1.568h-.533l-2.697 4.27v.068h5.169v1.117h-6.55zm4.138 1.704v-2.028l.008-.486v-6.213h1.249v8.727h-1.257zm12.941-6.78c.144 4.236 1.524 7.74 3.528 7.74.792 0 1.104-.456 1.248-2.076a2.26 2.26 0 01-.696-.396c-.048 1.2-.168 1.68-.504 1.68-1.344.012-2.664-3.012-2.748-6.948h-.828zm1.644.432c.588.276 1.308.708 1.644 1.044l.48-.492c-.36-.324-1.08-.744-1.668-.996l-.456.444zm1.236 2.1a7.837 7.837 0 01-3.876 4.5c.18.144.492.468.612.636 1.824-1.068 3.288-2.724 4.08-4.944l-.816-.192zm-6.396 1.32c-.204.648-.54 1.284-.984 1.74.168.084.456.276.576.372.444-.48.852-1.224 1.08-1.98l-.672-.132zm-1.296-2.628v.768h9.324v-.768h-9.324zm.9 1.464v.66h3.828v-.66h-3.828zm-2.076-3.276v.768h10.572v-.768h-10.572zm5.46-1.68v.708h3.996v-.708h-3.996zm-4.752 3.492v2.016c0 1.212-.108 2.88-1.044 4.092.204.084.588.3.744.444.96-1.284 1.14-3.18 1.14-4.524v-2.028h-.84zm4.248-4.512v3.06h.876v-3.06h-.876zm-3.024.54v2.568h.852v-2.568h-.852zm1.764 5.82v2.34c0 .096-.036.12-.12.12a5.649 5.649 0 01-.66 0c.096.156.228.408.276.588.432 0 .732-.012.972-.12.228-.096.288-.228.288-.588v-2.34h-.756zm1.692.876c-.384 1.488-1.692 2.676-3.564 3.252.132.132.312.396.396.552 2.016-.636 3.396-1.98 3.9-3.684l-.732-.12zm-35.768 20.128v-1.066l3.771-5.957h.84v1.568h-.533l-2.697 4.27v.068h5.169v1.117h-6.55zm4.138 1.704v-2.028l.008-.486v-6.213h1.249v8.727h-1.257zm7.09-8.727v8.727h-1.32v-7.406h-.052l-2.087 1.364v-1.262l2.177-1.423h1.283zm2.714 8.808a.826.826 0 01-.6-.247.823.823 0 01-.252-.605.81.81 0 01.251-.597.822.822 0 01.601-.251c.233 0 .433.084.601.251a.807.807 0 01.251.597c0 .156-.04.3-.119.43a.874.874 0 01-.307.307.81.81 0 01-.426.115zm5.198.039c-.611 0-1.151-.105-1.619-.316-.466-.21-.831-.5-1.096-.869a2.09 2.09 0 01-.392-1.261 2.223 2.223 0 01.861-1.799c.267-.21.566-.343.895-.4v-.051a1.758 1.758 0 01-1.044-.699 2.047 2.047 0 01-.388-1.245 2.043 2.043 0 01.354-1.193c.241-.352.572-.629.993-.831.42-.201.899-.302 1.436-.302.531 0 1.006.102 1.423.307.421.201.752.478.993.831.242.349.364.745.367 1.188a2.078 2.078 0 01-.401 1.245 1.774 1.774 0 01-1.031.699v.051c.326.057.62.19.882.4.264.208.474.468.631.78.159.31.24.649.242 1.019a2.132 2.132 0 01-.4 1.261c-.264.369-.631.659-1.1.869-.465.211-1.001.316-1.606.316zm0-1.078c.361 0 .673-.06.937-.179.265-.123.469-.292.614-.508a1.38 1.38 0 00.222-.767 1.44 1.44 0 00-.239-.805 1.595 1.595 0 00-.626-.55 1.995 1.995 0 00-.908-.2c-.344 0-.649.067-.916.2a1.59 1.59 0 00-.631.55 1.407 1.407 0 00-.226.805c-.003.293.067.549.209.767.145.216.351.385.618.508.267.119.582.179.946.179zm0-4.062c.29 0 .547-.058.771-.174a1.329 1.329 0 00.729-1.215 1.353 1.353 0 00-.196-.716 1.252 1.252 0 00-.524-.473 1.716 1.716 0 00-.78-.17c-.301 0-.565.057-.793.17a1.252 1.252 0 00-.524.473 1.32 1.32 0 00-.183.716c-.003.279.06.522.187.729.128.207.304.369.529.486.227.116.488.174.784.174zm9.188 3.384v-.46c0-.33.069-.631.205-.904.139-.275.341-.495.605-.66.267-.168.59-.252.967-.252.387 0 .711.083.972.248.261.164.459.385.592.66.137.276.205.578.205.908v.46c0 .33-.068.632-.205.908a1.635 1.635 0 01-.6.66c-.262.165-.583.247-.964.247-.383 0-.707-.082-.971-.247a1.637 1.637 0 01-.601-.66 2.025 2.025 0 01-.205-.908zm.993-.46v.46c0 .244.059.466.175.665.117.199.32.298.609.298.287 0 .488-.099.601-.298.114-.199.171-.421.171-.665v-.46a1.35 1.35 0 00-.166-.665c-.108-.199-.31-.298-.606-.298-.284 0-.485.099-.605.298a1.27 1.27 0 00-.179.665zm-5.382-4.534v-.461c0-.329.068-.632.205-.907.139-.276.341-.496.605-.661.267-.165.589-.247.967-.247.387 0 .71.082.972.247.261.165.459.385.592.661.134.275.2.578.2.907v.461c0 .329-.068.632-.204.907a1.61 1.61 0 01-.597.661c-.261.165-.582.247-.963.247-.386 0-.711-.082-.976-.247a1.649 1.649 0 01-.596-.661 2.007 2.007 0 01-.205-.907zm.997-.461v.461c0 .244.057.466.171.664.116.199.319.299.609.299.284 0 .483-.1.597-.299.116-.198.175-.42.175-.664v-.461a1.34 1.34 0 00-.167-.664c-.11-.199-.312-.299-.605-.299-.284 0-.486.1-.605.299-.116.199-.175.42-.175.664zm-.592 7.091l6-8.727h1.019l-6 8.727h-1.019zM38.842 96.22l-5.659 2.743V97.66l4.176-1.9-.043.072v-.183l.043.077-4.176-1.905v-1.3l5.66 2.745v.954zm8.062 3.894a3.282 3.282 0 01-1.44-.307 2.617 2.617 0 01-1.015-.852 2.25 2.25 0 01-.405-1.236h1.279c.03.375.197.683.498.925a1.68 1.68 0 001.083.362 1.64 1.64 0 001.504-.874 1.9 1.9 0 00.226-.933c0-.355-.077-.672-.23-.95a1.699 1.699 0 00-.635-.656 1.794 1.794 0 00-.92-.243c-.265 0-.53.045-.798.136-.267.091-.483.21-.648.358l-1.205-.179.49-4.398h4.798v1.13h-3.703l-.277 2.441h.05c.171-.164.397-.302.678-.413.285-.11.589-.166.912-.166a2.672 2.672 0 012.404 1.415c.241.434.36.934.358 1.5a2.917 2.917 0 01-.384 1.512c-.255.444-.61.793-1.065 1.049-.452.252-.97.379-1.556.379zm7.44 0a3.282 3.282 0 01-1.44-.307 2.617 2.617 0 01-1.014-.852 2.25 2.25 0 01-.404-1.236h1.278c.031.375.197.683.498.925.302.241.663.362 1.083.362.335 0 .632-.077.89-.23.262-.156.467-.37.614-.644a1.9 1.9 0 00.226-.933c0-.355-.077-.672-.23-.95a1.699 1.699 0 00-.635-.656 1.794 1.794 0 00-.92-.243c-.265 0-.53.045-.797.136a1.85 1.85 0 00-.648.358l-1.206-.179.49-4.398h4.798v1.13h-3.703l-.277 2.441h.051a2.05 2.05 0 01.678-.413c.284-.11.588-.166.912-.166a2.672 2.672 0 012.403 1.415c.242.434.361.934.358 1.5a2.917 2.917 0 01-.383 1.512 2.777 2.777 0 01-1.066 1.049c-.451.252-.97.379-1.555.379zm13.606-6.9c.144 4.237 1.524 7.741 3.528 7.741.792 0 1.104-.456 1.248-2.076a2.26 2.26 0 01-.696-.396c-.048 1.2-.168 1.68-.504 1.68-1.344.012-2.664-3.012-2.748-6.948h-.828zm1.644.433c.588.276 1.308.708 1.644 1.044l.48-.492c-.36-.324-1.08-.744-1.668-.996l-.456.444zm1.236 2.1a7.839 7.839 0 01-3.876 4.5c.18.144.492.468.612.636 1.824-1.068 3.288-2.724 4.08-4.944l-.816-.192zm-6.396 1.32c-.204.648-.54 1.284-.984 1.74.168.084.456.276.576.372.444-.48.852-1.224 1.08-1.98l-.672-.132zm-1.296-2.628v.768h9.324v-.768h-9.324zm.9 1.464v.66h3.828v-.66h-3.828zm-2.076-3.276v.768h10.572v-.768H61.962zm5.46-1.68v.708h3.996v-.708h-3.996zm-4.752 3.492v2.016c0 1.212-.108 2.88-1.044 4.092.204.084.588.3.744.444.96-1.284 1.14-3.18 1.14-4.524v-2.028h-.84zm4.248-4.512v3.06h.876v-3.06h-.876zm-3.024.54v2.568h.852v-2.568h-.852zm1.764 5.82v2.34c0 .096-.036.12-.12.12a5.649 5.649 0 01-.66 0c.096.156.228.408.276.588.432 0 .732-.012.972-.12.228-.096.288-.228.288-.588v-2.34h-.756zm1.692.876c-.384 1.488-1.692 2.676-3.564 3.252.132.132.312.396.396.552 2.016-.636 3.396-1.98 3.9-3.684l-.732-.12zm-28.495 21.832v-.955l2.953-3.06c.315-.332.575-.623.78-.873.207-.253.362-.493.464-.72.103-.228.154-.469.154-.725 0-.29-.069-.54-.205-.75a1.34 1.34 0 00-.558-.49 1.781 1.781 0 00-.797-.175c-.312 0-.585.064-.818.192a1.314 1.314 0 00-.537.541 1.707 1.707 0 00-.188.819h-1.257c0-.532.123-.996.367-1.394a2.49 2.49 0 011.005-.925 3.11 3.11 0 011.454-.332c.548 0 1.03.109 1.449.328.42.216.748.512.984.887.236.372.354.792.354 1.261 0 .324-.062.641-.184.95-.119.31-.328.655-.626 1.036a17.69 17.69 0 01-1.244 1.376l-1.735 1.815v.064h3.93v1.13h-5.745zm10.261-8.847c.39.003.773.074 1.15.213.379.139.72.367 1.023.682.307.315.552.741.733 1.278.185.534.279 1.199.282 1.995 0 .764-.077 1.444-.23 2.041-.154.594-.374 1.095-.66 1.504a2.89 2.89 0 01-1.036.933 2.91 2.91 0 01-1.373.32c-.52 0-.981-.102-1.385-.307a2.632 2.632 0 01-.984-.848 2.805 2.805 0 01-.473-1.253h1.3c.085.375.258.679.52.912.264.23.605.345 1.022.345.64 0 1.138-.278 1.496-.835.358-.56.538-1.341.541-2.344h-.068a2.345 2.345 0 01-.554.631 2.482 2.482 0 01-.737.409 2.587 2.587 0 01-.874.145 2.62 2.62 0 01-1.372-.371 2.73 2.73 0 01-.984-1.018 2.952 2.952 0 01-.367-1.479c0-.551.125-1.051.375-1.5a2.794 2.794 0 011.057-1.065c.455-.264.987-.394 1.598-.388zm.005 1.108c-.333 0-.633.082-.9.247a1.748 1.748 0 00-.626.661 1.85 1.85 0 00-.23.92c0 .338.074.645.221.921.151.272.355.49.614.652.261.159.56.238.895.238.25 0 .483-.048.699-.145a1.77 1.77 0 00.567-.4 1.97 1.97 0 00.379-.588 1.8 1.8 0 00.136-.691c0-.321-.076-.619-.23-.895a1.79 1.79 0 00-.622-.664 1.625 1.625 0 00-.904-.256zm5.262 7.82a.827.827 0 01-.6-.248.823.823 0 01-.252-.605c0-.233.084-.431.251-.596a.82.82 0 01.601-.252.82.82 0 01.601.252.805.805 0 01.252.596c0 .157-.04.3-.12.431a.882.882 0 01-.307.307.819.819 0 01-.426.115zm5.273.038a3.537 3.537 0 01-1.15-.213 2.695 2.695 0 01-1.024-.682c-.306-.318-.552-.746-.737-1.283-.182-.537-.273-1.207-.273-2.011 0-.761.076-1.437.226-2.028.154-.591.374-1.09.66-1.496.288-.409.634-.72 1.04-.933.407-.213.863-.32 1.368-.32.52 0 .982.102 1.385.307.404.204.73.487.98.848.253.361.414.771.482 1.231h-1.3a1.68 1.68 0 00-.524-.89c-.261-.23-.602-.345-1.023-.345-.639 0-1.137.278-1.495.835-.355.557-.534 1.331-.537 2.322h.064c.15-.247.335-.457.554-.63a2.598 2.598 0 011.61-.55c.506 0 .963.123 1.373.371.412.244.74.582.984 1.014.244.432.366.926.366 1.483s-.126 1.061-.379 1.513a2.78 2.78 0 01-1.057 1.073c-.454.262-.985.39-1.593.384zm-.005-1.108c.336 0 .635-.082.9-.247a1.79 1.79 0 00.626-.665c.153-.278.23-.589.23-.933 0-.335-.075-.641-.226-.916a1.705 1.705 0 00-.613-.657 1.634 1.634 0 00-.887-.243 1.711 1.711 0 00-1.265.546c-.162.17-.29.366-.384.588-.09.219-.136.45-.136.695a1.853 1.853 0 00.852 1.581c.267.167.568.251.903.251zm9.142-.648v-.46c0-.33.068-.631.205-.903.139-.276.34-.496.605-.661.267-.167.59-.251.967-.251.386 0 .71.082.972.247.261.165.459.385.592.66.136.276.204.578.204.908v.46c0 .33-.068.632-.204.908a1.632 1.632 0 01-.6.66c-.262.165-.583.248-.964.248-.383 0-.707-.083-.971-.248a1.632 1.632 0 01-.601-.66 2.02 2.02 0 01-.205-.908zm.993-.46v.46c0 .245.058.466.175.665.116.199.32.298.61.298.286 0 .486-.099.6-.298.114-.199.17-.42.17-.665v-.46c0-.244-.055-.466-.166-.665-.108-.199-.31-.298-.605-.298-.284 0-.486.099-.605.298-.12.199-.179.421-.179.665zm-5.382-4.534v-.46c0-.33.068-.632.204-.908a1.63 1.63 0 01.605-.66c.268-.165.59-.248.968-.248.386 0 .71.083.972.248.26.164.458.384.592.66.133.276.2.578.2.908v.46c0 .329-.068.632-.204.908a1.608 1.608 0 01-.597.66c-.261.165-.583.247-.963.247-.386 0-.712-.082-.976-.247a1.648 1.648 0 01-.597-.66 2.023 2.023 0 01-.204-.908zm.997-.46v.46c0 .244.057.466.17.665.117.199.32.298.61.298.284 0 .483-.099.597-.298.116-.199.174-.421.174-.665v-.46a1.34 1.34 0 00-.166-.665c-.11-.199-.313-.298-.605-.298-.284 0-.486.099-.605.298a1.29 1.29 0 00-.175.665zm-.592 7.091l6-8.728h1.018l-6 8.728H64.81z" fill="#1C1C1E"/><path d="M291.208 120.18a1 1 0 000-1.414l-6.364-6.364a1 1 0 10-1.415 1.414l5.657 5.657-5.657 5.657a1 1 0 001.415 1.414l6.364-6.364zm-48.708.293h48v-2h-48v2z" fill="#868694"/><path d="M409.263 14.473h-1.977l3.012-8.728h2.378l3.009 8.728h-1.978l-2.186-6.733h-.068l-2.19 6.733zm-.124-3.43h4.671v1.44h-4.671v-1.44zm10.965-3.116v1.364h-4.04V7.927h4.04zm-3.115 6.546V7.454c0-.474.092-.868.277-1.18.187-.313.443-.547.767-.703a2.506 2.506 0 011.103-.235c.279 0 .533.022.763.064.233.043.406.081.52.115l-.324 1.364a2.267 2.267 0 00-.264-.064 1.642 1.642 0 00-.315-.03c-.267 0-.454.063-.559.188-.105.122-.157.294-.157.515v6.985h-1.811zm7.705-6.546v1.364h-3.942V7.927h3.942zm-3.047-1.568h1.816v6.102a.83.83 0 00.076.392.43.43 0 00.213.192.882.882 0 00.324.056c.086 0 .171-.008.256-.022l.196-.038.286 1.35a5.103 5.103 0 01-.384.099c-.165.04-.365.064-.601.072-.437.017-.821-.041-1.15-.175a1.606 1.606 0 01-.763-.622c-.182-.281-.271-.636-.269-1.065V6.359zm7.142 8.241c-.673 0-1.252-.136-1.738-.409a2.807 2.807 0 01-1.117-1.167c-.261-.506-.392-1.104-.392-1.794 0-.674.131-1.264.392-1.773.262-.508.63-.905 1.104-1.189.477-.284 1.037-.426 1.679-.426.432 0 .834.07 1.206.209.375.136.702.342.98.618.281.275.5.622.656 1.04.157.414.235.9.235 1.457v.498h-5.527V10.54h3.818c0-.26-.057-.492-.171-.694a1.215 1.215 0 00-.473-.473 1.345 1.345 0 00-.694-.175c-.276 0-.52.064-.733.192-.21.125-.375.294-.494.507-.12.21-.181.445-.184.703v1.07c0 .323.06.603.179.84.122.235.294.417.516.545.221.127.484.191.788.191.202 0 .387-.028.554-.085.168-.057.311-.142.431-.255a1.11 1.11 0 00.272-.418l1.679.11c-.085.404-.26.756-.524 1.058a2.626 2.626 0 01-1.014.698c-.412.165-.888.248-1.428.248zm4.189-.127V7.927h1.76V9.07h.068c.12-.406.32-.713.601-.92.282-.21.605-.316.972-.316a2.74 2.74 0 01.571.064v1.611a2.359 2.359 0 00-.354-.068c-.15-.02-.288-.03-.413-.03-.267 0-.506.058-.716.175a1.287 1.287 0 00-.494.477c-.12.205-.179.44-.179.708v3.703h-1.816z" fill="#1C1C1E"/><path d="M422.49 138.479H322.5a99.987 99.987 0 0113.925-50.9l86.065 50.9z" fill="#D1D1D6"/><path d="M422.491 128.479l-86.066-50.9c28.111-47.532 89.432-63.277 136.965-35.166a99.994 99.994 0 0146.949 65.482l-97.848 20.584z" fill="#FFB03F" stroke="#ECECEC" stroke-width="4"/><path d="M422.49 138.479l97.848-20.584c11.368 54.04-23.224 107.065-77.264 118.433-35.912 7.555-73.076-5.169-96.821-33.149l76.237-64.7z" fill="#ABABB9"/><path d="M422.49 138.479l-76.236 64.699a99.991 99.991 0 01-23.754-64.699h99.99z" fill="#BABAC6"/><path d="M336.157 109.219v-.955l5.659-2.744v1.299l-4.176 1.905.038-.076v.183l-.038-.073 4.176 1.901v1.304l-5.659-2.744zm13.878 3.894c-.585 0-1.108-.1-1.568-.302a2.675 2.675 0 01-1.087-.84 2.227 2.227 0 01-.426-1.252h1.338c.017.258.104.483.26.673.159.187.367.332.623.435.255.102.539.153.852.153.344 0 .648-.06.912-.179.267-.119.476-.286.626-.499.151-.216.226-.464.226-.745 0-.293-.075-.55-.226-.772a1.475 1.475 0 00-.652-.528c-.284-.128-.628-.192-1.031-.192h-.737v-1.074h.737c.324 0 .608-.058.852-.174.247-.117.441-.279.58-.486.139-.21.209-.456.209-.737 0-.27-.062-.505-.184-.704a1.232 1.232 0 00-.511-.473 1.67 1.67 0 00-.776-.17 2.02 2.02 0 00-.797.158c-.244.102-.443.25-.596.443-.154.19-.236.419-.247.686h-1.274a2.15 2.15 0 01.417-1.244c.267-.358.62-.638 1.057-.84a3.435 3.435 0 011.457-.302c.56 0 1.043.109 1.449.328.409.216.725.504.946.865.225.361.336.755.333 1.184.003.489-.134.904-.409 1.245a1.989 1.989 0 01-1.091.686v.068c.579.088 1.028.318 1.346.69.321.372.48.834.478 1.385.002.48-.131.911-.401 1.291a2.728 2.728 0 01-1.095.9c-.463.216-.993.323-1.59.323zm7.577 0a3.293 3.293 0 01-1.44-.306 2.621 2.621 0 01-1.015-.853 2.251 2.251 0 01-.404-1.235h1.278c.031.375.197.683.499.924.301.242.662.363 1.082.363a1.642 1.642 0 001.504-.874c.151-.273.226-.584.226-.933 0-.355-.077-.672-.23-.951a1.697 1.697 0 00-.635-.656 1.796 1.796 0 00-.92-.243c-.265 0-.53.046-.797.137-.267.091-.483.21-.648.358l-1.206-.179.49-4.398h4.798v1.129h-3.703l-.277 2.442h.051c.171-.165.397-.303.678-.413.284-.111.588-.167.912-.167a2.671 2.671 0 012.403 1.415c.242.435.361.935.358 1.5a2.92 2.92 0 01-.383 1.513 2.774 2.774 0 01-1.066 1.048c-.451.253-.97.379-1.555.379zm13.605-6.899c.144 4.236 1.524 7.74 3.528 7.74.792 0 1.104-.456 1.248-2.076a2.26 2.26 0 01-.696-.396c-.048 1.2-.168 1.68-.504 1.68-1.344.012-2.664-3.012-2.748-6.948h-.828zm1.644.432c.588.276 1.308.708 1.644 1.044l.48-.492c-.36-.324-1.08-.744-1.668-.996l-.456.444zm1.236 2.1a7.837 7.837 0 01-3.876 4.5c.18.144.492.468.612.636 1.824-1.068 3.288-2.724 4.08-4.944l-.816-.192zm-6.396 1.32c-.204.648-.54 1.284-.984 1.74.168.084.456.276.576.372.444-.48.852-1.224 1.08-1.98l-.672-.132zm-1.296-2.628v.768h9.324v-.768h-9.324zm.9 1.464v.66h3.828v-.66h-3.828zm-2.076-3.276v.768h10.572v-.768h-10.572zm5.46-1.68v.708h3.996v-.708h-3.996zm-4.752 3.492v2.016c0 1.212-.108 2.88-1.044 4.092.204.084.588.3.744.444.96-1.284 1.14-3.18 1.14-4.524v-2.028h-.84zm4.248-4.512v3.06h.876v-3.06h-.876zm-3.024.54v2.568h.852v-2.568h-.852zm1.764 5.82v2.34c0 .096-.036.12-.12.12a5.649 5.649 0 01-.66 0c.096.156.228.408.276.588.432 0 .732-.012.972-.12.228-.096.288-.228.288-.588v-2.34h-.756zm1.692.876c-.384 1.488-1.692 2.676-3.564 3.252.132.132.312.396.396.552 2.016-.636 3.396-1.98 3.9-3.684l-.732-.12zm-24.839 21.951c-.611 0-1.151-.105-1.619-.315-.466-.21-.831-.5-1.096-.869a2.094 2.094 0 01-.392-1.262 2.226 2.226 0 01.861-1.798c.267-.21.565-.344.895-.4v-.052a1.76 1.76 0 01-1.044-.698 2.048 2.048 0 01-.388-1.245 2.039 2.039 0 01.354-1.193c.241-.352.572-.629.993-.831.42-.202.899-.302 1.436-.302.531 0 1.006.102 1.423.306.421.202.752.479.993.831.242.35.364.746.367 1.189a2.078 2.078 0 01-.401 1.245c-.264.36-.608.593-1.031.698v.052c.326.056.62.19.882.4.264.208.474.467.63.78.16.31.241.649.243 1.018a2.135 2.135 0 01-.4 1.262c-.264.369-.631.659-1.1.869-.466.21-1.001.315-1.606.315zm0-1.078c.361 0 .673-.059.937-.179.265-.122.469-.291.614-.507a1.38 1.38 0 00.222-.767 1.44 1.44 0 00-.239-.805 1.595 1.595 0 00-.626-.55 1.995 1.995 0 00-.908-.2c-.344 0-.649.067-.916.2a1.59 1.59 0 00-.631.55 1.407 1.407 0 00-.226.805c-.003.293.067.549.209.767.145.216.351.385.618.507.267.12.582.179.946.179zm0-4.061c.29 0 .547-.058.771-.174a1.329 1.329 0 00.729-1.215 1.35 1.35 0 00-.196-.716 1.252 1.252 0 00-.524-.473 1.703 1.703 0 00-.78-.17 1.75 1.75 0 00-.793.17 1.252 1.252 0 00-.524.473 1.317 1.317 0 00-.183.716c-.003.278.06.521.187.729.128.207.304.369.529.486.227.116.488.174.784.174zm5.232 5.101a.827.827 0 01-.601-.247.824.824 0 01-.252-.605c0-.233.084-.432.252-.597a.823.823 0 01.601-.251c.233 0 .433.084.601.251a.81.81 0 01.251.597c0 .156-.04.3-.119.43a.885.885 0 01-.307.307.81.81 0 01-.426.115zm5.282.038a3.297 3.297 0 01-1.441-.306 2.625 2.625 0 01-1.014-.853 2.244 2.244 0 01-.405-1.235h1.279c.031.375.197.683.498.924.301.242.662.363 1.083.363a1.645 1.645 0 001.504-.874c.151-.273.226-.584.226-.933 0-.355-.077-.672-.23-.951a1.704 1.704 0 00-.635-.656 1.797 1.797 0 00-.921-.243c-.264 0-.53.046-.797.137-.267.091-.483.21-.647.358l-1.206-.179.49-4.398h4.798v1.129h-3.703l-.277 2.442h.051c.171-.165.396-.303.678-.413.284-.111.588-.167.912-.167a2.671 2.671 0 012.403 1.415c.241.435.361.935.358 1.5a2.912 2.912 0 01-.384 1.513c-.255.443-.61.793-1.065 1.048-.452.253-.97.379-1.555.379zm9.116-1.755v-.46c0-.33.068-.631.204-.904.14-.275.341-.496.605-.66.268-.168.59-.252.968-.252.386 0 .71.083.971.247.262.165.459.385.593.661.136.275.204.578.204.908v.46c0 .329-.068.632-.204.907a1.647 1.647 0 01-.601.661c-.261.165-.583.247-.963.247-.384 0-.708-.082-.972-.247a1.647 1.647 0 01-.601-.661 2.02 2.02 0 01-.204-.907zm.993-.46v.46c0 .244.058.466.174.665.117.198.32.298.61.298.287 0 .487-.1.601-.298.113-.199.17-.421.17-.665v-.46a1.34 1.34 0 00-.166-.665c-.108-.199-.31-.299-.605-.299-.284 0-.486.1-.605.299a1.26 1.26 0 00-.179.665zm-5.382-4.535v-.46c0-.329.068-.632.204-.907.139-.276.341-.496.605-.661.267-.165.59-.247.968-.247.386 0 .71.082.971.247.262.165.459.385.593.661.133.275.2.578.2.907v.46c0 .33-.068.633-.205.908a1.607 1.607 0 01-.596.661c-.262.164-.583.247-.963.247-.387 0-.712-.083-.976-.247a1.651 1.651 0 01-.597-.661 2.02 2.02 0 01-.204-.908zm.997-.46v.46c0 .245.057.466.17.665.117.199.32.299.61.299.284 0 .483-.1.596-.299.117-.199.175-.42.175-.665v-.46c0-.244-.055-.466-.166-.665-.111-.198-.313-.298-.605-.298-.284 0-.486.1-.606.298a1.297 1.297 0 00-.174.665zm-.593 7.091l6-8.727h1.019l-6 8.727h-1.019zm-18.1 20.693l-5.659 2.745v-1.304l4.176-1.901-.043.073v-.184l.043.077-4.176-1.905v-1.3l5.659 2.745v.954zm8.061 3.895a3.279 3.279 0 01-1.44-.307 2.615 2.615 0 01-1.014-.852 2.25 2.25 0 01-.405-1.236h1.279c.031.375.197.684.498.925.301.242.662.362 1.082.362.336 0 .633-.076.891-.23.261-.156.466-.371.614-.643.15-.273.226-.584.226-.934 0-.355-.077-.671-.231-.95a1.701 1.701 0 00-.634-.656 1.8 1.8 0 00-.921-.243c-.264 0-.53.045-.797.136a1.869 1.869 0 00-.648.358l-1.205-.179.49-4.397h4.798v1.129h-3.703l-.277 2.442h.051a2.03 2.03 0 01.677-.414 2.49 2.49 0 01.912-.166 2.675 2.675 0 012.404 1.415c.241.435.361.935.358 1.5a2.914 2.914 0 01-.384 1.513 2.778 2.778 0 01-1.065 1.048c-.452.253-.97.379-1.556.379zm7.442 0a3.279 3.279 0 01-1.44-.307 2.61 2.61 0 01-1.015-.852 2.25 2.25 0 01-.404-1.236h1.278c.031.375.197.684.498.925.302.242.662.362 1.083.362.335 0 .632-.076.891-.23.261-.156.465-.371.613-.643.151-.273.226-.584.226-.934 0-.355-.077-.671-.23-.95a1.704 1.704 0 00-.635-.656 1.797 1.797 0 00-.921-.243c-.264 0-.529.045-.796.136a1.869 1.869 0 00-.648.358l-1.206-.179.49-4.397h4.798v1.129h-3.703l-.277 2.442h.051c.171-.165.397-.303.678-.414.284-.111.588-.166.912-.166a2.68 2.68 0 011.419.379c.417.253.746.598.984 1.036.242.435.361.935.358 1.5a2.923 2.923 0 01-.383 1.513 2.781 2.781 0 01-1.066 1.048c-.451.253-.97.379-1.555.379zm13.605-6.899c.144 4.236 1.524 7.74 3.528 7.74.792 0 1.104-.456 1.248-2.076a2.26 2.26 0 01-.696-.396c-.048 1.2-.168 1.68-.504 1.68-1.344.012-2.664-3.012-2.748-6.948h-.828zm1.644.432c.588.276 1.308.708 1.644 1.044l.48-.492c-.36-.324-1.08-.744-1.668-.996l-.456.444zm1.236 2.1a7.837 7.837 0 01-3.876 4.5c.18.144.492.468.612.636 1.824-1.068 3.288-2.724 4.08-4.944l-.816-.192zm-6.396 1.32c-.204.648-.54 1.284-.984 1.74.168.084.456.276.576.372.444-.48.852-1.224 1.08-1.98l-.672-.132zm-1.296-2.628v.768h9.324v-.768h-9.324zm.9 1.464v.66h3.828v-.66h-3.828zm-2.076-3.276v.768h10.572v-.768h-10.572zm5.46-1.68v.708h3.996v-.708h-3.996zm-4.752 3.492v2.016c0 1.212-.108 2.88-1.044 4.092.204.084.588.3.744.444.96-1.284 1.14-3.18 1.14-4.524v-2.028h-.84zm4.248-4.512v3.06h.876v-3.06h-.876zm-3.024.54v2.568h.852v-2.568h-.852zm1.764 5.82v2.34c0 .096-.036.12-.12.12a5.649 5.649 0 01-.66 0c.096.156.228.408.276.588.432 0 .732-.012.972-.12.228-.096.288-.228.288-.588v-2.34h-.756zm1.692.876c-.384 1.488-1.692 2.676-3.564 3.252.132.132.312.396.396.552 2.016-.636 3.396-1.98 3.9-3.684l-.732-.12zm-26.184 13.105v8.727h-1.321v-7.406h-.051l-2.088 1.363v-1.261l2.177-1.423h1.283zm5.672 0v8.727h-1.321v-7.406h-.051l-2.088 1.363v-1.261l2.177-1.423h1.283zm2.713 8.808a.83.83 0 01-.601-.247.829.829 0 01-.251-.605.81.81 0 01.251-.597.819.819 0 01.601-.251c.233 0 .433.083.601.251a.805.805 0 01.251.597.808.808 0 01-.119.43.885.885 0 01-.307.307.81.81 0 01-.426.115zm2.542-.081v-.955l2.953-3.059c.316-.333.576-.624.78-.874a3.34 3.34 0 00.465-.72c.102-.227.153-.469.153-.724 0-.29-.068-.54-.205-.75a1.331 1.331 0 00-.558-.491 1.78 1.78 0 00-.797-.174c-.312 0-.585.064-.818.191a1.317 1.317 0 00-.537.542 1.703 1.703 0 00-.187.818h-1.257c0-.531.122-.996.366-1.394.244-.397.58-.706 1.006-.924.426-.222.91-.333 1.453-.333.548 0 1.031.11 1.449.328.42.216.748.512.984.887.236.372.354.792.354 1.261 0 .324-.061.641-.183.95-.12.31-.329.655-.627 1.036-.298.378-.713.837-1.244 1.376l-1.735 1.816v.064h3.929v1.129h-5.744zm11.915-1.636v-.461c0-.329.068-.63.204-.903.14-.276.341-.496.606-.661.267-.167.589-.251.967-.251.386 0 .71.082.971.247.262.165.459.385.593.661.136.275.204.578.204.907v.461c0 .329-.068.632-.204.907a1.647 1.647 0 01-.601.661c-.261.164-.582.247-.963.247-.384 0-.708-.083-.972-.247a1.647 1.647 0 01-.601-.661 2.02 2.02 0 01-.204-.907zm.993-.461v.461c0 .244.058.465.174.664.117.199.32.299.61.299.287 0 .487-.1.601-.299.113-.199.17-.42.17-.664v-.461c0-.244-.055-.466-.166-.664-.108-.199-.31-.299-.605-.299-.284 0-.486.1-.605.299-.12.198-.179.42-.179.664zm-5.382-4.534v-.46c0-.33.068-.632.204-.908.139-.275.341-.495.605-.66.267-.165.59-.247.968-.247.386 0 .71.082.971.247.262.165.459.385.593.66.133.276.2.578.2.908v.46c0 .33-.068.632-.205.908a1.598 1.598 0 01-.596.66c-.262.165-.583.248-.963.248-.387 0-.712-.083-.976-.248a1.642 1.642 0 01-.597-.66 2.024 2.024 0 01-.204-.908zm.997-.46v.46c0 .245.057.466.17.665.117.199.32.298.61.298.284 0 .483-.099.596-.298.117-.199.175-.42.175-.665v-.46c0-.244-.055-.466-.166-.665-.111-.199-.313-.298-.605-.298-.284 0-.486.099-.605.298a1.288 1.288 0 00-.175.665zm-.592 7.091l6-8.727h1.018l-6 8.727h-1.018zm39.721-104.306c-.848 0-1.604-.146-2.267-.438-.659-.295-1.18-.7-1.562-1.216a3.06 3.06 0 01-.586-1.795h2.478c.015.284.108.534.278.75.174.212.405.377.693.494.288.118.612.176.972.176.375 0 .706-.066.994-.199.288-.132.514-.316.676-.55a1.39 1.39 0 00.245-.813c0-.31-.087-.585-.262-.824a1.666 1.666 0 00-.738-.568c-.318-.137-.697-.205-1.137-.205h-1.085v-1.807h1.085c.372 0 .699-.064.983-.193.288-.129.512-.307.671-.534.159-.231.238-.5.238-.807a1.396 1.396 0 00-.789-1.29 1.887 1.887 0 00-.864-.187c-.333 0-.638.06-.915.182a1.605 1.605 0 00-.665.506 1.34 1.34 0 00-.267.772h-2.358c.012-.67.203-1.261.574-1.772.372-.512.872-.911 1.5-1.2.633-.291 1.347-.437 2.142-.437.803 0 1.506.146 2.108.438.603.291 1.07.685 1.404 1.181.337.493.503 1.046.5 1.66.003.651-.199 1.195-.608 1.63-.406.436-.934.712-1.585.83v.09c.856.11 1.507.408 1.954.893.451.48.674 1.083.671 1.806a2.847 2.847 0 01-.574 1.768c-.383.515-.911.92-1.586 1.215-.674.296-1.447.444-2.318.444zm10.496 0c-.803 0-1.519-.148-2.148-.444a3.728 3.728 0 01-1.488-1.221 3.133 3.133 0 01-.574-1.784h2.386c.027.45.216.816.568 1.096.353.28.771.42 1.256.42.386 0 .727-.084 1.023-.255.299-.174.532-.415.699-.721.17-.311.255-.667.255-1.069 0-.409-.087-.769-.261-1.08a1.85 1.85 0 00-.71-.726 2.09 2.09 0 00-1.04-.267c-.341 0-.672.07-.994.21-.319.14-.567.331-.745.574l-2.187-.392.551-6.137h7.114v2.012h-5.086l-.301 2.914h.068c.205-.288.514-.526.926-.716a3.294 3.294 0 011.387-.284c.701 0 1.326.165 1.875.495.549.33.983.782 1.301 1.358.318.572.475 1.23.472 1.977.003.784-.178 1.48-.546 2.09a3.85 3.85 0 01-1.528 1.433c-.652.344-1.409.517-2.273.517zm11.523-6.938v1.92h-5.307v-1.92h5.307zm1.863 4.733v-1.937l4.858-7.654h1.671v2.682h-.989l-3.062 4.847v.09h6.903v1.972h-9.381zm5.586 2.046V68.36l.045-.858V59.36h2.307v11.637h-2.352zm5.258-2.046v-1.937l4.858-7.654h1.671v2.682h-.989l-3.063 4.847v.09h6.904v1.972h-9.381zm5.585 2.046V68.36l.046-.858V59.36h2.307v11.637h-2.353zm16.963-9.04c.192 5.536 1.84 10.464 4.64 10.464 1.28 0 1.84-.56 2.096-2.896a4.416 4.416 0 01-1.408-.832c-.064 1.472-.208 2.08-.576 2.08-1.44 0-2.928-4.112-3.008-8.816H461.5zm2.496.656c.688.368 1.536.928 1.936 1.328l.992-.944c-.432-.4-1.296-.912-1.984-1.248l-.944.864zm1.2 2.688c-.816 2.608-2.56 4.656-4.896 5.824.384.304 1.04.976 1.296 1.312 2.4-1.424 4.304-3.728 5.344-6.752l-1.744-.384zm-8.256 1.904c-.24.816-.688 1.616-1.312 2.176.336.176.88.544 1.136.752.64-.64 1.216-1.632 1.52-2.656l-1.344-.272zm-1.504-3.888v1.568h12.368v-1.568h-12.368zm1.264 2.16v1.312h4.832v-1.312H456.7zm-3.152-4.736v1.584H467.9v-1.584h-14.352zm7.568-2.208v1.408h5.424v-1.408h-5.424zm-6.672 4.784v2.768c0 1.632-.112 3.888-1.344 5.488.432.176 1.248.64 1.584.928 1.312-1.744 1.536-4.464 1.536-6.384v-2.8h-1.776zm5.6-5.92v4.144h1.872v-4.144h-1.872zm-4.096.72v3.456h1.792v-3.456h-1.792zm2.48 8.224v2.816c0 .128-.048.16-.16.16s-.448 0-.752-.016c.16.288.432.768.544 1.12.576 0 1.024-.016 1.424-.208.384-.176.48-.416.48-1.04v-2.832h-1.536zm2.272.96c-.496 1.888-2.176 3.376-4.656 4.064.256.256.64.784.816 1.088 2.704-.832 4.576-2.624 5.312-4.928l-1.472-.224zm-63.785 22.815c-.636 0-1.203-.11-1.7-.328-.494-.222-.885-.526-1.172-.912a2.296 2.296 0 01-.439-1.347h1.858a.97.97 0 00.209.563c.131.159.304.282.52.37.216.089.459.133.728.133.282 0 .53-.05.746-.15.216-.099.385-.237.507-.413s.184-.38.184-.61a1.02 1.02 0 00-.197-.617 1.247 1.247 0 00-.553-.426 2.158 2.158 0 00-.853-.154h-.814v-1.355h.814c.279 0 .524-.048.737-.145.216-.096.384-.23.503-.4.12-.174.179-.375.179-.605a1.047 1.047 0 00-.592-.968 1.416 1.416 0 00-.648-.14c-.25 0-.478.045-.686.136a1.2 1.2 0 00-.498.38 1.002 1.002 0 00-.201.579h-1.768c.008-.503.152-.946.43-1.33a2.802 2.802 0 011.125-.899c.475-.219 1.01-.328 1.607-.328.602 0 1.129.11 1.581.328.451.219.802.514 1.052.886.253.37.378.785.375 1.245.003.488-.149.896-.456 1.223-.304.326-.7.534-1.189.622v.068c.642.083 1.131.306 1.466.67.338.36.506.812.503 1.354.003.497-.14.94-.43 1.326-.287.386-.684.69-1.189.911-.506.222-1.085.333-1.739.333zm7.94 0c-.656 0-1.24-.107-1.751-.32-.509-.216-.908-.51-1.198-.882a2.01 2.01 0 01-.434-1.266c0-.363.082-.697.247-1 .167-.308.395-.562.682-.764.287-.204.608-.335.963-.392v-.06a1.894 1.894 0 01-1.134-.677c-.29-.36-.435-.78-.435-1.257 0-.452.133-.854.397-1.206a2.632 2.632 0 011.086-.835c.464-.205.989-.307 1.577-.307s1.112.102 1.573.307c.463.204.826.484 1.091.84.264.352.397.752.4 1.201-.003.48-.15.9-.443 1.257a1.907 1.907 0 01-1.125.678v.06c.349.056.666.187.95.391.287.202.514.456.682.763a2.053 2.053 0 01-.179 2.267c-.29.372-.69.666-1.202.882-.508.213-1.091.32-1.747.32zm0-1.355c.293 0 .548-.053.767-.158a1.27 1.27 0 00.512-.443c.125-.19.187-.41.187-.656 0-.253-.064-.476-.192-.67a1.318 1.318 0 00-.52-.46 1.61 1.61 0 00-.754-.17c-.281 0-.533.057-.754.17a1.31 1.31 0 00-.524.46 1.205 1.205 0 00-.188.67c0 .247.061.466.183.656.123.187.295.335.516.443.222.105.477.158.767.158zm0-3.9c.244 0 .462-.05.652-.148.19-.1.34-.238.448-.414.108-.176.162-.38.162-.61a1.091 1.091 0 00-.606-1c-.187-.1-.406-.15-.656-.15-.247 0-.466.05-.656.15-.19.096-.34.23-.448.404-.105.17-.157.37-.157.597 0 .23.054.433.162.61.108.175.257.313.447.412.191.1.408.15.652.15zm5.51 5.246a.994.994 0 01-.724-.298.996.996 0 01-.299-.724c0-.279.1-.517.299-.716a.994.994 0 01.724-.299c.273 0 .511.1.716.299a.962.962 0 01.307.716.957.957 0 01-.145.515 1.1 1.1 0 01-.371.371.974.974 0 01-.507.136zm2.496-.11v-1.33l3.107-2.876c.264-.256.486-.486.665-.69a2.67 2.67 0 00.413-.602c.094-.198.14-.413.14-.643 0-.256-.058-.476-.174-.66a1.15 1.15 0 00-.478-.431 1.493 1.493 0 00-.686-.153c-.267 0-.5.054-.698.162a1.118 1.118 0 00-.461.464 1.505 1.505 0 00-.162.72h-1.751c0-.57.129-1.067.388-1.487.258-.42.62-.746 1.086-.976.466-.23 1.003-.345 1.611-.345.625 0 1.169.11 1.632.332.466.22.828.523 1.087.912.258.39.388.836.388 1.338 0 .33-.066.655-.196.976-.128.321-.357.678-.686 1.07-.33.389-.794.856-1.394 1.402l-1.274 1.248v.06h3.665v1.509h-6.222zm12.336-1.637v-.46c0-.35.074-.67.221-.963a1.76 1.76 0 01.652-.707c.287-.18.637-.269 1.049-.269.417 0 .768.088 1.052.264.287.176.503.412.648.708.148.292.222.615.222.967v.46c0 .35-.074.672-.222.968a1.726 1.726 0 01-.652.703c-.287.179-.636.268-1.048.268-.418 0-.769-.09-1.053-.268-.284-.176-.5-.41-.648-.703a2.141 2.141 0 01-.221-.968zm1.24-.46v.46c0 .202.048.392.145.571.099.18.278.269.537.269.258 0 .434-.088.528-.264.097-.177.145-.368.145-.576v-.46c0-.207-.046-.4-.136-.58-.091-.179-.27-.268-.537-.268-.256 0-.434.09-.533.268a1.179 1.179 0 00-.149.58zm-5.719-4.534v-.46c0-.353.075-.675.226-.968.151-.295.368-.53.652-.707.287-.176.633-.264 1.04-.264.42 0 .772.088 1.057.264.284.176.5.412.647.707.148.293.222.615.222.968v.46c0 .352-.075.675-.226.967a1.726 1.726 0 01-.652.703c-.284.174-.634.26-1.048.26-.415 0-.766-.088-1.053-.264a1.773 1.773 0 01-.648-.703 2.152 2.152 0 01-.217-.963zm1.249-.46v.46c0 .207.048.399.145.575.099.176.274.264.524.264.261 0 .439-.088.532-.264.097-.176.145-.368.145-.575v-.46c0-.208-.045-.4-.136-.58-.091-.179-.271-.268-.541-.268-.253 0-.428.09-.524.272a1.204 1.204 0 00-.145.576zm-.686 7.09l6-8.727h1.116l-6 8.728h-1.116zm12.646-4.363c0-1.057.141-2.03.422-2.92a8.048 8.048 0 011.3-2.47h1.734a5.353 5.353 0 00-.618 1.03 9.23 9.23 0 00-.498 1.33c-.142.483-.253.983-.333 1.5a10.063 10.063 0 00.086 3.571c.139.685.326 1.321.562 1.91.239.587.506 1.069.801 1.444h-1.734a8.048 8.048 0 01-1.3-2.472c-.281-.889-.422-1.863-.422-2.923zm7.101 3.034v-6.034h1.525v6.034h-1.525zm-2.255-2.254v-1.526h6.035v1.526h-6.035zm11.6-5.144v8.728h-1.845v-6.976h-.051l-1.999 1.252v-1.636l2.161-1.368h1.734zm2.419 8.728l3.618-7.16v-.06h-4.214V81.27h6.123v1.53l-3.622 7.198h-1.905zm11.569-1.637v-.46c0-.35.074-.67.221-.963a1.76 1.76 0 01.652-.707c.287-.18.637-.269 1.049-.269.417 0 .768.088 1.052.264.287.176.503.412.648.708.148.292.222.615.222.967v.46c0 .35-.074.672-.222.968a1.726 1.726 0 01-.652.703c-.287.179-.636.268-1.048.268-.418 0-.769-.09-1.053-.268-.284-.176-.5-.41-.648-.703a2.141 2.141 0 01-.221-.968zm1.24-.46v.46c0 .202.048.392.145.571.099.18.278.269.537.269.258 0 .434-.088.528-.264.097-.177.145-.368.145-.576v-.46c0-.207-.045-.4-.136-.58-.091-.179-.27-.268-.537-.268-.256 0-.434.09-.533.268a1.179 1.179 0 00-.149.58zm-5.719-4.534v-.46c0-.353.075-.675.226-.968.151-.295.368-.53.652-.707.287-.176.634-.264 1.04-.264.42 0 .772.088 1.057.264.284.176.5.412.647.707.148.293.222.615.222.968v.46c0 .352-.075.675-.226.967a1.726 1.726 0 01-.652.703c-.284.174-.633.26-1.048.26-.415 0-.766-.088-1.053-.264a1.773 1.773 0 01-.648-.703 2.152 2.152 0 01-.217-.963zm1.249-.46v.46c0 .207.048.399.145.575.099.176.274.264.524.264.261 0 .439-.088.532-.264.097-.176.145-.368.145-.575v-.46c0-.208-.045-.4-.136-.58-.091-.179-.271-.268-.541-.268-.253 0-.428.09-.524.272a1.204 1.204 0 00-.145.576zm-.686 7.09l6-8.727h1.116l-6 8.728h-1.116zm12.528-4.363c0 1.06-.142 2.034-.426 2.923a7.972 7.972 0 01-1.296 2.472h-1.734c.222-.281.428-.625.618-1.031.19-.407.357-.85.499-1.33.142-.483.252-.983.332-1.5.079-.517.119-1.028.119-1.534 0-.673-.069-1.352-.209-2.037a10.355 10.355 0 00-.562-1.91c-.236-.587-.501-1.069-.797-1.444h1.734a7.972 7.972 0 011.296 2.472c.284.89.426 1.862.426 2.919zm-54.836 93.649v-1.065l3.772-5.957h.839v1.568h-.532l-2.698 4.27v.068h5.169v1.116h-6.55zm4.138 1.705v-2.029l.009-.485v-6.213h1.248v8.727h-1.257zm6.778.119a3.279 3.279 0 01-1.44-.307 2.61 2.61 0 01-1.015-.852 2.257 2.257 0 01-.404-1.236h1.278c.031.375.197.683.499.925.301.241.661.362 1.082.362.335 0 .632-.077.891-.23.261-.156.465-.371.613-.643.151-.273.226-.584.226-.934 0-.355-.077-.672-.23-.95a1.697 1.697 0 00-.635-.656 1.796 1.796 0 00-.92-.243c-.265 0-.53.045-.797.136-.267.091-.483.21-.648.358l-1.206-.179.49-4.397h4.798v1.129h-3.703l-.277 2.442h.051c.171-.165.397-.303.678-.414.284-.111.588-.166.912-.166a2.67 2.67 0 012.403 1.415c.242.434.361.934.358 1.5a2.923 2.923 0 01-.383 1.513 2.781 2.781 0 01-1.066 1.048c-.451.253-.97.379-1.555.379zm8.434-5.037v1.108h-3.869v-1.108h3.869zm4.562 5.037a3.279 3.279 0 01-1.44-.307 2.61 2.61 0 01-1.015-.852 2.257 2.257 0 01-.404-1.236h1.278c.031.375.198.683.499.925.301.241.662.362 1.082.362.335 0 .632-.077.891-.23.261-.156.466-.371.613-.643.151-.273.226-.584.226-.934 0-.355-.077-.672-.23-.95a1.697 1.697 0 00-.635-.656 1.796 1.796 0 00-.92-.243c-.265 0-.53.045-.797.136-.267.091-.483.21-.648.358l-1.206-.179.49-4.397h4.798v1.129h-3.703l-.277 2.442h.051c.171-.165.397-.303.678-.414.284-.111.588-.166.912-.166a2.67 2.67 0 012.403 1.415c.242.434.361.934.358 1.5a2.923 2.923 0 01-.383 1.513 2.781 2.781 0 01-1.066 1.048c-.451.253-.97.379-1.555.379zm4.378-1.824v-1.065l3.771-5.957h.839v1.568h-.532l-2.698 4.27v.068h5.169v1.116h-6.549zm4.137 1.705v-2.029l.009-.485v-6.213h1.248v8.727h-1.257zm12.942-6.78c.144 4.236 1.524 7.74 3.528 7.74.792 0 1.104-.456 1.248-2.076a2.26 2.26 0 01-.696-.396c-.048 1.2-.168 1.68-.504 1.68-1.344.012-2.664-3.012-2.748-6.948h-.828zm1.644.432c.588.276 1.308.708 1.644 1.044l.48-.492c-.36-.324-1.08-.744-1.668-.996l-.456.444zm1.236 2.1a7.837 7.837 0 01-3.876 4.5c.18.144.492.468.612.636 1.824-1.068 3.288-2.724 4.08-4.944l-.816-.192zm-6.396 1.32c-.204.648-.54 1.284-.984 1.74.168.084.456.276.576.372.444-.48.852-1.224 1.08-1.98l-.672-.132zm-1.296-2.628v.768h9.324v-.768h-9.324zm.9 1.464v.66h3.828v-.66h-3.828zm-2.076-3.276v.768h10.572v-.768h-10.572zm5.46-1.68v.708h3.996v-.708h-3.996zm-4.752 3.492v2.016c0 1.212-.108 2.88-1.044 4.092.204.084.588.3.744.444.96-1.284 1.14-3.18 1.14-4.524v-2.028h-.84zm4.248-4.512v3.06h.876v-3.06h-.876zm-3.024.54v2.568h.852v-2.568h-.852zm1.764 5.82v2.34c0 .096-.036.12-.12.12a5.649 5.649 0 01-.66 0c.096.156.228.408.276.588.432 0 .732-.012.972-.12.228-.096.288-.228.288-.588v-2.34h-.756zm1.692.876c-.384 1.488-1.692 2.676-3.564 3.252.132.132.312.396.396.552 2.016-.636 3.396-1.98 3.9-3.684l-.732-.12zm-35.769 20.127v-1.065l3.772-5.957h.839v1.568h-.532l-2.698 4.27v.068h5.169v1.116h-6.55zm4.138 1.705v-2.029l.009-.485v-6.213h1.248v8.727h-1.257zm3.897 0v-.955l2.953-3.059c.316-.333.576-.624.78-.874.208-.253.362-.493.465-.72a1.75 1.75 0 00.153-.725c0-.289-.068-.539-.204-.75a1.345 1.345 0 00-.559-.49 1.778 1.778 0 00-.797-.174c-.312 0-.585.064-.818.191a1.317 1.317 0 00-.537.542 1.703 1.703 0 00-.187.818h-1.257c0-.531.122-.996.366-1.394.245-.397.58-.706 1.006-.924.426-.222.91-.333 1.453-.333.548 0 1.031.11 1.449.328.42.216.748.512.984.887.236.372.354.792.354 1.261 0 .324-.061.641-.183.95-.12.31-.328.655-.627 1.036-.298.378-.713.836-1.244 1.376l-1.734 1.816v.064h3.929v1.129h-5.745zm8.216.081a.83.83 0 01-.601-.247.83.83 0 01-.251-.606c0-.232.084-.431.251-.596a.82.82 0 01.601-.252.82.82 0 01.601.252.805.805 0 01.251.596c0 .157-.039.3-.119.431a.885.885 0 01-.307.307.82.82 0 01-.426.115zm4.798-8.808v8.727h-1.321v-7.406h-.051l-2.088 1.363v-1.261l2.178-1.423h1.282zm6.917 7.09v-.46c0-.329.068-.63.204-.903.139-.276.341-.496.605-.661.267-.167.59-.251.968-.251.386 0 .71.082.971.247.262.165.459.385.593.661.136.275.204.578.204.907v.46c0 .33-.068.633-.204.908a1.647 1.647 0 01-.601.661c-.262.164-.583.247-.963.247-.384 0-.708-.083-.972-.247a1.647 1.647 0 01-.601-.661 2.02 2.02 0 01-.204-.908zm.993-.46v.46c0 .245.058.466.174.665.117.199.32.298.61.298.287 0 .487-.099.6-.298.114-.199.171-.42.171-.665v-.46c0-.244-.055-.466-.166-.665-.108-.198-.31-.298-.605-.298-.284 0-.486.1-.605.298-.12.199-.179.421-.179.665zm-5.383-4.534v-.46c0-.33.069-.632.205-.908a1.63 1.63 0 01.605-.66c.267-.165.59-.247.967-.247.387 0 .711.082.972.247.261.164.459.385.592.66.134.276.201.578.201.908v.46c0 .33-.069.632-.205.908a1.598 1.598 0 01-.596.66c-.262.165-.583.247-.964.247-.386 0-.711-.082-.975-.247a1.635 1.635 0 01-.597-.66 2.025 2.025 0 01-.205-.908zm.998-.46v.46c0 .244.056.466.17.665.117.199.32.298.609.298.285 0 .483-.099.597-.298.117-.199.175-.421.175-.665v-.46c0-.244-.056-.466-.166-.665-.111-.199-.313-.298-.606-.298-.284 0-.485.099-.605.298a1.297 1.297 0 00-.174.665zm-.593 7.091l6-8.727h1.019l-6 8.727h-1.019z" fill="#1C1C1E"/></svg>